<?xml version="1.0" encoding="utf-8"?><!DOCTYPE svg  PUBLIC '-//W3C//DTD SVG 1.1//EN'  'http://www.w3.org/Graphics/SVG/1.1/DTD/svg11.dtd'><svg enable_background="new 0 0 1000 633" height="633px" pretty_print="False" style="stroke-linejoin: round; stroke:#000; fill: none;" version="1.1" viewBox="0 0 1000 633" width="1000px" xmlns="http://www.w3.org/2000/svg" xmlns:xlink="http://www.w3.org/1999/xlink"><defs><style type="text/css"><![CDATA[path { fill-rule: evenodd; }]]></style></defs><metadata><views><view h="633.322336914" padding="0" w="1000"><proj dist="1.6" id="satellite" lat0="46.5614308305" lon0="6.5111085097" tilt="0" up="0"/><bbox h="71.49" w="113.06" x="986.03" y="954.31"/></view></views></metadata><g class="" id="nutsregions"><path d="M183.202521,309.972670L183.202519,309.972669L178.265615,303.919345L175.236464,300.202425L174.097227,298.803980L169.268080,292.872757L169.627342,288.923229L170.145674,283.221599L150.312545,297.541244L148.284226,298.448628L144.981631,299.925361L141.437568,301.509089L137.152601,303.422556L128.528518,307.269199L127.372032,307.784579L117.832114,312.031883L112.982686,310.418685L108.501117,319.257621L106.603269,322.997671L108.279202,325.144686L111.578509,329.369354L112.624816,330.708559L111.238557,334.993223L111.138205,335.303306L108.358636,337.593653L102.481458,342.432968L102.473124,342.439827L97.892444,346.208354L97.730125,346.341841L94.416641,349.066008L94.404484,349.076000L93.488028,349.829198L91.220359,351.692415L90.711707,352.110251L90.241138,352.496772L85.898879,356.062061L85.695230,356.229209L80.704222,360.323897L66.784853,371.725871L60.306857,377.023445L57.543898,379.281232L57.212086,379.552308L54.751884,381.561728L49.544964,385.811925L47.180374,387.740852L47.138029,387.775388L46.965651,387.915977L42.123046,391.863900L38.726954,395.456153L38.572708,395.619258L35.943244,398.399070L41.900912,404.521188L41.900914,404.521190L41.901058,404.521333L41.901570,404.521841L43.916690,406.521370L43.916740,406.521420L43.916830,406.521509L43.916862,406.521541L45.933099,408.521479L44.415273,410.599381L42.300143,413.493957L42.278262,413.523895L34.927139,423.574587L34.674521,423.919716L27.336218,433.937945L29.319190,438.865102L29.624869,439.624357L30.262169,441.207069L29.163392,443.112872L28.063540,445.020062L25.296613,449.815920L48.703302,465.909411L46.122107,470.002625L45.971052,470.242096L44.908052,471.927068L44.562869,472.474138L44.045007,473.294807L43.866266,473.578041L42.292324,476.071649L40.224941,479.345741L38.768854,481.650860L42.464022,484.077450L43.788987,484.947187L48.007301,487.714929L49.101798,488.432743L54.921098,492.247112L59.578555,483.457887L62.290250,477.836504L57.231343,473.591395L55.267597,471.942586L49.639934,467.214491L58.043093,470.671920L64.447081,473.303146L85.272194,454.068172L105.284160,450.222667L125.962278,437.218483L161.938979,437.829917L192.743645,446.456605L200.872748,457.191706L207.337188,465.716502L207.840756,466.380123L211.453707,471.139523L211.639369,471.384010L212.212741,472.138991L214.180123,474.728890L217.405006,478.972074L222.479679,488.873127L227.283860,498.235002L229.194412,501.955000L230.136585,503.788843L232.027563,507.468156L233.189392,509.727898L234.269346,511.827817L234.977913,513.205290L240.148122,523.249062L240.148123,523.249064L240.148125,523.249066L249.068752,518.931566L256.798989,515.184737L262.446265,509.087197L266.648018,504.546413L274.422936,496.135090L274.463786,485.494501L281.559364,477.303748L279.134778,464.581959L278.540141,461.459312L277.338820,461.438361L275.275313,461.402180L276.053416,458.575682L278.618794,449.249623L280.811066,441.271156L283.091348,432.963770L283.309444,432.168753L286.952044,418.878599L284.936324,408.307200L284.347871,405.218864L279.102592,410.713809L277.857206,412.017719L276.647196,410.441422L274.474790,407.610490L269.666537,412.231487L262.391574,419.215837L259.297310,422.183837L257.468803,423.936987L254.367620,426.909099L252.310722,426.902927L245.688564,426.881404L237.908329,434.187575L228.743301,442.781709L227.085461,431.392837L226.864137,429.871367L226.353574,426.360623L223.364931,423.885467L221.235030,422.120775L209.544904,416.472072L205.226122,419.863368L204.581613,420.369258L200.242554,423.773691L198.561972,425.091626L195.165473,421.220913L193.376871,419.181640L193.221930,409.881209L199.031741,409.756785L202.883648,409.673221L203.070469,409.669147L207.957358,404.611701L208.164764,404.396960L208.540006,404.008427L206.800357,402.607348L202.846104,399.421195L202.142303,398.853889L199.520703,396.740153L196.984397,397.186753L194.902283,397.553084L193.014397,397.885014L190.789235,398.275964L190.043162,398.406977L189.703025,398.466695L186.832827,398.970338L186.881374,396.201929L186.969675,391.163233L187.158215,380.390336L189.676128,377.725092L191.726997,375.553341L191.813004,375.462247L196.112452,370.906745L197.312475,369.634633L201.239572,365.469728L201.630134,365.055356L203.030152,363.569753L205.270440,361.191744L208.124836,358.160500L212.475286,353.537547L213.516475,352.430609L214.172432,351.733125L214.537968,351.344412L214.611538,351.266174L217.289777,348.417308L217.555181,348.134922L216.631394,341.691414L215.982950,337.165796L218.141236,333.011283L218.421814,332.471025L222.874753,323.891588L225.412647,318.997444L228.206789,313.605436L228.421536,311.091494L229.095942,303.191051L224.876320,299.773607L224.532959,299.495418L222.150292,297.564568L219.536102,295.445236L215.423399,292.109227L208.574750,286.549000L202.029585,291.722003L202.029586,291.722004L206.779648,299.764310L209.923092,305.081729L210.628863,306.275088L213.777215,311.596198L210.557608,319.106519L212.991616,321.477020L215.335606,323.758926L216.456020,324.849345L215.248597,327.154588L213.918915,329.692430L213.277949,330.915477L212.054245,333.249906L208.320607,333.118251L202.935502,332.926950L198.028645,332.751188L191.747034,332.524163L187.236680,332.359755L184.188940,328.821409L182.521682,326.884937L182.097225,326.391849L180.222523,324.213568L174.946121,318.078742L183.202521,309.972670Z M196.632886,338.695017L198.401458,336.093878L199.128140,335.024824L199.128141,335.024826L201.110752,337.379933L205.746625,342.883467L203.566612,346.877574L202.671682,348.516595L201.325375,350.981612L199.158636,350.071496L197.722891,349.468225L196.040658,348.761183L193.486651,347.687315L191.175642,346.715183L192.120745,345.326884L196.632886,338.695017Z M181.505566,348.107601L181.300981,352.316925L176.426869,348.764342L177.795498,347.151635L181.780167,342.454015L181.505566,348.107601Z M242.195521,306.989235L246.114103,301.037545L249.637126,295.682310L251.365146,293.305347L250.615104,291.299876L250.076215,289.858696L246.614137,280.594007L243.957478,273.477759L242.562113,269.737667L239.956877,268.867774L231.691679,266.724990L215.610992,277.727876L218.041837,281.224875L221.820393,286.657268L225.720772,292.260450L228.682951,296.512889L231.234618,300.173968L233.167879,302.946517L239.181384,311.563768L242.195521,306.989235Z " data-nuts-id="CH011" data-shape-area="3.78677558143e-001" data-shape-leng="5.37469690012e+000" data-stat-levl-="3"/><path d="M558.031702,408.951514L547.184731,404.120572L542.743609,393.393708L542.612843,387.037235L542.243048,369.100914L537.217712,373.138737L534.086728,375.652719L533.553982,379.888383L533.510004,380.237906L533.126353,383.286191L532.408924,388.982418L531.841814,393.481410L511.932724,407.839215L509.623599,409.501389L493.492246,412.619966L491.276883,411.647152L485.845293,409.260392L479.269413,406.367704L475.611547,404.757161L473.468986,403.813311L469.277166,401.965670L462.417033,401.751115L452.906206,401.449175L451.972580,401.419254L444.473876,407.680772L445.708405,416.121076L438.090171,420.986373L434.142094,423.505338L429.926294,426.193287L428.118092,426.452590L420.844764,427.493627L418.481495,427.831199L418.481485,427.831207L414.945988,430.429070L411.827057,432.719576L404.923559,437.785204L389.863562,448.815761L387.908413,447.828706L375.742107,441.679194L370.650867,439.102034L367.158889,443.551223L364.634252,446.765989L363.790135,447.000160L361.606202,447.605795L355.051542,449.421584L350.442250,450.696745L355.064400,457.030623L355.261906,457.301147L351.560741,461.053562L347.372359,461.900942L344.113594,462.559488L340.184194,463.352675L338.800819,459.606072L338.467644,458.703492L329.317403,458.524053L318.272100,464.204444L316.899782,464.909445L302.294226,472.402430L300.749463,469.338449L300.558563,468.959724L298.628299,465.129303L290.521990,467.912210L289.760572,471.458487L289.227673,473.939482L288.866143,475.622192L288.610355,476.812518L281.559364,477.303748L274.463786,485.494501L274.422936,496.135090L266.648018,504.546413L262.446265,509.087197L256.798989,515.184737L249.068752,518.931566L240.148125,523.249066L240.148123,523.249064L240.148122,523.249062L234.977913,513.205290L234.269346,511.827817L233.189392,509.727898L232.027563,507.468156L230.136585,503.788843L229.194412,501.955000L227.283860,498.235002L222.479679,488.873127L217.405006,478.972074L214.180123,474.728890L212.212741,472.138991L211.639369,471.384010L211.453707,471.139523L207.840756,466.380123L207.337188,465.716502L200.872748,457.191706L192.743645,446.456605L188.499367,457.172463L186.388340,462.496945L185.056721,465.853749L182.569613,472.119563L182.569615,472.119565L182.570286,472.120280L182.572817,472.122975L183.664456,473.285210L186.965052,476.797905L187.432655,477.295392L188.213284,478.125821L191.740625,481.876776L192.080492,482.238067L194.406096,484.709693L194.721367,485.044682L199.584608,490.209756L199.713983,490.347101L202.626377,493.438085L201.929111,494.727523L201.373119,495.755547L194.546520,508.366387L194.285161,508.848777L193.829931,509.688919L193.060254,511.109171L192.079561,512.918410L191.833228,513.372793L191.722139,513.577696L191.199441,514.541736L189.137011,518.344385L189.031746,520.239072L188.722325,525.805682L188.532021,529.227318L187.952878,539.630775L189.345208,539.877442L189.640655,539.929769L190.298064,540.046184L190.347882,540.055005L196.093804,541.071355L196.972655,541.226630L197.752183,541.364317L208.442868,543.248848L208.723785,543.298273L210.207846,543.559302L210.554736,543.620297L210.468725,543.960032L209.442236,548.013500L209.020717,549.677438L208.938122,550.003439L207.829556,554.377683L207.804561,554.476282L206.284577,560.470039L205.358880,564.118184L204.691081,566.748945L208.714981,569.804786L211.354207,567.613431L213.338009,565.965645L213.369306,565.939645L213.927411,565.475971L214.114350,565.320653L217.223123,562.737023L218.141447,561.973570L218.141448,561.973571L219.024960,563.191519L219.064047,563.245396L221.643060,566.799407L222.086021,567.409649L222.230429,567.608580L233.653652,583.326970L235.847729,586.342009L236.912428,587.804621L236.974369,587.889702L237.625205,588.783617L238.145611,589.498307L238.342097,590.206202L240.261998,597.120219L240.322049,597.336389L241.466931,601.456722L242.528379,605.275078L243.316156,608.107894L245.411915,610.675531L259.698197,628.152197L272.523373,626.937127L278.092031,622.928394L285.161015,617.834334L285.286641,617.743752L297.821625,608.696037L299.016423,607.832662L304.430349,609.992955L307.476138,611.207329L316.830275,614.932504L318.838381,615.731349L330.863363,606.831188L336.097264,602.951857L338.837204,600.919696L346.037672,595.574862L353.902935,589.729289L362.732955,589.633021L379.196548,589.441490L381.146256,589.417770L384.498692,593.774677L385.931740,595.636275L387.961947,598.272766L391.117246,602.368369L393.947716,606.040309L399.320772,601.105382L400.099313,600.389945L405.230485,601.846997L415.983328,604.894699L419.681465,605.941091L420.603569,606.201861L425.970563,607.718512L425.970564,607.718510L426.892352,606.658268L427.442103,606.025856L428.913348,604.333071L435.586458,581.803616L438.017698,581.794399L447.088942,581.756992L453.460799,581.727871L453.460803,581.727868L458.578290,576.522122L463.459486,566.173672L462.934315,547.972375L479.087232,544.277484L485.924908,536.426870L489.418877,532.411366L491.445246,523.031018L490.059670,519.456656L485.353853,507.306697L479.349163,502.387977L476.603078,500.136965L474.944173,498.776656L472.208432,496.532552L475.412709,493.226147L479.810260,488.685314L485.319351,482.991621L486.621676,482.844021L499.534567,481.375075L499.534568,481.375075L499.534578,481.375051L503.486384,472.187420L503.486391,472.187405L506.146964,470.230717L512.464645,465.580962L522.761335,457.992144L522.609619,456.458781L521.915469,449.441433L521.704264,449.379946L517.259318,448.085211L520.212569,444.006844L521.317588,442.480180L529.943975,437.948018L537.188132,434.136819L538.129122,433.641406L538.998324,424.765191L539.469342,419.949374L549.533261,419.506176L550.623633,419.457805L550.623636,419.457801L558.031700,408.951517L558.031702,408.951514Z " data-nuts-id="CH012" data-shape-area="6.09433864399e-001" data-shape-leng="5.03686685092e+000" data-stat-levl-="3"/><path d="M49.101798,488.432743L48.007301,487.714929L43.788987,484.947187L42.464022,484.077450L38.768854,481.650860L37.544978,484.089166L37.329648,484.518085L37.237215,484.702197L33.565799,492.011621L33.981275,492.866376L35.129871,495.228880L35.673973,496.347767L36.567316,498.184476L33.310654,499.856659L24.079995,504.591246L21.534835,505.895401L18.791702,507.300366L13.191800,510.166461L12.300145,510.622568L9.785075,511.908725L8.914319,512.353885L8.851265,512.386117L6.383918,513.647135L6.287537,513.696382L5.046735,514.330324L3.920082,516.976273L2.805189,519.593772L2.780808,519.651005L2.624595,520.017686L3.919906,521.350376L8.936626,526.509000L8.936624,526.509003L8.223408,527.762872L7.788406,528.527527L7.654239,528.763352L5.805526,532.012111L2.786948,537.313739L2.716296,537.437785L0.790736,540.817752L6.299082,539.269232L6.606523,539.182744L12.566490,537.504868L13.156140,537.338738L18.443719,535.847968L19.223953,535.627833L22.135917,534.805893L32.240346,536.627274L40.705186,538.148280L40.705188,538.148279L42.343128,536.550443L42.846630,536.059180L47.724045,531.298158L52.102194,527.021137L52.356648,526.772463L54.655448,524.525394L54.764222,524.419046L56.426169,522.793924L57.690155,521.557637L58.684842,520.584563L59.369574,519.914613L60.017478,519.280625L60.405774,518.900634L60.816761,518.704744L61.205387,518.519498L61.806268,518.233052L63.371640,517.486683L63.477736,517.436089L64.595258,516.903120L75.376229,511.756099L76.105882,511.407399L78.833492,503.047848L79.253198,501.760799L74.607409,502.918310L71.532356,503.683700L69.922867,504.084064L68.616649,502.172052L67.639237,500.740997L65.146755,497.090367L63.930947,495.308935L63.573237,494.784723L64.217586,492.714827L64.228605,492.679426L64.234201,492.661447L64.503208,491.797141L64.554662,491.631810L65.663563,488.067968L65.851519,487.463757L66.059916,486.793787L64.503357,485.992977L64.379413,485.929202L59.578555,483.457887L54.921098,492.247112L49.101798,488.432743Z M64.447081,473.303146L58.043093,470.671920L49.639934,467.214491L55.267597,471.942586L57.231343,473.591395L62.290250,477.836504L64.447081,473.303146Z " data-nuts-id="CH013" data-shape-area="3.29975463629e-002" data-shape-leng="1.13296170381e+000" data-stat-levl-="3"/><path d="M351.905044,157.915791L346.721111,160.277116L341.873296,162.483342L337.190835,164.612489L333.590037,164.045337L326.318977,162.897729L325.622533,162.787641L321.077028,162.068418L319.636355,161.840206L316.232897,161.300583L315.690585,161.214535L312.824127,160.759423L307.383119,163.314334L306.542291,163.708939L306.059081,163.935684L302.933255,165.402004L291.524731,170.746819L286.773142,170.276213L281.324713,169.734975L281.168295,169.719411L276.857888,169.289960L276.797302,169.283916L276.053855,169.209733L266.111262,168.214554L263.345573,175.775878L261.719870,180.217051L264.590125,182.823504L264.590124,182.823504L248.100986,184.379160L243.306354,184.828537L243.030418,185.197207L239.862177,189.428748L236.948519,193.317885L235.781692,194.874720L231.734008,200.272505L227.427791,206.010242L220.338243,202.425401L217.987822,204.316086L205.500851,214.348314L203.474308,208.312979L203.305560,207.810229L202.972877,206.818980L200.609968,209.500502L206.610136,220.518396L204.011441,228.714288L201.915603,235.318115L206.447787,233.657344L212.987389,231.258336L220.403859,228.533877L224.665949,226.966369L236.502361,222.606218L238.213748,224.135141L245.619102,230.745971L249.355816,234.078700L249.579538,236.528270L250.235860,243.711156L247.509911,245.593806L245.960578,246.663462L243.528406,248.342079L239.212598,251.319081L239.212595,251.319083L238.261390,254.799214L236.689911,260.545367L239.956877,268.867774L242.562113,269.737667L259.950611,265.025882L265.932607,263.400323L270.336858,262.201993L274.721301,261.007780L275.459946,260.806467L278.674809,259.929855L280.645746,263.331856L281.548633,264.889811L282.732700,266.932469L281.530538,268.243941L281.483523,268.295225L281.067735,268.748750L279.354554,270.617053L278.192028,271.884511L277.987593,272.107370L276.499234,273.729620L276.523278,274.766504L276.542929,275.613932L276.610566,278.530591L276.623270,279.078377L276.709324,282.788961L276.730555,283.704389L276.797750,286.601551L276.857117,289.161061L276.905311,291.238764L281.922148,292.356615L287.696619,293.641326L290.197292,294.197028L299.632880,296.290281L305.797240,297.654806L308.906650,298.342192L310.159587,305.772290L300.507706,324.746113L298.103634,329.464486L295.378462,334.809425L295.733390,337.683814L295.760556,337.903790L296.296462,342.242236L296.316763,342.406551L296.832102,346.576745L297.297698,350.342974L306.838931,353.553419L308.464157,354.099641L311.478881,357.136721L314.643868,360.323512L315.461366,361.146365L314.517040,366.085388L312.993122,372.379675L309.629127,372.441603L302.781484,372.565653L302.757078,378.307492L302.743956,381.384558L302.694608,392.896279L297.152527,396.622541L289.526021,401.744728L289.135257,402.007003L284.347874,405.218862L284.347871,405.218864L284.936324,408.307200L286.952044,418.878599L283.309444,432.168753L283.091348,432.963770L280.811066,441.271156L278.618794,449.249623L276.053416,458.575682L275.275313,461.402180L277.338820,461.438361L278.540141,461.459312L279.134778,464.581959L281.559364,477.303748L288.610355,476.812518L288.866143,475.622192L289.227673,473.939482L289.760572,471.458487L290.521990,467.912210L298.628299,465.129303L300.558563,468.959724L300.749463,469.338449L302.294226,472.402430L316.899782,464.909445L318.272100,464.204444L329.317403,458.524053L338.467644,458.703492L338.800819,459.606072L340.184194,463.352675L344.113594,462.559488L347.372359,461.900942L351.560741,461.053562L355.261906,457.301147L355.064400,457.030623L350.442250,450.696745L355.051542,449.421584L361.606202,447.605795L363.790135,447.000160L364.634252,446.765989L367.158889,443.551223L370.650867,439.102034L375.742107,441.679194L387.908413,447.828706L389.863562,448.815761L404.923559,437.785204L411.827057,432.719576L414.945988,430.429070L418.481485,427.831207L418.481495,427.831199L420.844764,427.493627L428.118092,426.452590L429.926294,426.193287L434.142094,423.505338L438.090171,420.986373L445.708405,416.121076L444.473876,407.680772L451.972580,401.419254L452.906206,401.449175L462.417033,401.751115L469.277166,401.965670L473.468986,403.813311L475.611547,404.757161L479.269413,406.367704L485.845293,409.260392L491.276883,411.647152L493.492246,412.619966L509.623599,409.501389L511.932724,407.839215L531.841814,393.481410L532.408924,388.982418L533.126353,383.286191L533.510004,380.237906L533.553982,379.888383L534.086728,375.652719L537.217712,373.138737L542.243048,369.100914L541.283841,364.597416L539.543825,356.423406L544.827017,356.884074L551.164904,357.434563L550.764054,350.121241L549.833836,333.149506L540.367003,331.577424L537.990520,331.181931L532.088201,326.047953L532.088200,326.047954L529.247388,327.830401L522.309418,332.180005L513.607650,337.628221L508.809556,335.176037L503.757448,332.591897L498.303770,333.946157L496.467801,334.401631L483.496489,337.613355L483.496486,337.613352L478.067488,333.234783L477.480089,332.760810L474.312712,330.204288L471.042025,327.563027L470.872511,327.426097L466.281283,327.600925L465.331601,327.636936L463.777289,327.695761L461.581062,327.778644L461.401893,327.833696L447.817884,332.001113L444.447930,329.254367L442.923990,328.011765L440.973915,326.421257L440.172895,325.767791L423.917676,312.488804L421.771105,307.317784L419.377579,301.548257L420.241281,296.802531L421.835556,288.034198L422.516198,284.287425L428.942415,282.020479L429.980228,281.654094L431.710997,281.042898L438.778278,262.698845L440.262647,258.840123L440.262649,258.840120L439.106570,258.036935L436.757140,256.404214L430.539629,252.080455L423.964019,247.503014L420.821270,245.313578L420.821267,245.313577L421.027126,240.775878L421.423252,232.031829L421.585474,228.446238L421.764125,224.494331L421.967466,219.992210L422.362809,211.226571L422.411106,210.154585L422.702720,203.676781L418.713668,195.846628L413.304164,185.216359L410.055420,175.224582L410.055418,175.224582L406.119909,175.702712L403.651588,176.002125L399.435708,176.512690L395.971331,176.931458L391.466493,177.474937L390.099518,177.639616L386.692917,174.098682L380.800131,167.968684L379.537570,166.654499L377.461475,167.200313L371.779554,168.692670L364.022003,170.726778L362.570908,171.106833L356.814413,172.613151L358.609639,177.235789L359.964499,180.722870L360.694175,182.600301L365.833272,187.747132L366.017656,187.931711L371.505051,193.422282L372.126793,194.044065L374.569690,196.486491L375.185707,197.102231L377.804353,199.718989L377.707512,201.994136L377.494612,206.992221L373.155644,209.933061L370.459905,211.759098L369.715297,211.820442L366.666170,212.071308L366.533643,212.082200L362.843391,212.385064L359.427880,212.664675L357.407842,211.101098L354.665701,208.977780L354.577069,208.909134L354.057329,208.506573L352.615632,207.389742L348.709877,208.618520L344.892182,209.818575L344.549899,210.572639L342.875196,214.260971L341.379660,217.553156L338.545939,223.787127L336.894325,227.418134L334.450210,232.788157L333.917645,233.957753L332.876272,236.244237L330.949548,236.804581L327.823721,237.713124L323.813352,235.725555L323.046910,235.345546L316.303922,232.000157L316.137023,231.917305L314.377820,231.043854L312.967513,226.023172L311.971351,222.475172L316.939056,222.294784L321.639850,222.122785L324.227958,222.027546L324.376174,222.022080L324.667154,222.011346L326.978023,221.925927L326.074351,220.269361L323.971273,216.412759L324.949236,215.758914L327.005198,214.383998L330.928491,211.759014L338.869629,206.440570L338.869631,206.440569L334.300563,200.034799L327.832750,203.038532L326.542069,203.637525L324.730274,204.478129L316.309303,208.381573L309.460080,191.332577L309.460067,191.332543L309.460073,191.332538L321.628278,181.776734L327.086761,177.483840L327.609949,177.072166L333.435818,172.485623L336.167711,170.333344L336.180915,170.322939L338.133227,168.784236L351.905044,157.915791Z M351.905044,157.915791L350.458069,150.582642L349.195597,152.354917L349.003955,152.623905L347.410660,154.859827L345.239300,157.905756L348.246072,157.910596L350.307839,157.913617L351.904804,157.915790L351.905044,157.915791Z " data-nuts-id="CH021" data-shape-area="7.00105637865e-001" data-shape-leng="6.70664813948e+000" data-stat-levl-="3"/><path d="M310.159587,305.772290L308.906650,298.342192L305.797240,297.654806L299.632880,296.290281L290.197292,294.197028L287.696619,293.641326L281.922148,292.356615L276.905311,291.238764L276.857117,289.161061L276.797750,286.601551L276.730555,283.704389L276.709324,282.788961L276.623270,279.078377L276.610566,278.530591L276.542929,275.613932L276.523278,274.766504L276.499234,273.729620L277.987593,272.107370L278.192028,271.884511L279.354554,270.617053L281.067735,268.748750L281.483523,268.295225L281.530538,268.243941L282.732700,266.932469L281.548633,264.889811L280.645746,263.331856L278.674809,259.929855L275.459946,260.806467L274.721301,261.007780L270.336858,262.201993L265.932607,263.400323L259.950611,265.025882L242.562113,269.737667L243.957478,273.477759L246.614137,280.594007L250.076215,289.858696L250.615104,291.299876L251.365146,293.305347L249.637126,295.682310L246.114103,301.037545L242.195521,306.989235L239.181384,311.563768L233.167879,302.946517L231.234618,300.173968L228.682951,296.512889L225.720772,292.260450L221.820393,286.657268L218.041837,281.224875L215.610992,277.727876L208.574750,286.549000L215.423399,292.109227L219.536102,295.445236L222.150292,297.564568L224.532959,299.495418L224.876320,299.773607L229.095942,303.191051L228.421536,311.091494L228.206789,313.605436L225.412647,318.997444L222.874753,323.891588L218.421814,332.471025L218.141236,333.011283L215.982950,337.165796L216.631394,341.691414L217.555181,348.134922L217.289777,348.417308L214.611538,351.266174L214.537968,351.344412L214.172432,351.733125L213.516475,352.430609L212.475286,353.537547L208.124836,358.160500L205.270440,361.191744L203.030152,363.569753L201.630134,365.055356L201.239572,365.469728L197.312475,369.634633L196.112452,370.906745L191.813004,375.462247L191.726997,375.553341L189.676128,377.725092L187.158215,380.390336L186.969675,391.163233L186.881374,396.201929L186.832827,398.970338L189.703025,398.466695L190.043162,398.406977L190.789235,398.275964L193.014397,397.885014L194.902283,397.553084L196.984397,397.186753L199.520703,396.740153L202.142303,398.853889L202.846104,399.421195L206.800357,402.607348L208.540006,404.008427L208.164764,404.396960L207.957358,404.611701L203.070469,409.669147L202.883648,409.673221L199.031741,409.756785L193.221930,409.881209L193.376871,419.181640L195.165473,421.220913L198.561972,425.091626L200.242554,423.773691L204.581613,420.369258L205.226122,419.863368L209.544904,416.472072L221.235030,422.120775L223.364931,423.885467L226.353574,426.360623L226.864137,429.871367L227.085461,431.392837L228.743301,442.781709L237.908329,434.187575L245.688564,426.881404L252.310722,426.902927L254.367620,426.909099L257.468803,423.936987L259.297310,422.183837L262.391574,419.215837L269.666537,412.231487L274.474790,407.610490L276.647196,410.441422L277.857206,412.017719L279.102592,410.713809L284.347871,405.218864L284.347874,405.218862L289.135257,402.007003L289.526021,401.744728L297.152527,396.622541L302.694608,392.896279L302.743956,381.384558L302.757078,378.307492L302.781484,372.565653L309.629127,372.441603L312.993122,372.379675L314.517040,366.085388L315.461366,361.146365L314.643868,360.323512L311.478881,357.136721L308.464157,354.099641L306.838931,353.553419L297.297698,350.342974L296.832102,346.576745L296.316763,342.406551L296.296462,342.242236L295.760556,337.903790L295.733390,337.683814L295.378462,334.809425L298.103634,329.464486L300.507706,324.746113L310.159587,305.772290Z M213.277949,330.915477L213.918915,329.692430L215.248597,327.154588L216.456020,324.849345L215.335606,323.758926L212.991616,321.477020L210.557608,319.106519L213.777215,311.596198L210.628863,306.275088L209.923092,305.081729L206.779648,299.764310L202.029586,291.722004L202.029585,291.722003L183.202521,309.972670L174.946121,318.078742L180.222523,324.213568L182.097225,326.391849L182.521682,326.884937L184.188940,328.821409L187.236680,332.359755L191.747034,332.524163L198.028645,332.751188L202.935502,332.926950L208.320607,333.118251L212.054245,333.249906L213.277949,330.915477Z M202.671682,348.516595L203.566612,346.877574L205.746625,342.883467L201.110752,337.379933L199.128141,335.024826L199.128140,335.024824L198.401458,336.093878L196.632886,338.695017L192.120745,345.326884L191.175642,346.715183L193.486651,347.687315L196.040658,348.761183L197.722891,349.468225L199.158636,350.071496L201.325375,350.981612L202.671682,348.516595Z M181.505566,348.107601L181.780167,342.454015L177.795498,347.151635L176.426869,348.764342L181.300981,352.316925L181.505566,348.107601Z " data-nuts-id="CH022" data-shape-area="1.96777532842e-001" data-shape-leng="3.29322217880e+000" data-stat-levl-="3"/><path d="M367.639416,129.579064L372.100113,128.781031L376.695501,127.957632L376.695502,127.957629L378.585415,123.457891L379.133791,122.151736L382.155806,114.949541L384.096999,110.319478L375.873028,105.427639L375.465943,105.185325L374.996337,104.905775L369.963831,104.637637L361.591986,104.188361L365.427093,111.637981L365.962517,112.677486L364.763765,114.602785L360.184667,121.952268L359.377306,123.247277L356.251029,128.259539L348.587321,132.172292L346.912840,133.026518L344.144769,134.438089L337.292148,137.929656L334.252323,135.869516L332.529109,134.701220L330.210757,133.128924L330.196773,133.119439L328.727214,132.122486L328.648080,132.297705L325.270194,139.773208L325.273422,139.773627L338.057205,141.426121L342.446456,141.991279L343.095146,142.074707L344.264711,142.225064L344.264716,142.225065L347.016139,145.939180L347.522077,146.621926L350.458069,150.582642L351.905044,157.915791L338.133227,168.784236L336.180915,170.322939L336.167711,170.333344L333.435818,172.485623L327.609949,177.072166L327.086761,177.483840L321.628278,181.776734L309.460073,191.332538L309.460067,191.332543L309.460080,191.332577L316.309303,208.381573L324.730274,204.478129L326.542069,203.637525L327.832750,203.038532L334.300563,200.034799L338.869631,206.440569L338.869629,206.440570L330.928491,211.759014L327.005198,214.383998L324.949236,215.758914L323.971273,216.412759L326.074351,220.269361L326.978023,221.925927L324.667154,222.011346L324.376174,222.022080L324.227958,222.027546L321.639850,222.122785L316.939056,222.294784L311.971351,222.475172L312.967513,226.023172L314.377820,231.043854L316.137023,231.917305L316.303922,232.000157L323.046910,235.345546L323.813352,235.725555L327.823721,237.713124L330.949548,236.804581L332.876272,236.244237L333.917645,233.957753L334.450210,232.788157L336.894325,227.418134L338.545939,223.787127L341.379660,217.553156L342.875196,214.260971L344.549899,210.572639L344.892182,209.818575L348.709877,208.618520L352.615632,207.389742L354.057329,208.506573L354.577069,208.909134L354.665701,208.977780L357.407842,211.101098L359.427880,212.664675L362.843391,212.385064L366.533643,212.082200L366.666170,212.071308L369.715297,211.820442L370.459905,211.759098L373.155644,209.933061L377.494612,206.992221L377.707512,201.994136L377.804353,199.718989L375.185707,197.102231L374.569690,196.486491L372.126793,194.044065L371.505051,193.422282L366.017656,187.931711L365.833272,187.747132L360.694175,182.600301L359.964499,180.722870L358.609639,177.235789L356.814413,172.613151L362.570908,171.106833L364.022003,170.726778L371.779554,168.692670L377.461475,167.200313L379.537570,166.654499L380.800131,167.968684L386.692917,174.098682L390.099518,177.639616L391.466493,177.474937L395.971331,176.931458L399.435708,176.512690L403.651588,176.002125L406.119909,175.702712L410.055418,175.224582L410.055420,175.224582L410.568608,174.511035L415.165328,168.116190L415.708112,167.360671L420.762026,160.321767L421.097126,159.854784L421.912239,158.718735L422.459192,157.956318L423.748616,156.158594L427.610164,150.771841L428.464638,151.017436L430.689710,151.656747L433.328780,152.414584L436.477063,153.318044L436.667205,158.109712L445.800641,152.931888L449.352287,150.916262L449.352292,150.916259L450.012037,147.786831L450.382739,146.027836L450.775576,144.163331L451.044395,142.887161L451.908154,138.785049L452.826068,134.423119L453.163380,132.819533L446.929004,122.094085L443.812513,116.727116L441.361974,112.504442L441.361973,112.504440L437.678950,113.997987L437.833801,115.310810L438.934680,124.640258L434.989484,126.969525L434.368919,127.335770L427.049023,131.652929L421.223479,135.084941L413.788288,139.460357L412.910526,139.976536L405.545436,144.304663L403.319878,148.943689L401.716609,152.283743L401.716600,152.283741L397.737611,151.278176L397.733886,151.277234L397.733414,151.277115L393.751389,150.269765L393.515985,149.934102L388.733291,143.111092L370.337633,143.268976L369.633589,139.698671L369.499591,139.019004L367.639416,129.579064Z M331.078060,116.887897L337.529324,115.344694L337.640902,115.317980L345.279643,113.487222L345.327965,107.483790L345.372951,101.877405L340.824989,100.274606L340.411199,100.664158L333.395859,107.264326L333.072081,107.568748L326.714739,113.542569L328.821477,117.427064L331.078060,116.887897Z M312.065327,128.981311L314.607846,128.930692L317.121260,128.880290L326.614517,128.686665L327.387680,128.670668L327.387681,128.670666L328.969362,123.902738L321.596826,118.517725L315.996651,121.580631L313.406658,122.996194L312.922345,123.260826L312.667931,124.624597L312.662361,124.654452L312.150731,127.396247L311.854083,128.985501L312.065327,128.981311Z " data-nuts-id="CH023" data-shape-area="9.21294988958e-002" data-shape-leng="3.21385771447e+000" data-stat-levl-="3"/><path d="M239.956877,268.867774L236.689911,260.545367L238.261390,254.799214L239.212595,251.319083L239.212598,251.319081L243.528406,248.342079L245.960578,246.663462L247.509911,245.593806L250.235860,243.711156L249.579538,236.528270L249.355816,234.078700L245.619102,230.745971L238.213748,224.135141L236.502361,222.606218L224.665949,226.966369L220.403859,228.533877L212.987389,231.258336L206.447787,233.657344L201.915603,235.318115L204.011441,228.714288L206.610136,220.518396L200.609968,209.500502L200.059496,209.609387L192.296953,215.787610L190.018452,217.599573L183.660010,222.652481L183.458167,222.812794L174.936598,229.576170L174.765987,229.711483L166.420424,236.325792L166.071811,236.601889L165.280349,238.206797L163.681252,241.448381L167.363184,244.158426L167.462975,244.231853L168.070773,244.679053L169.801969,245.952575L168.846444,246.835903L167.694451,247.900664L167.089077,248.460115L166.283417,249.204569L165.032406,250.360338L164.640152,250.722679L151.022881,263.286588L151.022878,263.286589L144.903954,265.561959L142.924951,266.297280L138.467510,267.952443L137.593125,268.276954L131.138272,270.670817L128.945098,271.483490L123.068519,273.659301L122.606857,273.071703L121.038843,271.075561L118.770180,273.452254L115.935763,276.420311L115.830413,276.530601L115.739349,276.625932L109.243316,283.422452L107.025711,285.740866L109.704948,290.456744L110.028129,291.025392L110.213348,291.351270L113.965956,297.950636L113.252601,306.997866L112.982686,310.418685L117.832114,312.031883L127.372032,307.784579L128.528518,307.269199L137.152601,303.422556L141.437568,301.509089L144.981631,299.925361L148.284226,298.448628L150.312545,297.541244L170.145674,283.221599L169.627342,288.923229L169.268080,292.872757L174.097227,298.803980L175.236464,300.202425L178.265615,303.919345L183.202519,309.972669L183.202521,309.972670L202.029585,291.722003L208.574750,286.549000L215.610992,277.727876L231.691679,266.724990L239.956877,268.867774Z " data-nuts-id="CH024" data-shape-area="9.51594665175e-002" data-shape-leng="1.80730915022e+000" data-stat-levl-="3"/><path d="M258.381884,100.951756L258.381883,100.951756L257.092001,101.474937L252.011739,103.534273L251.609087,103.697407L247.856777,105.217060L246.397572,105.807735L241.592175,103.586864L240.542276,103.101391L239.732373,102.726830L239.621575,102.675584L239.621451,102.675527L238.535642,102.173273L235.423422,100.733146L228.893975,103.095927L228.827816,103.119852L226.452926,103.978464L226.566220,104.335112L227.538999,107.396805L227.709338,107.932809L229.264227,112.824027L229.904595,114.837622L230.334364,116.188735L230.350595,116.239758L230.575730,116.947451L226.970431,118.686562L226.831573,118.753522L223.449129,120.384096L223.292615,120.459523L222.364692,120.906665L222.364614,120.906703L222.364470,120.906772L217.085573,123.449154L217.007396,132.179203L216.821245,132.347813L215.013418,133.985009L211.235768,137.404489L210.076370,138.453520L209.513585,138.962658L208.321276,140.041150L208.251647,140.104126L207.682975,140.618430L205.134338,142.922795L204.616703,147.186797L204.327270,149.569988L205.798950,149.229330L209.512963,148.369016L211.447291,147.920602L211.819904,147.834196L212.307743,147.721057L233.087896,142.887715L233.444450,143.194024L241.510066,150.118269L243.862786,152.136327L242.465077,153.772425L242.368038,153.885998L241.980489,154.339562L239.375386,157.387559L239.277684,157.501843L238.698997,158.178699L232.660006,165.237763L232.163230,165.818096L230.861944,166.277351L227.491440,167.466317L226.900417,167.674720L225.395440,168.205283L223.963172,168.710061L223.125028,169.005383L217.674905,170.924516L219.759470,179.713524L219.777164,179.788090L220.790357,184.056757L220.902656,184.529756L218.164329,187.101073L216.708473,188.467645L214.732814,190.321597L212.908776,192.032711L212.626184,192.297760L207.873527,196.753461L204.469839,199.942254L203.934780,200.443363L203.713043,200.651017L201.410368,202.806979L199.573454,204.526248L196.215310,207.667925L199.580754,209.367673L200.059496,209.609387L200.609968,209.500502L202.972877,206.818980L203.305560,207.810229L203.474308,208.312979L205.500851,214.348314L217.987822,204.316086L220.338243,202.425401L227.427791,206.010242L231.734008,200.272505L235.781692,194.874720L236.948519,193.317885L239.862177,189.428748L243.030418,185.197207L243.306354,184.828537L248.100986,184.379160L264.590124,182.823504L264.590125,182.823504L261.719870,180.217051L263.345573,175.775878L266.111262,168.214554L276.053855,169.209733L276.797302,169.283916L276.857888,169.289960L281.168295,169.719411L281.324713,169.734975L286.773142,170.276213L291.524731,170.746819L302.933255,165.402004L306.059081,163.935684L306.542291,163.708939L307.383119,163.314334L312.824127,160.759423L315.690585,161.214535L316.232897,161.300583L319.636355,161.840206L321.077028,162.068418L325.622533,162.787641L326.318977,162.897729L333.590037,164.045337L337.190835,164.612489L341.873296,162.483342L346.721111,160.277116L351.905044,157.915791L351.904804,157.915790L350.307839,157.913617L348.246072,157.910596L345.239300,157.905756L347.410660,154.859827L349.003955,152.623905L349.195597,152.354917L350.458069,150.582642L347.522077,146.621926L347.016139,145.939180L344.264716,142.225065L344.264711,142.225064L343.095146,142.074707L342.446456,141.991279L338.057205,141.426121L325.273422,139.773627L325.270194,139.773208L325.136081,139.769707L325.135573,139.769693L325.135553,139.769693L325.134903,139.769676L325.134695,139.769671L325.134233,139.769659L325.133956,139.769652L319.800271,139.629556L317.376760,136.384943L311.855541,128.987455L311.854083,128.985501L311.852810,128.984537L303.406197,122.588671L301.087825,120.831654L301.087824,120.831655L300.602263,121.010746L300.272379,121.132409L300.092739,121.198657L297.467449,122.166558L283.605409,127.268890L272.923695,122.520723L272.800131,122.465744L267.229408,119.985829L267.229409,119.985825L268.767823,114.850111L268.835408,114.624413L268.944518,114.260029L269.081056,113.804024L271.250655,106.554445L271.534860,105.604288L271.534932,105.604047L271.535006,105.603800L269.393293,104.847150L269.171491,104.768771L261.380332,102.013342L258.381884,100.951756Z " data-nuts-id="CH025" data-shape-area="9.83245591437e-002" data-shape-leng="2.30859385241e+000" data-stat-levl-="3"/><path d="M367.228289,81.165535L368.390712,80.796351L368.453678,80.776350L372.123163,79.610295L377.851500,77.788132L376.997805,74.823074L376.738793,73.923287L376.109713,71.737544L376.095410,71.687845L375.934717,71.129430L366.295231,74.164731L366.040430,74.244876L361.316577,75.729908L360.750543,75.907748L357.349341,72.079191L357.349340,72.079190L355.189389,74.538368L354.066212,75.816747L353.743697,76.183779L353.583304,76.366301L350.696515,79.650454L350.136140,80.287756L350.228642,86.798230L355.521883,91.577443L357.167456,93.062368L358.561107,94.319651L364.679148,85.036998L367.228289,81.165535Z " data-nuts-id="CH031" data-shape-area="4.42512102479e-003" data-shape-leng="3.29576888684e-001" data-stat-levl-="3"/><path d="M311.854083,128.985501L311.855541,128.987455L317.376760,136.384943L319.800271,139.629556L325.133956,139.769652L325.134233,139.769659L325.134695,139.769671L325.134903,139.769676L325.135553,139.769693L325.135573,139.769693L325.136081,139.769707L325.270194,139.773208L328.648080,132.297705L328.727214,132.122486L330.196773,133.119439L330.210757,133.128924L332.529109,134.701220L334.252323,135.869516L337.292148,137.929656L344.144769,134.438089L346.912840,133.026518L348.587321,132.172292L356.251029,128.259539L359.377306,123.247277L360.184667,121.952268L364.763765,114.602785L365.962517,112.677486L365.427093,111.637981L361.591986,104.188361L369.963831,104.637637L374.996337,104.905775L375.465943,105.185325L375.873028,105.427639L384.096999,110.319478L382.155806,114.949541L379.133791,122.151736L378.585415,123.457891L376.695502,127.957629L376.695501,127.957632L372.100113,128.781031L367.639416,129.579064L369.499591,139.019004L369.633589,139.698671L370.337633,143.268976L388.733291,143.111092L393.515985,149.934102L393.751389,150.269765L397.733414,151.277115L397.733886,151.277234L397.737611,151.278176L401.716600,152.283741L401.716609,152.283743L403.319878,148.943689L405.545436,144.304663L412.910526,139.976536L413.788288,139.460357L421.223479,135.084941L427.049023,131.652929L434.368919,127.335770L434.989484,126.969525L438.934680,124.640258L437.833801,115.310810L437.678950,113.997987L435.345589,111.448022L434.282505,110.285913L429.846676,105.434599L426.735920,102.030258L424.806442,99.917765L424.140843,99.188868L424.059494,99.099777L422.722609,97.635483L419.824819,94.460367L417.900594,92.351110L414.600647,88.732210L410.339580,93.015138L405.280300,98.096122L403.028497,100.356102L401.023082,102.368031L401.030526,101.638836L401.045554,100.165932L401.067683,97.994867L401.087669,96.031867L401.097197,95.095407L401.106997,94.131663L393.904230,91.413064L384.564709,87.882343L384.563326,87.882675L376.275097,89.872259L373.698016,87.393391L373.661640,87.358393L372.215477,85.966869L372.118323,85.873374L369.245749,83.108292L367.228289,81.165535L364.679148,85.036998L358.561107,94.319651L357.167456,93.062368L355.521883,91.577443L350.228642,86.798230L350.136140,80.287756L350.136139,80.287757L348.861841,81.116239L348.105061,81.608175L340.355104,86.642390L340.242359,86.715579L339.271784,87.345576L339.827749,91.975206L339.853756,92.191725L340.200649,95.079342L340.327256,96.133066L340.824989,100.274606L345.372951,101.877405L345.327965,107.483790L345.279643,113.487222L337.640902,115.317980L337.529324,115.344694L331.078060,116.887897L328.821477,117.427064L326.714739,113.542569L321.596826,118.517725L328.969362,123.902738L327.387681,128.670666L327.387680,128.670668L326.614517,128.686665L317.121260,128.880290L314.607846,128.930692L312.065327,128.981311L311.854083,128.985501Z M311.854083,128.985501L312.150731,127.396247L312.662361,124.654452L312.667931,124.624597L312.922345,123.260826L312.922343,123.260825L309.738204,122.608094L305.015606,121.638834L304.972459,121.629973L301.087825,120.831654L303.406197,122.588671L311.852810,128.984537L311.854083,128.985501Z " data-nuts-id="CH032" data-shape-area="6.28698642909e-002" data-shape-leng="2.03491063131e+000" data-stat-levl-="3"/><path d="M538.482962,75.895208L536.497306,75.848082L531.048338,75.717605L529.947747,75.691045L529.851989,75.688731L524.467506,75.557766L524.226259,75.551859L519.174969,75.427425L519.088332,75.326271L512.085399,67.144911L510.314200,65.074073L510.276879,65.030432L508.477962,62.926517L506.247666,62.553007L506.174328,62.540720L502.393628,61.906865L501.511003,61.758765L500.794744,61.638545L500.780610,61.636173L492.497903,60.243736L490.217175,59.859592L487.746864,61.864784L487.497113,62.067465L487.181559,62.323533L479.787995,68.319396L479.603346,68.469042L476.100798,71.306735L476.086889,71.318000L475.142829,72.082568L475.083833,72.130343L474.192366,72.852196L472.916140,73.885413L468.291062,77.627940L468.275824,77.640266L464.456540,80.728535L456.329671,81.588693L456.311893,81.590570L456.306135,81.591178L454.340410,81.798650L448.914306,82.370173L448.662619,82.396641L448.196932,82.445604L447.896156,82.477221L438.490140,83.463302L435.877257,83.736306L435.702672,83.754533L428.540735,84.500720L426.541668,79.795465L426.526469,79.759681L423.875184,73.515316L423.317893,72.202202L423.317838,72.202073L415.702913,72.220559L415.681983,72.220605L410.185937,72.231888L409.710867,72.232782L409.443739,72.233279L407.039824,72.237572L407.039823,72.237572L406.728266,72.856527L403.123844,80.013368L402.887126,80.483136L402.531128,81.189560L402.219906,81.807077L387.778550,86.778097L387.622491,86.831734L384.564709,87.882343L393.904230,91.413064L401.106997,94.131663L401.097197,95.095407L401.087669,96.031867L401.067683,97.994867L401.045554,100.165932L401.030526,101.638836L401.023082,102.368031L403.028497,100.356102L405.280300,98.096122L410.339580,93.015138L414.600647,88.732210L417.900594,92.351110L419.824819,94.460367L422.722609,97.635483L424.059494,99.099777L424.140843,99.188868L424.806442,99.917765L426.735920,102.030258L429.846676,105.434599L434.282505,110.285913L435.345589,111.448022L437.678950,113.997987L441.361973,112.504440L441.361974,112.504442L443.812513,116.727116L446.929004,122.094085L453.163380,132.819533L452.826068,134.423119L451.908154,138.785049L451.044395,142.887161L450.775576,144.163331L450.382739,146.027836L450.012037,147.786831L449.352292,150.916259L449.352287,150.916262L445.800641,152.931888L436.667205,158.109712L436.477063,153.318044L433.328780,152.414584L430.689710,151.656747L428.464638,151.017436L427.610164,150.771841L423.748616,156.158594L422.459192,157.956318L421.912239,158.718735L421.097126,159.854784L420.762026,160.321767L415.708112,167.360671L415.165328,168.116190L410.568608,174.511035L410.055420,175.224582L413.304164,185.216359L417.986494,185.031658L431.637671,184.485984L433.922199,184.393620L438.111787,180.177522L439.907508,178.369466L438.340742,174.186125L438.292553,174.057427L437.452080,171.812492L440.590629,171.279939L446.284006,170.312350L447.620490,170.084929L449.803525,176.259057L450.308319,177.686140L451.623993,181.404592L462.014825,180.440146L467.435719,175.095069L470.520984,177.128285L476.589271,181.124426L476.626692,181.149057L486.833996,187.862123L493.357928,179.900952L493.917255,179.217925L495.831629,176.879593L496.619996,175.916377L498.698932,173.375635L500.334287,171.376272L500.839490,170.758485L504.279791,166.549872L506.554591,167.787167L512.894222,171.232935L513.181282,172.003662L515.289673,177.662515L516.493363,180.891640L516.963142,182.151605L518.008718,184.955270L520.218694,190.878450L521.182497,193.460457L523.256669,199.014697L526.327385,207.231434L526.971207,208.953282L527.852693,211.310228L530.793050,211.694049L538.797453,212.736324L538.011751,207.882073L536.941764,201.268461L536.220963,196.811229L534.688253,187.328165L534.349776,185.233009L535.137159,183.586234L537.016804,179.653477L537.638784,178.351629L535.945681,171.781682L534.359027,165.621069L535.326764,164.393864L537.784722,161.275792L539.436589,159.179417L542.329200,155.506715L546.372171,150.369774L538.173148,149.781637L537.891525,148.620852L535.941407,140.579472L535.829521,140.117920L535.167357,137.385972L531.940767,124.063753L531.122431,120.682296L530.606132,118.548342L530.428230,117.812941L528.980962,111.828432L527.840569,107.110497L527.048998,103.834448L524.812293,94.572024L529.839574,87.710136L532.290731,84.361796L536.763440,78.247426L538.482962,75.895208Z " data-nuts-id="CH033" data-shape-area="1.67446941206e-001" data-shape-leng="2.80872715528e+000" data-stat-levl-="3"/><path d="M588.571683,36.714365L583.741400,35.772127L582.790088,35.586389L580.309468,35.101801L578.254772,39.006164L577.884188,39.710115L576.445483,42.442347L578.258503,44.795157L581.355879,48.812926L581.355940,48.813005L578.282069,49.838737L578.191537,49.868937L575.734896,50.688205L574.279037,51.173518L574.686907,62.824975L572.853026,66.573417L571.244007,69.860562L570.397197,71.589923L567.879302,76.729420L566.306777,79.937298L565.346382,78.406389L561.832722,72.802941L564.286858,69.507908L564.972168,68.587473L566.767932,66.174954L567.670068,64.962631L567.947046,63.676360L568.353547,61.788143L568.399005,61.576955L568.405018,61.549019L568.724909,60.062679L568.907374,59.214724L567.285433,58.593927L560.915778,56.154089L557.379553,54.798295L549.940591,60.551778L549.900427,60.582822L549.616493,60.802279L549.349438,61.008679L544.712255,64.591155L545.945226,67.573152L546.480113,68.866495L546.590677,69.133814L547.094566,70.352001L547.553056,70.414612L553.081827,71.168640L549.573838,72.305762L549.082642,72.464915L538.482962,75.895208L536.763440,78.247426L532.290731,84.361796L529.839574,87.710136L524.812293,94.572024L527.048998,103.834448L527.840569,107.110497L528.980962,111.828432L530.428230,117.812941L530.606132,118.548342L531.122431,120.682296L531.940767,124.063753L535.167357,137.385972L535.829521,140.117920L535.941407,140.579472L537.891525,148.620852L538.173148,149.781637L546.372171,150.369774L542.329200,155.506715L539.436589,159.179417L537.784722,161.275792L535.326764,164.393864L534.359027,165.621069L535.945681,171.781682L537.638784,178.351629L539.003256,179.442872L545.697337,184.793083L553.007624,190.629334L557.399901,189.847282L563.058606,188.837996L572.348077,187.176866L574.320058,186.823557L576.969611,189.324936L579.358463,191.579275L580.782529,192.922740L584.017348,195.973322L586.784392,198.581506L588.351391,200.058026L590.050734,201.658825L592.899542,204.341449L593.880125,205.264545L597.569726,204.354843L599.641194,203.843718L599.659971,201.905587L599.743200,193.276266L605.948955,191.154628L610.946309,189.444106L624.186342,184.903539L624.217580,179.396898L624.236086,176.113987L628.683798,175.326347L629.575897,175.168220L641.860450,172.985779L651.625263,171.244371L659.549432,156.153261L659.586591,156.082412L661.672876,152.103541L659.991271,148.971332L652.119398,134.293793L651.419366,132.797563L649.579507,128.863916L644.792569,118.621361L639.544695,107.379205L638.184816,104.463748L638.859176,100.155608L639.813343,94.054591L640.898805,87.106443L635.124977,85.988877L628.320716,84.669257L627.914967,78.924875L627.763314,76.777784L627.457503,72.448028L620.333681,70.185073L610.939211,67.195562L608.856793,66.532083L607.732437,66.173730L607.732849,64.763929L607.734886,56.867663L614.268871,59.026475L615.852315,59.549199L619.645195,60.800600L621.932968,54.344735L624.079281,48.282514L620.671412,45.942758L617.117589,43.501461L615.732181,42.549387L615.268359,44.013511L614.363622,46.868543L611.747180,47.567364L611.385815,47.663845L603.165746,49.856187L600.569011,50.547822L598.135904,49.650191L594.337174,48.247900L592.111639,42.317130L590.117816,37.000715L589.343945,36.857409L589.058894,36.804614L588.571683,36.714365Z " data-nuts-id="CH040" data-shape-area="2.06674454938e-001" data-shape-leng="2.43081882947e+000" data-stat-levl-="3"/><path d="M723.444874,279.362268L722.890904,272.914899L722.056735,263.205452L721.591716,257.792267L720.667063,247.027480L720.667063,247.027474L718.127689,244.460259L715.830835,242.137315L715.830830,242.137310L714.934948,242.408926L709.643731,244.012003L707.315369,244.716812L697.929460,240.798847L707.020199,231.892817L709.247590,229.708424L708.398537,215.640547L708.260144,213.348056L708.260141,213.348056L696.443754,212.799649L695.412500,212.751406L691.843353,212.583969L689.676859,212.481976L685.461155,212.282738L682.585308,212.146236L682.585307,212.146235L682.198240,211.815208L673.469453,204.344841L667.277645,199.039481L667.277644,199.039483L662.961053,205.710784L659.692093,210.758416L659.946634,212.605379L660.173112,214.248548L660.491373,216.557365L660.672880,217.873965L660.992360,220.191132L661.147562,221.316690L661.167743,221.463045L661.925146,226.954781L656.415103,238.853464L653.561570,240.934149L644.604864,247.458495L645.294625,248.243712L649.585003,253.125772L650.653156,254.340683L654.675774,258.914014L657.635375,262.276814L658.927797,263.744780L662.243832,267.509756L661.123600,276.239160L660.994313,277.245749L660.885718,278.091105L654.864854,280.322528L659.890259,294.554376L647.566163,302.150913L641.662953,305.784010L643.251711,315.021734L643.251713,315.021734L649.020441,315.297213L651.523267,315.416136L654.607875,320.021869L661.155507,318.059091L672.136499,314.760699L678.601656,299.367832L679.689100,296.775344L681.326863,296.492326L682.729135,296.249873L684.512322,295.941384L687.452811,295.432257L690.302602,294.938326L694.109218,301.479816L700.842582,296.413007L703.619129,294.321978L704.389663,293.741511L706.964860,291.800979L718.693473,282.952106L723.444874,279.362268Z " data-nuts-id="CH051" data-shape-area="7.94658222815e-002" data-shape-leng="1.50187171764e+000" data-stat-levl-="3"/><path d="M576.542810,0.000000L567.369226,3.648398L566.873265,3.845461L554.784389,8.642963L553.128651,9.532459L552.259189,9.999449L551.580285,10.364041L551.524451,10.394024L546.680992,12.993844L546.597784,13.120081L543.952769,17.131654L543.407965,17.957628L543.337620,18.064269L535.249050,30.314858L535.230907,30.342310L535.229014,30.345175L534.030612,32.158266L533.088172,33.583755L532.678190,34.203776L533.407530,37.966966L533.866806,40.336075L533.868720,40.345947L534.644140,44.344739L538.444217,45.226129L538.469812,45.232063L540.858228,45.785565L547.534270,47.330803L547.535510,47.331090L547.536445,47.331306L547.538766,47.331843L560.428037,50.307295L560.543059,48.379570L560.748517,44.934052L560.762620,44.697440L561.366136,44.610930L562.066678,44.510485L567.439612,43.739130L567.462599,43.735826L572.814995,42.965696L573.900729,42.809265L576.445483,42.442347L577.884188,39.710115L578.254772,39.006164L580.309468,35.101801L582.790088,35.586389L583.741400,35.772127L588.571683,36.714365L588.673922,36.119482L588.914014,34.722274L589.710979,30.082119L589.944348,28.722723L592.258493,28.175244L595.782944,27.340770L597.018188,29.423293L598.405354,31.761308L598.816781,32.454623L599.346373,33.346977L600.145595,34.693466L600.237263,34.847890L602.429183,34.167147L602.429183,34.167145L602.157742,32.444006L602.155068,32.427028L601.209493,26.422753L601.209467,26.422584L601.065846,25.510387L601.052296,25.424324L600.985012,24.996951L600.599969,22.550990L600.599884,22.550452L600.023282,18.886827L599.951992,18.433799L598.772167,10.934178L594.173662,7.166534L591.281255,4.795327L590.787725,4.390621L586.609288,0.962942L586.479382,0.856340L585.683590,0.203261L585.548746,8.767202L584.119904,10.017637L580.223906,13.425586L578.891480,8.567979L578.886551,8.550006L578.627766,7.606294L578.539490,7.284358L578.382799,6.712894L577.776081,4.499857L577.746228,4.390954L576.542932,0.000446L576.542810,0.000000Z M634.158170,44.960314L630.973074,39.574664L629.567992,37.197699L629.533096,37.138658L628.897614,36.063384L628.812618,35.919556L625.959532,31.090143L623.815436,27.458962L622.942959,25.980900L622.932426,25.963054L622.565994,25.342201L619.111631,19.487090L618.878628,19.092002L618.487125,19.421762L618.179081,19.681209L616.903429,20.755470L614.598743,22.695703L614.438972,22.830179L614.077292,23.134586L612.679361,24.310968L612.558449,24.412704L611.290473,25.479458L611.290467,25.479463L615.284659,29.899792L615.323888,29.943192L617.418920,32.260535L617.319744,35.162417L617.307302,35.526258L617.180443,39.233535L617.940353,39.507391L622.324092,41.086405L629.705860,43.742227L631.313687,44.320180L634.445080,45.445275L634.158170,44.960314Z M567.879302,76.729420L570.397197,71.589923L571.244007,69.860562L572.853026,66.573417L574.686907,62.824975L573.977047,63.041385L573.714538,63.121406L567.670068,64.962631L566.767932,66.174954L564.972168,68.587473L564.286858,69.507908L561.832722,72.802941L565.346382,78.406389L566.306777,79.937298L567.879302,76.729420Z " data-nuts-id="CH052" data-shape-area="3.52361585050e-002" data-shape-leng="1.34468962495e+000" data-stat-levl-="3"/><path d="M797.231462,109.652466L798.597260,108.336186L799.693214,107.279726L796.485727,105.424956L792.187759,102.938115L790.777949,102.770566L790.531810,102.741302L784.857603,102.065692L782.332021,101.764373L781.322954,101.643880L776.873802,104.704857L774.394337,106.409696L766.017149,112.164361L762.516349,114.566775L757.668327,117.891342L750.058342,123.104394L737.582975,123.837529L734.568828,124.013309L734.079553,124.041793L733.286880,124.087911L732.226794,124.149530L727.535025,124.421464L725.448165,124.542008L716.697671,125.044726L714.404530,125.175736L714.024853,125.689154L711.579810,128.994437L705.752848,136.864394L710.544656,149.903443L711.546479,152.627396L712.243031,154.520889L713.843486,158.870195L711.456619,162.357851L710.114161,164.318591L721.657541,167.276180L729.052451,169.166386L730.704023,169.588065L733.495944,170.300500L740.061912,171.974023L736.384288,160.333771L734.041443,152.911836L736.309324,143.806778L738.068857,136.733642L739.968949,129.086618L745.640176,127.723402L751.350494,131.197412L754.843012,133.320624L755.883326,133.952837L758.758662,135.699679L759.317831,136.039297L765.490177,139.786147L766.116237,139.750887L768.201572,139.633274L773.537361,139.331189L773.649334,136.952975L774.097782,127.409920L774.249221,124.180577L777.014006,118.594320L777.820235,116.964441L778.684864,115.216051L779.134841,114.305958L780.248029,112.053957L782.434618,113.332653L783.294607,113.835445L786.145740,115.501864L787.103813,116.061666L788.658082,116.969642L781.964024,119.310083L781.289134,119.545863L781.391715,119.671613L784.259746,123.186540L784.259747,123.186539L790.020043,118.711537L788.699231,115.052757L788.402081,114.229448L788.203648,113.679618L787.775123,112.492136L787.260463,111.065787L797.231462,109.652466Z " data-nuts-id="CH053" data-shape-area="2.91402170499e-002" data-shape-leng="1.32318787920e+000" data-stat-levl-="3"/><path d="M759.317831,136.039297L758.758662,135.699679L755.883326,133.952837L754.843012,133.320624L751.350494,131.197412L745.640176,127.723402L739.968949,129.086618L738.068857,136.733642L736.309324,143.806778L734.041443,152.911836L736.384288,160.333771L740.061912,171.974023L742.952574,173.510594L748.734965,176.582121L754.360672,173.828596L760.598969,170.771986L770.401476,159.867684L770.740020,157.654286L771.337984,153.742627L771.809581,150.655653L771.875139,150.226391L773.537361,139.331189L768.201572,139.633274L766.116237,139.750887L765.490177,139.786147L759.317831,136.039297Z M776.316037,123.975827L781.727446,123.438552L784.259746,123.186540L781.391715,119.671613L781.289134,119.545863L781.964024,119.310083L788.658082,116.969642L787.103813,116.061666L786.145740,115.501864L783.294607,113.835445L782.434618,113.332653L780.248029,112.053957L779.134841,114.305958L778.684864,115.216051L777.820235,116.964441L777.014006,118.594320L774.249221,124.180577L776.316037,123.975827Z M792.412497,115.707634L797.231462,109.652466L787.260463,111.065787L787.775123,112.492136L788.203648,113.679618L788.402081,114.229448L788.699231,115.052757L790.020043,118.711537L792.412497,115.707634Z " data-nuts-id="CH054" data-shape-area="2.03822135983e-002" data-shape-leng="8.36640204392e-001" data-stat-levl-="3"/><path d="M781.407620,78.203578L772.788246,75.867525L772.787916,75.867435L770.978284,75.376372L770.978280,75.376376L757.501382,89.060066L756.625860,89.947825L754.146068,92.461488L750.734331,95.917916L747.806183,98.882662L746.624956,97.152085L743.708661,92.877893L742.623955,91.287529L742.028005,90.413629L739.391888,86.546869L738.549899,85.311405L735.980608,81.540249L733.552023,82.670649L730.974525,83.869813L728.470612,85.034204L720.956897,88.525105L726.926394,88.883190L731.374714,89.148695L730.246296,92.336342L728.037083,98.572690L727.759094,99.357005L722.594098,99.206559L715.331395,98.992429L714.599124,98.970671L711.393920,98.875075L708.236618,98.780333L691.058855,98.254878L691.050025,98.254603L682.152109,97.975779L675.326030,97.758806L675.103424,97.751685L668.275956,97.531914L665.743347,97.449713L666.769108,103.354665L666.860011,103.877840L668.399519,112.735343L661.934275,121.305733L652.887414,133.278456L652.119398,134.293793L659.991271,148.971332L661.672876,152.103541L659.586591,156.082412L659.549432,156.153261L651.625263,171.244371L641.860450,172.985779L629.575897,175.168220L628.683798,175.326347L624.236086,176.113987L624.217580,179.396898L624.186342,184.903539L624.648569,185.145349L631.436585,188.694314L634.403342,188.266718L653.061750,185.565364L658.549823,184.766818L658.560366,191.014823L667.277639,199.039475L667.277645,199.039481L673.469453,204.344841L682.198240,211.815208L682.585307,212.146235L682.585308,212.146236L685.461155,212.282738L689.676859,212.481976L691.843353,212.583969L695.412500,212.751406L696.443754,212.799649L708.260141,213.348056L708.260144,213.348056L708.398537,215.640547L709.247590,229.708424L707.020199,231.892817L697.929460,240.798847L707.315369,244.716812L709.643731,244.012003L714.934948,242.408926L715.830830,242.137310L715.830835,242.137315L718.127689,244.460259L720.667063,247.027474L720.667063,247.027480L721.591716,257.792267L722.056735,263.205452L722.890904,272.914899L723.444874,279.362268L724.796640,280.673418L727.460255,283.256172L744.188051,285.172054L761.953544,287.188801L768.703688,287.950225L768.998927,287.314363L771.814766,281.246806L777.842476,268.239784L779.203758,265.298801L781.398050,260.555410L785.861396,258.438600L787.506130,257.658126L787.506129,257.658125L779.873300,246.564990L771.366487,234.183335L772.122493,232.859258L776.378100,225.400941L780.402479,218.340035L778.860216,213.813586L775.407340,203.672730L775.302498,203.364668L772.016425,193.704578L773.224660,189.345211L774.361494,185.240756L776.817142,176.365831L777.148481,175.167399L780.206994,164.094350L780.349192,163.579068L781.650388,161.428008L787.010675,152.559123L794.124481,140.770055L798.501346,133.505920L799.741064,132.455146L809.870736,123.860692L806.346543,121.026874L804.818440,119.797640L805.004556,117.163389L805.877727,104.780323L800.016625,103.290324L797.489887,102.647305L793.788505,101.704622L791.914753,101.227073L788.132153,94.963784L784.259846,88.547148L781.407673,78.203772L781.407620,78.203578Z M740.061912,171.974023L733.495944,170.300500L730.704023,169.588065L729.052451,169.166386L721.657541,167.276180L710.114161,164.318591L711.456619,162.357851L713.843486,158.870195L712.243031,154.520889L711.546479,152.627396L710.544656,149.903443L705.752848,136.864394L711.579810,128.994437L714.024853,125.689154L714.404530,125.175736L716.697671,125.044726L725.448165,124.542008L727.535025,124.421464L732.226794,124.149530L733.286880,124.087911L734.079553,124.041793L734.568828,124.013309L737.582975,123.837529L750.058342,123.104394L757.668327,117.891342L762.516349,114.566775L766.017149,112.164361L774.394337,106.409696L776.873802,104.704857L781.322954,101.643880L782.332021,101.764373L784.857603,102.065692L790.531810,102.741302L790.777949,102.770566L792.187759,102.938115L796.485727,105.424956L799.693214,107.279726L798.597260,108.336186L797.231462,109.652466L792.412497,115.707634L790.020043,118.711537L784.259747,123.186539L784.259746,123.186540L781.727446,123.438552L776.316037,123.975827L774.249221,124.180577L774.097782,127.409920L773.649334,136.952975L773.537361,139.331189L771.875139,150.226391L771.809581,150.655653L771.337984,153.742627L770.740020,157.654286L770.401476,159.867684L760.598969,170.771986L754.360672,173.828596L748.734965,176.582121L742.952574,173.510594L740.061912,171.974023Z " data-nuts-id="CH055" data-shape-area="2.40696481919e-001" data-shape-leng="4.13822526543e+000" data-stat-levl-="3"/><path d="M919.735590,292.193016L916.699337,293.575258L911.264951,296.047298L908.364300,294.408514L899.346284,289.308748L894.415647,282.069913L891.274933,277.455573L882.808956,274.966033L880.371853,274.248488L867.822843,270.547507L860.007840,268.237411L860.521539,264.865999L862.744391,250.252661L862.012042,248.380554L861.368927,246.736280L859.477557,241.899066L858.931347,240.501714L854.350883,241.645459L849.051642,242.966960L836.518049,237.938633L832.601108,236.364818L830.815294,235.646905L829.319263,235.045307L828.946831,234.895515L821.758649,232.002419L821.615900,231.944927L815.100192,229.319107L812.557138,230.347114L808.891194,231.828147L806.284491,232.880607L799.755446,230.228304L798.023917,230.470924L787.876888,231.889083L782.216016,232.677555L771.366487,234.183335L779.873300,246.564990L787.506129,257.658125L787.506130,257.658126L785.861396,258.438600L781.398050,260.555410L779.203758,265.298801L777.842476,268.239784L771.814766,281.246806L768.998927,287.314363L768.703688,287.950225L761.953544,287.188801L744.188051,285.172054L727.460255,283.256172L724.796640,280.673418L723.444874,279.362268L718.693473,282.952106L706.964860,291.800979L704.389663,293.741511L703.619129,294.321978L700.842582,296.413007L694.109218,301.479816L690.302602,294.938326L687.452811,295.432257L684.512322,295.941384L682.729135,296.249873L681.326863,296.492326L679.689100,296.775344L678.601656,299.367832L672.136499,314.760699L661.155507,318.059091L654.607875,320.021869L651.523267,315.416136L649.020441,315.297213L643.251713,315.021734L643.251711,315.021734L639.616829,317.487831L639.493637,317.571384L634.353825,321.055851L632.674520,322.193658L631.928254,325.489780L629.168429,337.665160L629.168427,337.665167L619.436008,337.501859L615.730736,346.212073L606.004553,351.623478L603.085544,353.245778L601.343026,354.213830L599.816895,355.061431L598.567792,360.137870L596.723260,367.627256L595.315035,373.339556L595.315035,373.339559L600.385463,378.317140L601.178373,379.095161L601.542499,379.452415L601.866867,391.250557L607.452536,391.876954L611.862700,392.370230L614.420287,392.655771L616.606690,392.899567L623.540022,393.670813L631.260182,394.526260L635.635849,395.009559L638.189559,395.291100L651.239273,388.101124L651.249113,387.919507L651.556696,382.237716L651.659320,380.340155L651.780910,378.090723L655.725459,375.820179L661.534263,372.473748L661.534264,372.473748L662.755351,377.191060L663.279833,379.216645L663.976967,381.908465L663.976968,381.908472L667.498663,380.815306L672.076733,379.392939L673.555902,378.933061L673.555906,378.933064L681.831922,385.785222L681.096749,387.855607L677.074701,399.171408L677.074700,399.171411L677.074701,399.171416L678.419048,411.780250L678.419049,411.780251L680.295590,413.489422L680.655208,413.816907L682.434808,415.437220L688.481096,420.938914L690.050131,422.365763L694.663761,426.559257L695.663309,434.077945L696.764730,442.359453L695.605765,447.033813L694.472986,451.599359L691.512583,463.516050L691.376083,464.064996L690.469352,467.710315L689.740356,470.639635L687.445470,479.852698L689.257402,485.611636L689.429863,486.159615L692.799395,496.860358L695.601568,505.751183L696.011839,506.091036L705.527512,513.967376L711.936874,519.265959L711.936875,519.265958L713.790294,518.448437L714.672420,518.059242L719.625899,515.872579L720.459124,513.300614L722.305449,507.597984L722.858740,505.888131L724.857418,499.707969L729.432518,498.437324L730.757872,498.068968L736.200401,479.285438L737.682932,474.159665L738.365936,471.796886L739.930169,466.382422L741.069807,462.434877L740.066360,458.573868L737.536748,448.835039L737.150655,447.347912L736.339607,444.223370L734.799831,438.289173L728.272551,429.781027L728.272553,429.781025L729.283816,429.032963L734.955182,424.835287L735.283744,419.952132L735.723172,413.412096L741.702381,410.940511L747.805171,410.678031L751.392354,410.522738L754.564810,413.471616L763.779548,422.028585L767.005347,418.206723L775.181522,408.508674L775.944807,420.022272L776.016784,421.108184L777.054914,436.773931L777.686669,446.310664L782.175061,453.635336L787.808086,462.818943L791.248373,468.422776L798.039384,472.325321L800.477470,473.725365L804.104595,475.807189L810.287700,475.663629L820.394307,475.424192L827.585677,475.250208L833.144125,475.113671L833.985630,470.569446L835.008269,465.042296L835.033438,464.906192L835.514501,462.304269L845.186504,461.312321L846.491576,461.178049L848.052300,460.296540L855.069706,456.330101L856.587428,455.471605L864.587542,450.942613L869.733909,448.025843L874.587858,445.272411L881.415337,446.420915L885.234576,447.062147L894.428134,453.863711L892.595263,459.121644L892.367528,459.774647L891.245291,462.991568L894.199702,471.468057L901.491703,476.009887L908.444792,480.335805L907.510784,486.704087L906.765978,491.776773L908.884657,493.275976L910.485729,494.408592L912.757011,496.014843L920.449600,494.071463L923.642980,493.263564L926.910016,492.436328L929.818621,488.808748L932.025261,486.055170L935.457071,481.770210L933.263134,478.375036L932.346767,476.956531L927.702422,469.763593L927.068215,468.780889L927.067791,468.780232L926.409555,467.760175L925.935830,467.025976L918.688057,455.785122L921.907141,450.206657L923.178110,448.002818L923.188771,447.984328L927.120647,441.161714L930.221155,435.776582L931.153967,434.155538L929.075192,431.722021L925.639021,427.697653L917.725493,428.437120L916.160355,428.582932L915.705900,428.625243L908.366727,429.306840L907.269275,428.208927L903.199300,424.135589L903.159293,420.790519L903.068817,413.259429L903.053203,411.964411L903.021128,409.308484L902.831758,393.744000L902.805805,391.626144L914.399591,377.628422L919.624748,371.308873L919.624751,371.308872L934.617853,364.468935L943.494109,360.410569L945.750457,364.138557L948.243308,368.255466L948.056632,369.235228L946.050717,379.752269L957.351485,387.187775L962.856643,386.846583L964.241729,386.760459L969.265744,386.447126L975.272443,386.070561L983.048173,385.579949L983.961025,385.522120L992.039214,391.279719L999.209264,364.161750L994.034693,360.313311L991.565604,358.475930L988.742110,356.373973L982.773188,357.567526L979.240382,358.272886L977.759749,353.784781L976.161970,348.939732L974.129722,342.774436L977.035229,339.434735L979.636836,336.442678L980.978917,334.898561L978.183593,329.229322L977.233853,327.302397L977.233854,327.302396L979.181016,325.892072L985.953462,320.983091L985.953466,320.983066L989.627289,294.281623L990.506241,287.871244L992.038799,271.762513L992.838726,263.328600L993.053222,261.064060L990.417514,258.826744L989.968855,258.445812L988.660846,257.335103L973.151983,244.148710L970.617302,241.990636L963.442006,245.047769L962.027581,245.649909L960.019577,252.486511L955.815318,266.775991L946.265664,266.077030L939.545010,265.581955L939.255496,271.211532L939.158997,273.085514L938.546914,284.943515L932.348999,287.335076L929.144300,288.570498L929.143267,288.570896L928.547551,288.800460L919.735590,292.193016Z " data-nuts-id="CH056" data-shape-area="8.38229609393e-001" data-shape-leng="6.64798438168e+000" data-stat-levl-="3"/><path d="M617.180443,39.233535L612.558073,37.647590L612.495591,37.626142L602.429183,34.167147L600.237263,34.847890L598.199699,35.281882L596.927279,35.552770L590.117816,37.000715L592.111639,42.317130L594.337174,48.247900L598.135904,49.650191L600.569011,50.547822L603.165746,49.856187L611.385815,47.663845L611.747180,47.567364L614.363622,46.868543L615.268359,44.013511L615.732181,42.549387L617.117589,43.501461L620.671412,45.942758L624.079281,48.282514L621.932968,54.344735L619.645195,60.800600L615.852315,59.549199L614.268871,59.026475L607.734886,56.867663L607.732849,64.763929L607.732437,66.173730L608.856793,66.532083L610.939211,67.195562L620.333681,70.185073L627.457503,72.448028L627.763314,76.777784L627.914967,78.924875L628.320716,84.669257L635.124977,85.988877L640.898805,87.106443L639.813343,94.054591L638.859176,100.155608L638.184816,104.463748L639.544695,107.379205L644.792569,118.621361L649.579507,128.863916L651.419366,132.797563L652.119398,134.293793L652.887414,133.278456L661.934275,121.305733L668.399519,112.735343L666.860011,103.877840L666.769108,103.354665L665.743347,97.449713L668.275956,97.531914L675.103424,97.751685L675.326030,97.758806L682.152109,97.975779L691.050025,98.254603L691.058855,98.254878L708.236618,98.780333L711.393920,98.875075L714.599124,98.970671L715.331395,98.992429L722.594098,99.206559L727.759094,99.357005L728.037083,98.572690L730.246296,92.336342L731.374714,89.148695L726.926394,88.883190L720.956897,88.525105L728.470612,85.034204L730.974525,83.869813L733.552023,82.670649L735.980608,81.540249L738.549899,85.311405L739.391888,86.546869L742.028005,90.413629L742.623955,91.287529L743.708661,92.877893L746.624956,97.152085L747.806183,98.882662L750.734331,95.917916L754.146068,92.461488L756.625860,89.947825L757.501382,89.060066L770.978280,75.376376L770.978284,75.376372L757.962953,60.592574L716.430791,41.446168L713.833224,41.733567L713.833222,41.733567L703.883680,42.830723L703.860582,42.833263L700.854993,43.163544L700.134405,43.242650L699.195975,43.345624L698.110963,43.464618L696.270587,42.943518L689.182430,40.934444L689.031192,40.891541L687.075077,40.336499L680.679665,38.520074L677.836929,37.711820L665.747610,34.268640L655.840532,40.162268L653.939524,41.292019L653.821886,41.361918L648.562431,44.485583L642.707612,44.884990L636.885570,45.280195L635.629057,45.365231L634.445080,45.445275L631.313687,44.320180L629.705860,43.742227L622.324092,41.086405L617.940353,39.507391L617.180443,39.233535Z " data-nuts-id="CH057" data-shape-area="1.17564717538e-001" data-shape-leng="2.35767020786e+000" data-stat-levl-="3"/><path d="M538.797453,212.736324L530.793050,211.694049L527.852693,211.310228L526.971207,208.953282L526.327385,207.231434L523.256669,199.014697L521.182497,193.460457L520.218694,190.878450L518.008718,184.955270L516.963142,182.151605L516.493363,180.891640L515.289673,177.662515L513.181282,172.003662L512.894222,171.232935L506.554591,167.787167L504.279791,166.549872L500.839490,170.758485L500.334287,171.376272L498.698932,173.375635L496.619996,175.916377L495.831629,176.879593L493.917255,179.217925L493.357928,179.900952L486.833996,187.862123L476.626692,181.149057L476.589271,181.124426L470.520984,177.128285L467.435719,175.095069L462.014825,180.440146L451.623993,181.404592L450.308319,177.686140L449.803525,176.259057L447.620490,170.084929L446.284006,170.312350L440.590629,171.279939L437.452080,171.812492L438.292553,174.057427L438.340742,174.186125L439.907508,178.369466L438.111787,180.177522L433.922199,184.393620L431.637671,184.485984L417.986494,185.031658L413.304164,185.216359L418.713668,195.846628L422.702720,203.676781L422.411106,210.154585L422.362809,211.226571L421.967466,219.992210L421.764125,224.494331L421.585474,228.446238L421.423252,232.031829L421.027126,240.775878L420.821267,245.313577L420.821270,245.313578L423.964019,247.503014L430.539629,252.080455L436.757140,256.404214L439.106570,258.036935L440.262649,258.840120L440.262647,258.840123L438.778278,262.698845L431.710997,281.042898L429.980228,281.654094L428.942415,282.020479L422.516198,284.287425L421.835556,288.034198L420.241281,296.802531L419.377579,301.548257L421.771105,307.317784L423.917676,312.488804L440.172895,325.767791L440.973915,326.421257L442.923990,328.011765L444.447930,329.254367L447.817884,332.001113L461.401893,327.833696L461.581062,327.778644L465.168216,321.035424L462.894288,316.954198L460.124006,311.979346L460.124004,311.979343L460.124008,311.979333L460.859273,309.512179L465.805229,292.894436L468.822573,290.901246L472.872441,288.224418L475.221222,286.671122L484.630432,280.442509L484.766391,278.780183L484.942359,276.627927L485.428081,270.682720L493.128745,268.938439L500.056230,267.366061L499.891163,261.176952L501.491544,260.933727L506.070482,260.236970L514.621153,258.932465L518.184278,258.387567L519.534881,258.180823L523.182220,261.779727L530.267305,251.853166L533.189567,256.935819L534.100232,258.519080L540.241393,258.395797L542.951385,258.340705L543.015004,256.968665L543.233618,252.250295L548.255855,253.540523L552.267635,254.569996L552.173910,258.667550L553.790808,258.163709L561.013401,255.910863L561.886814,250.277753L560.386114,249.464215L557.488169,247.892655L554.275388,246.149484L547.598265,242.523706L542.488245,239.746200L539.301634,238.012964L538.446345,237.547608L534.354794,235.320520L539.088998,230.087150L547.210192,221.098741L547.210194,221.098742L553.134386,223.711595L556.742813,225.301737L555.432637,221.478928L555.149695,220.653169L553.942613,217.129534L550.753617,219.096486L549.222640,220.040407L547.645552,221.012502L540.920996,218.433786L539.629672,217.938213L539.503062,217.146959L538.797453,212.736324Z " data-nuts-id="CH061" data-shape-area="1.75911440895e-001" data-shape-leng="2.52437985113e+000" data-stat-levl-="3"/><path d="M654.864854,280.322528L647.513399,285.224753L645.442184,286.604816L637.312001,292.017345L636.212287,289.212428L634.384695,284.549184L631.771803,277.878259L631.062710,276.067090L631.062710,276.067088L625.625074,275.405097L618.791873,274.570739L617.904940,275.035352L609.770849,279.292982L603.421540,277.655909L585.667885,273.064623L582.310089,272.193977L581.977311,265.734445L581.786011,262.021410L581.734626,261.024101L578.965167,260.689576L578.659190,260.652590L574.282256,260.122899L573.557590,263.070591L572.271877,268.297306L571.656304,270.798336L569.326150,280.257318L567.189220,281.387509L562.264543,283.990504L550.888589,289.994903L553.415528,300.748448L554.157164,303.902523L559.028000,305.775330L561.907171,306.881536L560.872912,308.565030L556.947936,314.950006L556.393616,315.851262L554.751986,318.519640L552.888011,321.548147L553.464499,322.352405L559.078434,330.179871L554.530603,331.641517L549.833836,333.149506L550.764054,350.121241L551.164904,357.434563L544.827017,356.884074L539.543825,356.423406L541.283841,364.597416L542.243048,369.100914L542.612843,387.037235L542.743609,393.393708L547.184731,404.120572L558.031702,408.951514L566.110283,397.015125L571.098098,389.634632L587.708537,392.091648L590.385466,392.486077L591.024767,393.747224L591.822107,395.319880L592.294597,396.251675L598.016501,393.263219L601.866867,391.250557L601.542499,379.452415L601.178373,379.095161L600.385463,378.317140L595.315035,373.339559L595.315035,373.339556L596.723260,367.627256L598.567792,360.137870L599.816895,355.061431L601.343026,354.213830L603.085544,353.245778L606.004553,351.623478L615.730736,346.212073L619.436008,337.501859L629.168427,337.665167L629.168429,337.665160L631.928254,325.489780L632.674520,322.193658L634.353825,321.055851L639.493637,317.571384L639.616829,317.487831L643.251711,315.021734L641.662953,305.784010L647.566163,302.150913L659.890259,294.554376L654.864854,280.322528Z " data-nuts-id="CH062" data-shape-area="1.25454675486e-001" data-shape-leng="1.95689900672e+000" data-stat-levl-="3"/><path d="M667.277645,199.039481L667.277639,199.039475L658.560366,191.014823L658.549823,184.766818L653.061750,185.565364L634.403342,188.266718L631.436585,188.694314L624.648569,185.145349L624.186342,184.903539L610.946309,189.444106L605.948955,191.154628L599.743200,193.276266L599.659971,201.905587L599.641194,203.843718L598.648964,210.054731L598.364954,211.831389L597.660583,216.235458L591.068863,223.592887L589.965555,224.823451L588.275458,226.707981L577.397653,229.531193L572.277693,230.857327L563.906309,227.865679L562.376711,227.318515L556.742813,225.301737L553.134386,223.711595L547.210194,221.098742L547.210192,221.098741L539.088998,230.087150L534.354794,235.320520L538.446345,237.547608L539.301634,238.012964L542.488245,239.746200L547.598265,242.523706L554.275388,246.149484L557.488169,247.892655L560.386114,249.464215L561.886814,250.277753L561.013401,255.910863L553.790808,258.163709L552.173910,258.667550L551.633391,262.611064L558.555761,264.955836L574.282256,260.122899L578.659190,260.652590L578.965167,260.689576L581.734626,261.024101L581.786011,262.021410L581.977311,265.734445L582.310089,272.193977L585.667885,273.064623L603.421540,277.655909L609.770849,279.292982L617.904940,275.035352L618.791873,274.570739L625.625074,275.405097L631.062710,276.067088L631.062710,276.067090L631.771803,277.878259L634.384695,284.549184L636.212287,289.212428L637.312001,292.017345L645.442184,286.604816L647.513399,285.224753L654.864854,280.322528L660.885718,278.091105L660.994313,277.245749L661.123600,276.239160L662.243832,267.509756L658.927797,263.744780L657.635375,262.276814L654.675774,258.914014L650.653156,254.340683L649.585003,253.125772L645.294625,248.243712L644.604864,247.458495L653.561570,240.934149L656.415103,238.853464L661.925146,226.954781L661.167743,221.463045L661.147562,221.316690L660.992360,220.191132L660.672880,217.873965L660.491373,216.557365L660.173112,214.248548L659.946634,212.605379L659.692093,210.758416L662.961053,205.710784L667.277644,199.039483L667.277645,199.039481Z " data-nuts-id="CH063" data-shape-area="1.08059800218e-001" data-shape-leng="1.86448646303e+000" data-stat-levl-="3"/><path d="M532.088200,326.047954L532.088201,326.047953L532.088198,326.047950L529.053104,323.119830L522.123586,316.429108L521.549951,315.874902L522.512332,308.548689L523.178768,303.470320L524.314648,294.805099L524.488818,293.475348L525.535015,285.481825L524.275664,280.880286L520.761199,280.492555L513.340316,279.671475L515.025394,273.766596L516.441370,268.800914L517.201295,266.134499L500.618908,267.325914L500.056230,267.366061L493.128745,268.938439L485.428081,270.682720L484.942359,276.627927L484.766391,278.780183L484.630432,280.442509L475.221222,286.671122L472.872441,288.224418L468.822573,290.901246L465.805229,292.894436L460.859273,309.512179L460.124008,311.979333L460.124004,311.979343L460.124006,311.979346L462.894288,316.954198L465.168216,321.035424L461.581062,327.778644L463.777289,327.695761L465.331601,327.636936L466.281283,327.600925L470.872511,327.426097L471.042025,327.563027L474.312712,330.204288L477.480089,332.760810L478.067488,333.234783L483.496486,337.613352L483.496489,337.613355L496.467801,334.401631L498.303770,333.946157L503.757448,332.591897L508.809556,335.176037L513.607650,337.628221L522.309418,332.180005L529.247388,327.830401L532.088200,326.047954Z M542.952900,303.701421L542.673494,303.085417L542.308382,302.280394L541.078808,299.568809L534.728902,300.215606L530.456259,300.649480L532.850154,312.431500L533.662814,316.428394L533.754137,316.877460L535.595476,319.375791L539.016515,324.015197L542.608726,328.883572L541.074767,329.647191L537.990520,331.181931L540.367003,331.577424L549.833836,333.149506L554.530603,331.641517L559.078434,330.179871L553.464499,322.352405L552.888011,321.548147L554.751986,318.519640L556.393616,315.851262L556.947936,314.950006L560.872912,308.565030L561.907171,306.881536L559.028000,305.775330L554.157164,303.902523L543.782830,305.530909L542.952900,303.701421Z " data-nuts-id="CH064" data-shape-area="5.88736576827e-002" data-shape-leng="1.48932556878e+000" data-stat-levl-="3"/><path d="M552.173910,258.667550L552.267635,254.569996L548.255855,253.540523L543.233618,252.250295L543.015004,256.968665L542.951385,258.340705L540.241393,258.395797L534.100232,258.519080L533.189567,256.935819L530.267305,251.853166L523.182220,261.779727L519.534881,258.180823L518.184278,258.387567L514.621153,258.932465L506.070482,260.236970L501.491544,260.933727L499.891163,261.176952L500.056230,267.366061L500.618908,267.325914L517.201295,266.134499L516.441370,268.800914L515.025394,273.766596L513.340316,279.671475L520.761199,280.492555L524.275664,280.880286L525.535015,285.481825L524.488818,293.475348L524.314648,294.805099L523.178768,303.470320L522.512332,308.548689L521.549951,315.874902L522.123586,316.429108L529.053104,323.119830L532.088198,326.047950L532.088201,326.047953L537.990520,331.181931L541.074767,329.647191L542.608726,328.883572L539.016515,324.015197L535.595476,319.375791L533.754137,316.877460L533.662814,316.428394L532.850154,312.431500L530.456259,300.649480L534.728902,300.215606L541.078808,299.568809L542.308382,302.280394L542.673494,303.085417L542.952900,303.701421L543.782830,305.530909L554.157164,303.902523L553.415528,300.748448L550.888589,289.994903L562.264543,283.990504L567.189220,281.387509L569.326150,280.257318L571.656304,270.798336L572.271877,268.297306L573.557590,263.070591L574.282256,260.122899L558.555761,264.955836L551.633391,262.611064L552.173910,258.667550Z " data-nuts-id="CH065" data-shape-area="3.22519089617e-002" data-shape-leng="1.26095235052e+000" data-stat-levl-="3"/><path d="M599.641194,203.843718L597.569726,204.354843L593.880125,205.264545L592.899542,204.341449L590.050734,201.658825L588.351391,200.058026L586.784392,198.581506L584.017348,195.973322L580.782529,192.922740L579.358463,191.579275L576.969611,189.324936L574.320058,186.823557L572.348077,187.176866L563.058606,188.837996L557.399901,189.847282L553.007624,190.629334L545.697337,184.793083L539.003256,179.442872L537.638784,178.351629L537.016804,179.653477L535.137159,183.586234L534.349776,185.233009L534.688253,187.328165L536.220963,196.811229L536.941764,201.268461L538.011751,207.882073L538.797453,212.736324L539.503062,217.146959L539.629672,217.938213L540.920996,218.433786L547.645552,221.012502L549.222640,220.040407L550.753617,219.096486L553.942613,217.129534L555.149695,220.653169L555.432637,221.478928L556.742813,225.301737L562.376711,227.318515L563.906309,227.865679L572.277693,230.857327L577.397653,229.531193L588.275458,226.707981L589.965555,224.823451L591.068863,223.592887L597.660583,216.235458L598.364954,211.831389L598.648964,210.054731L599.641194,203.843718Z " data-nuts-id="CH066" data-shape-area="2.93822186070e-002" data-shape-leng="7.82008432907e-001" data-stat-levl-="3"/><path d="M687.671839,631.322337L690.303883,625.474096L691.344900,623.159657L696.782926,611.057004L699.065625,605.970410L699.065624,605.970409L698.514885,605.453804L696.595815,603.653319L695.441762,602.570313L695.005417,602.160779L694.302499,601.500992L692.464024,599.774976L692.176993,599.505457L690.591556,598.016528L684.862487,592.633059L682.744823,590.641897L682.206151,590.135297L682.134810,590.068200L677.375817,585.590605L678.880455,583.732098L681.515163,580.476388L684.679358,576.564097L683.675150,574.269773L681.962073,570.354603L679.653403,565.075658L680.990376,561.596086L681.561564,560.108994L682.345322,558.067956L685.422226,556.913780L690.877575,554.865673L695.039138,553.301784L694.918644,552.207244L694.443547,547.891121L694.085440,544.637307L693.747046,541.562220L693.183488,536.440135L694.498177,535.238013L711.936874,519.265959L705.527512,513.967376L696.011839,506.091036L695.601568,505.751183L692.799395,496.860358L689.429863,486.159615L689.257402,485.611636L687.445470,479.852698L689.740356,470.639635L690.469352,467.710315L691.376083,464.064996L691.512583,463.516050L694.472986,451.599359L695.605765,447.033813L696.764730,442.359453L695.663309,434.077945L694.663761,426.559257L690.050131,422.365763L688.481096,420.938914L682.434808,415.437220L680.655208,413.816907L680.295590,413.489422L678.419049,411.780251L678.419048,411.780250L677.074701,399.171416L677.074700,399.171411L677.074701,399.171408L681.096749,387.855607L681.831922,385.785222L673.555906,378.933064L673.555902,378.933061L672.076733,379.392939L667.498663,380.815306L663.976968,381.908472L663.976967,381.908465L663.279833,379.216645L662.755351,377.191060L661.534264,372.473748L661.534263,372.473748L655.725459,375.820179L651.780910,378.090723L651.659320,380.340155L651.556696,382.237716L651.249113,387.919507L651.239273,388.101124L638.189559,395.291100L635.635849,395.009559L631.260182,394.526260L623.540022,393.670813L616.606690,392.899567L614.420287,392.655771L611.862700,392.370230L607.452536,391.876954L601.866867,391.250557L598.016501,393.263219L592.294597,396.251675L591.822107,395.319880L591.024767,393.747224L590.385466,392.486077L587.708537,392.091648L571.098098,389.634632L566.110283,397.015125L558.031702,408.951514L558.031700,408.951517L550.623636,419.457801L550.623633,419.457805L549.533261,419.506176L539.469342,419.949374L538.998324,424.765191L538.129122,433.641406L542.298422,432.394096L551.584498,429.611735L552.990888,431.617421L553.732730,432.675165L555.125432,434.660526L556.185049,436.170708L555.739118,444.602340L554.107031,475.321988L553.752014,481.975487L553.348383,489.527736L553.028536,495.503031L552.871484,498.434038L557.530020,500.640354L572.640327,507.784493L577.852341,516.456510L579.229491,518.746337L581.700320,522.853037L583.402898,525.681641L586.744101,531.229739L587.227322,532.031819L590.471047,537.413903L591.004562,538.298786L594.090414,539.261729L597.711657,540.390912L607.245691,543.359567L609.935240,544.195905L614.100650,545.490204L615.107238,544.088447L619.963668,537.321178L623.141464,542.705585L630.317633,543.289638L631.178403,543.359492L634.277793,543.610658L637.694319,546.217646L644.725037,551.578071L641.143248,559.522590L640.351107,561.278365L639.924838,562.223003L637.253495,568.139970L634.944188,573.251007L634.469983,574.300073L632.515023,578.623296L638.264950,581.692151L643.929937,584.712823L649.195477,587.517971L649.904109,587.895299L651.351194,588.665697L652.363309,589.204417L652.620457,589.341275L655.705233,594.630173L656.299004,595.647819L658.572493,599.543142L659.833132,601.702300L661.449837,604.470496L661.449841,604.470503L662.984384,609.887867L664.910201,616.682758L664.397761,618.196227L663.029172,622.236686L660.568032,629.496775L664.185008,629.742876L666.549956,629.903375L668.059536,630.005653L675.411728,630.501880L678.429074,630.704618L678.736759,630.725262L687.671839,631.322337Z " data-nuts-id="CH070" data-shape-area="3.30614129463e-001" data-shape-leng="3.09671512342e+000" data-stat-levl-="3"/></g></svg>