<?xml version="1.0" encoding="utf-8"?><!DOCTYPE svg  PUBLIC '-//W3C//DTD SVG 1.1//EN'  'http://www.w3.org/Graphics/SVG/1.1/DTD/svg11.dtd'><svg enable_background="new 0 0 1000 603" height="603px" pretty_print="False" style="stroke-linejoin: round; stroke:#000; fill: none;" version="1.1" viewBox="0 0 1000 603" width="1000px" xmlns="http://www.w3.org/2000/svg" xmlns:xlink="http://www.w3.org/1999/xlink"><defs><style type="text/css"><![CDATA[path { fill-rule: evenodd; }]]></style></defs><metadata><views><view h="603.266639574" padding="0" w="1000"><proj dist="1.6" id="satellite" lat0="35.130864394" lon0="33.2373399848" tilt="0" up="0"/><bbox h="41.21" w="68.43" x="971.38" y="979.25"/></view></views></metadata><g class="" id="nutsregions"><path d="M330.415248,601.266640L325.213388,591.666735L317.350332,577.146215L323.061976,562.702096L328.769585,548.257985L363.008549,529.410187L394.576213,526.478893L399.418335,526.027163L409.201813,525.112740L417.050739,524.377481L433.756060,522.807695L453.861052,520.909614L454.717510,520.828543L457.131881,519.555007L457.948804,519.124048L459.658832,518.221860L466.865257,514.418681L469.776317,512.881838L485.208476,504.729540L516.271758,488.293489L521.044348,485.765114L521.146383,485.711050L522.432906,485.029342L540.052648,475.686820L543.348712,473.937885L551.543433,469.587931L577.867076,469.313751L577.874921,469.313667L577.874923,469.313666L593.194162,442.616820L593.822551,428.031328L594.835837,404.484032L609.739249,386.740987L652.534294,381.890833L664.692078,388.668048L687.772279,401.518727L704.303417,393.394429L710.739912,390.228604L733.600679,378.972695L778.595657,392.438114L781.734423,384.058616L784.136853,377.642349L767.285324,355.500886L756.329714,341.091065L731.154615,307.933247L727.711440,303.393369L709.753000,279.695661L709.532067,276.892868L706.577206,239.383035L714.759447,224.466020L722.830834,209.738920L746.727801,196.991187L755.765197,197.033325L775.090896,197.117116L779.918091,189.678581L788.986335,175.695926L806.111494,149.258555L869.866577,115.399613L922.902875,74.272921L925.280733,70.576644L940.797639,46.436170L959.880103,39.280917L960.008068,39.232897L988.671591,28.464428L992.791517,17.299271L999.169803,0.000000L978.060961,8.021736L942.212931,21.613834L929.653676,26.366632L913.842450,32.343327L895.430145,39.293774L892.274747,48.734522L891.793042,50.175318L859.640305,67.584413L848.649655,73.526441L846.133606,74.886094L836.924992,73.819971L826.587161,72.620750L823.320120,72.241242L821.327814,75.024974L815.279916,83.472442L815.142412,83.664452L810.605787,89.998099L809.964986,90.892533L801.539160,102.648814L801.539119,102.648834L796.498225,105.104190L772.630751,116.717823L766.727566,119.587210L765.015742,120.419060L752.108184,126.688148L748.601287,128.390426L738.842595,133.125152L730.794599,135.641510L727.788646,136.580917L724.571139,137.586159L715.847863,140.310118L702.661046,144.423867L677.948249,152.120267L674.707637,153.128248L674.707633,153.128249L661.581883,152.622803L649.027561,152.135648L628.257478,163.836628L599.348532,180.095322L597.176034,181.315872L597.175994,181.315895L592.268764,182.278784L577.463624,185.180193L542.186449,192.071596L533.989623,193.668419L524.130078,195.586944L518.991356,195.517945L513.258777,195.440255L512.228051,195.426206L503.112305,195.300889L484.905659,195.044868L479.972814,194.974188L476.539601,194.924664L464.404567,193.795517L462.230306,193.592841L442.874078,191.783648L437.302200,191.261227L427.305353,190.322097L424.496224,190.057778L413.382471,189.010242L409.456294,188.639485L397.074305,187.467861L373.800433,185.255884L358.534847,183.798126L336.940673,181.726697L326.601731,177.243435L301.380824,166.292633L298.442431,165.015476L282.030524,157.877059L283.482332,175.294391L284.433078,186.691768L288.018487,229.611307L276.035608,270.376501L254.244404,291.333392L241.180604,297.214232L241.180560,297.214216L232.596598,294.093928L226.645604,291.929454L220.598305,289.728883L205.421931,284.201550L193.930210,280.011667L186.608637,277.340186L170.946045,271.619927L164.003874,269.082201L161.395803,268.128447L154.581366,270.417200L149.582393,272.095365L124.279834,280.578717L114.836521,294.888878L111.486762,299.962356L104.744509,310.169817L102.040064,314.262640L95.288386,324.476465L94.427648,325.778170L69.146244,346.692471L37.527298,345.421538L21.887896,330.282246L13.681489,322.331511L12.811832,321.488675L7.379617,316.222815L0.830197,322.949058L1.214200,335.793149L1.289413,338.306894L1.678911,351.314363L6.993415,358.368370L11.041259,363.739041L17.817965,372.726336L18.060481,396.374668L18.097822,400.005884L18.124112,402.560956L18.321077,421.662062L18.338879,423.384807L31.847181,446.125467L46.197465,451.602247L46.902369,451.871111L50.446942,462.206737L52.119235,467.080994L53.031596,469.739727L57.622087,483.111264L65.892960,507.179218L68.765991,509.295304L87.402347,523.011662L90.449649,525.252837L94.759355,528.421678L146.048086,547.463597L146.131688,547.494571L185.396850,562.018849L191.327997,560.941960L203.189377,558.785719L203.811552,558.672519L231.876061,553.556356L260.141716,548.383660L269.754865,564.034903L288.150201,593.946126L291.589678,599.533215L300.297917,599.925109L316.957363,600.669830L330.415248,601.266640Z " data-nuts-id="CY000" data-shape-area="9.18854313857e-001" data-shape-leng="6.32635296075e+000" data-stat-levl-="3"/></g></svg>