<?xml version="1.0" encoding="utf-8"?><!DOCTYPE svg  PUBLIC '-//W3C//DTD SVG 1.1//EN'  'http://www.w3.org/Graphics/SVG/1.1/DTD/svg11.dtd'><svg enable_background="new 0 0 1000 576" height="576px" pretty_print="False" style="stroke-linejoin: round; stroke:#000; fill: none;" version="1.1" viewBox="0 0 1000 576" width="1000px" xmlns="http://www.w3.org/2000/svg" xmlns:xlink="http://www.w3.org/1999/xlink"><defs><style type="text/css"><![CDATA[path { fill-rule: evenodd; }]]></style></defs><metadata><views><view h="576.148258817" padding="0" w="1000"><proj dist="1.6" id="satellite" lat0="50.061419882" lon0="14.4556236516" tilt="0" up="0"/><bbox h="90.9" w="158.05" x="945.14" y="963.91"/></view></views></metadata><g class="" id="nutsregions"><path d="M377.322196,213.874491L377.322195,213.874491L375.350865,213.525986L374.045724,213.295048L373.693489,213.232693L371.019456,212.758933L368.750097,212.356328L367.523900,208.246181L367.459466,208.030112L367.040575,206.625227L363.319757,204.294828L358.677508,201.384178L349.017128,204.097445L339.567680,206.741979L335.058835,208.000526L333.631951,208.398365L333.622372,209.143029L333.600685,210.828653L333.542274,215.366497L327.512968,215.586641L325.909152,213.710774L324.682855,212.275873L320.104701,214.753489L318.357356,215.698326L313.358535,218.398903L314.265554,218.905079L316.000867,219.873159L320.070391,222.141684L322.304505,223.386034L320.821959,224.806516L320.284221,225.321603L318.930540,226.617935L316.818581,228.639482L320.107816,232.321877L323.560170,236.183167L326.383431,239.338020L330.728944,244.188957L330.776906,245.866229L330.832841,247.821588L330.886426,249.694107L337.023754,254.272234L338.511195,255.380699L338.511198,255.380701L338.660863,254.209187L338.681735,254.045787L339.361542,248.721233L346.678404,248.752407L348.358319,248.758878L349.170936,247.982623L351.518101,245.739533L351.850067,245.422172L351.919710,245.355589L351.977956,245.299902L354.647906,242.746303L357.114680,240.385398L357.977885,239.558869L364.335203,240.989962L369.020928,242.042177L369.624906,242.177645L370.523750,242.379182L372.745416,242.876973L374.604742,243.293198L378.841128,238.243751L377.969487,236.348390L376.990734,234.219267L375.869985,231.780147L374.575293,228.960995L379.013271,227.186154L381.949556,226.010572L381.995557,225.992147L382.511511,225.785468L383.374430,225.439731L383.937634,220.936712L382.127698,219.005828L377.322196,213.874491Z " data-nuts-id="CZ010" data-shape-area="6.29978016776e-002" data-shape-leng="1.30612692697e+000" data-stat-levl-="3"/><path d="M448.200098,121.605455L447.027005,120.551020L446.903091,120.439621L445.777532,119.427575L442.868136,116.810206L437.995516,112.422193L435.974164,110.600227L432.767228,111.851973L432.472662,111.966888L432.193594,111.488692L429.871092,107.507126L429.783318,107.356587L429.302161,106.531278L427.341032,103.165960L424.234561,103.691103L422.856552,103.923756L420.810691,104.268827L420.387187,104.340209L417.707190,102.497835L416.728544,101.824746L414.815586,100.508572L413.839134,99.836493L413.361869,100.555714L407.673212,109.119296L405.208773,112.824055L401.507972,118.381589L395.584809,116.157142L390.362142,114.192380L390.362142,114.192382L390.415634,117.199622L390.478073,120.708704L390.527340,123.476597L389.071847,124.395070L386.133983,126.247918L381.595972,129.107164L381.349154,129.262578L379.745558,130.272078L379.676846,130.315325L377.690833,130.783070L375.577164,131.280444L374.517736,131.529571L372.639845,131.970884L366.974611,133.300085L365.962999,128.274098L365.528601,126.114459L365.255799,124.757767L365.255791,124.757767L363.667430,124.814044L355.361718,125.104587L354.865893,126.609312L354.694805,127.128430L354.636397,127.305640L354.027682,129.152116L351.883002,126.159828L349.915564,127.011152L348.637934,127.563732L347.280182,128.150742L348.480873,133.018448L349.949024,138.964405L346.456695,140.056976L344.713677,140.601782L343.113987,141.101498L342.468830,143.026429L341.632933,145.519404L334.350733,142.943138L334.375580,149.344556L334.388603,152.694894L334.404680,156.826593L334.421949,161.259083L331.979593,161.144831L328.085904,160.961561L323.963422,160.766017L320.859065,160.617743L319.855484,161.595825L317.675131,163.719868L315.888586,165.459341L311.460848,165.643077L309.501824,165.723800L305.237732,165.898297L301.706895,166.041535L299.265724,165.595565L299.055332,165.557102L297.759246,165.320063L296.566652,165.101807L288.395801,163.602758L281.783710,162.384943L278.371440,168.028687L275.719313,172.410536L274.284447,174.779533L272.281962,175.630530L268.117635,177.398666L262.646865,179.718260L260.541222,185.697558L256.956694,186.579174L253.090924,181.265096L253.017969,181.164745L252.568038,181.607875L252.374933,181.798043L250.486334,183.657412L246.591579,187.488918L243.758673,190.273311L238.817137,190.605857L236.374179,190.769433L234.289993,188.845773L232.033971,186.762290L228.582992,190.060740L226.540145,192.011878L225.036549,193.447300L224.542009,193.919292L220.336658,197.930415L216.322530,197.888644L214.199055,197.865954L212.216937,197.844405L205.187866,203.023164L205.364738,205.880048L205.499666,208.058038L205.583014,209.402824L205.729791,211.769892L205.014058,212.591155L201.259167,216.896981L198.964070,216.506052L198.765274,216.472167L198.347062,216.400869L198.178389,216.372109L196.624630,216.107048L195.780891,215.963014L194.411763,218.111887L192.964473,220.382382L194.755457,223.464663L193.849600,226.524224L193.172995,228.808423L192.791411,230.096243L191.746886,233.619980L195.264040,233.261166L197.982750,232.983023L203.508377,232.415600L206.171262,232.141140L206.678096,236.090630L207.833187,236.846760L209.437992,237.896897L209.575363,237.986769L216.548918,242.544803L221.588894,241.905166L224.977660,241.473751L226.594817,241.267495L228.712533,240.997026L231.707068,244.929675L233.010093,246.639748L233.159954,246.836380L235.739150,250.219061L236.418107,250.138880L237.933624,249.959751L239.980261,249.717505L240.581982,249.646209L242.951134,249.365168L251.235543,257.885069L251.735967,258.399089L253.253187,259.957089L253.911098,263.535577L254.580940,267.176322L255.475998,272.037022L253.673523,271.992218L251.697719,271.942766L251.639653,271.941308L251.639653,271.941309L251.383150,273.946941L250.986441,277.047605L250.844826,278.154090L250.625612,279.866504L250.278057,282.580510L249.730654,286.852738L249.311089,290.125293L248.699890,294.889548L248.548652,296.067881L247.971474,300.562816L247.231360,300.873314L242.095631,303.026047L241.379450,303.325991L234.784331,306.085153L234.242150,307.059661L232.728448,309.779354L230.984641,312.910629L232.610667,315.155631L234.479067,317.733817L236.578890,320.629487L238.094883,322.718835L238.094896,322.718853L237.867228,324.138664L237.233999,328.085979L242.064100,330.971669L242.475167,334.562855L242.484903,334.647878L242.782984,337.250256L243.636579,344.694637L244.602281,353.102750L252.313474,350.515168L253.301827,350.183037L256.226541,351.280831L258.254628,352.041489L261.777272,353.361557L269.356392,356.196835L275.397722,353.795417L276.295433,353.438208L277.915086,350.475066L279.314553,347.913315L279.487685,347.596302L281.006155,344.815026L285.291071,342.931650L286.412266,343.112868L290.969601,343.848228L290.841356,345.779132L290.822501,346.062972L290.568941,349.878812L294.254074,350.054753L298.218410,350.242638L297.682786,348.208180L297.682787,348.208180L302.079389,348.577081L305.290938,348.845421L305.526990,348.865107L310.734589,349.298089L319.136248,341.196855L322.758580,343.954752L324.881504,345.569866L328.262045,348.139950L330.218590,349.626409L332.355510,351.249051L336.658139,347.794252L339.348634,345.631970L339.650176,345.389534L340.201899,344.945908L341.333859,344.035532L350.301938,346.537670L352.388886,347.118728L352.391854,347.119554L353.897831,347.538570L355.597036,348.011064L357.922192,348.657123L360.632591,349.409509L361.977246,349.782489L365.443557,350.743099L369.456585,351.853647L374.520319,353.252556L374.520320,353.252556L377.345174,351.702542L383.082372,348.550931L385.298195,347.332431L389.331469,345.112659L389.016139,344.176197L387.129776,338.570687L388.617923,336.389180L389.763660,334.708890L390.892808,333.052307L392.001288,331.425447L393.249995,329.592068L393.720194,328.901517L399.166139,333.433482L404.948972,338.238831L408.219404,338.547951L409.455927,338.664569L410.109017,339.802493L411.936516,342.985257L413.889744,346.384676L418.292218,345.228458L418.615295,343.349874L419.348766,339.082408L419.500255,338.200575L422.338160,338.026579L427.342670,337.717945L424.122046,334.847696L423.736980,334.504360L425.610153,332.194240L426.560300,332.263188L429.648317,332.486696L441.542716,333.339416L444.103526,333.521302L446.862817,333.716611L450.615288,333.981098L450.800687,333.994132L452.638484,334.123162L453.389229,333.796177L455.875193,332.712916L461.180006,330.398737L462.576068,329.789127L462.576069,329.789127L463.280817,328.086197L464.751896,324.529610L465.320100,323.155184L463.073866,318.250117L462.002115,318.194090L458.383469,318.004143L457.453587,317.955139L455.817944,317.868750L454.526713,311.181545L460.573653,299.290378L461.024133,298.403320L465.968568,296.812816L466.996295,296.481883L470.244965,295.435032L470.517775,295.347069L472.942360,294.564940L476.874723,293.295052L477.990204,292.934516L478.343696,292.820235L481.281380,291.869972L484.388576,290.863840L490.817669,288.778670L492.977645,285.998938L492.839252,285.744425L489.889656,280.316832L495.302036,276.807847L495.429403,276.725213L499.823159,273.872891L501.087080,273.051779L501.427481,272.830589L502.543798,267.683642L503.287521,264.251530L504.232710,259.886149L504.926998,256.677032L505.075900,255.988501L505.707170,253.068370L506.351108,250.087806L504.010769,248.400650L496.708468,243.129972L493.701052,240.956434L491.106626,239.080043L490.859174,238.901011L487.430442,236.419168L481.070896,231.810174L481.070897,231.810173L482.963002,228.474589L483.029459,228.357387L483.627937,227.301798L484.190388,227.227089L485.883249,227.002051L488.298463,226.680520L487.202519,222.797134L486.215927,219.299000L489.296535,217.453013L491.228063,216.294823L491.885915,215.900224L491.959552,215.717394L491.990882,215.639606L492.070366,215.442245L492.177707,215.175705L492.951665,213.253436L493.278226,212.442128L491.691631,211.943472L490.811423,211.666711L480.689562,208.478093L479.570455,208.124867L478.673364,207.841617L480.936437,203.971255L481.895793,202.329543L484.528188,197.821755L484.954562,197.091197L485.712977,195.791422L485.713009,195.791368L485.713010,195.791366L484.653888,190.508859L483.501135,184.754157L483.244361,183.471572L481.596819,175.235662L478.448151,172.786199L477.132757,172.988456L475.874116,173.181832L472.763476,173.659099L467.498657,174.464783L460.908385,175.469585L458.450798,173.988190L457.488972,173.408160L457.880724,172.207063L458.704310,169.681026L459.081675,168.523167L458.076213,167.656009L455.943731,165.816110L454.556217,164.618420L452.736575,163.047069L451.519057,161.995268L450.643869,161.915415L448.134291,161.686048L445.654450,161.458829L443.847504,158.191971L442.275328,155.347792L443.751837,153.270681L444.539022,152.162879L446.896981,148.842818L450.670702,143.523970L449.591609,140.831655L448.456005,137.996866L447.164239,134.770409L446.280661,132.562353L445.904003,131.620808L445.741212,131.213819L444.306457,127.625497L443.412634,125.388810L443.412635,125.388808L444.651260,124.410425L447.079305,122.491602L448.200098,121.605455Z M377.322196,213.874491L382.127698,219.005828L383.937634,220.936712L383.374430,225.439731L382.511511,225.785468L381.995557,225.992147L381.949556,226.010572L379.013271,227.186154L374.575293,228.960995L375.869985,231.780147L376.990734,234.219267L377.969487,236.348390L378.841128,238.243751L374.604742,243.293198L372.745416,242.876973L370.523750,242.379182L369.624906,242.177645L369.020928,242.042177L364.335203,240.989962L357.977885,239.558869L357.114680,240.385398L354.647906,242.746303L351.977956,245.299902L351.919710,245.355589L351.850067,245.422172L351.518101,245.739533L349.170936,247.982623L348.358319,248.758878L346.678404,248.752407L339.361542,248.721233L338.681735,254.045787L338.660863,254.209187L338.511198,255.380701L338.511195,255.380699L337.023754,254.272234L330.886426,249.694107L330.832841,247.821588L330.776906,245.866229L330.728944,244.188957L326.383431,239.338020L323.560170,236.183167L320.107816,232.321877L316.818581,228.639482L318.930540,226.617935L320.284221,225.321603L320.821959,224.806516L322.304505,223.386034L320.070391,222.141684L316.000867,219.873159L314.265554,218.905079L313.358535,218.398903L318.357356,215.698326L320.104701,214.753489L324.682855,212.275873L325.909152,213.710774L327.512968,215.586641L333.542274,215.366497L333.600685,210.828653L333.622372,209.143029L333.631951,208.398365L335.058835,208.000526L339.567680,206.741979L349.017128,204.097445L358.677508,201.384178L363.319757,204.294828L367.040575,206.625227L367.459466,208.030112L367.523900,208.246181L368.750097,212.356328L371.019456,212.758933L373.693489,213.232693L374.045724,213.295048L375.350865,213.525986L377.322195,213.874491L377.322196,213.874491Z " data-nuts-id="CZ020" data-shape-area="1.38310330445e+000" data-shape-leng="8.15794900162e+000" data-stat-levl-="3"/><path d="M328.792264,574.148259L330.372587,573.232386L335.978435,569.980484L337.324787,569.198770L338.110658,568.742354L343.571574,565.568192L345.197367,562.145200L347.413647,557.475229L346.610156,555.579296L346.463931,555.234187L345.602094,553.199667L349.479379,552.580671L353.439269,557.520080L354.634821,559.010229L361.940653,560.726909L363.890489,561.184156L366.449715,559.607255L368.267410,558.486624L371.091280,556.744631L374.815412,561.777504L376.180085,563.620314L378.702037,567.023851L383.071721,566.455648L387.639539,562.660708L386.985558,557.452458L386.908722,556.840236L386.241739,551.523124L388.045369,545.843712L389.733103,540.523646L395.104963,536.239855L398.515149,533.517320L399.186570,532.981007L399.672140,529.555841L399.799500,528.657086L400.496080,523.738712L400.737149,522.035502L403.656801,521.932233L411.497497,521.651043L414.114647,522.718876L415.375706,523.233110L422.979903,526.329879L426.633494,523.343518L426.633497,523.343516L422.565062,519.418453L423.426840,515.694351L424.227271,512.232952L424.511394,511.003727L424.680933,510.270097L427.654284,497.386818L428.309392,494.543955L427.881459,491.588087L427.693249,490.287609L427.244342,487.184667L426.855950,484.498749L426.819153,484.244217L425.877862,477.729541L426.721764,474.835920L426.865108,474.344252L428.103115,470.095936L428.269484,469.524762L428.815990,467.648053L430.484356,468.004996L439.132764,469.850876L445.717648,471.251351L452.832912,472.759794L452.972539,474.665418L453.518013,482.105324L453.664336,484.099790L459.501787,482.036401L465.120308,480.046730L468.040372,479.011234L469.460527,478.507275L470.118992,478.273532L470.558552,478.117469L477.294127,475.723286L479.131447,475.069304L481.748152,474.137239L490.939593,479.760511L494.087437,481.683302L494.615591,481.661529L499.897726,481.442369L501.529589,482.870112L501.911827,483.204452L505.176890,486.059036L511.213187,491.330179L513.583692,488.058758L517.066929,483.247157L517.765068,482.282124L517.765067,482.282123L516.726932,478.017420L512.940013,477.033932L509.829078,476.224895L508.191625,475.798655L507.825339,474.924264L506.343481,471.385374L505.159800,468.556924L506.875354,466.579879L507.161130,466.250449L507.930546,465.363359L508.380905,464.844030L513.841941,458.541208L515.605568,456.503571L517.019538,454.869154L519.001014,452.577611L518.505544,451.322624L518.239167,450.647796L517.202790,448.021497L516.889435,447.227177L516.349147,445.857337L514.931454,442.261333L514.276529,440.599319L514.274447,440.599628L505.119501,441.954788L503.817197,442.146912L502.213586,442.383266L499.494396,442.783482L498.816296,442.883177L493.552309,441.267230L488.471134,439.704572L486.023291,438.950772L486.021641,438.950264L486.019638,438.949647L486.019637,438.949647L482.171103,434.934936L481.170683,433.890637L479.607363,432.258188L480.331748,425.180678L480.757933,421.011536L477.141886,421.173458L473.988692,421.313676L472.055693,421.399184L471.457263,421.425587L468.761171,421.544133L467.335585,421.085843L466.038308,420.668608L461.713001,419.276158L459.484852,418.558050L457.487453,417.913847L455.755247,419.620212L454.965794,420.397620L454.758354,420.601867L453.938460,421.409029L449.826099,420.268030L446.831470,414.089476L444.397826,409.062885L440.985221,408.280718L436.405245,407.229151L436.405244,407.229150L435.434929,405.934050L434.361911,404.501428L434.162157,404.234679L433.862109,403.833968L433.313847,403.101674L432.860439,403.370774L432.228346,403.745871L429.258379,405.507480L425.711224,407.609651L422.504252,403.974114L421.821486,403.199685L419.963340,401.091323L417.689950,398.510305L414.457782,394.837931L415.245586,393.078837L417.529959,387.974489L415.613168,386.968068L415.090018,386.693296L412.010520,385.075086L412.398995,383.615518L412.433017,383.487672L413.137870,380.838300L415.783721,370.881007L416.333699,368.808820L416.532452,368.059761L417.708885,363.623784L418.614914,360.204803L417.719020,358.672882L417.310812,357.974709L415.046241,354.099707L414.036060,352.370138L414.036061,352.370136L414.591488,351.438775L417.780999,346.086850L418.292216,345.228462L418.292218,345.228458L413.889744,346.384676L411.936516,342.985257L410.109017,339.802493L409.455927,338.664569L408.219404,338.547951L404.948972,338.238831L399.166139,333.433482L393.720194,328.901517L393.249995,329.592068L392.001288,331.425447L390.892808,333.052307L389.763660,334.708890L388.617923,336.389180L387.129776,338.570687L389.016139,344.176197L389.331469,345.112659L385.298195,347.332431L383.082372,348.550931L377.345174,351.702542L374.520320,353.252556L374.520319,353.252556L369.456585,351.853647L365.443557,350.743099L361.977246,349.782489L360.632591,349.409509L357.922192,348.657123L355.597036,348.011064L353.897831,347.538570L352.391854,347.119554L352.388886,347.118728L350.301938,346.537670L341.333859,344.035532L340.201899,344.945908L339.650176,345.389534L339.348634,345.631970L336.658139,347.794252L332.355510,351.249051L330.218590,349.626409L328.262045,348.139950L324.881504,345.569866L322.758580,343.954752L319.136248,341.196855L310.734589,349.298089L305.526990,348.865107L305.290938,348.845421L302.079389,348.577081L297.682787,348.208180L297.682786,348.208180L298.218410,350.242638L294.254074,350.054753L290.568941,349.878812L290.822501,346.062972L290.841356,345.779132L290.969601,343.848228L286.412266,343.112868L285.291071,342.931650L281.006155,344.815026L279.487685,347.596302L279.314553,347.913315L277.915086,350.475066L276.295433,353.438208L275.397722,353.795417L269.356392,356.196835L261.777272,353.361557L258.254628,352.041489L256.226541,351.280831L253.301827,350.183037L252.313474,350.515168L244.602281,353.102750L241.830723,357.318342L241.887464,358.077217L241.915587,358.453287L241.941730,358.802856L241.985908,359.393506L242.196065,362.202238L242.609326,367.720270L243.396340,378.210013L246.622602,383.839473L248.167509,386.532741L247.241797,388.151270L246.400071,389.622494L246.126813,390.100016L245.778474,390.708678L245.115454,391.866979L242.416498,396.579265L238.315861,403.730198L236.564673,406.780858L236.178178,407.453897L235.382846,411.639095L235.362471,411.746274L234.572095,415.902466L234.344005,417.101347L233.534439,421.354669L232.219418,428.257239L231.279106,433.188166L223.418324,439.627977L223.418316,439.627982L221.779327,438.840013L217.615744,436.836693L215.781824,446.756985L215.781840,446.757021L216.005583,447.263601L218.190470,452.207660L219.835324,455.926388L219.239407,456.575333L216.095343,459.997421L216.038431,460.059338L213.618393,462.691335L210.114872,466.498633L210.201873,467.383716L210.258715,467.961883L211.245684,477.989067L211.245684,477.989069L212.462309,477.806434L213.465236,477.655773L214.893711,477.441021L215.620505,477.331682L217.251540,479.879217L217.323201,479.991113L219.541449,483.453417L219.662372,483.642081L219.842707,483.923423L224.614786,491.362006L226.109363,493.689180L226.165636,493.776778L226.238971,493.890934L227.020339,495.107051L229.113802,498.363686L229.113803,498.363688L230.319189,498.206848L234.097914,497.714292L234.099715,497.714057L234.100278,497.713983L234.101538,497.713819L237.611676,497.255066L237.641750,497.251130L238.839644,497.094304L238.958947,497.078677L239.088246,497.061740L239.088247,497.061742L239.146129,497.234494L239.700107,498.887569L239.823467,499.255600L239.829094,499.272388L239.962666,499.670857L240.079095,500.018158L240.891432,502.440652L241.421260,504.020038L243.010860,508.755576L243.085071,508.976546L243.128650,509.026256L244.685120,510.801284L246.281871,512.621421L250.635502,517.579878L250.635503,517.579879L250.224004,518.433848L250.062847,518.768251L249.981791,518.936436L248.912694,521.154220L254.269793,523.442061L259.883514,524.656025L267.293708,532.100304L267.493400,532.300705L268.232174,533.042013L272.028884,536.849383L272.028885,536.849383L274.624203,537.425421L274.939154,537.495280L275.067900,537.523834L275.809212,537.688213L279.437526,538.491965L281.523168,540.510095L287.309620,546.103314L286.513460,550.903008L281.849903,553.052826L279.951442,553.927180L281.551235,555.275808L283.283960,556.735864L285.300291,558.434068L290.720610,562.994784L292.784891,564.730003L292.784892,564.730004L296.470806,564.710341L302.986418,564.672545L304.920714,564.660578L305.352041,564.657863L307.693363,564.642828L310.077185,565.719632L311.732862,566.467095L321.262748,570.762598L328.792263,574.148259L328.792264,574.148259Z " data-nuts-id="CZ031" data-shape-area="1.24194259174e+000" data-shape-leng="6.33685039436e+000" data-stat-levl-="3"/><path d="M192.964473,220.382382L189.623346,222.239014L187.838364,223.230246L187.605033,222.635542L187.135153,221.437702L186.611372,220.102105L186.301518,219.311826L186.291966,219.287462L185.832745,218.115980L185.363685,216.919101L180.981634,217.467999L177.540792,217.897741L177.540791,217.897740L173.820765,222.945920L174.902142,223.494881L175.039835,223.564769L177.063273,224.591491L174.209727,226.906511L173.919737,227.141680L173.203195,227.722688L172.287419,228.465091L168.220373,231.760083L167.307200,240.363638L167.211492,241.264815L159.977978,237.508629L154.402178,234.608201L152.119724,234.656495L151.825274,234.662691L150.889717,234.682324L148.775290,234.726404L143.743395,237.254614L133.852418,242.214236L132.689298,242.796591L128.078196,245.103499L126.320128,245.982296L127.492927,248.335086L127.718411,248.787297L128.031329,249.414786L121.753359,257.911934L120.552796,257.594001L114.601554,256.015773L104.323283,253.281342L102.003270,253.603988L97.769654,254.191453L94.642730,254.624267L94.199540,255.053021L92.400472,256.792979L92.358877,256.833197L89.938883,259.172371L87.659425,259.102973L86.948484,259.081232L84.965840,259.020357L82.409660,258.941342L76.389703,258.752902L76.112574,259.363887L75.895003,259.843519L74.924901,261.981589L68.965147,260.810773L66.034597,260.233772L63.487543,263.670229L63.433880,263.742603L61.148793,266.823384L61.144981,266.828522L58.000730,271.064264L58.000279,271.064870L57.900733,271.198909L57.898557,271.201838L55.958419,273.813451L55.092220,274.978961L54.831418,275.329824L54.790460,275.384923L54.089529,276.327758L54.067827,277.522178L54.021306,280.084048L54.014872,280.438553L53.988663,281.882996L53.915958,285.893628L53.900152,286.766232L53.425532,287.053551L43.120165,293.283532L45.990221,299.647826L45.993994,299.656187L46.790506,301.420846L46.897152,301.657068L47.249760,302.438004L47.472404,302.931036L48.853473,305.988126L50.223581,306.490883L50.424303,306.564519L51.271967,306.875438L52.189423,307.211862L52.657164,307.383341L55.353455,308.371334L59.979367,310.064418L60.455122,310.238403L60.458764,310.345683L60.480450,310.984478L60.491159,311.299842L60.492920,311.351697L60.505291,311.715975L60.528908,312.411186L60.651466,316.015547L60.679848,316.849401L60.698407,317.394506L60.721817,318.081909L60.805345,320.532839L60.847765,321.776534L60.922817,323.975309L60.956703,324.967331L60.967205,325.274709L60.989745,325.934249L62.413001,325.872688L65.025166,325.759222L65.793345,325.725736L66.485681,328.477590L67.554551,332.722778L67.578242,332.816823L67.896010,334.078097L67.901971,334.101753L70.299788,343.607718L75.530055,346.844008L75.601366,346.888101L76.779531,347.616475L77.694211,348.181799L77.620229,348.619398L77.384047,350.016238L77.226174,350.949787L76.789097,353.533766L75.895495,358.813935L75.883378,358.885508L75.883379,358.885509L79.204762,366.129951L83.246226,369.409902L84.928102,370.773834L84.944625,370.787231L87.541113,372.891672L87.622167,372.957343L88.762541,373.881132L93.916194,378.052505L95.784688,384.905185L96.840390,388.772493L104.100103,390.572759L104.134298,390.581226L110.020395,392.036868L110.487298,392.152181L112.324515,392.605712L112.903417,392.748546L112.903418,392.748547L112.832472,392.422304L112.498393,390.885753L112.450208,390.664093L112.414153,390.498221L111.990566,388.549091L113.658115,388.676313L115.064972,388.783447L115.064973,388.783447L117.093966,389.521540L118.597039,390.068010L118.741421,390.120489L123.504124,391.850249L123.812879,391.962295L125.711201,392.650945L126.865357,394.155612L130.726659,399.185575L134.044713,403.502962L134.119489,403.600207L134.194516,403.697776L141.231641,412.838957L141.232461,412.840021L141.959525,413.783317L142.352483,414.293053L146.392520,419.530037L145.937097,421.854118L145.881728,422.136618L145.710048,423.012473L146.330894,423.496744L146.546504,423.664905L146.967728,423.993404L147.089780,424.088581L151.041048,427.168183L151.102171,427.215797L151.331691,427.394584L154.670515,429.994172L154.470021,436.748981L154.470022,436.748982L159.742457,441.849775L164.388220,442.069719L165.471518,442.120721L165.471917,442.120740L165.473861,442.120831L169.052396,442.288544L171.200190,442.388640L179.763976,450.549635L179.764154,450.549804L179.764967,450.550578L182.240873,452.906491L183.752507,454.344085L183.868702,454.454564L184.146460,454.718645L184.169106,454.740175L184.414337,454.973313L187.178050,457.599662L187.439381,457.847902L188.340066,458.703334L188.340067,458.703336L188.379626,458.947825L188.884795,462.068866L189.315285,464.726902L189.407750,465.297629L190.967767,474.916239L191.079078,474.988511L192.204827,475.719321L192.209236,475.722183L197.066244,478.872791L197.110493,478.901476L197.514562,479.163403L204.649490,483.783904L204.638567,482.460968L204.636571,482.219101L204.630506,481.483827L204.606906,478.619064L204.598596,477.609001L210.167312,477.927685L211.245684,477.989069L211.245684,477.989067L210.258715,467.961883L210.201873,467.383716L210.114872,466.498633L213.618393,462.691335L216.038431,460.059338L216.095343,459.997421L219.239407,456.575333L219.835324,455.926388L218.190470,452.207660L216.005583,447.263601L215.781840,446.757021L215.781824,446.756985L217.615744,436.836693L221.779327,438.840013L223.418316,439.627982L223.418324,439.627977L231.279106,433.188166L232.219418,428.257239L233.534439,421.354669L234.344005,417.101347L234.572095,415.902466L235.362471,411.746274L235.382846,411.639095L236.178178,407.453897L236.564673,406.780858L238.315861,403.730198L242.416498,396.579265L245.115454,391.866979L245.778474,390.708678L246.126813,390.100016L246.400071,389.622494L247.241797,388.151270L248.167509,386.532741L246.622602,383.839473L243.396340,378.210013L242.609326,367.720270L242.196065,362.202238L241.985908,359.393506L241.941730,358.802856L241.915587,358.453287L241.887464,358.077217L241.830723,357.318342L244.602281,353.102750L243.636579,344.694637L242.782984,337.250256L242.484903,334.647878L242.475167,334.562855L242.064100,330.971669L237.233999,328.085979L237.867228,324.138664L238.094896,322.718853L238.094883,322.718835L236.578890,320.629487L234.479067,317.733817L232.610667,315.155631L230.984641,312.910629L232.728448,309.779354L234.242150,307.059661L234.784331,306.085153L241.379450,303.325991L242.095631,303.026047L247.231360,300.873314L247.971474,300.562816L248.548652,296.067881L248.699890,294.889548L249.311089,290.125293L249.730654,286.852738L250.278057,282.580510L250.625612,279.866504L250.844826,278.154090L250.986441,277.047605L251.383150,273.946941L251.639653,271.941309L251.639653,271.941308L251.697719,271.942766L253.673523,271.992218L255.475998,272.037022L254.580940,267.176322L253.911098,263.535577L253.253187,259.957089L251.735967,258.399089L251.235543,257.885069L242.951134,249.365168L240.581982,249.646209L239.980261,249.717505L237.933624,249.959751L236.418107,250.138880L235.739150,250.219061L233.159954,246.836380L233.010093,246.639748L231.707068,244.929675L228.712533,240.997026L226.594817,241.267495L224.977660,241.473751L221.588894,241.905166L216.548918,242.544803L209.575363,237.986769L209.437992,237.896897L207.833187,236.846760L206.678096,236.090630L206.171262,232.141140L203.508377,232.415600L197.982750,232.983023L195.264040,233.261166L191.746886,233.619980L192.791411,230.096243L193.172995,228.808423L193.849600,226.524224L194.755457,223.464663L192.964473,220.382382Z " data-nuts-id="CZ032" data-shape-area="9.36558694945e-001" data-shape-leng="4.74912783686e+000" data-stat-levl-="3"/><path d="M126.969754,147.065441L126.969754,147.065440L126.969711,147.065409L126.346830,146.623140L126.270726,146.569098L125.891184,146.299567L125.356348,145.919710L125.271761,145.859628L120.973492,142.804851L120.958012,142.793843L120.044359,142.144062L120.013833,142.122350L108.553334,133.958407L108.336336,134.063646L98.667369,138.746549L97.684795,139.221743L95.845077,140.111127L95.845073,140.111129L92.423080,144.727072L91.850383,145.499128L88.927973,145.458734L88.580224,145.453876L82.774219,145.371136L76.719715,145.281590L76.674172,145.280904L75.221000,145.258909L74.115397,145.242046L73.763326,145.236653L73.113132,145.362727L63.952616,147.134596L63.550356,147.212216L63.218022,147.678709L62.067391,149.293476L61.812139,149.651615L60.413759,151.613165L60.237610,151.860196L59.659853,152.670350L59.421113,153.005081L56.748521,156.750603L55.387802,157.707903L55.262934,157.795734L54.573419,158.280685L54.185969,158.553150L53.321310,159.161106L53.296342,159.178660L50.647521,161.040259L46.993132,163.606547L46.974454,163.619658L46.707931,163.806730L46.098387,164.234522L40.340577,174.132596L37.739296,178.598134L35.792263,181.938008L35.800557,183.105030L35.805933,183.860461L35.809898,184.416867L35.810681,184.526767L35.824472,186.458206L35.834046,187.795581L35.864782,192.070140L35.866668,192.331456L35.882682,194.546377L35.904817,197.595282L35.908674,198.125003L29.289450,196.851371L29.111086,194.839860L28.787212,191.184263L28.779845,191.101057L28.748347,190.745324L28.681300,189.987953L28.646912,189.599436L28.540768,188.399943L26.451552,184.104828L23.943695,178.943540L20.715640,176.772510L17.728472,174.761834L17.711217,174.750215L16.815560,174.147031L15.331490,165.635534L15.326824,165.608749L14.883442,163.062354L8.099172,163.359014L7.915326,163.366995L5.865472,163.455769L4.586727,163.510955L2.536118,163.599139L5.167428,168.127491L5.250007,168.269529L5.542328,168.772286L6.952046,171.196008L6.976197,171.237520L7.453500,172.057826L7.992098,172.983287L8.053607,173.088964L6.411553,174.490700L6.032197,174.814454L5.916267,174.913386L2.419703,177.895922L2.016984,178.239269L0.869341,179.217527L0.869583,179.217706L0.870043,179.218046L2.143605,180.158051L3.186012,180.927206L6.694886,183.514708L6.909736,183.673064L10.677350,186.448520L10.677351,186.448521L11.035514,187.066114L11.654697,188.133580L17.307330,197.866459L17.607623,198.382898L17.639989,198.438556L18.195626,199.393955L17.320505,203.662711L17.165819,204.417000L15.946189,210.361594L15.781831,211.162327L15.673120,211.691910L18.295700,213.661016L19.675473,214.696436L20.736210,215.492185L20.776360,215.522300L21.343278,215.947497L23.922932,217.881466L24.231198,218.112484L26.514444,219.822991L24.252284,223.959363L26.859758,224.407307L26.917845,224.417279L27.458735,224.510114L27.708151,224.552912L31.984012,225.285695L32.384323,225.354209L32.657844,225.401013L35.370039,228.607794L37.843075,231.529472L39.685832,233.705088L39.685833,233.705089L39.685865,233.705105L41.442894,234.567377L41.568989,234.629243L41.966144,234.824084L44.040171,235.841232L44.258034,235.948043L44.778566,236.203215L45.951902,236.778265L47.160275,237.370291L47.322805,237.449905L47.834807,237.700681L47.998567,237.780883L48.041803,237.802057L49.527782,238.529639L49.532623,238.532008L52.025167,239.751756L52.261866,239.867543L54.625738,241.023464L57.476864,242.416635L56.483294,247.731747L56.475917,247.771197L55.799757,251.386130L55.508886,252.940664L58.680764,254.129507L59.038317,254.263447L59.191379,254.320779L60.785308,254.917652L60.943707,254.976951L65.656910,256.740052L65.728182,257.399590L65.814430,258.197552L66.034597,260.233772L68.965147,260.810773L74.924901,261.981589L75.895003,259.843519L76.112574,259.363887L76.389703,258.752902L82.409660,258.941342L84.965840,259.020357L86.948484,259.081232L87.659425,259.102973L89.938883,259.172371L92.358877,256.833197L92.400472,256.792979L94.199540,255.053021L94.642730,254.624267L97.769654,254.191453L102.003270,253.603988L104.323283,253.281342L114.601554,256.015773L120.552796,257.594001L121.753359,257.911934L128.031329,249.414786L127.718411,248.787297L127.492927,248.335086L126.320128,245.982296L128.078196,245.103499L132.689298,242.796591L133.852418,242.214236L143.743395,237.254614L148.775290,234.726404L150.889717,234.682324L151.825274,234.662691L152.119724,234.656495L154.402178,234.608201L159.977978,237.508629L167.211492,241.264815L167.307200,240.363638L168.220373,231.760083L172.287419,228.465091L173.203195,227.722688L173.919737,227.141680L174.209727,226.906511L177.063273,224.591491L175.039835,223.564769L174.902142,223.494881L173.820765,222.945920L177.540791,217.897740L177.540786,217.897732L173.527622,211.243541L166.837176,209.806321L170.228350,207.057050L175.042166,209.355547L175.335298,205.991599L175.426330,204.946652L175.671524,202.131446L173.670429,196.983734L173.623178,196.862118L173.214467,195.810017L173.210709,195.800341L172.023784,192.743641L170.856616,189.735898L170.703573,189.341372L169.910251,187.295754L168.596843,183.907131L166.164545,177.625331L167.365974,172.582998L167.603788,171.584415L168.388415,168.288604L168.501566,167.813169L168.948456,165.935085L168.583871,164.869639L168.377459,164.266324L167.951171,163.020100L167.343406,161.242773L167.324796,161.188341L166.811350,159.686300L166.811350,159.686299L164.893589,157.582972L162.038027,158.183411L158.502084,158.925799L156.916250,159.258353L151.282622,160.437737L150.427022,159.164506L149.067775,157.141010L146.464350,153.262643L146.231046,152.914915L141.167127,151.380944L138.368362,150.531946L136.161392,149.861870L135.814729,149.756568L126.969759,147.065442L126.969754,147.065441Z " data-nuts-id="CZ041" data-shape-area="4.18608230815e-001" data-shape-leng="3.50852463193e+000" data-stat-levl-="3"/><path d="M325.174631,0.000000L322.898746,5.582407L321.935133,7.944152L321.788715,8.302914L321.779675,8.325064L321.167360,9.825117L321.114005,9.955805L320.122336,12.384198L319.846322,13.059891L318.914704,15.339867L319.108192,15.516687L319.546744,15.917427L319.586313,15.953582L326.820476,22.557129L326.857092,22.590520L328.552761,24.136505L332.006971,25.183882L332.040885,25.194160L333.542554,25.649086L333.550952,25.651630L334.438689,25.920453L334.509137,25.941782L334.930626,26.069384L336.264661,26.473123L338.911943,27.273745L338.388418,30.664228L338.365531,30.812403L338.330992,31.036010L338.267065,31.449844L337.644043,35.481355L334.681519,36.223857L334.664002,36.228244L332.042028,36.884641L332.017622,36.890748L326.556540,38.255634L323.762330,38.952812L323.324699,38.663662L320.188225,36.590375L315.429815,38.279612L315.179151,38.368527L313.999479,43.652597L313.896607,44.113146L313.731543,44.852039L311.627242,45.683922L311.532714,45.721279L308.116358,47.070689L307.556816,47.291567L301.707700,49.598263L301.471474,49.691337L299.909158,50.306730L298.044376,51.040883L296.990219,51.455715L296.490631,51.652267L294.738249,52.341469L293.932157,52.658378L292.688208,55.505493L291.623921,55.806168L288.342252,56.732533L286.212984,57.332987L285.934191,57.411571L285.253347,56.997231L285.168569,56.945633L283.259872,55.783639L283.033081,55.645533L282.608765,55.387119L281.573536,54.756533L281.268419,54.570645L280.955736,54.380132L280.199376,53.919230L279.889226,53.730207L278.656117,54.862264L278.640185,54.876888L277.119248,56.272669L275.187163,58.044955L273.582033,59.516639L272.912943,60.129917L272.471769,60.534232L269.679474,60.013324L267.372753,59.582429L266.703468,61.075470L266.613354,61.276461L266.611875,61.279761L265.166797,64.501819L264.917386,65.057721L264.917386,65.057723L265.120929,65.839249L265.401424,66.916041L265.439195,67.061023L266.446799,70.927085L266.446795,70.927087L265.448625,71.553324L264.481232,72.160099L264.348536,72.243318L264.148681,72.368649L260.425441,74.702351L254.340504,74.217708L253.862131,74.179463L245.552886,73.511801L245.376196,73.497535L241.740946,73.203381L240.990740,74.153389L239.356427,76.222233L239.354931,76.224126L238.710000,77.040253L235.376910,75.714478L235.210182,75.648125L230.691562,73.848565L226.895307,76.230346L224.629178,77.651014L223.854753,78.136322L223.394788,78.424522L221.167188,78.057703L220.186602,77.896079L220.151461,77.890286L219.866289,77.843264L218.944092,77.691152L218.871137,77.679115L217.604595,77.470063L216.672483,77.316113L216.672481,77.316114L214.770366,78.408042L214.249011,78.707236L213.262811,79.273083L213.225514,79.294480L212.169458,79.900241L212.215564,80.065318L214.077103,86.725703L214.089827,86.771195L214.215965,87.222166L214.321384,87.599033L214.021597,88.033862L214.007364,88.054505L211.031671,92.368356L210.976383,92.448467L208.804828,95.593932L208.742248,95.684546L208.656031,95.809382L207.720395,96.957542L206.470675,98.490641L204.937752,100.370400L204.315852,101.132770L203.957611,101.571866L203.792639,101.774057L203.672969,101.920719L203.645486,101.954400L203.386828,102.271380L202.790064,103.002610L202.655351,102.884093L202.060001,102.360265L201.677406,102.023588L199.031757,99.694517L194.641689,95.826097L194.612350,95.800230L191.366623,92.937207L190.543766,92.210975L189.827677,91.578842L190.077084,93.501205L190.095058,93.639714L190.112456,93.773783L190.505183,96.798955L189.832360,97.256963L189.557087,97.444326L187.015443,99.173662L185.942506,99.903353L185.734881,100.044533L185.704068,100.065485L185.443001,100.242992L184.285938,101.029574L183.805123,101.356368L182.914124,101.961846L182.059027,102.542796L181.927973,102.631823L181.942372,102.775927L182.196027,105.313548L182.222600,105.579310L182.410639,107.459385L182.321764,107.484532L181.542868,107.704883L181.463538,107.727323L180.046897,108.127918L177.818656,108.757592L177.682837,108.795956L176.801966,107.978800L174.141735,105.509792L173.379151,104.801692L173.078805,104.522764L173.072001,104.516445L172.887764,104.345335L172.571418,104.051507L171.472675,105.306442L170.594693,106.308956L170.109227,106.863174L169.356692,107.722135L168.353353,110.545768L168.343324,110.573987L168.306427,110.677795L167.880769,111.875242L167.782980,112.150302L165.037431,119.867501L164.467242,121.468867L163.635504,123.803973L163.574215,123.976005L163.192585,125.047077L162.124820,124.967182L161.842169,124.946016L160.664221,124.857724L152.912985,124.273558L150.841515,124.116508L150.777977,124.111685L143.865346,123.584702L142.083493,123.448150L141.984848,123.440582L139.556343,123.253982L139.535821,123.429335L139.523172,123.537413L139.236370,125.987590L139.203165,126.271218L138.356083,133.503249L138.226772,134.606673L138.113388,135.574067L138.099569,135.691961L138.007423,136.478050L129.404198,144.732938L129.404186,144.732950L126.969754,147.065441L126.969759,147.065442L135.814729,149.756568L136.161392,149.861870L138.368362,150.531946L141.167127,151.380944L146.231046,152.914915L146.464350,153.262643L149.067775,157.141010L150.427022,159.164506L151.282622,160.437737L156.916250,159.258353L158.502084,158.925799L162.038027,158.183411L164.893589,157.582972L166.811350,159.686299L166.811350,159.686300L167.324796,161.188341L167.343406,161.242773L167.951171,163.020100L168.377459,164.266324L168.583871,164.869639L168.948456,165.935085L168.501566,167.813169L168.388415,168.288604L167.603788,171.584415L167.365974,172.582998L166.164545,177.625331L168.596843,183.907131L169.910251,187.295754L170.703573,189.341372L170.856616,189.735898L172.023784,192.743641L173.210709,195.800341L173.214467,195.810017L173.623178,196.862118L173.670429,196.983734L175.671524,202.131446L175.426330,204.946652L175.335298,205.991599L175.042166,209.355547L170.228350,207.057050L166.837176,209.806321L173.527622,211.243541L177.540786,217.897732L177.540791,217.897740L177.540792,217.897741L180.981634,217.467999L185.363685,216.919101L185.832745,218.115980L186.291966,219.287462L186.301518,219.311826L186.611372,220.102105L187.135153,221.437702L187.605033,222.635542L187.838364,223.230246L189.623346,222.239014L192.964473,220.382382L194.411763,218.111887L195.780891,215.963014L196.624630,216.107048L198.178389,216.372109L198.347062,216.400869L198.765274,216.472167L198.964070,216.506052L201.259167,216.896981L205.014058,212.591155L205.729791,211.769892L205.583014,209.402824L205.499666,208.058038L205.364738,205.880048L205.187866,203.023164L212.216937,197.844405L214.199055,197.865954L216.322530,197.888644L220.336658,197.930415L224.542009,193.919292L225.036549,193.447300L226.540145,192.011878L228.582992,190.060740L232.033971,186.762290L234.289993,188.845773L236.374179,190.769433L238.817137,190.605857L243.758673,190.273311L246.591579,187.488918L250.486334,183.657412L252.374933,181.798043L252.568038,181.607875L253.017969,181.164745L253.090924,181.265096L256.956694,186.579174L260.541222,185.697558L262.646865,179.718260L268.117635,177.398666L272.281962,175.630530L274.284447,174.779533L275.719313,172.410536L278.371440,168.028687L281.783710,162.384943L288.395801,163.602758L296.566652,165.101807L297.759246,165.320063L299.055332,165.557102L299.265724,165.595565L301.706895,166.041535L305.237732,165.898297L309.501824,165.723800L311.460848,165.643077L315.888586,165.459341L317.675131,163.719868L319.855484,161.595825L320.859065,160.617743L323.963422,160.766017L328.085904,160.961561L331.979593,161.144831L334.421949,161.259083L334.404680,156.826593L334.388603,152.694894L334.375580,149.344556L334.350733,142.943138L341.632933,145.519404L342.468830,143.026429L343.113987,141.101498L344.713677,140.601782L346.456695,140.056976L349.949024,138.964405L348.480873,133.018448L347.280182,128.150742L348.637934,127.563732L349.915564,127.011152L351.883002,126.159828L349.527627,121.193987L349.063625,121.123694L345.232274,120.542486L344.638760,119.219397L344.293815,118.450268L343.942824,117.667535L341.373668,111.934384L339.073384,106.795592L335.853867,99.594279L334.297913,96.110204L332.236085,91.489593L331.026915,88.777799L331.026915,88.777797L331.026916,88.777794L334.331996,80.455399L335.813006,76.721699L336.752479,75.676484L336.895311,75.517552L341.635349,70.239511L342.736926,69.011879L346.228032,65.118724L347.752267,63.417732L347.405059,62.243486L345.537899,55.924254L355.199857,57.389718L359.312744,58.010848L362.620502,58.509224L363.095027,53.878055L363.478828,50.129325L364.342962,49.565464L366.986170,47.839943L371.019722,45.204505L371.196328,44.615374L371.705709,42.915771L371.743310,42.790291L371.845880,42.447977L372.320172,40.864805L372.445309,40.447018L372.631390,39.825699L373.056150,38.407159L373.280165,37.658874L373.318869,37.529577L373.915591,35.535743L373.917800,35.528357L375.748840,29.405412L370.218425,30.232033L369.215531,30.381623L364.841562,31.032925L363.065252,31.296908L363.868097,28.796306L364.549165,26.674042L364.569905,26.609399L366.653542,20.111051L368.112527,15.555909L368.112526,15.555908L365.114608,12.543317L365.111621,12.540314L365.016366,12.444553L363.512908,10.932760L363.002784,10.419666L361.268759,9.894692L358.647641,9.100539L358.620101,9.092191L354.835397,7.944176L354.810076,7.936490L353.577232,7.562196L353.848584,6.268211L353.926442,5.896874L354.106789,5.036624L354.113609,5.004089L354.299145,4.118938L354.626760,2.555589L352.516004,2.639545L352.516004,2.639546L352.739364,7.231878L350.242670,5.991132L349.599447,5.671341L348.231388,4.990996L347.080383,4.418397L345.125294,6.003873L344.923797,6.167230L344.285811,6.684402L343.917290,6.983097L343.288300,7.492842L342.497399,8.133684L336.942572,5.144756L336.170763,4.729111L332.728798,2.874451L332.489064,2.745209L327.515595,0.062123L325.174631,0.000000Z " data-nuts-id="CZ042" data-shape-area="6.75197928300e-001" data-shape-leng="5.53947285994e+000" data-stat-levl-="3"/><path d="M503.996271,62.108960L501.249418,60.820350L499.241370,59.877709L493.255575,57.064673L489.910927,55.490817L489.910911,55.490809L485.763776,60.404612L484.345176,62.084051L483.595090,62.971766L483.595085,62.971771L480.090144,62.074046L479.603133,49.428864L479.594776,49.420609L474.675679,44.558466L474.396286,44.282115L466.278627,36.243774L465.352166,32.645411L464.715060,30.169590L464.715058,30.169582L465.974357,27.489204L466.208275,26.991149L467.296601,24.673200L467.800339,23.599936L468.262760,22.614485L465.598937,16.680025L460.880333,12.806214L460.343487,12.365183L460.343484,12.365180L458.910662,12.572372L453.827445,13.305858L451.577165,13.629784L451.577142,13.629788L450.743055,7.546538L450.743054,7.546533L449.883895,7.760303L441.377428,9.872749L441.377416,9.872752L437.845745,9.083825L436.749393,8.838663L436.476157,8.777544L435.032485,8.454493L430.676658,7.478529L428.786893,7.054521L428.786877,7.054518L423.795726,9.855949L421.412245,14.664829L423.749631,16.788373L424.354266,17.337478L424.354279,17.337469L424.413232,17.292979L424.654191,17.111127L426.865592,15.441643L426.865597,15.441656L428.474577,19.991286L427.695438,22.065498L425.332645,28.350307L424.593761,30.314013L425.494879,36.015414L425.776886,37.798551L426.501030,42.374848L425.547294,42.368738L424.979112,42.365059L416.981334,42.310167L411.520777,42.269360L410.518087,42.261574L406.388829,42.228546L402.607138,42.196943L400.628385,42.179890L399.069160,46.321161L399.001279,46.501374L398.219152,48.577312L397.817648,49.642654L397.655827,50.071961L397.612697,50.186379L396.281103,53.717581L395.099204,53.320865L394.973960,53.278817L384.998775,49.924223L384.946111,49.906483L383.108278,49.287212L382.942239,49.231245L378.599798,47.766453L378.077064,47.589983L376.651380,47.108530L376.430333,47.033862L373.312177,45.979996L371.019722,45.204505L366.986170,47.839943L364.342962,49.565464L363.478828,50.129325L363.095027,53.878055L362.620502,58.509224L359.312744,58.010848L355.199857,57.389718L345.537899,55.924254L347.405059,62.243486L347.752267,63.417732L346.228032,65.118724L342.736926,69.011879L341.635349,70.239511L336.895311,75.517552L336.752479,75.676484L335.813006,76.721699L334.331996,80.455399L331.026916,88.777794L331.026915,88.777797L331.026915,88.777799L332.236085,91.489593L334.297913,96.110204L335.853867,99.594279L339.073384,106.795592L341.373668,111.934384L343.942824,117.667535L344.293815,118.450268L344.638760,119.219397L345.232274,120.542486L349.063625,121.123694L349.527627,121.193987L351.883002,126.159828L354.027682,129.152116L354.636397,127.305640L354.694805,127.128430L354.865893,126.609312L355.361718,125.104587L363.667430,124.814044L365.255791,124.757767L365.255799,124.757767L365.528601,126.114459L365.962999,128.274098L366.974611,133.300085L372.639845,131.970884L374.517736,131.529571L375.577164,131.280444L377.690833,130.783070L379.676846,130.315325L379.745558,130.272078L381.349154,129.262578L381.595972,129.107164L386.133983,126.247918L389.071847,124.395070L390.527340,123.476597L390.478073,120.708704L390.415634,117.199622L390.362142,114.192382L390.362142,114.192380L395.584809,116.157142L401.507972,118.381589L405.208773,112.824055L407.673212,109.119296L413.361869,100.555714L413.839134,99.836493L414.815586,100.508572L416.728544,101.824746L417.707190,102.497835L420.387187,104.340209L420.810691,104.268827L422.856552,103.923756L424.234561,103.691103L427.341032,103.165960L429.302161,106.531278L429.783318,107.356587L429.871092,107.507126L432.193594,111.488692L432.472662,111.966888L432.767228,111.851973L435.974164,110.600227L437.995516,112.422193L442.868136,116.810206L445.777532,119.427575L446.903091,120.439621L447.027005,120.551020L448.200098,121.605455L448.200099,121.605455L452.863564,124.310676L455.941452,126.094321L459.379896,128.085220L461.742006,125.276180L461.896057,125.092912L464.959328,121.446911L465.456640,120.854678L465.456642,120.854676L468.648452,121.408588L468.918837,121.455467L470.968111,122.644185L472.803359,123.708215L473.701115,124.228526L476.865919,126.061777L483.280654,129.772963L485.508531,131.060432L485.508532,131.060433L486.981789,130.636814L489.285205,129.974030L491.195238,129.424010L491.130226,127.531213L491.042912,124.988797L491.014379,124.157926L490.911132,121.151104L490.902940,120.912492L493.792148,119.853431L494.851317,119.464941L496.680747,118.793625L500.885294,120.525013L502.052678,121.005350L506.233224,122.724146L511.889630,121.856808L512.869933,121.706181L519.001188,120.762015L519.001189,120.762015L514.445060,114.127371L513.807551,113.198267L513.449493,112.676351L509.893647,107.490045L513.828227,100.606443L514.281480,99.812791L513.389895,98.895429L512.178064,97.648208L509.710698,95.107526L508.905908,94.278457L509.163066,87.259298L509.292420,83.722419L509.319442,82.983040L509.717889,72.059765L508.431531,69.824341L503.996271,62.108960Z " data-nuts-id="CZ051" data-shape-area="4.06104133508e-001" data-shape-leng="3.71640302736e+000" data-stat-levl-="3"/><path d="M587.531071,87.514075L584.717000,91.089105L580.881470,95.956648L578.628204,98.813423L575.861845,102.317920L575.861837,102.317930L570.186311,98.735469L571.293990,97.133602L573.350951,94.157312L572.743938,91.927664L571.904209,88.841883L570.237887,82.714012L570.237782,82.713627L570.237684,82.713265L570.220810,82.714293L565.005301,83.030759L559.203678,83.379863L559.099600,83.386098L551.995492,83.809315L551.995469,83.809316L548.998151,76.769927L547.050813,72.191601L545.372161,68.241878L544.832262,66.970933L544.832260,66.970928L543.320933,67.337618L527.968218,71.049420L527.968198,71.049425L525.766978,68.261618L525.118345,67.439792L525.118344,67.439791L518.144853,65.684837L503.996271,62.108960L508.431531,69.824341L509.717889,72.059765L509.319442,82.983040L509.292420,83.722419L509.163066,87.259298L508.905908,94.278457L509.710698,95.107526L512.178064,97.648208L513.389895,98.895429L514.281480,99.812791L513.828227,100.606443L509.893647,107.490045L513.449493,112.676351L513.807551,113.198267L514.445060,114.127371L519.001189,120.762015L519.001188,120.762015L512.869933,121.706181L511.889630,121.856808L506.233224,122.724146L502.052678,121.005350L500.885294,120.525013L496.680747,118.793625L494.851317,119.464941L493.792148,119.853431L490.902940,120.912492L490.911132,121.151104L491.014379,124.157926L491.042912,124.988797L491.130226,127.531213L491.195238,129.424010L489.285205,129.974030L486.981789,130.636814L485.508532,131.060433L485.508531,131.060432L483.280654,129.772963L476.865919,126.061777L473.701115,124.228526L472.803359,123.708215L470.968111,122.644185L468.918837,121.455467L468.648452,121.408588L465.456642,120.854676L465.456640,120.854678L464.959328,121.446911L461.896057,125.092912L461.742006,125.276180L459.379896,128.085220L455.941452,126.094321L452.863564,124.310676L448.200099,121.605455L448.200098,121.605455L447.079305,122.491602L444.651260,124.410425L443.412635,125.388808L443.412634,125.388810L444.306457,127.625497L445.741212,131.213819L445.904003,131.620808L446.280661,132.562353L447.164239,134.770409L448.456005,137.996866L449.591609,140.831655L450.670702,143.523970L446.896981,148.842818L444.539022,152.162879L443.751837,153.270681L442.275328,155.347792L443.847504,158.191971L445.654450,161.458829L448.134291,161.686048L450.643869,161.915415L451.519057,161.995268L452.736575,163.047069L454.556217,164.618420L455.943731,165.816110L458.076213,167.656009L459.081675,168.523167L458.704310,169.681026L457.880724,172.207063L457.488972,173.408160L458.450798,173.988190L460.908385,175.469585L467.498657,174.464783L472.763476,173.659099L475.874116,173.181832L477.132757,172.988456L478.448151,172.786199L481.596819,175.235662L483.244361,183.471572L483.501135,184.754157L484.653888,190.508859L485.713010,195.791366L485.713009,195.791368L485.712977,195.791422L484.954562,197.091197L484.528188,197.821755L481.895793,202.329543L480.936437,203.971255L478.673364,207.841617L479.570455,208.124867L480.689562,208.478093L490.811423,211.666711L491.691631,211.943472L493.278226,212.442128L492.951665,213.253436L492.177707,215.175705L492.070366,215.442245L491.990882,215.639606L491.959552,215.717394L491.885915,215.900224L494.032163,219.168259L497.393810,217.533105L498.270891,217.106229L501.771929,215.401237L503.090169,214.758829L504.309650,214.164341L504.112262,209.973009L504.301340,209.875858L505.190218,209.419073L506.821929,208.580264L508.963831,207.478616L511.218455,206.318296L513.209297,206.933301L518.421453,208.541402L519.957545,209.014773L522.232316,209.715314L526.527185,211.036448L528.700535,211.704232L528.700541,211.704233L531.192005,210.844697L534.332434,209.760270L535.660644,205.320092L536.216361,203.461109L538.782509,201.768963L540.536303,200.611838L541.418410,200.029637L542.032874,200.277023L545.577806,201.703349L545.604103,203.188087L545.622353,204.218691L545.644507,205.470037L545.689595,208.017648L549.294912,209.146227L550.135032,209.409009L551.159835,209.729456L555.287628,207.598206L557.856658,206.270557L557.861669,202.755993L566.472235,203.242468L573.221697,203.619057L573.221700,203.619058L573.916604,206.178767L575.990091,213.810272L583.896779,213.626145L583.897210,213.626134L585.645420,218.233041L586.257472,219.845056L593.290627,222.622511L596.395162,223.846661L596.645427,223.945294L598.872674,224.822754L607.760203,228.318318L610.133779,228.126804L611.000404,228.056750L614.755104,227.752436L618.069934,227.482691L620.660648,223.703624L621.837267,221.986168L624.508724,218.084157L626.307389,215.454925L632.072901,212.418964L632.927257,211.968677L635.178273,210.781779L639.080562,208.722482L641.256084,207.573473L642.312574,207.015239L644.256086,205.987893L644.584476,200.542370L644.584476,200.542368L651.013779,202.385665L659.643268,204.852935L658.442284,201.042459L655.596566,192.004391L653.104858,184.080016L652.757307,182.973906L637.542944,164.950622L636.448188,163.650817L633.784198,163.526655L633.592309,163.517687L633.206209,163.499631L633.204142,163.499535L633.202162,163.499442L633.174469,163.498146L629.957650,163.347176L627.113315,154.707197L626.058256,151.499227L626.057983,151.498396L624.119945,151.351618L618.703731,150.939591L618.007496,150.886430L616.621866,152.338482L614.554255,154.504124L614.508317,154.552224L614.392879,154.322813L613.919721,153.382405L613.314704,152.179684L612.332535,150.226640L611.497417,148.565445L610.123076,145.830516L606.253103,145.124402L606.207769,145.116122L606.170420,145.109300L603.892471,144.692972L601.624772,139.952116L601.624772,139.952114L605.046071,135.687034L605.608740,134.985156L605.990220,134.509223L606.804048,133.493704L609.313275,130.360969L610.619460,128.729230L616.740696,126.555405L620.346057,125.273021L622.539315,124.492172L625.244560,123.528281L631.106343,116.802794L637.076975,105.249519L633.656798,99.123143L630.973325,96.735289L627.300737,93.464630L626.460830,92.716212L625.498888,91.858853L618.657863,85.755502L611.309062,85.344277L605.871026,85.036801L604.183498,91.730189L604.161592,91.817011L604.034233,92.321753L603.676448,93.739392L603.676373,93.739409L598.181957,94.941769L596.700646,91.108923L588.187656,87.771812L587.531089,87.514082L587.531071,87.514075Z " data-nuts-id="CZ052" data-shape-area="6.01167239792e-001" data-shape-leng="5.02385952468e+000" data-stat-levl-="3"/><path d="M700.752182,190.910717L698.539297,188.796448L696.719837,190.183097L693.436250,192.683882L691.412365,197.958178L690.365229,200.684586L689.466097,203.024309L689.436926,203.100198L688.581621,204.013115L681.535770,211.524842L678.341736,214.924953L674.958417,213.942600L670.119660,212.535561L667.659425,211.819213L666.154596,210.512547L661.803093,206.731275L659.643268,204.852935L651.013779,202.385665L644.584476,200.542368L644.584476,200.542370L644.256086,205.987893L642.312574,207.015239L641.256084,207.573473L639.080562,208.722482L635.178273,210.781779L632.927257,211.968677L632.072901,212.418964L626.307389,215.454925L624.508724,218.084157L621.837267,221.986168L620.660648,223.703624L618.069934,227.482691L614.755104,227.752436L611.000404,228.056750L610.133779,228.126804L607.760203,228.318318L598.872674,224.822754L596.645427,223.945294L596.395162,223.846661L593.290627,222.622511L586.257472,219.845056L585.645420,218.233041L583.897210,213.626134L583.896779,213.626145L575.990091,213.810272L573.916604,206.178767L573.221700,203.619058L573.221697,203.619057L566.472235,203.242468L557.861669,202.755993L557.856658,206.270557L555.287628,207.598206L551.159835,209.729456L550.135032,209.409009L549.294912,209.146227L545.689595,208.017648L545.644507,205.470037L545.622353,204.218691L545.604103,203.188087L545.577806,201.703349L542.032874,200.277023L541.418410,200.029637L540.536303,200.611838L538.782509,201.768963L536.216361,203.461109L535.660644,205.320092L534.332434,209.760270L531.192005,210.844697L528.700541,211.704233L528.700535,211.704232L526.527185,211.036448L522.232316,209.715314L519.957545,209.014773L518.421453,208.541402L513.209297,206.933301L511.218455,206.318296L508.963831,207.478616L506.821929,208.580264L505.190218,209.419073L504.301340,209.875858L504.112262,209.973009L504.309650,214.164341L503.090169,214.758829L501.771929,215.401237L498.270891,217.106229L497.393810,217.533105L494.032163,219.168259L491.885915,215.900224L491.228063,216.294823L489.296535,217.453013L486.215927,219.299000L487.202519,222.797134L488.298463,226.680520L485.883249,227.002051L484.190388,227.227089L483.627937,227.301798L483.029459,228.357387L482.963002,228.474589L481.070897,231.810173L481.070896,231.810174L487.430442,236.419168L490.859174,238.901011L491.106626,239.080043L493.701052,240.956434L496.708468,243.129972L504.010769,248.400650L506.351108,250.087806L505.707170,253.068370L505.075900,255.988501L504.926998,256.677032L504.232710,259.886149L503.287521,264.251530L502.543798,267.683642L501.427481,272.830589L501.427482,272.830590L503.300060,274.351612L505.661024,276.268298L507.220051,277.533321L512.443240,281.767858L515.335175,284.109985L519.180366,283.959332L520.166126,283.920493L522.397425,283.832251L524.708405,283.740380L525.567068,283.706119L526.727024,283.659731L530.300327,285.385842L533.178430,286.774907L541.983922,291.017943L543.423212,292.134747L544.467458,292.944767L548.584502,296.136270L549.449659,296.806512L549.620384,296.938756L550.245309,297.422777L554.287360,300.551612L554.661126,303.012323L554.709324,303.329583L555.046847,305.550868L555.170808,306.366493L555.204170,306.585991L557.865631,308.174808L560.641683,309.830876L564.028211,311.849530L564.028215,311.849533L565.836453,311.505391L570.626537,310.592199L571.914772,305.647201L572.142074,304.774139L572.310834,304.125830L577.791987,299.838217L579.437872,304.571194L584.010057,305.220173L584.082975,305.230507L587.436297,305.705201L587.962947,305.779657L588.222224,306.182673L588.903021,307.240733L590.329814,309.457437L591.933089,311.947125L598.874999,313.650268L601.414492,314.272091L601.661343,314.332500L610.102047,316.394393L612.996931,317.099891L612.996932,317.099893L615.815897,320.903105L617.175674,322.736525L618.072420,323.945228L618.477304,324.490859L619.524148,325.901307L620.270427,326.010143L621.230912,326.150141L625.259261,326.736350L625.648000,326.792838L628.617522,327.223873L630.661643,329.480496L630.955318,329.804598L632.941718,331.996140L635.326572,334.625740L635.326581,334.625750L637.483135,336.402853L638.852612,334.285081L638.937165,334.154292L639.095661,333.909118L639.517221,333.256945L643.830963,332.890555L650.368521,332.331997L652.556354,332.144187L657.343421,331.731704L657.538149,330.783354L657.801848,329.498772L658.420085,326.485599L659.270685,322.336495L661.550984,322.478781L662.178207,322.517834L667.824264,322.867756L671.211281,323.076267L675.495968,323.338532L683.074387,323.798280L683.655362,324.007033L696.366529,328.564791L696.352403,328.089042L696.266000,325.180172L696.166084,321.818331L696.107866,319.860459L696.058188,318.190360L695.971421,315.274586L699.407273,312.412274L699.413376,312.407187L701.014822,311.072159L701.138361,309.100086L701.160396,308.748186L701.450814,304.106113L701.460153,303.956711L701.556584,302.413556L701.688546,300.300419L697.433004,294.038305L694.278505,289.391213L693.576352,288.356226L688.223348,280.458566L687.530138,279.434889L685.523244,276.470059L684.683939,275.229600L686.043363,271.139242L687.241505,267.531058L688.051007,265.091604L687.899817,263.540354L687.080467,255.130616L683.531464,246.151919L681.289748,240.473597L679.958488,237.098926L686.098381,237.183488L688.208159,235.150699L693.892765,229.667516L693.892765,229.667515L693.855049,228.932558L693.791615,227.696462L693.634549,224.636055L693.616985,224.293850L693.512820,222.264411L693.340947,218.916124L693.004374,212.360418L692.949109,211.284104L695.867447,210.215442L695.867448,210.215438L698.754821,198.814873L698.839533,198.479937L700.752182,190.910717Z " data-nuts-id="CZ053" data-shape-area="5.68552280768e-001" data-shape-leng="4.36959317546e+000" data-stat-levl-="3"/><path d="M635.326581,334.625750L635.326572,334.625740L632.941718,331.996140L630.955318,329.804598L630.661643,329.480496L628.617522,327.223873L625.648000,326.792838L625.259261,326.736350L621.230912,326.150141L620.270427,326.010143L619.524148,325.901307L618.477304,324.490859L618.072420,323.945228L617.175674,322.736525L615.815897,320.903105L612.996932,317.099893L612.996931,317.099891L610.102047,316.394393L601.661343,314.332500L601.414492,314.272091L598.874999,313.650268L591.933089,311.947125L590.329814,309.457437L588.903021,307.240733L588.222224,306.182673L587.962947,305.779657L587.436297,305.705201L584.082975,305.230507L584.010057,305.220173L579.437872,304.571194L577.791987,299.838217L572.310834,304.125830L572.142074,304.774139L571.914772,305.647201L570.626537,310.592199L565.836453,311.505391L564.028215,311.849533L564.028211,311.849530L560.641683,309.830876L557.865631,308.174808L555.204170,306.585991L555.170808,306.366493L555.046847,305.550868L554.709324,303.329583L554.661126,303.012323L554.287360,300.551612L550.245309,297.422777L549.620384,296.938756L549.449659,296.806512L548.584502,296.136270L544.467458,292.944767L543.423212,292.134747L541.983922,291.017943L533.178430,286.774907L530.300327,285.385842L526.727024,283.659731L525.567068,283.706119L524.708405,283.740380L522.397425,283.832251L520.166126,283.920493L519.180366,283.959332L515.335175,284.109985L512.443240,281.767858L507.220051,277.533321L505.661024,276.268298L503.300060,274.351612L501.427482,272.830590L501.427481,272.830589L501.087080,273.051779L499.823159,273.872891L495.429403,276.725213L495.302036,276.807847L489.889656,280.316832L492.839252,285.744425L492.977645,285.998938L490.817669,288.778670L484.388576,290.863840L481.281380,291.869972L478.343696,292.820235L477.990204,292.934516L476.874723,293.295052L472.942360,294.564940L470.517775,295.347069L470.244965,295.435032L466.996295,296.481883L465.968568,296.812816L461.024133,298.403320L460.573653,299.290378L454.526713,311.181545L455.817944,317.868750L457.453587,317.955139L458.383469,318.004143L462.002115,318.194090L463.073866,318.250117L465.320100,323.155184L464.751896,324.529610L463.280817,328.086197L462.576069,329.789127L462.576068,329.789127L461.180006,330.398737L455.875193,332.712916L453.389229,333.796177L452.638484,334.123162L450.800687,333.994132L450.615288,333.981098L446.862817,333.716611L444.103526,333.521302L441.542716,333.339416L429.648317,332.486696L426.560300,332.263188L425.610153,332.194240L423.736980,334.504360L424.122046,334.847696L427.342670,337.717945L422.338160,338.026579L419.500255,338.200575L419.348766,339.082408L418.615295,343.349874L418.292218,345.228458L418.292216,345.228462L417.780999,346.086850L414.591488,351.438775L414.036061,352.370136L414.036060,352.370138L415.046241,354.099707L417.310812,357.974709L417.719020,358.672882L418.614914,360.204803L417.708885,363.623784L416.532452,368.059761L416.333699,368.808820L415.783721,370.881007L413.137870,380.838300L412.433017,383.487672L412.398995,383.615518L412.010520,385.075086L415.090018,386.693296L415.613168,386.968068L417.529959,387.974489L415.245586,393.078837L414.457782,394.837931L417.689950,398.510305L419.963340,401.091323L421.821486,403.199685L422.504252,403.974114L425.711224,407.609651L429.258379,405.507480L432.228346,403.745871L432.860439,403.370774L433.313847,403.101674L433.862109,403.833968L434.162157,404.234679L434.361911,404.501428L435.434929,405.934050L436.405244,407.229150L436.405245,407.229151L440.985221,408.280718L444.397826,409.062885L446.831470,414.089476L449.826099,420.268030L453.938460,421.409029L454.758354,420.601867L454.965794,420.397620L455.755247,419.620212L457.487453,417.913847L459.484852,418.558050L461.713001,419.276158L466.038308,420.668608L467.335585,421.085843L468.761171,421.544133L471.457263,421.425587L472.055693,421.399184L473.988692,421.313676L477.141886,421.173458L480.757933,421.011536L480.331748,425.180678L479.607363,432.258188L481.170683,433.890637L482.171103,434.934936L486.019637,438.949647L486.019638,438.949647L486.021641,438.950264L486.023291,438.950772L488.471134,439.704572L493.552309,441.267230L498.816296,442.883177L499.494396,442.783482L502.213586,442.383266L503.817197,442.146912L505.119501,441.954788L514.274447,440.599628L514.276529,440.599319L514.931454,442.261333L516.349147,445.857337L516.889435,447.227177L517.202790,448.021497L518.239167,450.647796L518.505544,451.322624L519.001014,452.577611L517.019538,454.869154L515.605568,456.503571L513.841941,458.541208L508.380905,464.844030L507.930546,465.363359L507.161130,466.250449L506.875354,466.579879L505.159800,468.556924L506.343481,471.385374L507.825339,474.924264L508.191625,475.798655L509.829078,476.224895L512.940013,477.033932L516.726932,478.017420L517.765067,482.282123L517.765068,482.282124L521.440769,479.433311L522.301393,480.163555L522.663755,480.470972L523.602917,481.267600L525.573633,482.938606L525.913781,483.226940L527.053843,484.193153L527.493802,482.802484L527.688779,482.186054L528.969339,478.135548L528.999456,478.040245L529.336802,477.999306L535.663796,477.229515L538.622600,480.924439L539.427805,481.929429L543.448888,474.085544L547.724690,471.347504L548.418707,470.902798L551.132646,469.163008L553.446132,467.678960L554.359114,467.093056L555.562646,466.320480L556.816817,465.515139L562.597580,461.799729L563.646194,462.002375L564.979277,462.259841L567.039383,462.657380L569.644942,460.032719L571.356236,458.307840L571.463244,458.199955L573.652114,455.992442L575.809932,458.798896L576.909226,460.227961L578.603528,462.429638L583.056286,461.819238L588.542348,461.064602L591.410896,460.668881L592.215311,460.557770L597.550580,459.819275L601.551226,457.476899L601.378830,456.861261L600.245155,452.811325L605.237915,451.991949L608.328902,451.483472L609.128440,451.351796L611.788859,449.108905L616.279143,445.319720L615.581158,441.987509L614.495968,436.803596L614.458930,436.626599L613.084140,430.053564L614.689170,429.107409L615.614395,428.561812L617.961697,427.177028L618.051206,427.124205L618.287484,426.984763L620.208553,425.850695L620.027404,423.332708L619.930463,421.985047L619.028956,421.668419L618.595649,421.516200L618.155225,421.361459L617.497543,421.130345L613.972450,419.890774L614.025672,418.808836L614.194534,415.373393L614.194535,415.373375L615.535269,413.265370L617.142665,410.736749L617.355465,410.401879L620.088192,406.099268L619.188281,399.555611L618.572376,395.074131L614.079008,393.444411L612.554245,390.578573L611.210934,388.052494L610.553165,386.815126L611.890339,383.585397L611.919822,383.514159L612.658398,381.729255L612.941421,381.045097L613.003383,380.895302L614.743333,376.686916L615.190698,375.604264L615.965259,373.729177L616.461986,372.526282L616.768664,371.783461L617.507417,369.993601L618.744408,369.624854L619.173902,369.496783L620.098288,369.221073L621.419970,368.826703L627.848231,366.905920L621.988695,365.728381L621.191897,365.567995L621.965232,364.525762L624.453188,361.170920L625.147828,361.046119L630.001298,360.172818L630.574517,363.027220L630.873005,364.513123L634.076788,364.087486L634.490339,362.807656L635.389421,360.024008L635.641802,359.242308L635.885720,358.486694L637.619272,353.112873L638.481933,350.436374L639.551892,347.114537L639.139006,345.895287L639.074193,345.703873L638.817225,344.944902L637.684334,341.597717L635.326581,334.625750Z " data-nuts-id="CZ063" data-shape-area="8.41457316339e-001" data-shape-leng="4.93019522008e+000" data-stat-levl-="3"/><path d="M696.366529,328.564791L683.655362,324.007033L683.074387,323.798280L675.495968,323.338532L671.211281,323.076267L667.824264,322.867756L662.178207,322.517834L661.550984,322.478781L659.270685,322.336495L658.420085,326.485599L657.801848,329.498772L657.538149,330.783354L657.343421,331.731704L652.556354,332.144187L650.368521,332.331997L643.830963,332.890555L639.517221,333.256945L639.095661,333.909118L638.937165,334.154292L638.852612,334.285081L637.483135,336.402853L635.326581,334.625750L637.684334,341.597717L638.817225,344.944902L639.074193,345.703873L639.139006,345.895287L639.551892,347.114537L638.481933,350.436374L637.619272,353.112873L635.885720,358.486694L635.641802,359.242308L635.389421,360.024008L634.490339,362.807656L634.076788,364.087486L630.873005,364.513123L630.574517,363.027220L630.001298,360.172818L625.147828,361.046119L624.453188,361.170920L621.965232,364.525762L621.191897,365.567995L621.988695,365.728381L627.848231,366.905920L621.419970,368.826703L620.098288,369.221073L619.173902,369.496783L618.744408,369.624854L617.507417,369.993601L616.768664,371.783461L616.461986,372.526282L615.965259,373.729177L615.190698,375.604264L614.743333,376.686916L613.003383,380.895302L612.941421,381.045097L612.658398,381.729255L611.919822,383.514159L611.890339,383.585397L610.553165,386.815126L611.210934,388.052494L612.554245,390.578573L614.079008,393.444411L618.572376,395.074131L619.188281,399.555611L620.088192,406.099268L617.355465,410.401879L617.142665,410.736749L615.535269,413.265370L614.194535,415.373375L614.194534,415.373393L614.025672,418.808836L613.972450,419.890774L617.497543,421.130345L618.155225,421.361459L618.595649,421.516200L619.028956,421.668419L619.930463,421.985047L620.027404,423.332708L620.208553,425.850695L618.287484,426.984763L618.051206,427.124205L617.961697,427.177028L615.614395,428.561812L614.689170,429.107409L613.084140,430.053564L614.458930,436.626599L614.495968,436.803596L615.581158,441.987509L616.279143,445.319720L611.788859,449.108905L609.128440,451.351796L608.328902,451.483472L605.237915,451.991949L600.245155,452.811325L601.378830,456.861261L601.551226,457.476899L597.550580,459.819275L592.215311,460.557770L591.410896,460.668881L588.542348,461.064602L583.056286,461.819238L578.603528,462.429638L576.909226,460.227961L575.809932,458.798896L573.652114,455.992442L571.463244,458.199955L571.356236,458.307840L569.644942,460.032719L567.039383,462.657380L564.979277,462.259841L563.646194,462.002375L562.597580,461.799729L556.816817,465.515139L555.562646,466.320480L554.359114,467.093056L553.446132,467.678960L551.132646,469.163008L548.418707,470.902798L547.724690,471.347504L543.448888,474.085544L539.427805,481.929429L538.622600,480.924439L535.663796,477.229515L529.336802,477.999306L528.999456,478.040245L528.969339,478.135548L527.688779,482.186054L527.493802,482.802484L527.053843,484.193153L525.913781,483.226940L525.573633,482.938606L523.602917,481.267600L522.663755,480.470972L522.301393,480.163555L521.440769,479.433311L517.765068,482.282124L517.066929,483.247157L513.583692,488.058758L511.213187,491.330179L514.328582,492.520714L518.271827,494.025984L529.470387,498.290967L536.784747,501.068762L543.296622,503.536559L546.298104,499.442703L547.124558,498.314769L549.023196,498.502306L549.285681,498.528206L554.299730,499.021732L556.598716,500.323459L561.101757,502.870913L562.408560,503.609639L564.175464,504.608059L566.005315,505.641567L567.735460,506.618310L569.848129,507.810409L571.703544,508.856812L574.482608,510.423186L573.841600,512.008069L573.100455,513.839880L574.855353,515.285008L575.850454,516.104172L580.028663,519.541424L588.265127,523.261425L590.736001,524.375722L596.435251,526.942989L596.435256,526.942991L601.334445,527.271601L601.993311,527.315625L603.410767,527.410202L603.527135,527.417958L614.656488,528.153984L622.340643,528.655505L629.250734,529.101859L631.638696,529.255086L635.074695,529.474639L638.121018,529.668383L643.062277,524.598300L645.589112,522.002847L646.480391,521.086922L646.929947,519.978070L650.631504,510.837868L656.518421,512.552942L664.358748,514.831419L670.306810,516.555646L676.317430,515.787378L678.005794,515.570958L683.391446,521.574017L683.837554,522.070880L687.600326,526.259412L695.053209,530.220360L696.028303,530.738016L698.197902,531.889334L702.044048,531.504835L704.205219,531.288175L713.059906,530.395915L715.562337,530.142421L717.197367,529.976477L717.352042,531.000378L718.554031,538.953397L719.700938,546.535711L720.452615,551.501822L723.904164,552.739428L727.573751,544.086140L729.942276,538.492063L730.857845,536.327771L731.893639,533.878026L733.728007,529.536305L733.878721,529.179397L736.490481,522.989945L736.889360,522.043913L737.609046,520.336511L738.579491,518.033174L740.333228,516.779224L741.039326,516.274189L741.338905,516.059888L744.646687,513.692565L745.142879,511.948568L745.535083,510.569570L745.913012,509.240356L746.039073,508.796896L747.126401,504.970010L747.646033,503.139966L747.646034,503.139965L747.646035,503.139964L748.726203,502.191410L756.717622,495.165028L760.059917,492.221801L773.439105,496.568546L777.854599,499.711270L785.844326,505.389264L791.046224,505.238637L794.231765,502.428943L795.939173,500.921974L799.650352,497.644031L805.163949,501.101488L806.881079,502.177291L808.163177,502.980239L809.069148,503.547473L810.859759,504.668208L814.847217,502.296166L816.350364,501.401323L817.956706,500.444648L821.094336,498.574811L822.963314,497.460266L824.511288,496.536726L828.299484,494.275026L825.036734,488.664444L823.743421,486.438889L821.025153,481.758296L813.151432,475.250183L808.772319,471.625122L805.968244,471.306481L804.246591,471.110477L800.248794,470.654269L795.521892,473.650709L784.807611,468.228202L782.805025,467.212980L783.141363,466.011067L784.365319,461.634375L779.345437,459.805386L777.967626,459.302880L771.776432,457.042204L770.079881,456.421956L768.387094,455.802758L767.332492,455.416834L764.171968,454.259504L763.616688,451.991714L763.515137,451.576900L762.248273,446.400143L761.248171,442.310955L754.829292,445.433625L751.116547,447.237243L749.249772,446.967382L745.810131,446.469283L745.863937,445.457507L746.127592,440.493624L746.127602,440.493624L746.595566,440.473667L748.050913,440.411472L749.682042,440.341533L750.375883,440.311709L750.556572,438.956260L751.278712,433.534069L754.435800,432.806010L756.625027,432.300554L758.543266,426.284141L758.479717,425.640273L758.411546,424.949547L758.090038,421.691607L757.506526,421.869146L750.651746,423.951994L753.167611,420.347216L751.548057,418.367719L750.952737,417.639870L749.764080,416.186243L748.614706,414.780209L749.688697,410.027837L751.746632,400.906434L750.412418,396.466106L749.281765,392.700993L748.572801,390.339066L748.509775,390.129056L748.211812,389.136113L745.444653,387.929103L741.463155,386.190751L736.469059,384.007522L735.734653,383.686208L733.399380,382.664045L732.504987,382.272385L734.910027,376.790042L735.886443,374.562344L734.139192,370.856318L732.724753,373.651157L731.623914,375.825112L727.407731,368.621847L725.605204,365.539269L722.438688,360.119713L720.165147,356.225068L717.759198,352.100471L712.374566,350.983044L712.374564,350.983046L707.005222,355.636593L708.995772,358.784712L709.642889,359.807728L711.178960,362.235251L713.683736,366.191175L714.180798,366.975846L714.180803,366.975854L712.462589,369.379379L710.817703,371.679011L708.742095,374.578974L706.518353,377.683635L706.185124,378.148668L706.185122,378.148667L702.523323,375.597528L699.308207,373.355673L698.010112,372.450022L697.020461,371.759369L697.204442,367.493461L697.676499,367.284973L701.243944,365.708455L701.243943,365.708454L698.306317,362.984584L696.868788,361.650918L696.488337,361.297873L695.468323,357.206897L694.176616,352.022839L696.633600,346.084824L697.229029,344.644613L701.126334,343.671115L697.759502,343.248297L696.588291,343.100962L693.967547,342.770816L691.498008,342.459128L686.804848,341.865212L687.996350,336.794627L688.023489,336.679064L688.945734,332.750156L696.366529,328.564791Z " data-nuts-id="CZ064" data-shape-area="8.86124728311e-001" data-shape-leng="6.65934686787e+000" data-stat-levl-="3"/><path d="M783.150123,175.012280L781.685824,169.879894L776.970712,168.776289L774.833913,170.569779L773.207279,171.934365L771.524735,173.345214L771.251593,168.653142L771.011877,164.536233L770.891368,162.466936L770.726659,159.639043L770.663733,158.558775L766.178082,160.047668L762.185599,161.370960L759.378310,160.002864L755.923578,158.317824L754.418115,156.683504L753.751928,155.960090L748.624506,150.387964L749.020724,146.113656L747.227762,146.448710L740.290884,147.742047L737.995629,145.233390L735.302981,142.288452L731.752023,142.219085L726.991188,142.124282L725.178397,141.139008L718.735354,137.633374L716.549939,139.163067L715.335917,140.012444L715.335917,140.012445L711.323288,137.223967L709.468160,135.933849L705.385003,133.092182L705.385001,133.092180L701.531497,134.833544L699.297985,141.452005L698.844094,142.795781L700.095066,143.489632L702.574516,144.864193L703.499921,145.376994L706.292366,146.923645L706.292370,146.923659L707.674239,151.442142L709.201560,156.432628L709.578428,157.663456L710.625117,161.080671L710.943399,162.119444L711.440663,162.343975L714.542776,163.743984L715.608995,164.224898L717.839098,165.230314L719.408990,165.937707L720.290661,166.334852L722.490208,174.598707L724.676077,182.801567L720.179989,186.014411L716.762152,185.491224L713.689777,185.019974L709.375463,184.356717L708.468481,184.217059L703.786392,188.280319L700.752182,190.910717L698.839533,198.479937L698.754821,198.814873L695.867448,210.215438L695.867447,210.215442L692.949109,211.284104L693.004374,212.360418L693.340947,218.916124L693.512820,222.264411L693.616985,224.293850L693.634549,224.636055L693.791615,227.696462L693.855049,228.932558L693.892765,229.667515L693.892765,229.667516L688.208159,235.150699L686.098381,237.183488L679.958488,237.098926L681.289748,240.473597L683.531464,246.151919L687.080467,255.130616L687.899817,263.540354L688.051007,265.091604L687.241505,267.531058L686.043363,271.139242L684.683939,275.229600L685.523244,276.470059L687.530138,279.434889L688.223348,280.458566L693.576352,288.356226L694.278505,289.391213L697.433004,294.038305L701.688546,300.300419L701.556584,302.413556L701.460153,303.956711L701.450814,304.106113L701.160396,308.748186L701.138361,309.100086L701.014822,311.072159L699.413376,312.407187L699.407273,312.412274L695.971421,315.274586L696.058188,318.190360L696.107866,319.860459L696.166084,321.818331L696.266000,325.180172L696.352403,328.089042L696.366529,328.564791L688.945734,332.750156L688.023489,336.679064L687.996350,336.794627L686.804848,341.865212L691.498008,342.459128L693.967547,342.770816L696.588291,343.100962L697.759502,343.248297L701.126334,343.671115L697.229029,344.644613L696.633600,346.084824L694.176616,352.022839L695.468323,357.206897L696.488337,361.297873L696.868788,361.650918L698.306317,362.984584L701.243943,365.708454L701.243944,365.708455L697.676499,367.284973L697.204442,367.493461L697.020461,371.759369L698.010112,372.450022L699.308207,373.355673L702.523323,375.597528L706.185122,378.148667L706.185124,378.148668L706.518353,377.683635L708.742095,374.578974L710.817703,371.679011L712.462589,369.379379L714.180803,366.975854L714.180798,366.975846L713.683736,366.191175L711.178960,362.235251L709.642889,359.807728L708.995772,358.784712L707.005222,355.636593L712.374564,350.983046L712.374566,350.983044L717.759198,352.100471L720.165147,356.225068L722.438688,360.119713L725.605204,365.539269L727.407731,368.621847L731.623914,375.825112L732.724753,373.651157L734.139192,370.856318L735.886443,374.562344L734.910027,376.790042L732.504987,382.272385L733.399380,382.664045L735.734653,383.686208L736.469059,384.007522L741.463155,386.190751L745.444653,387.929103L748.211812,389.136113L748.509775,390.129056L748.572801,390.339066L749.281765,392.700993L750.412418,396.466106L751.746632,400.906434L754.314396,402.548664L754.618674,401.613357L755.236992,399.712122L755.572072,398.681454L755.972812,397.448508L756.327677,396.356414L756.521256,395.760563L761.448970,395.258838L761.497105,395.253926L762.077280,395.194702L762.208672,395.181286L763.920715,395.006317L765.261809,394.869067L765.365984,394.858398L766.295577,394.763154L770.908470,394.289328L771.087964,394.270851L771.087966,394.270850L773.876150,390.380077L774.108249,390.056026L776.803517,386.291064L777.752983,384.963943L777.288188,379.223246L777.192743,378.044336L777.085094,376.714663L776.832811,373.598370L781.832599,368.161310L783.515152,371.006754L785.125286,373.728310L788.849625,374.673681L790.579044,375.112188L791.033468,375.227360L791.367485,375.312001L794.267298,376.046351L795.362575,376.323496L797.565201,380.373691L797.832722,380.865410L797.832723,380.865408L801.878051,376.055638L802.572163,375.229749L803.708383,373.877429L808.039882,368.717695L811.841202,368.882826L815.331502,369.033278L818.184956,369.155448L820.947616,369.273019L822.914799,366.742985L823.106708,366.496079L823.536644,365.942876L821.597736,362.738147L820.341505,360.660759L819.664096,359.540213L819.051296,358.526341L820.316277,358.045151L826.488986,355.694348L827.978582,355.126371L829.273547,354.632390L829.745697,355.085098L831.545385,356.810189L833.732806,358.905895L835.743356,360.831135L840.304737,359.692087L842.572833,359.124904L842.737460,358.218134L843.419323,354.460085L844.236076,349.953616L844.554119,348.197321L846.604416,346.010056L847.494541,345.060050L848.633838,343.843742L851.160558,341.144749L851.782578,340.480007L853.590159,340.884478L853.689992,340.906807L854.432138,341.072771L857.093108,341.667384L859.684772,342.245831L860.591736,339.585860L861.828097,335.957109L861.828097,335.957107L856.553473,329.350870L855.587550,330.290849L855.425615,330.448409L852.294973,333.493029L851.771402,331.127416L851.512807,329.958792L850.725227,326.398671L850.578822,325.736716L850.500483,325.382493L849.512920,320.915864L845.096211,316.336199L837.572592,308.523122L833.878367,304.681278L833.473307,306.795739L833.231179,308.059110L833.231173,308.059141L833.231172,308.059141L829.875668,306.852477L826.865263,305.768831L826.864806,305.768666L826.965213,304.189932L827.124743,301.679469L827.573764,294.599187L823.964354,285.149139L811.144393,289.682913L811.059902,289.712730L801.436116,280.752449L797.065380,270.524450L793.469665,262.097325L788.351429,263.726576L784.656503,272.780861L783.702626,275.115231L781.123706,281.420197L778.548015,278.828916L776.365781,276.632140L776.365782,276.632138L777.706549,273.201465L778.118512,272.146813L779.510646,268.580966L775.815374,265.031253L767.138405,269.818947L766.924803,269.936664L763.458480,271.846009L762.549470,272.346418L758.797240,274.410707L755.883039,276.012501L756.008554,271.002544L756.121148,266.493396L754.396614,267.754101L751.375229,269.961458L750.850247,270.344817L748.779990,267.070519L746.274849,263.105612L746.274848,263.105611L749.395795,254.815824L751.991500,247.909183L752.650789,246.153207L750.262146,243.759520L748.955784,242.449780L745.262916,238.744982L747.436140,235.032750L750.692160,229.464834L751.768372,227.622861L754.004642,223.792849L754.547759,222.862140L756.110930,220.182282L757.156667,213.328989L759.108805,200.501520L759.108805,200.501517L759.108806,200.501516L761.245809,197.672333L763.384344,194.839091L766.062997,191.287398L767.965978,190.959123L768.161038,190.925455L768.885063,190.800450L771.855661,190.287037L773.846418,186.335006L775.399191,183.249923L775.750689,182.551251L775.983969,182.629087L782.617963,184.840071L782.702603,183.279813L782.867999,180.227771L782.884333,179.926144L782.905572,179.533881L783.005742,177.682888L783.150123,175.012280Z " data-nuts-id="CZ071" data-shape-area="6.60560831315e-001" data-shape-leng="5.82632963918e+000" data-stat-levl-="3"/><path d="M935.538213,364.725367L929.960415,363.044271L928.471045,356.403099L928.168741,355.054556L926.116630,353.627153L925.814876,353.417200L922.351453,351.006319L920.385228,349.636728L917.837500,343.852217L914.056673,344.222478L908.582645,344.756179L904.786070,345.124682L901.152419,341.531355L900.136787,340.526413L898.596979,339.002323L892.986652,338.494245L888.247873,339.718279L886.158742,340.257156L879.015749,342.096188L876.976881,342.620133L874.220639,343.327737L873.324555,341.603336L873.124384,341.218064L871.080006,337.281754L870.204951,335.596085L869.327816,335.634191L869.192720,335.640053L861.828097,335.957107L861.828097,335.957109L860.591736,339.585860L859.684772,342.245831L857.093108,341.667384L854.432138,341.072771L853.689992,340.906807L853.590159,340.884478L851.782578,340.480007L851.160558,341.144749L848.633838,343.843742L847.494541,345.060050L846.604416,346.010056L844.554119,348.197321L844.236076,349.953616L843.419323,354.460085L842.737460,358.218134L842.572833,359.124904L840.304737,359.692087L835.743356,360.831135L833.732806,358.905895L831.545385,356.810189L829.745697,355.085098L829.273547,354.632390L827.978582,355.126371L826.488986,355.694348L820.316277,358.045151L819.051296,358.526341L819.664096,359.540213L820.341505,360.660759L821.597736,362.738147L823.536644,365.942876L823.106708,366.496079L822.914799,366.742985L820.947616,369.273019L818.184956,369.155448L815.331502,369.033278L811.841202,368.882826L808.039882,368.717695L803.708383,373.877429L802.572163,375.229749L801.878051,376.055638L797.832723,380.865408L797.832722,380.865410L797.565201,380.373691L795.362575,376.323496L794.267298,376.046351L791.367485,375.312001L791.033468,375.227360L790.579044,375.112188L788.849625,374.673681L785.125286,373.728310L783.515152,371.006754L781.832599,368.161310L776.832811,373.598370L777.085094,376.714663L777.192743,378.044336L777.288188,379.223246L777.752983,384.963943L776.803517,386.291064L774.108249,390.056026L773.876150,390.380077L771.087966,394.270850L771.087964,394.270851L770.908470,394.289328L766.295577,394.763154L765.365984,394.858398L765.261809,394.869067L763.920715,395.006317L762.208672,395.181286L762.077280,395.194702L761.497105,395.253926L761.448970,395.258838L756.521256,395.760563L756.327677,396.356414L755.972812,397.448508L755.572072,398.681454L755.236992,399.712122L754.618674,401.613357L754.314396,402.548664L751.746632,400.906434L749.688697,410.027837L748.614706,414.780209L749.764080,416.186243L750.952737,417.639870L751.548057,418.367719L753.167611,420.347216L750.651746,423.951994L757.506526,421.869146L758.090038,421.691607L758.411546,424.949547L758.479717,425.640273L758.543266,426.284141L756.625027,432.300554L754.435800,432.806010L751.278712,433.534069L750.556572,438.956260L750.375883,440.311709L749.682042,440.341533L748.050913,440.411472L746.595566,440.473667L746.127602,440.493624L746.127592,440.493624L745.863937,445.457507L745.810131,446.469283L749.249772,446.967382L751.116547,447.237243L754.829292,445.433625L761.248171,442.310955L762.248273,446.400143L763.515137,451.576900L763.616688,451.991714L764.171968,454.259504L767.332492,455.416834L768.387094,455.802758L770.079881,456.421956L771.776432,457.042204L777.967626,459.302880L779.345437,459.805386L784.365319,461.634375L783.141363,466.011067L782.805025,467.212980L784.807611,468.228202L795.521892,473.650709L800.248794,470.654269L804.246591,471.110477L805.968244,471.306481L808.772319,471.625122L813.151432,475.250183L821.025153,481.758296L823.743421,486.438889L825.036734,488.664444L828.299484,494.275026L832.413162,493.442759L836.738722,492.565803L836.738723,492.565801L837.143946,492.010301L837.279191,491.824884L838.700061,489.876386L839.270863,489.093355L839.943215,488.170820L842.249146,485.005241L843.542315,483.228886L847.325493,478.027620L847.905550,477.229536L852.331235,476.839330L852.979052,476.782059L856.958184,476.429419L857.431755,476.387352L858.735490,476.271432L863.305880,475.863806L865.925344,466.926826L866.278302,465.721146L869.824776,453.587189L881.579633,453.504014L883.197271,453.491574L889.948584,449.321284L889.948585,449.321283L891.985924,445.147386L893.411539,442.224285L894.783901,439.408468L896.154548,436.594305L896.154557,436.594285L895.234539,431.373149L894.425064,426.777418L895.803986,422.704661L897.471505,417.774195L897.757404,416.928271L899.932626,410.486550L899.483629,405.540849L899.058311,400.856146L900.916110,397.504201L904.230437,391.517617L910.147354,389.320145L914.038637,387.872702L924.498663,383.972953L924.498664,383.972952L924.498665,383.972952L927.481574,382.523158L932.669391,379.998778L932.669392,379.998777L937.661484,371.303999L937.661483,371.303998L935.538213,364.725367Z " data-nuts-id="CZ072" data-shape-area="4.89252870169e-001" data-shape-leng="3.70154954838e+000" data-stat-levl-="3"/><path d="M829.715250,162.711517L825.591449,160.130248L820.007706,156.630896L820.364547,160.305715L820.586601,162.592294L816.105372,166.330330L810.450809,171.040537L808.504160,170.905328L802.657950,170.497172L802.119465,170.459419L800.829560,170.368877L797.153737,170.110021L793.752409,169.869390L790.010051,171.686471L788.452613,172.442110L787.491813,172.908105L783.150123,175.012280L783.005742,177.682888L782.905572,179.533881L782.884333,179.926144L782.867999,180.227771L782.702603,183.279813L782.617963,184.840071L775.983969,182.629087L775.750689,182.551251L775.399191,183.249923L773.846418,186.335006L771.855661,190.287037L768.885063,190.800450L768.161038,190.925455L767.965978,190.959123L766.062997,191.287398L763.384344,194.839091L761.245809,197.672333L759.108806,200.501516L759.108805,200.501517L759.108805,200.501520L757.156667,213.328989L756.110930,220.182282L754.547759,222.862140L754.004642,223.792849L751.768372,227.622861L750.692160,229.464834L747.436140,235.032750L745.262916,238.744982L748.955784,242.449780L750.262146,243.759520L752.650789,246.153207L751.991500,247.909183L749.395795,254.815824L746.274848,263.105611L746.274849,263.105612L748.779990,267.070519L750.850247,270.344817L751.375229,269.961458L754.396614,267.754101L756.121148,266.493396L756.008554,271.002544L755.883039,276.012501L758.797240,274.410707L762.549470,272.346418L763.458480,271.846009L766.924803,269.936664L767.138405,269.818947L775.815374,265.031253L779.510646,268.580966L778.118512,272.146813L777.706549,273.201465L776.365782,276.632138L776.365781,276.632140L778.548015,278.828916L781.123706,281.420197L783.702626,275.115231L784.656503,272.780861L788.351429,263.726576L793.469665,262.097325L797.065380,270.524450L801.436116,280.752449L811.059902,289.712730L811.144393,289.682913L823.964354,285.149139L827.573764,294.599187L827.124743,301.679469L826.965213,304.189932L826.864806,305.768666L826.865263,305.768831L829.875668,306.852477L833.231172,308.059141L833.231173,308.059141L833.231179,308.059110L833.473307,306.795739L833.878367,304.681278L837.572592,308.523122L845.096211,316.336199L849.512920,320.915864L850.500483,325.382493L850.578822,325.736716L850.725227,326.398671L851.512807,329.958792L851.771402,331.127416L852.294973,333.493029L855.425615,330.448409L855.587550,330.290849L856.553473,329.350870L861.828097,335.957107L869.192720,335.640053L869.327816,335.634191L870.204951,335.596085L871.080006,337.281754L873.124384,341.218064L873.324555,341.603336L874.220639,343.327737L876.976881,342.620133L879.015749,342.096188L886.158742,340.257156L888.247873,339.718279L892.986652,338.494245L898.596979,339.002323L900.136787,340.526413L901.152419,341.531355L904.786070,345.124682L908.582645,344.756179L914.056673,344.222478L917.837500,343.852217L920.385228,349.636728L922.351453,351.006319L925.814876,353.417200L926.116630,353.627153L928.168741,355.054556L928.471045,356.403099L929.960415,363.044271L935.538213,364.725367L940.317327,365.373216L942.576518,363.792815L946.122602,361.310236L949.629162,356.358685L952.828706,351.835222L956.052961,347.271554L955.774839,343.941597L955.602044,341.872987L955.431302,339.829148L959.201132,337.758474L960.316627,338.130109L963.687776,339.252401L966.624199,340.228952L966.624200,340.228952L969.805248,338.959144L974.331588,337.150171L975.634968,337.547999L978.240211,338.342650L980.319827,338.976453L982.433299,339.620102L986.348679,340.811255L991.919163,337.485968L997.827477,333.953493L999.130659,333.173578L998.733268,331.342913L998.331365,329.491156L996.131279,319.348918L995.288940,315.463371L994.841170,313.397344L993.327175,306.408907L991.833711,299.510960L991.251209,296.819376L982.293120,297.874955L980.837551,297.375990L978.315758,296.510970L978.065726,295.648159L977.127564,292.409960L976.944942,291.779468L975.547915,291.915459L971.697909,292.289279L970.864879,292.369980L968.185781,290.741522L965.415838,289.056704L964.330351,288.396140L964.330349,288.396139L964.565607,282.686814L964.565607,282.686796L961.936970,277.862742L959.578000,273.530224L959.314818,273.046664L958.236355,271.064722L957.113228,268.999994L954.905350,264.938982L957.450085,260.563336L957.475811,260.519077L957.854037,259.868310L959.027739,257.848202L959.682890,256.720157L956.255892,252.816221L954.632749,250.965986L954.646534,248.869773L954.666571,245.798194L949.194136,242.582012L948.942627,245.924515L948.740213,248.611030L942.263424,247.734012L940.480387,247.164117L937.850685,246.322982L937.374573,246.170613L925.302095,242.298892L920.733723,240.829669L918.962882,243.841072L917.358563,246.567376L917.358553,246.567393L912.478953,243.866949L912.154160,242.752114L911.582906,240.790932L911.074691,239.045764L910.112783,235.741610L906.103770,235.303307L902.987454,234.961567L899.523510,228.702894L893.854552,228.790502L893.661533,229.156193L893.548981,229.369417L891.911741,232.469854L886.416456,230.160720L885.796103,229.395598L882.803603,225.702968L882.697891,225.572469L881.205469,223.729722L876.371035,217.755417L873.619604,214.351794L869.421938,220.971051L869.425635,220.971052L872.204766,220.970805L875.109890,220.969791L874.552883,227.379950L873.466732,226.941525L869.688896,225.415516L869.688893,225.415517L864.256784,227.950446L862.408179,228.812207L862.408175,228.812208L862.408174,228.812210L861.387369,230.294876L858.110108,235.051211L858.110106,235.051212L855.738878,235.589747L850.221210,236.840661L843.943139,231.975674L838.393180,227.668677L836.892643,226.503192L835.422576,225.360958L833.921292,221.733126L833.765701,221.357023L832.192894,217.553905L830.044981,212.356468L828.745604,209.210215L823.517133,204.883811L822.513437,206.075451L820.752813,208.164840L818.281953,207.179978L816.812137,206.593782L813.310106,202.874094L810.734931,200.136722L810.531044,199.817194L810.456161,199.699833L808.316188,196.344829L808.216746,196.188874L807.995216,195.841430L807.895539,195.685090L809.504339,193.111148L813.712224,191.382539L815.580117,190.614499L821.932809,187.999145L824.794230,186.819478L828.938923,185.108948L831.672579,183.979585L832.321145,177.109303L830.948275,176.110060L826.269644,172.702190L826.269642,172.702188L829.037815,164.677651L829.715250,162.711517Z " data-nuts-id="CZ080" data-shape-area="6.70789697943e-001" data-shape-leng="5.42003752750e+000" data-stat-levl-="3"/></g></svg>