<?xml version="1.0" encoding="utf-8"?><!DOCTYPE svg  PUBLIC '-//W3C//DTD SVG 1.1//EN'  'http://www.w3.org/Graphics/SVG/1.1/DTD/svg11.dtd'><svg enable_background="new 0 0 1000 798" height="798px" pretty_print="False" style="stroke-linejoin: round; stroke:#000; fill: none;" version="1.1" viewBox="0 0 1000 798" width="1000px" xmlns="http://www.w3.org/2000/svg" xmlns:xlink="http://www.w3.org/1999/xlink"><defs><style type="text/css"><![CDATA[path { fill-rule: evenodd; }]]></style></defs><metadata><views><view h="798.567003345" padding="0" w="1000"><proj dist="1.6" id="satellite" lat0="55.6436715855" lon0="12.5749413103" tilt="0" up="0"/><bbox h="116.34" w="145.86" x="907.79" y="923.0"/></view></views></metadata><g class="" id="nutsregions"><path d="M642.319433,527.029340L642.178661,526.652890L641.934598,526.000151L639.894743,520.540956L642.303045,519.177166L637.959814,513.761355L636.073502,511.406732L635.580368,510.790920L634.031077,508.855539L633.181217,507.793460L630.916805,505.146878L628.400103,505.941326L626.306636,506.601577L623.902091,507.359272L621.805210,508.019438L620.906398,508.302248L618.535776,509.047684L614.944604,510.175601L615.480366,511.536559L615.785453,512.311363L616.757349,514.778723L616.766574,514.802137L617.180221,515.851848L618.615518,519.492298L619.713842,522.276068L620.678764,524.720302L621.755161,527.445345L622.443451,529.186978L625.950393,528.653563L625.558624,530.100677L624.911466,532.490172L624.497404,534.018376L624.434846,534.249219L623.118318,539.104689L627.802940,544.792830L630.460743,548.016025L634.386878,549.350045L636.515889,547.811145L643.333417,542.876870L647.059068,540.176252L646.687161,535.772743L646.194968,529.939058L644.720330,529.861603L643.351951,529.789528L643.351950,529.789526L642.319433,527.029340Z M662.815003,535.468216L662.675891,535.073954L661.043517,530.445067L661.039776,530.434455L661.037822,530.395321L660.666318,522.947917L660.666317,522.947896L659.153106,519.970397L656.547878,521.657988L655.828216,522.123939L655.717946,522.195325L655.388537,524.089922L654.743984,527.794855L656.036249,532.277686L658.434038,536.369322L659.617565,536.528495L662.815003,535.468216Z " data-nuts-id="DK011" data-shape-area="2.57276268903e-002" data-shape-leng="8.88438682030e-001" data-stat-levl-="3"/><path d="M633.181217,507.793460L633.511022,506.493734L635.433969,498.908431L635.774823,497.562616L634.649260,492.960044L633.049998,486.412730L628.147497,487.078268L627.799078,487.125471L626.113367,487.353660L619.761521,488.210771L618.630079,488.362996L609.872667,489.536615L609.855228,492.412712L609.841725,494.639284L609.816678,498.768430L609.809078,500.021091L609.809078,500.021095L608.397170,499.897418L607.786689,499.843877L606.670619,499.745896L603.488872,499.465852L600.753714,499.224271L590.039904,498.270464L589.297033,499.649348L588.424254,501.268797L589.398072,501.406790L592.979704,501.913449L595.532746,502.273766L597.900710,502.607340L597.900711,502.607343L597.997607,503.040017L598.394342,504.811166L599.573479,510.071197L595.957441,513.776101L595.027009,514.728728L591.968584,513.388006L590.405814,512.702421L589.022963,512.095476L586.597372,511.030205L586.597371,511.030205L586.596830,511.030560L578.838402,516.106914L576.765476,517.461299L572.481866,520.257492L572.938253,525.721412L573.254451,529.502945L573.693562,534.748982L580.681978,536.842710L580.902258,535.965640L581.139146,535.022274L581.312441,534.332039L581.501085,533.580558L583.642241,533.622057L584.847189,533.645204L586.816289,533.682709L591.430883,533.769043L602.298651,539.543666L613.590574,535.857825L613.860422,535.769549L617.702340,537.133546L620.120805,537.991201L621.128482,534.173506L621.155515,534.071049L621.785652,531.682090L622.443451,529.186978L621.755161,527.445345L620.678764,524.720302L619.713842,522.276068L618.615518,519.492298L617.180221,515.851848L616.766574,514.802137L616.757349,514.778723L615.785453,512.311363L615.480366,511.536559L614.944604,510.175601L618.535776,509.047684L620.906398,508.302248L621.805210,508.019438L623.902091,507.359272L626.306636,506.601577L628.400103,505.941326L630.916805,505.146878L633.181217,507.793460Z " data-nuts-id="DK012" data-shape-area="5.00793071670e-002" data-shape-leng="1.43893801434e+000" data-stat-levl-="3"/><path d="M630.747871,439.440963L633.145958,436.185897L633.927319,435.124708L634.110860,434.875393L635.206859,433.386288L637.753744,429.923650L631.222863,422.972071L627.445028,418.944300L627.444823,418.944081L627.444179,418.943394L627.444165,418.943380L627.444163,418.943379L623.792278,417.652327L617.531063,415.434798L602.093682,409.945735L599.401018,408.985151L592.094834,406.374004L589.010515,407.335545L587.982181,407.655870L586.741456,408.042181L584.074652,408.871874L579.489948,410.296219L574.345708,414.084804L565.781018,420.379879L559.112621,425.270327L543.137939,436.947333L542.193128,437.636267L530.078662,446.453156L530.078661,446.453157L530.078663,446.453159L533.240088,452.605461L533.491958,452.520197L544.830971,448.673358L550.188178,446.850232L551.515197,446.398069L553.993640,448.027730L554.560483,448.400282L556.181097,453.552898L558.487315,460.875051L560.862268,468.402854L559.654959,473.616272L558.930343,476.742706L558.738883,477.568449L559.512907,479.766905L560.633037,482.946475L561.979820,486.766393L562.571033,488.442229L562.662904,488.702587L564.136257,492.875909L564.136261,492.875913L567.220083,495.550288L569.738447,497.732456L573.516612,501.003169L574.273982,501.084653L578.466987,501.534682L579.906250,503.217466L581.461009,505.034386L585.243955,509.451310L586.597372,511.030205L589.022963,512.095476L590.405814,512.702421L591.968584,513.388006L595.027009,514.728728L595.957441,513.776101L599.573479,510.071197L598.394342,504.811166L597.997607,503.040017L597.900711,502.607343L597.900710,502.607340L595.532746,502.273766L592.979704,501.913449L589.398072,501.406790L588.424254,501.268797L589.297033,499.649348L590.039904,498.270464L600.753714,499.224271L603.488872,499.465852L606.670619,499.745896L607.786689,499.843877L608.397170,499.897418L609.809078,500.021095L609.809078,500.021091L609.816678,498.768430L609.841725,494.639284L609.855228,492.412712L609.872667,489.536615L618.630079,488.362996L619.761521,488.210771L626.113367,487.353660L627.799078,487.125471L628.147497,487.078268L633.049998,486.412730L632.229500,483.835363L628.739297,472.855760L628.528306,472.191178L628.528094,472.190509L628.528092,472.190503L625.799438,463.587113L624.711465,460.152265L624.019201,457.965375L630.747871,439.440963Z M561.000381,496.399924L560.457657,494.161672L555.883234,475.251884L551.431344,472.260048L555.533967,463.057902L551.627374,459.734658L546.955921,455.755670L546.955919,455.755670L539.861038,454.263764L538.232588,458.501375L541.692681,465.693241L543.852276,470.175798L546.153928,474.947986L542.891118,482.576942L542.559913,483.350645L540.558140,483.611570L537.298505,484.035542L534.598763,484.385837L532.648161,488.797879L532.648160,488.797891L531.772451,500.246729L531.507806,503.702492L532.274283,503.589350L534.121575,503.316406L535.756294,503.546828L539.813783,504.117517L544.061912,504.713135L548.862186,505.383850L549.479726,504.188724L549.653914,503.851558L550.215355,502.764633L551.126062,504.280786L551.693457,505.225103L552.408007,506.414017L553.416956,508.092176L559.842779,504.763553L561.000381,496.399924Z " data-nuts-id="DK013" data-shape-area="2.09132624815e-001" data-shape-leng="3.08287986015e+000" data-stat-levl-="3"/><path d="M980.252723,682.203615L985.318981,683.107250L989.510367,683.852728L994.749196,677.035977L999.373093,659.798211L998.686170,647.579674L995.031539,645.434217L993.638106,644.615604L977.096088,634.872287L967.980714,629.483363L967.491522,629.193755L966.445158,628.574158L963.358863,626.745540L958.827916,624.058015L956.045973,622.406165L954.897469,621.723824L950.861844,619.324411L949.859789,617.849494L949.086345,616.710719L943.159192,607.973803L940.718493,613.742405L936.781556,623.030132L934.980682,627.271558L934.606453,632.897780L934.166745,639.494090L933.003891,656.864955L932.813029,659.705950L936.419718,662.411647L939.077778,664.403930L945.589233,669.278121L965.609157,676.762283L966.951707,677.262313L968.106814,677.692343L968.149945,677.708397L980.252723,682.203615Z " data-nuts-id="DK014" data-shape-area="8.42485634027e-002" data-shape-leng="1.23418125158e+000" data-stat-levl-="3"/><path d="M586.597372,511.030205L585.243955,509.451310L581.461009,505.034386L579.906250,503.217466L578.466987,501.534682L574.273982,501.084653L573.516612,501.003169L569.738447,497.732456L567.220083,495.550288L564.136261,492.875913L564.136257,492.875909L565.096744,498.181284L565.564877,500.764811L566.421482,505.488407L566.685676,506.944261L566.749664,507.296799L567.369542,510.710562L566.549104,513.100012L564.049733,520.371791L562.305682,525.439416L559.959632,521.339154L558.868451,519.430668L558.230574,518.314606L555.826867,514.106227L550.808785,512.197978L546.239399,518.653651L544.351095,521.318394L543.745063,522.173236L542.971146,523.264623L541.505331,525.330905L545.568147,514.325557L547.361289,509.460150L548.661066,505.930278L548.862186,505.383850L544.061912,504.713135L539.813783,504.117517L535.756294,503.546828L534.121575,503.316406L533.684454,504.365432L530.613846,511.727773L528.632231,516.472876L525.904005,518.608591L521.826087,521.797731L520.359403,522.943834L520.359402,522.943835L521.468197,525.943330L522.105069,527.665252L523.386992,531.129150L524.347477,533.722685L524.446501,533.989984L525.726271,537.443057L529.195436,546.789848L529.633938,547.969860L529.634478,547.970273L530.462636,548.604159L531.402643,549.323471L532.550772,550.201773L533.951777,551.273121L538.964056,555.102410L538.964057,555.102413L543.256460,572.296214L542.931801,573.930434L542.118604,578.021517L541.850346,579.370377L544.613151,584.862399L545.700508,587.021941L553.883858,588.496385L557.012059,589.058080L557.736771,589.966406L559.310081,591.937555L559.503161,592.179386L560.828143,593.838483L562.119185,595.454361L566.243396,595.023100L569.308396,594.701444L570.251605,594.602262L574.830244,594.119474L577.383725,593.459347L577.692440,590.698292L578.042722,587.563739L578.186611,586.275579L578.812052,585.992322L583.474963,583.878754L582.330038,582.275292L581.321626,580.862466L581.321625,580.862464L581.321624,580.862463L578.993877,568.344530L578.540066,565.900094L578.462350,565.481352L580.202812,561.685766L582.413469,556.860157L583.147019,555.981977L592.794996,544.412034L602.298651,539.543666L591.430883,533.769043L586.816289,533.682709L584.847189,533.645204L583.642241,533.622057L581.501085,533.580558L581.312441,534.332039L581.139146,535.022274L580.902258,535.965640L580.681978,536.842710L573.693562,534.748982L573.254451,529.502945L572.938253,525.721412L572.481866,520.257492L576.765476,517.461299L578.838402,516.106914L586.596830,511.030560L586.597371,511.030205L586.597372,511.030205Z " data-nuts-id="DK021" data-shape-area="1.15299948170e-001" data-shape-leng="2.15419367998e+000" data-stat-levl-="3"/><path d="M477.628232,447.884734L473.182612,446.908165L466.300569,445.391982L466.058541,445.338563L466.058540,445.338562L459.010139,441.536512L456.005279,439.913146L454.519385,439.109849L451.634437,434.278853L454.577101,443.522528L465.211929,448.814322L469.228429,449.230318L474.569354,449.780860L476.954856,450.025788L485.287638,455.453398L485.526540,460.943608L485.760555,466.312100L485.760554,466.312101L484.819728,468.512915L482.615015,473.666221L482.615014,473.666222L478.543655,474.696287L477.180239,475.040806L473.354992,476.006252L464.078589,478.340472L464.645036,488.348038L464.883587,492.553352L456.841377,498.219476L454.721065,499.711157L448.691353,503.948220L446.930134,503.846701L439.007811,503.386081L438.924826,503.195958L436.548958,497.749048L431.467631,499.165734L431.055510,499.280500L425.943840,500.702311L421.799113,501.852896L417.745054,502.976346L415.021014,501.985854L413.930047,501.588894L413.647598,501.486097L412.649776,501.122856L403.953708,497.951684L399.433021,498.616277L393.143370,499.537287L398.758115,503.241050L399.900915,503.381335L403.142129,503.778458L410.646958,504.693697L411.750677,506.118331L417.258932,513.219746L417.881260,514.021192L417.881261,514.021194L417.881263,514.021195L423.470851,516.816627L424.178370,517.170122L424.840960,517.501098L424.443096,518.315627L423.324131,520.605671L418.131608,520.073188L412.361460,519.478150L401.586960,518.357683L408.090800,521.421090L419.368311,526.718009L426.415861,530.018551L431.749386,539.471284L432.120374,548.530444L432.243118,551.521035L428.310343,551.792318L424.448710,552.057134L422.996016,552.156354L421.590453,556.974795L426.042704,557.812057L427.329905,555.412542L434.405430,561.587776L434.606687,561.763232L434.606687,561.763234L435.171778,564.644598L435.954588,568.632769L437.902612,578.540671L438.980794,584.014265L439.738718,587.857690L437.741940,589.190371L435.381054,590.765080L433.131212,592.264731L430.948362,593.718806L430.948360,593.718807L430.531502,593.668765L425.505651,593.063986L422.399283,598.788559L428.176828,602.195591L428.865573,602.601356L429.233426,602.818038L431.500992,599.139402L432.706584,597.182312L438.570379,600.068783L434.606367,604.477816L428.962450,602.877950L434.816694,607.917101L437.800282,610.481881L440.628358,612.910863L440.677218,612.952810L442.238048,614.292478L442.238049,614.292479L442.653347,623.411143L442.681028,623.430951L446.569087,626.211635L449.315132,620.325176L451.266409,616.137913L448.312099,625.519093L447.743938,627.321288L444.238061,625.770739L443.567128,625.473804L442.762945,625.117811L442.083838,624.817114L441.894855,624.733425L441.894857,624.733435L442.731181,630.614036L443.185559,633.805368L453.271705,636.813441L454.285475,637.115107L456.705104,637.834609L458.660981,638.415693L455.649527,637.133718L452.734372,635.891528L452.982395,635.795777L453.775148,635.489675L455.596430,634.786115L458.526198,633.653426L461.329075,636.541726L461.491909,636.709444L462.465797,637.712364L463.469974,638.746155L470.052250,639.769566L471.036740,639.435969L473.512030,638.596676L475.177225,638.031628L468.155022,634.367289L468.465896,633.728127L469.490990,631.619895L470.891931,631.832595L471.715438,631.957527L473.370833,632.208443L475.954697,634.650221L478.416259,636.974631L498.967584,642.469397L499.613662,642.641336L503.898811,636.652048L509.681115,634.624020L512.283103,639.091803L513.239217,640.732284L513.870250,641.814638L513.870253,641.814644L509.589732,647.088438L516.333990,648.308831L517.841352,648.580913L519.956277,648.962245L523.423485,649.586345L524.152431,654.191414L522.597426,654.243211L517.648736,654.406401L511.968479,654.590617L511.319533,654.611453L510.426417,658.533097L514.028026,664.281303L516.096023,667.578126L518.543915,668.019591L518.457173,667.479326L518.084232,665.155725L526.286691,674.968875L517.743081,672.420866L503.077994,668.026683L503.551383,668.265750L504.463511,668.726287L514.487383,673.778910L524.260554,678.690238L525.523949,679.784937L529.164623,682.937191L535.267867,688.214026L538.248541,686.743392L546.310255,692.264247L550.287210,694.983018L557.427809,696.360687L560.783473,693.654487L564.738478,690.461580L567.313129,688.381085L574.087378,688.765021L571.482215,680.801359L570.290583,677.154038L570.289004,677.149201L569.662698,675.231044L567.787228,669.482279L566.764698,666.344910L566.765087,666.345057L566.765787,666.345322L567.477126,666.614961L570.236198,667.660180L571.962544,668.313662L576.352477,659.819929L568.809367,654.430644L567.853906,654.556347L566.342612,654.754980L562.916369,655.204404L559.120089,655.700916L557.527466,655.908759L555.134202,656.220585L551.898994,650.486612L554.425405,646.006982L563.854276,643.501289L563.423997,645.070664L561.320163,652.736896L564.261280,653.699888L565.804191,643.251800L567.698949,640.812380L570.796672,636.820830L572.843101,634.181623L575.434014,633.057799L579.405184,631.333448L579.773680,631.173328L589.195550,627.072824L590.776612,627.284058L594.238389,627.745635L596.226714,628.010174L599.643606,628.463801L600.704276,628.604363L606.480937,623.612933L610.277618,620.327725L614.671058,616.521570L614.741599,613.853175L614.974424,605.036808L613.959294,603.529707L607.215334,593.502839L602.364905,588.488327L599.618215,588.211211L598.175146,588.065302L595.494405,587.793674L593.627775,587.604092L586.437742,583.668224L581.321625,580.862464L581.321626,580.862466L582.330038,582.275292L583.474963,583.878754L578.812052,585.992322L578.186611,586.275579L578.042722,587.563739L577.692440,590.698292L577.383725,593.459347L574.830244,594.119474L570.251605,594.602262L569.308396,594.701444L566.243396,595.023100L562.119185,595.454361L560.828143,593.838483L559.503161,592.179386L559.310081,591.937555L557.736771,589.966406L557.012059,589.058080L553.883858,588.496385L545.700508,587.021941L544.613151,584.862399L541.850346,579.370377L542.118604,578.021517L542.931801,573.930434L543.256460,572.296214L538.964057,555.102413L538.964056,555.102410L533.951777,551.273121L532.550772,550.201773L531.402643,549.323471L530.462636,548.604159L529.634478,547.970273L529.633938,547.969860L529.195436,546.789848L525.726271,537.443057L524.446501,533.989984L524.347477,533.722685L523.386992,531.129150L522.105069,527.665252L521.468197,525.943330L520.359402,522.943835L520.359403,522.943834L521.004496,521.786961L523.506479,517.297140L524.370653,515.745296L523.235297,513.379336L522.218575,511.259475L519.858496,506.334602L519.412074,505.402388L518.869012,504.268092L517.794749,504.576051L515.363907,505.272392L505.423651,508.112546L504.402873,508.403538L503.793697,506.995551L502.844691,504.801188L508.386844,503.695667L514.189614,502.534511L514.570230,502.458218L517.420137,501.886453L519.314098,501.505978L518.678842,499.479204L515.811951,490.320739L514.192659,488.493297L512.558211,489.208686L511.028456,489.877908L507.962056,491.218370L507.828899,491.276548L507.406298,491.461174L501.316854,494.118720L500.132046,494.635183L497.062246,492.453989L498.512213,490.625794L502.547506,485.533229L504.087660,483.587736L508.924091,485.159469L509.780786,485.437572L511.741461,486.073707L514.656411,481.625284L511.114880,472.354997L510.833438,472.108682L505.882825,467.772536L505.764205,462.265237L505.759529,462.047878L505.700396,459.297565L511.493190,461.685544L514.731934,463.018637L516.394553,462.032227L517.257633,461.519983L517.257634,461.519982L517.404905,459.222603L517.828554,452.609577L519.259633,452.074851L523.039323,450.661268L522.034142,447.185381L521.029739,443.709424L521.029737,443.709425L514.187898,448.113664L510.132459,450.720104L510.132458,450.720104L506.280524,451.588172L500.663282,452.851056L495.757574,447.791488L495.123534,447.136985L492.804412,447.724391L487.506356,449.063987L485.419275,449.590806L477.628232,447.884734Z M484.911094,728.862550L483.292260,728.704430L482.506984,728.627629L476.890155,728.076428L473.278559,725.702329L473.376059,724.570831L473.433921,723.899253L473.558965,722.447695L473.677157,721.075406L471.139364,719.716271L471.039683,719.662865L465.483596,716.683545L460.968512,714.258768L459.639675,710.918946L459.581516,710.772712L457.999686,706.793512L457.999685,706.793511L455.984467,705.152890L449.834027,700.139693L445.369143,696.494689L439.931647,695.866492L433.098505,695.072648L433.098503,695.072649L431.669351,695.534282L419.723144,699.383215L417.270186,700.171359L412.326037,705.015404L410.855235,706.455063L410.069717,710.516653L409.283695,714.578079L410.855391,716.076948L414.786951,719.823171L417.705931,722.601630L421.450423,726.162226L421.459529,726.170879L422.365801,727.032028L422.169395,727.285867L418.586656,731.913407L417.728452,733.021074L416.355292,734.792739L412.413575,732.940325L404.294572,729.117553L407.811129,732.293384L408.235139,732.676083L403.602180,735.477836L403.021996,735.828435L400.342594,728.638698L400.686183,727.531620L400.932564,726.737617L400.948366,726.686689L400.987731,726.559816L401.275202,725.633213L401.275203,725.633211L404.343062,727.280886L401.457333,725.126303L400.168730,726.119977L400.168729,726.119978L400.162969,730.718245L400.721184,731.834113L402.474341,735.336703L406.511650,743.391456L406.511650,743.391457L414.026641,746.700008L416.175081,747.644406L425.639062,751.796732L425.671228,751.810824L431.436563,754.334123L433.243756,755.124104L435.866154,756.269616L439.672415,757.930534L439.807773,757.989562L443.563873,759.626515L447.037899,762.571524L449.500886,764.657622L463.938035,776.855105L471.125486,782.908214L471.130518,782.912448L471.462685,783.191882L471.935164,783.354785L480.732289,786.382749L481.428448,786.621949L480.740600,786.362984L471.706901,782.956168L471.722648,782.937436L472.567568,781.932179L476.908111,776.763700L481.034012,776.138628L481.376950,776.086591L483.556160,775.755628L488.343609,771.543389L489.508468,770.517605L490.498076,769.645876L492.867098,769.694642L496.908599,769.776512L504.461092,769.925028L506.019432,770.407892L509.380777,771.448426L510.682803,771.851111L514.311830,772.972392L516.029635,773.502594L521.062842,775.054035L525.423694,773.387219L528.628483,765.184232L529.282524,763.508423L527.857098,762.414670L526.484296,761.360869L521.759185,757.730537L523.294077,753.263211L526.841684,754.522172L527.515050,754.760951L529.965337,752.548015L528.338421,743.220146L520.658895,736.682584L518.406330,734.762174L514.687629,726.973726L512.099214,721.544186L508.432929,718.026818L507.536646,717.166342L502.533712,712.358966L501.164090,711.041602L501.164090,711.041601L497.908764,710.332590L498.232599,712.177496L498.786295,715.330116L499.005897,716.579846L499.143742,717.364126L499.542970,719.634758L499.575653,719.820591L499.892255,721.620366L495.959688,722.059737L494.990344,722.167789L491.157740,722.594043L487.369706,723.013828L489.963973,727.688784L490.941627,729.449180L484.911094,728.862550Z M544.686246,796.567003L544.701665,791.108598L544.717152,785.649998L543.766007,770.724265L546.522198,761.054957L554.083655,750.080044L554.693060,749.194245L561.193984,739.732791L561.193985,739.732789L568.081781,733.366543L568.606516,732.881010L571.655935,730.057921L573.429291,728.415015L571.968562,725.405803L571.607422,724.661507L571.246124,723.916758L567.066790,715.292529L559.007704,714.160499L550.331500,712.934070L548.340755,708.768605L546.834528,705.614282L545.185329,702.157907L540.400488,702.883609L539.069242,705.522031L539.060791,705.538774L538.666612,706.319706L538.345218,706.956338L538.331023,706.984456L537.931514,707.775692L533.892883,703.704682L531.962869,701.757402L531.463047,701.252918L531.462672,701.252540L531.462663,701.252531L525.002145,694.724743L524.691070,695.517385L522.984436,699.863692L522.006806,702.351658L518.993139,698.454515L517.488607,696.507393L513.289967,696.437407L513.289966,696.437408L507.670537,703.418433L508.503549,703.529929L513.535053,704.201819L513.857840,709.480946L513.946059,710.922471L514.218318,715.367766L514.381940,718.036783L514.446153,719.083708L514.661352,722.590209L521.418953,724.780376L521.934196,732.201055L525.110573,737.296839L525.605766,738.090687L526.888348,740.146081L530.028437,745.173809L532.893635,749.755958L531.326185,753.467664L530.784392,754.749948L535.382534,756.821720L536.627733,757.382244L533.214500,762.300839L531.837061,764.284096L531.616671,767.006598L531.350438,770.293817L530.971413,774.970675L530.971414,774.970676L534.316792,780.581085L536.335524,783.962932L536.492957,785.371647L537.301800,792.602043L544.686245,796.567003L544.686246,796.567003Z M628.055304,692.141392L624.462253,685.414340L615.941472,681.634939L611.716939,681.391071L607.801888,681.163427L597.793184,680.574287L595.158805,680.417504L589.174369,673.952209L587.439540,672.075701L583.733407,677.868874L590.809583,682.343013L590.276019,684.935026L589.456042,688.915799L589.309293,689.627891L588.987144,691.190750L579.446536,695.488817L573.928781,690.427996L567.578986,697.266477L567.091551,697.790868L564.686003,710.734836L567.483005,713.787930L570.233748,716.787891L575.566700,717.392135L583.222869,712.461639L585.732447,708.995105L587.497303,706.555443L590.243735,702.755890L601.227668,696.148171L613.942971,698.601196L616.329754,699.059674L626.664468,701.037660L626.664469,701.037660L628.055304,692.141392Z M474.366985,699.006266L474.194438,698.722585L472.053873,695.201637L470.138143,694.734356L466.057149,693.737527L466.038609,693.845800L465.608815,696.355207L465.184304,698.832696L465.172594,698.901022L465.052494,698.854268L461.296920,697.391290L459.603397,695.254204L458.341043,693.660403L458.341042,693.660401L457.089621,694.145638L460.275274,701.606169L464.316571,705.509413L465.566672,703.968851L468.982270,699.756460L468.982271,699.756458L474.065247,700.249725L474.181883,699.769104L474.366985,699.006266Z M527.644097,485.509454L526.970084,488.518136L526.296847,491.521593L526.278292,491.604346L526.231174,491.617439L525.380177,491.853861L525.209884,491.901161L524.981125,491.668533L523.744525,490.410730L523.195458,490.654565L520.155666,492.003723L521.464902,496.183933L525.613255,500.166676L528.410141,498.456283L528.425937,498.407953L530.335361,492.562322L527.644097,485.509454Z M549.509360,699.127578L548.950937,697.645976L547.446944,699.235259L550.211034,706.332271L560.623625,709.506034L561.781157,709.858040L562.100790,706.950649L562.246364,705.625994L560.230637,703.009491L559.763378,702.402707L559.620155,702.418956L553.750656,703.083003L551.113226,703.380212L549.509360,699.127578Z M438.936454,468.767161L432.827448,462.202043L428.689326,458.843398L426.957153,457.991631L424.870486,456.964935L423.636079,456.357257L423.651294,456.444610L424.285595,460.084589L430.796876,465.914907L433.746962,468.552650L433.746965,468.552651L438.949418,470.262063L438.936454,468.767161Z M439.640483,636.002176L435.527812,625.802665L433.418299,622.923087L432.741891,623.512643L433.253835,635.936518L438.462438,639.721915L438.462439,639.721915L439.640483,636.002176Z M483.623772,698.514574L488.248378,692.946961L485.677469,689.160804L484.207094,688.863729L481.548132,688.325903L481.399252,688.295766L481.213220,688.258105L480.767670,688.488890L479.082517,689.361483L478.401807,691.240770L478.358842,691.359363L482.013273,696.327295L483.623770,698.514576L483.623772,698.514574Z M581.567549,678.480956L581.832864,677.852443L583.109348,674.827335L583.713087,673.395858L583.765831,673.270779L583.972656,672.206373L583.046778,672.064122L582.846202,672.107002L581.016475,672.497969L580.618331,672.582994L580.193057,672.843803L575.782649,675.546695L576.234927,676.507262L576.431276,676.594034L581.276572,678.733581L581.431955,678.802138L581.567549,678.480956Z M429.567756,650.427575L431.860922,645.496119L433.763383,641.400981L429.891441,643.280994L429.172546,644.033842L427.558766,645.723243L429.567755,650.427577L429.567756,650.427575Z M508.713556,649.103284L505.676548,646.820693L504.927068,646.257079L504.784198,646.149626L504.784179,646.143531L504.783797,646.018405L504.770844,641.763855L501.480274,642.438082L500.272189,642.685314L502.085462,645.611770L502.420182,646.151744L504.913927,646.692048L509.461506,651.491491L508.713556,649.103284Z " data-nuts-id="DK022" data-shape-area="9.16401718401e-001" data-shape-leng="1.53475078501e+001" data-stat-levl-="3"/><path d="M329.906704,537.473631L328.657067,536.126288L312.810647,527.204432L313.658766,532.396430L314.380930,536.811545L313.244183,536.872582L309.974755,537.047389L309.974752,537.047389L310.252786,534.428205L310.322632,533.770112L310.322638,533.770059L310.392357,533.113130L310.670382,530.492973L307.583903,531.045302L303.837633,531.714304L299.918890,532.412467L299.918886,532.412469L299.918088,532.412895L294.466329,535.322605L288.337361,538.588118L276.537814,544.858148L274.567572,545.902947L267.176749,549.816761L261.160725,552.996189L250.788539,552.130986L248.844138,546.984852L248.238763,545.381271L246.862489,541.733217L239.394298,544.443401L239.153257,544.774385L237.410796,547.166251L234.450292,551.226978L232.848254,553.422741L232.848252,553.422740L224.465395,550.546573L229.873261,556.210232L231.747786,558.171081L233.600110,560.107523L236.426165,563.059656L237.849434,564.545387L240.678103,567.496148L244.346465,571.318786L239.012091,567.948178L230.944108,562.840109L230.542790,562.585702L229.548928,561.955534L230.636149,564.879248L232.559090,570.045021L232.883253,570.915181L235.086068,571.561469L244.307149,574.260489L244.503327,575.457780L245.335857,580.534231L245.910777,584.035576L241.990568,585.162584L238.734259,586.097339L238.206100,588.942181L245.219854,591.507676L247.486867,592.335527L248.706744,592.780714L250.538473,593.448827L250.538474,593.448832L250.827065,597.558239L251.230361,603.290101L251.826013,611.732743L252.063060,615.084995L252.428669,620.246915L255.383751,622.608280L255.995960,623.097226L259.341825,625.767847L265.111623,630.366939L264.876655,632.370552L264.539332,635.246268L264.447215,636.031428L264.286897,637.397762L264.066136,639.278920L263.218391,646.499494L263.116946,647.363190L269.956089,650.510906L272.398658,647.471780L264.542916,636.741007L265.896979,630.919061L265.908345,630.870169L265.983854,630.545353L266.051548,630.254137L266.270940,630.604058L266.784909,631.423692L266.918858,631.637273L269.271194,635.386112L273.156799,636.541051L274.453202,636.925981L275.079905,636.654613L275.871605,636.311721L281.761481,633.758027L283.436828,636.649759L284.953467,639.265697L285.357418,639.962143L285.973653,641.024347L288.238947,644.926537L290.900403,649.506153L280.158219,653.451714L277.878784,654.287026L276.029674,661.758508L283.152214,659.159577L284.353224,658.720698L292.012565,661.804006L293.591878,664.414272L294.990551,666.724506L298.285237,662.128808L297.097377,660.455320L295.464039,658.152994L298.424346,656.503071L298.424347,656.503072L310.982975,668.635886L314.895689,669.544956L321.796943,671.144134L324.970359,671.877669L326.993304,672.344677L333.671070,673.882974L334.434475,674.058511L338.676957,676.335922L338.676960,676.335923L339.780103,675.712333L341.590352,674.688593L346.421793,671.953642L350.924367,669.401377L352.500849,668.506962L353.310892,668.047225L361.724400,667.454154L371.302644,666.770065L372.593806,663.105452L373.867270,659.488559L374.659734,657.236541L376.820989,651.089775L377.091391,650.320222L377.691179,648.612850L381.006336,639.165758L381.808708,632.560311L382.525940,626.650746L380.796465,621.044510L378.862121,614.765202L377.419165,610.074860L378.106388,609.752346L380.823300,608.476621L383.669268,607.139140L382.618127,604.385135L379.728137,596.803896L377.628339,591.286844L377.310304,590.450591L377.177068,590.100203L376.204658,587.542051L371.462294,581.872036L370.097934,580.239085L366.170826,575.534609L365.468561,574.692662L363.022571,571.758568L362.937898,571.656955L362.801166,571.492861L362.800798,571.492419L363.978538,568.219990L366.524446,567.238652L369.628738,566.040920L370.500458,565.704354L374.774394,564.052757L372.834472,560.233786L368.637252,551.958623L364.522653,543.829780L357.206466,529.335032L353.039664,530.818498L356.383368,531.974923L356.951320,532.171207L357.348124,533.333772L358.530189,536.795055L358.096889,544.756172L357.733736,544.181100L355.422330,540.518851L353.940002,538.168370L355.741567,545.167277L356.899506,549.659353L357.586516,552.322159L358.094914,554.291548L353.826197,551.790470L352.498231,551.011752L349.511286,552.881703L350.053832,553.446706L352.147904,555.626523L357.588645,561.283177L355.364777,564.397457L350.696114,565.466874L342.807122,567.268344L339.312837,570.457126L338.824079,570.902894L335.608573,573.834003L334.974035,573.801965L333.808908,573.743028L331.754735,573.638778L328.826655,573.489424L331.092877,565.865046L331.821347,563.412010L331.821349,563.412003L333.314159,561.763150L333.862715,561.157065L334.145969,561.236552L335.617681,561.649397L336.305335,561.842208L338.251674,562.387638L340.435639,558.815397L336.025495,550.950231L339.295383,547.659087L339.719271,547.232209L340.978763,547.586911L344.161599,550.600629L348.649406,554.844907L345.711345,551.114603L333.450467,541.291460L329.906704,537.473631Z M376.478466,721.395274L378.648710,714.598627L378.921086,713.745009L382.101221,703.768493L383.190280,700.347698L383.190281,700.347697L391.139063,687.645471L392.431002,685.577442L395.201474,674.696785L396.676458,668.895368L399.790806,656.626222L400.287417,654.667305L401.912786,648.251117L400.364869,643.910505L397.323828,646.902107L394.168679,650.003118L391.417148,656.976199L390.664734,658.881330L390.221622,660.002965L380.151207,685.426933L372.526915,689.913865L369.654215,693.447572L367.860903,695.651887L361.904072,702.964929L360.635986,708.060896L364.878098,709.290952L366.543012,709.773127L366.379852,712.481621L364.474287,714.893243L363.872790,715.654172L355.966596,725.642305L353.239950,724.987874L349.085091,723.989018L349.083512,723.988638L350.490329,725.851684L357.635142,735.298979L357.830091,739.044731L358.306154,748.169897L358.306154,748.169898L361.931040,752.781123L368.107821,747.529952L369.641154,742.752067L373.613712,730.353825L374.180882,728.581374L376.478466,721.395274Z M323.447505,711.941454L317.990551,711.124990L316.934640,710.966637L313.674868,707.786256L311.451711,705.615386L306.967538,701.232081L302.037716,696.406045L296.432405,690.909674L294.011105,688.532440L295.981776,693.319849L299.090779,700.861178L299.797487,701.747866L306.952824,710.713052L314.889409,720.630755L318.728148,723.985148L321.500319,726.405131L323.525880,728.172078L325.667211,726.436842L330.871664,722.215012L340.360901,721.097117L340.360900,721.097116L335.819615,715.956961L335.819559,715.956898L335.819478,715.956805L331.282280,710.813535L329.330966,710.488681L333.197529,716.093100L333.249210,716.167954L332.387970,716.278261L327.768228,716.868610L323.447505,711.941454Z M356.612647,688.429769L356.243396,688.346840L355.121102,688.094693L353.629374,685.867230L354.608468,684.314224L355.942808,682.196852L356.255811,681.700020L358.410673,678.278070L359.021077,677.308253L359.021078,677.308251L357.464732,675.027885L356.535227,673.665317L356.088684,673.010551L356.088477,673.010248L356.088369,673.010089L355.086446,671.540559L353.768613,669.606812L348.489990,673.472114L338.307706,680.911883L339.124266,683.492420L339.522459,684.750224L341.445127,690.818107L343.484764,697.245388L348.785690,695.427417L354.491522,693.466635L362.537848,690.694591L363.471520,684.434158L358.303811,688.809385L356.612647,688.429769Z M366.128063,670.425677L365.132751,669.766659L360.752839,671.107022L360.592982,673.037590L360.387069,675.523854L360.345607,676.024413L360.337363,676.123930L360.458454,676.128140L362.444475,676.196974L367.299510,676.363538L366.128063,670.425677Z M241.471215,605.314830L243.144228,604.819514L243.389944,604.746739L243.462389,604.351160L243.814688,602.427157L242.597104,598.262379L239.130085,598.367043L238.565270,599.623415L239.230149,605.977799L241.471215,605.314830Z M287.385742,668.671886L285.874918,668.253174L285.331565,668.102522L285.376084,667.921472L286.076371,665.072826L284.738218,666.228715L283.202140,667.555028L283.338765,670.310584L286.146764,673.258791L289.493332,672.354974L290.953012,670.841516L290.533731,669.904504L289.959425,668.620687L289.366610,669.220457L287.385742,668.671886Z M319.809022,687.751185L320.043372,686.643005L317.302592,687.325359L316.889034,687.428244L316.542770,687.514374L316.562096,687.676246L316.758750,689.322931L317.583860,689.570590L324.330637,691.592564L325.319956,691.888594L327.446428,689.981884L325.164729,686.943841L325.164729,686.943843L325.305255,688.454555L325.315903,688.568993L325.153732,688.595420L324.076020,688.770969L323.763898,688.821787L319.809022,687.751185Z M352.847677,709.426468L353.358315,707.537234L353.110866,704.352383L353.110865,704.352383L351.587222,703.607848L351.329172,703.481716L348.571219,704.416180L348.355683,705.422029L351.286472,710.797021L352.847677,709.426468Z M228.497209,560.315510L229.256175,560.040073L229.445615,559.971312L229.334837,558.267687L229.334836,558.267686L227.685214,556.929588L226.803144,556.213819L224.500819,554.344664L224.500818,554.344663L223.869832,556.655104L225.547123,560.396640L226.769680,560.942172L228.497209,560.315510Z M305.556062,677.140002L305.236199,676.766397L303.676340,674.943874L301.068057,671.894225L300.954184,671.761021L299.270894,672.377427L298.783027,673.879713L300.764886,676.478636L303.205652,677.529799L305.556062,677.140002Z " data-nuts-id="DK031" data-shape-area="4.88729095107e-001" data-shape-leng="8.34036889101e+000" data-stat-levl-="3"/><path d="M173.188239,441.617051L170.614888,439.196007L165.386697,438.651099L162.446030,443.471145L161.674058,444.735650L156.724431,452.835028L154.879650,455.850129L150.209486,459.165533L149.846128,458.883284L147.495688,457.056757L145.079855,461.751351L143.466823,464.883453L143.404736,465.003971L140.300192,466.069707L137.160654,467.146217L134.679314,467.996158L129.137463,465.469133L127.865458,464.888469L128.186687,462.500758L128.220858,462.246744L129.299601,454.225034L117.262235,451.310114L115.490355,450.879622L113.383646,454.647799L109.055962,462.379441L105.441483,464.339638L104.895736,464.635425L105.074588,464.830266L109.218176,469.340972L101.480380,471.656055L99.529343,472.238647L90.743385,463.282738L88.631443,461.126053L73.621544,459.894878L73.416947,459.877932L68.560280,461.757665L69.574023,464.664489L70.229404,466.542510L66.290073,468.750354L65.394482,469.251945L65.394481,469.251946L65.374436,469.888851L65.217131,474.892990L60.960665,477.015449L58.749255,478.117074L55.161090,475.104523L51.636071,472.141717L51.616868,472.125567L48.877035,469.820456L43.887562,465.617595L43.084370,464.940419L39.538690,470.180151L38.796765,470.208897L37.782865,470.248088L34.517844,470.373567L31.638668,470.483298L30.639467,469.127316L30.037847,468.310620L27.623157,465.030743L26.245166,463.157614L19.568041,461.376733L20.234423,463.403576L20.589708,464.483727L20.680634,464.760111L18.066567,465.074184L18.066566,465.074185L14.896318,490.660762L2.647850,522.750128L0.626907,528.028736L0.626907,528.028737L24.705480,544.975056L31.261012,549.567490L31.884398,545.354207L31.884397,545.354206L31.239060,544.647928L28.351525,541.485799L26.817427,539.804539L25.169943,537.998028L25.169942,537.998027L24.369352,533.520892L23.257674,527.293311L28.512374,520.456805L31.139989,520.811244L34.563683,524.081915L33.416003,525.192277L32.977389,525.616534L31.166035,527.368040L31.147322,527.386130L31.166227,527.415717L34.433392,532.525011L36.316703,535.466891L46.853641,551.882140L49.467961,555.943360L49.467963,555.943360L49.496292,555.946650L56.804318,556.792370L57.061114,556.821984L63.803974,557.597083L65.767306,557.821862L70.242272,561.349526L70.359118,561.441573L71.745227,562.533245L73.148001,563.637572L74.839031,564.968202L76.083171,570.463982L78.365792,580.524266L80.085446,588.083990L80.538382,590.072376L78.625104,594.943056L78.375868,595.577244L77.355486,598.172919L77.225732,598.502907L77.508117,602.008474L78.310300,611.937940L78.635603,615.952454L79.360808,624.877205L79.966319,632.302843L80.102909,633.974652L80.259794,635.893379L71.469578,659.785202L73.488196,670.297350L73.778256,671.805133L74.294565,674.487306L73.886434,676.227742L69.918026,693.130430L81.179003,697.525352L81.227076,697.544077L83.816929,698.552404L84.714237,698.388230L86.911515,697.985837L88.354695,697.721257L90.885852,697.256666L92.069285,697.039207L92.491360,696.961613L95.248999,696.454169L95.457769,696.415718L96.219811,696.275328L97.397698,696.058201L97.892808,695.966890L97.958475,695.954777L106.149404,696.921826L106.151612,696.922086L106.494465,696.962409L107.309186,697.058180L107.872808,697.124393L110.749580,697.461824L111.009514,697.492270L114.062715,697.849354L114.264716,697.872944L117.625625,699.893949L123.883242,703.651415L126.457052,705.194852L128.123881,706.193766L128.123884,706.193768L129.737533,706.200963L136.667605,706.228818L137.375146,706.231385L144.976478,709.129629L146.285903,709.628111L147.814532,710.209752L155.203495,713.016859L155.393540,715.065762L155.399144,715.126163L155.955579,721.116125L155.955584,721.116188L156.139366,723.091667L161.086385,723.782575L162.191825,723.936605L167.431376,724.664900L169.264483,724.919009L169.633731,724.424800L172.844657,720.124779L174.199960,718.308459L174.418199,718.015912L175.090094,717.115114L175.414363,716.680303L178.848667,716.200700L179.489138,716.111119L180.221613,717.689821L180.699404,718.719262L186.760572,717.191555L190.793594,713.271699L191.176807,712.899002L194.516087,709.649631L194.521421,709.644439L195.951267,708.252136L196.708564,708.205235L199.626817,708.023948L201.994662,707.876207L203.810039,704.937520L205.280181,702.556314L205.983520,701.416671L210.116202,694.714644L217.783417,700.149378L214.429046,700.565555L213.323077,700.702512L206.884957,701.497208L207.403131,701.919173L209.694047,703.783954L210.334841,704.305324L214.926474,708.038288L213.702823,710.249584L212.196142,712.970959L215.813576,714.579148L223.543956,718.009504L226.894264,719.493537L229.233489,713.356996L227.113398,711.276521L221.589879,705.849664L222.094275,703.175679L228.753667,704.520690L229.314744,704.633787L232.402468,703.174587L233.143186,701.372902L232.853580,700.948854L232.563991,700.524783L230.972033,699.934851L230.327038,698.629115L229.380901,696.712956L228.835213,692.373215L227.543397,682.076424L221.237607,681.685130L216.323178,678.373363L212.459057,675.766006L209.361865,669.366108L204.828135,667.401668L197.813894,671.161528L196.583563,671.820223L196.429900,671.902474L192.910159,673.785470L190.225503,672.945877L183.495093,670.837121L183.205941,667.351230L185.939357,667.011866L186.427824,666.951137L194.570151,665.935130L201.827889,659.167169L202.057808,655.612193L197.582213,650.936469L194.755068,647.979384L189.088676,648.883002L191.785096,644.799091L195.146174,639.703267L196.241151,638.041882L206.972167,631.141413L208.639258,630.067523L214.186755,631.268476L214.181710,631.894517L214.173303,632.939267L214.159377,634.673412L214.156389,635.046051L214.956563,634.634695L215.266470,634.475350L217.707321,633.219824L223.352452,630.312560L223.323685,626.893206L223.289936,622.854062L227.501365,616.545605L216.052906,607.486636L213.510832,609.748704L212.374773,610.759100L209.140325,613.633990L205.894893,616.515991L204.029676,616.427781L203.543992,616.404753L197.501444,616.116214L195.706971,616.029799L197.502905,615.944416L199.969648,615.826598L201.785690,615.739458L202.384141,615.710668L202.890708,615.686269L205.643235,615.553229L207.369808,613.886182L208.869844,612.437189L210.319954,611.035827L211.231536,610.154590L215.099935,606.412381L217.870939,607.006377L221.208717,607.720721L218.259710,597.577364L216.657112,592.053861L216.409180,591.198634L214.584484,584.898557L212.111225,576.342640L211.464659,574.102769L215.208283,571.545787L226.080478,564.104493L226.080477,564.104492L219.488647,557.222016L216.898829,554.513936L208.983381,556.036294L205.544049,556.695620L201.120986,557.541613L200.353050,556.932572L198.901376,555.780879L198.314845,555.315409L199.419975,555.253465L211.053578,554.593709L210.741381,551.437566L219.110310,551.956037L222.598600,548.753075L223.924345,547.534931L224.062749,547.573899L224.621816,547.731282L227.552718,548.555745L228.710640,548.881186L233.283789,550.164926L233.207753,547.810670L233.185567,547.123097L232.968622,540.383971L232.961092,540.149540L236.322382,537.230513L241.060045,533.111462L245.790653,528.992990L251.045488,524.411605L243.242878,523.745271L235.631729,523.089151L234.286381,515.374328L230.366084,511.825179L226.413876,508.242751L224.561766,506.562409L216.515582,506.685549L213.762898,506.726144L207.593119,502.186127L207.593121,502.186126L213.623129,502.033587L216.623601,501.956287L216.623909,501.956279L219.261693,501.887554L225.654190,501.718028L226.506141,497.096830L227.045367,494.170470L227.211946,493.266223L227.357559,492.475695L221.187159,491.852457L218.655213,491.595558L216.393321,491.365488L215.007950,491.224308L213.796498,488.359615L212.695631,485.754580L212.695630,485.754580L210.929886,485.747692L208.852858,485.739178L207.776776,485.734592L205.260832,482.533271L204.818473,480.031768L204.651020,479.084360L204.574348,478.650483L204.098950,475.959019L204.093019,475.925428L203.439774,472.223594L203.439772,472.223580L202.349598,471.902806L200.574081,471.380068L195.644617,469.926747L194.863500,465.131192L197.743348,463.245308L196.759372,461.594081L195.421308,459.347480L188.277748,447.330507L187.254890,446.539362L183.146643,443.359303L178.710477,443.711523L178.511113,443.727304L177.124949,443.836911L175.671666,443.951611L173.188239,441.617051Z M257.863372,676.899244L252.151491,675.292627L250.597606,674.854884L250.597605,674.854884L243.610346,667.637870L240.194034,664.103295L239.355617,663.235258L234.333837,660.761707L229.165188,658.211763L226.272000,659.653148L226.271823,659.653236L214.178546,665.664447L215.366946,668.763999L216.787276,672.465277L217.085074,673.240875L222.419215,677.094761L229.237857,676.831469L235.090729,680.799961L244.732333,687.322446L244.732336,687.322448L244.732336,687.322449L242.000411,691.098846L241.471816,691.829142L241.084181,692.364612L241.711640,692.506732L246.402048,693.567703L239.918463,695.581559L235.066642,687.199538L230.452103,686.254439L230.904754,692.789233L231.050381,694.888042L231.358541,699.323643L233.095443,700.195494L233.443936,701.116400L233.566961,701.441448L233.136465,702.330842L233.724571,703.103843L234.988607,704.764716L239.939243,707.026376L244.950476,704.846493L246.005688,704.387030L249.809327,702.729552L256.874066,709.200350L263.372003,715.139602L254.597765,708.909903L249.780076,705.482499L247.203892,707.962685L244.979251,710.102947L247.900081,713.276694L251.050180,713.928915L262.706271,716.332673L266.881411,712.256837L270.229481,711.845550L274.052179,711.374513L272.771723,706.472673L270.726601,698.630862L270.286896,696.942811L267.884573,693.075185L262.938452,685.099843L257.863372,676.899244Z M58.629103,654.558913L62.406046,649.066108L62.020012,633.417503L63.985229,629.929185L65.463515,627.303577L67.497717,623.688339L61.077267,620.517808L58.772917,619.378316L56.047516,618.029550L52.835995,621.127811L52.835995,621.127813L50.918770,630.290315L47.630312,645.983806L52.125040,653.865414L53.000147,655.397989L58.629103,654.558913Z M45.905598,554.097335L40.501839,552.745188L38.347535,552.205179L37.469006,553.560572L34.456276,558.205613L35.804920,560.456349L43.357699,573.035465L46.837485,582.412246L53.133467,585.758151L53.315453,585.245886L54.547782,581.775939L52.902840,578.131753L52.634752,577.537497L51.045304,574.012312L50.299171,572.356339L52.185251,570.097529L52.296898,569.963778L53.009928,569.109477L53.009926,569.109471L51.726330,562.471380L51.726329,562.471371L51.726326,562.471370L49.797849,561.014102L47.490707,563.418934L46.891398,564.043358L45.905598,554.097335Z M235.729425,613.939999L236.170725,612.215448L235.466289,610.360815L235.839014,612.288289L234.027162,615.806633L233.129710,611.556103L233.007444,611.508663L231.592802,610.959629L228.745503,611.889909L228.763324,615.646086L230.683572,617.348226L233.689434,616.697157L235.729425,613.939999Z M205.334322,647.887630L203.892547,645.677803L202.475330,645.333301L202.409829,645.317373L202.380604,645.416759L202.369477,645.454602L201.619607,648.004218L203.053899,650.059305L204.585111,650.396005L205.334322,647.887630Z " data-nuts-id="DK032" data-shape-area="1.22533430686e+000" data-shape-leng="1.09591074613e+001" data-stat-levl-="3"/><path d="M160.906127,231.405186L155.105593,227.187470L149.438296,227.560619L149.772260,229.454087L150.142926,231.554331L139.161609,227.581884L134.640643,231.832339L132.908581,233.459289L130.051392,236.141306L125.421956,240.482214L125.421955,240.482215L124.088968,243.406750L123.985283,243.634165L121.188392,249.764941L125.171283,249.447767L128.396464,249.189711L131.564840,248.935135L133.592929,251.984372L128.876720,252.097585L126.714134,252.148723L120.405132,252.295134L119.214572,252.322298L114.490836,258.653467L106.541521,269.286157L104.250178,269.244031L99.711813,269.158979L100.747399,272.497345L102.637719,278.583002L110.300561,287.106620L107.025782,300.225182L105.962850,304.478105L96.318258,307.391573L92.121676,306.789924L88.187865,302.816724L85.616278,300.216556L85.051592,299.645294L85.144755,299.480451L87.975371,294.469258L86.244515,289.652770L83.936939,283.221410L80.843237,284.822707L75.329764,287.672776L75.329763,287.672775L69.034329,283.646055L59.717871,277.672739L58.613069,277.662117L54.468522,277.621138L52.238735,277.598351L51.210914,277.587674L48.303189,281.918257L47.077530,283.742429L46.239328,279.052007L46.233816,279.021138L45.934834,277.346312L45.578835,275.350881L48.103731,273.059850L48.226467,272.948441L47.673411,272.751141L45.573527,272.001652L38.769123,269.569012L36.798610,267.013711L36.736383,266.932985L33.589836,262.848472L33.552284,262.799696L33.397781,262.599004L33.203562,262.346706L35.771708,257.954109L37.098041,255.683974L40.561802,249.750439L39.676083,247.491572L38.212608,243.756095L36.116439,247.708513L29.740174,259.712471L28.257139,264.876813L26.241439,271.890060L22.907486,283.474851L22.907486,283.474853L22.907484,283.474874L22.196671,291.777142L21.846826,295.864549L19.225375,326.518014L21.058915,324.764885L21.779045,324.076085L22.077224,323.790838L22.367564,323.513067L22.644804,310.150955L26.221817,311.916157L27.157446,316.241617L28.231745,321.200947L29.150078,325.434204L31.667512,327.979483L31.942511,328.257393L36.514955,332.874477L36.757860,333.119555L37.563188,333.931944L36.904493,338.287243L44.284114,340.328376L44.284103,340.328389L36.610484,348.669194L35.314079,340.246617L28.223232,339.012464L21.403080,337.820171L20.710614,337.698826L21.538786,332.846329L21.912517,330.655900L22.301018,328.378485L21.671092,328.011143L19.444120,326.711910L19.385686,335.955492L19.326900,345.548709L19.299561,350.118685L19.259835,356.891007L19.259835,356.891010L19.259835,356.891012L14.569036,386.997276L13.696998,392.587277L11.605402,405.986261L11.605402,405.986266L12.605255,418.938651L12.993263,418.797819L17.341692,417.218181L14.984750,410.154878L19.559700,393.987179L19.895987,394.074707L30.603248,396.854530L36.083608,402.100742L40.198021,406.033202L40.321977,407.897841L40.899786,416.566024L41.411074,424.204084L43.391932,427.210090L45.864173,430.958201L48.251005,434.573061L48.385658,436.475423L48.821064,442.614588L48.952604,444.465659L45.744620,447.315411L43.674967,449.152587L36.544219,455.474196L32.140432,459.371971L32.613175,451.738969L32.785435,448.959525L28.520265,447.054947L24.485569,445.250819L23.952129,446.346724L22.315609,449.707425L22.923885,451.155484L24.029771,453.786684L20.566470,456.439223L20.566469,456.439227L19.568041,461.376733L26.245166,463.157614L27.623157,465.030743L30.037847,468.310620L30.639467,469.127316L31.638668,470.483298L34.517844,470.373567L37.782865,470.248088L38.796765,470.208897L39.538690,470.180151L43.084370,464.940419L43.887562,465.617595L48.877035,469.820456L51.616868,472.125567L51.636071,472.141717L55.161090,475.104523L58.749255,478.117074L60.960665,477.015449L65.217131,474.892990L65.374436,469.888851L65.394481,469.251946L65.394482,469.251945L66.290073,468.750354L70.229404,466.542510L69.574023,464.664489L68.560280,461.757665L73.416947,459.877932L73.621544,459.894878L88.631443,461.126053L90.743385,463.282738L99.529343,472.238647L101.480380,471.656055L109.218176,469.340972L105.074588,464.830266L104.895736,464.635425L105.441483,464.339638L109.055962,462.379441L113.383646,454.647799L115.490355,450.879622L117.262235,451.310114L129.299601,454.225034L128.220858,462.246744L128.186687,462.500758L127.865458,464.888469L129.137463,465.469133L134.679314,467.996158L137.160654,467.146217L140.300192,466.069707L143.404736,465.003971L143.466823,464.883453L145.079855,461.751351L147.495688,457.056757L149.846128,458.883284L150.209486,459.165533L154.879650,455.850129L156.724431,452.835028L161.674058,444.735650L162.446030,443.471145L165.386697,438.651099L170.614888,439.196007L173.188239,441.617051L175.671666,443.951611L177.124949,443.836911L178.511113,443.727304L178.710477,443.711523L183.146643,443.359303L187.254890,446.539362L188.277748,447.330507L192.094018,449.559994L194.915189,451.206479L194.915191,451.206481L207.008548,452.520606L209.338802,452.772045L211.864314,453.043904L208.928926,449.456330L205.927330,445.783922L205.525893,441.879942L205.250603,439.199637L204.951213,436.281822L203.944828,435.308925L202.999719,434.394978L202.927736,434.325357L200.812121,432.278445L199.216047,430.733279L196.002126,427.619461L194.169739,421.794825L194.169738,421.794824L191.264531,421.715638L183.680328,421.504799L184.370537,414.864796L182.231755,412.511564L179.116438,409.080806L179.116437,409.080804L180.104423,405.512315L180.739131,403.218774L186.546535,405.123918L189.536396,406.103089L191.595913,406.776917L194.908673,404.369758L193.840199,398.090535L193.514890,396.176404L193.020246,393.263778L191.716591,385.575165L188.525023,380.370937L185.592279,379.501686L182.784098,378.668367L180.111054,377.874252L176.732456,376.869275L175.113569,375.470630L170.477346,371.461232L169.503742,363.488597L172.262528,360.244201L173.108931,359.248261L174.088314,358.095522L175.097612,356.907208L180.607417,350.413634L186.521955,343.430761L186.521961,343.430760L194.815744,341.921922L195.499491,341.797194L197.007873,340.367595L198.733303,338.731515L200.480196,337.074246L201.954659,338.242505L206.136242,341.552822L204.046133,343.339222L203.241144,344.026956L206.480380,348.599658L209.372214,352.676968L214.264570,351.603200L214.906209,351.462174L217.357304,350.923016L220.089865,350.321145L220.890974,351.050798L223.329448,353.270634L231.339955,350.825320L239.087363,348.452872L238.178386,345.958349L236.993806,342.705047L236.468533,341.261565L234.903316,336.957029L235.324621,336.666828L240.096199,333.377662L243.265292,327.526372L243.935242,326.288472L244.482553,325.276938L247.742770,319.246934L249.184273,316.578307L249.210109,311.736716L249.211024,311.566306L249.220851,309.739788L249.263014,301.990776L249.263834,301.841380L249.300484,295.218577L251.520883,291.459188L245.418849,292.522752L242.994944,289.237669L239.157427,284.030427L230.926842,286.078479L231.245371,281.112208L231.380112,279.011553L233.305012,278.440804L233.333577,278.432331L233.672125,278.331901L235.722233,277.723442L235.741732,277.717652L235.138802,274.188812L231.117431,273.153262L230.217131,272.921162L229.192161,272.656806L221.777073,270.740631L220.488937,268.474293L217.136781,262.570018L215.904087,260.396458L211.486310,261.205123L209.272393,261.609566L209.033595,262.257725L208.826490,262.819800L207.254245,267.084942L206.146980,270.086723L205.872869,270.829584L201.538733,268.535814L189.595748,262.199069L187.799553,261.243989L183.525492,280.563087L183.501581,280.671017L182.090387,287.038141L182.090383,287.038158L183.866641,288.953265L183.866667,288.953294L185.643858,290.868243L186.824402,290.487924L193.329536,288.389149L194.186950,288.112125L193.132603,295.077099L191.709988,295.483499L184.324397,297.589451L183.756544,296.844340L182.768797,295.547878L182.277375,294.902683L178.349273,289.741050L178.349273,289.741047L178.184300,287.376374L177.879064,282.994625L180.858344,279.794268L180.873168,279.778337L183.752248,276.682879L182.468007,273.475226L173.907761,271.371249L172.477009,271.018755L172.212905,271.104874L166.953178,272.818146L164.331214,269.274844L160.274813,271.743732L158.668643,272.720509L157.904544,276.061009L157.182568,279.215933L156.339720,282.897304L156.063883,284.101691L150.714272,288.190734L150.196715,285.234397L149.829193,283.133419L149.539963,281.479035L149.111688,279.027752L149.111688,279.027750L151.695046,269.962208L157.684351,263.400274L159.550622,261.353151L160.443032,260.373854L168.622302,251.385927L167.869272,249.440724L160.906127,231.405186Z M87.970345,252.375765L87.970345,252.375763L80.607888,255.402778L77.272304,256.771733L75.538606,256.405148L74.567553,256.199671L67.299775,254.658383L64.521044,254.067500L63.581209,253.867449L63.357077,255.152917L69.742050,261.192879L71.045121,262.423985L73.528490,264.768749L74.910617,268.232005L75.363312,269.365622L75.753378,270.342121L78.957364,278.353082L82.774297,278.913774L79.424524,275.124148L79.609161,275.052313L79.857549,274.955668L82.319475,273.997314L83.010081,273.728336L83.855319,273.399045L88.044030,271.765785L88.293047,269.944360L88.892888,265.555932L88.957492,265.083213L88.897440,264.997842L88.147475,263.931500L88.012591,263.739681L86.240620,261.218744L85.633044,260.353937L85.866559,259.557281L87.970345,252.375765Z M20.680634,464.760111L20.680632,464.760109L20.466757,464.512516L18.865797,462.658565L18.865784,462.658550L18.878230,460.335678L18.878230,460.335669L18.889596,458.232054L22.356473,453.299710L21.627956,452.442087L20.103054,450.646215L20.852664,448.533713L18.931319,442.468017L20.214179,441.300778L20.232593,437.904952L20.266594,431.743837L19.003632,428.314178L15.760919,419.493358L15.333178,418.328198L13.430712,419.045160L17.032845,454.886874L18.066565,465.074169L18.066567,465.074184L20.680634,464.760111Z M156.827918,221.237273L156.891343,221.186924L156.864637,221.102646L156.761137,220.776013L155.717516,217.480824L155.175174,217.300990L151.843902,216.195549L151.645036,216.129513L151.334752,216.178024L141.704682,217.678429L140.364985,219.347939L140.440464,219.480602L143.304188,224.510354L145.663940,226.867186L147.325005,228.525083L150.938249,221.826392L153.997294,223.483346L156.827918,221.237273Z M92.653268,290.141258L92.643398,290.078975L92.324074,288.063208L92.278154,287.773219L93.914356,280.107411L96.779136,278.935952L94.001187,279.082107L89.858318,285.642340L90.084010,286.412781L91.580053,291.515536L92.653268,290.141258Z " data-nuts-id="DK041" data-shape-area="1.05114541146e+000" data-shape-leng="1.03319497638e+001" data-stat-levl-="3"/><path d="M310.069680,295.101927L313.071033,289.796238L314.439515,288.406939L316.260158,286.557715L318.604096,284.175483L320.842251,281.899190L320.842293,281.899147L322.045496,281.297633L322.807232,280.916705L325.455457,279.591690L326.836810,278.900114L328.955855,272.287033L329.140228,271.711259L329.903195,269.327963L326.834240,259.351399L321.924362,260.238963L318.504079,260.855683L310.723265,262.253866L307.072712,262.907560L307.072709,262.907560L307.072709,262.907562L303.631316,267.176491L302.649616,268.393384L302.557012,268.508153L301.781548,269.469098L299.602330,272.168266L297.399111,274.895229L295.340724,277.441177L295.340723,277.441179L295.340718,277.441182L292.224837,279.140313L290.933876,279.843827L285.546897,282.776551L285.546891,282.776554L285.546890,282.776555L285.546888,282.776555L280.969492,284.082743L279.224305,284.580082L274.930264,285.802232L273.260355,286.276917L267.471373,287.919897L264.307582,288.816123L263.060364,292.600575L262.802070,293.384002L256.466549,294.431612L251.520883,291.459188L249.300484,295.218577L249.263834,301.841380L249.263014,301.990776L249.220851,309.739788L249.211024,311.566306L249.210109,311.736716L249.184273,316.578307L247.742770,319.246934L244.482553,325.276938L243.935242,326.288472L243.265292,327.526372L240.096199,333.377662L235.324621,336.666828L234.903316,336.957029L236.468533,341.261565L236.993806,342.705047L238.178386,345.958349L239.087363,348.452872L231.339955,350.825320L223.329448,353.270634L220.890974,351.050798L220.089865,350.321145L217.357304,350.923016L214.906209,351.462174L214.264570,351.603200L209.372214,352.676968L206.480380,348.599658L203.241144,344.026956L204.046133,343.339222L206.136242,341.552822L201.954659,338.242505L200.480196,337.074246L198.733303,338.731515L197.007873,340.367595L195.499491,341.797194L194.815744,341.921922L186.521961,343.430760L186.521955,343.430761L180.607417,350.413634L175.097612,356.907208L174.088314,358.095522L173.108931,359.248261L172.262528,360.244201L169.503742,363.488597L170.477346,371.461232L175.113569,375.470630L176.732456,376.869275L180.111054,377.874252L182.784098,378.668367L185.592279,379.501686L188.525023,380.370937L191.716591,385.575165L193.020246,393.263778L193.514890,396.176404L193.840199,398.090535L194.908673,404.369758L191.595913,406.776917L189.536396,406.103089L186.546535,405.123918L180.739131,403.218774L180.104423,405.512315L179.116437,409.080804L179.116438,409.080806L182.231755,412.511564L184.370537,414.864796L183.680328,421.504799L191.264531,421.715638L194.169738,421.794824L194.169739,421.794825L196.002126,427.619461L199.216047,430.733279L200.812121,432.278445L202.927736,434.325357L202.999719,434.394978L203.944828,435.308925L204.951213,436.281822L205.250603,439.199637L205.525893,441.879942L205.927330,445.783922L208.928926,449.456330L211.864314,453.043904L209.338802,452.772045L207.008548,452.520606L194.915191,451.206481L194.915189,451.206479L192.094018,449.559994L188.277748,447.330507L195.421308,459.347480L196.759372,461.594081L197.743348,463.245308L194.863500,465.131192L195.644617,469.926747L200.574081,471.380068L202.349598,471.902806L203.439772,472.223580L203.439774,472.223594L204.093019,475.925428L204.098950,475.959019L204.574348,478.650483L204.651020,479.084360L204.818473,480.031768L205.260832,482.533271L207.776776,485.734592L208.852858,485.739178L210.929886,485.747692L212.695630,485.754580L212.695631,485.754580L213.796498,488.359615L215.007950,491.224308L216.393321,491.365488L218.655213,491.595558L221.187159,491.852457L227.357559,492.475695L227.211946,493.266223L227.045367,494.170470L226.506141,497.096830L225.654190,501.718028L235.707454,510.002966L245.747013,513.275614L249.523749,512.306912L249.559508,512.297732L267.772396,507.602951L269.935356,507.042839L273.065169,506.231392L272.426956,502.920817L272.426944,502.920754L272.299086,502.257161L272.046981,500.948364L271.789331,499.610301L275.828378,498.220765L277.046891,497.801161L283.284487,495.650253L275.430162,492.114516L274.360862,487.888853L276.853859,485.166378L281.576659,480.003204L279.156861,475.653059L255.852811,469.283467L255.710719,468.042523L255.495243,466.159745L257.212497,466.312901L260.957222,466.645808L268.017438,467.269466L268.186989,465.784851L268.344130,464.408705L268.635130,461.859826L270.326216,461.841936L278.962264,461.745975L282.455846,461.704971L286.352109,461.657757L288.462836,461.631526L291.011446,463.060955L293.083970,464.222547L293.639780,466.246495L294.700604,470.106506L294.940566,470.979127L300.337551,472.206247L301.144182,466.603853L301.917937,461.226010L301.918007,461.225939L303.608696,459.516351L304.296002,458.821117L307.356871,455.723212L307.745291,455.329890L307.802304,455.272153L309.061333,453.996901L309.088040,451.479478L309.096922,450.643482L309.186547,442.240491L309.192668,441.668768L309.219552,439.160996L309.238596,437.387802L309.263784,435.046520L309.263784,435.046509L309.263785,435.046508L313.341951,428.113971L310.257172,427.982045L309.924206,427.967746L309.910362,427.967151L309.167755,427.935219L309.703348,426.765108L312.123041,421.475343L312.178528,421.353974L312.017905,420.902176L310.283361,416.020010L309.000135,412.404286L308.812756,411.876037L308.595307,411.262924L307.714794,408.779295L304.366764,399.321387L304.651743,398.223716L306.543371,390.932420L313.791691,383.991987L315.461222,382.391269L322.854730,375.293004L323.938111,373.106685L324.737773,371.492281L327.363305,366.187838L329.003402,362.871291L329.286684,362.298213L332.439407,361.603756L335.040531,361.029955L336.744971,360.653545L338.880488,361.855593L343.013256,364.179639L346.357658,366.058209L346.450118,367.989244L346.515895,369.362061L339.399257,377.005597L342.456458,382.735297L341.506884,383.585878L340.339498,384.631242L335.370570,381.504925L325.741478,384.784874L323.778567,385.452060L327.965418,390.883382L329.975913,393.488495L332.118205,393.572286L333.623007,393.630860L335.885272,390.825870L337.126321,389.286217L337.217635,389.172909L342.394299,390.356169L347.924715,391.616905L347.832395,392.346004L347.088019,398.222198L346.142314,398.462409L341.988788,399.516183L345.991805,410.836904L352.308728,406.375391L352.308822,406.375325L350.480749,398.390414L349.646565,394.741316L349.401064,393.666734L349.826320,392.914339L355.010354,383.732214L356.108441,381.784840L357.057376,380.101294L366.649621,378.785883L369.559447,384.415591L369.131862,385.632137L368.195120,388.296311L365.512076,388.544624L365.431449,388.552075L363.810035,388.701756L364.909062,392.736200L364.909090,392.736234L369.620284,398.411011L369.749838,398.566931L370.923722,399.979392L374.300751,399.851397L376.393605,391.589585L377.564025,386.963896L379.854609,377.900071L383.933327,374.916563L388.458471,371.602406L395.616652,361.347997L396.221603,360.480193L403.222380,350.424081L403.478409,341.693132L409.922779,326.091418L406.600070,322.447109L406.183984,321.990465L406.066335,321.861337L401.058549,316.360229L399.891754,315.077168L398.378021,313.411850L393.770835,303.733659L390.627706,303.066147L388.088917,302.526165L384.081567,301.672346L375.048665,303.042262L374.135864,303.180205L369.347979,303.902284L368.307041,304.058945L365.012705,304.553969L364.257996,304.667211L348.981361,306.946214L334.716582,301.429311L334.716581,301.429311L327.833050,292.483672L327.600131,291.124644L326.667399,285.677223L321.752923,282.635918L321.078149,286.497655L318.559033,289.304779L316.890567,291.162789L315.367191,292.858386L310.920138,297.803605L310.884857,301.064011L310.849208,304.367722L310.812964,307.736241L309.197819,298.809399L308.900960,297.166266L310.069680,295.101927Z M360.238578,463.013856L359.937072,462.635490L359.163229,461.664193L358.250009,457.933554L358.176591,457.633481L356.598399,451.177585L352.375229,433.850056L352.374965,433.850313L346.516499,439.568164L346.516498,439.568165L348.088691,450.232738L351.920175,451.338032L354.000199,451.937329L356.830129,457.902340L354.221725,467.249760L352.343458,468.236809L351.469836,468.695717L346.626261,471.237830L346.449656,474.340794L346.156630,479.488606L346.041465,481.511558L345.827153,485.275747L348.349613,488.506199L348.349666,488.506267L348.349753,488.506379L350.874097,491.736303L354.538513,492.467482L358.719861,493.299981L361.435988,480.623013L363.236660,472.203963L367.614271,467.074754L367.354720,465.818906L366.936318,463.793599L366.273219,464.161937L364.553605,465.116812L362.724504,466.131948L360.238578,463.013856Z M506.039386,254.318370L495.293131,257.709426L491.515861,257.149298L489.993119,256.923055L487.262093,259.135604L486.826021,259.488725L487.022042,259.833016L490.645772,266.192305L495.453830,266.228053L498.123253,263.228542L502.688475,258.092832L506.039386,254.318370Z M316.468976,497.042404L317.838417,491.085508L317.903362,490.802862L317.775998,490.432402L316.341567,486.257757L315.795063,484.666114L315.052876,486.736066L313.446661,491.213029L306.729463,492.474054L304.699655,493.882819L305.428394,495.785559L306.927490,496.094374L314.988325,497.750596L316.468976,497.042404Z M281.966807,477.547618L285.451557,477.384071L286.670584,475.673534L285.204707,474.796985L282.947999,473.446788L282.622975,473.575895L280.599213,474.379461L281.966806,477.547618L281.966807,477.547618Z M335.319546,447.639672L337.294498,446.193922L331.034088,443.718800L330.906021,443.668112L329.764407,443.931557L329.998996,444.671518L329.998996,444.671519L333.269284,447.724097L334.645009,448.008761L334.777677,448.036202L335.319546,447.639672Z " data-nuts-id="DK042" data-shape-area="8.56743296126e-001" data-shape-leng="8.83377720548e+000" data-stat-levl-="3"/><path d="M371.578370,0.000000L364.553658,1.993927L336.613369,24.225587L335.267265,25.292057L316.608063,35.370568L303.623758,38.348098L284.229635,35.374847L284.229634,35.374847L280.320404,40.266858L278.817727,42.145636L261.047991,64.292829L258.172073,69.812582L257.853740,70.423158L257.722884,70.674123L247.733380,89.793054L247.537280,90.167589L245.549123,93.963140L223.110065,126.252551L223.110065,126.252552L223.110043,126.252568L204.474194,139.845175L187.464463,142.185770L187.460821,142.186268L170.447318,144.496183L163.116022,141.841736L155.385845,139.035086L154.827358,138.832002L149.064752,138.856999L146.728474,138.866148L144.244508,140.387353L140.183945,142.871717L132.017751,147.859147L117.112682,151.557571L101.042888,144.502713L99.485652,143.817035L95.222139,144.731580L82.791072,162.299486L79.540263,163.002137L79.287242,163.056776L78.688080,163.186135L77.463291,164.669655L62.339082,182.942717L59.543920,188.629033L55.389016,197.070127L49.807195,208.388786L49.072169,209.877433L44.603793,218.918166L43.511309,221.126195L42.542763,223.082956L41.350521,225.490653L39.234980,240.526134L41.333927,246.163509L41.682355,244.319640L44.437466,229.727912L44.918145,227.179973L50.462592,232.628472L50.791028,234.669125L50.912721,235.424870L51.099106,236.581991L51.659623,240.059022L52.179082,243.277659L55.069231,248.030010L56.725447,250.750486L57.501432,251.266090L63.357077,255.152917L63.581209,253.867449L64.099116,253.491019L70.438104,248.879210L74.605278,251.428651L78.514739,253.817454L79.668486,245.961094L78.005383,244.989215L76.940325,244.366555L74.223792,242.777474L76.002608,238.723413L77.629790,235.012319L74.179505,227.721399L74.179507,227.721398L79.232201,223.260537L83.171828,219.777909L83.910553,219.776555L86.297408,219.771793L88.684042,219.766438L88.684043,219.766438L88.684045,219.766436L94.238875,212.691025L95.342111,211.284317L97.250941,208.849261L96.915153,206.113857L96.636651,203.843003L96.518995,202.883073L98.104704,199.302993L98.104773,199.302836L98.898601,197.509708L99.208905,196.808620L99.650305,195.811182L99.847157,195.366292L101.589925,191.426008L103.171033,187.848736L110.592238,188.044753L115.995242,188.183847L119.071754,188.261686L126.212689,184.328273L127.681965,183.517922L126.709745,181.131723L126.616406,180.902552L125.589259,178.379679L132.511213,179.145577L133.636133,179.269563L133.636134,179.269564L134.220566,180.933853L135.209472,183.748213L136.638570,181.917619L140.712965,176.693967L141.358477,175.865752L141.358478,175.865751L143.486419,175.279742L144.175374,175.089897L145.529000,174.716733L152.824107,172.701876L161.796675,170.215008L163.759134,169.669806L167.522248,168.623064L168.995143,170.038367L169.426350,170.452582L172.361477,173.270494L181.049597,181.595733L189.020399,178.495156L199.586878,174.371723L201.106786,173.777363L207.008624,171.466499L222.160501,170.172677L231.795801,169.337332L232.334417,163.265904L232.386136,162.682826L237.869995,158.814510L238.263549,158.536662L241.078080,158.279075L241.293998,158.259280L240.630586,160.017447L240.478006,160.421731L240.147769,161.296640L239.316340,163.498738L243.957341,166.870273L250.078823,165.917455L254.487322,156.028844L264.947023,163.073767L264.948375,163.074676L266.101008,163.849636L267.631393,164.878151L270.856660,167.044164L272.138106,167.904163L275.423558,170.107548L276.744170,168.426690L278.865110,165.725658L280.482011,163.665261L286.803961,162.162997L290.026816,165.267810L296.131623,171.140107L308.097534,182.616594L310.873723,185.272884L316.183134,188.167729L318.692028,188.113215L327.967521,187.905998L328.491887,187.894016L336.861252,163.477811L337.316173,162.147385L341.903178,148.713587L351.325469,135.633973L352.413735,134.835659L359.167011,129.876044L358.256247,118.512261L357.761656,112.322513L356.729530,99.362904L356.142818,91.970018L356.788794,87.945668L356.920525,87.124696L358.121579,79.634848L362.826490,75.192354L359.073115,69.490182L358.533906,68.670271L358.021028,67.890226L355.115791,63.468427L352.436642,59.385940L348.308781,53.086865L346.510623,37.251552L358.177074,17.474848L369.074969,8.198933L376.704063,1.687395L371.578370,0.000000Z M288.071085,165.893358L286.661194,164.435380L279.698144,169.078883L278.629790,169.790515L276.759001,171.036122L272.710578,169.866770L272.604646,169.836146L270.942573,169.355469L268.138446,168.543739L266.359372,169.927154L265.066001,170.932440L264.441994,171.417322L263.596820,172.073921L261.414860,171.508592L258.542091,170.763418L254.504901,169.714543L253.979520,169.577905L250.675924,170.335628L243.240248,172.036526L239.439854,177.811681L235.395192,183.949503L233.091705,187.441152L231.894909,189.254147L231.800661,189.320671L230.636393,190.142322L226.117326,193.328931L225.877309,194.559482L224.859824,199.773747L220.667905,192.213601L222.686684,189.834223L222.832414,189.662404L227.217491,184.488613L220.435810,179.509282L220.435809,179.509282L209.241940,176.954219L206.540255,176.335374L201.095075,177.505919L193.440080,179.145830L188.557675,180.188315L187.362514,182.806225L186.757944,184.129981L185.713426,186.416231L181.358013,189.820988L181.012728,190.090726L179.009551,191.655093L178.609755,191.967204L178.036659,192.414544L174.629336,195.072676L173.454752,197.482806L170.519298,203.501004L169.433432,205.725393L169.433424,205.725409L170.598269,207.883938L175.267060,216.522734L172.878957,220.644388L169.938450,225.714433L170.101241,228.534979L170.586806,236.924246L171.225904,237.190868L177.307335,239.725039L178.089386,240.050543L178.218183,243.636671L166.211370,257.601795L168.702186,262.092831L174.421638,258.993019L182.900449,254.387959L182.901401,254.387441L187.799553,261.243989L189.595748,262.199069L201.538733,268.535814L205.872869,270.829584L206.146980,270.086723L207.254245,267.084942L208.826490,262.819800L209.033595,262.257725L209.272393,261.609566L211.486310,261.205123L215.904087,260.396458L217.136781,262.570018L220.488937,268.474293L221.777073,270.740631L229.192161,272.656806L230.217131,272.921162L231.117431,273.153262L235.138802,274.188812L235.741732,277.717652L235.722233,277.723442L233.672125,278.331901L233.333577,278.432331L233.305012,278.440804L231.380112,279.011553L231.245371,281.112208L230.926842,286.078479L239.157427,284.030427L242.994944,289.237669L245.418849,292.522752L251.520883,291.459188L256.466549,294.431612L262.802070,293.384002L263.060364,292.600575L264.307582,288.816123L267.471373,287.919897L273.260355,286.276917L274.930264,285.802232L279.224305,284.580082L280.969492,284.082743L285.546888,282.776555L285.546890,282.776555L285.546891,282.776554L285.546897,282.776551L290.933876,279.843827L292.224837,279.140313L295.340718,277.441182L295.340723,277.441179L295.340724,277.441177L297.399111,274.895229L299.602330,272.168266L301.781548,269.469098L302.557012,268.508153L302.649616,268.393384L303.631316,267.176491L307.072709,262.907562L307.072709,262.907560L305.627884,260.879709L303.162645,257.417018L297.440087,255.648521L297.081011,255.537417L296.043954,259.325375L296.043953,259.325376L296.043928,259.325403L294.181282,261.380688L291.075089,262.928048L289.552958,261.978657L288.465394,261.300047L287.528456,260.715245L286.380820,262.387167L286.369148,262.404169L286.194416,262.658665L284.342789,265.354605L283.694453,264.418411L282.622367,262.869791L283.291669,260.303359L289.158397,258.006631L294.933270,255.741340L297.895495,254.577615L301.071966,254.160521L303.062101,255.889184L304.387327,257.039701L305.841323,258.301465L309.504243,255.350868L310.697466,254.389015L313.155109,254.914182L313.716345,255.034014L326.130700,257.675533L323.997770,250.374710L319.553848,235.119229L319.255579,234.093149L319.063896,230.346562L318.476024,218.817833L318.098636,211.386089L322.473055,196.461886L324.691720,188.877072L309.326185,187.790435L288.071085,165.893358Z M137.167527,197.593640L136.795997,196.517871L134.746674,190.578272L134.337245,189.390443L129.026349,188.542776L127.856261,190.741975L124.097016,197.800873L122.665939,200.485406L120.898907,200.732876L118.146752,201.117640L115.630199,201.468751L114.114942,201.679831L105.408669,202.887843L98.179982,203.884630L99.205963,211.378410L99.205953,211.378424L97.532184,213.572583L95.387150,216.382817L93.404058,218.979185L94.732469,219.647289L101.072722,222.832120L94.539708,226.809726L93.188996,226.399913L90.014131,225.435749L86.097274,228.016446L84.680613,228.949130L84.800401,229.658769L84.981174,230.729381L85.638092,234.616701L78.934515,237.078843L77.599381,243.037703L79.352181,241.665988L81.389214,240.070986L82.868002,238.912516L85.990570,241.396849L87.388770,243.419957L85.772194,243.855014L84.727645,244.135962L83.880213,244.363797L85.371008,248.371207L88.009230,248.126803L92.068840,247.749286L93.777203,252.317251L93.886238,252.608602L93.886326,252.608838L94.059437,253.071356L94.295663,253.702410L94.766199,254.959072L95.706241,257.468341L95.706242,257.468343L105.362495,254.673073L114.151930,252.118959L113.331132,249.566624L116.223457,245.952705L120.424699,240.697478L121.374740,239.508134L122.719099,237.824543L129.152582,229.757798L129.403222,229.443198L127.523539,223.258427L125.206895,215.621086L124.981330,214.876580L123.620504,210.381690L128.220386,204.932539L128.838598,205.201454L131.720939,206.454497L131.251283,211.583757L133.053914,207.324907L137.167527,197.593640Z M447.504945,108.291990L437.265511,108.468333L424.782912,108.668572L411.257306,113.217740L409.854897,114.873763L405.323185,120.219809L402.884108,123.093905L412.583181,126.823066L415.728592,130.686370L417.961484,133.426238L428.217069,129.659522L432.494332,123.248989L432.115405,121.412250L431.856539,120.156971L431.076497,116.372020L439.273278,113.585782L442.654030,112.434097L445.704958,111.393514L446.198331,115.917938L446.356936,117.371203L446.608534,115.382528L446.632664,115.191765L447.504945,108.291990Z M263.192890,169.497924L266.553577,168.043353L266.814284,167.930447L267.177593,167.773091L267.100345,167.660186L265.538046,165.375959L263.649089,164.527377L263.232318,164.340079L262.952599,164.385775L261.442825,164.632271L259.252983,164.989357L259.226480,165.116934L259.179210,165.344476L259.081175,165.816348L259.327931,166.366005L260.047520,167.968460L261.200159,168.624682L262.803641,169.537190L262.932558,169.610534L263.192890,169.497924Z M160.983952,206.065748L158.752181,202.048223L158.706539,201.966015L158.648426,202.037836L156.502620,204.688856L157.675270,206.658941L159.503353,207.563041L160.270087,207.942080L160.983952,206.065748Z M419.256653,137.750174L420.203463,137.625484L420.810372,137.545507L424.632389,137.040940L425.258219,135.550691L423.997084,134.617565L423.922880,134.562650L423.794159,134.595271L420.143613,135.519607L420.004410,135.554823L419.949704,135.696345L419.201691,137.630997L419.150183,137.764189L419.256653,137.750174Z " data-nuts-id="DK050" data-shape-area="1.17800089907e+000" data-shape-leng="1.30000771658e+001" data-stat-levl-="3"/></g></svg>