<?xml version="1.0" encoding="utf-8"?><!DOCTYPE svg  PUBLIC '-//W3C//DTD SVG 1.1//EN'  'http://www.w3.org/Graphics/SVG/1.1/DTD/svg11.dtd'><svg enable_background="new 0 0 1000 651" height="651px" pretty_print="False" style="stroke-linejoin: round; stroke:#000; fill: none;" version="1.1" viewBox="0 0 1000 651" width="1000px" xmlns="http://www.w3.org/2000/svg" xmlns:xlink="http://www.w3.org/1999/xlink"><defs><style type="text/css"><![CDATA[path { fill-rule: evenodd; }]]></style></defs><metadata><views><view h="651.430008269" padding="0" w="1000"><proj dist="1.6" id="satellite" lat0="59.33418875" lon0="25.0133339444" tilt="0" up="0"/><bbox h="78.06" w="120.01" x="939.04" y="987.79"/></view></views></metadata><g class="" id="nutsregions"><path d="M612.438046,0.000000L608.332251,4.337504L610.329912,15.048158L610.429410,15.156384L611.438926,16.254279L611.843233,16.693888L614.986791,20.110106L614.617510,23.297757L614.206139,26.846062L613.114373,27.737807L608.225605,31.727545L600.614738,27.330687L599.563224,25.003705L598.361605,22.343151L598.341451,22.298515L598.287213,22.272274L586.307001,16.465999L585.862494,10.413529L585.686917,8.021151L581.855633,6.580139L581.349626,19.843318L581.349626,19.843319L590.379167,36.529440L591.078620,37.819436L587.910233,44.208984L587.348836,45.340174L586.015298,45.369585L582.018584,45.456690L581.970796,45.457723L577.105612,45.561627L576.601248,48.700404L576.368832,50.146084L576.168722,51.390463L576.129603,51.633689L571.390917,54.305969L571.390915,54.305970L566.595305,53.933097L557.686071,53.234348L556.690274,52.726792L550.812958,49.728143L548.030792,48.306874L548.030790,48.306873L540.481565,50.197621L538.361071,50.727585L538.361042,50.727591L536.241820,48.434390L530.213736,41.903416L527.893162,39.386084L527.811283,44.377714L528.134002,44.761140L531.154835,48.348340L533.128783,50.690541L530.230657,55.911929L528.753835,58.570258L526.115312,56.063382L519.331492,49.609283L505.301983,48.939824L505.795816,50.572747L506.198421,51.903611L500.643575,54.515781L496.514812,52.891428L492.943275,51.484542L492.943275,51.484540L492.203243,48.960650L491.183430,45.480414L488.666340,36.879857L486.565329,35.798156L474.697949,29.675843L474.602192,32.941211L474.315767,42.698107L475.896588,45.695961L477.744256,49.197306L479.465034,52.455721L480.971832,55.306995L480.971719,55.307197L479.652707,57.658395L473.497517,68.613900L463.023893,65.433177L459.450517,59.131420L455.027055,62.486681L456.843094,66.030276L457.038943,66.412264L457.300989,66.923311L454.237443,72.914685L442.805468,64.486202L440.481774,62.769737L440.480822,64.169686L440.478987,66.882174L435.495484,70.055018L428.003454,66.857321L424.429294,61.969246L423.368297,60.517057L415.735083,60.112915L415.729771,60.112632L415.728273,60.112552L408.088307,59.702324L406.172350,66.850199L405.864188,67.998947L404.253858,73.997737L401.248868,75.283167L384.663373,82.356285L386.635045,86.920764L389.962241,94.612902L388.331242,98.108238L383.469364,98.855117L376.122334,92.212397L374.728700,90.950782L371.298435,89.412113L358.288114,83.561581L358.288112,83.561580L358.339416,88.812054L358.339417,88.812119L358.339418,88.812275L358.390893,94.062955L360.270565,95.813609L367.598598,102.629567L369.634657,109.117393L369.634645,109.117417L369.342979,109.685949L364.162825,119.771958L363.026946,118.865440L358.297954,115.088250L356.383081,113.557360L353.364339,114.870701L346.709002,117.761880L346.481904,117.860430L343.418315,119.189217L336.073214,117.888341L328.659936,116.569729L318.770140,114.801753L317.766355,116.110486L315.358127,119.248617L315.358125,119.248617L310.384738,118.181773L309.968367,118.092337L311.957904,124.157556L309.699949,129.025057L309.777782,138.330024L313.466170,138.361637L317.409508,138.393971L317.545248,138.395057L317.543868,138.557041L317.461471,148.244900L325.177102,148.008568L325.177103,148.008569L336.228110,161.177579L336.958472,162.046286L336.958483,162.046300L343.225394,158.842323L358.481055,160.686237L369.644780,166.943464L369.553018,169.757928L369.244625,179.212280L376.380646,185.193469L365.986982,195.327068L363.737964,197.515873L364.757773,204.835662L374.430765,193.442226L381.589813,191.460511L383.835482,194.258703L385.485992,196.314009L385.912848,196.845374L388.653763,196.415309L393.751522,195.613407L395.823066,195.286788L400.283470,190.196487L404.741697,185.101815L405.073699,181.281928L405.683094,174.264312L418.285845,172.871089L427.572544,171.834339L435.851473,173.293605L438.303853,173.724511L439.350903,173.908299L439.420896,164.939646L439.256704,164.822193L434.556501,161.457684L434.706319,160.892381L437.681048,149.655191L439.047045,144.486877L443.474249,145.412883L443.474250,145.412882L448.291298,139.606885L451.092285,136.226832L453.938575,135.936590L462.841440,135.023555L470.769880,141.148812L473.385213,143.166392L475.677444,140.592588L473.955502,135.532878L479.703572,134.606961L485.450618,133.677829L485.450620,133.677828L488.779758,133.766800L488.781317,133.766841L492.108689,133.854687L491.077003,146.362431L491.454331,147.469293L493.503039,153.474601L494.236346,155.622314L494.236347,155.622317L507.841450,159.598879L510.462836,163.744169L512.123664,166.368428L515.132091,171.117944L517.099354,171.651059L524.660305,173.696017L537.332508,177.109125L537.332507,177.109126L534.397247,181.020296L534.746591,182.379532L535.168357,184.020062L536.047611,187.438368L537.129919,191.642940L547.907258,195.525803L552.717474,202.970379L553.665567,203.494767L553.767249,203.550998L556.423143,205.019179L557.895396,204.145297L564.318563,200.328519L568.852586,193.915870L568.365980,189.820239L567.518827,182.682730L567.221479,180.175301L566.955755,177.933578L568.481509,177.362105L573.071267,175.641260L573.550225,176.326140L574.955926,178.335558L577.366193,181.778739L581.508210,172.095439L581.508211,172.095437L577.628276,169.844444L576.324987,169.087777L574.790736,168.196666L574.790733,168.196664L586.391036,142.074971L588.187116,138.017224L579.735889,123.329047L578.563271,121.287240L578.563269,121.287237L578.563270,121.287237L582.244486,120.860535L595.778572,119.280114L597.492201,120.376023L598.003808,120.703108L604.938523,125.132129L606.158656,119.947140L606.199872,119.771895L616.898195,117.385482L621.254095,116.410327L623.292752,114.135498L625.227843,111.974912L628.944696,112.502562L643.027660,114.489113L643.027665,114.489114L644.267988,115.707999L646.455293,117.856442L647.820527,119.196738L653.380275,117.481153L653.380275,117.481150L649.943214,97.330346L648.870362,91.025917L647.078798,87.978687L646.575228,87.121804L645.890666,85.956683L641.851317,79.075578L642.840802,75.074606L643.083370,74.093257L643.643242,71.827405L641.977151,69.411313L640.802341,67.706827L635.762254,67.609617L633.648253,51.275699L628.404721,43.361590L627.819319,39.396869L630.419409,37.310355L630.886492,36.935369L633.784044,34.608045L634.858967,33.744181L633.027683,31.383750L624.722524,28.799639L623.703664,17.200076L623.345177,13.113647L622.942580,8.521234L617.108481,3.791708L613.554119,0.906535L612.438394,0.000282L612.438204,0.000128L612.438046,0.000000Z M438.566658,39.448021L439.160906,38.961147L434.924524,26.566580L431.803732,19.332784L430.920888,19.018929L427.270276,28.134005L426.965773,28.893534L427.362821,34.123902L430.039881,37.372083L434.038998,40.065617L438.566658,39.448021Z M341.990543,110.284523L344.188219,107.515857L344.201986,107.498507L344.195033,107.458639L344.149619,107.198258L342.809512,99.507920L339.650076,97.011537L337.282841,95.139653L337.252527,95.115675L337.109243,95.147621L333.924601,95.857084L332.297374,96.219173L331.863338,97.111045L331.663426,97.521776L333.025631,100.633603L333.025642,100.633629L333.025646,100.633633L337.497498,106.165813L339.725444,108.919017L341.415986,109.982580L341.943335,110.314246L341.959080,110.324148L341.990543,110.284523Z M352.826444,106.640228L352.918065,106.636393L352.929848,106.550992L353.373476,103.334687L351.460284,96.061146L351.460284,96.061145L351.460282,96.061143L349.815940,94.224025L349.288782,93.634866L348.148366,93.113320L345.237812,91.781419L345.103741,91.720039L344.952422,91.948545L342.625408,95.461034L343.390251,97.185017L347.162419,105.677882L347.177826,105.684830L349.595990,106.774932L352.826444,106.640228Z M511.961095,17.848536L512.142229,16.460316L512.163893,16.294259L510.827590,14.381805L510.526705,13.951070L507.760260,9.988611L503.184407,8.486972L503.184406,8.486972L501.929210,6.940904L502.989868,9.008164L503.667990,10.329352L506.304321,15.462037L506.457088,15.759280L506.486675,15.816848L510.863992,18.690536L511.961095,17.848536Z M469.717237,29.117703L472.988016,26.054938L473.107906,25.942618L473.072112,25.863385L472.418868,24.417136L472.111081,23.735552L469.928981,24.426956L466.238050,25.595167L465.945916,27.330460L467.323760,29.237851L469.717237,29.117703Z " data-nuts-id="EE001" data-shape-area="6.81184501073e-001" data-shape-leng="7.99969608566e+000" data-stat-levl-="3"/><path d="M302.226177,129.392472L298.906329,125.598907L292.423261,129.866108L284.371885,135.155071L284.371884,135.155071L275.158420,130.677425L273.272204,136.504363L271.413414,142.240466L272.882042,147.797492L277.523758,165.315410L278.874324,170.399569L279.511672,172.796833L278.125346,173.063729L272.400320,174.163791L271.211780,174.391740L271.211489,174.391796L262.908877,175.980039L261.547381,187.085588L262.226233,187.897963L264.828273,191.010158L259.835178,191.599660L257.685915,191.852643L269.193571,206.867196L273.432120,205.242771L279.599983,210.106674L279.599991,210.106680L283.138059,202.994548L283.287346,202.694229L285.450569,198.340402L289.834915,199.951760L295.478565,202.022455L297.652727,208.739766L296.124506,211.866085L293.691800,210.313327L293.041393,209.898005L289.861651,207.866480L287.553247,210.118406L285.959559,211.672248L283.771320,213.804637L281.367115,216.145967L277.816336,214.934881L276.169586,215.779147L272.918226,217.444904L270.193979,218.839412L267.815860,220.055851L265.124078,216.860551L264.757837,216.425590L262.175260,217.531477L261.947608,217.628918L261.845311,217.672702L259.735565,227.996756L268.503978,240.524317L272.238904,245.848615L274.909298,249.651056L274.909298,249.651058L276.200754,256.542369L271.704721,258.917419L270.085280,257.432188L261.854924,249.873236L262.090966,254.824547L266.254142,255.665082L266.787550,255.772645L268.069391,256.031009L269.348007,259.733204L264.683266,267.583139L263.582773,269.433142L264.723964,269.227432L264.871699,269.200792L274.129272,267.526933L288.722499,264.870384L295.020565,266.642506L300.389085,268.149568L308.716442,264.859199L311.919379,268.171236L311.183654,270.367581L309.921912,274.132128L309.332751,275.889051L303.122923,278.048579L297.361765,277.142320L295.471556,276.844246L284.531524,282.886101L281.401278,281.661921L274.507794,278.961639L276.551887,284.687855L281.204159,287.057678L282.569242,287.752434L275.447977,290.662786L275.390386,290.614689L272.678570,288.349070L269.804269,294.027095L270.109726,295.551482L271.234353,301.159411L274.495000,317.378416L274.495000,317.378419L274.110159,320.006351L272.842966,328.652180L277.131707,330.583731L280.028229,331.886846L280.251587,332.967895L280.757541,335.415734L281.275431,337.919934L284.060416,339.804157L285.678381,340.898154L292.434899,345.461375L292.968055,345.821098L294.889074,344.426475L297.154439,342.780938L297.590600,344.162296L297.751453,344.671624L297.935993,345.255890L298.324072,346.484325L299.324032,349.648111L299.389316,349.854587L299.422603,349.959864L299.053521,353.846770L298.638188,358.218352L297.309804,372.183141L305.929323,396.764981L306.984681,399.765737L306.984682,399.765739L309.999262,402.095167L311.989183,400.685400L314.132101,399.166399L319.727676,395.195874L320.847416,394.400610L324.272956,398.880165L327.877289,403.588064L331.662635,408.526382L332.880177,404.496700L333.207082,403.414239L339.245030,404.385243L340.495746,405.874932L341.473612,407.039231L347.381393,414.065784L348.898208,407.388675L356.871113,424.300484L356.871114,424.300486L364.611661,431.098923L374.318870,422.115248L375.882286,424.110882L379.094049,423.027809L379.445941,422.909070L381.829711,422.104329L382.346201,421.929878L389.372394,419.553570L390.421356,414.694775L393.115714,402.194956L395.825063,389.597067L418.927879,388.064142L422.361398,390.522477L436.495027,400.617776L439.143253,415.458162L439.143252,415.458163L431.192535,422.408488L429.480993,423.902693L424.438318,428.300956L421.884383,430.526200L423.602795,433.144300L421.962696,436.914623L420.984958,439.160915L419.255061,443.132742L419.255060,443.132744L422.189835,455.358340L422.656781,457.300717L422.889460,458.268314L422.866216,459.998841L422.816161,463.725264L422.753010,468.426150L422.603321,479.566557L422.544724,483.926705L422.544724,483.926712L413.357355,504.620677L412.183652,507.258135L410.470001,511.106398L408.511610,518.007309L407.840324,520.370710L403.709684,534.890535L402.878336,537.808093L401.858992,541.383239L403.014009,541.841957L405.899872,542.987354L411.222663,545.097224L419.060431,540.468989L417.762471,535.578452L416.820164,532.024913L419.551799,526.943819L427.702712,525.276249L428.859033,521.753236L428.962489,521.437914L428.962489,521.437913L431.242416,520.220950L439.326320,515.899722L443.286498,519.209033L448.657667,518.513633L454.200441,517.793019L455.708757,516.651009L458.621058,514.444673L464.498275,509.986876L475.124134,507.482843L475.124136,507.482845L479.242590,512.849646L480.549462,512.070969L497.613607,501.878041L497.680844,501.862946L509.092882,499.293866L513.236574,492.550691L510.594282,487.301888L508.165828,482.472686L509.772564,477.016095L509.772564,477.016093L515.458664,468.525098L516.557535,468.528033L525.716186,468.547981L524.095182,463.128667L523.214620,460.182367L522.853070,458.972153L526.498396,453.200839L529.974673,447.690066L531.020809,446.030319L534.366149,446.162975L538.745159,446.334991L539.360250,446.359004L544.130589,446.544005L545.918232,439.606520L546.543499,437.177709L546.522995,437.131222L545.306203,434.371663L544.975395,433.621153L544.737110,433.080482L543.920544,431.227221L543.920541,431.227213L548.879255,427.843325L548.242325,424.327518L548.116176,423.630912L547.605826,420.811781L539.926243,419.482834L533.781050,418.415083L533.781049,418.415082L528.037338,408.348331L526.956963,408.132538L512.157825,405.164369L504.319485,406.842747L502.700460,407.188616L502.740620,405.026462L503.015455,390.206996L503.195839,380.458492L503.276814,376.076695L505.971667,374.782371L505.971750,374.782331L507.919537,373.846185L508.665872,373.487340L508.448020,370.486241L508.426284,370.186718L508.317553,368.688123L507.875500,362.591078L507.572695,358.410523L510.843864,353.244993L511.300469,352.523477L516.563912,350.390440L521.298805,348.468574L521.326905,348.457160L522.359634,348.037596L526.598881,346.313900L530.507144,344.722744L533.470488,338.725470L534.327851,336.988873L536.342681,332.905248L544.682492,331.715448L544.231313,330.844650L541.983691,326.504195L539.789859,322.263698L539.282390,321.282252L544.741654,314.912812L544.741655,314.912811L549.423730,303.115547L554.095668,291.314692L539.073838,286.061652L537.711950,285.584068L536.585488,285.188874L532.773031,286.695855L530.542965,287.576498L518.170158,285.752246L513.718661,289.960400L513.096649,289.981476L509.328078,290.108367L506.109142,290.215662L504.469600,290.269926L503.256601,292.169087L498.292718,299.932249L495.075938,304.955646L491.649665,297.344329L491.785679,296.123232L493.214315,283.280257L493.214314,283.280256L488.776939,279.661066L484.319519,276.021071L478.132251,280.975392L476.361711,282.391569L474.800239,283.639952L472.703468,282.954038L469.668885,281.960425L468.233322,281.490003L465.786278,280.687569L461.626542,279.321897L457.306233,277.901356L453.835690,282.896478L451.819975,285.794972L437.974282,291.694180L440.101247,286.498443L434.531571,281.045202L434.531570,281.045201L431.704664,282.999991L425.145393,287.529914L424.006418,290.326216L423.215893,292.266108L420.525282,298.862977L409.081255,306.231589L399.386552,302.574525L397.315612,301.791808L386.684218,297.765260L385.561877,297.339363L377.960150,299.970828L369.457743,292.426180L370.735744,289.941214L374.405868,282.797741L375.255229,281.143026L372.983828,275.909289L370.733008,277.365634L367.875109,279.213491L361.013153,276.404082L367.870694,269.274534L370.642626,266.388644L369.634616,263.427441L368.701162,260.683585L371.658223,253.826826L376.403822,253.211624L378.642127,252.920676L378.642128,252.920673L379.610724,248.363525L373.469272,242.660385L370.312496,234.895800L369.663902,233.298857L364.421819,220.371563L362.822903,216.421274L361.087464,210.984312L364.757773,204.835662L363.737964,197.515873L365.986982,195.327068L376.380646,185.193469L369.244625,179.212280L369.553018,169.757928L369.644780,166.943464L358.481055,160.686237L343.225394,158.842323L336.958483,162.046300L336.958472,162.046286L336.228110,161.177579L325.177103,148.008569L325.177102,148.008568L317.461471,148.244900L317.543868,138.557041L317.545248,138.395057L317.409508,138.393971L313.466170,138.361637L309.777782,138.330024L309.699949,129.025057L303.840951,131.236233L302.226177,129.392472Z M245.513186,317.073534L245.513182,317.073526L247.851949,312.572953L247.936497,312.410177L248.296649,311.716733L245.958552,305.658306L245.958551,305.658304L224.016436,295.085445L221.841609,294.033777L215.929564,295.008230L212.856100,300.454592L212.856169,300.455046L213.434718,304.311968L213.880477,307.281156L214.421188,310.879904L208.071006,310.856000L206.230058,310.848340L205.794539,311.617265L202.112092,318.113845L210.315854,326.870698L212.204316,326.559772L214.970586,326.103663L216.598144,328.977697L214.374936,331.782632L212.378548,334.299777L202.644178,330.771778L199.890161,328.343588L187.980800,317.821323L184.951602,315.139249L184.504445,314.743137L184.418207,314.666738L182.733835,313.174154L176.861716,313.184666L174.662781,313.187743L173.793035,313.188831L166.875380,313.194880L163.252859,311.334770L160.611763,309.977380L159.662431,310.700594L157.793103,312.124134L155.406972,313.940199L151.676185,325.097005L146.795020,322.496535L142.268107,320.081554L134.077473,323.135841L125.592077,307.798315L124.571974,305.950676L119.039398,303.433009L116.570947,308.111049L110.069815,320.410832L91.423680,322.339158L87.509440,322.739591L80.076994,323.495775L78.666842,323.638629L78.068472,329.380574L77.407102,335.723930L78.221080,334.923466L80.415312,332.764769L82.591170,339.256336L82.591171,339.256337L80.549308,343.326778L77.662747,349.075689L70.703324,347.138894L70.473250,341.655297L70.321592,338.033011L70.128040,333.401166L65.211586,330.328428L64.495991,331.843251L60.376744,340.554827L51.058617,348.929659L49.717723,356.502966L47.548356,368.740303L43.992696,368.060803L43.992694,368.060797L32.518004,340.141105L21.525384,337.486285L19.826182,337.074747L19.895970,338.045649L20.123329,341.206290L20.312415,343.832067L20.440582,345.610441L15.489774,348.487094L9.405498,343.719373L7.560130,342.271712L7.559528,342.271240L7.558795,342.270665L7.301479,348.249134L9.972407,350.826385L11.159249,351.970949L11.540724,351.708710L11.936382,351.436693L13.305374,350.495283L14.686049,349.545491L17.059269,351.522672L17.059272,351.522679L20.559710,360.628887L20.751023,361.126011L23.158519,367.376854L24.771047,371.558467L29.824604,374.042199L29.941028,377.041705L30.137733,382.099092L30.444913,389.970802L28.327327,391.905374L27.341077,391.073314L20.785209,385.536491L20.785208,385.536490L20.785211,385.536502L20.785358,385.537029L22.777323,392.692300L22.779134,392.698801L23.951032,396.902545L19.069503,398.925795L18.025452,394.375362L17.872116,393.706622L8.806634,386.077830L13.607728,395.937643L14.320003,397.398441L15.694002,400.214924L13.361802,403.505934L8.030862,399.904370L6.089040,398.591164L5.889869,398.456430L2.954255,399.695503L8.339302,413.568566L24.637055,422.332792L28.426003,422.015848L28.396449,419.997026L28.385901,419.275459L32.663526,421.358629L36.401179,430.371197L37.151140,432.177277L38.477420,435.369395L38.694459,435.891541L40.145608,439.381033L51.706139,446.789806L53.088682,447.674254L55.602561,447.676634L59.393609,447.679070L62.363219,447.680011L62.416998,447.933509L62.449427,448.086364L63.501190,453.040759L63.574543,453.386063L62.249481,455.157517L54.089420,466.050861L53.902634,469.425845L53.894374,469.575099L53.604880,474.806399L50.764037,474.798837L49.049113,474.793896L48.473376,474.116863L47.115015,472.519019L43.547637,468.319401L40.029739,473.821114L37.441936,477.864192L22.941243,500.456458L25.221952,511.490269L26.105215,515.755189L27.329913,517.105235L30.245729,520.317436L32.891406,523.229544L38.416834,516.896024L41.993445,512.791033L45.748042,508.477266L45.748045,508.477263L51.597974,504.958146L57.180338,501.594813L56.720339,495.313630L56.323102,489.878429L61.797282,478.682292L62.592262,477.054387L66.678871,468.678238L67.183520,462.944637L68.237895,450.958917L68.920940,443.189713L77.869869,433.097141L85.284505,429.943689L92.441135,430.206327L95.814672,430.328415L98.266909,430.416470L98.633585,429.890525L99.378177,428.822324L100.523291,427.179038L103.597485,422.764485L106.593315,427.377528L107.343850,428.532400L107.490122,428.757435L109.526331,431.888793L111.322639,427.951043L111.343058,427.906265L112.087387,426.273734L114.507262,420.962792L115.375139,424.124176L115.762286,425.533669L116.204468,427.142962L117.287491,431.082007L122.588656,430.571585L123.829266,430.451734L125.569547,426.161592L125.784362,425.631800L126.455337,423.976664L126.722231,423.318163L127.164261,422.227380L132.221025,422.201890L132.221027,422.201890L133.431402,424.418868L136.806697,430.595105L137.009540,430.965989L138.602062,433.876675L142.736588,434.500803L147.500096,431.413629L144.826120,424.479832L144.144161,422.709712L141.267882,415.236061L145.948907,413.688291L159.726971,420.202816L161.046907,411.520626L161.047000,411.520019L162.791108,409.365037L167.583922,403.437351L169.531432,405.617414L171.023954,407.287272L172.653525,409.109584L175.533185,408.025924L178.794077,402.814152L184.268445,394.051574L183.468526,393.010615L182.731036,392.050650L180.396322,389.010069L182.126466,383.659929L186.236724,387.691491L187.239467,388.674300L190.025235,391.403180L195.735441,388.250545L196.473612,381.717822L199.976229,381.393784L199.482387,383.286812L199.014253,385.080744L203.048200,385.975091L203.639287,379.314240L202.990295,380.127095L202.140591,381.191098L199.855516,377.996724L201.194529,372.585386L201.460928,371.508216L202.089789,371.550989L205.508068,371.782814L205.951972,373.228249L206.699706,375.661953L212.493539,362.476979L213.170181,360.934980L214.083922,358.851934L215.141477,356.440000L215.141478,356.440001L219.332740,363.317416L223.737870,370.533627L228.856282,371.845100L228.972024,371.302085L229.792824,367.449873L224.629886,364.589925L226.181736,364.148223L230.306435,362.972903L236.499235,370.361840L238.450200,372.686623L240.563188,366.322974L241.258139,364.228410L241.258136,364.228404L240.267207,362.507478L237.515943,357.725766L236.015619,355.115935L235.454503,354.858841L227.781188,351.338722L225.619203,350.345456L214.021883,345.006411L210.544199,338.175668L217.902159,329.038946L221.959727,336.489056L225.085615,342.219694L231.162242,344.269960L231.742089,338.543671L232.112652,334.882115L240.341761,338.078021L243.516036,339.308528L244.011735,339.500572L247.659113,340.912689L247.659115,340.912689L246.120479,344.652285L245.610433,345.891345L251.103963,348.119110L248.078924,342.430124L249.160061,341.201033L254.584243,335.028666L245.513186,317.073534Z M164.038031,197.600607L157.251129,195.692877L153.734453,194.702335L149.017958,193.371653L149.017957,193.371652L149.017956,193.371650L146.068129,181.404338L148.167965,177.786715L149.107194,176.167714L141.707191,169.690265L132.655362,169.405943L131.134682,169.357394L130.133042,174.655929L129.662204,177.145225L128.443982,183.581824L127.922379,186.335971L125.741985,186.405423L114.052881,186.769853L114.810505,189.997863L115.616848,193.430664L116.074223,195.376551L108.851233,196.332812L107.994035,196.445950L107.059064,196.569267L107.745195,198.363831L109.604849,203.223922L110.207202,204.796946L107.003691,207.486233L102.638172,211.147263L99.199878,214.027666L86.838831,209.356742L86.838823,209.356739L78.783609,211.314355L77.287676,211.677129L70.429338,213.337214L51.774897,208.996719L50.825741,208.774868L44.381713,214.166345L50.566719,217.911035L60.588849,223.965095L70.416929,229.885403L70.416930,229.885404L70.416934,229.885403L77.358659,228.583397L84.218766,227.291778L88.979582,226.392537L92.250481,225.773351L94.870435,225.276587L95.182698,225.432001L95.217741,225.449442L97.543601,226.606575L98.779475,227.221112L98.806387,227.234491L99.229515,227.444838L108.181725,243.036511L105.754042,257.906204L105.687875,258.311082L105.879426,258.489350L109.731316,262.072040L111.226328,263.461487L114.013644,275.814870L111.020034,277.814225L110.167635,278.383226L109.555812,278.791556L110.612115,282.018672L111.617768,285.088782L111.617768,285.088783L124.373177,290.102727L124.373179,290.102727L127.182851,289.611205L133.892903,288.434072L139.594735,287.430171L139.594737,287.430170L150.097693,265.193006L147.805802,263.668177L149.525977,258.588495L151.631074,254.941983L153.742666,257.707280L158.508835,263.941645L159.948848,265.823256L162.171358,268.725521L167.355721,261.756128L173.436868,253.566719L175.648153,250.584925L180.447213,247.678191L180.684597,247.534311L181.529175,247.022332L184.524866,245.205406L187.769332,243.235915L196.487441,244.379082L196.566757,245.307896L196.847343,248.591597L197.058307,251.058454L200.538469,249.057998L204.017593,247.056212L204.017591,247.056209L198.250862,232.711928L194.805840,224.120217L192.412146,223.855682L190.635442,223.658965L185.055634,214.989528L185.055632,214.989525L184.503254,211.454268L183.711014,206.378396L181.645433,204.844846L170.197081,196.329219L169.040382,196.591824L164.284999,197.669930L164.038031,197.600607Z M236.267020,192.855632L234.783643,190.165139L233.492902,187.822652L230.191807,186.729489L228.607559,186.204403L223.408271,184.479053L223.249543,184.426330L220.582670,183.540050L213.092662,190.108717L216.308007,199.119345L218.544907,205.377126L220.623949,211.185332L220.623950,211.185333L220.623952,211.185333L221.640685,210.880187L226.190003,209.513381L227.883244,205.743530L228.840526,203.610998L235.678078,208.299721L235.685771,208.304992L236.082653,208.576873L239.410597,210.855482L241.056094,211.981362L242.521826,212.983810L242.204269,212.350878L239.980166,207.915348L239.900566,207.756518L245.607426,206.883915L249.561392,206.277396L249.855826,206.232168L252.816131,207.232406L254.912679,201.727907L254.912651,201.727865L253.455283,199.526435L248.798929,192.484775L246.063955,188.343068L240.405564,191.382980L236.585273,193.432644L236.267020,192.855632Z M344.714345,473.126877L347.720184,467.709175L349.264569,459.351925L349.607758,457.493185L348.640464,456.980320L347.549803,456.401878L347.109181,456.168139L340.664181,458.235397L338.865012,467.816481L340.664537,473.410033L340.664539,473.410040L341.772600,473.929040L344.714345,473.126877Z M226.419973,566.364768L228.041719,565.032307L228.008896,560.905615L226.796042,558.592473L226.501357,558.030270L225.737176,557.327297L221.675859,553.588728L219.293809,555.139990L218.841713,563.206565L218.762378,564.621731L225.457718,567.155105L226.419973,566.364768Z M108.097884,458.183868L112.647625,453.996654L113.536249,451.861998L109.614315,443.925233L108.288183,443.363023L107.219663,446.121257L104.193174,453.926425L104.253243,453.998933L107.062450,457.388303L107.884772,458.379873L108.097884,458.183868Z M17.318391,375.881057L17.020943,375.078783L16.512408,373.706808L12.798201,376.939847L9.684543,375.777421L8.145407,375.202371L5.624551,374.259899L4.616013,374.581158L0.768722,375.805590L0.873288,376.027659L0.965670,376.223843L1.111671,376.533875L1.368982,377.080216L1.556341,377.477984L1.625382,377.624552L1.787919,377.969580L1.819524,378.036667L4.731335,380.149883L9.966129,380.486678L14.867948,378.844876L17.878756,377.835042L18.024886,377.786003L17.990035,377.692052L17.318391,375.881057Z M200.835749,225.599763L200.835750,225.599762L199.873912,221.242086L194.272095,217.777453L194.304425,217.979220L195.115938,223.040547L195.508513,225.486722L195.564077,225.832827L195.747811,225.951990L197.032130,226.784784L198.883251,227.984588L200.835749,225.599763Z M263.226631,115.367647L258.725626,109.672498L253.902757,107.756804L253.138992,107.453155L253.080963,107.588688L252.714325,108.444929L255.448754,112.621706L255.594907,112.844830L259.465417,115.103380L260.451817,115.678577L263.226631,115.367647Z " data-nuts-id="EE004" data-shape-area="1.72666751385e+000" data-shape-leng="2.01780663032e+001" data-stat-levl-="3"/><path d="M775.752334,48.124370L773.161719,41.474598L766.404957,38.504552L760.170614,35.758676L754.141887,33.098366L748.850851,34.229411L747.890879,37.461635L747.344526,39.300148L746.518659,42.077786L743.387057,43.083901L736.768087,45.206624L732.557775,41.760787L726.616975,36.891871L723.809630,34.588273L716.867589,33.616723L708.860108,32.489982L702.856857,26.686004L700.713098,24.610996L699.533742,23.468921L699.285114,23.478516L697.381498,23.551776L687.595395,23.922787L686.898901,23.948835L674.307120,24.411547L673.909997,23.942396L669.207593,18.382727L666.473389,15.146362L666.065623,14.663472L665.591465,14.765035L661.832554,15.569331L658.494974,16.282211L656.078742,13.192115L653.068591,9.339114L654.482179,25.309738L646.001768,25.837501L646.368411,20.860959L646.449070,19.765331L646.622224,17.412269L645.950626,17.184393L641.837161,15.787496L639.595641,15.025438L639.627697,24.138923L639.637008,26.799603L633.027683,31.383750L634.858967,33.744181L633.784044,34.608045L630.886492,36.935369L630.419409,37.310355L627.819319,39.396869L628.404721,43.361590L633.648253,51.275699L635.762254,67.609617L640.802341,67.706827L641.977151,69.411313L643.643242,71.827405L643.083370,74.093257L642.840802,75.074606L641.851317,79.075578L645.890666,85.956683L646.575228,87.121804L647.078798,87.978687L648.870362,91.025917L649.943214,97.330346L653.380275,117.481150L653.380275,117.481153L647.820527,119.196738L646.455293,117.856442L644.267988,115.707999L643.027665,114.489114L643.027660,114.489113L628.944696,112.502562L625.227843,111.974912L623.292752,114.135498L621.254095,116.410327L616.898195,117.385482L606.199872,119.771895L606.158656,119.947140L604.938523,125.132129L598.003808,120.703108L597.492201,120.376023L595.778572,119.280114L582.244486,120.860535L578.563270,121.287237L578.563269,121.287237L578.563271,121.287240L579.735889,123.329047L588.187116,138.017224L586.391036,142.074971L574.790733,168.196664L574.790736,168.196666L576.324987,169.087777L577.628276,169.844444L581.508211,172.095437L581.508210,172.095439L577.366193,181.778739L574.955926,178.335558L573.550225,176.326140L573.071267,175.641260L568.481509,177.362105L566.955755,177.933578L567.221479,180.175301L567.518827,182.682730L568.365980,189.820239L568.852586,193.915870L564.318563,200.328519L557.895396,204.145297L556.423143,205.019179L553.767249,203.550998L553.665567,203.494767L552.717474,202.970379L547.907258,195.525803L537.129919,191.642940L536.047611,187.438368L535.168357,184.020062L534.746591,182.379532L534.397247,181.020296L537.332507,177.109126L537.332508,177.109125L524.660305,173.696017L517.099354,171.651059L515.132091,171.117944L512.123664,166.368428L510.462836,163.744169L507.841450,159.598879L494.236347,155.622317L494.236346,155.622314L493.503039,153.474601L491.454331,147.469293L491.077003,146.362431L492.108689,133.854687L488.781317,133.766841L488.779758,133.766800L485.450620,133.677828L485.450618,133.677829L479.703572,134.606961L473.955502,135.532878L475.677444,140.592588L473.385213,143.166392L470.769880,141.148812L462.841440,135.023555L453.938575,135.936590L451.092285,136.226832L448.291298,139.606885L443.474250,145.412882L443.474249,145.412883L439.047045,144.486877L437.681048,149.655191L434.706319,160.892381L434.556501,161.457684L439.256704,164.822193L439.420896,164.939646L439.350903,173.908299L438.303853,173.724511L435.851473,173.293605L427.572544,171.834339L418.285845,172.871089L405.683094,174.264312L405.073699,181.281928L404.741697,185.101815L400.283470,190.196487L395.823066,195.286788L393.751522,195.613407L388.653763,196.415309L385.912848,196.845374L385.485992,196.314009L383.835482,194.258703L381.589813,191.460511L374.430765,193.442226L364.757773,204.835662L361.087464,210.984312L362.822903,216.421274L364.421819,220.371563L369.663902,233.298857L370.312496,234.895800L373.469272,242.660385L379.610724,248.363525L378.642128,252.920673L378.642127,252.920676L376.403822,253.211624L371.658223,253.826826L368.701162,260.683585L369.634616,263.427441L370.642626,266.388644L367.870694,269.274534L361.013153,276.404082L367.875109,279.213491L370.733008,277.365634L372.983828,275.909289L375.255229,281.143026L374.405868,282.797741L370.735744,289.941214L369.457743,292.426180L377.960150,299.970828L385.561877,297.339363L386.684218,297.765260L397.315612,301.791808L399.386552,302.574525L409.081255,306.231589L420.525282,298.862977L423.215893,292.266108L424.006418,290.326216L425.145393,287.529914L431.704664,282.999991L434.531570,281.045201L434.531571,281.045202L440.101247,286.498443L437.974282,291.694180L451.819975,285.794972L453.835690,282.896478L457.306233,277.901356L461.626542,279.321897L465.786278,280.687569L468.233322,281.490003L469.668885,281.960425L472.703468,282.954038L474.800239,283.639952L476.361711,282.391569L478.132251,280.975392L484.319519,276.021071L488.776939,279.661066L493.214314,283.280256L493.214315,283.280257L491.785679,296.123232L491.649665,297.344329L495.075938,304.955646L498.292718,299.932249L503.256601,292.169087L504.469600,290.269926L506.109142,290.215662L509.328078,290.108367L513.096649,289.981476L513.718661,289.960400L518.170158,285.752246L530.542965,287.576498L532.773031,286.695855L536.585488,285.188874L537.711950,285.584068L539.073838,286.061652L554.095668,291.314692L549.423730,303.115547L544.741655,314.912811L568.510912,319.303998L575.686413,320.618176L578.297170,321.095015L582.779569,316.872666L586.810683,313.070818L586.810685,313.070818L590.930683,312.878232L593.785629,312.743814L598.079749,312.540147L626.876834,297.698382L626.876841,297.698373L628.125623,295.683005L628.252630,295.477979L629.709417,293.125606L632.926992,287.925377L637.381565,280.715456L639.520465,277.249223L640.846171,275.099412L643.767364,270.358476L645.472999,271.021739L650.368106,272.923249L651.033413,276.639537L657.985839,271.886528L656.029469,261.698282L656.012439,261.609518L655.600860,259.463780L658.881584,256.511792L663.262686,255.293858L667.005316,254.251718L678.087495,251.156684L683.078547,249.758292L682.460628,248.118163L680.342480,242.492054L682.008783,240.380368L684.856917,236.768291L686.639883,234.505368L694.638257,233.609326L699.513652,233.060027L699.513654,233.060027L703.947351,231.419604L703.984840,229.702772L704.017705,228.196642L704.043831,226.998609L714.638993,224.322530L715.454939,226.508367L719.175187,236.462995L726.411490,237.497908L726.411493,237.497906L727.834541,236.656188L732.291884,234.017549L732.568761,230.871627L733.014320,225.803633L733.188362,223.822177L735.181210,220.980143L735.600808,220.381491L737.986982,216.975375L743.895681,215.533805L744.183507,215.811414L746.294221,217.846517L746.601711,218.142892L748.628669,220.095938L756.950896,215.712593L757.366566,215.493383L760.580073,213.797809L763.790971,212.102048L770.281822,208.669276L772.080507,210.521798L775.111600,208.725478L779.088213,206.366497L779.088923,206.366075L779.767063,205.963531L786.091979,202.205367L786.250111,198.230510L786.502010,191.886127L786.754994,185.498769L787.666801,162.345686L787.666803,162.345645L793.861373,157.228145L795.286351,157.227241L802.269358,157.219958L803.234221,157.218579L805.482622,157.215013L806.310702,154.661311L808.324935,148.443413L806.881585,143.549227L805.744939,139.692086L804.575906,135.722338L804.081619,135.476784L799.249502,133.074410L797.416503,132.162219L791.002889,128.966665L790.902892,118.894854L778.051421,126.617011L775.832882,111.715677L782.816778,97.173341L783.888723,94.936903L782.239236,93.063124L780.370622,90.939313L768.079107,90.782972L771.859437,87.030185L775.034080,83.875397L776.159957,82.755842L773.264963,77.819805L771.666394,75.091952L771.666393,75.091949L776.503557,72.639885L782.011092,75.903675L781.630943,71.916254L780.880526,64.039664L780.416846,59.169160L780.416844,59.169154L777.352382,51.915695L775.752334,48.124370Z " data-nuts-id="EE006" data-shape-area="1.42226993627e+000" data-shape-leng="9.05545749667e+000" data-stat-levl-="3"/><path d="M972.828753,50.074643L972.624531,50.306113L971.380789,51.715468L953.916222,71.445911L946.153679,72.803314L946.151704,72.803659L946.150728,72.803829L946.148810,72.804164L938.386863,74.155209L936.129670,73.720579L935.910119,73.678275L935.558925,73.610596L929.859618,72.510455L928.345083,70.567334L926.664024,68.409509L918.909188,68.851742L912.323027,69.222682L904.599432,69.652250L895.559229,67.406669L882.474387,64.140525L870.921418,61.241128L855.490237,62.545032L844.342356,63.472327L807.213913,66.472008L797.807320,63.599616L775.752334,48.124370L777.352382,51.915695L780.416844,59.169154L780.416846,59.169160L780.880526,64.039664L781.630943,71.916254L782.011092,75.903675L776.503557,72.639885L771.666393,75.091949L771.666394,75.091952L773.264963,77.819805L776.159957,82.755842L775.034080,83.875397L771.859437,87.030185L768.079107,90.782972L780.370622,90.939313L782.239236,93.063124L783.888723,94.936903L782.816778,97.173341L775.832882,111.715677L778.051421,126.617011L790.902892,118.894854L791.002889,128.966665L797.416503,132.162219L799.249502,133.074410L804.081619,135.476784L804.575906,135.722338L805.744939,139.692086L806.881585,143.549227L808.324935,148.443413L806.310702,154.661311L805.482622,157.215013L803.234221,157.218579L802.269358,157.219958L795.286351,157.227241L793.861373,157.228145L787.666803,162.345645L787.666801,162.345686L786.754994,185.498769L786.502010,191.886127L786.250111,198.230510L786.091979,202.205367L779.767063,205.963531L779.088923,206.366075L779.088213,206.366497L775.111600,208.725478L772.080507,210.521798L775.690242,214.783506L776.973698,216.297662L780.003368,235.252030L793.046354,230.078803L798.205369,230.630145L801.909782,231.024405L806.536467,234.608927L811.508744,238.456216L875.160887,260.391879L875.160888,260.391879L900.829957,233.938121L900.846168,233.921349L900.846452,233.921055L900.846485,233.921021L900.847563,233.919906L900.848136,233.919313L900.848588,233.918845L926.397460,207.383378L926.397461,207.383375L930.460585,196.373151L931.798011,192.742720L931.999857,192.194540L934.989169,184.067707L935.042043,183.923823L935.095355,183.778740L936.572389,179.757163L936.854530,178.988528L937.421635,177.443147L939.311269,172.289721L939.854776,167.012334L940.329042,162.400229L940.333446,162.357375L940.389291,161.813858L940.588082,159.878358L940.634553,159.425728L941.161804,154.285890L943.289511,151.150933L945.682150,147.622625L945.923771,147.266142L946.832664,145.924886L953.116150,136.639723L953.235853,133.447831L953.430732,128.239973L953.433605,128.163101L953.492677,126.581599L953.529893,125.584602L953.632727,122.826936L953.704684,120.894930L956.628788,116.139006L966.543297,109.444203L967.961453,108.485064L968.197943,108.325082L971.080916,106.373937L974.379332,104.139687L980.398753,103.846685L986.989592,103.521789L988.452801,103.449082L989.175224,102.467218L992.963349,97.314504L992.963353,97.314490L993.488777,95.411245L995.224987,89.115706L996.525290,84.394266L999.018314,75.326351L999.231278,74.550774L998.679495,73.948884L997.582719,72.752229L994.602629,69.498863L992.117393,66.783610L992.068899,66.730607L986.333195,60.456585L986.264349,60.381215L984.639846,58.602339L984.461334,58.406812L979.641978,53.124334L972.828753,50.074643Z " data-nuts-id="EE007" data-shape-area="6.30730628353e-001" data-shape-leng="4.47815879479e+000" data-stat-levl-="3"/><path d="M767.982520,649.430008L767.527112,643.420396L774.052007,635.651191L777.187430,631.912214L782.644376,630.695722L786.636785,629.803734L792.256395,628.545361L794.217359,628.105471L795.465742,627.825219L799.797241,626.851564L802.863627,626.161095L807.228227,623.190869L807.089053,621.579517L807.068383,621.340167L806.851401,618.827377L806.756141,617.724009L817.091273,610.711111L824.579414,619.084620L828.519120,618.999227L829.773474,618.971728L834.382461,618.869388L834.382462,618.869389L843.870350,627.085042L848.648427,631.214566L853.724704,631.803351L857.258952,632.211784L860.074018,632.536228L860.077528,632.536632L865.195353,633.124479L865.313811,633.138054L871.496711,633.844735L879.926005,638.895593L884.935107,641.891643L886.645228,642.913580L886.969022,643.107019L880.836801,624.722681L880.833603,624.713079L883.758115,622.523631L884.466072,621.993355L888.346049,619.085342L888.357710,619.076597L888.380825,619.059263L893.934680,614.891302L894.606769,614.386496L894.312689,613.354828L894.301021,613.313890L893.648866,611.025424L892.454888,606.833473L892.451325,606.820961L889.611002,596.837440L889.902545,596.449592L890.360914,595.839734L890.555875,595.580310L891.726374,594.022435L893.024223,592.294344L893.439491,591.741253L893.516992,591.638022L896.265650,587.975064L896.993101,587.005069L899.474775,583.694165L900.327376,582.556033L900.377172,582.563598L901.806683,582.780662L904.419992,583.176951L907.851739,583.696311L907.899922,583.703594L909.999116,584.020693L911.374416,584.228203L913.062785,584.482690L913.011394,578.990833L913.001693,577.957081L912.944478,571.880310L912.936018,570.984505L912.339711,569.923335L912.275784,569.809560L909.717421,565.254110L907.747999,561.744509L907.345461,561.026866L907.178594,560.729345L908.469355,560.243791L910.474183,559.489217L910.841473,559.350923L911.437843,558.043603L914.152040,552.088763L914.593095,551.120336L915.163455,549.867676L915.164268,549.865889L916.281313,547.411518L917.110217,547.278558L917.128974,547.275549L920.225925,546.778169L920.446511,546.742705L921.113801,546.635395L921.220634,546.618210L921.375965,546.593223L921.620443,546.553889L922.400065,546.428417L922.505342,546.411470L923.594789,546.236021L923.604369,546.234477L924.123734,546.150794L924.343121,546.115437L932.328516,544.825180L933.792797,544.587888L934.117477,544.535243L939.485469,543.663313L939.989309,543.581324L940.062862,543.569353L943.120241,545.459751L943.870575,545.923452L943.930182,545.960284L945.467564,546.910067L946.332853,547.444464L951.942321,545.474190L952.886532,544.080904L953.191668,543.630540L953.954217,542.504841L954.506145,541.689871L957.902351,536.671449L957.904771,536.431318L957.911379,535.775307L957.915646,535.351414L957.984402,528.487751L951.565992,526.456370L951.538637,526.447702L947.785128,525.257539L946.927208,524.985283L943.680232,523.954105L941.810537,521.782339L941.434307,521.345184L939.412927,518.995664L937.487132,516.755977L937.483806,516.752107L933.349285,511.939499L932.953358,511.478338L932.093609,510.476753L931.301013,509.553179L933.933176,508.607700L935.738255,507.958829L935.860784,506.074673L936.245876,500.144794L936.297246,499.352812L936.472498,496.649246L936.513215,496.020738L936.569738,495.148011L936.617836,494.405155L931.698297,491.382223L929.757262,490.188407L929.764943,492.049219L929.769086,493.056565L929.777578,495.128957L929.783308,496.533505L925.156712,492.650264L924.370823,491.990169L924.370820,491.990165L923.971770,489.384855L923.229601,484.537206L922.546229,480.071088L926.261787,466.922625L918.943875,460.839979L904.315781,433.168222L902.307285,429.357008L900.969464,405.747847L911.443718,382.856834L875.160892,260.391890L875.160888,260.391879L875.160887,260.391879L811.508744,238.456216L806.536467,234.608927L801.909782,231.024405L798.205369,230.630145L793.046354,230.078803L780.003368,235.252030L776.973698,216.297662L775.690242,214.783506L772.080507,210.521798L770.281822,208.669276L763.790971,212.102048L760.580073,213.797809L757.366566,215.493383L756.950896,215.712593L748.628669,220.095938L746.601711,218.142892L746.294221,217.846517L744.183507,215.811414L743.895681,215.533805L737.986982,216.975375L735.600808,220.381491L735.181210,220.980143L733.188362,223.822177L733.014320,225.803633L732.568761,230.871627L732.291884,234.017549L727.834541,236.656188L726.411493,237.497906L726.411490,237.497908L719.175187,236.462995L715.454939,226.508367L714.638993,224.322530L704.043831,226.998609L704.017705,228.196642L703.984840,229.702772L703.947351,231.419604L699.513654,233.060027L699.513652,233.060027L694.638257,233.609326L686.639883,234.505368L684.856917,236.768291L682.008783,240.380368L680.342480,242.492054L682.460628,248.118163L683.078547,249.758292L678.087495,251.156684L667.005316,254.251718L663.262686,255.293858L658.881584,256.511792L655.600860,259.463780L656.012439,261.609518L656.029469,261.698282L657.985839,271.886528L651.033413,276.639537L650.368106,272.923249L645.472999,271.021739L643.767364,270.358476L640.846171,275.099412L639.520465,277.249223L637.381565,280.715456L632.926992,287.925377L629.709417,293.125606L628.252630,295.477979L628.125623,295.683005L626.876841,297.698373L626.876834,297.698382L598.079749,312.540147L593.785629,312.743814L590.930683,312.878232L586.810685,313.070818L586.810683,313.070818L582.779569,316.872666L578.297170,321.095015L575.686413,320.618176L568.510912,319.303998L544.741655,314.912811L544.741654,314.912812L539.282390,321.282252L539.789859,322.263698L541.983691,326.504195L544.231313,330.844650L544.682492,331.715448L536.342681,332.905248L534.327851,336.988873L533.470488,338.725470L530.507144,344.722744L526.598881,346.313900L522.359634,348.037596L521.326905,348.457160L521.298805,348.468574L516.563912,350.390440L511.300469,352.523477L510.843864,353.244993L507.572695,358.410523L507.875500,362.591078L508.317553,368.688123L508.426284,370.186718L508.448020,370.486241L508.665872,373.487340L507.919537,373.846185L505.971750,374.782331L505.971667,374.782371L503.276814,376.076695L503.195839,380.458492L503.015455,390.206996L502.740620,405.026462L502.700460,407.188616L504.319485,406.842747L512.157825,405.164369L526.956963,408.132538L528.037338,408.348331L533.781049,418.415082L533.781050,418.415083L539.926243,419.482834L547.605826,420.811781L548.116176,423.630912L548.242325,424.327518L548.879255,427.843325L543.920541,431.227213L543.920544,431.227221L544.737110,433.080482L544.975395,433.621153L545.306203,434.371663L546.522995,437.131222L546.543499,437.177709L545.918232,439.606520L544.130589,446.544005L539.360250,446.359004L538.745159,446.334991L534.366149,446.162975L531.020809,446.030319L529.974673,447.690066L526.498396,453.200839L522.853070,458.972153L523.214620,460.182367L524.095182,463.128667L525.716186,468.547981L516.557535,468.528033L515.458664,468.525098L509.772564,477.016093L509.772564,477.016095L508.165828,482.472686L510.594282,487.301888L513.236574,492.550691L519.847103,484.641698L522.741431,481.173804L537.686999,478.804551L538.986285,484.452784L540.723914,491.997079L542.377374,499.165893L551.121659,507.709897L551.121660,507.709898L554.091605,506.647288L554.103484,506.190160L554.149871,504.404696L554.156299,504.157254L554.413917,494.227237L552.256483,491.547019L548.167419,486.462176L548.167415,486.462171L553.065408,479.992918L564.034689,495.046866L565.790200,495.647451L574.757673,498.709678L578.051986,499.832244L580.559564,502.858688L580.076377,503.281926L579.767170,503.552740L577.067068,505.916600L583.665888,511.999109L589.567981,512.053372L590.309136,512.059950L597.900773,512.124294L600.726179,517.557085L599.511996,519.933641L598.904688,521.121881L602.881115,522.811237L603.582096,523.108831L603.583328,523.109354L603.583538,523.109444L603.583997,523.109639L608.263946,525.094827L612.124686,529.747043L614.807235,532.976331L618.709077,533.259089L621.676348,529.789025L624.133325,526.913336L624.133326,526.913336L627.419589,529.238858L632.352083,532.725501L632.976127,534.137579L634.819721,538.306913L637.624582,544.643526L637.624583,544.643528L644.518082,546.284838L648.242906,547.169595L652.893356,548.272145L660.465354,550.062427L663.868066,547.695778L665.673007,546.439525L666.295117,546.006390L666.295118,546.006389L668.504627,546.725828L675.628552,549.041604L673.110314,561.642402L672.359972,565.390453L671.254476,570.907114L670.792347,573.211325L674.577847,574.288453L676.944899,574.961167L689.073795,578.398447L691.209068,580.391292L696.501877,585.326037L698.287526,586.989272L700.320517,588.881905L700.320516,588.881906L698.651129,592.258337L697.895863,593.785079L696.197444,597.216499L702.301706,602.590313L702.647175,602.894177L706.087113,605.918302L713.323327,624.234901L713.906676,625.708736L716.775310,626.559110L722.971696,628.392812L732.753295,631.278745L743.507070,630.060249L748.966831,645.304725L753.077805,647.698519L767.982520,649.430008Z " data-nuts-id="EE008" data-shape-area="2.56050852661e+000" data-shape-leng="8.89087185604e+000" data-stat-levl-="3"/></g></svg>