<?xml version="1.0" encoding="utf-8"?><!DOCTYPE svg  PUBLIC '-//W3C//DTD SVG 1.1//EN'  'http://www.w3.org/Graphics/SVG/1.1/DTD/svg11.dtd'><svg enable_background="new 0 0 1000 980" height="980px" pretty_print="False" style="stroke-linejoin: round; stroke:#000; fill: none;" version="1.1" viewBox="0 0 1000 980" width="1000px" xmlns="http://www.w3.org/2000/svg" xmlns:xlink="http://www.w3.org/1999/xlink"><defs><style type="text/css"><![CDATA[path { fill-rule: evenodd; }]]></style></defs><metadata><views><view h="980.390375861" padding="0" w="1000"><proj dist="1.6" id="satellite" lat0="45.791253077" lon0="15.9728677228" tilt="0" up="0"/><bbox h="148.81" w="151.94" x="936.82" y="972.54"/></view></views></metadata><g class="" id="nutsregions"><path d="M413.361399,154.126391L402.111806,161.613654L401.565311,161.976922L400.094306,162.954525L400.062551,162.975625L390.850684,169.090678L390.850681,169.090680L394.209305,180.956647L390.700263,183.579501L392.877320,184.943865L393.293726,185.204755L396.268288,187.067722L401.313542,190.224847L398.752795,195.294832L397.855690,196.241170L397.583867,196.527872L396.752546,197.404588L396.001925,198.196054L393.598080,196.913638L388.637853,194.265274L387.475623,193.644316L383.375972,199.277065L382.583972,200.364549L383.062458,203.604507L383.226600,204.715575L385.790401,206.335676L389.623077,208.755936L390.556233,209.344905L391.555511,209.975477L395.975684,212.763108L403.633261,217.586201L405.094676,218.505769L404.010634,220.184602L403.493231,220.985714L406.816907,222.773527L414.981585,207.455685L420.076866,197.875972L423.178222,192.037354L424.610640,189.338704L441.366092,178.066734L453.456191,183.831986L453.608842,183.191872L454.349412,180.085505L456.920907,169.287300L457.516729,166.782679L458.010421,164.706622L458.261111,163.652164L451.922773,154.166672L449.167513,150.038232L446.720231,140.369457L446.141217,138.079797L439.668957,139.571899L435.301625,140.576770L429.035060,144.453321L427.847431,145.187410L413.361400,154.126391L413.361399,154.126391Z " data-nuts-id="HR041" data-shape-area="7.36623956330e-002" data-shape-leng="1.42993609243e+000" data-stat-levl-="3"/><path d="M477.065636,124.064017L474.833959,125.412926L473.718051,126.087178L471.079054,127.681063L470.369186,128.109649L466.001391,125.117940L462.152122,114.009520L459.941204,116.111820L454.794637,121.001527L450.051205,125.503246L449.633720,125.899230L448.120612,131.179302L446.141217,138.079797L446.720231,140.369457L449.167513,150.038232L451.922773,154.166672L458.261111,163.652164L458.010421,164.706622L457.516729,166.782679L456.920907,169.287300L454.349412,180.085505L453.608842,183.191872L453.456191,183.831986L441.366092,178.066734L424.610640,189.338704L423.178222,192.037354L420.076866,197.875972L414.981585,207.455685L406.816907,222.773527L403.493231,220.985714L404.010634,220.184602L405.094676,218.505769L403.633261,217.586201L395.975684,212.763108L391.555511,209.975477L390.556233,209.344905L389.623077,208.755936L385.790401,206.335676L383.226600,204.715575L383.062458,203.604507L382.583972,200.364549L383.375972,199.277065L387.475623,193.644316L388.637853,194.265274L393.598080,196.913638L396.001925,198.196054L396.752546,197.404588L397.583867,196.527872L397.855690,196.241170L398.752795,195.294832L401.313542,190.224847L396.268288,187.067722L393.293726,185.204755L392.877320,184.943865L390.700263,183.579501L394.209305,180.956647L390.850681,169.090680L390.850684,169.090678L400.062551,162.975625L400.094306,162.954525L401.565311,161.976922L402.111806,161.613654L413.361399,154.126391L412.891975,153.136428L409.818729,146.651227L408.871312,144.650554L408.037896,142.890062L407.232214,141.187663L403.191084,139.268942L402.734046,139.051829L398.241424,136.916427L394.805378,135.281743L390.965889,133.453597L390.839086,133.393193L385.415431,134.279969L372.718537,136.346852L371.674182,136.516293L371.971069,139.521244L371.992314,139.736224L372.283781,142.684784L372.521674,145.090335L371.794276,147.207151L371.722223,147.416797L371.449417,148.210491L370.673911,150.466185L370.121376,152.072847L368.205902,157.639554L367.641633,159.278499L366.730007,161.925479L368.817358,164.023371L370.413914,165.627317L372.020186,167.240438L363.478763,169.783060L362.677207,170.021339L359.897822,170.847125L359.234704,171.044045L358.079647,170.735442L357.793438,170.658956L347.725887,167.964048L345.725152,167.427448L343.633124,166.865993L342.635034,167.438435L340.504041,168.660227L338.893556,169.583216L338.308688,169.918332L337.673732,170.282099L336.614865,170.888614L333.346383,172.759915L332.604808,173.184305L331.493218,173.820320L331.527782,173.922944L332.592362,177.082947L333.130769,178.680475L333.130770,178.680477L329.960836,179.003124L328.073385,179.194870L327.921661,179.210271L325.997289,179.405465L321.279833,179.882766L318.788393,181.318008L314.894004,183.559904L313.638128,184.282478L308.985787,186.957520L309.836389,188.335872L314.342043,195.631206L316.665327,199.389141L319.256716,200.692760L320.693843,201.415389L327.831212,205.000781L329.951986,209.785802L330.973781,212.089851L334.237076,214.066298L339.570009,217.293239L338.053138,222.039064L337.884402,222.566776L342.459046,225.271407L347.102072,228.013719L348.215990,228.671221L350.834390,226.174048L356.047023,221.198468L362.625705,224.413699L367.089995,226.592808L374.914773,230.406888L376.634263,231.244117L378.670301,232.235052L379.641715,234.146128L381.257808,237.324104L382.785012,240.325696L383.506692,241.743561L384.629422,241.570442L386.895846,241.220667L391.119306,240.567785L398.727272,239.388161L402.450018,242.738322L407.081981,246.902897L407.278740,251.507206L407.444462,255.382703L407.445083,255.382799L418.143014,257.032631L425.598117,253.300833L431.284180,250.450341L436.303285,247.931165L437.246822,247.457269L433.229171,237.579023L431.621538,233.621910L431.621540,233.621908L433.180223,231.860676L435.690993,229.022269L441.697097,222.225559L445.792706,217.585274L450.803108,216.911487L450.803110,216.911487L453.267285,219.610511L457.185960,223.899488L460.565391,227.595146L461.076266,228.153574L464.187266,225.656129L465.227806,224.820431L465.972822,224.221966L467.072538,223.338397L468.222820,222.413977L470.240915,220.791589L477.444082,214.995056L482.764803,219.139467L487.779059,223.040896L491.405957,225.860287L498.504097,231.371815L499.276149,231.970796L499.276154,231.970791L503.478545,227.990747L507.622123,224.062731L511.641233,220.249218L514.083024,220.000640L518.072587,219.593510L519.216946,216.711105L520.192027,214.253967L522.225147,209.127365L519.976621,205.823566L518.557939,203.738058L515.516793,199.264832L514.806949,199.116097L514.310279,199.012005L508.502323,197.793275L501.939230,196.412776L502.131946,193.995313L502.896793,184.390633L508.479892,179.597240L511.988888,176.581576L516.016082,179.419844L516.363407,179.664517L517.901353,180.747711L518.456755,181.138801L521.909896,179.771276L521.475536,177.346373L520.824627,173.711027L524.547391,169.179315L526.124380,167.258380L527.423581,170.599470L528.198306,172.590974L533.751886,172.673285L536.996750,167.878422L539.150186,164.693925L537.691147,154.037329L536.977177,148.817268L535.709500,148.864364L525.888224,149.225137L523.062052,149.327607L520.544003,149.418400L510.865287,140.121466L509.769578,139.874075L506.690632,139.178375L503.040813,138.352672L500.550598,137.788677L497.821432,137.169976L497.821431,137.169975L496.170125,135.233974L496.147625,135.207589L491.903183,130.227876L490.767598,128.894722L489.993756,129.435896L488.286005,130.629869L488.170664,130.710494L485.807292,129.297314L485.176309,128.919897L479.491810,125.517458L477.065636,124.064017Z " data-nuts-id="HR042" data-shape-area="3.54352153007e-001" data-shape-leng="4.97352617613e+000" data-stat-levl-="3"/><path d="M462.152122,114.009520L462.032910,112.053782L461.909605,110.030364L461.152802,97.599534L461.054182,95.978162L461.029069,95.565231L460.835616,92.383558L460.515887,87.122114L460.440288,85.877534L452.893305,79.899889L446.613684,86.018239L444.783117,87.800168L444.783115,87.800168L439.169006,87.752007L438.469307,86.094425L438.235781,85.541103L437.498957,83.794932L436.464709,83.938463L435.382249,84.088597L427.505637,85.178312L424.634638,85.574311L422.998579,85.799687L419.718097,86.250966L415.873303,83.856090L414.433486,82.958738L410.919096,80.767266L401.076784,74.621097L400.749074,71.138430L400.055490,63.761258L400.055433,63.760649L399.561630,63.934414L398.091056,64.451762L385.915579,68.727341L385.410705,74.750280L385.379280,75.124995L385.077002,78.728397L383.289482,79.331514L381.838463,79.820878L379.203983,80.708878L373.752896,78.818584L366.656242,76.353504L366.221475,76.659651L363.801097,78.363479L361.225662,80.175504L361.518908,82.762196L361.565440,83.172551L361.621731,83.668926L361.624874,83.696637L361.859598,85.766005L357.861769,90.446255L356.143215,92.456793L353.452093,95.603490L355.015606,101.004148L355.236800,101.767811L356.723818,106.899209L357.162675,108.412795L357.233925,108.658496L359.734393,109.961343L361.137311,110.692003L362.314436,111.304890L362.771864,111.543013L368.414106,114.478192L372.328360,116.673262L373.940045,117.576531L376.021733,120.079683L375.602105,121.040403L373.532115,125.777366L372.744065,127.579782L372.498336,128.141701L372.413370,128.335985L372.150006,128.938157L370.996381,131.575177L371.122468,132.494634L371.203842,133.087965L371.674182,136.516293L372.718537,136.346852L385.415431,134.279969L390.839086,133.393193L390.965889,133.453597L394.805378,135.281743L398.241424,136.916427L402.734046,139.051829L403.191084,139.268942L407.232214,141.187663L408.037896,142.890062L408.871312,144.650554L409.818729,146.651227L412.891975,153.136428L413.361399,154.126391L413.361400,154.126391L427.847431,145.187410L429.035060,144.453321L435.301625,140.576770L439.668957,139.571899L446.141217,138.079797L448.120612,131.179302L449.633720,125.899230L450.051205,125.503246L454.794637,121.001527L459.941204,116.111820L462.152122,114.009520Z " data-nuts-id="HR043" data-shape-area="1.42718187717e-001" data-shape-leng="1.83246157543e+000" data-stat-levl-="3"/><path d="M470.063651,40.193285L465.161561,40.256740L463.360992,40.279596L451.501310,40.424094L450.117872,39.007372L449.691614,38.570769L449.352626,38.223524L449.041989,37.905297L448.978954,37.840719L445.408520,34.181384L440.829054,35.172748L436.247340,36.162883L431.808119,37.120588L429.532989,40.026267L430.473620,44.193119L431.396214,48.277483L431.678467,49.526518L425.006969,52.538260L423.051346,53.420204L422.721607,53.568870L420.080836,54.759070L419.019268,55.237313L417.180276,56.065510L416.361975,56.433920L415.672658,56.744205L412.974288,57.958352L411.402076,58.665424L405.938590,61.120499L400.055433,63.760649L400.055490,63.761258L400.749074,71.138430L401.076784,74.621097L410.919096,80.767266L414.433486,82.958738L415.873303,83.856090L419.718097,86.250966L422.998579,85.799687L424.634638,85.574311L427.505637,85.178312L435.382249,84.088597L436.464709,83.938463L437.498957,83.794932L438.235781,85.541103L438.469307,86.094425L439.169006,87.752007L444.783115,87.800168L444.783117,87.800168L446.613684,86.018239L452.893305,79.899889L460.440288,85.877534L460.515887,87.122114L460.835616,92.383558L461.029069,95.565231L461.054182,95.978162L461.152802,97.599534L461.909605,110.030364L462.032910,112.053782L462.152122,114.009520L466.001391,125.117940L470.369186,128.109649L471.079054,127.681063L473.718051,126.087178L474.833959,125.412926L477.065636,124.064017L478.204087,119.073012L480.396914,109.448207L480.401031,109.430124L481.124109,106.253071L482.509993,100.159205L482.509999,100.159202L484.370460,98.993527L489.019135,96.078851L491.294795,94.650969L492.407799,96.525848L494.040360,99.274827L502.078152,95.462359L501.517242,93.795999L501.446459,93.585687L501.330884,93.242271L500.815024,91.709243L509.147043,89.931591L510.725802,88.368734L511.668079,87.435680L518.381782,80.781873L532.096718,81.862350L532.096719,81.862349L536.238810,77.943769L538.765779,75.551357L540.836236,73.590130L544.302478,70.304698L545.643811,65.749519L546.193431,63.881987L546.642954,62.354132L548.072074,57.494156L546.711528,57.407516L545.827111,57.351122L544.977257,57.296876L544.941185,57.294572L541.214867,57.056070L540.543083,57.012961L540.249997,56.994143L539.050045,56.917030L537.079254,55.086299L536.858124,54.880836L534.904702,53.065381L532.028413,53.784878L531.620310,53.886908L530.391858,54.193947L521.026437,56.530552L513.785308,51.670459L511.019073,53.104505L509.326675,53.981423L504.867077,56.290579L485.419291,55.724925L483.115737,55.656050L483.111375,55.655919L483.111367,55.655919L474.860719,45.883831L474.434978,45.379058L472.085082,42.592016L470.063651,40.193285Z " data-nuts-id="HR044" data-shape-area="1.47380835778e-001" data-shape-leng="2.30296274484e+000" data-stat-levl-="3"/><path d="M564.865983,53.286505L564.341260,52.251550L561.275002,46.200238L560.023418,49.364171L555.336667,61.196654L552.909327,56.678412L548.072074,57.494156L546.642954,62.354132L546.193431,63.881987L545.643811,65.749519L544.302478,70.304698L540.836236,73.590130L538.765779,75.551357L536.238810,77.943769L532.096719,81.862349L532.096718,81.862350L518.381782,80.781873L511.668079,87.435680L510.725802,88.368734L509.147043,89.931591L500.815024,91.709243L501.330884,93.242271L501.446459,93.585687L501.517242,93.795999L502.078152,95.462359L494.040360,99.274827L492.407799,96.525848L491.294795,94.650969L489.019135,96.078851L484.370460,98.993527L482.509999,100.159202L482.509993,100.159205L481.124109,106.253071L480.401031,109.430124L480.396914,109.448207L478.204087,119.073012L477.065636,124.064017L479.491810,125.517458L485.176309,128.919897L485.807292,129.297314L488.170664,130.710494L488.286005,130.629869L489.993756,129.435896L490.767598,128.894722L491.903183,130.227876L496.147625,135.207589L496.170125,135.233974L497.821431,137.169975L497.821432,137.169976L500.550598,137.788677L503.040813,138.352672L506.690632,139.178375L509.769578,139.874075L510.865287,140.121466L520.544003,149.418400L523.062052,149.327607L525.888224,149.225137L535.709500,148.864364L536.977177,148.817268L537.124657,147.504009L539.203170,128.962616L539.965307,122.148441L540.146365,120.528400L548.639629,116.275365L551.272062,117.972177L552.871321,119.002566L553.673517,118.484579L553.995731,118.276497L554.068168,118.229716L558.396358,115.433168L558.544118,115.337650L558.748978,113.340817L559.191169,109.028086L564.096143,109.875743L564.720534,111.421214L566.200461,115.082819L566.961367,116.964642L567.169824,117.480088L567.811798,119.067230L567.932095,119.364596L568.100158,119.780013L570.489353,125.682760L571.425814,127.994933L572.512744,128.660223L577.217607,131.538221L578.891845,132.561673L585.772858,136.764188L585.177262,140.236241L584.213879,145.847771L591.148726,146.420884L597.377072,150.811798L599.988462,152.651101L600.526138,153.029683L603.052035,154.807618L606.804554,157.447223L606.870093,154.791335L607.012565,149.009373L612.900974,141.156768L617.914032,134.461742L617.914035,134.461738L620.268787,134.075864L621.102068,133.939208L625.125748,133.278560L635.155762,131.626133L635.791094,130.334047L636.820867,128.239138L635.940514,128.014631L632.917638,127.243244L630.676196,126.670768L629.151752,126.281176L629.160479,125.503622L629.166137,124.999189L629.209318,121.144563L629.222004,120.010325L629.222123,119.999705L629.246353,117.830958L629.275646,115.205006L624.121200,106.437860L623.470529,105.330231L622.126513,103.041683L620.515967,102.901934L618.615900,102.736810L615.063666,102.427370L615.471507,94.898454L615.565608,93.159330L611.700050,91.236367L607.396248,89.093446L605.296812,88.047364L588.326677,79.573726L581.173050,75.992135L578.373078,73.438142L573.980210,69.428092L572.097021,67.707854L571.942484,67.566658L570.167506,65.944576L567.386143,63.401551L566.616601,60.314395L565.982361,57.769022L564.865983,53.286505Z " data-nuts-id="HR045" data-shape-area="2.02426687488e-001" data-shape-leng="2.67692239679e+000" data-stat-levl-="3"/><path d="M480.457470,0.000000L476.957896,1.607076L473.840282,3.037646L469.718524,4.927389L469.010590,5.251780L466.797048,6.265728L465.227969,6.984153L464.078872,7.510118L463.419526,8.533848L461.850158,10.969741L461.772610,11.090079L460.168400,13.578864L460.168400,13.578865L460.610621,15.111325L461.436175,17.971211L462.589517,21.964517L463.446693,24.930804L464.301042,27.885963L465.364314,31.561913L467.429123,33.118348L471.089459,35.875803L470.063652,40.193284L470.063651,40.193285L472.085082,42.592016L474.434978,45.379058L474.860719,45.883831L483.111367,55.655919L483.111375,55.655919L483.115737,55.656050L485.419291,55.724925L504.867077,56.290579L509.326675,53.981423L511.019073,53.104505L513.785308,51.670459L521.026437,56.530552L530.391858,54.193947L531.620310,53.886908L532.028413,53.784878L534.904702,53.065381L536.858124,54.880836L537.079254,55.086299L539.050045,56.917030L540.249997,56.994143L540.543083,57.012961L541.214867,57.056070L544.941185,57.294572L544.977257,57.296876L545.827111,57.351122L546.711528,57.407516L548.072074,57.494156L552.909327,56.678412L555.336667,61.196654L560.023418,49.364171L561.275002,46.200238L545.837149,39.647261L545.818616,39.639380L542.206171,38.102499L538.585356,36.560730L537.030932,33.804182L533.027705,26.699118L531.477126,23.944804L530.015210,21.346807L524.796224,19.602897L523.805770,19.271659L523.247805,19.085020L522.514135,18.839564L520.923447,18.307216L520.718111,18.238480L520.669743,18.131094L520.077076,16.815106L519.297357,16.725931L519.297315,16.725927L518.517626,16.636709L512.803212,16.500777L509.300597,16.416252L505.326558,14.160470L503.608575,13.184692L493.321862,7.334484L492.962550,7.129903L492.522184,6.879151L485.310466,2.769273L482.742447,1.304242L481.455940,0.569996L481.126874,0.382156L480.457470,0.000000Z " data-nuts-id="HR046" data-shape-area="8.46734074953e-002" data-shape-leng="1.45900844770e+000" data-stat-levl-="3"/><path d="M606.804554,157.447223L603.052035,154.807618L600.526138,153.029683L599.988462,152.651101L597.377072,150.811798L591.148726,146.420884L584.213879,145.847771L585.177262,140.236241L585.772858,136.764188L578.891845,132.561673L577.217607,131.538221L572.512744,128.660223L571.425814,127.994933L570.489353,125.682760L568.100158,119.780013L567.932095,119.364596L567.811798,119.067230L567.169824,117.480088L566.961367,116.964642L566.200461,115.082819L564.720534,111.421214L564.096143,109.875743L559.191169,109.028086L558.748978,113.340817L558.544118,115.337650L558.396358,115.433168L554.068168,118.229716L553.995731,118.276497L553.673517,118.484579L552.871321,119.002566L551.272062,117.972177L548.639629,116.275365L540.146365,120.528400L539.965307,122.148441L539.203170,128.962616L537.124657,147.504009L536.977177,148.817268L537.691147,154.037329L539.150186,164.693925L536.996750,167.878422L533.751886,172.673285L528.198306,172.590974L527.423581,170.599470L526.124380,167.258380L524.547391,169.179315L520.824627,173.711027L521.475536,177.346373L521.909896,179.771276L518.456755,181.138801L517.901353,180.747711L516.363407,179.664517L516.016082,179.419844L511.988888,176.581576L508.479892,179.597240L502.896793,184.390633L502.131946,193.995313L501.939230,196.412776L508.502323,197.793275L514.310279,199.012005L514.806949,199.116097L515.516793,199.264832L518.557939,203.738058L519.976621,205.823566L522.225147,209.127365L522.898450,209.257959L528.060643,210.258008L532.070940,211.033422L537.607210,212.101762L537.607212,212.101764L539.595391,214.230590L540.838751,215.561420L540.919403,215.647734L545.002576,220.015450L545.083974,220.102480L545.240025,220.269323L546.649558,221.776066L549.737298,220.799885L553.029765,219.758028L554.448066,226.768876L555.395786,231.449870L562.880770,237.122408L563.764190,237.791326L564.062800,238.429299L566.268833,243.140451L566.536595,243.712038L568.017864,246.873155L568.205496,247.273460L572.796326,257.059970L576.189613,253.570620L576.660452,251.635129L579.832619,238.578489L581.189539,240.735215L583.259500,244.023727L591.852380,247.611002L594.743370,245.389753L597.152352,243.537781L601.838335,244.503563L604.108500,244.970802L606.956130,243.825532L612.211561,241.709741L617.124669,239.729252L620.904690,242.536748L625.196400,245.721610L626.059089,246.361466L637.297219,244.080483L638.434875,243.848998L640.686358,243.390563L645.713111,242.365541L648.128244,243.117966L657.143062,245.921904L661.047589,237.472703L661.070159,237.423825L663.316972,232.555958L661.234123,229.738108L658.458347,229.270701L658.501576,223.684603L666.195695,209.818586L667.358702,207.719557L668.614718,205.451743L669.319005,204.179692L668.748684,199.540976L667.676742,198.755944L663.292386,195.543265L659.907484,193.060948L659.571100,193.338585L657.161855,195.326470L651.516099,199.980676L646.746051,196.286282L645.351459,195.205480L647.286290,189.812555L648.065197,187.640065L645.205521,184.804935L641.144794,184.467060L635.929171,184.031250L634.571292,182.423276L627.704253,174.283708L623.663804,169.488461L623.656601,169.479908L622.614570,168.242483L620.132935,165.294302L617.860247,162.592855L610.033005,158.951180L606.804554,157.447223Z " data-nuts-id="HR047" data-shape-area="3.01902432258e-001" data-shape-leng="2.94108163195e+000" data-stat-levl-="3"/><path d="M695.077324,164.114029L689.439500,150.223941L687.116796,148.505858L685.519266,147.323701L679.589206,142.932098L679.589205,142.932098L673.520454,142.137840L661.228576,140.520386L659.700881,140.318544L659.049181,144.420491L659.020949,144.598118L659.018388,144.614229L658.881371,145.476203L655.191569,145.299316L652.112465,145.150920L652.108903,145.150748L652.108901,145.150747L650.052619,144.484493L644.898064,142.812697L643.081631,140.728873L639.662079,136.803592L638.024734,134.923009L636.307850,132.950314L636.035825,132.637686L635.155762,131.626133L625.125748,133.278560L621.102068,133.939208L620.268787,134.075864L617.914035,134.461738L617.914032,134.461742L612.900974,141.156768L607.012565,149.009373L606.870093,154.791335L606.804554,157.447223L610.033005,158.951180L617.860247,162.592855L620.132935,165.294302L622.614570,168.242483L623.656601,169.479908L623.663804,169.488461L627.704253,174.283708L634.571292,182.423276L635.929171,184.031250L641.144794,184.467060L645.205521,184.804935L648.065197,187.640065L647.286290,189.812555L645.351459,195.205480L646.746051,196.286282L651.516099,199.980676L657.161855,195.326470L659.571100,193.338585L659.907484,193.060948L663.292386,195.543265L667.676742,198.755944L668.748684,199.540976L669.319005,204.179692L668.614718,205.451743L667.358702,207.719557L666.195695,209.818586L658.501576,223.684603L658.458347,229.270701L661.234123,229.738108L666.182680,231.928568L668.920364,233.139306L671.132650,234.117123L672.052431,233.047811L672.155194,232.928327L675.745955,228.751349L677.463517,230.518883L683.241395,236.460012L688.611232,241.974870L690.853729,242.411604L694.922780,243.203031L696.945941,243.596037L704.539621,245.068193L711.567698,246.426559L718.888321,247.837237L720.944818,250.172019L721.653242,250.976058L718.208604,252.810689L726.768951,253.038109L726.768952,253.038108L727.729577,252.045174L729.323817,250.396812L730.611013,249.065461L736.071911,252.421941L745.124166,246.151976L752.943007,231.164841L756.592820,224.154418L762.196605,213.372844L760.645293,211.305844L756.274200,205.477606L755.843108,203.516128L753.692435,193.723988L753.692434,193.723988L748.726110,192.455762L747.649565,192.180576L744.448988,191.361869L742.572803,190.881540L742.305351,189.923776L741.010201,185.284123L738.620272,176.715520L731.736726,181.676790L730.518225,182.554236L728.970031,180.305323L727.717742,178.485606L725.175689,174.789960L724.528867,173.849232L723.598013,172.495144L718.103614,170.886073L710.732291,168.723198L708.359700,168.026030L695.077338,164.114033L695.077324,164.114029Z " data-nuts-id="HR048" data-shape-area="2.35436008960e-001" data-shape-leng="2.59635664187e+000" data-stat-levl-="3"/><path d="M736.071911,252.421941L730.611013,249.065461L729.323817,250.396812L727.729577,252.045174L726.768952,253.038108L726.768951,253.038109L718.208604,252.810689L721.653242,250.976058L720.944818,250.172019L718.888321,247.837237L711.567698,246.426559L704.539621,245.068193L696.945941,243.596037L694.922780,243.203031L690.853729,242.411604L688.611232,241.974870L683.241395,236.460012L677.463517,230.518883L675.745955,228.751349L672.155194,232.928327L672.052431,233.047811L671.132650,234.117123L668.920364,233.139306L666.182680,231.928568L661.234123,229.738108L663.316972,232.555958L661.070159,237.423825L661.047589,237.472703L657.143062,245.921904L648.128244,243.117966L645.713111,242.365541L640.686358,243.390563L638.434875,243.848998L637.297219,244.080483L626.059089,246.361466L625.196400,245.721610L620.904690,242.536748L617.124669,239.729252L612.211561,241.709741L606.956130,243.825532L604.108500,244.970802L601.838335,244.503563L597.152352,243.537781L594.743370,245.389753L591.852380,247.611002L583.259500,244.023727L581.189539,240.735215L579.832619,238.578489L576.660452,251.635129L576.189613,253.570620L578.663630,256.483978L582.010021,260.421956L584.789360,260.035845L586.975718,259.731685L588.618644,259.502879L590.308703,263.852051L590.488196,264.313790L591.685845,267.393883L595.520206,268.086939L595.810603,268.139380L599.312577,263.867474L597.563361,269.617825L596.680922,272.516586L596.010885,274.716656L610.260797,281.283665L615.692906,283.781363L617.813587,284.755609L617.813588,284.755609L621.007119,281.617384L628.529025,274.216612L634.782373,277.734106L637.341035,279.171986L638.961991,280.082499L644.824235,277.924402L649.572911,276.173810L651.848218,275.334248L655.948373,273.820071L658.377519,276.071827L661.000172,278.501652L666.779420,283.851205L669.968483,286.800346L678.830184,294.984886L683.792090,299.560922L688.416186,300.048150L705.091100,301.791460L706.349908,314.459716L706.661052,317.589065L716.491105,322.585539L716.491106,322.585539L719.203183,320.196186L724.223717,315.769212L729.638906,310.988612L732.584582,308.385673L736.969090,304.508100L737.719566,300.946235L738.469607,297.384010L744.707461,298.208563L768.457894,301.320275L775.137542,293.219618L771.169691,287.823572L768.029261,283.549138L767.381909,282.667628L767.381908,282.667626L773.009528,278.646161L774.306659,277.718532L774.128990,273.053949L770.996396,268.719399L767.407622,269.422343L765.741793,269.748275L764.616038,269.968409L761.464787,270.584063L760.180957,269.902263L753.506827,266.354794L752.642268,265.482897L751.977264,264.812140L749.841739,262.657491L749.128564,261.937711L748.193097,260.993411L744.770296,257.536679L741.572572,256.823117L739.934037,256.457157L736.007451,255.579272L736.071911,252.421941Z " data-nuts-id="HR049" data-shape-area="2.10445064069e-001" data-shape-leng="3.03834457123e+000" data-stat-levl-="3"/><path d="M768.457894,301.320275L744.707461,298.208563L738.469607,297.384010L737.719566,300.946235L736.969090,304.508100L732.584582,308.385673L729.638906,310.988612L724.223717,315.769212L719.203183,320.196186L716.491106,322.585539L716.491105,322.585539L706.661052,317.589065L706.349908,314.459716L705.091100,301.791460L688.416186,300.048150L683.792090,299.560922L678.830184,294.984886L669.968483,286.800346L666.779420,283.851205L661.000172,278.501652L658.377519,276.071827L655.948373,273.820071L651.848218,275.334248L649.572911,276.173810L644.824235,277.924402L638.961991,280.082499L637.341035,279.171986L634.782373,277.734106L628.529025,274.216612L621.007119,281.617384L617.813588,284.755609L617.813587,284.755609L617.813589,284.755612L618.974384,286.584758L621.001350,289.777419L621.001348,289.777421L617.802408,294.073634L616.645835,295.626020L607.941815,307.293441L602.333416,314.796969L601.129585,316.406127L613.018191,329.247710L618.823957,332.825115L630.257278,332.938790L630.257621,332.937941L634.434890,322.607619L635.649513,323.695587L637.848322,325.664401L646.182040,333.118099L650.869929,334.612568L670.313081,340.789802L672.735135,340.137042L674.092504,339.770997L679.968988,338.184418L682.769532,337.427245L684.033001,338.073926L685.946745,339.053095L687.601985,339.899667L690.253238,341.255006L693.252892,339.499132L694.494164,338.772202L701.685326,334.556889L703.505315,335.844125L707.962077,338.994247L710.852494,341.035698L717.893890,346.003815L728.558819,353.514810L729.619384,354.260832L735.112023,354.858481L743.910105,348.198151L746.734343,346.057408L746.318739,343.709303L745.990452,341.854120L745.738755,340.431507L745.738756,340.431506L747.181377,338.942621L748.487843,337.593814L754.149344,331.743973L756.159208,329.665342L761.058894,330.397138L765.509650,331.060246L769.552738,331.661265L769.398965,339.231651L774.744976,343.206534L777.731237,345.424992L785.140276,345.444561L790.628631,345.456371L794.505333,341.246860L794.229004,339.985456L794.139124,339.575126L792.990583,334.330086L800.358504,330.657781L804.082637,333.636891L807.566925,336.422081L810.517357,338.778978L811.211760,339.333481L811.211762,339.333484L818.113880,338.827892L829.755888,337.966786L829.755889,337.966787L833.580464,342.585579L834.740721,343.985994L838.028390,347.952190L847.978184,347.457628L847.978185,347.457627L850.271749,344.698826L848.851656,343.065038L846.937466,340.861996L840.464567,333.765411L845.586227,325.080312L850.594592,316.573060L852.015304,314.157249L853.196720,312.147471L852.011974,307.904576L848.342777,307.537693L844.047966,307.106938L840.737733,311.673683L843.869743,309.407265L844.222925,309.151593L844.396159,309.026179L845.750372,308.045628L846.655424,307.390138L846.213793,308.301094L844.459643,311.917829L843.525801,313.842224L837.280224,313.395321L836.742249,313.356687L836.334693,313.327403L832.391952,313.043461L828.416424,310.911244L825.322127,309.250401L821.820461,307.369573L820.012810,306.398086L817.667407,305.137032L816.457670,304.486343L815.121437,304.944103L814.409836,305.187811L804.787748,308.478455L802.740468,309.177470L793.084338,312.469077L788.568428,308.202390L786.428304,306.178962L786.428300,306.178958L780.045969,304.456527L778.670904,304.084975L768.457895,301.320275L768.457894,301.320275Z " data-nuts-id="HR04A" data-shape-area="2.34221892950e-001" data-shape-leng="3.81672838305e+000" data-stat-levl-="3"/><path d="M923.285844,255.927745L920.426435,251.343006L920.846032,249.362042L921.406494,246.714730L922.546894,241.323481L924.154040,241.470032L924.155765,241.470190L936.369352,242.577445L938.817923,236.993571L932.497455,232.535965L931.478263,231.816631L931.478094,231.816512L925.806738,227.811033L924.142210,226.634564L920.798382,229.955208L920.459534,230.291556L919.114153,231.626744L918.343065,231.680858L911.673709,232.146996L909.531792,229.784347L908.986876,229.183103L904.784801,224.544298L908.654011,217.556097L911.001967,213.310737L912.066954,211.383948L912.663620,210.304131L913.636373,208.543196L915.787650,204.646646L916.500065,203.355606L912.031660,198.465599L911.463017,197.842968L909.920100,196.153186L905.653062,191.477080L910.464738,192.924626L912.435724,193.516994L913.328258,193.785128L914.765523,194.216762L916.183242,189.116250L914.562184,189.326771L909.858442,189.936457L905.402326,190.512440L905.040758,187.945309L909.367015,187.513832L910.706936,187.379902L913.246530,187.125677L916.204055,183.388198L913.058261,176.986675L910.886983,178.559880L908.070054,180.599756L907.978521,180.666018L905.190313,182.683788L894.932278,176.083206L901.070662,174.328142L905.515376,173.055226L905.948891,170.648621L906.422561,168.017627L905.158169,166.743497L901.759268,163.316751L898.571626,167.985519L896.195001,167.115371L893.930147,166.285655L894.112280,164.845818L895.006490,157.769225L895.388893,154.739163L897.998702,154.272044L902.472593,153.469995L902.588135,153.449260L902.434749,153.282835L900.057923,150.703280L898.704713,149.234065L896.923159,147.299137L899.238928,145.417932L900.618496,144.296776L900.667051,144.257309L902.403931,142.845255L899.895937,140.719817L898.647422,141.249617L889.784738,145.005737L888.631962,142.748527L886.935386,151.186677L883.613479,151.461662L879.911726,149.161078L875.533337,146.437711L869.288254,142.549005L869.288252,142.549006L863.554676,144.525045L859.704928,151.511041L858.232262,154.180909L856.538492,157.249901L855.931549,158.349194L855.354332,159.394424L853.360321,163.003563L852.949791,163.746300L851.308659,166.714392L848.733052,171.369076L845.497633,172.623632L841.277099,174.258600L838.150651,175.468588L827.944343,187.118572L827.944336,187.118572L821.333169,186.696195L820.979386,186.329488L819.649570,184.950845L813.913981,179.000174L809.136490,183.828917L807.977814,183.797938L807.348389,183.781066L799.395594,183.565325L794.902219,181.270061L794.127461,180.874079L792.658107,180.122901L788.174361,177.829187L786.214361,176.825820L784.061997,176.715734L778.807986,176.445538L777.811406,176.394052L773.898461,176.191173L773.101381,176.991869L772.791430,177.303185L769.711160,180.395773L769.701840,180.405126L768.899118,181.210684L767.831746,182.281590L763.287393,180.177830L761.757687,179.469180L758.953850,178.169638L753.331424,175.561222L750.864935,175.755907L750.852564,175.756882L745.780409,176.155773L745.239648,176.198184L744.083724,176.288766L740.389957,176.577539L738.620272,176.715520L741.010201,185.284123L742.305351,189.923776L742.572803,190.881540L744.448988,191.361869L747.649565,192.180576L748.726110,192.455762L753.692434,193.723988L753.692435,193.723988L755.843108,203.516128L756.274200,205.477606L760.645293,211.305844L762.196605,213.372844L756.592820,224.154418L752.943007,231.164841L745.124166,246.151976L736.071911,252.421941L736.007451,255.579272L739.934037,256.457157L741.572572,256.823117L744.770296,257.536679L748.193097,260.993411L749.128564,261.937711L749.841739,262.657491L751.977264,264.812140L752.642268,265.482897L753.506827,266.354794L760.180957,269.902263L761.464787,270.584063L764.616038,269.968409L765.741793,269.748275L767.407622,269.422343L770.996396,268.719399L774.128990,273.053949L774.306659,277.718532L773.009528,278.646161L767.381908,282.667626L767.381909,282.667628L768.029261,283.549138L771.169691,287.823572L775.137542,293.219618L768.457894,301.320275L768.457895,301.320275L778.670904,304.084975L780.045969,304.456527L786.428300,306.178958L786.428304,306.178962L788.568428,308.202390L793.084338,312.469077L802.740468,309.177470L804.787748,308.478455L814.409836,305.187811L815.121437,304.944103L816.457670,304.486343L817.667407,305.137032L820.012810,306.398086L821.820461,307.369573L825.322127,309.250401L828.416424,310.911244L832.391952,313.043461L836.334693,313.327403L836.742249,313.356687L837.280224,313.395321L843.525801,313.842224L844.459643,311.917829L846.213793,308.301094L846.655424,307.390138L845.750372,308.045628L844.396159,309.026179L844.222925,309.151593L843.869743,309.407265L840.737733,311.673683L844.047966,307.106938L843.689256,304.927611L841.791039,293.388292L841.791039,293.388290L849.369562,290.927158L853.699227,289.518695L859.586030,287.600886L859.637285,287.584174L861.824096,286.870919L862.394387,284.122907L862.567697,283.287482L863.658900,278.024127L864.539123,273.774239L865.581987,268.734225L870.862350,266.480177L872.745060,265.675786L874.641706,264.865063L877.181069,263.779015L877.750511,263.535380L879.265250,262.887133L881.546058,261.910582L884.090260,264.737959L884.258093,264.924418L884.636995,265.345345L888.367611,264.082221L888.661860,259.712365L889.030245,254.232710L889.146182,252.506149L889.300280,250.209760L893.410861,250.097296L895.971631,250.026585L896.477943,247.300420L896.757145,245.796402L903.122278,244.602536L908.458267,250.621825L909.370353,251.650014L911.401140,253.938584L913.477054,256.276976L914.386574,257.301166L919.719929,256.478833L923.285844,255.927745Z " data-nuts-id="HR04B" data-shape-area="4.78646258379e-001" data-shape-leng="4.66141317215e+000" data-stat-levl-="3"/><path d="M923.285844,255.927745L919.719929,256.478833L914.386574,257.301166L913.477054,256.276976L911.401140,253.938584L909.370353,251.650014L908.458267,250.621825L903.122278,244.602536L896.757145,245.796402L896.477943,247.300420L895.971631,250.026585L893.410861,250.097296L889.300280,250.209760L889.146182,252.506149L889.030245,254.232710L888.661860,259.712365L888.367611,264.082221L884.636995,265.345345L884.258093,264.924418L884.090260,264.737959L881.546058,261.910582L879.265250,262.887133L877.750511,263.535380L877.181069,263.779015L874.641706,264.865063L872.745060,265.675786L870.862350,266.480177L865.581987,268.734225L864.539123,273.774239L863.658900,278.024127L862.567697,283.287482L862.394387,284.122907L861.824096,286.870919L859.637285,287.584174L859.586030,287.600886L853.699227,289.518695L849.369562,290.927158L841.791039,293.388290L841.791039,293.388292L843.689256,304.927611L844.047966,307.106938L848.342777,307.537693L852.011974,307.904576L853.196720,312.147471L852.015304,314.157249L850.594592,316.573060L845.586227,325.080312L840.464567,333.765411L846.937466,340.861996L852.690860,342.949437L855.464078,343.954504L859.618550,345.458816L864.248775,347.133489L867.812831,348.421179L867.812832,348.421180L867.764035,346.392678L867.707942,344.062504L867.674064,342.656018L871.837954,339.923029L870.261968,345.858623L869.965324,346.975087L876.107888,352.429209L879.510781,355.447759L880.313704,356.159689L882.093937,357.737754L886.038645,361.232441L890.758002,369.527526L892.253391,372.153771L893.991428,375.204860L888.398007,374.587543L886.241853,374.348931L886.845112,378.771915L887.066117,380.391969L887.319666,382.250369L887.541142,383.873513L892.566000,387.769163L902.262625,395.275519L902.262626,395.275519L912.525046,394.810571L931.274350,393.940233L926.755239,379.813454L926.755240,379.813453L932.612582,377.967656L933.137994,378.387498L938.629990,382.773332L941.661664,376.855240L945.979623,374.160361L948.492990,372.590545L953.019255,369.761267L949.761605,363.321410L945.810540,365.626865L944.986905,366.107198L935.385891,364.347018L937.240885,363.199096L941.932605,360.293598L942.658359,356.786679L942.912059,355.560151L942.261858,349.551502L940.592272,334.117770L939.740091,326.237544L939.545313,324.436152L944.333532,326.140152L948.982743,327.792647L953.672003,321.026695L957.354607,315.706541L953.108487,313.648242L952.475686,313.341327L954.113531,310.196486L958.102191,311.648717L959.348224,312.102081L971.802862,316.625666L972.972958,317.049906L972.948715,316.346573L972.849041,313.456159L972.845213,313.345190L972.689760,308.841594L977.830650,307.954640L978.334756,308.742038L981.819295,314.182153L982.413535,315.109432L982.593777,315.390664L987.914288,316.199665L994.982671,317.270984L997.092876,313.797855L999.489478,309.850372L994.648779,301.118127L977.383762,301.434396L972.962530,301.511732L955.674657,293.935471L941.009934,287.484970L939.799162,282.831940L938.867885,279.251507L935.605037,277.877266L934.780403,277.529780L918.766808,270.768499L919.919662,264.660487L920.705877,264.405866L926.911033,262.394256L927.488536,262.206856L923.285844,255.927745Z " data-nuts-id="HR04C" data-shape-area="2.78170919085e-001" data-shape-leng="3.41306219946e+000" data-stat-levl-="3"/><path d="M407.444462,255.382703L407.278740,251.507206L407.081981,246.902897L402.450018,242.738322L398.727272,239.388161L391.119306,240.567785L386.895846,241.220667L384.629422,241.570442L383.506692,241.743561L382.785012,240.325696L381.257808,237.324104L379.641715,234.146128L378.670301,232.235052L376.634263,231.244117L374.914773,230.406888L367.089995,226.592808L362.625705,224.413699L356.047023,221.198468L350.834390,226.174048L348.215990,228.671221L347.102072,228.013719L342.459046,225.271407L337.884402,222.566776L338.053138,222.039064L339.570009,217.293239L334.237076,214.066298L330.973781,212.089851L329.951986,209.785802L327.831212,205.000781L320.693843,201.415389L319.256716,200.692760L316.665327,199.389141L314.342043,195.631206L309.836389,188.335872L308.985787,186.957520L296.629288,197.315591L298.623101,200.118026L299.349370,199.801227L300.545895,199.279184L301.082820,201.384485L301.092282,201.421578L301.665240,203.667336L303.130307,203.253781L303.589138,203.124225L304.108221,202.977635L304.362602,202.905788L305.083745,202.702081L305.541305,202.572806L304.723193,204.263087L304.668203,204.376685L304.573987,204.571308L304.629349,204.533243L308.959126,201.554834L313.216082,198.623873L321.284599,214.449138L319.701415,215.780554L318.360909,216.907531L316.932794,216.498479L313.912085,215.632674L311.046759,214.810664L310.587987,215.205662L307.881630,217.535024L304.122215,220.768520L301.059395,223.400952L301.000288,223.451736L299.636190,224.623584L299.986840,226.023975L301.315907,231.328923L302.305942,235.277587L302.729870,236.967593L303.485127,239.977280L303.839409,241.388572L304.572364,242.020289L304.717224,242.145128L304.788562,242.206605L314.851778,250.869175L316.494641,252.281564L317.442029,253.095814L312.368861,257.261349L309.499552,259.615330L308.958547,260.059010L307.803316,261.006249L306.532756,260.555883L304.474284,259.825907L304.229501,259.739076L300.965740,258.580783L298.634794,257.752923L290.759458,266.922738L290.981922,269.775909L291.276712,273.554280L289.523290,276.267474L289.496606,276.308753L286.436371,281.040946L283.149197,286.119694L282.475193,287.160485L282.352815,294.350289L270.354152,302.261885L263.356396,298.969284L260.780892,297.756101L258.335487,296.603527L257.530225,294.723374L256.072737,291.318830L249.491860,299.011370L245.919345,303.182447L245.919345,303.182448L250.820747,309.365331L250.491735,312.792928L250.013460,317.773281L249.927484,318.668286L249.877642,319.187095L249.483999,323.283550L248.724585,331.181379L252.720962,336.427746L254.846442,339.215804L254.846444,339.215805L254.846729,339.215953L254.848374,339.216806L264.280007,344.105802L270.989670,347.577507L278.875865,344.341657L279.907477,343.917907L284.040638,342.219081L290.027850,346.978641L292.868987,349.235055L311.532566,364.023132L315.741068,367.349503L323.312181,379.791020L326.893886,385.667033L326.893887,385.667033L333.109830,386.123577L334.622065,386.234198L339.028788,386.555555L345.299918,396.106851L346.144688,397.392199L348.656800,395.809876L345.569639,386.459075L351.948680,386.952021L356.368749,387.291754L359.024932,385.149966L359.778033,384.542490L363.186166,381.792163L364.457522,382.931798L366.780669,385.013428L371.337887,389.093797L375.967306,384.845799L383.758106,376.430595L384.297512,370.899206L383.193132,368.400430L381.183735,363.851306L380.961676,363.348369L380.348597,361.959603L378.799904,358.450036L377.762810,356.098682L377.106742,354.610738L381.567866,347.730734L382.224405,346.717496L385.266295,342.020528L384.440054,339.847789L382.256935,334.103221L380.824012,330.329775L389.862035,319.917229L392.914397,316.395628L389.093747,311.397109L384.247726,305.050112L385.263346,302.433768L386.299286,299.763958L387.168630,297.522624L387.900075,295.636200L383.901227,286.073987L383.135493,284.241212L386.041084,278.695751L392.457471,266.431358L394.248771,263.002896L395.448284,260.705973L395.981814,259.684042L391.852483,259.399289L392.158119,251.473565L398.039870,248.908777L398.794047,248.579652L404.351716,252.951882L407.444462,255.382703Z " data-nuts-id="HR04D" data-shape-area="4.14535615645e-001" data-shape-leng="3.86939655310e+000" data-stat-levl-="3"/><path d="M576.189613,253.570620L572.796326,257.059970L568.205496,247.273460L568.017864,246.873155L566.536595,243.712038L566.268833,243.140451L564.062800,238.429299L563.764190,237.791326L562.880770,237.122408L555.395786,231.449870L554.448066,226.768876L553.029765,219.758028L549.737298,220.799885L546.649558,221.776066L545.240025,220.269323L545.083974,220.102480L545.002576,220.015450L540.919403,215.647734L540.838751,215.561420L539.595391,214.230590L537.607212,212.101764L537.607210,212.101762L532.070940,211.033422L528.060643,210.258008L522.898450,209.257959L522.225147,209.127365L520.192027,214.253967L519.216946,216.711105L518.072587,219.593510L514.083024,220.000640L511.641233,220.249218L507.622123,224.062731L503.478545,227.990747L499.276154,231.970791L499.276149,231.970796L498.504097,231.371815L491.405957,225.860287L487.779059,223.040896L482.764803,219.139467L477.444082,214.995056L470.240915,220.791589L468.222820,222.413977L467.072538,223.338397L465.972822,224.221966L465.227806,224.820431L464.187266,225.656129L461.076266,228.153574L460.565391,227.595146L457.185960,223.899488L453.267285,219.610511L450.803110,216.911487L450.803108,216.911487L445.792706,217.585274L441.697097,222.225559L435.690993,229.022269L433.180223,231.860676L431.621540,233.621908L431.621538,233.621910L433.229171,237.579023L437.246822,247.457269L436.303285,247.931165L431.284180,250.450341L425.598117,253.300833L418.143014,257.032631L407.445083,255.382799L407.444462,255.382703L404.351716,252.951882L398.794047,248.579652L398.039870,248.908777L392.158119,251.473565L391.852483,259.399289L395.981814,259.684042L395.448284,260.705973L394.248771,263.002896L392.457471,266.431358L386.041084,278.695751L383.135493,284.241212L383.901227,286.073987L387.900075,295.636200L387.168630,297.522624L386.299286,299.763958L385.263346,302.433768L384.247726,305.050112L389.093747,311.397109L392.914397,316.395628L395.368343,316.060624L405.899006,314.617659L407.201610,314.438566L407.774830,316.991756L407.881666,317.467506L408.270214,319.197445L411.959348,317.156598L415.773684,315.044754L416.617793,314.577166L422.978664,317.584337L427.181678,326.595438L434.749126,342.786065L435.599043,344.601777L435.599044,344.601778L441.487189,347.816700L443.612093,348.975875L449.534567,352.203843L449.847362,353.040858L450.873676,355.786421L453.250050,362.139082L453.250051,362.139083L458.850833,364.676887L461.777047,366.001478L469.921660,369.683475L475.947868,369.048337L480.344987,368.583123L481.006302,365.974918L483.074163,357.812299L485.469300,348.344406L486.944373,342.506315L490.659249,340.183812L492.013051,339.336966L498.572012,335.230628L498.572014,335.230627L500.546433,329.341540L501.652574,326.039772L502.405697,323.790718L504.117730,318.674972L509.560559,315.105703L509.560561,315.105702L520.840198,313.857696L524.403783,315.651882L526.391301,316.651932L528.623177,317.774404L532.428951,319.687142L537.336681,322.151305L537.336682,322.151306L537.336684,322.151305L539.218097,321.339423L539.694454,321.133803L542.891316,319.753265L543.666892,319.418178L545.519709,320.116060L548.943971,321.404974L557.726931,324.705783L560.038623,322.110352L562.223067,319.656462L564.243213,317.385986L566.251220,315.128059L571.864550,308.810284L574.003242,306.400944L577.400318,302.571414L580.871962,307.315961L580.534078,308.225359L578.294234,314.250207L584.459047,313.995551L590.347391,317.148046L590.501318,317.230401L600.584309,322.619029L613.018188,329.247709L613.018191,329.247710L601.129585,316.406127L602.333416,314.796969L607.941815,307.293441L616.645835,295.626020L617.802408,294.073634L621.001348,289.777421L621.001350,289.777419L618.974384,286.584758L617.813589,284.755612L617.813587,284.755609L615.692906,283.781363L610.260797,281.283665L596.010885,274.716656L596.680922,272.516586L597.563361,269.617825L599.312577,263.867474L595.810603,268.139380L595.520206,268.086939L591.685845,267.393883L590.488196,264.313790L590.308703,263.852051L588.618644,259.502879L586.975718,259.731685L584.789360,260.035845L582.010021,260.421956L578.663630,256.483978L576.189613,253.570620Z " data-nuts-id="HR04E" data-shape-area="5.13572806714e-001" data-shape-leng="4.09915356186e+000" data-stat-levl-="3"/><path d="M220.628182,254.011432L219.360327,250.661446L214.616530,246.949934L214.082663,246.532001L213.553441,246.117655L211.250075,244.313714L206.191726,240.348950L205.672968,239.141104L205.223137,238.093534L205.028261,237.639646L204.704324,236.885079L203.961093,235.153443L203.863496,234.926012L203.173086,233.316903L202.719828,232.260265L202.487037,231.717502L202.035959,230.665648L201.306141,228.963397L198.656005,227.030067L197.389615,226.105816L196.709595,225.609411L196.328691,225.331324L192.449040,222.497596L190.111946,220.789409L189.712669,220.497490L185.979017,217.766516L187.274026,213.776286L188.409561,210.275606L182.703376,207.247114L181.786556,206.760159L181.786553,206.760163L174.245832,219.017134L172.251680,222.254306L170.782348,227.763150L170.656230,228.235809L169.057699,234.224159L167.816769,238.869635L163.420585,241.623543L156.239173,246.116754L151.640611,248.990397L148.817243,250.412085L140.234548,254.728391L139.596815,254.302999L139.571446,254.286075L132.904213,249.835199L132.515112,249.575244L129.265331,247.403238L126.750341,245.721273L122.666199,247.982377L121.523650,248.614572L121.168850,250.350802L120.389161,254.165014L110.164466,252.019446L107.584496,251.476694L105.441514,251.025453L103.931491,250.703046L107.731867,262.620803L113.674091,266.150836L119.619768,269.678280L117.528297,271.992545L117.009630,272.566296L115.699972,274.014752L116.498280,276.244080L119.087967,283.469768L118.060056,288.395800L116.039838,298.069027L116.274793,300.765838L116.470027,303.005421L116.808933,306.890310L116.870238,307.592673L118.250174,323.371766L118.525351,326.511349L121.898045,329.537100L121.898046,329.537099L124.872890,319.171586L126.102483,314.883146L128.890418,305.150857L129.531182,302.912304L130.316502,300.167847L131.947029,294.466519L140.658984,281.845070L140.660466,281.845722L152.416020,287.003942L163.175823,291.712425L164.693791,292.375703L170.072589,297.648468L178.784509,306.174750L179.627241,306.998615L186.898241,314.100186L189.536614,316.674140L191.567372,318.654249L199.678875,326.554228L200.039769,326.905368L204.495719,331.238502L208.272975,334.908180L211.163255,336.137711L213.454465,337.111781L222.948331,341.142142L231.688037,360.040020L232.254956,356.476926L232.719199,353.557991L234.116732,352.619803L238.400609,349.742252L239.889216,348.741726L240.777117,348.949380L243.363796,349.553948L253.115289,351.828040L253.167429,351.840178L254.543688,352.160477L254.607106,349.448657L254.805104,340.983065L254.841459,339.428832L254.846442,339.215804L252.720962,336.427746L248.724585,331.181379L249.483999,323.283550L249.877642,319.187095L249.927484,318.668286L250.013460,317.773281L250.491735,312.792928L250.820747,309.365331L245.919345,303.182448L245.919345,303.182447L249.491860,299.011370L256.072737,291.318830L257.530225,294.723374L258.335487,296.603527L260.780892,297.756101L263.356396,298.969284L270.354152,302.261885L282.352815,294.350289L282.475193,287.160485L283.149197,286.119694L286.436371,281.040946L289.496606,276.308753L289.523290,276.267474L291.276712,273.554280L290.981922,269.775909L290.759458,266.922738L286.904427,267.069366L283.907197,267.182591L279.220051,267.358293L277.138953,265.157271L273.570979,261.381189L272.209438,259.939401L268.765668,256.290600L268.762019,256.286732L268.018173,255.498211L267.780035,255.245741L267.208217,254.639453L266.089252,253.452797L265.072475,252.374241L260.660601,251.615656L260.599874,251.605203L258.491503,251.242126L257.019758,250.988469L255.773405,250.773524L250.817849,249.917659L250.816976,249.917508L250.816974,249.917508L248.815484,248.157851L246.727313,246.321154L246.280735,245.928246L241.764044,241.952181L238.193963,253.337098L238.193962,253.337098L235.743446,254.089370L232.804106,254.990999L232.408808,255.112197L232.019726,255.231474L229.614024,255.968673L228.029538,256.453939L227.257738,256.690231L223.389463,257.873730L222.225643,258.229541L220.628182,254.011432Z M194.629783,338.226297L196.125802,337.131533L198.185225,335.623922L194.446484,332.164739L193.200939,331.011678L191.004376,328.977422L190.356921,328.377615L190.303271,328.327910L190.283292,328.265793L185.881326,314.563167L185.665475,313.890411L179.943617,310.285617L177.421361,308.695156L173.482502,312.927300L172.799181,313.661124L172.578437,318.005360L171.906721,331.221279L171.894584,331.460015L171.884996,331.648615L171.529273,338.645206L165.496547,336.942193L163.665224,336.424582L161.962475,339.385859L159.459465,343.736306L156.168965,349.450823L156.168963,349.450826L167.103890,362.027092L168.375183,362.315555L173.042557,363.373442L177.529705,364.388755L177.529708,364.388754L177.748423,364.295210L182.542732,362.243488L185.377340,361.029317L185.768915,363.894274L186.659567,370.404853L186.768683,371.201923L186.944439,372.485532L193.708959,376.189597L198.910348,379.033931L200.733214,380.029968L200.733215,380.029968L204.589369,381.671688L204.589602,381.671786L204.589639,381.671802L208.446759,383.312387L211.403238,382.052831L210.418384,377.677414L209.864383,375.214670L209.864385,375.214670L211.545824,375.190001L221.221977,375.043874L203.061770,354.758485L200.257396,351.617969L195.132002,345.872696L194.746194,339.999884L194.629783,338.226297Z M160.247610,388.468258L163.883029,377.488690L164.284506,376.275147L161.911726,371.249546L161.723350,371.240602L159.987697,371.158060L158.636638,371.093650L154.425743,370.892006L149.868950,363.036801L144.071181,345.632674L144.161082,344.388178L144.653661,337.567823L145.006316,332.683292L145.290764,328.742506L138.151657,324.686923L130.078278,341.562943L135.013786,350.226143L135.371965,350.416245L138.860062,352.266730L142.069768,353.968237L142.136318,361.707618L142.173564,366.014735L149.060488,374.796545L153.054615,379.882375L149.989883,385.347372L147.247411,390.233677L140.866826,387.270431L139.712217,385.256806L135.723854,378.295317L135.094923,381.402989L134.780339,382.956985L133.836431,387.618048L133.836432,387.618050L137.256252,397.503649L141.623942,410.103968L143.942918,416.782508L147.483185,426.963063L148.999553,436.118297L150.427781,444.726826L150.640560,446.008130L151.787918,447.341584L155.977710,452.207713L163.848224,461.335060L168.483755,460.549598L168.483758,460.549595L173.339413,455.272649L159.938789,432.571878L162.051986,429.424102L162.733965,428.407876L161.043310,418.283780L160.844004,417.089011L159.032144,406.215185L157.898258,399.398828L157.472645,396.837983L159.523842,390.652181L160.247610,388.468258Z M207.947186,412.454856L206.637769,410.791977L210.042152,405.572432L204.321218,405.233561L200.259576,404.991455L196.761973,404.781958L201.124092,410.315228L202.935291,412.610868L203.416206,413.552425L204.668114,416.002715L200.585504,415.866665L196.410370,415.726219L193.772441,415.636797L195.547696,422.436806L200.564222,426.241203L202.255211,425.487835L203.957194,424.729268L204.726322,424.386371L207.349911,423.216244L208.538098,424.426023L223.101627,439.227089L228.669718,438.696664L207.947186,412.454856Z M152.380439,470.803550L153.997441,470.034382L149.426344,460.706952L148.919176,459.671094L147.920099,457.629977L148.156003,453.796503L148.858949,442.369808L141.566304,437.314828L139.089907,435.596457L140.566234,451.441759L143.388356,455.582201L144.736489,457.558922L145.848472,459.188811L147.422840,461.495555L145.895604,464.941097L145.566742,465.682802L143.101457,471.240342L147.204365,473.263778L152.380439,470.803550Z M171.157907,491.633800L172.276795,489.171860L167.450638,481.490111L167.450638,481.490110L159.279206,475.601701L158.443900,475.456791L157.453173,475.284845L155.063974,474.869860L156.511337,480.476865L167.914391,492.368947L171.157907,491.633800Z M127.970736,458.219803L127.963971,458.205747L124.517768,451.040089L124.989680,450.601306L129.961412,445.975934L129.189760,443.091500L128.742386,441.418526L128.527234,440.613779L128.500174,440.512556L128.205382,440.801729L125.257606,443.692313L121.502577,447.371848L120.463231,454.185584L121.486851,456.960912L121.566564,457.176980L125.950029,459.017064L127.970736,458.219803Z M222.995668,392.582519L219.545888,387.662990L214.780919,384.290141L212.889574,383.913106L212.341670,383.803828L212.367377,384.344263L212.596217,389.151940L223.976695,395.851162L222.995668,392.582519Z M175.841249,377.978571L174.451062,374.022103L172.253212,371.735888L170.734417,370.155335L165.509226,371.287032L164.648489,371.473239L167.704104,373.981864L170.321146,376.129083L172.583626,377.984393L175.841249,377.978571Z M214.187969,402.141302L212.552681,398.425942L212.552671,398.425934L208.606224,395.373383L208.532390,395.460431L206.444849,397.920960L206.413985,397.957330L206.439386,398.003674L208.237862,401.284034L213.258694,402.706072L214.187969,402.141302Z M177.723673,499.520379L176.656310,497.410025L172.432794,495.084470L169.988254,497.082938L171.021165,499.602946L175.569621,500.369594L178.393718,500.844758L177.723673,499.520379Z M223.945686,406.981419L223.972423,404.674565L220.746919,404.100472L217.511748,403.523814L218.119203,406.511936L221.134489,409.372899L223.945686,406.981419Z M131.817694,486.309696L134.868832,484.782837L135.079246,484.677502L135.270335,484.210590L135.613732,483.371442L135.664209,483.248085L133.603433,482.363072L131.581197,481.494176L129.533193,480.613771L128.847569,480.990333L128.625050,481.112533L128.668845,481.256897L129.088617,482.640417L129.181920,482.947888L129.233178,483.015052L131.620414,486.142043L131.767590,486.334761L131.817694,486.309696Z M224.190949,442.804588L221.146762,437.578963L221.146761,437.578961L221.146759,437.578959L212.294864,429.641085L211.887446,429.275358L212.152580,429.552449L217.344742,434.975279L217.344743,434.975282L221.364650,441.699972L224.152393,442.848671L224.236940,442.883496L224.190949,442.804588Z " data-nuts-id="HR031" data-shape-area="4.13899473403e-001" data-shape-leng="8.87814756632e+000" data-stat-levl-="3"/><path d="M264.280007,344.105802L254.848374,339.216806L254.846729,339.215953L254.846444,339.215805L254.846442,339.215804L254.841459,339.428832L254.805104,340.983065L254.607106,349.448657L254.543688,352.160477L253.167429,351.840178L253.115289,351.828040L243.363796,349.553948L240.777117,348.949380L239.889216,348.741726L238.400609,349.742252L234.116732,352.619803L232.719199,353.557991L232.254956,356.476926L231.688037,360.040020L236.780079,373.315233L239.284348,379.832879L237.484219,385.579254L233.328558,398.827125L232.425879,401.701504L232.148302,402.585151L231.273926,405.367943L232.466969,428.103301L232.676643,432.086488L233.126301,440.616197L247.755345,468.776417L248.474952,470.157997L257.401512,475.495567L264.764561,483.527128L270.342688,489.602390L278.506355,498.479191L280.735185,500.899747L283.889498,504.323225L290.031790,510.982357L299.250668,520.958916L299.250671,520.958919L304.628166,507.921748L309.111392,509.941176L338.309754,523.040859L338.424007,523.233968L347.151044,537.964742L357.297160,539.493219L358.233602,539.633877L362.904011,540.334351L383.283499,543.370553L391.210945,532.291444L388.771500,525.416222L385.124054,523.810431L383.249531,522.984626L381.448941,522.191045L381.659742,520.255090L382.646310,511.187564L382.746762,510.263653L383.221388,505.896658L385.414909,504.459077L397.770942,496.348680L399.595244,495.149414L407.993309,489.622654L411.287797,487.451851L419.865201,490.158068L420.383577,490.957576L425.841447,499.368441L430.491846,506.524925L434.261797,501.429408L439.803449,500.296601L443.004605,499.641077L444.529710,493.622249L441.439093,486.113068L441.043842,485.152090L436.750071,482.372361L433.460496,480.241014L432.362384,479.529204L423.689112,473.901216L423.483796,468.488402L424.257420,468.329739L426.512711,467.866918L426.843809,467.798937L427.551221,467.653660L429.601116,462.576730L429.816693,462.042574L425.891758,452.281100L424.028679,451.458418L416.496835,448.128857L415.319175,446.549406L414.837782,445.903634L409.527567,438.774895L406.194765,434.295791L402.526814,429.361835L400.751177,430.860307L397.425676,433.665182L395.153927,435.580125L392.474406,437.837593L390.528077,435.974234L389.310007,434.807678L387.517482,433.090388L383.450117,429.191194L380.395566,423.021708L376.786120,415.723157L374.539160,411.175090L379.979485,408.661356L385.488647,406.112574L377.302452,387.832501L375.967306,384.845801L375.967306,384.845799L371.337887,389.093797L366.780669,385.013428L364.457522,382.931798L363.186166,381.792163L359.778033,384.542490L359.024932,385.149966L356.368749,387.291754L351.948680,386.952021L345.569639,386.459075L348.656800,395.809876L346.144688,397.392199L345.299918,396.106851L339.028788,386.555555L334.622065,386.234198L333.109830,386.123577L326.893887,385.667033L326.893886,385.667033L323.312181,379.791020L315.741068,367.349503L311.532566,364.023132L292.868987,349.235055L290.027850,346.978641L284.040638,342.219081L279.907477,343.917907L278.875865,344.341657L270.989670,347.577507L264.280007,344.105802Z M227.255278,465.999845L205.416466,438.450763L218.560802,458.930620L218.561138,458.931142L224.086348,467.516314L228.862528,474.926482L232.719783,480.903432L235.971002,478.453434L235.971036,478.453408L238.672861,476.568303L238.672863,476.568305L242.588993,479.229016L247.570349,482.610216L248.102150,482.970973L251.244713,485.101940L257.401221,489.272470L258.303111,489.882961L263.830195,493.621665L257.469444,483.345315L254.725083,482.088602L253.052851,481.322446L247.902341,478.960765L236.689018,463.009874L235.162764,460.834987L231.468916,461.410428L228.640787,461.850271L228.912233,463.011330L229.285808,464.608848L230.593462,470.197310L227.255278,465.999845Z " data-nuts-id="HR032" data-shape-area="6.05097345757e-001" data-shape-leng="4.99427044597e+000" data-stat-levl-="3"/><path d="M425.841447,499.368441L420.383577,490.957576L419.865201,490.158068L411.287797,487.451851L407.993309,489.622654L399.595244,495.149414L397.770942,496.348680L385.414909,504.459077L383.221388,505.896658L382.746762,510.263653L382.646310,511.187564L381.659742,520.255090L381.448941,522.191045L383.249531,522.984626L385.124054,523.810431L388.771500,525.416222L391.210945,532.291444L383.283499,543.370553L362.904011,540.334351L358.233602,539.633877L357.297160,539.493219L347.151044,537.964742L338.424007,523.233968L338.309754,523.040859L309.111392,509.941176L304.628166,507.921748L299.250671,520.958919L299.250672,520.958920L319.472646,532.149088L327.034005,541.095165L327.143496,541.224586L327.239885,541.243931L331.041392,542.006286L335.385586,542.876013L339.450762,543.688472L339.612752,547.853276L339.813695,553.014898L339.813906,553.020307L339.842468,553.753556L346.031441,557.415154L350.032044,559.779417L351.379477,562.845401L354.960310,570.985729L357.099568,575.843672L354.024019,576.294139L353.102728,569.642184L352.893943,568.133713L352.108522,567.429775L351.953597,567.290908L351.636882,567.007006L346.748705,562.622764L339.280754,565.894864L333.231879,561.633547L329.960528,559.326642L331.775574,558.277999L332.856975,557.653024L339.381662,553.879101L339.006848,551.367659L338.954356,551.015854L338.734039,549.539058L331.240357,547.076800L327.805852,545.946560L325.006569,545.024553L325.006565,545.024552L325.006554,545.024555L322.763325,545.577135L319.242148,546.443651L306.864606,537.398775L295.394110,528.995234L302.183605,539.576756L300.113057,545.619685L298.878892,549.219039L298.878891,549.219038L292.133351,543.362575L285.690548,537.760846L282.300105,539.928300L282.300104,539.928300L284.627621,543.643786L286.126782,546.035602L285.208247,547.593498L284.871849,548.163949L283.340853,550.759461L279.785752,546.944655L276.169913,543.061409L273.806925,540.521886L273.806924,540.521885L269.648833,545.725495L274.287855,549.926290L274.449501,550.072588L275.047342,550.613620L275.897956,551.383281L277.680656,552.995851L277.495796,555.493379L277.268939,558.557427L277.143405,560.252537L276.948001,562.890523L278.363126,565.239954L284.878780,576.044522L287.933408,581.102571L287.933409,581.102573L294.558542,585.084675L295.002856,586.283092L295.190139,586.788164L296.186072,589.473333L296.942535,591.512059L297.303235,592.483929L299.134117,594.040873L299.747877,594.562662L302.183567,596.632679L304.923245,598.959733L308.880063,602.318157L310.501101,603.693208L311.246477,604.708574L314.431408,609.044912L316.358817,611.667353L319.297174,615.662746L324.318072,622.482738L326.794227,625.842858L330.095178,628.153351L340.593304,635.490635L344.674938,638.338893L347.395268,635.107418L350.318796,637.500252L352.438201,639.233987L358.088703,643.852391L360.843343,640.496597L361.067541,640.223374L362.008086,639.077001L362.715132,638.215054L365.924602,634.300606L372.534802,639.305882L373.948809,640.375657L375.991730,641.920669L376.905364,638.135331L378.076995,633.277962L378.344924,632.166681L380.092963,624.911926L380.356030,623.819460L381.326947,619.785907L385.397397,622.605277L386.413950,623.309003L388.496495,624.750204L390.132695,620.932927L390.708353,619.589353L388.322998,616.584792L384.834762,612.187857L391.214892,608.982996L392.270261,608.452419L393.221882,607.973891L394.458858,603.938660L396.388619,597.638460L391.935205,593.874179L390.496608,592.657421L385.035769,588.035228L388.807855,588.769103L392.147378,589.417846L396.795986,583.874833L400.977001,578.884102L402.968325,576.505369L414.205518,563.060647L416.449605,567.531144L418.326069,571.266732L418.694762,572.000435L418.694785,572.000447L424.302085,574.662592L430.537363,577.618829L435.955885,580.184373L443.256165,574.470985L443.554892,568.311031L443.649796,566.352766L444.079819,557.471802L447.947142,557.911448L450.045433,558.149496L452.104242,557.254092L453.281837,556.741741L458.083422,554.651152L455.943003,548.093567L453.350373,540.141724L452.492160,537.507369L457.079267,526.839573L457.865717,525.008721L445.333482,519.048005L442.947913,517.911405L442.757511,516.517868L442.723656,516.270064L442.647697,515.714027L442.645963,515.701328L442.578518,515.207584L442.457324,514.320261L442.398605,513.890303L443.251794,513.676275L444.646195,513.326348L449.936674,511.997178L448.269886,509.028583L444.623998,502.529906L443.004605,499.641077L439.803449,500.296601L434.261797,501.429408L430.491846,506.524925L425.841447,499.368441Z M247.229054,490.622981L235.971036,478.453408L235.971002,478.453434L232.719783,480.903432L232.719784,480.903433L236.794458,487.483255L235.627216,488.140823L234.790977,488.611818L233.288937,489.457598L238.476207,495.224012L242.636139,495.325282L243.274697,495.340711L250.747017,503.794655L256.686917,510.504009L261.036574,512.668255L269.621607,516.933562L267.402742,518.980531L264.874212,521.311984L266.283417,526.283069L267.277901,529.788705L279.786477,538.457473L276.652605,534.489087L272.192428,528.835767L280.166283,531.485342L286.398280,533.552008L286.398286,533.552010L286.398289,533.552008L290.078946,531.482544L283.708954,525.631777L279.018286,521.318144L283.287326,524.111190L293.459553,530.756075L291.985724,524.124769L289.266859,521.657441L279.954330,513.195176L277.322763,510.800706L272.184349,506.121209L266.566254,500.998746L264.572020,499.178902L257.545421,492.760311L257.536712,501.736865L247.229054,490.622981Z M225.829741,565.982256L227.918876,571.462209L228.278331,572.404568L228.716462,573.552981L225.988720,574.050489L225.449341,574.148793L224.615179,574.300777L219.786915,569.738703L219.299790,569.278157L220.281835,567.961097L220.380619,567.989938L221.415646,568.292082L221.604426,568.347179L220.618858,567.288078L218.243508,569.586649L218.243496,569.586660L219.096452,571.771928L226.146303,575.929135L226.146304,575.929136L226.920705,575.223219L227.551727,574.647915L230.068497,576.164407L244.041940,590.386360L257.272240,610.701656L266.307429,624.531157L282.949066,639.448707L275.193704,630.770868L270.850567,625.904106L281.216117,632.070830L284.703792,634.142593L286.977599,629.994571L286.977599,629.994569L284.367210,627.839136L275.568096,620.564560L271.228894,616.972032L270.573526,616.429142L265.565582,612.278126L263.222298,610.334252L259.331274,607.104250L250.751283,587.367534L248.484562,586.421789L241.487847,583.499205L236.413193,577.829334L225.829741,565.982256Z M321.596075,626.881921L315.650262,618.653854L313.235973,615.309159L307.652739,612.326554L292.076519,603.985910L298.660530,612.700562L300.355393,614.941494L303.635177,619.275204L309.875323,627.510434L311.066828,629.081378L314.962322,628.067386L326.853078,634.146019L321.596075,626.881921Z M282.309039,588.965438L265.273630,573.839968L262.649103,571.504623L260.187796,569.313281L262.390728,577.404639L275.406870,591.399760L277.310521,593.443007L279.674047,595.978582L283.200314,599.758928L285.624122,597.220769L286.449876,596.355745L290.682424,605.161055L291.939913,603.837229L293.054744,602.663275L293.563788,602.127136L292.954298,600.895112L292.923677,600.833209L292.077669,599.122635L291.634795,598.226971L291.324663,597.599680L290.751610,596.440411L282.309039,588.965438Z M218.189242,525.275720L219.181257,523.060986L219.397012,522.579200L219.357534,522.312126L219.340777,522.198760L217.727058,511.270207L216.168065,508.230929L215.980660,507.865469L215.243453,507.352537L213.160534,505.902849L210.317312,508.520048L210.171399,508.654319L207.808272,517.678686L207.361950,519.381886L215.085443,525.295875L218.189242,525.275720Z M272.241146,539.274534L272.567813,537.661162L269.004628,534.921348L266.610834,533.079520L262.616805,531.623555L256.834520,529.512976L254.795769,528.768045L253.019200,529.496465L252.745645,530.960785L253.819932,534.372565L257.463158,538.915816L257.463159,538.915817L257.463160,538.915817L259.678760,539.187037L270.181983,540.467522L272.241146,539.274534Z M231.698616,559.438986L231.813229,559.305020L234.297191,556.400761L232.543357,553.636948L230.105981,551.881557L229.456348,551.690147L224.385738,550.194824L222.569001,549.658507L222.037359,549.501505L218.398231,545.736331L216.837658,544.120725L216.379169,543.645957L215.839737,543.087305L215.839736,543.087304L213.582650,545.121201L216.617327,551.043524L218.583736,554.877740L219.955378,555.377749L228.225699,558.388696L231.414999,559.548046L231.560177,559.600796L231.698616,559.438986Z M275.529429,601.981292L272.677053,598.469983L271.652561,597.208210L267.232924,591.761237L262.842087,588.107182L262.012697,587.416571L261.751814,587.199315L261.617780,587.087690L261.631367,587.222145L262.217956,593.024151L262.241649,593.258375L262.906819,594.016609L263.646689,594.859852L268.662020,600.571949L272.055576,604.433049L272.055577,604.433051L272.055579,604.433052L277.613997,608.053748L275.529429,601.981292Z M203.273158,523.285108L202.124191,519.250488L199.843463,511.233320L198.603475,509.556035L197.950423,508.672451L195.942140,507.946498L195.132941,507.653880L194.935370,507.767321L192.764583,509.013420L192.604085,509.105528L192.573915,509.281949L192.118412,511.945075L198.103145,520.957450L200.750007,522.736477L202.002838,523.578183L203.273158,523.285108Z M255.268400,574.282311L254.010982,572.596971L253.526589,571.947580L250.062416,568.587054L242.931976,561.661624L241.237476,560.014192L239.891369,558.705023L239.840967,558.655997L239.781821,558.598464L239.785248,558.655940L239.990536,562.097715L244.069791,568.065854L245.170471,569.675039L249.119025,573.786561L250.163153,574.873151L252.881521,576.358939L254.413457,577.195858L255.268400,574.282311Z M213.126511,543.754160L215.319442,542.535524L213.345389,540.788973L212.937718,540.428189L208.178288,536.213725L204.459606,539.589635L204.856993,541.920094L206.099930,543.244191L206.658807,543.839433L207.273248,544.150706L209.961428,545.512009L213.126511,543.754160Z M244.686299,511.193266L240.085050,506.059069L234.700745,500.043909L231.307628,497.996254L230.421664,498.380417L230.281407,498.441226L229.834521,498.634964L237.839524,507.882972L243.117418,511.336506L244.686299,511.193266Z M189.822547,529.770502L187.753857,527.101142L183.637324,524.946700L183.566254,524.909487L183.485059,524.815314L181.444374,522.447821L180.017498,520.791728L178.590845,522.089384L180.626737,525.721828L184.361544,528.227553L193.238318,534.174935L189.822547,529.770502Z M262.305625,601.650757L259.126809,597.438797L258.695051,596.866444L257.636678,596.960859L258.207133,601.537371L258.207134,601.537372L263.396833,605.485120L262.305625,601.650757Z M203.092033,540.927712L203.092034,540.927711L202.167758,538.620290L199.005671,537.210672L198.052147,536.785393L197.318120,536.457945L196.064178,537.427886L195.996021,537.480599L197.455570,539.138938L198.587768,540.424935L198.776790,540.639599L199.117410,540.849141L200.538722,541.723333L200.672529,541.805618L203.092033,540.927712Z M240.195112,572.271714L236.165619,567.621033L230.795033,564.824434L230.674151,566.070812L235.320369,570.093678L236.912935,570.823248L239.279148,571.906726L240.153621,572.306989L240.273085,572.361663L240.195112,572.271714Z M258.677778,570.710663L257.178881,570.384335L254.863316,567.801290L253.555713,566.342008L252.737357,567.538786L252.645965,567.672424L255.142745,571.384815L255.142748,571.384819L259.112441,573.537280L258.677778,570.710663Z " data-nuts-id="HR033" data-shape-area="4.11439580807e-001" data-shape-leng="1.08439379128e+001" data-stat-levl-="3"/><path d="M447.947142,557.911448L444.079819,557.471802L443.649796,566.352766L443.554892,568.311031L443.256165,574.470985L435.955885,580.184373L430.537363,577.618829L424.302085,574.662592L418.694785,572.000447L418.694762,572.000435L418.326069,571.266732L416.449605,567.531144L414.205518,563.060647L402.968325,576.505369L400.977001,578.884102L396.795986,583.874833L392.147378,589.417846L388.807855,588.769103L385.035769,588.035228L390.496608,592.657421L391.935205,593.874179L396.388619,597.638460L394.458858,603.938660L393.221882,607.973891L392.270261,608.452419L391.214892,608.982996L384.834762,612.187857L388.322998,616.584792L390.708353,619.589353L390.132695,620.932927L388.496495,624.750204L386.413950,623.309003L385.397397,622.605277L381.326947,619.785907L380.356030,623.819460L380.092963,624.911926L378.344924,632.166681L378.076995,633.277962L376.905364,638.135331L375.991730,641.920669L373.948809,640.375657L372.534802,639.305882L365.924602,634.300606L362.715132,638.215054L362.008086,639.077001L361.067541,640.223374L360.843343,640.496597L358.088703,643.852391L352.438201,639.233987L350.318796,637.500252L347.395268,635.107418L344.674938,638.338893L344.770024,641.229269L350.693162,644.491205L355.582114,647.180382L364.943419,652.321470L365.333109,655.067084L365.492762,656.191603L358.406568,652.364147L357.877356,652.078062L355.164864,650.611198L354.202190,650.090389L355.613700,651.336795L357.345182,652.865221L361.253760,656.313302L367.901054,662.170678L368.883277,663.035461L376.974565,664.461165L378.073332,664.654360L383.082050,665.533791L391.899072,672.206894L394.730233,674.346976L399.241831,672.640782L399.839527,672.414596L397.362894,667.945010L395.704591,664.950346L395.704592,664.950347L404.397819,674.674024L401.018160,673.121891L400.055827,672.679707L399.458074,673.105287L395.647462,675.817045L400.924509,680.987565L405.211226,685.183266L406.364506,686.311375L411.305165,691.140921L416.321559,696.039065L406.231264,695.608156L406.192228,699.782023L406.102083,709.412446L407.670723,712.862549L407.670734,712.862574L407.670762,712.862634L407.761761,713.062720L409.240070,716.312261L417.413242,718.261418L418.867584,722.721804L414.345315,722.678350L412.483076,722.659999L412.233057,725.717305L416.741852,728.098697L419.741482,729.681672L420.573976,730.120809L422.874757,726.428821L426.446273,725.557855L432.222781,724.146855L432.376469,722.803038L432.818936,718.932662L433.167868,715.878869L431.108305,710.887882L428.552902,704.689789L434.782448,699.085074L436.844628,700.036248L438.188122,700.655684L440.744181,694.890410L446.948730,680.873156L452.723778,683.162895L460.600588,686.280592L463.206304,680.948432L463.728488,679.879295L478.308337,681.000168L481.452574,676.129714L481.427000,675.992203L480.117843,668.949092L479.034616,663.116134L488.699589,656.940415L496.271122,652.093371L479.789560,636.794642L481.673498,625.705001L490.591109,627.432901L490.893145,625.538962L491.436152,622.132541L491.749149,620.168183L504.074606,614.224757L514.050192,613.821940L511.157642,609.112134L506.745423,601.920547L499.184708,600.959783L498.503990,600.873060L495.481100,600.487508L495.398667,597.677415L495.315934,594.856411L492.324242,591.812773L489.437982,588.874469L482.635440,584.961434L477.091661,581.768206L475.123607,580.633679L474.918517,579.875537L473.536531,574.764641L472.981440,572.710700L469.034587,568.499229L460.944408,559.854803L459.217793,558.007835L450.045433,558.149496L447.947142,557.911448Z M307.260317,653.274053L297.294966,645.291427L295.286579,643.680547L294.097017,642.726096L293.092539,641.529052L291.881170,640.085059L290.219893,638.104066L289.863007,637.678391L289.001114,636.650215L287.327116,637.137712L287.369116,639.311373L287.375298,639.320677L290.072241,643.378347L293.349261,648.304643L305.200013,658.313050L312.527853,659.874193L307.260317,653.274053Z M372.783370,696.194201L374.047351,696.146962L370.652572,693.673360L363.414138,688.393088L362.302146,687.581191L357.006002,685.949645L351.905440,684.375939L351.967907,684.575835L352.943849,687.698087L358.600843,691.167250L364.959005,695.061337L365.771760,695.558727L367.482828,696.390956L372.783370,696.194201Z M359.036308,655.861803L353.937637,654.189682L351.106629,649.744738L351.070182,649.632084L351.294210,647.590075L347.680397,647.332729L347.171640,647.296418L346.815466,647.270985L346.716111,647.390694L345.565179,648.777193L350.533206,655.684838L351.651876,656.550862L352.103184,656.900186L352.390925,656.746977L353.334987,656.244240L356.083421,661.751677L356.113523,661.811966L356.335559,661.880425L363.237372,664.006163L359.288156,656.350367L359.036308,655.861803Z M308.828497,644.093154L308.828493,644.093150L302.749953,638.039852L302.482980,637.872425L295.166567,633.280325L294.414666,632.807986L292.005507,634.997766L293.167724,636.319397L294.207976,637.074356L301.388242,642.280808L302.904940,643.379548L310.250789,648.696026L311.306020,649.459050L308.828497,644.093154Z M397.931649,687.192074L397.814193,685.791539L397.602539,683.267037L392.446224,677.213984L389.502141,679.899227L389.414357,679.979267L389.670101,680.240880L393.038674,683.685342L396.521928,687.244306L398.068509,688.823605L397.931649,687.192074Z M373.758313,681.514503L373.303816,681.196003L370.243383,679.050521L364.338016,674.906664L364.049274,674.703916L364.153225,674.896003L366.961996,680.083823L369.030641,683.901663L370.951506,684.774096L372.190334,685.336546L373.758313,681.514503Z M367.106045,682.834564L358.766044,677.057209L358.503367,676.875077L358.419459,676.816896L358.442776,676.895218L359.115829,679.155517L365.034610,684.492029L365.216352,684.493869L367.221883,684.514011L367.651837,684.518289L367.106045,682.834564Z M382.123276,682.843998L381.708143,682.149112L381.293015,681.454150L378.148941,679.821217L377.561329,679.515901L376.276274,677.367319L375.906466,678.228567L375.427301,679.344320L376.038673,680.795661L378.221934,683.087387L381.140899,683.960933L381.442601,684.051179L382.123276,682.843998Z M382.186187,674.651775L380.206932,672.961603L378.903471,671.848124L378.363980,671.387174L377.590190,673.326531L381.705968,677.959109L382.186187,674.651775Z M310.819869,664.398757L308.532202,663.107696L303.797874,660.433773L302.179806,661.188708L308.709506,665.169515L310.819869,664.398757Z " data-nuts-id="HR034" data-shape-area="3.30216789670e-001" data-shape-leng="5.75911147237e+000" data-stat-levl-="3"/><path d="M515.080096,618.725440L514.050192,613.821940L504.074606,614.224757L491.749149,620.168183L491.436152,622.132541L490.893145,625.538962L490.591109,627.432901L481.673498,625.705001L479.789560,636.794642L496.271122,652.093371L488.699589,656.940415L479.034616,663.116134L480.117843,668.949092L481.427000,675.992203L481.452574,676.129714L478.308337,681.000168L463.728488,679.879295L463.206304,680.948432L460.600588,686.280592L452.723778,683.162895L446.948730,680.873156L440.744181,694.890410L438.188122,700.655684L436.844628,700.036248L434.782448,699.085074L428.552902,704.689789L431.108305,710.887882L433.167868,715.878869L432.818936,718.932662L432.376469,722.803038L432.222781,724.146855L426.446273,725.557855L422.874757,726.428821L422.945120,727.794988L423.089368,730.594874L427.254325,731.409545L431.248893,732.189541L435.953505,733.106493L440.257628,733.943788L442.033460,733.105140L445.973823,731.243039L451.261858,728.741382L441.685269,724.598192L439.534844,723.666521L443.324440,722.148963L443.324450,722.148959L450.294265,723.404008L451.540553,723.628008L456.618154,724.539312L461.229284,722.666795L462.092419,722.316048L465.866345,720.781571L468.658380,719.645401L471.480831,718.496049L477.367289,716.096374L480.692472,714.739271L496.488017,717.386199L498.081211,717.652056L500.707492,718.089855L502.876855,718.451066L501.570024,719.019038L499.735654,719.815986L494.578796,722.054504L491.915356,723.209571L487.808666,724.989080L510.141014,726.567620L510.142679,726.568521L513.597241,728.437552L522.119554,733.042311L533.987403,739.440310L536.708118,740.904696L543.473528,744.542271L550.603314,748.369883L575.853607,752.374305L606.626953,786.856286L608.897965,789.391453L613.952706,795.029460L618.219737,797.436894L622.434825,799.812833L629.229214,803.638080L642.460279,811.070992L644.021704,811.946757L649.481099,815.006458L653.033497,816.995440L656.623973,823.446105L665.479559,818.084472L663.125973,814.542437L660.782301,811.013185L658.993334,808.317805L657.046185,808.544912L654.119655,808.885682L654.660948,805.843510L656.944765,806.476238L664.285997,808.507002L668.311301,807.430585L670.132960,806.942980L672.817070,801.242673L672.817071,801.242672L669.386529,800.946359L668.870788,797.462820L668.551674,795.306726L667.733075,789.773541L667.592582,788.823568L667.213623,788.600597L661.198545,785.059020L660.341083,784.553788L651.860509,779.551885L649.384665,774.528081L639.938004,755.323793L639.938003,755.323790L638.605171,749.466448L638.193779,747.657637L641.398321,742.775656L642.996283,740.339545L642.567022,732.711315L633.204070,725.907497L631.667140,725.715873L628.381691,725.305617L618.161850,724.023996L612.163487,719.836456L611.781664,719.569722L608.141365,717.025607L601.503561,712.381610L594.774838,707.667399L594.774837,707.667398L591.995722,704.263235L591.313277,703.426960L588.818087,700.368185L582.760862,692.935318L581.242321,691.070236L574.237970,682.458760L573.095968,681.053374L567.807650,674.540427L560.439364,665.452195L557.450493,664.494858L550.274477,662.193038L545.378487,655.919976L544.327399,650.294284L544.072585,648.929816L544.049705,648.807291L542.777484,641.991014L542.777482,641.991012L541.612650,641.015318L526.269904,628.141279L525.772487,627.723196L515.080096,618.725440Z M565.727097,763.881407L561.524064,761.466237L549.455006,759.298142L544.431417,758.392192L539.554777,757.510769L538.744493,757.364127L529.547830,755.695984L527.295427,755.286376L524.098987,754.704378L515.735285,753.177583L501.548697,753.128426L494.892202,753.100013L495.070484,754.443701L496.236796,763.228019L496.846017,767.812383L493.269812,767.010552L492.031518,766.732660L491.432086,766.598091L491.420942,769.638546L500.500213,774.955109L509.868540,780.429979L509.868543,780.429980L522.130657,782.248342L523.947723,782.516769L526.329810,782.868262L549.476176,781.588245L554.983309,781.277564L558.563361,781.074334L569.008918,780.475672L576.696216,770.174191L565.727097,763.881407Z M534.974377,798.729153L530.314334,794.992030L527.328322,794.986611L523.344768,794.978309L519.667125,794.969557L519.540388,792.541700L519.386417,789.591319L519.386404,789.591323L510.850231,792.056169L514.834004,795.194913L519.991574,799.254539L522.654811,801.349091L519.306705,803.232834L516.678845,801.569691L514.188875,799.992956L508.158097,796.170584L498.251562,797.358589L489.466718,798.405562L484.355673,799.011874L488.516679,801.389170L497.306371,806.403870L498.573974,807.126270L498.573992,807.126274L498.580338,807.127806L511.457998,810.229229L518.178503,811.842139L525.380602,813.566341L529.202282,814.479459L532.543297,815.276709L532.759079,815.328167L537.768657,816.521698L567.899901,816.518345L590.679636,816.469199L591.077464,816.467984L625.941786,814.488709L628.824260,814.320829L610.357074,811.761161L572.796030,806.470724L572.796028,806.470724L572.796025,806.470724L565.483259,806.922464L562.448277,807.108723L559.619815,807.281663L546.638875,808.067358L541.748351,804.154974L534.974377,798.729153Z M432.330802,844.436262L435.335830,843.984669L447.151234,842.201990L459.359077,840.275528L460.858057,837.144237L465.116416,828.239815L459.597386,827.970925L452.718893,827.632489L444.266823,827.211597L442.158176,827.105726L429.112347,833.025073L433.402275,835.290800L436.796849,837.082103L433.649917,842.265085L432.330797,844.436262L432.330802,844.436262Z M486.322187,762.996964L483.774462,759.822920L477.819935,752.396916L473.458541,751.399913L471.572594,750.968292L457.983900,747.849452L457.113593,747.649169L456.938571,754.830360L472.778865,760.874928L489.818541,767.349658L486.322187,762.996964Z M481.581754,728.609772L474.169079,724.168600L470.936923,723.703807L465.955210,722.985787L461.751018,724.196611L465.373195,725.480237L465.036601,728.398100L464.048804,728.500898L461.510446,728.764707L459.461829,727.247264L455.773452,727.911104L456.902344,729.785789L463.544580,731.154165L467.453774,729.550520L468.905275,729.706016L472.062843,730.043708L472.669558,730.206170L480.007691,731.133134L488.460266,729.594328L486.950611,729.378568L481.581754,728.609772Z M443.185818,744.216602L449.354436,743.157590L449.842123,743.073733L451.162700,740.705688L449.515875,737.378730L446.451860,736.932109L444.231587,736.608005L444.121090,736.766428L439.334453,743.624708L443.026634,744.243889L443.185818,744.216602Z M549.506774,824.754705L547.908643,822.530877L540.230579,821.660053L536.694435,823.827225L535.645401,824.469817L544.917388,826.204359L549.506774,824.754705Z M490.304106,806.590613L481.823695,803.626627L481.747834,803.600082L481.593706,803.546148L481.420994,803.622576L479.086617,804.655264L478.281255,806.752091L478.258651,806.810933L479.633740,807.009856L481.709244,807.309814L488.217243,808.248127L489.492244,808.431557L490.764251,808.614425L490.304106,806.590613Z M423.343673,855.429178L423.803505,855.320527L424.039751,855.264698L424.138230,854.806143L424.459107,853.311797L424.709208,852.146828L423.691689,849.183647L423.600341,849.096352L422.969340,848.493294L422.300230,847.853723L421.530045,847.117421L420.398161,849.923524L420.987114,855.136715L421.080577,855.963650L423.343673,855.429178Z M436.624533,741.540283L436.180688,737.910564L436.060624,737.892242L435.093569,737.744625L433.663644,737.526215L433.329394,737.636336L430.249167,738.650642L429.960286,738.745724L429.981876,739.063227L430.043403,739.967945L434.874515,741.982077L435.665494,742.311614L436.624533,741.540283Z M378.847517,840.515427L380.375106,838.213932L378.470360,837.496945L378.313652,837.437941L378.102797,837.526355L373.479768,839.463708L372.921302,840.705115L375.656147,841.673202L378.847517,840.515427Z " data-nuts-id="HR035" data-shape-area="5.04880024079e-001" data-shape-leng="9.64782557599e+000" data-stat-levl-="3"/><path d="M107.731867,262.620803L103.931491,250.703046L97.522456,249.789023L94.429266,247.103817L93.816915,246.572011L90.420231,243.620775L87.784827,241.329423L86.007635,241.622531L81.816741,242.312738L79.502742,244.458061L82.446817,247.869423L84.438762,250.176093L84.379062,250.485085L84.195020,251.437565L83.349069,255.814380L78.151593,256.412911L73.104372,256.992142L72.937263,257.011287L70.383364,257.303596L66.473912,263.192612L60.985819,262.138707L54.559404,260.901481L53.902042,259.801588L53.300317,258.794583L52.797976,257.953750L49.897805,253.096677L39.654802,255.941945L31.458909,258.212071L30.474912,257.658000L29.877597,257.321602L29.567764,257.147092L29.535632,257.128994L23.573566,253.768528L21.203659,252.431501L16.004019,249.495529L11.332290,246.779942L3.939408,242.476796L0.510522,246.767720L0.510522,246.767722L5.471548,262.133323L8.997784,273.027750L8.863405,274.278628L8.839803,274.498318L8.559419,277.107978L7.734613,284.782684L7.728179,284.842534L7.747137,284.848332L9.249303,285.307648L17.322289,287.772601L20.174690,288.642118L12.338671,292.146928L14.444776,297.695394L16.319460,302.629335L17.354973,305.352723L13.665792,315.772764L13.553520,316.089653L17.480218,335.599555L18.515828,338.113656L22.198714,347.044872L23.807955,347.727545L27.605793,349.337589L28.331710,349.645160L34.833795,358.686981L39.776058,365.548609L40.998571,367.244420L43.199027,370.295313L46.525114,374.903292L47.444260,378.788307L47.501619,379.030652L49.865574,389.008796L50.943254,393.551311L51.765093,397.012786L52.009760,398.042847L53.147812,402.831448L53.480629,404.231019L56.621954,407.432135L60.522065,411.403154L65.255212,410.632600L65.440604,413.773930L65.815081,420.110369L69.179071,420.210476L69.171175,419.834064L69.006175,411.949979L65.328597,409.090657L62.361444,406.781997L62.361446,406.781997L62.818240,406.683848L66.365590,405.921065L67.483385,405.680492L70.031105,408.573340L70.183180,408.745958L70.387894,408.978315L73.013742,411.957691L75.723015,411.913440L76.028697,411.908413L82.396522,411.802060L81.112029,409.112123L78.362548,403.349777L79.973304,400.266745L81.826472,396.717941L85.568569,389.546002L87.290448,386.243288L88.134169,384.624352L91.867293,377.456416L94.987759,371.458815L94.757706,367.383973L93.152910,366.804758L89.294916,365.411284L89.346655,364.440259L89.689345,358.008754L92.690426,362.897679L94.326375,365.560797L96.621138,369.294091L101.394676,372.362713L101.786097,372.614191L106.535657,375.663949L107.450235,376.250848L111.812891,369.275246L111.642028,362.727082L111.352739,351.597405L111.276332,348.648700L116.690618,338.913997L117.362546,337.704850L121.898044,329.537102L121.898045,329.537100L118.525351,326.511349L118.250174,323.371766L116.870238,307.592673L116.808933,306.890310L116.470027,303.005421L116.274793,300.765838L116.039838,298.069027L118.060056,288.395800L119.087967,283.469768L116.498280,276.244080L115.699972,274.014752L117.009630,272.566296L117.528297,271.992545L119.619768,269.678280L113.674091,266.150836L107.731867,262.620803Z M40.810274,390.876579L41.094918,390.579810L44.443913,387.086779L44.586056,386.938467L45.535770,385.947418L44.857141,383.963661L42.084547,382.601518L40.330309,381.739226L39.764577,381.461067L38.025554,382.442897L38.059442,382.620605L39.474820,390.037157L39.539644,390.084077L40.670288,390.902338L40.738336,390.951579L40.810274,390.876579Z " data-nuts-id="HR036" data-shape-area="3.23660381568e-001" data-shape-leng="3.18135177734e+000" data-stat-levl-="3"/><path d="M861.398237,978.390376L861.687866,978.046039L864.099115,975.178338L858.334465,970.101889L847.717160,960.736192L847.717127,960.736163L847.716708,960.735793L847.716657,960.735747L847.716047,960.735209L847.897522,942.790227L844.340575,939.188030L835.158242,929.876247L830.107047,929.952899L827.204903,929.996039L820.342170,930.095433L813.847081,933.735513L813.347975,933.230735L800.829540,920.552396L789.043486,908.584670L788.283514,907.811945L788.283498,907.811928L788.283496,907.811927L784.344049,905.776736L772.179298,899.480949L770.092912,897.403993L765.697800,893.025710L765.412030,892.740891L761.442248,888.782521L751.110040,886.499211L750.561929,884.903062L748.875375,879.989545L745.078983,868.917587L736.256111,861.443753L732.574339,867.573846L724.848820,864.468932L715.263422,860.608208L708.509742,868.781946L718.239090,876.231053L720.402475,877.885362L725.255319,881.593558L718.864600,878.149253L710.077871,873.405715L704.552716,870.418259L698.865046,867.339147L694.263489,864.845207L692.419560,863.845133L687.596739,861.227513L686.975875,860.890333L687.246792,862.253022L687.551930,863.787576L687.931172,865.694415L687.963787,865.858380L680.975560,864.643093L677.713494,862.730147L677.232785,862.448136L676.184479,861.833038L673.581224,860.304969L673.559403,860.196512L673.302324,858.918610L673.094348,857.884653L672.470993,854.784853L668.137534,852.858360L662.025455,850.137794L661.915556,850.088840L661.785520,850.030915L660.006562,849.238291L648.845575,844.257833L642.009362,841.200750L638.593888,841.046788L616.864154,840.046023L615.735354,839.993033L610.979484,839.768688L609.560010,839.701388L604.896097,837.703858L594.940365,833.432328L598.013137,843.246112L606.494283,848.011971L610.574394,848.056321L612.356302,848.075286L632.610354,848.273552L632.694789,848.274311L632.840503,848.363792L646.963508,857.023305L655.959339,862.525514L658.311364,863.962367L661.481327,863.474625L663.258595,863.200811L665.153464,862.908596L668.784620,865.145049L673.304652,867.926556L674.523082,868.675887L673.449000,869.765494L672.374680,870.855071L670.433433,872.823194L693.362442,881.016642L698.294808,882.772608L702.552156,884.286395L708.004812,886.222674L716.767748,889.328521L722.891721,891.494699L726.264364,895.621740L728.689474,898.587321L726.554614,890.210453L726.267260,889.082262L724.917407,887.960340L719.724208,883.641096L717.992403,882.199692L717.037955,881.405069L717.572997,881.600991L728.239743,885.501185L734.195621,887.674127L738.676471,889.306669L748.321937,895.699956L757.084662,901.496953L777.827380,915.177029L783.657668,919.011494L782.691306,919.697384L782.295030,919.978606L780.767648,921.062297L784.321636,924.652654L791.049520,927.082557L792.011418,927.429609L796.110382,928.907520L802.637146,931.257467L807.306438,929.414469L809.799987,936.995880L810.343879,938.648567L812.164602,944.178547L819.787933,950.612128L845.650680,965.564212L850.538362,968.380629L853.102816,969.857156L853.102831,969.857172L861.398237,978.390376Z M672.817071,801.242672L672.817070,801.242673L670.132960,806.942980L668.311301,807.430585L664.285997,808.507002L656.944765,806.476238L654.660948,805.843510L654.119655,808.885682L657.046185,808.544912L658.993334,808.317805L660.782301,811.013185L663.125973,814.542437L665.479559,818.084472L656.623973,823.446105L660.075624,827.183131L661.556299,828.785346L664.307318,831.760779L666.261205,833.872950L677.611826,846.124979L685.126440,854.219419L694.060478,856.657512L696.476809,857.315721L701.404083,855.423161L706.970834,853.282049L713.793967,850.653461L719.103663,848.604685L706.260970,821.347973L706.260969,821.347970L703.695455,819.810744L700.407368,817.839331L694.004974,813.996731L691.826273,812.687917L672.817071,801.242672Z M564.331421,853.491736L548.812100,848.753137L548.706749,848.720895L541.587000,846.539592L530.230221,848.587670L533.465224,849.875674L539.713446,852.360409L531.969412,860.240549L536.567974,865.376339L538.284129,862.261581L562.907330,867.339524L566.698899,868.116944L568.978795,868.360613L576.736579,869.186662L576.736581,869.186661L580.615261,867.152641L581.439792,866.720018L582.806625,866.002677L587.903555,863.325744L591.011639,861.691844L598.491992,862.888299L605.373320,863.984934L611.501248,864.958273L618.401075,866.050575L623.451688,865.015164L630.464486,863.573937L629.128317,862.463330L620.205272,855.038589L617.697160,852.949108L603.327910,849.084248L579.082953,853.191038L577.605596,853.439729L568.940353,854.894795L564.331421,853.491736Z M664.034832,893.705191L663.590524,892.164890L662.956261,889.965518L659.164014,891.401879L653.277563,893.628611L650.954762,894.506335L662.763893,901.158147L663.441383,899.264250L663.694646,898.556103L700.463441,908.524826L724.731584,915.039256L727.335547,915.735180L726.306907,911.116781L717.373549,908.380736L713.809202,907.287048L713.204737,907.101459L703.375764,904.440600L700.001890,903.525278L664.034832,893.705191Z M571.652394,897.963510L571.255511,897.824912L570.198342,897.455659L570.198340,897.455658L570.079501,897.512918L570.021801,897.540718L568.643640,898.204621L567.315526,898.844213L564.696537,900.104883L564.533384,900.518929L562.869573,904.739677L564.971667,908.428020L567.353606,909.665992L567.353608,909.665992L575.852136,910.424087L576.214138,910.289626L580.026547,908.872769L582.509704,906.707778L585.630753,899.939964L582.278674,898.335437L578.416444,898.781017L575.091039,899.163711L571.652394,897.963510Z M756.143284,910.756598L756.411879,908.596686L756.434449,908.415148L756.190099,908.163340L753.533591,905.424891L744.999744,899.818316L743.328659,899.601460L741.241836,899.330340L742.873659,901.454776L742.878641,901.461261L746.457918,906.118173L748.741756,908.167786L752.672768,911.693339L754.305385,912.364060L756.143284,910.756598Z M760.189935,918.058789L766.399605,917.186578L761.057458,912.720911L758.899378,915.948553L760.093788,918.072269L760.189935,918.058789Z M507.169439,906.667450L512.131049,904.669881L514.262414,903.811013L513.067938,901.751767L510.480229,901.246625L510.004158,901.153631L509.927837,901.270360L506.884320,905.923209L506.851206,905.973810L506.121260,907.089132L507.169439,906.667450Z M742.422828,903.527485L739.977902,902.521164L734.918893,900.436973L733.992605,900.055084L733.728855,899.946329L733.836843,900.083646L736.252249,903.154189L742.505938,905.983410L742.422828,903.527485Z M562.392175,903.133848L562.464478,903.118745L563.260483,902.952442L564.416109,900.042405L564.709444,899.303518L565.287909,897.846142L563.066841,898.659839L560.971272,899.427117L560.235517,900.870440L561.842332,903.248688L562.392175,903.133848Z " data-nuts-id="HR037" data-shape-area="1.91426662263e-001" data-shape-leng="8.25618979921e+000" data-stat-levl-="3"/></g></svg>