<?xml version="1.0" encoding="utf-8"?><!DOCTYPE svg  PUBLIC '-//W3C//DTD SVG 1.1//EN'  'http://www.w3.org/Graphics/SVG/1.1/DTD/svg11.dtd'><svg enable_background="new 0 0 1000 627" height="627px" pretty_print="False" style="stroke-linejoin: round; stroke:#000; fill: none;" version="1.1" viewBox="0 0 1000 627" width="1000px" xmlns="http://www.w3.org/2000/svg" xmlns:xlink="http://www.w3.org/1999/xlink"><defs><style type="text/css"><![CDATA[path { fill-rule: evenodd; }]]></style></defs><metadata><views><view h="627.308124929" padding="0" w="1000"><proj dist="1.6" id="satellite" lat0="47.473315916" lon0="19.1477283464" tilt="0" up="0"/><bbox h="104.11" w="166.23" x="924.76" y="958.83"/></view></views></metadata><g class="" id="nutsregions"><path d="M423.692245,264.547514L423.692245,264.547515L425.282814,269.216751L430.580240,267.149428L430.829615,267.052031L434.215286,265.729004L440.473626,263.279984L443.194087,262.214019L445.625855,265.716579L446.121831,266.430625L450.541473,272.788610L451.598912,274.308519L457.353944,271.810046L459.897033,267.122794L460.226226,266.515724L460.234668,266.500155L461.743296,263.717124L463.311731,260.822117L464.519711,258.591290L465.911804,257.782941L469.870562,255.482654L470.591126,255.063715L473.231482,253.527949L478.533826,250.440750L480.228441,249.453220L478.091590,239.355714L477.821120,238.076365L472.763403,239.044252L469.754399,239.618945L460.026354,233.364396L456.994237,231.411846L456.204846,229.806254L455.369159,228.105949L454.332952,225.996877L452.897096,223.072929L451.240284,219.696950L448.509661,219.237366L444.177123,218.506760L442.207665,218.174075L437.737135,217.417575L434.636934,218.615258L434.729621,218.874870L435.994595,222.416738L427.560209,224.231951L425.393539,224.697160L420.529646,225.739867L420.837699,228.923232L420.847150,229.020865L421.253974,233.221958L421.287470,233.567707L421.357790,234.293493L421.586352,236.651835L422.291783,243.924105L423.388510,245.028770L428.321331,249.993348L426.145498,256.839075L425.789525,257.958251L424.757728,261.200945L423.692245,264.547514Z " data-nuts-id="HU101" data-shape-area="6.22429443344e-002" data-shape-leng="1.17935221591e+000" data-stat-levl-="3"/><path d="M514.783817,190.027546L510.399451,187.540548L506.785109,196.075833L506.471607,196.815502L506.017858,197.885874L505.726584,198.572857L505.726584,198.572858L501.090458,200.374555L497.709537,194.553146L497.374714,193.976262L495.776380,191.221485L494.668175,189.310562L495.392106,186.304264L496.221425,182.858245L496.225833,182.839921L496.215937,182.838473L491.947465,182.213069L494.828225,177.836244L496.418862,175.417773L493.291114,172.290316L488.928958,171.274325L488.404782,171.152115L486.421620,170.689509L478.575074,168.855452L469.416121,169.945555L468.735544,170.026258L464.836670,170.487789L463.478578,169.534626L457.434288,165.288633L446.951269,164.928728L445.773524,165.903850L443.653323,167.658561L442.587842,166.485569L441.832507,165.653812L439.485094,163.067800L437.833857,161.247734L432.929328,155.836905L430.682575,153.355794L428.241226,150.658058L425.011428,147.086299L423.902206,145.858906L422.705331,144.534103L429.221958,137.708995L430.141491,136.744981L430.810105,134.502396L432.127490,130.081112L429.653199,125.980097L427.750886,126.194480L425.097168,126.493005L420.686657,119.911951L415.663543,120.574933L414.187622,120.769303L409.327186,121.408011L407.801419,121.608074L406.806682,121.738394L406.515929,122.897191L406.414957,123.299562L405.450779,127.140338L404.665773,130.265488L404.408760,131.288295L403.657041,134.278795L402.662433,134.679250L401.011240,135.343813L395.280913,137.647692L398.449131,141.880231L398.213788,144.132925L398.134810,144.888721L398.054109,145.660905L397.433940,151.591829L396.522756,160.295709L397.465477,160.988988L401.485097,163.943200L405.036368,166.550745L407.376521,168.267760L409.464674,169.799036L409.022130,171.279932L408.827897,171.929777L412.075497,173.341193L416.424399,175.229251L417.637052,178.716107L419.123491,182.987070L419.731846,184.734055L422.399202,192.386981L419.393471,195.606894L418.746854,195.535617L409.588806,194.522121L410.172187,199.930362L410.467155,202.662765L410.537706,203.316097L410.813636,205.870555L411.013357,207.718736L411.088748,208.416218L407.774896,207.249036L405.899755,206.588056L400.695887,204.751704L398.644406,204.026961L397.181224,206.230382L397.107864,206.340829L396.131208,207.810982L392.199454,213.724840L388.497133,219.286893L385.065278,224.436833L385.647985,230.468364L386.009809,234.209940L390.028954,239.237930L391.391629,240.941312L393.376418,243.421144L399.243003,250.742592L399.793715,257.552489L398.031829,259.332778L397.105747,260.268205L394.990429,262.404026L394.990430,262.404027L394.991321,262.405121L399.005178,267.329433L399.829446,268.339963L400.532180,269.201308L406.292508,276.255210L406.465473,276.466837L408.867764,279.405010L411.073295,282.100750L413.233819,284.739829L413.035027,289.975515L418.837777,290.688800L415.819821,303.082623L414.057676,310.306863L411.903084,319.127704L411.903085,319.127705L413.264128,323.785565L414.892066,329.351532L416.476732,334.764047L416.476733,334.764048L421.871179,340.328657L425.631817,344.203218L427.255511,341.563716L426.521172,340.347517L424.234420,336.558286L434.035580,339.946613L435.211516,340.352443L441.290244,342.447902L444.442778,339.536949L445.362973,338.686828L449.064920,335.264777L451.973652,332.573701L451.991562,332.557125L455.085710,329.692302L459.456008,329.380270L460.809560,329.283287L462.049753,327.509670L464.028143,324.678934L465.893443,322.008418L470.681362,321.275953L482.395803,330.176815L474.619043,342.696174L478.184878,347.760170L484.646529,343.348157L494.516041,336.595635L496.143056,337.044550L501.244986,338.450514L503.184772,332.829575L503.590483,331.653186L503.738528,331.223855L506.041954,324.539411L506.041955,324.539409L513.336470,326.739924L514.112527,326.973712L517.921068,323.984691L517.921069,323.984691L521.655685,333.009079L525.395348,342.030755L546.814468,361.357617L552.766493,361.438657L556.361222,361.486098L557.761463,358.264123L561.136556,350.489534L570.179652,354.740118L577.130771,358.000453L577.130774,358.000454L578.295115,354.108644L578.844299,352.271972L579.458628,350.216651L584.440642,347.949833L589.840187,345.489550L589.840189,345.489552L589.840352,345.489665L593.548810,348.065811L596.167131,342.368249L595.516978,341.070904L592.049254,334.145958L589.204377,328.458155L586.207465,322.459868L586.207216,322.459369L586.207211,322.459359L587.433206,320.446918L590.165399,315.958970L591.316313,314.067168L593.733227,310.091899L593.733229,310.091895L591.673170,304.236568L590.757404,301.631787L588.738676,300.598760L588.402522,300.426691L583.955745,298.149088L582.332056,297.316797L577.157133,294.661851L580.061480,286.993940L580.195087,286.640918L581.374568,283.523372L577.262203,274.243998L569.086581,268.391769L567.430795,267.205114L556.807885,259.580570L552.592061,256.549203L542.746990,245.464045L541.030465,243.528296L543.900278,239.261270L544.344155,238.600930L546.523220,235.357822L547.289045,234.217496L545.408048,232.604659L543.279670,233.538349L541.727885,234.218749L540.721813,234.659718L535.819998,236.806464L534.461740,237.400797L534.461739,237.400798L527.045234,230.773274L527.218149,229.985631L527.727412,227.665223L528.996874,221.876571L527.312278,218.615814L521.690910,207.720048L520.191889,204.810652L520.149025,204.727435L517.851197,200.264414L517.851189,200.264397L518.576684,198.545279L518.590835,198.511741L519.178946,197.117734L520.066204,195.013931L514.783817,190.027546Z M423.692245,264.547514L424.757728,261.200945L425.789525,257.958251L426.145498,256.839075L428.321331,249.993348L423.388510,245.028770L422.291783,243.924105L421.586352,236.651835L421.357790,234.293493L421.287470,233.567707L421.253974,233.221958L420.847150,229.020865L420.837699,228.923232L420.529646,225.739867L425.393539,224.697160L427.560209,224.231951L435.994595,222.416738L434.729621,218.874870L434.636934,218.615258L437.737135,217.417575L442.207665,218.174075L444.177123,218.506760L448.509661,219.237366L451.240284,219.696950L452.897096,223.072929L454.332952,225.996877L455.369159,228.105949L456.204846,229.806254L456.994237,231.411846L460.026354,233.364396L469.754399,239.618945L472.763403,239.044252L477.821120,238.076365L478.091590,239.355714L480.228441,249.453220L478.533826,250.440750L473.231482,253.527949L470.591126,255.063715L469.870562,255.482654L465.911804,257.782941L464.519711,258.591290L463.311731,260.822117L461.743296,263.717124L460.234668,266.500155L460.226226,266.515724L459.897033,267.122794L457.353944,271.810046L451.598912,274.308519L450.541473,272.788610L446.121831,266.430625L445.625855,265.716579L443.194087,262.214019L440.473626,263.279984L434.215286,265.729004L430.829615,267.052031L430.580240,267.149428L425.282814,269.216751L423.692245,264.547515L423.692245,264.547514Z " data-nuts-id="HU102" data-shape-area="7.59761997128e-001" data-shape-leng="6.69198738059e+000" data-stat-levl-="3"/><path d="M425.631817,344.203218L421.871179,340.328657L416.476733,334.764048L416.476732,334.764047L414.892066,329.351532L413.264128,323.785565L411.903085,319.127705L411.903084,319.127704L414.057676,310.306863L415.819821,303.082623L418.837777,290.688800L413.035027,289.975515L413.233819,284.739829L411.073295,282.100750L408.867764,279.405010L406.465473,276.466837L406.292508,276.255210L400.532180,269.201308L399.829446,268.339963L399.005178,267.329433L394.991321,262.405121L394.990430,262.404027L394.990429,262.404026L397.105747,260.268205L398.031829,259.332778L399.793715,257.552489L399.243003,250.742592L393.376418,243.421144L391.391629,240.941312L390.028954,239.237930L386.009809,234.209940L385.647985,230.468364L385.065278,224.436833L385.065277,224.436833L383.360001,224.866865L380.312866,225.634575L374.514200,227.093006L372.524671,226.438051L368.328158,225.055173L364.980480,226.125000L364.793683,226.184660L364.510995,226.274940L355.602645,229.115659L358.383813,235.946156L360.192962,240.384469L350.561350,243.956077L348.623421,245.636982L348.556536,245.694982L341.226716,252.045245L338.277388,251.252015L337.061383,250.924713L337.061383,250.924715L334.983660,254.359174L335.441023,254.865650L337.322976,256.949019L338.940918,258.739252L329.193645,262.814814L329.193644,262.814813L324.596355,258.868429L321.215845,255.963588L319.497186,254.485798L319.371139,253.503324L318.892854,249.773484L314.701276,247.579640L311.214713,245.752972L312.011241,251.206460L309.493057,252.444850L304.317442,254.987556L300.655085,256.784748L299.237284,259.033963L298.757845,259.794322L294.121965,267.140554L290.167230,273.398895L288.254962,276.422242L289.707097,283.364477L290.822681,288.691121L290.822685,288.691137L298.324779,295.073580L300.394911,294.244408L300.656020,294.139788L304.787102,292.483533L306.029497,291.985043L306.029500,291.985045L308.309227,294.590481L313.777128,300.832757L315.824050,303.167094L315.782924,305.391162L315.678266,311.052364L315.662897,311.883886L315.389676,326.673325L315.389676,326.673333L312.329631,332.433243L316.497141,342.984084L317.480879,345.471380L315.801032,348.200302L312.560874,353.459782L311.730939,354.806064L307.682308,361.368408L313.280119,374.316614L311.405131,378.192954L310.889263,379.258973L311.079026,381.222528L311.597834,386.586525L312.712450,398.089314L314.977844,397.615426L318.797973,396.815206L326.604284,389.678928L327.559818,391.958524L328.559306,394.341879L328.934519,395.236313L329.092702,395.613342L331.627034,396.969103L333.139930,397.778014L335.729282,399.161749L335.729283,399.161749L336.575141,398.341791L337.225360,397.711362L338.965137,396.024025L338.983850,396.005873L342.199446,392.885224L342.845311,397.617281L343.724615,404.052500L343.724627,404.052505L346.345038,405.198061L350.205719,406.884304L356.911627,405.793665L357.696618,405.665724L356.683602,402.470870L356.441441,401.706853L359.796579,399.811821L364.360481,397.231497L364.360483,397.231497L365.527696,399.996992L365.527717,399.997041L366.695521,402.762440L367.640862,403.176445L372.957511,405.502811L373.813133,409.019047L373.881605,409.300339L375.369921,415.410815L376.129514,418.526723L385.291683,413.177025L386.780138,412.306774L388.188692,411.482941L390.366882,410.208393L389.181557,407.464475L387.602602,403.807071L399.878705,396.656389L406.030380,393.064846L410.681005,387.454968L410.990048,387.081923L412.033100,385.822618L409.869673,383.239163L419.457087,381.666026L420.209611,380.060097L424.435249,371.033222L424.886418,360.929899L425.381159,349.832767L425.465124,347.947532L425.631817,344.203218Z " data-nuts-id="HU211" data-shape-area="5.16958350298e-001" data-shape-leng="3.62146518587e+000" data-stat-levl-="3"/><path d="M385.065278,224.436833L388.497133,219.286893L392.199454,213.724840L396.131208,207.810982L397.107864,206.340829L397.181224,206.230382L398.644406,204.026961L400.695887,204.751704L405.899755,206.588056L407.774896,207.249036L411.088748,208.416218L411.013357,207.718736L410.813636,205.870555L410.537706,203.316097L410.467155,202.662765L410.172187,199.930362L409.588806,194.522121L418.746854,195.535617L419.393471,195.606894L422.399202,192.386981L419.731846,184.734055L419.123491,182.987070L417.637052,178.716107L416.424399,175.229251L412.075497,173.341193L408.827897,171.929777L406.344139,172.035325L404.832785,172.099287L394.048414,172.549907L393.357059,173.760363L390.868833,178.114435L386.137665,181.008197L380.464097,184.473893L373.312160,183.709684L367.358902,183.070082L367.358901,183.070081L364.526118,183.790605L361.790373,184.485700L359.430605,185.084677L359.046971,185.182003L356.255874,185.889655L355.047581,185.309803L352.093568,183.891402L350.603603,183.175555L342.289474,185.708164L341.639598,185.905827L333.110484,188.495969L327.237696,190.275088L324.702449,189.785637L314.994661,187.905887L314.880675,187.883763L312.317011,187.385847L308.730626,186.688262L297.928187,184.579778L297.204539,184.438140L286.885398,185.638782L286.401345,185.694869L283.757120,186.000883L282.966671,186.092240L282.963080,186.092655L268.728508,187.728285L267.993671,199.615206L267.971010,199.981606L267.954198,200.253425L267.355875,209.923482L267.923858,210.329465L274.053887,214.707392L271.074897,221.287258L270.966842,221.525781L267.231852,229.764200L267.175167,229.889138L267.222746,230.019929L270.221028,238.255161L270.380765,238.693516L270.098604,239.006008L268.528644,240.744307L266.771602,242.688898L266.308794,243.200957L264.834470,244.831763L265.432348,247.089862L265.742819,248.262056L266.474756,251.024401L266.506774,251.145202L266.784079,252.191327L267.503441,254.904058L267.677652,255.560789L266.011689,264.026601L270.465598,264.271563L273.372125,264.430478L275.531499,268.758612L275.933926,269.564786L277.558368,272.817617L278.772240,275.246876L287.045195,276.272745L288.254962,276.422242L290.167230,273.398895L294.121965,267.140554L298.757845,259.794322L299.237284,259.033963L300.655085,256.784748L304.317442,254.987556L309.493057,252.444850L312.011241,251.206460L311.214713,245.752972L314.701276,247.579640L318.892854,249.773484L319.371139,253.503324L319.497186,254.485798L321.215845,255.963588L324.596355,258.868429L329.193644,262.814813L329.193645,262.814814L338.940918,258.739252L337.322976,256.949019L335.441023,254.865650L334.983660,254.359174L337.061383,250.924715L337.061383,250.924713L338.277388,251.252015L341.226716,252.045245L348.556536,245.694982L348.623421,245.636982L350.561350,243.956077L360.192962,240.384469L358.383813,235.946156L355.602645,229.115659L364.510995,226.274940L364.793683,226.184660L364.980480,226.125000L368.328158,225.055173L372.524671,226.438051L374.514200,227.093006L380.312866,225.634575L383.360001,224.866865L385.065277,224.436833L385.065278,224.436833Z " data-nuts-id="HU212" data-shape-area="2.70951449867e-001" data-shape-leng="3.03708059056e+000" data-stat-levl-="3"/><path d="M266.011689,264.026601L263.003396,266.150600L257.149574,270.279251L256.603206,276.262326L256.547837,276.868447L256.502977,277.359489L256.435304,278.100205L256.013901,278.044258L251.579082,277.454494L251.328518,284.599449L251.212337,287.912565L250.478121,288.207880L249.634882,288.546970L248.046928,289.185309L247.661638,286.518537L247.269485,283.802644L246.735832,280.104144L241.263163,274.219510L241.263161,274.219508L242.505762,272.591175L244.069082,270.541757L246.399140,267.485517L248.362190,264.909110L250.505051,262.095081L251.789149,260.407974L249.267999,255.075848L248.052810,252.503657L244.737641,245.479408L239.821837,245.577517L238.840487,245.596850L235.516953,245.661700L234.563023,245.680135L233.603747,245.698594L222.735566,245.902106L221.525176,247.488293L221.090996,248.057143L218.182321,251.866233L214.533891,248.084005L214.462287,248.009737L214.375853,248.097422L210.733847,251.790360L210.731501,251.792738L208.563981,253.988958L206.868762,255.705786L203.876379,254.601912L201.330474,253.661949L200.069287,249.302785L200.022753,249.141870L199.777016,248.292010L198.367837,243.415555L195.670556,242.448126L193.429245,241.643625L189.719543,250.163498L189.629348,250.370490L188.663294,250.667739L187.259467,251.099517L179.388817,253.516557L175.698344,252.603162L172.012763,251.689633L171.783286,251.632709L171.242921,251.498646L169.916614,251.169471L164.266730,249.765278L161.276199,252.480174L162.975208,261.633257L163.362872,263.719047L174.323867,272.053229L178.866704,275.500546L172.336876,277.686550L172.298485,277.699389L169.665973,278.579395L167.271544,283.235878L165.820382,286.056099L164.153060,289.294668L164.631053,300.411828L164.780601,303.880185L164.880897,306.203690L165.082452,310.866687L165.538234,321.380514L165.601999,322.848047L165.854822,328.658553L165.286074,329.315244L162.656169,332.350539L159.704826,331.147603L159.139168,330.916929L157.757289,330.353244L155.221835,329.318414L153.390930,329.822399L144.983980,332.132246L144.651640,335.772598L153.897757,345.899797L154.662779,346.736529L157.232557,347.018004L157.542457,347.051908L159.273337,347.241112L159.827482,347.301629L161.316568,347.464112L166.088151,347.983422L167.139964,350.218525L167.350323,350.665410L167.699995,351.408156L170.108234,356.520366L167.120327,364.453449L170.955381,364.471157L172.792133,364.479181L174.692815,364.487173L174.797708,364.487605L178.009784,367.898210L180.538039,370.580585L181.143004,373.055262L181.184345,373.224324L182.446992,378.384925L182.872023,380.120803L184.213970,385.597266L184.827319,388.098207L184.859090,388.227720L185.293145,389.996734L185.927919,392.582590L194.375598,402.020342L201.245863,401.247275L203.268230,401.018903L207.865601,400.498389L222.221330,393.251702L225.975180,391.352364L227.402111,390.629897L229.494295,389.570129L231.187945,388.711815L235.677332,386.434859L236.493680,386.020535L242.222488,383.110532L251.652680,378.311037L259.808844,374.150571L266.824347,374.000131L267.352377,370.702540L267.880222,367.404602L267.880235,367.404595L273.371970,364.790650L277.467084,362.839001L277.780484,362.689554L286.266218,358.638378L291.734076,356.023165L307.682308,361.368408L311.730939,354.806064L312.560874,353.459782L315.801032,348.200302L317.480879,345.471380L316.497141,342.984084L312.329631,332.433243L315.389676,326.673333L315.389676,326.673325L315.662897,311.883886L315.678266,311.052364L315.782924,305.391162L315.824050,303.167094L313.777128,300.832757L308.309227,294.590481L306.029500,291.985045L306.029497,291.985043L304.787102,292.483533L300.656020,294.139788L300.394911,294.244408L298.324779,295.073580L290.822685,288.691137L290.822681,288.691121L289.707097,283.364477L288.254962,276.422242L287.045195,276.272745L278.772240,275.246876L277.558368,272.817617L275.933926,269.564786L275.531499,268.758612L273.372125,264.430478L270.465598,264.271563L266.011689,264.026601Z " data-nuts-id="HU213" data-shape-area="5.32481748904e-001" data-shape-leng="3.85599239541e+000" data-stat-levl-="3"/><path d="M175.452259,126.395173L174.687700,124.095807L171.133392,125.040550L162.800029,127.250701L152.956099,134.806509L155.179291,136.375128L155.883071,136.871509L156.137149,137.050690L154.284370,143.821526L151.004863,155.789947L148.452128,156.531178L139.918787,159.004216L145.249535,165.532865L146.483926,167.043135L149.046465,170.176581L145.526048,173.198520L147.750705,180.618395L151.186484,192.054317L137.709629,193.966686L133.868748,194.508703L131.464859,194.847258L124.608266,195.810047L118.630158,195.109763L118.610703,194.920555L117.953225,188.520067L113.044284,195.400946L112.237876,196.530380L100.611171,196.464059L99.578235,193.190792L96.867019,184.587953L84.938932,180.170903L82.682856,179.333650L82.566152,179.290324L80.736224,178.610771L78.007095,179.102953L77.953577,179.112598L71.681888,180.241026L71.681887,180.241028L71.385251,180.769068L70.736984,181.922873L70.409429,182.505773L69.888093,183.433395L71.227665,185.352435L71.855242,186.251187L72.089829,186.587089L67.157072,188.233884L62.646532,189.737483L56.676415,191.724350L52.711536,198.304684L52.572729,198.534913L59.296142,201.796338L62.182785,203.194776L64.313426,204.226265L74.312944,209.059266L79.387455,208.935678L85.997428,208.771317L87.681796,214.105470L89.068858,218.493363L87.241132,220.637934L88.854669,222.083864L89.353993,222.531194L91.694544,224.627235L92.380657,225.241424L94.581304,227.210624L93.053744,230.069152L91.942697,232.147356L90.016435,235.748619L88.933059,237.773055L87.459585,240.525291L83.899880,247.168833L88.152741,250.823700L93.798551,255.669330L94.740969,254.786256L99.766633,250.073646L101.618294,249.758576L104.590256,249.252223L106.538087,248.919917L107.113775,248.821637L107.128974,248.819041L112.808257,247.847839L113.697668,247.695473L114.767732,249.351254L118.864603,255.684807L122.597884,254.457577L122.635779,254.445112L124.667562,256.002375L125.727021,256.814077L127.953224,258.518957L131.075926,256.087839L132.642404,254.867607L136.695897,251.707957L137.397754,251.160558L137.708061,250.918511L137.784657,250.858761L142.372488,247.277980L144.131958,245.903679L144.742710,251.389780L144.805675,251.954915L145.459769,257.820648L156.161393,252.145430L156.458177,251.987824L157.540651,251.412879L159.029770,251.838511L159.226144,251.894624L161.276199,252.480174L164.266730,249.765278L169.916614,251.169471L171.242921,251.498646L171.783286,251.632709L172.012763,251.689633L175.698344,252.603162L179.388817,253.516557L187.259467,251.099517L188.663294,250.667739L189.629348,250.370490L189.719543,250.163498L193.429245,241.643625L195.670556,242.448126L198.367837,243.415555L199.777016,248.292010L200.022753,249.141870L200.069287,249.302785L201.330474,253.661949L203.876379,254.601912L206.868762,255.705786L208.563981,253.988958L210.731501,251.792738L210.733847,251.790360L214.375853,248.097422L214.462287,248.009737L214.533891,248.084005L218.182321,251.866233L221.090996,248.057143L221.525176,247.488293L222.735566,245.902106L233.603747,245.698594L234.563023,245.680135L235.516953,245.661700L238.840487,245.596850L239.821837,245.577517L244.737641,245.479408L248.052810,252.503657L249.267999,255.075848L251.789149,260.407974L250.505051,262.095081L248.362190,264.909110L246.399140,267.485517L244.069082,270.541757L242.505762,272.591175L241.263161,274.219508L241.263163,274.219510L246.735832,280.104144L247.269485,283.802644L247.661638,286.518537L248.046928,289.185309L249.634882,288.546970L250.478121,288.207880L251.212337,287.912565L251.328518,284.599449L251.579082,277.454494L256.013901,278.044258L256.435304,278.100205L256.502977,277.359489L256.547837,276.868447L256.603206,276.262326L257.149574,270.279251L263.003396,266.150600L266.011689,264.026601L267.677652,255.560789L267.503441,254.904058L266.784079,252.191327L266.506774,251.145202L266.474756,251.024401L265.742819,248.262056L265.432348,247.089862L264.834470,244.831763L266.308794,243.200957L266.771602,242.688898L268.528644,240.744307L270.098604,239.006008L270.380765,238.693516L270.221028,238.255161L267.222746,230.019929L267.175167,229.889138L267.231852,229.764200L270.966842,221.525781L271.074897,221.287258L274.053887,214.707392L267.923858,210.329465L267.355875,209.923482L267.954198,200.253425L267.971010,199.981606L267.993671,199.615206L268.728508,187.728285L262.065253,187.504782L259.016947,187.401240L258.642225,187.388456L254.099297,187.232490L251.442025,187.140426L244.463108,184.321956L241.173396,182.991414L235.675013,177.578787L233.355263,175.292807L232.782934,174.728590L226.849547,168.874149L226.849542,168.874145L225.311680,169.420444L224.357910,169.759126L221.888955,170.635392L220.753808,168.618266L219.031273,165.555675L217.803297,163.371142L217.375027,162.609017L216.602659,161.234236L215.496396,159.264419L214.500385,158.795583L211.049489,157.170216L208.312789,155.880151L204.568332,154.113481L202.187363,149.535333L201.399840,148.020080L199.413189,144.195407L199.243754,143.869066L197.507373,140.523380L193.841850,136.881730L192.841621,135.887382L189.793948,132.855953L189.099729,132.165081L187.439082,130.511908L180.181918,130.450838L180.181916,130.450838L175.452259,126.395173Z " data-nuts-id="HU221" data-shape-area="5.01490316720e-001" data-shape-leng="4.77693628088e+000" data-stat-levl-="3"/><path d="M161.276199,252.480174L159.226144,251.894624L159.029770,251.838511L157.540651,251.412879L156.458177,251.987824L156.161393,252.145430L145.459769,257.820648L144.805675,251.954915L144.742710,251.389780L144.131958,245.903679L142.372488,247.277980L137.784657,250.858761L137.708061,250.918511L137.397754,251.160558L136.695897,251.707957L132.642404,254.867607L131.075926,256.087839L127.953224,258.518957L125.727021,256.814077L124.667562,256.002375L122.635779,254.445112L122.597884,254.457577L118.864603,255.684807L114.767732,249.351254L113.697668,247.695473L112.808257,247.847839L107.128974,248.819041L107.113775,248.821637L106.538087,248.919917L104.590256,249.252223L101.618294,249.758576L99.766633,250.073646L94.740969,254.786256L93.798551,255.669330L88.152741,250.823700L83.899880,247.168833L80.230686,249.971276L79.477110,250.546538L77.051544,252.397460L72.705138,255.711495L70.061209,255.578473L64.197860,255.281275L60.451719,255.089805L54.074725,254.761018L54.154288,256.135847L54.652157,264.722052L54.662668,264.903024L54.709919,265.716342L54.709919,265.716343L53.471295,266.089081L51.934881,266.551215L56.332979,270.843582L58.601612,279.030004L59.377718,281.827116L59.604455,282.643950L57.890341,284.216022L54.359563,287.452178L53.808177,287.957306L52.337767,289.304031L48.890704,297.316860L48.338399,298.599771L48.338398,298.599773L49.386491,299.828504L52.084676,302.989945L54.942907,306.336128L54.245132,309.126247L53.393952,312.528427L56.613570,312.109759L57.229247,312.029592L60.221779,311.639448L62.684865,311.317723L64.382663,316.194633L60.017682,319.118112L58.917757,319.854315L58.203215,320.332471L54.379020,322.890155L55.367001,326.587167L55.445479,326.880696L55.638939,327.604209L57.692038,328.797656L59.309194,329.737247L62.571486,331.631484L62.571311,331.631561L59.874998,332.805768L59.680648,332.890372L50.274623,336.979632L53.960785,336.556689L56.850455,339.481093L59.724866,342.387723L60.947511,343.623368L54.934288,344.435305L50.982963,344.967050L47.649341,344.416533L41.390906,343.380207L41.232088,343.353861L35.926389,342.472354L35.227902,342.356109L32.792160,341.950387L29.332650,341.373183L26.142631,344.601108L22.012634,348.776448L15.861645,354.987176L15.724645,355.125400L15.363478,355.489773L12.120766,358.759837L0.798329,370.157568L6.944884,373.750044L9.330956,372.884578L10.366989,372.508600L15.528749,370.633647L16.495949,370.282000L19.201981,369.297620L20.125359,369.419985L27.195861,370.354370L32.819038,376.751687L35.695288,380.019816L34.123442,382.861749L33.735992,383.562051L32.353211,386.060689L32.271684,386.207971L29.550348,391.122040L30.985833,394.398612L32.513937,397.883988L33.574933,400.302383L34.283641,401.917066L34.916467,403.358378L35.749427,405.254812L35.749428,405.254814L37.856461,403.586479L41.001820,397.619840L43.440881,392.988842L40.189886,391.948513L36.961762,390.914379L38.672769,390.818583L39.417491,390.776807L44.993878,390.462433L50.445456,390.152437L52.128679,390.056192L52.509633,390.034375L58.476597,385.550913L58.448586,385.098583L58.244969,381.808242L58.123205,379.838651L60.176896,379.738891L65.583076,379.474500L68.080459,375.677675L70.185101,372.475814L70.581698,371.872240L72.960039,368.251227L75.318331,364.658273L75.471767,364.424422L77.930695,360.675360L83.359989,359.271841L83.729351,359.176253L85.530734,358.709874L86.576618,358.438947L88.983134,358.987976L90.011918,359.222512L93.082949,359.922014L93.281988,359.967319L97.167487,360.850940L99.720988,361.430841L101.187477,359.583697L102.695846,357.683048L103.911864,356.150224L105.712971,353.878964L109.093149,349.613487L115.589826,351.972003L121.645850,354.166283L131.782613,354.098044L131.782615,354.098041L131.782617,354.098037L133.203410,351.918791L136.257906,347.230627L136.257905,347.230625L134.878929,342.849323L134.616375,342.014665L133.629153,338.874954L136.643670,337.990940L139.099371,337.270117L139.741836,339.660262L139.869685,340.135749L139.965838,340.493322L140.085427,340.938007L141.009531,340.965775L143.968757,341.054191L144.506745,341.070182L144.651640,335.772598L144.983980,332.132246L153.390930,329.822399L155.221835,329.318414L157.757289,330.353244L159.139168,330.916929L159.704826,331.147603L162.656169,332.350539L165.286074,329.315244L165.854822,328.658553L165.601999,322.848047L165.538234,321.380514L165.082452,310.866687L164.880897,306.203690L164.780601,303.880185L164.631053,300.411828L164.153060,289.294668L165.820382,286.056099L167.271544,283.235878L169.665973,278.579395L172.298485,277.699389L172.336876,277.686550L178.866704,275.500546L174.323867,272.053229L163.362872,263.719047L162.975208,261.633257L161.276199,252.480174Z " data-nuts-id="HU222" data-shape-area="3.98133959897e-001" data-shape-leng="4.14177769907e+000" data-stat-levl-="3"/><path d="M194.375598,402.020342L185.927919,392.582590L185.293145,389.996734L184.859090,388.227720L184.827319,388.098207L184.213970,385.597266L182.872023,380.120803L182.446992,378.384925L181.184345,373.224324L181.143004,373.055262L180.538039,370.580585L178.009784,367.898210L174.797708,364.487605L174.692815,364.487173L172.792133,364.479181L170.955381,364.471157L167.120327,364.453449L170.108234,356.520366L167.699995,351.408156L167.350323,350.665410L167.139964,350.218525L166.088151,347.983422L161.316568,347.464112L159.827482,347.301629L159.273337,347.241112L157.542457,347.051908L157.232557,347.018004L154.662779,346.736529L153.897757,345.899797L144.651640,335.772598L144.506745,341.070182L143.968757,341.054191L141.009531,340.965775L140.085427,340.938007L139.965838,340.493322L139.869685,340.135749L139.741836,339.660262L139.099371,337.270117L136.643670,337.990940L133.629153,338.874954L134.616375,342.014665L134.878929,342.849323L136.257905,347.230625L136.257906,347.230627L133.203410,351.918791L131.782617,354.098037L131.782615,354.098041L131.782613,354.098044L121.645850,354.166283L115.589826,351.972003L109.093149,349.613487L105.712971,353.878964L103.911864,356.150224L102.695846,357.683048L101.187477,359.583697L99.720988,361.430841L97.167487,360.850940L93.281988,359.967319L93.082949,359.922014L90.011918,359.222512L88.983134,358.987976L86.576618,358.438947L85.530734,358.709874L83.729351,359.176253L83.359989,359.271841L77.930695,360.675360L75.471767,364.424422L75.318331,364.658273L72.960039,368.251227L70.581698,371.872240L70.185101,372.475814L68.080459,375.677675L65.583076,379.474500L60.176896,379.738891L58.123205,379.838651L58.244969,381.808242L58.448586,385.098583L58.476597,385.550913L52.509633,390.034375L52.128679,390.056192L50.445456,390.152437L44.993878,390.462433L39.417491,390.776807L38.672769,390.818583L36.961762,390.914379L40.189886,391.948513L43.440881,392.988842L41.001820,397.619840L37.856461,403.586479L40.520598,405.641029L45.167868,409.221567L45.962511,409.833377L45.773764,411.003814L45.133322,414.974296L44.988920,415.869319L44.687620,417.736580L42.419738,418.092106L39.501413,418.548905L40.139488,421.989005L40.140094,421.992268L40.322614,422.975767L41.400145,423.696633L43.365578,425.010991L46.407889,427.044193L48.163504,428.216765L49.725546,431.167984L50.181114,432.028340L51.122389,433.805448L53.424831,438.149459L53.452341,438.201336L57.246840,438.501750L57.458068,438.970063L58.367753,440.986373L60.611490,445.955807L60.326329,447.020444L60.199633,447.493411L59.672415,449.461238L59.093410,451.621770L61.024826,452.843044L61.167576,452.933284L63.921129,454.673303L64.631528,455.122017L65.797959,455.858602L68.356608,457.473580L69.847250,458.413961L70.553770,458.524682L70.553808,458.524688L71.260366,458.635368L71.752547,459.857397L71.792715,459.957116L71.977160,460.027516L73.406033,460.572762L74.065085,460.824171L74.566307,461.015340L75.456050,461.354621L80.144632,463.140988L81.382188,465.564401L82.694905,468.133590L86.084520,474.760920L87.400874,477.332053L90.642387,478.873744L93.876629,480.410620L93.893222,480.418501L107.717341,486.972268L110.293040,492.602925L110.733864,493.565915L112.302354,493.764880L118.259067,494.518447L119.601582,494.687838L120.091431,496.492040L121.109452,500.239346L123.062844,498.577979L124.393531,497.445779L124.473576,497.377662L127.032918,495.199016L135.370159,495.291048L137.416121,490.252141L138.285715,488.109215L136.578142,483.820824L136.506853,483.641703L135.392604,480.841180L134.171370,477.769860L135.404731,473.520410L142.961733,472.475058L144.767281,472.224528L150.813312,471.383445L154.572853,470.858764L156.972646,470.523175L159.257670,465.230199L159.748567,464.092488L163.226548,456.025682L164.340012,453.440829L164.357726,448.760612L164.397349,438.460698L164.436145,428.589853L164.443054,426.853249L164.456009,423.613866L164.476548,418.521665L167.170445,416.881700L169.835277,415.258368L170.387412,412.547495L171.892585,405.152444L174.879845,405.346099L183.994248,405.932063L183.994256,405.932063L188.472169,404.246240L194.375598,402.020342Z " data-nuts-id="HU223" data-shape-area="4.44512961638e-001" data-shape-leng="3.28074314722e+000" data-stat-levl-="3"/><path d="M346.023377,625.308125L355.774813,615.071684L358.677752,614.084378L362.596912,612.750007L365.601574,611.725876L368.125392,607.579263L369.733782,604.934901L370.136153,604.273144L372.090713,601.057340L372.656565,600.125969L373.251585,599.146400L374.912226,596.411511L376.356264,594.032130L380.131939,587.805496L385.450488,586.213828L385.450490,586.213827L391.024890,589.986696L394.933493,592.629013L398.238335,594.861178L401.289101,594.731747L403.148700,587.101520L400.323777,583.576722L402.633062,579.066912L405.953969,572.574672L410.355790,563.956822L410.355792,563.956819L407.065835,560.723874L405.718994,559.399574L403.733661,561.081705L402.871781,561.811700L402.710237,561.948508L402.580674,562.058227L401.597379,562.890808L401.190537,563.235232L391.356204,562.164389L389.861134,558.560147L399.540685,545.930378L400.440127,544.755005L392.057028,544.548940L392.057026,544.548939L388.926240,541.799566L385.831934,539.080086L381.207267,535.011648L371.909338,526.817571L370.654319,527.619127L368.889690,528.745743L365.587384,524.962020L365.479934,524.838847L360.258376,518.848806L360.150921,518.725445L359.256224,517.698166L359.900160,514.953445L360.948845,510.480860L361.373449,508.669015L357.897027,506.447494L354.846771,504.496717L351.862166,502.586488L351.629000,503.833994L350.901928,507.722461L350.449540,510.140675L350.069538,512.171241L350.010754,512.485301L349.940995,512.857973L346.928279,514.301383L345.930295,514.779269L334.495415,520.245878L336.309557,517.642435L343.221743,507.709884L342.146933,504.587755L341.551409,504.534932L336.257251,504.063952L337.617454,497.049210L338.003535,495.056734L338.372912,493.149882L334.111060,490.367448L332.753585,489.480572L332.629987,487.542391L332.445744,484.651594L332.247262,481.535242L327.086031,476.953164L321.808906,478.079449L314.481047,479.639006L314.331892,479.670697L307.926910,481.029552L308.554842,485.811474L308.869032,488.202366L308.869036,488.202398L308.927586,488.647813L309.812485,495.374648L305.400054,496.884118L303.260914,497.615153L302.990587,497.707500L300.587200,498.528183L296.485292,499.927423L287.694637,502.920000L284.497711,502.528126L281.763558,502.192240L281.602585,502.172444L271.966703,500.983138L269.616789,509.640301L268.911551,512.236122L267.297646,518.172561L264.663959,518.217364L261.428892,518.271560L261.070619,518.277506L251.140084,518.437790L250.059397,519.249531L248.944852,520.086482L248.802981,520.193001L245.684760,522.533308L241.678203,521.793155L238.351459,521.177437L237.117163,523.230665L234.842889,527.011765L232.008192,531.720768L231.682976,534.967618L231.495723,536.836594L231.079291,540.991689L230.866304,543.116139L230.317280,548.590222L230.135006,550.406904L229.060132,551.334854L226.981446,553.128716L226.870689,553.224270L224.448147,555.313671L222.731542,556.793467L223.606265,566.791486L223.756130,568.501914L224.423691,576.111940L224.815066,580.566778L224.815067,580.566787L228.383344,581.855445L230.317448,582.553339L231.141693,582.850629L232.713035,583.417174L236.787001,584.884752L238.199914,593.074458L233.868079,595.237350L225.483366,599.416951L225.483364,599.416952L225.483377,599.416956L237.464826,603.476368L239.605353,604.199951L246.256287,606.445048L251.214322,608.115562L252.015888,609.383383L252.572889,610.264176L254.762071,613.724327L255.840605,615.428069L257.174057,617.533633L258.317613,616.780195L264.778601,612.519400L266.399341,612.459739L269.782411,612.334454L270.841158,612.295037L271.336466,612.276563L275.982555,612.102210L275.993888,612.101783L278.253361,612.016298L283.295416,614.601007L285.810031,615.888795L287.182003,616.591051L291.258006,618.675899L292.271215,617.740308L293.033232,617.036511L293.042079,617.028339L295.966380,614.326218L296.260657,614.054191L297.017445,613.354530L300.585126,613.684539L301.493814,613.768409L306.284746,614.209374L308.247545,614.389437L310.002690,615.375973L314.018058,617.631277L315.333998,618.369894L316.027879,618.759259L320.052400,621.016218L327.313613,621.507080L327.888351,621.545732L328.946374,621.616807L333.486591,617.395044L338.517006,623.027321L339.683436,624.332193L339.993759,624.679278L346.023370,625.308124L346.023377,625.308125Z " data-nuts-id="HU231" data-shape-area="5.16461050026e-001" data-shape-leng="3.87295259838e+000" data-stat-levl-="3"/><path d="M307.682308,361.368408L291.734076,356.023165L286.266218,358.638378L277.780484,362.689554L277.467084,362.839001L273.371970,364.790650L267.880235,367.404595L267.880222,367.404602L267.352377,370.702540L266.824347,374.000131L259.808844,374.150571L251.652680,378.311037L242.222488,383.110532L236.493680,386.020535L235.677332,386.434859L231.187945,388.711815L229.494295,389.570129L227.402111,390.629897L225.975180,391.352364L222.221330,393.251702L207.865601,400.498389L203.268230,401.018903L201.245863,401.247275L194.375598,402.020342L188.472169,404.246240L183.994256,405.932063L183.994248,405.932063L174.879845,405.346099L171.892585,405.152444L170.387412,412.547495L169.835277,415.258368L167.170445,416.881700L164.476548,418.521665L164.456009,423.613866L164.443054,426.853249L164.436145,428.589853L164.397349,438.460698L164.357726,448.760612L164.340012,453.440829L163.226548,456.025682L159.748567,464.092488L159.257670,465.230199L156.972646,470.523175L154.572853,470.858764L150.813312,471.383445L144.767281,472.224528L142.961733,472.475058L135.404731,473.520410L134.171370,477.769860L135.392604,480.841180L136.506853,483.641703L136.578142,483.820824L138.285715,488.109215L137.416121,490.252141L135.370159,495.291048L127.032918,495.199016L124.473576,497.377662L124.393531,497.445779L123.062844,498.577979L121.109452,500.239346L120.091431,496.492040L119.601582,494.687838L118.259067,494.518447L112.302354,493.764880L110.733864,493.565915L111.590037,497.693117L112.076551,500.036649L112.666949,502.878925L115.109363,505.301017L116.668122,506.845964L116.803838,506.980446L118.457708,508.618885L122.315948,512.438266L124.775373,514.870832L131.164670,518.403457L146.325197,526.762212L148.201109,527.794206L152.046931,529.908331L155.501418,531.805529L155.353485,533.386531L154.712897,540.230470L157.939556,540.645843L159.665565,540.867644L161.128623,541.055440L162.272052,543.190825L162.825640,544.224315L167.211638,552.404420L167.091365,554.795304L166.992036,556.769847L166.991550,556.779515L166.939603,557.812164L166.763072,561.321428L166.739971,561.780653L166.704362,562.488513L168.080144,562.900679L170.103075,563.506363L172.831393,564.322568L173.625992,564.560134L172.612684,566.429428L171.987555,567.582316L172.753898,568.536674L172.990778,568.831626L174.485880,570.692776L175.911789,572.467016L178.889986,576.170309L180.472098,578.136275L185.112547,579.852482L186.963864,580.536487L186.963866,580.536488L186.967108,580.536778L189.769565,580.787599L193.128069,581.087255L193.283650,580.307412L193.286558,580.292836L193.318617,580.132132L194.058782,576.420870L195.444838,576.662014L206.598537,578.595947L212.106303,579.546625L212.106304,579.546626L217.359916,583.768387L218.775330,584.904840L220.833339,586.556511L225.483364,599.416952L225.483366,599.416951L233.868079,595.237350L238.199914,593.074458L236.787001,584.884752L232.713035,583.417174L231.141693,582.850629L230.317448,582.553339L228.383344,581.855445L224.815067,580.566787L224.815066,580.566778L224.423691,576.111940L223.756130,568.501914L223.606265,566.791486L222.731542,556.793467L224.448147,555.313671L226.870689,553.224270L226.981446,553.128716L229.060132,551.334854L230.135006,550.406904L230.317280,548.590222L230.866304,543.116139L231.079291,540.991689L231.495723,536.836594L231.682976,534.967618L232.008192,531.720768L234.842889,527.011765L237.117163,523.230665L238.351459,521.177437L241.678203,521.793155L245.684760,522.533308L248.802981,520.193001L248.944852,520.086482L250.059397,519.249531L251.140084,518.437790L261.070619,518.277506L261.428892,518.271560L264.663959,518.217364L267.297646,518.172561L268.911551,512.236122L269.616789,509.640301L271.966703,500.983138L281.602585,502.172444L281.763558,502.192240L284.497711,502.528126L287.694637,502.920000L291.062549,498.345282L292.991852,495.722662L292.210682,487.595882L287.835090,481.778548L287.144797,482.025867L284.818500,482.858952L284.772189,482.875530L282.092289,483.834498L281.172524,481.919046L280.253043,480.003439L287.006288,476.737193L287.514307,476.491252L290.115440,475.231485L290.115574,475.231421L289.441795,470.086896L287.736075,457.037968L287.408095,454.524732L286.184232,445.134620L289.974148,446.109893L291.731163,443.074913L293.265457,440.423198L291.974882,434.901492L291.731359,433.858905L291.307500,432.043730L295.973288,424.091370L300.591364,416.208252L298.076016,408.362747L301.664451,404.825923L305.988620,400.559671L307.194343,399.369262L310.389577,398.628473L312.712450,398.089314L311.597834,386.586525L311.079026,381.222528L310.889263,379.258973L311.405131,378.192954L313.280119,374.316614L307.682308,361.368408Z " data-nuts-id="HU232" data-shape-area="7.11039718272e-001" data-shape-leng="4.64762701203e+000" data-stat-levl-="3"/><path d="M400.440127,544.755005L406.135079,531.508145L408.142359,526.831345L409.265434,524.212907L411.029122,520.098330L410.746838,520.228099L409.800804,520.662928L403.465221,523.572114L405.170111,520.664265L410.054739,512.323722L414.223505,511.929642L414.454340,511.907775L416.992076,511.667064L416.992077,511.667063L418.007201,505.297992L418.628347,501.397462L418.628349,501.397451L418.291108,500.117194L417.954535,498.839172L415.710870,490.312005L415.012316,487.654403L413.190759,480.718331L414.321555,478.150590L415.077745,476.432797L417.309457,471.359931L419.043873,467.414144L415.971881,457.527723L414.849380,453.910737L414.484577,452.734727L410.115453,438.630144L409.411052,436.352716L409.411051,436.352714L412.499179,431.563957L412.682859,431.278975L413.865158,429.444221L416.834130,428.395871L418.072702,427.958244L426.597958,424.941456L431.505817,414.902512L429.844688,410.482990L428.621359,407.225920L427.964394,405.475954L426.621588,401.897318L423.665021,394.009466L423.665019,394.009462L419.906391,390.966760L419.642911,385.514688L419.457087,381.666026L409.869673,383.239163L412.033100,385.822618L410.990048,387.081923L410.681005,387.454968L406.030380,393.064846L399.878705,396.656389L387.602602,403.807071L389.181557,407.464475L390.366882,410.208393L388.188692,411.482941L386.780138,412.306774L385.291683,413.177025L376.129514,418.526723L375.369921,415.410815L373.881605,409.300339L373.813133,409.019047L372.957511,405.502811L367.640862,403.176445L366.695521,402.762440L365.527717,399.997041L365.527696,399.996992L364.360483,397.231497L364.360481,397.231497L359.796579,399.811821L356.441441,401.706853L356.683602,402.470870L357.696618,405.665724L356.911627,405.793665L350.205719,406.884304L346.345038,405.198061L343.724627,404.052505L343.724615,404.052500L342.845311,397.617281L342.199446,392.885224L338.983850,396.005873L338.965137,396.024025L337.225360,397.711362L336.575141,398.341791L335.729283,399.161749L335.729282,399.161749L333.139930,397.778014L331.627034,396.969103L329.092702,395.613342L328.934519,395.236313L328.559306,394.341879L327.559818,391.958524L326.604284,389.678928L318.797973,396.815206L314.977844,397.615426L312.712450,398.089314L310.389577,398.628473L307.194343,399.369262L305.988620,400.559671L301.664451,404.825923L298.076016,408.362747L300.591364,416.208252L295.973288,424.091370L291.307500,432.043730L291.731359,433.858905L291.974882,434.901492L293.265457,440.423198L291.731163,443.074913L289.974148,446.109893L286.184232,445.134620L287.408095,454.524732L287.736075,457.037968L289.441795,470.086896L290.115574,475.231421L290.115440,475.231485L287.514307,476.491252L287.006288,476.737193L280.253043,480.003439L281.172524,481.919046L282.092289,483.834498L284.772189,482.875530L284.818500,482.858952L287.144797,482.025867L287.835090,481.778548L292.210682,487.595882L292.991852,495.722662L291.062549,498.345282L287.694637,502.920000L296.485292,499.927423L300.587200,498.528183L302.990587,497.707500L303.260914,497.615153L305.400054,496.884118L309.812485,495.374648L308.927586,488.647813L308.869036,488.202398L308.869032,488.202366L308.554842,485.811474L307.926910,481.029552L314.331892,479.670697L314.481047,479.639006L321.808906,478.079449L327.086031,476.953164L332.247262,481.535242L332.445744,484.651594L332.629987,487.542391L332.753585,489.480572L334.111060,490.367448L338.372912,493.149882L338.003535,495.056734L337.617454,497.049210L336.257251,504.063952L341.551409,504.534932L342.146933,504.587755L343.221743,507.709884L336.309557,517.642435L334.495415,520.245878L345.930295,514.779269L346.928279,514.301383L349.940995,512.857973L350.010754,512.485301L350.069538,512.171241L350.449540,510.140675L350.901928,507.722461L351.629000,503.833994L351.862166,502.586488L354.846771,504.496717L357.897027,506.447494L361.373449,508.669015L360.948845,510.480860L359.900160,514.953445L359.256224,517.698166L360.150921,518.725445L360.258376,518.848806L365.479934,524.838847L365.587384,524.962020L368.889690,528.745743L370.654319,527.619127L371.909338,526.817571L381.207267,535.011648L385.831934,539.080086L388.926240,541.799566L392.057026,544.548939L392.057028,544.548940L400.440127,544.755005Z " data-nuts-id="HU233" data-shape-area="4.32162011229e-001" data-shape-leng="4.02632221197e+000" data-stat-levl-="3"/><path d="M783.186662,0.000000L780.699242,4.449953L779.974442,5.745766L778.587016,5.716232L777.307328,5.688843L776.715913,5.676137L775.501040,5.649941L771.500386,5.562773L766.520048,5.452318L766.352787,6.063588L766.024966,7.261392L765.741290,8.297641L765.565776,8.938662L764.773983,11.829344L764.520870,12.753016L764.311238,13.517873L764.095908,14.303381L761.864621,14.002167L761.620115,13.969133L759.003640,13.615296L758.493375,13.546220L755.516230,13.142727L751.333346,12.574479L750.284679,13.260306L748.946257,14.135365L742.019884,18.659038L739.510386,20.296036L737.278277,21.751204L734.374127,18.911725L733.105274,17.670482L730.547511,15.167179L729.704416,14.341685L727.821146,14.514453L725.060007,14.767187L723.145558,14.942026L720.692586,15.165572L718.646167,15.351660L717.013293,15.499878L715.577008,15.630056L714.167612,15.757620L713.830034,15.307447L711.871001,12.694158L711.599815,12.332290L711.075901,11.633106L710.231953,10.506606L708.106827,7.668801L707.885549,7.373217L707.641181,7.443145L703.145031,8.728655L702.294150,8.971701L700.989448,9.344234L700.716604,8.694663L699.546200,5.907415L698.285434,2.903486L696.684400,3.187394L693.171416,3.809513L690.445858,4.291397L678.827020,6.337910L676.445534,6.755835L671.203017,7.673991L670.043720,7.876683L668.383089,8.876021L666.078529,10.262160L660.448726,13.644925L658.680556,13.111776L655.562391,12.170793L654.626932,11.888302L650.700884,13.431503L648.896569,14.140125L648.896491,14.140156L648.864186,17.779224L648.849001,19.485599L648.810553,23.794088L643.025300,29.595440L643.931619,32.093485L640.230989,35.688872L639.017510,36.867060L636.587086,39.225648L636.509107,39.301296L636.214567,42.190853L635.920561,45.073180L635.828152,45.978707L635.504644,49.147292L635.235540,51.781200L632.167127,57.055831L630.540130,59.850200L629.541620,61.564302L629.244062,62.074985L625.641320,68.253683L623.698794,71.581678L621.130427,72.638906L617.762343,74.024148L615.301690,73.362336L610.594503,72.094631L609.077946,73.724138L607.972995,74.910951L606.416078,76.582597L601.571467,76.746231L598.817939,76.838325L596.023648,80.327526L595.128359,81.444848L591.530949,85.931412L590.813366,86.825780L584.231246,95.020585L586.114972,96.660062L588.048849,98.342390L590.288855,100.290019L590.968628,100.399541L593.957218,100.880552L595.567723,101.139423L600.711645,101.964671L601.672011,103.311774L603.350855,105.665760L604.459700,107.219879L606.612493,110.235699L617.621652,109.788362L618.025306,107.630520L618.308147,106.117931L618.655009,104.262319L619.903929,104.352679L622.223811,104.520162L623.705183,104.626862L629.637576,110.681210L631.250773,104.741676L631.261332,104.702775L631.837933,102.578054L632.986167,98.344157L634.445737,98.282052L640.071457,98.040937L642.804773,97.922791L647.274626,109.106428L648.089663,111.143333L648.934224,113.253266L649.923206,115.723024L649.439822,117.275390L648.366621,120.720157L643.071051,137.682308L644.451264,138.873628L647.983875,141.920931L652.900178,146.157442L649.409966,149.246712L647.171353,151.226682L645.807280,152.432588L643.126438,154.801334L647.847457,158.898347L648.563361,159.519210L651.508284,162.072031L651.278307,166.491673L651.101749,169.880767L651.038951,171.085350L651.002375,171.786749L654.037873,177.244594L655.122938,179.194183L656.199532,180.045627L656.728604,180.463971L659.506095,182.659293L660.122684,183.146443L665.124653,187.095673L661.248377,192.025603L663.241929,193.261249L664.951261,194.320249L666.039751,194.994382L672.008994,198.688121L675.368017,198.263989L676.812584,198.081275L678.258821,197.898162L681.185841,197.526983L685.061680,200.501043L687.606255,202.452070L689.291831,203.743810L691.276736,205.264268L690.216236,202.447064L694.273151,199.218784L699.515521,204.098925L699.515523,204.098926L700.498374,204.546607L703.606808,205.961701L706.718624,207.377159L705.375643,204.906437L703.514847,201.481218L702.963595,200.466098L707.167985,199.087783L707.912281,198.843585L708.883774,198.524756L710.399611,198.027079L710.399612,198.027078L712.737179,195.659415L713.366847,195.021380L713.878018,194.503337L715.419794,192.940389L717.207721,191.127082L718.810337,190.887759L719.907580,190.723770L720.715273,190.602985L723.981201,190.113980L724.349676,187.973983L724.383259,187.778893L724.434928,187.478714L724.787294,185.431062L725.361729,182.090858L725.361777,182.090580L729.567801,184.363414L733.861237,173.180923L735.860474,167.964704L734.146610,165.455098L733.619042,164.682326L732.102246,162.459889L731.335364,161.335861L732.239702,159.066964L735.821342,150.070181L737.126399,146.787683L738.002448,144.582940L740.985008,137.068952L738.543922,133.836656L734.464952,128.430692L738.805168,122.320267L741.332297,118.758374L747.397846,120.840818L754.664347,123.330430L755.961739,121.604841L757.657953,119.347720L760.539375,115.510654L761.492989,119.482793L761.572384,119.813400L766.861796,121.651900L770.464773,122.902518L771.376448,123.218747L777.213163,121.699811L778.062781,121.478423L780.619533,120.811767L782.910093,120.213963L782.911512,120.213593L784.343837,118.479106L784.568389,118.207114L786.176648,116.258543L789.813540,111.848556L787.589980,108.680617L785.198997,105.271903L785.161916,105.219021L782.540269,101.478743L782.908859,100.534620L784.016281,97.696840L784.483089,96.500113L784.518370,96.409652L787.698731,88.247834L791.419162,88.143476L794.706883,88.050249L798.229963,87.949302L799.112043,87.124245L803.010239,83.475684L805.272897,81.356152L806.393800,81.617294L806.909795,81.737467L819.173810,84.586223L821.195244,84.455291L825.088470,84.202107L825.127704,84.199548L831.233808,83.799746L832.602292,83.709692L834.002978,83.617349L842.499117,75.412520L843.417456,74.524514L844.897960,74.353028L846.642507,74.150705L851.229699,73.617400L854.867265,73.193151L855.465559,72.484014L857.674536,69.864669L857.865571,69.638061L858.098487,69.361757L859.084703,68.191605L860.736525,66.230917L861.472718,65.356748L861.667114,65.125886L861.771403,65.002027L861.937780,64.804422L863.018007,63.521201L865.766031,60.254857L866.176109,59.767196L866.628926,59.228639L868.663453,56.807953L873.144115,58.337766L874.065075,58.651943L875.835640,59.255704L876.809472,56.861822L878.071915,53.756530L878.643813,52.349082L882.920460,41.809867L882.920459,41.809867L880.983728,41.655981L877.532197,41.380919L874.354275,41.126735L873.031856,41.020702L871.673445,40.911622L867.953966,40.612121L866.523145,41.210994L863.839884,42.333410L860.082785,43.903555L859.131761,44.300731L858.205874,44.687305L856.319017,45.474779L855.811621,45.686466L854.554954,46.210618L853.112693,46.156227L851.710390,46.103170L849.365212,46.014055L848.311449,45.973857L844.358053,45.822184L843.425893,47.227915L842.168464,49.123420L839.416825,53.268391L833.752754,51.802991L831.785488,51.293290L830.483159,50.955661L827.392073,50.153635L825.444199,49.647752L825.444199,49.647751L825.444198,49.647750L824.962920,48.903210L824.114535,47.590497L823.026088,45.905853L822.837582,45.614038L822.617480,45.273290L820.712990,42.323955L819.528708,40.489112L816.809094,36.273099L813.477348,31.103508L811.854710,28.583945L810.684475,24.226427L810.119926,22.123331L809.784070,20.871888L809.086953,18.273658L808.878769,17.497556L808.377941,15.630146L806.793806,15.737351L804.157442,15.915275L798.397775,16.301861L797.531474,15.375127L792.776447,10.284770L789.743675,7.034917L785.823926,2.830889L783.186662,0.000001L783.186662,0.000000Z " data-nuts-id="HU311" data-shape-area="8.74552299416e-001" data-shape-leng="5.90144380416e+000" data-stat-levl-="3"/><path d="M691.276736,205.264268L689.291831,203.743810L687.606255,202.452070L685.061680,200.501043L681.185841,197.526983L678.258821,197.898162L676.812584,198.081275L675.368017,198.263989L672.008994,198.688121L666.039751,194.994382L664.951261,194.320249L663.241929,193.261249L661.248377,192.025603L665.124653,187.095673L660.122684,183.146443L659.506095,182.659293L656.728604,180.463971L656.199532,180.045627L655.122938,179.194183L654.037873,177.244594L651.002375,171.786749L651.038951,171.085350L651.101749,169.880767L651.278307,166.491673L651.508284,162.072031L648.563361,159.519210L647.847457,158.898347L643.126438,154.801334L645.807280,152.432588L647.171353,151.226682L649.409966,149.246712L652.900178,146.157442L647.983875,141.920931L644.451264,138.873628L643.071051,137.682308L648.366621,120.720157L649.439822,117.275390L649.923206,115.723024L648.934224,113.253266L648.089663,111.143333L647.274626,109.106428L642.804773,97.922791L640.071457,98.040937L634.445737,98.282052L632.986167,98.344157L631.837933,102.578054L631.261332,104.702775L631.250773,104.741676L629.637576,110.681210L623.705183,104.626862L622.223811,104.520162L619.903929,104.352679L618.655009,104.262319L618.308147,106.117931L618.025306,107.630520L617.621652,109.788362L606.612493,110.235699L604.459700,107.219879L603.350855,105.665760L601.672011,103.311774L600.711645,101.964671L595.567723,101.139423L593.957218,100.880552L590.968628,100.399541L590.288855,100.290019L590.288852,100.290022L585.981948,104.986959L582.879908,108.366436L572.274180,112.295626L573.502874,114.612010L575.385010,118.158290L579.148258,125.241690L581.136673,128.980516L581.689796,130.020080L574.239524,132.099704L573.769578,134.492691L573.177585,137.505524L572.544070,140.727675L572.518281,140.858798L572.091416,143.028668L567.587079,147.889182L566.005877,149.593986L565.088045,149.228942L562.792708,148.315610L559.567399,147.031219L549.733679,148.731697L549.384099,148.791983L549.384944,149.145793L549.393670,152.807302L549.393670,152.807305L551.988762,153.956935L553.016715,154.412096L556.075217,155.765595L556.075216,155.765597L555.295975,157.270156L554.467961,158.868376L547.359215,155.221109L545.199948,154.111935L543.383546,153.178407L543.101514,156.294221L543.070516,156.636546L542.671805,161.037615L534.934239,166.539057L534.361359,166.945955L530.724353,169.527850L527.993308,171.465070L523.696003,174.510626L524.298375,177.803421L524.452311,178.644611L524.997595,181.623384L525.204434,182.752920L524.440712,183.286714L522.408548,184.706577L514.783817,190.027546L520.066204,195.013931L519.178946,197.117734L518.590835,198.511741L518.576684,198.545279L517.851189,200.264397L517.851197,200.264414L520.149025,204.727435L520.191889,204.810652L521.690910,207.720048L527.312278,218.615814L528.996874,221.876571L534.328752,219.010515L542.412832,214.657549L544.053764,215.731103L544.317103,215.903348L550.119510,219.695773L551.396681,220.529801L554.010772,217.813583L557.701735,213.975159L559.150170,212.467809L559.258205,210.052097L559.493958,204.775443L564.920680,207.200417L576.959823,203.086637L579.896869,217.781209L580.998504,223.284134L590.284583,227.118094L594.688016,228.932649L597.920273,226.239418L593.143138,220.985544L595.811752,220.303491L608.769500,216.981682L611.422462,223.448285L612.108793,225.120019L612.773660,226.739005L615.966812,229.275480L617.511181,230.501540L618.787933,231.514794L621.978863,234.045797L621.737974,235.785903L620.745211,242.950406L620.731473,243.049478L620.731474,243.049479L628.136521,252.656124L634.417221,256.103016L636.659987,257.332545L644.571497,251.197902L649.241205,247.571203L654.216457,243.702480L656.114696,242.225135L668.699256,232.412900L670.677490,230.867606L676.451535,226.352770L679.593631,223.893115L682.111615,221.920597L682.956660,217.639030L683.322060,215.786439L683.869779,213.008091L688.497866,208.171381L691.276736,205.264268Z " data-nuts-id="HU312" data-shape-area="4.40559134673e-001" data-shape-leng="3.95987538217e+000" data-stat-levl-="3"/><path d="M584.231246,95.020585L583.151004,94.330407L580.882534,92.880460L579.029792,93.497001L577.219688,94.098999L577.178698,94.112627L575.704947,94.602498L572.962948,95.513312L570.797019,98.644037L568.607890,101.806064L567.658160,103.177178L562.130970,104.610450L562.102213,103.115745L562.043865,100.083087L561.956757,95.555864L559.995348,94.759792L555.593335,92.971546L555.592787,92.971323L555.065392,93.304169L551.704966,95.423948L550.156844,96.399912L548.793033,97.259368L546.859317,98.477468L545.050976,95.927557L546.078580,93.597990L547.726023,89.860980L544.139325,87.524734L540.452558,85.121159L539.462829,85.792755L537.082390,87.407360L536.055665,88.103471L530.949242,86.383504L528.971727,81.819253L528.968718,81.812305L528.308269,80.287074L527.948036,79.454972L522.857939,77.591053L518.337302,80.670792L510.007185,86.336709L507.687615,87.912326L506.189894,92.651479L505.785984,93.928816L504.311648,98.588659L501.373234,107.863611L499.520904,113.702002L498.102302,113.666999L491.233149,113.495033L490.532436,113.477261L487.937602,113.411075L483.045427,113.284700L479.040780,113.179704L477.384060,113.135859L475.007033,113.072535L473.427237,114.407991L471.660857,115.900542L471.282707,116.219984L467.159145,119.701385L466.062939,120.626271L466.062937,120.626270L463.261702,119.871026L459.760721,118.926025L457.939788,118.434027L454.937840,117.622210L453.339360,117.189566L452.067366,116.845107L449.834310,116.239999L446.319494,117.483537L445.861157,117.645597L441.193723,119.294620L439.665114,119.834169L437.401747,118.269079L434.477470,116.245679L433.226755,115.379823L431.545163,117.228994L429.659834,119.301203L429.442761,119.539725L428.446243,120.634528L420.686657,119.911951L425.097168,126.493005L427.750886,126.194480L429.653199,125.980097L432.127490,130.081112L430.810105,134.502396L430.141491,136.744981L429.221958,137.708995L422.705331,144.534103L423.902206,145.858906L425.011428,147.086299L428.241226,150.658058L430.682575,153.355794L432.929328,155.836905L437.833857,161.247734L439.485094,163.067800L441.832507,165.653812L442.587842,166.485569L443.653323,167.658561L445.773524,165.903850L446.951269,164.928728L457.434288,165.288633L463.478578,169.534626L464.836670,170.487789L468.735544,170.026258L469.416121,169.945555L478.575074,168.855452L486.421620,170.689509L488.404782,171.152115L488.928958,171.274325L493.291114,172.290316L496.418862,175.417773L494.828225,177.836244L491.947465,182.213069L496.215937,182.838473L496.225833,182.839921L496.221425,182.858245L495.392106,186.304264L494.668175,189.310562L495.776380,191.221485L497.374714,193.976262L497.709537,194.553146L501.090458,200.374555L505.726584,198.572858L505.726584,198.572857L506.017858,197.885874L506.471607,196.815502L506.785109,196.075833L510.399451,187.540548L514.783817,190.027546L522.408548,184.706577L524.440712,183.286714L525.204434,182.752920L524.997595,181.623384L524.452311,178.644611L524.298375,177.803421L523.696003,174.510626L527.993308,171.465070L530.724353,169.527850L534.361359,166.945955L534.934239,166.539057L542.671805,161.037615L543.070516,156.636546L543.101514,156.294221L543.383546,153.178407L545.199948,154.111935L547.359215,155.221109L554.467961,158.868376L555.295975,157.270156L556.075216,155.765597L556.075217,155.765595L553.016715,154.412096L551.988762,153.956935L549.393670,152.807305L549.393670,152.807302L549.384944,149.145793L549.384099,148.791983L549.733679,148.731697L559.567399,147.031219L562.792708,148.315610L565.088045,149.228942L566.005877,149.593986L567.587079,147.889182L572.091416,143.028668L572.518281,140.858798L572.544070,140.727675L573.177585,137.505524L573.769578,134.492691L574.239524,132.099704L581.689796,130.020080L581.136673,128.980516L579.148258,125.241690L575.385010,118.158290L573.502874,114.612010L572.274180,112.295626L582.879908,108.366436L585.981948,104.986959L590.288852,100.290022L590.288855,100.290019L588.048849,98.342390L586.114972,96.660062L584.231246,95.020585Z " data-nuts-id="HU313" data-shape-area="3.05033474551e-001" data-shape-leng="3.44888016149e+000" data-stat-levl-="3"/><path d="M890.617945,211.686218L887.347436,201.075961L886.611827,198.687382L882.330826,195.892970L879.944515,199.584472L878.992837,201.055776L876.076894,205.560686L875.400526,206.604942L874.845469,207.461711L872.397728,199.720484L871.374606,196.482297L870.303452,193.090528L869.134396,189.386934L859.724144,183.370414L854.369678,185.082752L854.125523,189.661094L854.039757,191.267272L846.846296,197.824640L845.919040,197.501323L844.469674,196.995772L841.743286,196.044176L836.575064,194.238124L837.062355,192.218183L837.549721,190.196980L835.248903,190.169040L833.709479,190.150088L833.453664,190.146918L829.898200,190.102275L823.749882,186.105318L814.364094,179.992372L809.297106,176.686542L803.291854,172.763370L803.622363,168.888332L804.404057,159.704751L805.585061,145.779851L805.881978,142.269411L803.870691,141.595583L799.060136,139.982205L798.161917,140.967502L797.563726,141.623543L797.558816,141.628927L795.876209,143.473644L786.339946,144.208718L780.165843,144.680339L775.415245,145.040927L770.121233,145.440412L767.824837,146.587154L763.301516,148.843885L761.649994,147.265599L759.611865,145.316966L751.939580,137.972791L751.813427,137.851916L749.938561,137.717088L744.959114,137.357501L742.855958,137.204969L742.736124,137.196267L740.985008,137.068952L738.002448,144.582940L737.126399,146.787683L735.821342,150.070181L732.239702,159.066964L731.335364,161.335861L732.102246,162.459889L733.619042,164.682326L734.146610,165.455098L735.860474,167.964704L733.861237,173.180923L729.567801,184.363414L725.361777,182.090580L725.361729,182.090858L724.787294,185.431062L724.434928,187.478714L724.383259,187.778893L724.349676,187.973983L723.981201,190.113980L720.715273,190.602985L719.907580,190.723770L718.810337,190.887759L717.207721,191.127082L715.419794,192.940389L713.878018,194.503337L713.366847,195.021380L712.737179,195.659415L710.399612,198.027078L710.399611,198.027079L708.883774,198.524756L707.912281,198.843585L707.167985,199.087783L702.963595,200.466098L703.514847,201.481218L705.375643,204.906437L706.718624,207.377159L703.606808,205.961701L700.498374,204.546607L699.515523,204.098926L699.515521,204.098925L701.937661,217.676312L707.960270,220.717842L710.292446,219.882292L716.719576,217.576515L717.102104,217.439136L724.431356,223.599822L723.150782,233.874750L724.676135,236.495545L726.700655,239.972002L726.835654,240.203738L726.754558,240.360529L724.831527,244.076986L729.628131,264.496253L730.801498,269.482398L729.344903,292.760083L725.805157,296.610778L732.030304,301.192789L736.895664,304.769180L742.011407,306.610176L743.902622,307.290045L745.567866,307.888358L748.643558,308.992647L761.522744,313.605606L764.003957,313.514520L771.955157,313.218980L771.818704,317.887601L771.669341,322.984994L771.545105,327.214624L768.225249,329.435766L762.282301,333.407201L762.282301,333.407203L762.638967,334.915410L763.504268,338.573165L764.826869,344.160485L768.339132,345.104855L771.536316,345.963442L782.509424,348.902495L789.131099,350.670276L793.492832,351.832348L800.521343,358.073933L809.783671,354.231365L812.022749,353.300918L812.287250,349.485047L812.648288,344.268509L816.374457,345.396175L820.153779,343.065735L824.384669,340.454159L825.879004,339.531081L824.195750,336.002181L828.395152,334.629694L829.181595,334.372450L831.719784,329.474084L831.920633,329.086244L835.250520,322.651378L835.250525,322.651375L838.962799,320.935956L840.825784,320.074419L844.455442,318.394611L845.119210,316.221709L846.009789,313.304665L846.312238,312.313576L846.408124,311.999323L848.235852,306.004979L848.235853,306.004978L852.250535,303.747620L854.113950,302.699062L853.247650,295.330986L852.784156,291.387407L855.108131,285.554970L856.660195,281.655588L857.632644,279.210708L857.786566,278.823602L857.818076,278.744354L861.065933,270.568293L861.193722,270.246298L864.561865,261.751118L865.530992,261.662598L866.312320,261.591170L872.606802,261.013745L875.346974,260.761267L875.346977,260.761260L877.436737,255.259143L878.511857,252.425822L875.619519,243.224428L875.519191,242.905045L875.311821,242.244861L873.776306,237.354522L875.825647,229.741523L875.825647,229.741522L875.825648,229.741521L879.462134,225.310521L880.814786,223.661066L883.975089,219.804632L886.387461,216.858339L890.617945,211.686218Z " data-nuts-id="HU321" data-shape-area="7.41517788182e-001" data-shape-leng="4.42600085446e+000" data-stat-levl-="3"/><path d="M699.515521,204.098925L694.273151,199.218784L690.216236,202.447064L691.276736,205.264268L688.497866,208.171381L683.869779,213.008091L683.322060,215.786439L682.956660,217.639030L682.111615,221.920597L679.593631,223.893115L676.451535,226.352770L670.677490,230.867606L668.699256,232.412900L656.114696,242.225135L654.216457,243.702480L649.241205,247.571203L644.571497,251.197902L636.659987,257.332545L634.417221,256.103016L628.136521,252.656124L620.731474,243.049479L620.731473,243.049478L620.745211,242.950406L621.737974,235.785903L621.978863,234.045797L618.787933,231.514794L617.511181,230.501540L615.966812,229.275480L612.773660,226.739005L612.108793,225.120019L611.422462,223.448285L608.769500,216.981682L595.811752,220.303491L593.143138,220.985544L597.920273,226.239418L594.688016,228.932649L590.284583,227.118094L580.998504,223.284134L579.896869,217.781209L576.959823,203.086637L564.920680,207.200417L559.493958,204.775443L559.258205,210.052097L559.150170,212.467809L557.701735,213.975159L554.010772,217.813583L551.396681,220.529801L550.119510,219.695773L544.317103,215.903348L544.053764,215.731103L542.412832,214.657549L534.328752,219.010515L528.996874,221.876571L527.727412,227.665223L527.218149,229.985631L527.045234,230.773274L534.461739,237.400798L534.461740,237.400797L535.819998,236.806464L540.721813,234.659718L541.727885,234.218749L543.279670,233.538349L545.408048,232.604659L547.289045,234.217496L546.523220,235.357822L544.344155,238.600930L543.900278,239.261270L541.030465,243.528296L542.746990,245.464045L552.592061,256.549203L556.807885,259.580570L567.430795,267.205114L569.086581,268.391769L577.262203,274.243998L581.374568,283.523372L580.195087,286.640918L580.061480,286.993940L577.157133,294.661851L582.332056,297.316797L583.955745,298.149088L588.402522,300.426691L588.738676,300.598760L590.757404,301.631787L591.673170,304.236568L593.733229,310.091895L593.733227,310.091899L591.316313,314.067168L590.165399,315.958970L587.433206,320.446918L586.207211,322.459359L586.207216,322.459369L586.207465,322.459868L589.204377,328.458155L592.049254,334.145958L595.516978,341.070904L596.167131,342.368249L593.548810,348.065811L600.223146,353.159222L599.391439,357.086662L599.129985,358.320653L599.049106,358.702314L598.353026,361.985889L603.461887,367.220495L601.350058,369.131305L598.188548,371.989930L597.973380,372.184399L592.545545,377.086512L594.840686,380.658954L596.969680,383.970486L596.969679,383.970487L594.284420,384.723997L589.682858,386.013536L580.396818,388.609297L585.217283,394.114249L584.719404,390.287350L584.566441,389.111195L589.072620,391.975160L591.567223,395.852720L593.690113,399.150110L595.271692,398.147566L596.955758,397.079621L597.517002,396.723609L600.303895,398.755439L606.240618,403.079127L606.240619,403.079127L606.240620,403.079126L611.083033,397.314634L611.283460,397.075869L612.484137,395.645237L614.414974,393.343564L623.453902,400.004407L630.177004,400.856235L631.684932,397.899710L632.595900,396.112739L637.998526,395.473541L640.335671,395.196210L642.837468,392.337521L643.277226,391.834821L643.277226,391.834818L640.593767,379.718400L645.795949,373.172910L648.251371,370.079914L652.328602,371.964277L653.926574,372.702248L658.013019,369.721867L658.013150,369.721771L658.458160,369.397025L661.051590,367.503747L662.097343,366.739969L665.286017,366.660336L668.594888,366.576756L670.077502,366.538995L670.971198,367.161833L672.781615,368.423144L675.283268,370.165131L682.953619,367.720484L687.920901,360.013988L687.920926,360.013947L687.080422,355.098398L685.965707,348.574243L685.578067,346.304167L685.150907,343.801861L684.598013,340.561774L687.491406,338.911053L691.237264,336.772164L691.719556,336.496625L692.288127,340.107327L692.309522,340.243161L699.949428,339.649386L701.141799,336.949307L704.535371,329.256330L706.102906,325.698655L708.012932,321.360071L706.684739,318.874884L704.843518,315.427907L704.843517,315.427905L715.717727,308.372176L718.504253,306.561008L719.248941,306.076763L719.248941,306.076762L720.463320,302.843381L721.272023,300.688927L722.208703,298.192315L722.208703,298.192313L724.139730,297.343345L725.805157,296.610778L729.344903,292.760083L730.801498,269.482398L729.628131,264.496253L724.831527,244.076986L726.754558,240.360529L726.835654,240.203738L726.700655,239.972002L724.676135,236.495545L723.150782,233.874750L724.431356,223.599822L717.102104,217.439136L716.719576,217.576515L710.292446,219.882292L707.960270,220.717842L701.937661,217.676312L699.515521,204.098925Z " data-nuts-id="HU322" data-shape-area="6.61651730880e-001" data-shape-leng="5.03760650182e+000" data-stat-levl-="3"/><path d="M999.201671,129.352902L998.569794,126.558775L998.144297,126.411502L995.671183,125.555128L990.885513,123.896137L992.719288,118.006347L993.836140,114.415068L994.976051,110.746408L995.972604,107.536441L988.123131,96.363549L986.578832,94.162623L984.448896,94.213824L982.565461,94.258769L981.313309,94.288476L979.299164,94.335975L977.423725,94.379882L976.145655,94.409627L974.047539,94.458147L972.679906,95.490844L972.250644,95.814902L965.572216,100.851861L963.392298,100.343852L962.870844,100.222265L958.881583,99.291231L957.435394,98.953337L956.212092,98.667363L953.258797,97.976376L954.048047,89.723630L954.048044,89.723624L952.897030,88.039804L948.414906,81.477804L948.343521,81.373227L945.270939,76.870069L941.092803,70.740471L940.593901,70.008075L939.139546,67.872482L935.352039,68.000290L930.367411,68.166577L929.910716,68.181704L924.463854,68.360704L923.985729,69.093974L922.279505,71.709640L919.968377,69.414377L918.809128,67.169703L917.119911,63.897342L914.939091,59.670008L912.269517,54.491210L911.044037,52.112360L911.167060,50.693272L911.542466,46.358490L908.865041,45.787425L908.522473,45.714311L904.162962,44.782895L904.162961,44.782893L903.172862,43.485926L900.051809,39.395300L900.417341,38.822204L901.753126,36.727236L903.404742,34.135488L895.664339,31.048403L892.496150,33.069331L887.639354,36.164160L885.766285,38.406095L884.628409,39.767420L882.920460,41.809867L878.643813,52.349082L878.071915,53.756530L876.809472,56.861822L875.835640,59.255704L874.065075,58.651943L873.144115,58.337766L868.663453,56.807953L866.628926,59.228639L866.176109,59.767196L865.766031,60.254857L863.018007,63.521201L861.937780,64.804422L861.771403,65.002027L861.667114,65.125886L861.472718,65.356748L860.736525,66.230917L859.084703,68.191605L858.098487,69.361757L857.865571,69.638061L857.674536,69.864669L855.465559,72.484014L854.867265,73.193151L851.229699,73.617400L846.642507,74.150705L844.897960,74.353028L843.417456,74.524514L842.499117,75.412520L834.002978,83.617349L832.602292,83.709692L831.233808,83.799746L825.127704,84.199548L825.088470,84.202107L821.195244,84.455291L819.173810,84.586223L806.909795,81.737467L806.393800,81.617294L805.272897,81.356152L803.010239,83.475684L799.112043,87.124245L798.229963,87.949302L794.706883,88.050249L791.419162,88.143476L787.698731,88.247834L784.518370,96.409652L784.483089,96.500113L784.016281,97.696840L782.908859,100.534620L782.540269,101.478743L785.161916,105.219021L785.198997,105.271903L787.589980,108.680617L789.813540,111.848556L786.176648,116.258543L784.568389,118.207114L784.343837,118.479106L782.911512,120.213593L782.910093,120.213963L780.619533,120.811767L778.062781,121.478423L777.213163,121.699811L771.376448,123.218747L770.464773,122.902518L766.861796,121.651900L761.572384,119.813400L761.492989,119.482793L760.539375,115.510654L757.657953,119.347720L755.961739,121.604841L754.664347,123.330430L747.397846,120.840818L741.332297,118.758374L738.805168,122.320267L734.464952,128.430692L738.543922,133.836656L740.985008,137.068952L742.736124,137.196267L742.855958,137.204969L744.959114,137.357501L749.938561,137.717088L751.813427,137.851916L751.939580,137.972791L759.611865,145.316966L761.649994,147.265599L763.301516,148.843885L767.824837,146.587154L770.121233,145.440412L775.415245,145.040927L780.165843,144.680339L786.339946,144.208718L795.876209,143.473644L797.558816,141.628927L797.563726,141.623543L798.161917,140.967502L799.060136,139.982205L803.870691,141.595583L805.881978,142.269411L805.585061,145.779851L804.404057,159.704751L803.622363,168.888332L803.291854,172.763370L809.297106,176.686542L814.364094,179.992372L823.749882,186.105318L829.898200,190.102275L833.453664,190.146918L833.709479,190.150088L835.248903,190.169040L837.549721,190.196980L837.062355,192.218183L836.575064,194.238124L841.743286,196.044176L844.469674,196.995772L845.919040,197.501323L846.846296,197.824640L854.039757,191.267272L854.125523,189.661094L854.369678,185.082752L859.724144,183.370414L869.134396,189.386934L870.303452,193.090528L871.374606,196.482297L872.397728,199.720484L874.845469,207.461711L875.400526,206.604942L876.076894,205.560686L878.992837,201.055776L879.944515,199.584472L882.330826,195.892970L886.611827,198.687382L887.347436,201.075961L890.617945,211.686218L890.617949,211.686218L898.292726,210.948600L898.805792,209.250450L899.870280,205.725069L900.702331,202.967470L901.903762,198.982544L903.740003,192.884939L904.143738,191.543098L904.143739,191.543094L905.384761,190.184460L909.203332,186.000898L911.392392,183.600485L913.915301,180.832075L917.364094,177.044358L921.662670,176.954565L932.795822,176.714466L933.458557,173.747994L934.163410,170.590580L935.191515,165.980654L937.482975,164.755984L940.312839,163.242531L941.563435,164.204485L943.081526,165.371817L949.638502,170.409033L950.610026,171.154723L952.801009,171.091405L959.652707,170.890671L959.652726,170.890670L965.291966,168.341118L967.387379,167.392731L967.793478,167.208866L970.156384,166.138618L972.314269,160.719836L973.298161,158.246853L973.348731,158.119707L973.411498,157.961891L973.413600,157.956607L974.173158,156.046374L975.847704,155.738673L978.829732,155.190064L983.033525,154.415255L982.134309,151.010554L982.029811,150.614808L981.186718,147.421268L980.827033,146.058469L980.065583,143.172743L981.210916,142.855372L988.201066,140.915479L990.634766,140.238902L992.537709,139.709452L993.921895,137.560410L994.799398,136.197448L995.087506,135.749852L995.111029,135.713305L999.201671,129.352902Z " data-nuts-id="HU323" data-shape-area="7.12929708250e-001" data-shape-leng="5.01514257563e+000" data-stat-levl-="3"/><path d="M593.548810,348.065811L589.840352,345.489665L589.840189,345.489552L589.840187,345.489550L584.440642,347.949833L579.458628,350.216651L578.844299,352.271972L578.295115,354.108644L577.130774,358.000454L577.130771,358.000453L570.179652,354.740118L561.136556,350.489534L557.761463,358.264123L556.361222,361.486098L552.766493,361.438657L546.814468,361.357617L525.395348,342.030755L521.655685,333.009079L517.921069,323.984691L517.921068,323.984691L514.112527,326.973712L513.336470,326.739924L506.041955,324.539409L506.041954,324.539411L503.738528,331.223855L503.590483,331.653186L503.184772,332.829575L501.244986,338.450514L496.143056,337.044550L494.516041,336.595635L484.646529,343.348157L478.184878,347.760170L474.619043,342.696174L482.395803,330.176815L470.681362,321.275953L465.893443,322.008418L464.028143,324.678934L462.049753,327.509670L460.809560,329.283287L459.456008,329.380270L455.085710,329.692302L451.991562,332.557125L451.973652,332.573701L449.064920,335.264777L445.362973,338.686828L444.442778,339.536949L441.290244,342.447902L435.211516,340.352443L434.035580,339.946613L424.234420,336.558286L426.521172,340.347517L427.255511,341.563716L425.631817,344.203218L425.465124,347.947532L425.381159,349.832767L424.886418,360.929899L424.435249,371.033222L420.209611,380.060097L419.457087,381.666026L419.642911,385.514688L419.906391,390.966760L423.665019,394.009462L423.665021,394.009466L426.621588,401.897318L427.964394,405.475954L428.621359,407.225920L429.844688,410.482990L431.505817,414.902512L426.597958,424.941456L418.072702,427.958244L416.834130,428.395871L413.865158,429.444221L412.682859,431.278975L412.499179,431.563957L409.411051,436.352714L409.411052,436.352716L410.115453,438.630144L414.484577,452.734727L414.849380,453.910737L415.971881,457.527723L419.043873,467.414144L417.309457,471.359931L415.077745,476.432797L414.321555,478.150590L413.190759,480.718331L415.012316,487.654403L415.710870,490.312005L417.954535,498.839172L418.291108,500.117194L418.628349,501.397451L418.628347,501.397462L418.007201,505.297992L416.992077,511.667063L416.992076,511.667064L414.454340,511.907775L414.223505,511.929642L410.054739,512.323722L405.170111,520.664265L403.465221,523.572114L409.800804,520.662928L410.746838,520.228099L411.029122,520.098330L409.265434,524.212907L408.142359,526.831345L406.135079,531.508145L400.440127,544.755005L399.540685,545.930378L389.861134,558.560147L391.356204,562.164389L401.190537,563.235232L401.597379,562.890808L402.580674,562.058227L402.710237,561.948508L402.871781,561.811700L403.733661,561.081705L405.718994,559.399574L407.065835,560.723874L410.355792,563.956819L410.355790,563.956822L405.953969,572.574672L402.633062,579.066912L400.323777,583.576722L403.148700,587.101520L404.121970,589.201265L412.372738,586.099724L413.535197,585.662130L416.011727,582.602887L418.974073,583.106869L425.716829,584.250957L429.313671,584.859524L431.605137,585.246598L431.705013,577.229365L436.386252,576.910144L442.337696,576.501488L441.303131,572.577271L440.535572,569.664052L440.242812,568.552503L446.142292,559.856166L450.564355,560.491886L452.201711,567.414992L452.379234,568.165094L452.675095,569.414991L460.795326,569.356102L465.943647,569.315750L473.524394,569.252077L472.956043,565.380847L485.436386,557.158542L485.854442,557.769293L487.869759,560.712431L493.199685,558.536052L495.288175,555.527804L500.742022,547.662878L510.022326,542.077794L508.674084,540.423976L506.825718,538.155671L506.282348,537.488627L508.682427,535.525110L516.089719,529.457736L516.089721,529.457735L516.089745,529.457740L525.762406,531.466575L525.762423,531.466579L533.313351,528.344806L535.780431,527.323385L526.632862,510.789646L526.632863,510.789645L531.520369,504.930979L534.241659,501.665439L532.646504,498.833975L529.203126,492.716499L539.165136,489.383210L539.866990,489.953712L542.336489,491.960264L547.687575,487.920346L553.695546,483.378081L553.695547,483.378081L557.177307,485.444792L559.448655,486.792061L563.016680,483.917020L564.049150,472.977260L564.380929,469.456501L564.955043,463.357978L564.955042,463.357977L562.056027,460.677242L557.793409,456.732037L555.323303,457.222951L552.013298,457.879881L547.561365,452.268342L564.292494,441.989486L567.108985,444.344888L572.058953,448.480544L573.701834,446.410399L579.613111,438.953493L578.923241,435.811330L577.955832,431.402413L577.445744,429.076471L578.013234,427.447295L579.212686,424.002149L579.450137,423.319852L581.868418,416.365933L577.422365,411.558234L575.523574,409.503284L580.184985,403.480927L589.072620,391.975160L584.566441,389.111195L584.719404,390.287350L585.217283,394.114249L580.396818,388.609297L589.682858,386.013536L594.284420,384.723997L596.969679,383.970487L596.969680,383.970486L594.840686,380.658954L592.545545,377.086512L597.973380,372.184399L598.188548,371.989930L601.350058,369.131305L603.461887,367.220495L598.353026,361.985889L599.049106,358.702314L599.129985,358.320653L599.391439,357.086662L600.223146,353.159222L593.548810,348.065811Z " data-nuts-id="HU331" data-shape-area="9.92298993580e-001" data-shape-leng="6.03313457449e+000" data-stat-levl-="3"/><path d="M825.879004,339.531081L824.384669,340.454159L820.153779,343.065735L816.374457,345.396175L812.648288,344.268509L812.287250,349.485047L812.022749,353.300918L809.783671,354.231365L800.521343,358.073933L793.492832,351.832348L789.131099,350.670276L782.509424,348.902495L771.536316,345.963442L768.339132,345.104855L764.826869,344.160485L763.504268,338.573165L762.638967,334.915410L762.282301,333.407203L762.282301,333.407201L768.225249,329.435766L771.545105,327.214624L771.669341,322.984994L771.818704,317.887601L771.955157,313.218980L764.003957,313.514520L761.522744,313.605606L748.643558,308.992647L745.567866,307.888358L743.902622,307.290045L742.011407,306.610176L736.895664,304.769180L732.030304,301.192789L725.805157,296.610778L724.139730,297.343345L722.208703,298.192313L722.208703,298.192315L721.272023,300.688927L720.463320,302.843381L719.248941,306.076762L719.248941,306.076763L718.504253,306.561008L715.717727,308.372176L704.843517,315.427905L704.843518,315.427907L706.684739,318.874884L708.012932,321.360071L706.102906,325.698655L704.535371,329.256330L701.141799,336.949307L699.949428,339.649386L692.309522,340.243161L692.288127,340.107327L691.719556,336.496625L691.237264,336.772164L687.491406,338.911053L684.598013,340.561774L685.150907,343.801861L685.578067,346.304167L685.965707,348.574243L687.080422,355.098398L687.920926,360.013947L687.920901,360.013988L682.953619,367.720484L675.283268,370.165131L672.781615,368.423144L670.971198,367.161833L670.077502,366.538995L668.594888,366.576756L665.286017,366.660336L662.097343,366.739969L661.051590,367.503747L658.458160,369.397025L658.013150,369.721771L658.013019,369.721867L653.926574,372.702248L652.328602,371.964277L648.251371,370.079914L645.795949,373.172910L640.593767,379.718400L643.277226,391.834818L643.277226,391.834821L647.587831,389.896835L647.587832,389.896834L652.277751,395.025346L655.192576,398.209612L655.192579,398.209612L660.107391,397.793662L664.047769,397.458625L664.047771,397.458625L669.057711,400.950075L669.057710,400.950077L668.253851,407.320296L667.460013,413.602047L666.863532,418.316192L665.552860,428.657100L666.559643,436.885747L667.273227,442.713132L670.588227,447.883224L672.936581,451.542550L672.445071,454.417400L670.729671,464.436904L670.175766,467.667620L668.476637,477.564080L663.435034,481.352996L666.971856,486.933886L669.275085,487.817908L674.575638,489.850096L683.701768,489.709733L683.883088,488.943100L684.697691,485.497405L685.232531,483.233741L685.233880,483.228033L691.998318,482.350269L693.720903,486.437756L694.189733,487.549745L695.600142,490.893745L695.090240,494.438851L693.889476,502.775993L698.001565,505.801605L712.671999,502.977040L717.559641,506.513179L720.135879,508.375382L729.219818,509.895662L741.880872,512.001854L747.380758,507.533094L748.532131,501.577346L749.033659,498.980608L750.989317,498.096415L752.122400,497.583907L757.610926,495.099093L760.890167,489.342087L761.197911,486.184988L761.779412,480.212093L762.141029,476.492865L762.141029,476.492863L763.974085,474.965794L764.937316,474.163062L775.611874,475.361769L778.584564,465.686069L775.467903,461.858792L774.151264,460.241002L769.695470,454.761845L775.645879,442.363639L775.861158,441.914469L778.266036,436.893838L778.266036,436.893836L777.437336,436.433544L775.349209,435.273298L775.280112,435.234894L777.063694,429.347282L779.353764,426.231615L781.662298,426.572923L783.139653,426.791089L791.373471,428.003352L792.736502,426.017761L795.897675,421.409223L797.922878,417.948406L797.434061,417.248369L793.927094,412.223187L795.654868,412.450464L798.115029,412.773614L799.040072,412.894980L802.617042,413.363549L803.546466,413.485111L808.571487,405.902580L803.872203,399.771987L802.528669,398.017805L801.422094,396.572528L801.422095,396.572528L802.753551,394.222938L803.661306,392.620343L806.940692,386.826000L806.800932,385.010701L806.458483,380.562327L812.164665,377.164638L812.853855,376.753928L818.612092,373.319568L818.371827,370.471875L817.901377,364.895069L817.666063,362.105189L817.534651,360.547034L818.301006,360.363935L821.573640,359.581377L823.385682,359.147623L824.159568,357.485458L827.726244,349.817079L830.220698,344.446326L826.304309,340.012811L825.879004,339.531081Z " data-nuts-id="HU332" data-shape-area="6.63141695466e-001" data-shape-leng="4.55957977472e+000" data-stat-levl-="3"/><path d="M698.001565,505.801605L693.889476,502.775993L695.090240,494.438851L695.600142,490.893745L694.189733,487.549745L693.720903,486.437756L691.998318,482.350269L685.233880,483.228033L685.232531,483.233741L684.697691,485.497405L683.883088,488.943100L683.701768,489.709733L674.575638,489.850096L669.275085,487.817908L666.971856,486.933886L663.435034,481.352996L668.476637,477.564080L670.175766,467.667620L670.729671,464.436904L672.445071,454.417400L672.936581,451.542550L670.588227,447.883224L667.273227,442.713132L666.559643,436.885747L665.552860,428.657100L666.863532,418.316192L667.460013,413.602047L668.253851,407.320296L669.057710,400.950077L669.057711,400.950075L664.047771,397.458625L664.047769,397.458625L660.107391,397.793662L655.192579,398.209612L655.192576,398.209612L652.277751,395.025346L647.587832,389.896834L647.587831,389.896835L643.277226,391.834821L642.837468,392.337521L640.335671,395.196210L637.998526,395.473541L632.595900,396.112739L631.684932,397.899710L630.177004,400.856235L623.453902,400.004407L614.414974,393.343564L612.484137,395.645237L611.283460,397.075869L611.083033,397.314634L606.240620,403.079126L606.240619,403.079127L606.240618,403.079127L600.303895,398.755439L597.517002,396.723609L596.955758,397.079621L595.271692,398.147566L593.690113,399.150110L591.567223,395.852720L589.072620,391.975160L580.184985,403.480927L575.523574,409.503284L577.422365,411.558234L581.868418,416.365933L579.450137,423.319852L579.212686,424.002149L578.013234,427.447295L577.445744,429.076471L577.955832,431.402413L578.923241,435.811330L579.613111,438.953493L573.701834,446.410399L572.058953,448.480544L567.108985,444.344888L564.292494,441.989486L547.561365,452.268342L552.013298,457.879881L555.323303,457.222951L557.793409,456.732037L562.056027,460.677242L564.955042,463.357977L564.955043,463.357978L564.380929,469.456501L564.049150,472.977260L563.016680,483.917020L559.448655,486.792061L557.177307,485.444792L553.695547,483.378081L553.695546,483.378081L547.687575,487.920346L542.336489,491.960264L539.866990,489.953712L539.165136,489.383210L529.203126,492.716499L532.646504,498.833975L534.241659,501.665439L531.520369,504.930979L526.632863,510.789645L526.632862,510.789646L535.780431,527.323385L553.962229,540.280455L561.492122,535.778934L564.797143,533.800426L567.720947,532.048754L571.878461,529.555733L583.767342,529.302379L585.932786,534.588441L585.981907,534.708293L586.440424,535.826922L588.418805,536.083344L591.086668,536.428569L591.666735,535.529999L595.845428,529.051718L595.845430,529.051716L595.845578,529.051882L595.845907,529.052251L597.122261,530.482828L602.195080,536.163837L606.875146,533.687775L608.877976,532.627226L611.445847,534.810027L613.291682,536.378219L614.446402,537.358890L616.475279,539.081286L617.504953,539.955092L620.044907,542.109615L621.430537,539.783873L622.719065,538.875104L635.086737,530.137564L642.942458,532.926818L642.943257,532.927101L642.943597,532.927222L650.801293,535.710445L657.003135,525.345765L669.298479,533.504080L673.828316,536.503635L676.536269,538.295207L677.277254,538.785236L679.668126,534.824560L680.348787,533.696369L683.924272,532.418921L687.358306,531.190672L687.853363,531.013497L687.853364,531.013497L691.032723,520.884241L691.033829,520.884354L691.901330,520.972462L696.239005,521.412005L694.669111,514.095036L694.090370,511.395733L698.001565,505.801605Z " data-nuts-id="HU333" data-shape-area="4.98487639134e-001" data-shape-leng="3.93448228544e+000" data-stat-levl-="3"/></g></svg>