<?xml version="1.0" encoding="utf-8"?><!DOCTYPE svg  PUBLIC '-//W3C//DTD SVG 1.1//EN'  'http://www.w3.org/Graphics/SVG/1.1/DTD/svg11.dtd'><svg enable_background="new 0 0 1000 2047" height="2047px" pretty_print="False" style="stroke-linejoin: round; stroke:#000; fill: none;" version="1.1" viewBox="0 0 1000 2047" width="1000px" xmlns="http://www.w3.org/2000/svg" xmlns:xlink="http://www.w3.org/1999/xlink"><defs><style type="text/css"><![CDATA[path { fill-rule: evenodd; }]]></style></defs><metadata><views><view h="2047.35561635" padding="0" w="1000"><proj dist="1.6" id="satellite" lat0="47.157200121" lon0="9.55209525967" tilt="0" up="0"/><bbox h="7.96" w="3.89" x="998.12" y="995.87"/></view></views></metadata><g class="" id="nutsregions"><path d="M0.244337,2045.355616L318.592701,2013.562197L484.714781,1996.888784L782.520534,1966.856267L833.343701,1961.712712L833.343835,1961.712544L864.135073,1923.383532L999.755663,1754.469205L973.922899,1551.886449L955.910730,1410.536421L918.018845,1112.919753L770.669075,1010.282177L754.619885,999.097790L657.556518,931.434280L691.174044,673.925551L698.776456,615.653773L540.013334,340.511622L466.122742,212.335066L343.814993,0.000103L343.814936,0.000000L339.067543,14.845094L236.981391,333.842885L225.924855,368.366407L143.998925,624.019493L106.081811,742.247958L65.790282,867.815405L150.547411,1152.653592L153.252011,1161.737132L242.340579,1460.750734L282.142249,1594.217602L156.577796,1795.286692L23.824993,2007.655540L0.244337,2045.355616Z " data-nuts-id="LI000" data-shape-area="1.94084586624e-002" data-shape-leng="6.55267126559e-001" data-stat-levl-="3"/></g></svg>