<?xml version="1.0" encoding="utf-8"?><!DOCTYPE svg  PUBLIC '-//W3C//DTD SVG 1.1//EN'  'http://www.w3.org/Graphics/SVG/1.1/DTD/svg11.dtd'><svg enable_background="new 0 0 1000 764" height="764px" pretty_print="False" style="stroke-linejoin: round; stroke:#000; fill: none;" version="1.1" viewBox="0 0 1000 764" width="1000px" xmlns="http://www.w3.org/2000/svg" xmlns:xlink="http://www.w3.org/1999/xlink"><defs><style type="text/css"><![CDATA[path { fill-rule: evenodd; }]]></style></defs><metadata><views><view h="764.637890191" padding="0" w="1000"><proj dist="1.6" id="satellite" lat0="54.2303761875" lon0="24.075110856" tilt="0" up="0"/><bbox h="92.72" w="121.42" x="935.52" y="919.39"/></view></views></metadata><g class="" id="nutsregions"><path d="M579.893987,762.637890L594.238399,760.240503L609.538942,742.060884L616.495611,736.832749L617.033900,736.427860L618.501883,735.323422L625.120158,730.339516L627.769024,728.342650L635.462692,727.053718L640.419517,726.220608L638.745337,738.746557L638.213154,742.722341L647.745272,741.505420L656.871739,732.509558L662.047586,727.398861L663.771893,724.222828L665.495316,721.046497L662.788207,713.355683L656.947735,696.730111L660.286671,694.063591L663.310375,691.647030L661.854287,689.880212L660.214580,687.889793L664.192373,686.612646L660.782558,675.227860L656.576247,674.669953L652.244707,674.093885L650.010517,664.352535L650.010520,664.352533L655.766684,661.107536L659.770083,658.848043L667.441757,654.512219L668.755048,651.280772L669.531787,649.368650L670.760422,646.342712L671.997610,643.294010L680.832414,642.828389L680.832414,642.828385L678.847383,632.948501L677.230332,624.889353L676.865156,623.068026L678.969472,618.889841L680.200728,618.639635L681.734879,618.327690L691.508759,616.335469L692.366093,612.149376L693.647679,605.885778L693.991391,604.204699L695.091937,598.818478L686.559703,601.558694L678.162243,604.248648L657.715629,610.769409L643.499233,615.279154L640.870714,609.236430L643.013761,602.961749L640.924307,601.715259L634.113737,597.648131L634.113736,597.648132L632.271301,598.152915L626.465073,599.741610L625.219239,600.082084L623.040364,602.619082L619.516525,606.719040L617.825884,608.684744L615.191118,608.259071L614.767526,608.190581L594.150258,604.838449L590.289237,604.206655L594.235681,596.693481L590.495154,590.126007L590.326037,585.371725L590.163676,580.804683L589.863386,572.350927L587.509555,572.847467L578.886067,574.662400L573.336724,575.826861L565.410229,573.582211L564.073574,569.729344L562.403675,564.912345L562.403674,564.912345L553.721444,566.129362L553.072084,568.594254L552.955483,569.036747L552.379221,571.223135L547.472481,571.425636L543.455981,571.090755L541.179303,570.900344L535.229776,570.400740L529.315042,566.108864L519.995676,569.070307L519.283665,570.902242L516.682581,577.589590L516.682579,577.589595L516.682581,577.589600L517.007204,578.222113L517.191086,578.580365L519.312143,582.711055L512.912639,584.357742L509.995072,585.107227L500.782299,587.468735L501.834712,591.415847L502.191993,592.755234L493.599843,595.915194L494.643649,593.954517L495.423867,592.488498L495.619498,592.120847L493.494985,592.411797L482.124188,593.962559L478.783533,594.416094L475.506027,591.681892L471.944329,591.188341L463.138460,589.963503L456.151451,578.328425L450.841009,586.119946L445.258206,588.015605L435.586501,591.292306L432.986716,592.171504L433.056979,599.909994L433.127463,607.648562L421.484035,613.978583L420.919142,614.285248L420.954095,614.981190L421.125724,618.396898L421.308761,622.036942L416.906800,622.632391L407.484920,623.901408L406.431268,627.977096L403.711818,638.484304L398.076084,642.329028L398.779838,648.888809L398.779854,648.888953L399.484471,655.448567L399.484471,655.448569L405.099290,659.722559L410.316342,663.688786L412.487970,668.256988L413.463500,670.307835L417.252143,678.265251L421.395801,678.716399L423.290974,678.922264L425.747405,682.475702L426.059124,682.926445L427.928717,685.628994L427.928717,685.628995L433.029037,703.988549L433.459200,705.534293L435.209882,711.820845L434.874332,716.557671L434.475301,722.186799L433.053177,723.972049L431.094350,726.429948L429.991268,727.813516L428.813188,729.290710L426.680147,731.964162L431.553457,742.416585L432.499870,744.444155L441.685506,748.215074L443.890585,749.118950L447.105416,750.435786L448.659242,754.929867L453.597164,752.453081L456.205061,751.143806L457.914843,751.414290L461.634428,752.001863L476.356535,754.315934L478.167035,760.006429L478.787408,761.955003L485.611214,758.680898L484.662447,756.772200L483.381369,754.193908L482.119785,751.653659L488.928556,745.629853L494.870316,747.671693L494.934228,747.693636L497.807181,748.679619L501.641147,742.457837L502.595250,740.908365L508.673618,744.149174L511.061247,745.420905L512.623548,749.232010L513.794678,752.087210L514.813276,754.569374L535.964656,749.605379L547.903575,743.552093L553.286489,740.817126L560.288392,746.572351L563.119057,748.896384L579.893987,762.637890Z " data-nuts-id="LT001" data-shape-area="7.45104744398e-001" data-shape-leng="4.99279386763e+000" data-stat-levl-="3"/><path d="M497.713709,266.141933L497.713708,266.141934L491.167243,269.484723L486.606286,271.810502L484.359692,272.955160L472.982453,278.742309L464.879421,282.854191L464.879419,282.854192L464.283845,284.095479L463.702300,285.307258L460.113591,292.779223L460.113589,292.779225L449.702636,291.869083L445.853608,291.530324L445.590604,287.940517L445.317469,284.209754L445.053010,280.594930L444.984471,279.657659L440.061177,276.546826L437.294633,276.784936L430.111901,277.400183L429.277049,282.480021L428.507677,287.157919L423.097762,282.656897L418.562480,278.879082L417.134646,277.688872L408.464301,270.452732L405.259394,267.774161L397.945471,271.917627L392.808390,274.823584L389.505073,269.055307L389.483549,269.017699L386.126878,263.149392L377.108205,264.838207L375.031990,265.225990L370.930707,265.990897L369.557984,262.262192L365.354438,266.791926L361.991395,270.412508L362.845393,281.719505L362.103874,281.930517L360.022484,282.522532L335.320208,289.517362L328.655546,291.394685L323.396216,292.873189L320.582743,289.490921L323.742095,280.044899L321.640379,280.179715L321.111001,280.213615L311.752192,280.809128L307.798888,277.363944L299.191296,285.370842L294.069121,290.127812L294.491609,292.394047L295.232883,296.367780L296.148801,301.273375L297.190762,306.848222L301.230652,305.433500L302.501993,310.774208L303.489180,314.917417L307.559530,316.882404L309.665899,317.898478L315.423137,320.672925L316.867750,321.368463L315.962969,323.782070L314.270775,328.293633L312.704028,332.467775L321.466944,334.271958L321.466946,334.271961L326.505203,341.740556L331.462197,340.700463L345.055379,337.837125L343.621552,345.781410L346.242893,346.950110L352.119480,349.567256L347.428225,356.029748L350.109946,356.323255L359.071395,357.299707L365.421557,355.512690L372.800897,353.431270L375.994653,352.528845L378.683980,351.768203L378.683981,351.768203L378.828666,359.660635L378.884054,362.676014L398.559238,361.593124L399.189692,361.557901L400.941519,361.459856L403.659944,361.307215L408.710682,361.022008L409.859954,364.126565L411.961877,369.799939L417.011949,370.994214L417.295233,371.061138L433.692357,374.922470L433.692357,374.922472L429.588403,392.073903L429.532424,392.307525L429.361027,393.022787L429.323253,393.180409L427.964581,398.847271L421.080464,406.828014L417.783997,410.644592L422.399086,412.593144L439.264780,419.693965L447.127469,422.993559L445.597728,432.632321L440.107490,431.940016L437.384611,435.571750L436.150307,437.217143L433.447802,440.817770L429.697506,440.342543L427.733794,440.093235L424.951975,439.739508L422.406388,439.415250L416.663920,445.303854L414.199114,447.828845L418.033563,449.513792L428.098290,453.928540L428.617039,459.812421L429.182566,466.219323L434.812395,464.949206L439.392068,463.913915L445.693093,471.265489L453.621958,480.498939L450.562591,485.424069L450.562454,485.424289L450.562466,485.424301L455.020808,489.902333L455.322611,490.205290L455.562563,490.446144L456.371073,491.257586L456.054427,492.964585L455.927055,493.651102L455.734080,494.691067L454.404931,501.849386L456.313428,506.891642L458.361901,512.298623L459.935149,516.447669L459.056691,516.944862L457.823387,517.642718L454.752311,519.379585L461.726238,534.761465L461.528238,540.704772L453.225201,543.707140L454.147735,545.847405L454.584659,546.860771L455.205259,548.299815L456.611022,548.124885L458.116177,547.937403L461.845573,547.472054L465.850625,554.617037L462.631615,555.970147L462.515355,556.018995L458.880269,557.545588L463.267936,564.386731L464.707082,566.628582L466.061628,568.737734L466.924513,570.080863L469.936328,569.054189L470.949439,568.708634L472.121009,568.308904L474.648881,567.445945L477.897848,573.441213L482.217195,581.401119L480.416063,584.162287L478.149621,587.634665L475.506027,591.681892L478.783533,594.416094L482.124188,593.962559L493.494985,592.411797L495.619498,592.120847L495.423867,592.488498L494.643649,593.954517L493.599843,595.915194L502.191993,592.755234L501.834712,591.415847L500.782299,587.468735L509.995072,585.107227L512.912639,584.357742L519.312143,582.711055L517.191086,578.580365L517.007204,578.222113L516.682581,577.589600L516.682579,577.589595L516.682581,577.589590L519.283665,570.902242L519.995676,569.070307L529.315042,566.108864L535.229776,570.400740L541.179303,570.900344L543.455981,571.090755L547.472481,571.425636L552.379221,571.223135L552.955483,569.036747L553.072084,568.594254L553.721444,566.129362L562.403674,564.912345L562.403675,564.912345L564.073574,569.729344L565.410229,573.582211L573.336724,575.826861L578.886067,574.662400L587.509555,572.847467L589.863386,572.350927L591.434488,553.668610L591.434488,553.668606L592.915227,553.192055L593.487866,553.007704L602.553091,550.085012L600.559237,539.630143L599.303895,533.038821L598.249417,527.496844L600.113405,523.733650L602.211343,519.494968L605.026510,513.801910L608.737959,512.283962L613.714387,510.246296L614.612996,509.878061L614.936732,508.879882L618.377126,498.261069L618.945301,493.849298L615.498440,493.513625L609.890619,492.965405L609.424846,492.919754L609.572518,492.424384L611.308840,486.596579L619.999144,489.392092L622.527572,486.216159L623.973953,484.398383L624.798778,483.361440L629.132903,484.469358L631.069490,484.963843L634.361976,485.803751L635.307204,486.044693L640.292478,487.314103L649.175491,485.271447L648.116905,475.146866L647.787599,471.994395L647.507218,469.309196L649.551007,469.219938L650.275365,469.188222L654.733744,468.992067L654.794917,468.989364L657.413385,461.126475L652.809844,457.785996L648.656195,454.768944L645.868021,452.742106L643.798546,452.996710L640.129201,453.447259L636.472131,453.895178L626.159834,445.266683L621.017771,440.956466L614.199007,435.232811L616.105518,430.499340L618.586438,424.333590L626.793065,417.837037L627.854090,416.996191L624.158334,414.094471L619.417725,410.368748L618.829777,407.140227L618.676574,406.298698L618.545142,405.576660L617.410443,399.339687L614.273527,399.740332L614.088201,399.763976L613.841212,399.795482L613.034171,399.898394L613.034161,399.898381L606.547627,390.817264L606.547625,390.817261L605.248334,387.149905L604.779931,385.827237L603.607654,382.515669L603.115160,381.123863L600.273992,373.088154L604.379902,366.354275L592.377194,363.729797L588.267566,362.828243L588.267511,362.828231L588.267504,362.828230L590.952734,350.927723L589.149228,348.982814L585.342319,344.874516L584.800466,344.289444L583.994698,334.588252L583.994700,334.588248L591.228896,316.182907L586.207918,315.555493L585.619402,312.590866L584.227203,305.572008L583.701712,302.920626L576.315852,300.882166L572.232429,299.752959L569.389351,302.171465L569.346786,302.207661L565.581152,299.770534L559.136209,295.594381L552.265257,291.135266L552.265228,291.135247L551.190160,300.198719L544.858800,300.304016L538.919157,300.399829L533.852791,300.479283L524.805446,300.615966L527.580230,290.988063L518.809095,279.578802L518.809094,279.578801L516.628199,280.127580L513.423561,280.933169L509.989847,281.795295L509.360732,281.953134L508.876706,280.378123L506.159982,271.529834L504.112282,264.851387L502.321207,265.212998L497.713709,266.141933Z " data-nuts-id="LT002" data-shape-area="1.13437878770e+000" data-shape-leng="7.38811015712e+000" data-stat-levl-="3"/><path d="M184.732629,15.051770L166.793965,21.531227L164.700209,20.377083L161.084296,18.382473L158.018889,21.092594L157.559253,21.498790L156.320041,22.593705L155.916513,22.950176L150.735445,27.524078L142.221101,35.028608L126.762462,31.718704L123.908365,31.105243L123.444234,31.005413L115.214933,33.371577L110.415820,40.058753L109.346480,39.903162L107.226952,39.594474L105.002658,39.270114L102.449038,43.311182L98.706689,49.227970L96.414059,52.849519L83.535571,57.984009L80.251963,59.290291L75.683965,61.105603L75.683946,61.105610L70.839764,67.797737L66.850110,73.302804L65.786051,74.770033L58.664156,77.182697L58.716579,82.331827L58.723745,83.033028L58.806945,91.126393L54.220783,99.711877L52.814768,102.341502L52.814569,102.341874L46.237160,99.328327L29.820822,103.780571L30.100371,115.392127L30.338857,125.225783L29.534282,128.862541L25.234099,148.273910L26.392141,167.109690L27.907321,191.558638L28.032855,193.574466L28.710830,204.435936L28.710831,204.435937L35.078250,211.230172L38.333893,225.810890L40.156233,233.951593L43.547924,249.063421L44.511465,253.347225L47.156595,265.086202L47.932655,266.765598L52.870911,277.438173L52.870913,277.438177L52.870913,277.438179L52.870877,277.439327L52.175125,299.722855L49.694168,304.614912L41.314720,321.109031L50.166997,316.337731L50.851997,315.968107L53.222916,314.688303L54.984210,316.969231L56.000377,321.428711L58.445528,332.141464L59.149984,335.223176L56.669435,337.572337L54.581566,339.548572L53.384937,340.680790L53.135491,340.916770L54.389030,350.430669L60.089414,346.374698L62.183345,344.883504L63.098423,344.231610L63.101282,344.229573L70.559244,338.911564L72.515852,337.514895L73.676801,336.685894L78.186672,344.592810L78.262492,344.725628L80.464367,348.581145L81.426473,350.264821L81.457399,350.318932L89.264681,363.959333L89.349603,364.107486L90.738244,366.529450L90.785626,366.612068L92.331375,369.306546L97.182157,368.278920L97.296282,368.254718L104.877939,366.644309L116.915461,371.895872L117.633869,372.208766L120.072209,370.084723L127.984565,363.184084L132.637003,359.120689L137.058207,358.752385L137.800919,358.690356L138.336304,358.645614L142.243499,358.318373L154.694099,366.629650L156.582351,357.330482L156.582350,357.330480L152.453437,346.595696L154.191718,343.621861L156.577878,339.537081L157.958942,340.193990L160.529880,341.416255L178.489195,322.267814L178.489196,322.267811L183.332014,310.576428L182.357415,308.222793L181.212818,305.457196L179.496308,301.306853L171.127203,298.891781L165.955048,297.395888L157.734968,300.618519L156.197599,287.106989L155.113834,277.554966L155.113834,277.554964L152.225146,278.370580L150.629331,272.321345L148.230502,263.213842L153.509397,257.333096L160.768026,249.234399L154.920308,243.471336L153.814769,242.380826L149.412968,238.035777L147.949630,236.590212L144.867847,233.544073L147.736075,222.607471L143.778190,218.112105L143.264966,217.528826L140.321343,214.181803L140.321342,214.181802L140.321347,214.181781L140.959526,211.254444L142.726188,203.145037L139.158830,200.149657L137.880885,200.929832L135.417635,202.432977L134.316670,203.104540L132.465884,202.144127L126.634950,199.115439L125.006833,201.410963L124.056852,202.749894L119.646202,200.881185L120.199265,192.822433L120.287259,191.540123L115.632015,185.420977L115.632014,185.420978L107.807017,187.118178L107.328724,187.221740L101.282889,184.107714L106.499494,171.928101L109.358774,169.704627L111.239842,168.241053L114.549686,165.664290L118.098635,162.899218L120.152998,161.297591L121.038477,160.607020L120.333291,160.008639L115.245840,155.688605L112.841974,153.645454L116.116212,152.463793L117.560874,138.058318L117.830449,135.368705L117.100477,135.064084L115.058898,134.211803L114.148838,133.831737L113.171100,133.423303L115.872816,127.069461L124.459524,127.002888L127.110415,122.789964L130.972335,116.646559L132.200462,114.691440L133.104630,113.251599L137.706938,105.916732L143.638534,96.448667L153.123121,98.762227L156.996868,99.704752L157.094726,95.729863L157.100199,95.507657L157.239876,89.840074L160.300431,91.428798L161.743104,92.177265L162.480413,92.559680L163.412690,93.043118L166.836739,94.817714L169.782780,96.343357L173.425773,94.346361L175.609155,86.866536L176.944315,82.288541L176.969364,82.202623L177.603531,80.027098L178.425648,77.205780L180.506271,70.060370L187.287546,71.201656L188.765289,71.449829L189.685218,66.734795L188.182656,63.358526L187.636568,62.130880L186.182270,58.859997L184.392505,54.831582L182.111041,49.691595L183.450450,41.832929L184.468023,35.857577L184.468024,35.857571L176.463914,34.540681L178.089800,25.047541L180.341410,25.409360L183.212856,25.870144L184.732629,15.051770Z M5.367375,338.794236L11.446064,328.241220L15.239646,325.875893L18.947775,323.561871L18.853958,315.095497L18.834400,313.319115L22.813132,307.017285L28.999195,297.205244L27.382215,294.386668L27.382187,294.386619L25.765954,291.567640L25.765956,291.567631L31.025796,269.685140L33.737019,258.383073L33.878042,257.794779L33.878043,257.794774L33.878044,257.794768L35.545905,233.215803L36.312905,221.914596L33.262204,214.544335L30.215944,207.173346L28.985013,258.855399L24.766172,278.397526L22.843686,287.288331L0.654761,337.714560L0.654761,337.714562L5.367359,338.794264L5.367375,338.794236Z " data-nuts-id="LT003" data-shape-area="6.91046626085e-001" data-shape-leng="6.24622526430e+000" data-stat-levl-="3"/><path d="M417.783997,410.644592L403.985225,412.543776L398.632115,411.200100L396.101252,410.563915L390.042294,409.038477L387.295772,408.345885L384.354263,407.603352L375.525384,405.369873L360.600359,401.577888L356.552439,400.545895L338.103837,406.482601L333.041482,405.821239L327.139652,405.047479L323.833683,404.612766L319.058181,406.099234L311.415484,408.473570L307.742859,409.612521L307.037022,409.831264L303.990540,410.774837L287.134142,415.979459L283.497799,413.663535L282.000110,412.709104L276.869088,409.436706L277.271258,412.663466L277.667460,415.840174L277.671492,415.872494L277.724308,416.295802L278.092205,419.243340L278.097397,419.284930L278.717443,424.248424L278.834798,425.187262L278.990667,426.433927L282.897507,431.754027L284.083237,433.367468L284.181047,433.500534L285.483791,435.272496L285.608394,435.441943L289.803400,434.600070L290.000968,434.560383L291.379057,434.283460L292.360296,435.179457L294.442819,437.080354L296.179804,438.665110L296.269353,438.746792L297.082997,439.488880L299.403205,441.604227L299.635916,441.816324L299.635918,441.816326L300.192411,443.413209L301.446945,447.011380L302.247867,449.307245L303.083248,451.700821L303.599923,453.180680L303.664390,453.365297L304.046345,454.458988L304.141750,454.732137L304.333131,455.280020L307.386991,457.341047L310.623725,459.523883L311.641968,460.210239L312.232436,459.789465L312.320471,459.726725L315.554015,457.421412L315.954053,457.923961L317.042283,459.290771L317.119257,459.387434L318.140998,460.670328L318.741449,461.424080L320.068878,463.089968L320.965697,464.215102L321.416112,464.780079L321.022522,465.755967L320.965808,465.896573L318.795607,471.274548L318.790876,471.286267L318.612178,471.728885L319.955532,472.648709L319.968071,472.657293L322.692700,474.522012L323.246122,474.900626L323.641406,475.171022L323.674045,475.308737L326.363946,486.646064L326.456608,487.036177L326.456481,487.036409L326.453149,487.042502L326.048520,487.782420L324.306948,490.965994L324.159058,491.236252L323.791576,491.907740L323.712166,492.052833L322.426927,494.400614L321.040124,496.932815L320.272498,498.333952L319.800970,499.194450L319.719206,499.343650L319.568274,499.619052L318.837729,500.951871L318.711740,500.951882L316.305281,500.951837L315.069534,500.951631L313.451164,500.951174L309.564937,504.461122L309.495952,504.523399L307.963000,505.907028L306.496791,507.229953L302.304520,511.010047L302.295989,511.017736L300.990503,512.194113L300.370464,512.752706L300.370462,512.752708L300.370458,512.752723L298.040545,522.762103L297.902841,523.353225L297.786770,523.851448L297.657312,524.407088L297.601019,524.648688L297.658411,524.751503L298.456102,526.180326L298.843749,526.874531L299.966007,528.883754L300.031910,529.001717L300.178333,529.263798L301.247495,531.177071L302.004130,532.530634L302.853953,534.050470L303.220857,534.706506L301.717946,541.021962L301.225767,541.593362L301.062224,541.783213L300.451100,542.492575L300.342331,542.618818L296.871324,546.645609L294.740221,549.116206L292.900938,551.247430L292.135895,552.133615L290.180504,554.397862L292.245974,557.165424L293.122682,558.339642L295.198929,561.119272L293.562217,563.611383L293.298322,564.013088L292.860211,564.679919L291.475379,566.787165L290.654839,568.035351L289.285604,570.117543L289.280975,570.124581L289.311660,570.354742L289.577980,572.351957L289.821845,574.180049L289.859460,574.461962L292.477569,594.043998L298.464095,597.297115L298.464096,597.297117L307.695191,621.243432L307.695192,621.243434L312.935922,614.781682L318.910888,607.403948L325.627022,609.385963L341.194677,613.963600L344.367916,615.425575L345.751367,616.062592L345.339605,616.932116L343.875730,620.022350L342.814167,622.262281L345.510753,623.713854L347.456044,624.760420L354.793618,628.703643L351.007694,636.105927L359.653378,641.466429L361.599566,640.562365L361.840737,640.450303L364.616737,639.159930L369.578196,636.851467L369.578197,636.851468L371.340184,638.797978L376.268496,644.237717L379.079790,647.337661L384.224704,653.005037L388.307783,653.660804L399.484465,655.448568L399.484471,655.448569L399.484471,655.448567L398.779854,648.888953L398.779838,648.888809L398.076084,642.329028L403.711818,638.484304L406.431268,627.977096L407.484920,623.901408L416.906800,622.632391L421.308761,622.036942L421.125724,618.396898L420.954095,614.981190L420.919142,614.285248L421.484035,613.978583L433.127463,607.648562L433.056979,599.909994L432.986716,592.171504L435.586501,591.292306L445.258206,588.015605L450.841009,586.119946L456.151451,578.328425L463.138460,589.963503L471.944329,591.188341L475.506027,591.681892L478.149621,587.634665L480.416063,584.162287L482.217195,581.401119L477.897848,573.441213L474.648881,567.445945L472.121009,568.308904L470.949439,568.708634L469.936328,569.054189L466.924513,570.080863L466.061628,568.737734L464.707082,566.628582L463.267936,564.386731L458.880269,557.545588L462.515355,556.018995L462.631615,555.970147L465.850625,554.617037L461.845573,547.472054L458.116177,547.937403L456.611022,548.124885L455.205259,548.299815L454.584659,546.860771L454.147735,545.847405L453.225201,543.707140L461.528238,540.704772L461.726238,534.761465L454.752311,519.379585L457.823387,517.642718L459.056691,516.944862L459.935149,516.447669L458.361901,512.298623L456.313428,506.891642L454.404931,501.849386L455.734080,494.691067L455.927055,493.651102L456.054427,492.964585L456.371073,491.257586L455.562563,490.446144L455.322611,490.205290L455.020808,489.902333L450.562466,485.424301L450.562454,485.424289L450.562591,485.424069L453.621958,480.498939L445.693093,471.265489L439.392068,463.913915L434.812395,464.949206L429.182566,466.219323L428.617039,459.812421L428.098290,453.928540L418.033563,449.513792L414.199114,447.828845L416.663920,445.303854L422.406388,439.415250L424.951975,439.739508L427.733794,440.093235L429.697506,440.342543L433.447802,440.817770L436.150307,437.217143L437.384611,435.571750L440.107490,431.940016L445.597728,432.632321L447.127469,422.993559L439.264780,419.693965L422.399086,412.593144L417.783997,410.644592Z " data-nuts-id="LT004" data-shape-area="6.25718263325e-001" data-shape-leng="4.65412606857e+000" data-stat-levl-="3"/><path d="M662.695052,0.000000L660.112915,3.865880L660.146757,4.123904L660.676854,8.164157L660.936602,10.143013L653.476228,11.590889L650.595736,12.148606L639.855111,14.221727L636.262419,14.912903L635.383669,16.439971L634.750458,17.540057L633.844563,19.113454L632.037752,22.250103L622.317435,22.907784L622.363118,30.116730L619.248160,33.132576L614.081526,38.129605L614.238589,41.126010L614.625204,48.496754L602.046686,54.027394L593.900114,57.599658L585.880004,52.884865L573.551486,45.619685L569.118065,45.296027L565.931916,45.062422L566.676593,49.537866L562.306830,51.185795L560.139580,52.002358L551.925473,55.092705L551.075652,56.114089L549.186830,58.383378L547.911958,59.914387L543.766010,59.185925L541.386975,61.798903L539.088513,64.321842L540.814001,70.409953L540.991967,71.037507L541.749198,73.706929L545.302667,75.664778L546.672662,76.419153L545.656256,79.450203L543.832512,84.884696L546.115035,84.358217L548.913059,83.712189L547.110402,94.992893L543.575359,98.338495L539.931946,101.783605L538.775023,104.775046L536.467080,110.737810L535.754411,112.577743L530.892167,114.006018L530.053218,125.181279L520.717640,146.237450L520.717639,146.237452L522.670562,147.752199L527.959238,151.850752L534.439030,151.727725L533.583274,161.683921L532.833434,170.394042L532.738602,171.494689L520.858596,182.893294L511.736914,183.654668L515.694065,199.484404L516.585321,199.453020L518.482030,199.386013L521.112793,199.292588L521.112795,199.292591L525.642491,209.249011L526.240278,210.561598L525.087676,214.748146L524.507029,216.856057L523.404330,220.857039L529.610090,225.240624L523.771982,226.782384L520.585518,232.106560L521.094844,233.472859L521.781146,235.313382L522.606996,237.527338L524.805906,243.417939L524.805907,243.417940L514.358180,244.843566L505.806964,246.003535L505.081626,247.811345L497.713709,266.141933L502.321207,265.212998L504.112282,264.851387L506.159982,271.529834L508.876706,280.378123L509.360732,281.953134L509.989847,281.795295L513.423561,280.933169L516.628199,280.127580L518.809094,279.578801L518.809095,279.578802L527.580230,290.988063L524.805446,300.615966L533.852791,300.479283L538.919157,300.399829L544.858800,300.304016L551.190160,300.198719L552.265228,291.135247L552.265257,291.135266L559.136209,295.594381L565.581152,299.770534L569.346786,302.207661L569.389351,302.171465L572.232429,299.752959L576.315852,300.882166L583.701712,302.920626L584.227203,305.572008L585.619402,312.590866L586.207918,315.555493L591.228896,316.182907L594.670116,314.422552L597.218507,313.117966L600.924165,311.219493L611.918236,305.576894L610.386684,296.978897L610.067151,295.183588L611.678228,295.680921L612.831789,296.036866L614.173714,296.450771L620.774113,298.484056L628.508296,294.849136L625.253930,282.012133L624.876354,280.521027L629.131276,278.099630L629.342255,276.639187L629.603955,274.827097L630.910224,265.772988L632.706503,253.297616L632.706506,253.297615L633.610906,252.935316L640.469757,250.184796L636.238908,238.118242L635.640482,236.409508L634.753350,237.202076L630.764361,240.763747L628.713761,234.113374L636.624473,235.940964L640.709411,236.882482L644.929465,231.570942L642.764828,229.475674L639.703405,226.510473L639.920632,221.026801L640.111133,216.212002L644.445788,219.732139L648.485212,219.737634L652.742304,219.741985L658.664718,219.745578L660.446483,219.746100L664.381260,218.390683L671.101503,216.072108L680.764564,212.730154L681.672398,212.415692L689.708556,215.363094L697.748723,218.305265L703.505863,228.161418L722.764806,221.989070L732.847410,218.742991L736.835597,217.456211L740.248631,210.931794L747.223793,206.220465L751.958815,203.017778L758.606912,207.982539L764.686863,212.516354L770.262758,214.125638L776.776300,216.001794L782.357874,214.391181L785.188817,213.573144L791.988674,211.605093L797.100632,210.122634L800.707919,209.075015L801.358474,212.884832L801.491280,213.662345L802.009369,216.694742L808.681583,208.514853L808.997958,207.223587L811.198354,198.233520L811.924929,195.261418L811.925771,195.261666L813.405903,195.698827L813.593381,195.754184L818.170244,197.104560L824.414971,198.943794L825.890445,188.188028L826.101633,186.646425L826.718664,182.139280L826.998714,180.092147L828.324808,180.470007L838.217408,183.283562L837.881255,178.012377L837.481441,171.741108L847.476715,169.983110L851.279351,163.477803L849.704987,158.182254L849.574600,157.743497L848.399088,153.786551L853.786317,147.491713L860.499301,146.881914L860.499306,146.881913L848.203658,136.042333L848.203657,136.042332L848.203651,136.042330L846.380120,135.423553L832.727181,130.780097L828.629614,124.939873L826.577592,122.012612L822.119751,115.647546L819.904854,114.692936L817.742276,113.760345L810.595418,110.674598L802.579755,107.206909L799.604861,105.918089L799.981853,103.794649L800.506888,100.835773L801.350858,96.075663L798.248201,90.183487L796.698564,87.238287L793.147337,91.654156L793.147328,91.654156L785.017956,91.979265L778.887927,90.476570L777.287420,88.090017L775.408125,85.286329L773.855070,82.968186L772.229857,84.991704L769.471243,88.424235L768.780799,89.282927L762.697013,89.343357L762.339549,89.346813L754.818913,89.417110L754.548643,89.048383L751.967997,85.526224L747.130214,86.913875L737.216904,89.750344L728.395716,80.842559L726.156851,78.578634L726.026572,78.446859L723.498546,75.888952L719.532853,78.009517L716.406431,79.679845L713.200717,81.391204L707.106574,79.860673L699.985670,78.067934L699.985669,78.067932L695.945665,62.923960L695.579152,61.548271L693.761311,54.720610L690.856658,51.952692L687.610894,48.857403L686.685339,47.974308L685.907375,47.231879L683.950879,45.364128L679.796855,41.395569L679.144398,28.785979L678.953756,25.098634L675.924239,21.133382L672.733982,16.954119L672.009088,16.003983L668.171608,10.970900L668.171604,10.970894L669.292647,7.121917L669.598658,6.070773L670.330448,3.556233L670.330448,3.556230L667.287773,0.558051L665.115653,0.294343L662.695052,0.000000Z " data-nuts-id="LT005" data-shape-area="1.13214907663e+000" data-shape-leng="6.68377700121e+000" data-stat-levl-="3"/><path d="M543.766010,59.185925L538.744954,60.517585L537.874500,58.645568L536.652326,56.016025L536.465590,55.614143L534.819801,52.070866L526.223664,51.358378L523.775740,43.201477L521.750350,36.443562L521.750348,36.443561L516.312968,35.873606L504.306661,34.606319L496.819417,33.809917L496.416759,33.766954L488.277026,32.895546L486.113665,32.663011L483.072108,37.990815L482.438721,39.099606L479.975799,38.109370L481.133939,31.728322L481.850553,27.776574L482.343537,25.056524L479.751192,23.372490L474.142733,24.412815L470.181681,25.145899L468.131515,25.524790L456.885293,27.596654L455.094164,28.632250L450.770731,31.130148L449.112621,32.087449L443.311109,35.433938L443.311108,35.433939L436.335251,33.045804L425.899771,29.464018L424.931507,28.496045L424.373843,27.938440L420.918928,24.482118L418.222330,21.782299L404.303887,19.951937L401.542489,22.085288L400.105063,23.195241L381.476750,24.502938L382.278942,27.771142L383.212249,31.570955L383.631484,33.276912L380.721033,35.017454L374.512741,38.726206L371.664885,40.425656L367.163099,39.012768L362.566535,37.568065L358.908594,36.416876L355.908774,23.185321L354.307685,16.109319L353.460660,12.361950L353.460659,12.361950L349.063034,11.137597L343.871802,9.689920L342.922498,10.937060L340.355375,14.307952L340.028550,20.290955L332.246458,22.996801L329.616362,23.909894L327.861426,23.709423L312.023858,21.888519L308.769706,21.511759L308.769705,21.511759L308.769703,21.511761L302.414626,26.228318L300.338375,27.767742L300.338372,27.767741L293.114550,22.697161L282.996695,24.285656L281.864429,24.462873L286.559804,32.198729L286.961489,32.859938L285.713393,37.639661L284.316935,42.983446L284.294420,43.069568L283.425461,46.392565L284.681364,51.189987L286.154551,56.811569L289.477821,57.249598L291.539832,57.520913L292.802797,57.686913L294.054539,66.077610L288.570563,67.424734L288.830840,71.426564L288.964739,73.483642L289.449207,80.917243L282.306083,82.109398L277.612912,82.890270L275.422529,83.254065L274.223912,86.347313L280.915919,91.070595L282.502556,92.189349L282.342666,96.045656L282.016244,103.917491L281.966996,105.105048L287.499871,106.634288L290.925046,104.591327L302.690764,97.561080L302.690765,97.561080L306.379567,100.253416L305.249662,104.175480L304.545307,106.619181L306.791562,109.843583L308.263866,111.955788L303.546687,116.875702L301.676837,118.824325L299.333945,117.816066L296.401272,116.553115L296.166941,116.452158L296.166937,116.452159L288.639381,119.553120L287.675563,128.808315L287.322218,132.198960L286.956865,135.703491L282.049429,138.225168L285.665520,144.380669L287.524066,147.541325L293.484635,147.035975L294.252423,146.970667L293.352971,143.173306L292.819943,140.921584L296.016180,141.175613L297.888158,155.593510L298.211561,158.079837L298.692018,161.771159L299.032124,164.382422L294.131132,170.392936L293.904288,170.670947L291.808735,173.238388L288.457913,173.657824L286.456741,173.907868L278.395182,174.911736L277.341599,175.042530L280.624356,178.434017L280.688415,180.458332L280.941676,188.447180L270.968747,192.229777L264.318134,194.746458L269.672258,213.386419L271.171245,218.592795L270.633814,222.811509L266.241396,223.331869L265.294942,223.443781L263.484380,223.657660L263.003775,223.714387L260.156362,229.173735L261.998460,232.866547L267.841093,244.561039L265.713863,254.364139L270.945834,257.879211L275.342935,260.830005L278.451985,265.344904L282.600100,271.361896L284.843595,274.612928L287.732797,278.796311L289.886232,281.911906L289.886231,281.911907L289.667035,282.258149L288.623198,283.906685L285.836221,288.305645L294.069121,290.127812L299.191296,285.370842L307.798888,277.363944L311.752192,280.809128L321.111001,280.213615L321.640379,280.179715L323.742095,280.044899L320.582743,289.490921L323.396216,292.873189L328.655546,291.394685L335.320208,289.517362L360.022484,282.522532L362.103874,281.930517L362.845393,281.719505L361.991395,270.412508L365.354438,266.791926L369.557984,262.262192L370.930707,265.990897L375.031990,265.225990L377.108205,264.838207L386.126878,263.149392L389.483549,269.017699L389.505073,269.055307L392.808390,274.823584L397.945471,271.917627L405.259394,267.774161L408.464301,270.452732L417.134646,277.688872L418.562480,278.879082L423.097762,282.656897L428.507677,287.157919L429.277049,282.480021L430.111901,277.400183L437.294633,276.784936L440.061177,276.546826L444.984471,279.657659L445.053010,280.594930L445.317469,284.209754L445.590604,287.940517L445.853608,291.530324L449.702636,291.869083L460.113589,292.779225L460.113591,292.779223L463.702300,285.307258L464.283845,284.095479L464.879419,282.854192L464.879421,282.854191L472.982453,278.742309L484.359692,272.955160L486.606286,271.810502L491.167243,269.484723L497.713708,266.141934L497.713709,266.141933L505.081626,247.811345L505.806964,246.003535L514.358180,244.843566L524.805907,243.417940L524.805906,243.417939L522.606996,237.527338L521.781146,235.313382L521.094844,233.472859L520.585518,232.106560L523.771982,226.782384L529.610090,225.240624L523.404330,220.857039L524.507029,216.856057L525.087676,214.748146L526.240278,210.561598L525.642491,209.249011L521.112795,199.292591L521.112793,199.292588L518.482030,199.386013L516.585321,199.453020L515.694065,199.484404L511.736914,183.654668L520.858596,182.893294L532.738602,171.494689L532.833434,170.394042L533.583274,161.683921L534.439030,151.727725L527.959238,151.850752L522.670562,147.752199L520.717639,146.237452L520.717640,146.237450L530.053218,125.181279L530.892167,114.006018L535.754411,112.577743L536.467080,110.737810L538.775023,104.775046L539.931946,101.783605L543.575359,98.338495L547.110402,94.992893L548.913059,83.712189L546.115035,84.358217L543.832512,84.884696L545.656256,79.450203L546.672662,76.419153L545.302667,75.664778L541.749198,73.706929L540.991967,71.037507L540.814001,70.409953L539.088513,64.321842L541.386975,61.798903L543.766010,59.185925Z " data-nuts-id="LT006" data-shape-area="1.22977479923e+000" data-shape-leng="6.49820595217e+000" data-stat-levl-="3"/><path d="M260.156362,229.173735L260.156361,229.173735L254.528838,230.508266L244.231673,232.942737L243.733422,232.548670L241.068188,230.439926L238.075397,228.070404L237.487522,227.604757L236.725665,228.001662L232.261814,230.325736L228.014858,227.554425L224.279293,225.114495L215.174892,226.883816L205.810036,229.667092L198.035994,231.971187L193.420486,233.336408L192.426029,235.287724L191.793545,236.528438L188.079640,243.808517L186.353357,247.189325L181.720510,246.275505L178.701595,245.679009L176.407130,245.225114L160.768026,249.234399L153.509397,257.333096L148.230502,263.213842L150.629331,272.321345L152.225146,278.370580L155.113834,277.554964L155.113834,277.554966L156.197599,287.106989L157.734968,300.618519L165.955048,297.395888L171.127203,298.891781L179.496308,301.306853L181.212818,305.457196L182.357415,308.222793L183.332014,310.576428L178.489196,322.267811L178.489195,322.267814L160.529880,341.416255L157.958942,340.193990L156.577878,339.537081L154.191718,343.621861L152.453437,346.595696L156.582350,357.330480L156.582351,357.330482L154.694099,366.629650L142.243499,358.318373L138.336304,358.645614L137.800919,358.690356L137.058207,358.752385L132.637003,359.120689L127.984565,363.184084L120.072209,370.084723L117.633869,372.208766L128.755329,385.950719L129.259102,386.572160L140.322954,389.976499L144.076233,391.128661L145.021426,391.418595L149.117318,396.183917L150.821767,398.165357L151.797484,398.545148L158.232722,401.047455L158.583167,401.183596L160.807830,402.047526L161.707307,402.396680L167.678520,404.712350L168.727716,405.118839L170.130562,405.662158L170.769766,405.515101L181.812274,402.968817L181.840479,402.962300L181.425898,411.507228L181.399487,412.051590L187.202441,420.139579L192.552458,420.093875L196.615879,420.057603L197.301687,419.211855L197.520291,418.942239L203.074688,412.086607L203.675783,412.026202L212.507097,411.135272L212.827534,411.102824L215.512259,410.830626L216.897231,410.689972L223.565027,410.010584L223.565028,410.010584L241.286092,413.764496L255.036372,416.658000L255.036373,416.657999L258.765219,415.428001L263.290989,413.933282L263.436918,413.885053L276.869088,409.436706L282.000110,412.709104L283.497799,413.663535L287.134142,415.979459L303.990540,410.774837L307.037022,409.831264L307.742859,409.612521L311.415484,408.473570L319.058181,406.099234L323.833683,404.612766L327.139652,405.047479L333.041482,405.821239L338.103837,406.482601L356.552439,400.545895L360.600359,401.577888L375.525384,405.369873L384.354263,407.603352L387.295772,408.345885L390.042294,409.038477L396.101252,410.563915L398.632115,411.200100L403.985225,412.543776L417.783997,410.644592L421.080464,406.828014L427.964581,398.847271L429.323253,393.180409L429.361027,393.022787L429.532424,392.307525L429.588403,392.073903L433.692357,374.922472L433.692357,374.922470L417.295233,371.061138L417.011949,370.994214L411.961877,369.799939L409.859954,364.126565L408.710682,361.022008L403.659944,361.307215L400.941519,361.459856L399.189692,361.557901L398.559238,361.593124L378.884054,362.676014L378.828666,359.660635L378.683981,351.768203L378.683980,351.768203L375.994653,352.528845L372.800897,353.431270L365.421557,355.512690L359.071395,357.299707L350.109946,356.323255L347.428225,356.029748L352.119480,349.567256L346.242893,346.950110L343.621552,345.781410L345.055379,337.837125L331.462197,340.700463L326.505203,341.740556L321.466946,334.271961L321.466944,334.271958L312.704028,332.467775L314.270775,328.293633L315.962969,323.782070L316.867750,321.368463L315.423137,320.672925L309.665899,317.898478L307.559530,316.882404L303.489180,314.917417L302.501993,310.774208L301.230652,305.433500L297.190762,306.848222L296.148801,301.273375L295.232883,296.367780L294.491609,292.394047L294.069121,290.127812L285.836221,288.305645L288.623198,283.906685L289.667035,282.258149L289.886231,281.911907L289.886232,281.911906L287.732797,278.796311L284.843595,274.612928L282.600100,271.361896L278.451985,265.344904L275.342935,260.830005L270.945834,257.879211L265.713863,254.364139L267.841093,244.561039L261.998460,232.866547L260.156362,229.173735Z " data-nuts-id="LT007" data-shape-area="6.24007438469e-001" data-shape-leng="5.05941850937e+000" data-stat-levl-="3"/><path d="M293.114550,22.697161L291.564143,20.524030L290.014392,18.350773L267.846475,12.115538L265.675498,11.502367L262.224044,10.526606L259.665607,9.802572L251.493616,12.333231L245.907679,14.059301L243.945067,12.434098L242.192973,10.982556L240.481711,9.564236L239.916333,9.095511L239.264144,9.257380L228.685449,11.877475L227.438992,11.216231L225.690111,10.288107L216.691311,5.506096L214.635694,4.412230L209.630010,1.746190L209.630009,1.746190L193.496920,3.406074L191.261483,3.634354L184.732629,15.051770L183.212856,25.870144L180.341410,25.409360L178.089800,25.047541L176.463914,34.540681L184.468024,35.857571L184.468023,35.857577L183.450450,41.832929L182.111041,49.691595L184.392505,54.831582L186.182270,58.859997L187.636568,62.130880L188.182656,63.358526L189.685218,66.734795L188.765289,71.449829L187.287546,71.201656L180.506271,70.060370L178.425648,77.205780L177.603531,80.027098L176.969364,82.202623L176.944315,82.288541L175.609155,86.866536L173.425773,94.346361L169.782780,96.343357L166.836739,94.817714L163.412690,93.043118L162.480413,92.559680L161.743104,92.177265L160.300431,91.428798L157.239876,89.840074L157.100199,95.507657L157.094726,95.729863L156.996868,99.704752L153.123121,98.762227L143.638534,96.448667L137.706938,105.916732L133.104630,113.251599L132.200462,114.691440L130.972335,116.646559L127.110415,122.789964L124.459524,127.002888L115.872816,127.069461L113.171100,133.423303L114.148838,133.831737L115.058898,134.211803L117.100477,135.064084L117.830449,135.368705L117.560874,138.058318L116.116212,152.463793L112.841974,153.645454L115.245840,155.688605L120.333291,160.008639L121.038477,160.607020L120.152998,161.297591L118.098635,162.899218L114.549686,165.664290L111.239842,168.241053L109.358774,169.704627L106.499494,171.928101L101.282889,184.107714L107.328724,187.221740L107.807017,187.118178L115.632014,185.420978L115.632015,185.420977L120.287259,191.540123L120.199265,192.822433L119.646202,200.881185L124.056852,202.749894L125.006833,201.410963L126.634950,199.115439L132.465884,202.144127L134.316670,203.104540L135.417635,202.432977L137.880885,200.929832L139.158830,200.149657L142.726188,203.145037L140.959526,211.254444L140.321347,214.181781L140.321342,214.181802L140.321343,214.181803L143.264966,217.528826L143.778190,218.112105L147.736075,222.607471L144.867847,233.544073L147.949630,236.590212L149.412968,238.035777L153.814769,242.380826L154.920308,243.471336L160.768026,249.234399L176.407130,245.225114L178.701595,245.679009L181.720510,246.275505L186.353357,247.189325L188.079640,243.808517L191.793545,236.528438L192.426029,235.287724L193.420486,233.336408L198.035994,231.971187L205.810036,229.667092L215.174892,226.883816L224.279293,225.114495L228.014858,227.554425L232.261814,230.325736L236.725665,228.001662L237.487522,227.604757L238.075397,228.070404L241.068188,230.439926L243.733422,232.548670L244.231673,232.942737L254.528838,230.508266L260.156361,229.173735L260.156362,229.173735L263.003775,223.714387L263.484380,223.657660L265.294942,223.443781L266.241396,223.331869L270.633814,222.811509L271.171245,218.592795L269.672258,213.386419L264.318134,194.746458L270.968747,192.229777L280.941676,188.447180L280.688415,180.458332L280.624356,178.434017L277.341599,175.042530L278.395182,174.911736L286.456741,173.907868L288.457913,173.657824L291.808735,173.238388L293.904288,170.670947L294.131132,170.392936L299.032124,164.382422L298.692018,161.771159L298.211561,158.079837L297.888158,155.593510L296.016180,141.175613L292.819943,140.921584L293.352971,143.173306L294.252423,146.970667L293.484635,147.035975L287.524066,147.541325L285.665520,144.380669L282.049429,138.225168L286.956865,135.703491L287.322218,132.198960L287.675563,128.808315L288.639381,119.553120L296.166937,116.452159L296.166941,116.452158L296.401272,116.553115L299.333945,117.816066L301.676837,118.824325L303.546687,116.875702L308.263866,111.955788L306.791562,109.843583L304.545307,106.619181L305.249662,104.175480L306.379567,100.253416L302.690765,97.561080L302.690764,97.561080L290.925046,104.591327L287.499871,106.634288L281.966996,105.105048L282.016244,103.917491L282.342666,96.045656L282.502556,92.189349L280.915919,91.070595L274.223912,86.347313L275.422529,83.254065L277.612912,82.890270L282.306083,82.109398L289.449207,80.917243L288.964739,73.483642L288.830840,71.426564L288.570563,67.424734L294.054539,66.077610L292.802797,57.686913L291.539832,57.520913L289.477821,57.249598L286.154551,56.811569L284.681364,51.189987L283.425461,46.392565L284.294420,43.069568L284.316935,42.983446L285.713393,37.639661L286.961489,32.859938L286.559804,32.198729L281.864429,24.462873L282.996695,24.285656L293.114550,22.697161Z " data-nuts-id="LT008" data-shape-area="6.24561413967e-001" data-shape-leng="4.67721386077e+000" data-stat-levl-="3"/><path d="M960.985659,222.320506L958.472788,222.579769L944.353060,224.026731L937.538439,220.096956L935.191505,218.742107L928.314986,214.768122L919.540738,216.543395L917.302018,212.528332L913.600020,205.882734L910.285457,205.692016L909.892318,205.669335L907.291031,205.518941L906.979320,205.500883L905.867186,204.460028L899.358987,198.363507L895.022389,187.741374L893.464505,183.921085L893.221402,183.324733L889.383194,173.901755L878.698204,168.465811L873.465056,165.798324L871.303319,162.649262L866.815821,156.106064L865.486065,154.165561L862.868961,150.344307L860.499306,146.881913L860.499301,146.881914L853.786317,147.491713L848.399088,153.786551L849.574600,157.743497L849.704987,158.182254L851.279351,163.477803L847.476715,169.983110L837.481441,171.741108L837.881255,178.012377L838.217408,183.283562L828.324808,180.470007L826.998714,180.092147L826.718664,182.139280L826.101633,186.646425L825.890445,188.188028L824.414971,198.943794L818.170244,197.104560L813.593381,195.754184L813.405903,195.698827L811.925771,195.261666L811.924929,195.261418L811.198354,198.233520L808.997958,207.223587L808.681583,208.514853L802.009369,216.694742L801.491280,213.662345L801.358474,212.884832L800.707919,209.075015L797.100632,210.122634L791.988674,211.605093L785.188817,213.573144L782.357874,214.391181L776.776300,216.001794L770.262758,214.125638L764.686863,212.516354L758.606912,207.982539L751.958815,203.017778L747.223793,206.220465L740.248631,210.931794L736.835597,217.456211L732.847410,218.742991L722.764806,221.989070L703.505863,228.161418L697.748723,218.305265L689.708556,215.363094L681.672398,212.415692L680.764564,212.730154L671.101503,216.072108L664.381260,218.390683L660.446483,219.746100L658.664718,219.745578L652.742304,219.741985L648.485212,219.737634L644.445788,219.732139L640.111133,216.212002L639.920632,221.026801L639.703405,226.510473L642.764828,229.475674L644.929465,231.570942L640.709411,236.882482L636.624473,235.940964L628.713761,234.113374L630.764361,240.763747L634.753350,237.202076L635.640482,236.409508L636.238908,238.118242L640.469757,250.184796L633.610906,252.935316L632.706506,253.297615L632.706503,253.297616L630.910224,265.772988L629.603955,274.827097L629.342255,276.639187L629.131276,278.099630L629.131277,278.099639L630.004619,282.095083L630.463840,284.194946L634.262927,282.393998L636.224478,281.463454L641.235699,284.466723L648.973903,289.097368L650.866380,296.253046L651.181330,297.443110L657.233618,301.553552L657.098300,303.517419L657.076991,303.826598L657.010622,304.789449L656.916334,306.156999L656.095331,305.979162L653.311169,305.375636L651.063112,310.150783L651.063104,310.150801L651.717650,316.733223L652.165290,321.231450L654.287074,321.660321L670.874032,324.999329L671.171597,326.512572L671.890747,330.168302L672.013351,330.791348L672.620957,330.498273L677.337655,328.221688L677.338070,328.221487L682.659531,325.649776L683.983698,329.625924L686.336638,336.684832L687.598529,340.467193L688.389850,340.344279L692.908340,339.641410L694.453983,339.400579L700.835299,338.404120L703.017517,343.903157L703.151158,344.239760L703.936725,346.217976L706.517410,352.712039L709.345424,353.710923L710.292483,354.045252L711.533802,354.483322L712.368871,354.777936L718.815301,352.698914L720.700125,352.090267L720.700128,352.090266L720.700127,352.090268L715.473192,365.508956L722.166934,369.147247L722.423289,369.286471L723.584708,369.917116L731.702806,374.320346L728.007694,379.103986L724.062932,384.205255L723.937454,384.367426L716.478723,393.996884L714.985964,400.529681L714.398189,403.099766L718.618064,403.788906L726.012773,404.992844L727.077508,405.165809L729.625038,412.659591L729.625040,412.659598L727.313212,414.371436L726.982820,414.616006L725.923117,415.400311L727.433955,419.087615L741.085067,417.746245L742.627154,418.983655L744.915360,420.818959L746.088025,421.759146L754.722903,421.779198L760.630889,420.350581L767.125402,418.776458L774.398433,417.009066L780.250838,415.583384L783.963356,414.677367L788.611538,413.541230L797.102351,411.460745L801.623728,412.144102L802.471278,414.671569L803.561244,417.920483L819.131192,418.174655L818.727719,416.985746L815.565104,407.658961L817.947495,403.742381L819.703210,400.854008L820.901835,398.881127L824.188527,393.467248L815.209893,389.536488L812.714913,388.442605L809.787541,387.158255L809.781071,382.840764L809.781071,382.840759L809.780943,382.756296L809.777789,380.679924L809.774225,378.355233L805.343453,376.736510L800.308434,374.894581L799.149175,371.221179L800.379298,367.909635L801.831859,363.996538L804.466521,356.891346L806.003549,352.741728L807.078697,349.837084L809.162757,344.202057L810.726136,342.751274L811.545276,341.990904L819.280426,334.803083L825.280696,337.988913L825.894505,346.518956L831.654026,346.082332L831.637695,345.874468L831.349688,342.208176L831.191363,340.192276L831.914864,339.976741L835.534048,338.897802L835.534051,338.897803L836.193249,339.177143L847.722073,344.054815L850.724542,345.322713L856.181849,347.624712L858.023870,346.263449L863.442822,342.255350L865.906989,340.431030L867.842162,340.436652L870.329562,340.443430L878.924709,340.462965L882.820017,342.064930L883.564037,344.150664L885.858894,350.579745L887.250702,354.475857L887.039290,355.081583L885.060922,360.746332L890.595853,361.477056L894.923284,357.111216L897.778196,354.228297L903.149755,359.830418L903.918637,360.631712L915.507226,361.805028L933.186073,363.573469L935.653094,363.818184L940.879656,362.433373L942.177138,362.089201L944.353350,361.511580L947.490173,360.678207L953.361325,359.115912L953.763063,359.008893L960.352094,357.251469L961.850766,355.855604L966.757082,351.282167L970.974646,347.346226L979.083349,346.499627L986.843334,345.684286L987.429844,345.622457L986.578332,346.716718L984.980065,348.769874L994.162300,344.180229L999.264167,341.625551L999.345239,332.471315L996.265484,330.049853L987.980875,328.064415L971.231502,324.031347L968.696213,324.789470L963.581808,326.316918L952.167174,329.716808L943.412075,326.564182L932.746979,322.713201L933.607448,321.617311L938.162484,315.811435L951.324391,309.720080L950.803884,306.985949L948.341694,294.040719L948.505758,293.668379L949.236251,292.010193L951.114359,287.744378L945.019817,273.776613L951.985006,266.378870L956.696558,261.366920L957.067802,260.971738L960.440318,257.379964L961.140022,256.634364L961.140373,256.633990L961.140381,256.633981L961.087704,244.665641L961.024607,230.725429L960.985659,222.320506Z " data-nuts-id="LT009" data-shape-area="1.01918057610e+000" data-shape-leng="7.08771715214e+000" data-stat-levl-="3"/><path d="M984.980065,348.769874L986.578332,346.716718L987.429844,345.622457L986.843334,345.684286L979.083349,346.499627L970.974646,347.346226L966.757082,351.282167L961.850766,355.855604L960.352094,357.251469L953.763063,359.008893L953.361325,359.115912L947.490173,360.678207L944.353350,361.511580L942.177138,362.089201L940.879656,362.433373L935.653094,363.818184L933.186073,363.573469L915.507226,361.805028L903.918637,360.631712L903.149755,359.830418L897.778196,354.228297L894.923284,357.111216L890.595853,361.477056L885.060922,360.746332L887.039290,355.081583L887.250702,354.475857L885.858894,350.579745L883.564037,344.150664L882.820017,342.064930L878.924709,340.462965L870.329562,340.443430L867.842162,340.436652L865.906989,340.431030L863.442822,342.255350L858.023870,346.263449L856.181849,347.624712L850.724542,345.322713L847.722073,344.054815L836.193249,339.177143L835.534051,338.897803L835.534048,338.897802L831.914864,339.976741L831.191363,340.192276L831.349688,342.208176L831.637695,345.874468L831.654026,346.082332L825.894505,346.518956L825.280696,337.988913L819.280426,334.803083L811.545276,341.990904L810.726136,342.751274L809.162757,344.202057L807.078697,349.837084L806.003549,352.741728L804.466521,356.891346L801.831859,363.996538L800.379298,367.909635L799.149175,371.221179L800.308434,374.894581L805.343453,376.736510L809.774225,378.355233L809.777789,380.679924L809.780943,382.756296L809.781071,382.840759L809.781071,382.840764L809.787541,387.158255L812.714913,388.442605L815.209893,389.536488L824.188527,393.467248L820.901835,398.881127L819.703210,400.854008L817.947495,403.742381L815.565104,407.658961L818.727719,416.985746L819.131192,418.174655L803.561244,417.920483L802.471278,414.671569L801.623728,412.144102L797.102351,411.460745L788.611538,413.541230L783.963356,414.677367L780.250838,415.583384L774.398433,417.009066L767.125402,418.776458L760.630889,420.350581L754.722903,421.779198L746.088025,421.759146L744.915360,420.818959L742.627154,418.983655L741.085067,417.746245L727.433955,419.087615L725.923117,415.400311L726.982820,414.616006L727.313212,414.371436L729.625040,412.659598L729.625038,412.659591L727.077508,405.165809L726.012773,404.992844L718.618064,403.788906L714.398189,403.099766L714.985964,400.529681L716.478723,393.996884L723.937454,384.367426L724.062932,384.205255L728.007694,379.103986L731.702806,374.320346L723.584708,369.917116L722.423289,369.286471L722.166934,369.147247L715.473192,365.508956L720.700127,352.090268L720.700128,352.090266L720.700125,352.090267L718.815301,352.698914L712.368871,354.777936L711.533802,354.483322L710.292483,354.045252L709.345424,353.710923L706.517410,352.712039L703.936725,346.217976L703.151158,344.239760L703.017517,343.903157L700.835299,338.404120L694.453983,339.400579L692.908340,339.641410L688.389850,340.344279L687.598529,340.467193L686.336638,336.684832L683.983698,329.625924L682.659531,325.649776L677.338070,328.221487L677.337655,328.221688L672.620957,330.498273L672.013351,330.791348L671.890747,330.168302L671.171597,326.512572L670.874032,324.999329L654.287074,321.660321L652.165290,321.231450L651.717650,316.733223L651.063104,310.150801L651.063112,310.150783L653.311169,305.375636L656.095331,305.979162L656.916334,306.156999L657.010622,304.789449L657.076991,303.826598L657.098300,303.517419L657.233618,301.553552L651.181330,297.443110L650.866380,296.253046L648.973903,289.097368L641.235699,284.466723L636.224478,281.463454L634.262927,282.393998L630.463840,284.194946L630.004619,282.095083L629.131277,278.099639L629.131276,278.099630L624.876354,280.521027L625.253930,282.012133L628.508296,294.849136L620.774113,298.484056L614.173714,296.450771L612.831789,296.036866L611.678228,295.680921L610.067151,295.183588L610.386684,296.978897L611.918236,305.576894L600.924165,311.219493L597.218507,313.117966L594.670116,314.422552L591.228896,316.182907L583.994700,334.588248L583.994698,334.588252L584.800466,344.289444L585.342319,344.874516L589.149228,348.982814L590.952734,350.927723L588.267504,362.828230L588.267511,362.828231L588.267566,362.828243L592.377194,363.729797L604.379902,366.354275L600.273992,373.088154L603.115160,381.123863L603.607654,382.515669L604.779931,385.827237L605.248334,387.149905L606.547625,390.817261L606.547627,390.817264L613.034161,399.898381L613.034171,399.898394L613.841212,399.795482L614.088201,399.763976L614.273527,399.740332L617.410443,399.339687L618.545142,405.576660L618.676574,406.298698L618.829777,407.140227L619.417725,410.368748L624.158334,414.094471L627.854090,416.996191L626.793065,417.837037L618.586438,424.333590L616.105518,430.499340L614.199007,435.232811L621.017771,440.956466L626.159834,445.266683L636.472131,453.895178L640.129201,453.447259L643.798546,452.996710L645.868021,452.742106L648.656195,454.768944L652.809844,457.785996L657.413385,461.126475L654.794917,468.989364L654.733744,468.992067L650.275365,469.188222L649.551007,469.219938L647.507218,469.309196L647.787599,471.994395L648.116905,475.146866L649.175491,485.271447L640.292478,487.314103L635.307204,486.044693L634.361976,485.803751L631.069490,484.963843L629.132903,484.469358L624.798778,483.361440L623.973953,484.398383L622.527572,486.216159L619.999144,489.392092L611.308840,486.596579L609.572518,492.424384L609.424846,492.919754L609.890619,492.965405L615.498440,493.513625L618.945301,493.849298L618.377126,498.261069L614.936732,508.879882L614.612996,509.878061L613.714387,510.246296L608.737959,512.283962L605.026510,513.801910L602.211343,519.494968L600.113405,523.733650L598.249417,527.496844L599.303895,533.038821L600.559237,539.630143L602.553091,550.085012L593.487866,553.007704L592.915227,553.192055L591.434488,553.668606L591.434488,553.668610L589.863386,572.350927L590.163676,580.804683L590.326037,585.371725L590.495154,590.126007L594.235681,596.693481L590.289237,604.206655L594.150258,604.838449L614.767526,608.190581L615.191118,608.259071L617.825884,608.684744L619.516525,606.719040L623.040364,602.619082L625.219239,600.082084L626.465073,599.741610L632.271301,598.152915L634.113736,597.648132L634.113737,597.648131L640.924307,601.715259L643.013761,602.961749L640.870714,609.236430L643.499233,615.279154L657.715629,610.769409L678.162243,604.248648L686.559703,601.558694L695.091937,598.818478L693.991391,604.204699L693.647679,605.885778L692.366093,612.149376L691.508759,616.335469L681.734879,618.327690L680.200728,618.639635L678.969472,618.889841L676.865156,623.068026L677.230332,624.889353L678.847383,632.948501L680.832414,642.828385L680.832414,642.828389L671.997610,643.294010L670.760422,646.342712L669.531787,649.368650L668.755048,651.280772L667.441757,654.512219L659.770083,658.848043L655.766684,661.107536L650.010520,664.352533L650.010517,664.352535L652.244707,674.093885L656.576247,674.669953L660.782558,675.227860L664.192373,686.612646L685.356015,679.462254L690.060555,685.585362L691.713305,687.734647L705.372016,690.615720L705.372017,690.615719L706.632941,689.204900L725.506086,668.032965L727.074962,666.268319L728.437266,660.390085L729.977266,653.737383L733.439882,651.594052L739.467309,647.858985L741.717555,650.259951L743.150194,651.787862L743.150196,651.787862L750.587655,651.244923L754.165693,650.982107L758.921659,647.790187L759.920621,647.119295L763.542643,644.685475L766.019766,643.019789L769.691198,640.549250L778.629235,638.896764L781.619984,638.342278L783.139673,645.293988L787.093050,646.630474L789.590128,647.473842L795.620481,659.518330L791.534511,659.912006L788.257254,660.226765L789.305361,663.893027L790.946130,669.628413L786.376151,672.664873L784.823287,673.695917L782.241692,675.409175L785.567347,681.889875L801.955273,686.058397L803.028178,687.779312L804.828518,690.665799L807.029735,689.534289L812.754039,686.588939L814.337330,682.227954L814.378435,682.114687L815.839347,678.087488L819.009631,679.011157L830.008940,682.208465L829.759255,679.833149L829.638661,678.685716L828.856950,671.244631L828.583171,668.637240L828.583171,668.637237L827.462464,667.162678L823.593224,662.068426L825.673823,659.725337L825.673840,659.725318L825.673846,659.725311L827.753623,657.381861L824.253279,652.311143L822.802465,650.208005L820.150481,646.361441L815.874112,640.152836L810.185213,631.882040L810.185212,631.882039L804.275552,635.985004L797.477883,635.322514L789.742531,634.563993L788.267431,634.418784L788.267429,634.418781L786.241854,630.140101L784.770126,627.029397L789.584201,622.381525L795.314728,616.841630L800.503695,605.337352L801.802112,602.454682L800.057270,598.911545L796.265072,591.203617L799.609941,588.525089L801.819659,586.754414L802.340451,586.336962L802.340452,586.336960L804.820678,580.083739L804.840307,580.034219L809.126413,569.210166L813.033940,565.551639L823.229767,555.988948L819.131971,514.352867L817.228313,494.953122L816.626341,488.810923L819.609443,482.602272L819.993839,482.574828L823.309956,482.337569L823.922831,475.289063L824.128770,472.917913L825.240649,471.764422L826.557018,470.398362L829.387931,467.459018L836.451987,460.115048L836.713080,456.107814L837.054539,450.860483L841.390697,448.020006L842.760430,447.507752L853.923090,443.325778L859.508876,441.228195L859.508877,441.228195L861.094914,441.816875L870.847914,445.431128L874.655085,441.286707L878.948341,436.608134L881.123367,434.235872L881.274320,434.071179L892.072049,430.042390L896.510906,428.382628L905.150893,407.345844L906.462059,404.145645L902.922857,399.996405L899.102008,395.512851L911.183011,389.775370L912.272909,387.912575L912.907286,386.827997L913.101045,386.496684L914.636330,383.870649L914.696440,383.767804L920.237060,381.889127L920.237061,381.889128L920.240047,381.890123L920.240601,381.890307L925.158325,383.527640L929.433173,384.948985L935.494354,386.961167L938.371975,387.915203L938.371984,387.915194L940.312499,385.819923L941.097656,384.971843L945.775943,379.914953L947.551814,377.993712L948.910394,379.668943L951.627018,383.017015L962.328456,380.516712L968.713485,379.019933L968.791889,379.001530L974.695075,377.614357L979.538160,373.496826L978.291384,371.834608L977.254635,370.451988L973.988109,366.093265L978.419596,363.280143L980.222063,362.135078L983.079085,360.319066L984.980065,348.769874Z " data-nuts-id="LT00A" data-shape-area="1.36437748928e+000" data-shape-leng="1.05299046385e+001" data-stat-levl-="3"/></g></svg>