<?xml version="1.0" encoding="utf-8"?><!DOCTYPE svg  PUBLIC '-//W3C//DTD SVG 1.1//EN'  'http://www.w3.org/Graphics/SVG/1.1/DTD/svg11.dtd'><svg enable_background="new 0 0 1000 1430" height="1430px" pretty_print="False" style="stroke-linejoin: round; stroke:#000; fill: none;" version="1.1" viewBox="0 0 1000 1430" width="1000px" xmlns="http://www.w3.org/2000/svg" xmlns:xlink="http://www.w3.org/1999/xlink"><defs><style type="text/css"><![CDATA[path { fill-rule: evenodd; }]]></style></defs><metadata><views><view h="1430.06659899" padding="0" w="1000"><proj dist="1.6" id="satellite" lat0="49.816879536" lon0="6.08602850751" tilt="0" up="0"/><bbox h="26.58" w="18.6" x="991.8" y="986.71"/></view></views></metadata><g class="" id="nutsregions"><path d="M308.796495,1428.066599L344.152728,1427.279817L365.565693,1426.796862L378.936358,1426.492828L388.521879,1426.273697L459.506487,1424.620588L479.696305,1388.920595L492.598700,1366.090002L492.730482,1365.856750L493.136497,1365.138102L500.428462,1352.229128L507.632187,1348.147279L510.193864,1346.695537L526.217626,1337.612041L529.656156,1335.662237L559.385754,1318.795617L564.870272,1318.458495L605.938632,1315.923893L626.628080,1314.640184L631.474609,1314.338812L642.610932,1313.645372L643.479429,1313.591235L655.992372,1312.810381L661.378130,1318.929608L664.534001,1322.514760L666.079721,1324.270601L683.037595,1343.527784L697.094413,1359.482366L698.963251,1361.602951L699.579018,1362.301639L702.186512,1365.260104L707.198469,1370.945957L741.496041,1386.827243L754.010241,1392.617448L759.216744,1395.025754L759.219917,1395.027221L770.896213,1400.426689L793.902849,1411.059629L797.273447,1391.607010L789.045174,1321.484701L783.373389,1273.091964L807.289389,1240.136373L813.067079,1232.170489L800.877507,1214.354581L789.010225,1197.001852L784.292350,1190.101058L784.292353,1190.101048L790.982082,1182.169569L791.560843,1181.483292L806.852240,1163.346322L806.919092,1163.267010L817.297672,1150.951646L829.550901,1136.406162L830.698858,1135.043141L836.334558,1128.350838L866.183597,1092.884020L882.075652,1048.183554L887.454765,1033.043003L888.319047,1030.609825L877.000781,1018.838625L870.708116,1012.292301L902.023475,980.240799L930.934684,950.621225L931.238847,950.309464L931.334449,950.211474L954.089746,926.878897L962.770596,917.973305L966.008518,904.202540L968.473148,893.717671L969.342317,890.019510L970.807125,883.786312L986.013471,819.026508L997.852458,739.740399L997.881550,739.545391L999.650121,727.688714L985.687058,722.997786L982.949954,722.077952L930.759861,704.520340L907.065763,721.442483L903.763434,723.800024L889.340838,720.179508L885.308599,719.166849L838.407007,707.373721L812.012706,688.031031L762.059393,651.381719L745.607407,639.299397L728.100290,626.435665L727.463454,625.967608L712.930862,615.284157L706.442179,610.512585L699.825147,605.645677L684.032337,594.025979L664.199721,579.426185L646.196955,566.165937L644.741171,565.093342L637.913955,560.062550L628.760835,553.316252L625.193914,528.540625L624.255151,522.017908L623.136683,514.245391L620.069781,492.926277L618.229647,480.130296L608.835743,475.137743L606.973333,474.147760L583.588928,461.712645L574.418101,456.833403L556.451238,447.270286L549.724603,430.286752L549.721621,430.279223L540.943673,408.106615L540.087445,405.943231L538.028098,400.739559L530.421482,381.513387L530.162285,380.858103L526.826930,372.425013L521.448697,358.823308L517.720088,349.391073L512.636238,336.527226L512.477864,336.126429L510.119168,330.156799L507.377052,323.215753L507.351164,323.150216L498.641535,301.096425L498.574932,300.927737L496.622224,295.981710L495.760907,293.799896L477.396061,247.253784L476.239165,244.319947L474.017052,238.684215L475.708429,231.379356L475.753287,231.185600L475.769754,231.114477L476.364679,228.544771L479.860546,213.441881L480.094413,212.431347L481.517813,206.280390L484.817769,192.017055L488.922123,174.270661L491.094847,164.873447L492.872542,157.183327L493.094965,156.221054L496.473101,141.603712L498.048513,134.785231L500.468238,124.310521L502.374197,116.058151L502.617574,115.004276L505.362989,103.114342L505.362991,103.114330L492.477411,98.231450L491.318290,97.792100L473.645835,91.091316L474.979423,82.896610L475.265007,81.141549L479.592603,54.538078L481.229940,44.468717L482.331909,37.690525L432.387353,23.635280L421.567291,41.890644L412.554382,57.090669L371.312440,36.289429L370.469066,31.892866L364.353629,0.000000L310.106977,14.504563L294.891146,18.566611L292.301104,19.257775L288.389704,20.301394L287.580047,37.804147L287.370907,42.324216L286.664508,57.588436L286.266542,66.185868L284.690943,100.209784L282.463735,101.213900L275.353976,104.418773L201.980636,137.449435L161.894006,218.202915L160.805625,220.393285L154.031376,234.023928L153.302693,235.489869L153.054699,235.988765L150.413015,241.302733L153.524076,267.421777L155.455870,283.632512L157.246151,298.650471L157.375510,299.735411L146.926085,306.102009L136.762499,312.292523L112.395980,327.126123L105.885807,331.087470L120.336222,356.222056L132.299054,377.017880L130.783933,380.248757L119.929208,403.388513L119.929188,403.388523L107.250954,408.704011L103.873924,410.119480L99.469269,411.965430L95.397947,413.671437L95.020204,413.829710L58.327378,429.194235L58.024676,429.320907L50.260533,432.569518L48.885797,440.645194L48.765115,441.354059L47.199680,450.548218L45.875081,458.326537L45.533668,460.331182L40.511178,489.811808L35.194603,520.999245L0.349879,556.834510L35.722749,581.828593L43.245770,587.140847L55.653502,595.899732L59.311449,598.481331L56.063003,601.522244L46.507547,610.465462L26.302860,629.366886L24.043619,631.479664L13.242383,641.578638L13.487444,644.320385L15.835044,670.576548L16.028628,672.740934L22.723195,747.522709L24.106765,762.961659L43.559917,758.421921L48.795654,757.199310L50.408092,756.822721L61.392111,754.256563L66.193652,753.134352L70.873274,767.450589L71.232298,768.548751L73.706171,776.114923L76.258825,783.920672L90.724855,828.130078L111.025602,890.095941L111.168731,890.532519L112.863092,895.700378L125.141636,894.221583L152.959030,890.865258L154.764983,890.647069L157.199402,890.352894L162.365860,889.728363L168.960684,898.246681L169.947427,899.521053L175.681375,906.925512L188.675806,923.700094L158.101668,980.205894L158.101673,980.205906L163.704014,989.606500L163.805620,989.776970L168.464690,997.593052L209.591717,1066.521579L202.805311,1085.629556L167.899915,1183.782576L148.307045,1200.881354L112.497363,1232.106287L102.339385,1240.957542L101.462843,1241.721197L101.462835,1241.721203L110.469677,1255.240579L110.545234,1255.353971L126.003368,1278.545661L130.007578,1284.550859L161.907555,1332.358445L161.907574,1332.358451L168.239935,1333.457951L169.937074,1333.752552L176.192876,1334.838197L189.948645,1337.223855L196.540373,1338.366302L201.461543,1338.940965L258.573263,1345.590825L278.165010,1347.863827L288.502685,1349.061504L289.563231,1349.184310L296.753277,1350.016547L297.355959,1353.925577L299.450418,1367.507758L305.801251,1408.667284L305.801312,1408.667672L307.319916,1418.504254L308.796495,1428.066599Z " data-nuts-id="LU000" data-shape-area="3.25272012000e-001" data-shape-leng="2.93248078403e+000" data-stat-levl-="3"/></g></svg>