<?xml version="1.0" encoding="utf-8"?><!DOCTYPE svg  PUBLIC '-//W3C//DTD SVG 1.1//EN'  'http://www.w3.org/Graphics/SVG/1.1/DTD/svg11.dtd'><svg enable_background="new 0 0 1000 588" height="588px" pretty_print="False" style="stroke-linejoin: round; stroke:#000; fill: none;" version="1.1" viewBox="0 0 1000 588" width="1000px" xmlns="http://www.w3.org/2000/svg" xmlns:xlink="http://www.w3.org/1999/xlink"><defs><style type="text/css"><![CDATA[path { fill-rule: evenodd; }]]></style></defs><metadata><views><view h="588.070885457" padding="0" w="1000"><proj dist="1.6" id="satellite" lat0="56.9130015225" lon0="21.8839858784" tilt="0" up="0"/><bbox h="85.68" w="145.95" x="981.62" y="955.91"/></view></views></metadata><g class="" id="nutsregions"><path d="M296.032961,199.830365L293.167819,191.112039L286.322299,186.753324L277.827277,181.331624L276.188445,180.284064L274.947507,179.490493L266.473066,174.063082L263.296399,169.239196L261.388144,166.338562L255.150297,156.841618L250.473794,153.577976L242.795503,148.209328L242.786044,148.202707L234.478511,142.379877L223.973340,129.751322L223.973339,129.751320L218.353468,111.389177L221.938816,92.102399L222.155717,90.932709L209.146877,94.953946L195.312817,102.176242L194.589241,102.553107L142.059604,129.677934L126.014591,130.975588L121.627361,131.325487L117.703179,132.597643L113.837557,133.848836L105.071327,136.678953L100.615064,141.329265L100.615063,141.329266L90.914145,165.220369L87.852880,172.731991L81.790292,179.271501L79.143422,182.122447L66.605626,203.385998L64.195387,207.460646L64.195386,207.460648L63.680354,235.395770L63.394399,250.875288L63.163986,263.332383L58.897221,275.513154L57.691650,278.948851L50.512591,287.390304L39.915902,299.812633L32.983852,305.090180L32.098185,305.763661L28.681175,308.360337L27.144134,309.527498L20.133527,314.844150L15.140070,318.624170L13.470267,323.118898L13.946092,352.890638L7.164004,381.835574L3.246651,398.477507L4.457290,406.852320L5.210304,412.052749L2.578466,428.950436L0.851686,440.008166L0.957053,442.476438L1.948481,465.607469L2.341952,474.741138L12.904163,510.574610L26.467055,506.466269L32.034734,508.819987L32.034889,508.819672L33.133675,506.593004L36.717447,499.322583L36.422090,492.574710L36.396525,491.990038L36.208917,487.696399L42.079103,485.511393L42.925214,484.261681L46.097561,479.572532L49.949123,473.871805L49.949138,473.871798L53.706650,472.246265L56.407571,471.076542L67.000029,466.478780L68.810140,463.400914L71.764688,458.372064L73.780627,454.937215L75.643794,455.153600L77.419159,455.359431L78.314845,455.463143L82.128734,449.764598L88.922110,447.588131L89.311742,447.660079L91.707673,448.102120L104.683240,450.484643L111.570385,444.011276L115.761016,440.065566L116.087395,439.758044L117.089679,438.813472L117.461433,438.463048L119.940696,436.124988L123.009138,437.700609L124.785794,438.612204L139.553249,432.758487L144.677064,423.064182L146.533252,422.817970L159.928142,421.029864L159.928143,421.029864L164.171683,423.130657L165.914212,423.992476L173.541669,427.759170L175.023895,428.490068L176.080274,429.010764L184.819069,426.557667L185.357799,426.406127L185.841545,426.783179L187.305687,427.924054L188.804701,429.091579L190.483750,430.398697L195.088276,428.816999L201.824116,426.498105L203.974384,427.037764L206.875079,427.764875L208.699558,428.221693L227.326297,432.862535L228.675632,434.636748L230.025452,436.410749L236.176646,440.457554L236.176649,440.457556L237.863082,439.119924L243.024804,435.021486L243.024805,435.021485L243.024806,435.021485L245.743649,435.252556L258.974494,436.365537L260.440436,436.487679L262.604543,435.658076L269.007566,433.199685L269.117722,428.198379L265.150455,428.026910L256.382761,427.641942L253.540284,424.831016L252.877336,424.175064L242.776365,422.487547L242.776359,422.487546L245.867921,411.325524L246.193193,410.149420L245.140117,408.889729L243.922030,407.432091L243.038549,406.374486L241.790741,404.880208L242.178966,400.422877L242.442042,397.399468L243.352529,386.917141L243.352530,386.917140L244.923550,388.326566L246.122478,389.401716L246.923203,389.052865L248.708991,388.274510L248.732755,388.264149L250.233598,387.609619L250.522223,387.483709L252.813848,386.483567L253.187220,386.320542L252.437361,384.479207L250.278738,379.174369L248.840757,375.637065L248.840759,375.637065L249.496158,375.734420L250.836952,375.933435L257.284366,376.887614L257.620940,375.975881L260.260374,368.819052L260.667796,367.713223L260.667797,367.713220L257.159496,360.551163L256.139267,358.466186L255.993087,358.475502L253.812547,358.614196L250.312598,358.835734L251.343010,357.938029L252.219996,357.173761L254.382532,355.288274L254.470114,351.249308L254.519687,348.960085L254.804167,335.779682L254.146552,334.736326L251.428747,330.421432L249.775143,329.709828L245.182126,327.731178L244.440157,328.001088L240.951197,329.269277L239.470927,329.806833L239.470922,329.806835L239.470920,329.806834L236.895913,328.036335L233.900252,325.974870L229.093644,322.663296L228.626819,322.341414L224.201405,319.287775L219.482408,319.304306L216.983370,319.312088L214.200647,319.319962L211.854199,317.564512L209.501232,315.802930L210.204403,313.952437L213.401376,305.528807L214.742781,301.989308L215.360696,300.357837L204.698073,300.115356L204.107637,300.101570L203.656883,297.958078L203.468419,297.061582L203.238297,295.966700L202.813950,293.947075L205.308680,287.776943L207.731749,281.775266L210.468311,274.986652L214.050907,277.110118L216.539435,278.583729L219.970265,275.417623L220.267674,275.142999L221.172961,274.306906L225.225227,274.795180L229.239261,275.277050L230.852149,268.710135L228.526122,255.308178L232.656466,254.273950L234.851569,253.723457L239.390997,252.583187L244.360105,251.332108L254.390993,243.155507L257.928744,244.066966L260.887246,244.828014L267.385751,246.495943L269.384300,235.688698L270.079330,235.259125L272.679512,233.651222L273.684241,233.029568L275.891231,231.663360L276.923199,231.024211L278.410903,230.102441L284.194283,226.515047L286.285991,222.562544L287.389737,220.475269L287.511695,220.244567L288.476957,218.418146L289.430200,216.613616L292.921246,215.784103L291.122714,207.870520L290.478972,205.035057L290.092648,203.332677L296.032961,199.830365Z " data-nuts-id="LV003" data-shape-area="2.00963030401e+000" data-shape-leng="7.95143983168e+000" data-stat-levl-="3"/><path d="M775.732185,586.070885L787.382341,584.449256L789.455548,584.159083L790.759265,580.792254L792.120223,577.274183L792.120224,577.274183L801.337600,577.765594L803.857723,581.042226L804.928119,582.433157L810.757360,583.248924L812.706459,578.141622L814.241074,577.450087L818.900128,575.348401L822.251355,573.834621L822.964955,571.396412L824.709459,565.428364L825.301510,563.400503L827.823222,554.749472L833.369353,549.775799L836.454873,547.004848L840.211942,543.627027L847.047219,543.339131L848.881465,543.261009L851.029227,543.169070L851.973697,540.403892L851.996581,540.336867L852.776927,538.050464L858.777944,536.342360L869.029961,544.146481L878.597209,551.408757L884.437291,548.069788L890.273154,544.727042L898.241893,547.500513L923.855370,547.151621L925.325520,536.445956L925.964632,531.777279L925.072623,528.514457L923.033946,521.052678L925.083898,514.833572L926.169164,511.536359L938.253275,499.133420L938.422330,499.044154L940.194736,498.107980L946.622473,494.708367L946.643587,493.486712L946.693611,490.581258L946.785792,485.185848L946.794204,484.690784L947.470368,484.307159L957.361983,478.685604L958.511265,478.031294L961.500714,470.962138L963.421438,466.412362L965.873383,460.595286L965.873384,460.595285L971.684851,458.807101L975.667423,457.579132L977.978722,455.221672L978.507036,454.682538L978.717446,454.467791L982.701192,450.398925L984.165116,448.902288L987.272780,445.722617L989.787055,446.089063L989.823251,446.014319L989.889241,445.878047L992.701222,440.066055L992.705157,440.057914L993.029093,439.387734L993.337721,438.749101L994.490137,436.363372L994.714028,435.899677L995.005849,435.295198L995.437591,434.400686L995.069723,433.928291L995.063197,433.919909L994.275885,432.908708L992.560971,430.705289L992.900563,430.079248L993.732395,428.545264L994.155018,427.765635L994.220867,427.644146L999.148314,418.540583L999.148312,418.540579L999.143181,418.530946L993.586837,408.089088L993.302890,407.554944L993.296328,407.542599L992.464661,405.977809L987.088596,395.851913L987.067546,395.812228L986.233913,394.240380L986.366896,393.305877L987.096395,388.172887L987.876550,382.671012L987.893604,382.550598L987.973615,381.985578L988.699671,376.852084L988.065107,376.221854L987.930838,376.088488L982.866485,371.054412L982.835241,371.023332L980.873512,369.071344L980.855023,369.052942L980.830801,369.028834L980.798368,368.996552L977.965774,366.176020L974.601180,362.822766L974.345417,361.857402L974.216911,361.372330L973.969922,360.439944L973.510355,358.704838L973.486329,358.614117L973.403339,358.300752L973.353458,358.112397L973.353458,358.112396L974.242232,357.226453L977.140010,354.335986L978.599230,352.879333L978.665592,352.813070L979.493680,351.986087L979.470916,351.410462L979.300094,347.096975L969.699117,344.783268L968.971390,344.607442L966.388367,343.982838L965.350712,343.731694L965.350711,343.731693L965.124804,343.261523L960.050778,332.691118L959.749501,328.319050L959.441438,323.852894L955.979202,320.145489L955.960811,320.125785L954.262751,318.306098L954.241347,318.283156L952.132659,316.022155L951.820480,315.687308L950.157710,313.903287L949.520383,313.219255L947.403594,310.946422L947.376810,310.917655L944.334897,307.649005L943.723283,306.991451L943.285908,306.521150L942.531693,305.710017L942.335465,305.498950L943.481151,302.045898L943.823417,301.013600L943.850093,300.933127L944.088534,300.213758L944.106763,300.158755L944.270741,300.110427L945.441402,299.765308L945.560165,299.730286L945.766006,299.669581L948.022443,299.003774L947.712003,296.358286L947.711544,296.354373L947.708646,296.329676L947.406537,293.755455L947.314785,292.973702L947.288976,292.753806L948.504442,291.934876L948.660794,291.829510L949.533094,291.241564L949.559895,291.223498L950.901776,290.318718L951.488307,289.923120L951.065810,288.296289L950.799782,287.271805L950.584005,286.440757L950.324409,285.440851L950.259863,285.192217L950.225308,285.059108L950.166012,284.830686L949.987093,284.141425L948.910055,284.643840L948.374567,284.893566L948.082903,285.029565L947.226646,285.428746L941.371754,288.155129L939.205896,282.454614L939.075933,282.112397L937.141706,277.017156L936.345256,274.917977L934.089346,274.685416L932.688260,274.540693L924.205238,279.286304L923.456819,279.704360L923.207465,279.843623L923.134921,279.884136L920.665099,281.262876L920.476868,281.367908L919.431543,281.951075L919.316619,282.015177L919.121341,282.124093L919.006727,282.188016L917.258684,283.162639L916.414301,283.633227L915.981644,283.874304L915.534622,284.123349L914.005953,284.974729L909.241307,287.625648L909.230090,287.631884L908.991053,287.764769L908.490650,288.042918L908.490785,288.038150L908.707902,280.308616L908.713506,280.108125L908.892063,273.694370L908.892336,273.684502L908.918616,272.736215L908.918618,272.736147L909.655524,270.175163L909.655553,270.175060L910.391831,267.614155L911.905217,267.239954L914.028131,266.714565L916.020372,266.221011L917.174405,265.934888L919.558113,245.265278L919.558445,245.262386L916.273646,245.557120L916.151230,245.568081L915.422438,245.633300L913.915937,245.767928L912.792357,245.868172L913.598508,239.955618L913.601411,239.934301L913.614668,239.836941L913.614696,239.836736L913.614747,239.836363L913.663317,239.479640L914.016130,236.886770L914.321122,234.643023L914.435972,233.797548L914.747648,231.501568L914.921630,230.218932L915.170486,228.383081L915.586625,225.309924L915.326771,225.086753L915.141379,224.927522L914.521411,224.394977L914.154061,224.079383L911.301536,221.627615L912.825570,218.647091L913.930303,216.484921L914.765133,214.850071L914.932921,214.521394L914.965632,214.457314L915.014662,214.361261L915.176868,214.043474L915.400501,213.605289L917.219112,212.768754L917.393411,212.688552L920.992960,211.031164L921.436010,210.827022L922.248465,210.452591L922.375063,210.394237L922.725704,210.232600L923.116322,210.052511L923.116322,210.052509L923.183819,209.410433L923.361308,207.721067L923.465464,206.729035L923.562939,205.800188L923.922157,202.373497L923.959313,202.018727L923.992542,201.701386L924.214587,199.579602L925.535859,186.907367L925.633268,185.969939L926.254249,179.983459L926.262522,179.903580L926.708243,175.595372L926.714903,175.530922L926.879488,173.937676L926.879488,173.937673L926.576953,173.565960L923.747560,170.087932L923.709135,170.040678L923.565832,169.864441L923.485409,169.765532L923.483665,169.763387L922.985847,169.151083L921.977298,167.910309L921.836211,167.736705L921.404357,167.205274L921.326874,167.109917L920.009382,165.488162L916.354629,166.237598L914.572582,166.602443L913.343541,164.030346L913.224537,163.781236L913.221475,163.774826L911.157536,159.452643L910.718513,158.532838L907.952653,157.560825L901.393840,155.251734L901.924582,160.057016L902.441817,164.741049L902.451606,164.829710L902.481586,165.101238L892.045523,170.674424L889.704541,171.921946L889.848061,174.289297L890.127043,178.895173L886.287134,181.684382L884.597488,182.910598L880.680625,185.268471L880.089079,184.192841L879.000632,182.213084L877.365207,179.236998L872.704284,179.402665L872.893053,181.447893L873.135122,184.071116L873.135119,184.071118L868.372207,186.098189L865.693413,187.236762L865.693412,187.236762L858.715705,179.655470L858.101002,180.418829L851.260333,188.901212L848.756440,190.143330L843.013620,192.988258L841.684306,193.646004L835.349303,196.776541L835.349301,196.776542L832.685055,200.129638L822.701688,212.662543L822.701652,212.662617L819.095231,220.102717L816.323964,225.808861L814.993684,228.544572L811.139898,236.457502L807.621939,243.664935L803.709261,245.812125L799.368574,248.191001L799.366658,250.823938L799.364733,253.259618L799.364704,253.295502L799.364027,254.109433L799.360541,258.025027L799.356672,261.943516L805.633462,261.218544L806.432613,261.125925L806.173469,262.339980L804.599085,269.705186L804.387951,270.691521L810.301865,273.006630L811.551150,273.495061L813.511925,274.261221L817.432477,285.185924L817.566834,285.559981L818.105803,287.060279L815.974678,290.378020L811.293923,297.653547L807.853046,302.991847L792.064457,327.378954L792.261010,334.619376L792.278186,335.253756L792.288123,335.620906L792.345532,337.743732L792.589191,346.787488L795.794440,353.056404L791.192226,356.152000L790.352946,356.716042L787.834307,358.407806L786.969825,361.398921L788.336479,362.571003L789.927046,363.934533L791.211419,365.035117L791.119832,365.391853L790.446994,368.011395L789.457197,371.861066L787.913604,370.639079L786.304449,369.364609L786.304448,369.364608L781.709231,370.227818L774.325716,371.609662L770.872407,381.370138L772.026577,382.646959L774.084468,384.922429L764.519245,384.613539L756.565229,384.349104L753.841780,384.256981L753.841467,384.257253L740.427427,395.862882L740.136056,390.689063L733.153322,381.148166L732.002141,380.898709L729.372772,380.328349L728.589703,380.158328L725.527074,379.492674L722.755447,384.483335L717.073890,394.691640L716.428411,395.849535L711.920470,403.925545L705.939302,407.220725L702.537666,409.091962L704.550263,410.675340L712.871081,417.211786L714.333235,421.675922L720.870565,441.596436L719.720086,446.957554L718.681712,451.788574L718.663079,451.875194L718.727022,451.907969L725.153092,455.198362L731.385235,458.383138L732.156525,459.455847L734.821118,463.159665L735.648257,464.308740L741.198353,472.010949L740.949504,477.119346L740.939444,477.325489L740.604569,484.172349L739.480840,475.389845L738.853864,470.488199L733.568351,469.029118L731.115628,468.350864L724.252340,466.448997L714.056790,477.597863L714.199906,479.310929L714.733490,485.698643L711.752432,483.280357L711.347364,482.951598L710.401030,482.183388L709.475757,485.338129L708.288615,489.381514L702.646474,494.031714L699.641107,491.226093L696.636888,488.419065L696.636886,488.419064L692.580751,492.291272L688.004151,496.654086L687.814960,496.834297L687.728766,496.703170L683.676589,490.534249L681.711940,487.540209L673.607683,483.823381L679.262208,491.590558L675.078032,496.067398L671.847873,499.519036L675.700524,504.688648L677.473741,507.065817L681.014158,511.807959L692.441991,515.277168L693.968165,515.739226L693.968170,515.739228L693.968171,515.739228L704.422259,524.401005L706.470529,527.212459L708.732465,530.314994L709.881668,531.890393L713.759415,537.201871L715.627173,539.757797L720.026872,541.823397L729.008944,546.031248L732.417389,553.753433L732.633238,554.242094L734.016378,557.372352L737.865693,566.074520L743.402257,570.950086L744.348265,571.782370L744.606770,571.788205L746.764015,571.836616L747.090039,571.843889L749.838706,571.904747L753.064319,577.317978L755.014662,580.588052L762.234748,578.853801L768.022409,581.952124L769.997558,583.008228L775.732185,586.070885Z " data-nuts-id="LV005" data-shape-area="2.11294992311e+000" data-shape-leng="8.88615704584e+000" data-stat-levl-="3"/><path d="M403.944232,274.239992L404.012185,276.903046L406.071296,277.779636L409.016746,279.032475L414.262454,278.600570L414.650180,282.535683L410.814723,285.662476L405.899144,289.664292L414.107336,293.373664L415.970777,294.214359L419.294575,295.712598L423.960742,297.813120L423.236500,305.299590L423.158301,306.106837L427.974000,304.781134L427.538595,302.989564L427.438073,302.575860L427.293453,301.980620L433.082461,297.822856L433.903431,297.232614L434.710550,297.876411L440.349163,302.369711L444.166640,305.407483L449.454731,309.609780L452.591665,309.360717L456.032242,309.086307L451.076874,306.089436L446.939496,303.583806L445.923927,296.830342L445.568630,294.466126L444.978304,290.536258L444.909344,290.077041L444.909343,290.077037L447.412597,285.399063L448.865089,287.061970L456.955523,281.944333L449.544672,271.803836L446.039623,271.204905L441.459678,270.420183L438.757113,265.071607L437.697764,262.973356L437.029185,261.648605L436.243952,261.536585L433.057610,261.081316L429.841181,256.097482L428.241044,253.615827L428.241043,253.615826L416.368862,259.355913L416.368859,259.355915L415.167608,260.797897L405.892879,271.910059L403.944232,274.239992Z " data-nuts-id="LV006" data-shape-area="4.54959010695e-002" data-shape-leng="1.29981819313e+000" data-stat-levl-="3"/><path d="M514.869531,30.100707L511.286545,25.845252L511.286544,25.845250L502.674263,28.295034L498.028978,32.174298L495.726837,34.094633L494.534455,35.088695L490.018311,35.886476L485.641608,36.657362L482.267147,34.086139L475.805436,37.936923L473.982806,39.021659L473.982805,39.021660L473.910113,39.284569L473.097548,42.222096L466.477538,43.896326L464.432649,48.173349L465.342016,51.058176L466.594399,55.028589L460.343754,59.125402L455.896880,57.590654L453.485784,56.757402L452.520758,56.423680L452.136561,58.746008L451.690782,61.438552L451.202664,64.384346L450.850030,66.510877L450.356476,69.484957L452.888673,100.130327L456.675600,112.127640L457.666380,115.262012L458.632310,118.315978L459.396403,120.730550L458.990239,122.189221L458.445271,124.145474L457.673653,126.913540L456.650629,130.580274L457.385036,136.796452L457.924107,141.356464L465.791577,207.640887L456.943714,225.417630L450.015004,232.249389L445.593451,236.600781L428.241043,253.615826L428.241044,253.615827L429.841181,256.097482L433.057610,261.081316L436.243952,261.536585L437.029185,261.648605L437.697764,262.973356L438.757113,265.071607L441.459678,270.420183L446.039623,271.204905L449.544672,271.803836L456.955523,281.944333L448.865089,287.061970L447.412597,285.399063L444.909343,290.077037L444.909344,290.077041L444.978304,290.536258L445.568630,294.466126L445.923927,296.830342L446.939496,303.583806L451.076874,306.089436L456.032242,309.086307L452.591665,309.360717L449.454731,309.609780L444.166640,305.407483L440.349163,302.369711L434.710550,297.876411L433.903431,297.232614L433.082461,297.822856L427.293453,301.980620L427.438073,302.575860L427.538595,302.989564L427.974000,304.781134L423.158301,306.106837L423.236500,305.299590L423.960742,297.813120L419.294575,295.712598L415.970777,294.214359L414.107336,293.373664L405.899144,289.664292L410.814723,285.662476L414.650180,282.535683L414.262454,278.600570L409.016746,279.032475L406.071296,277.779636L404.012185,276.903046L403.944232,274.239992L398.804060,276.500297L387.350409,281.522532L387.350408,281.522533L362.270481,285.800546L360.298543,285.075848L356.123358,283.539693L352.532719,282.216702L350.686507,279.538652L345.744583,272.361063L343.286278,268.785753L341.014880,268.503340L328.234090,266.903542L318.482040,262.010110L318.482038,262.010109L309.307865,251.368800L308.414043,237.235254L304.700566,229.090216L302.253131,223.713921L302.056577,223.281867L300.602135,220.083491L300.602134,220.083490L296.032961,199.830365L290.092648,203.332677L290.478972,205.035057L291.122714,207.870520L292.921246,215.784103L289.430200,216.613616L288.476957,218.418146L287.511695,220.244567L287.389737,220.475269L286.285991,222.562544L284.194283,226.515047L278.410903,230.102441L276.923199,231.024211L275.891231,231.663360L273.684241,233.029568L272.679512,233.651222L270.079330,235.259125L269.384300,235.688698L267.385751,246.495943L260.887246,244.828014L257.928744,244.066966L254.390993,243.155507L244.360105,251.332108L239.390997,252.583187L234.851569,253.723457L232.656466,254.273950L228.526122,255.308178L230.852149,268.710135L229.239261,275.277050L225.225227,274.795180L221.172961,274.306906L220.267674,275.142999L219.970265,275.417623L216.539435,278.583729L214.050907,277.110118L210.468311,274.986652L207.731749,281.775266L205.308680,287.776943L202.813950,293.947075L203.238297,295.966700L203.468419,297.061582L203.656883,297.958078L204.107637,300.101570L204.698073,300.115356L215.360696,300.357837L214.742781,301.989308L213.401376,305.528807L210.204403,313.952437L209.501232,315.802930L211.854199,317.564512L214.200647,319.319962L216.983370,319.312088L219.482408,319.304306L224.201405,319.287775L228.626819,322.341414L229.093644,322.663296L233.900252,325.974870L236.895913,328.036335L239.470920,329.806834L239.470922,329.806835L239.470927,329.806833L240.951197,329.269277L244.440157,328.001088L245.182126,327.731178L249.775143,329.709828L251.428747,330.421432L254.146552,334.736326L254.804167,335.779682L254.519687,348.960085L254.470114,351.249308L254.382532,355.288274L258.039124,355.517586L258.420895,355.007604L259.213310,353.948836L260.735725,351.913809L261.763618,350.539155L277.531015,348.843479L281.772647,353.349863L283.196575,354.861286L287.054751,354.317804L287.809299,354.211320L296.653297,352.958470L296.653298,352.958470L301.918738,354.689260L301.918766,354.689269L302.928809,355.020864L304.473825,351.681429L304.483845,351.659761L306.659922,346.951549L316.345997,350.786529L325.993677,339.381220L321.381886,332.885867L328.033650,327.043871L329.873202,325.426084L331.215703,327.842027L331.765799,328.831575L331.991320,329.237191L340.967801,327.428491L341.137250,327.394258L344.898500,323.682239L344.898504,323.682235L344.144732,319.775743L341.506739,306.082656L359.285042,303.933260L363.130363,303.463740L370.295590,308.948027L374.873651,312.445920L376.553255,317.549658L377.698857,321.027779L381.808159,323.517842L382.877098,324.165063L382.721587,325.865878L382.327515,330.171730L381.886747,334.980869L381.394905,340.338659L381.395166,340.338847L387.898795,345.033417L387.898797,345.033418L391.961545,341.698414L391.961548,341.698412L404.363922,339.854854L405.900511,343.692360L410.335767,343.595579L414.375554,343.505579L415.900851,347.075443L415.968560,347.233849L417.265476,350.267002L417.744249,351.386242L421.498797,351.339493L422.708129,351.324111L423.227422,351.317458L425.152909,351.292534L429.811070,351.230584L430.117207,352.526332L430.803115,355.428428L431.062762,356.526620L437.385909,358.290472L442.596926,354.702200L448.948263,350.320870L464.218865,358.429951L465.036453,357.980620L465.749446,357.588677L474.730184,352.644218L482.430036,343.573207L482.430036,343.573206L486.995841,343.549320L501.366479,343.459449L501.366481,343.459449L502.495854,352.991260L499.817275,353.304123L494.230845,353.954067L497.491775,368.027285L500.210441,371.096481L501.130269,371.057544L502.667753,370.992256L506.502652,370.828295L511.665217,376.135146L509.372745,377.910034L509.023747,378.180125L504.634669,381.574334L506.001743,383.933482L506.808184,385.324560L507.108294,385.842125L507.369300,386.292205L509.764868,386.069205L518.252990,385.273989L518.252991,385.273988L520.781931,383.683893L529.675425,378.082060L559.074083,371.242878L558.180641,367.040946L554.548893,349.934033L556.189306,347.910623L556.862338,347.080094L560.305089,342.828414L559.577244,342.178761L554.974048,338.066810L561.296527,336.240796L563.916768,335.482554L572.028294,339.976713L574.920139,341.576215L578.986659,343.823028L584.187418,343.977822L589.640572,344.136982L589.640572,344.136982L590.414950,341.067695L591.290099,337.595739L585.598365,335.776452L584.196748,335.327801L586.472401,333.107942L587.669869,331.939150L588.329270,331.295341L592.218181,327.495474L595.111110,328.196531L598.611681,329.043494L600.154806,329.416384L608.155053,324.692558L608.915112,324.243151L611.370430,322.790635L614.438060,318.497330L618.462038,312.857327L618.462145,312.857176L618.462145,312.857173L618.429323,305.526364L618.129321,305.442454L615.934437,304.828204L615.375547,304.671700L615.375546,304.671699L614.711623,300.940186L614.711623,300.940181L617.859586,299.440576L620.823328,298.027285L618.020605,293.313790L619.494682,289.211650L621.410018,283.874538L618.020457,274.863704L616.578583,271.026134L612.856942,267.840340L611.021877,268.886493L609.484752,269.762321L608.506889,270.319268L606.705880,271.344586L609.494985,272.874726L610.751153,273.563445L610.129272,275.873750L607.383504,278.806146L601.964694,284.584974L601.964693,284.584975L598.808786,279.486448L596.764901,276.181288L594.701854,272.842613L588.653735,273.294604L585.447453,278.147693L584.685217,279.300430L581.593763,283.971748L583.274180,287.064365L583.274169,287.064362L581.234750,286.520684L576.473093,285.249304L569.144028,283.286961L569.144028,283.286959L566.406161,272.704013L565.500442,269.199106L561.954090,255.456658L561.497401,253.684743L563.306710,251.929746L563.905779,251.348424L565.104907,250.184467L562.919933,245.323853L559.596885,240.150796L558.176712,237.938063L558.176481,237.938086L549.795086,238.749643L549.677617,238.760962L545.456743,239.166667L545.456742,239.166667L542.065698,234.865084L543.471535,226.146072L538.902885,219.678626L537.742160,218.033833L535.640928,215.054596L534.339303,213.207980L534.700609,212.149219L534.945578,211.431192L535.363627,210.205530L536.557531,206.702895L537.329784,204.435492L538.277919,201.649754L536.130839,199.379808L531.239960,194.203334L531.986466,190.128825L532.290040,188.470448L532.315829,188.329527L530.786707,187.928491L527.864343,187.161256L524.094566,177.621850L523.494080,176.100675L523.432743,175.945267L521.233175,170.369183L521.233174,170.369181L516.298037,169.562137L514.951841,169.341511L515.015401,164.759161L519.135868,165.970067L524.863652,167.649749L525.530217,167.844950L530.370000,164.095745L535.539866,160.084441L539.418466,157.070684L541.604298,155.370600L547.252916,150.971746L550.872296,148.148979L552.937905,146.536536L553.838499,145.833188L551.537371,142.408984L545.566742,133.511085L542.399143,128.782674L533.426039,131.610503L530.406922,132.559587L530.406921,132.559586L527.877918,129.777297L527.890392,118.506188L531.806668,119.636558L531.832131,119.643901L537.713535,111.770948L546.281680,115.421767L552.133251,113.641250L552.287062,113.594389L552.121955,113.428301L551.489326,112.791834L546.562238,107.830566L550.992100,107.218003L549.853340,102.257565L548.556710,96.604835L548.211109,95.097337L550.760764,87.796306L549.413921,82.828911L548.068174,77.861440L548.068171,77.861439L542.855437,75.155655L542.267672,74.850281L533.075990,70.067287L532.514374,69.774590L526.645447,66.712754L524.740648,65.717785L524.739933,65.717411L524.739932,65.717410L521.811974,55.174954L519.489935,46.800496L514.869531,30.100707Z " data-nuts-id="LV007" data-shape-area="1.50833935534e+000" data-shape-leng="1.18517205923e+001" data-stat-levl-="3"/><path d="M561.428264,0.000000L549.279717,2.491612L547.043917,5.444333L541.936349,12.179665L538.803646,17.868305L529.553300,20.397744L529.498794,20.412616L515.910440,29.412867L514.869531,30.100707L519.489935,46.800496L521.811974,55.174954L524.739932,65.717410L524.739933,65.717411L524.740648,65.717785L526.645447,66.712754L532.514374,69.774590L533.075990,70.067287L542.267672,74.850281L542.855437,75.155655L548.068171,77.861439L548.068174,77.861440L549.413921,82.828911L550.760764,87.796306L548.211109,95.097337L548.556710,96.604835L549.853340,102.257565L550.992100,107.218003L546.562238,107.830566L551.489326,112.791834L552.121955,113.428301L552.287062,113.594389L552.133251,113.641250L546.281680,115.421767L537.713535,111.770948L531.832131,119.643901L531.806668,119.636558L527.890392,118.506188L527.877918,129.777297L530.406921,132.559586L530.406922,132.559587L533.426039,131.610503L542.399143,128.782674L545.566742,133.511085L551.537371,142.408984L553.838499,145.833188L552.937905,146.536536L550.872296,148.148979L547.252916,150.971746L541.604298,155.370600L539.418466,157.070684L535.539866,160.084441L530.370000,164.095745L525.530217,167.844950L524.863652,167.649749L519.135868,165.970067L515.015401,164.759161L514.951841,169.341511L516.298037,169.562137L521.233174,170.369181L521.233175,170.369183L523.432743,175.945267L523.494080,176.100675L524.094566,177.621850L527.864343,187.161256L530.786707,187.928491L532.315829,188.329527L532.290040,188.470448L531.986466,190.128825L531.239960,194.203334L536.130839,199.379808L538.277919,201.649754L537.329784,204.435492L536.557531,206.702895L535.363627,210.205530L534.945578,211.431192L534.700609,212.149219L534.339303,213.207980L535.640928,215.054596L537.742160,218.033833L538.902885,219.678626L543.471535,226.146072L542.065698,234.865084L545.456742,239.166667L545.456743,239.166667L549.677617,238.760962L549.795086,238.749643L558.176481,237.938086L558.176712,237.938063L559.596885,240.150796L562.919933,245.323853L565.104907,250.184467L563.905779,251.348424L563.306710,251.929746L561.497401,253.684743L561.954090,255.456658L565.500442,269.199106L566.406161,272.704013L569.144028,283.286959L569.144028,283.286961L576.473093,285.249304L581.234750,286.520684L583.274169,287.064362L583.274180,287.064365L581.593763,283.971748L584.685217,279.300430L585.447453,278.147693L588.653735,273.294604L594.701854,272.842613L596.764901,276.181288L598.808786,279.486448L601.964693,284.584975L601.964694,284.584974L607.383504,278.806146L610.129272,275.873750L610.751153,273.563445L609.494985,272.874726L606.705880,271.344586L608.506889,270.319268L609.484752,269.762321L611.021877,268.886493L612.856942,267.840340L616.578583,271.026134L618.020457,274.863704L621.410018,283.874538L619.494682,289.211650L618.020605,293.313790L620.823328,298.027285L617.859586,299.440576L614.711623,300.940181L614.711623,300.940186L615.375546,304.671699L615.375547,304.671700L615.934437,304.828204L618.129321,305.442454L618.429323,305.526364L618.462145,312.857173L618.462145,312.857176L618.462146,312.857177L625.052072,316.164020L626.377774,315.718621L632.049762,313.810346L635.844173,316.247077L639.387874,318.520321L641.607050,319.942677L646.070771,322.800806L650.560890,320.288526L650.640620,314.534266L650.644655,314.241624L650.696791,310.448536L653.577126,308.743216L653.577127,308.743217L658.278398,312.601441L664.027814,317.312619L664.738109,319.571330L665.783602,322.894457L664.263832,324.870071L663.418329,325.968665L661.608466,328.319056L663.251316,332.796799L664.626966,336.543569L670.881985,338.990260L672.464240,339.608304L672.465006,339.608603L672.807650,339.742398L680.304275,342.665553L675.364181,346.657034L678.821476,352.802266L681.951219,349.544851L685.058828,346.306957L688.345183,351.845434L690.210479,354.986055L690.473651,355.428989L691.763909,357.599955L693.714711,356.156748L697.029589,353.702356L702.872742,349.369721L706.030555,347.024903L714.378086,348.914620L715.914826,353.185255L716.718111,355.416386L718.151513,359.395596L720.259913,358.191524L725.326902,355.294537L727.167326,363.595529L735.634039,358.176854L736.788270,356.130971L740.895151,348.841766L740.895157,348.841769L754.894058,358.161247L754.894059,358.161248L769.854799,358.857796L768.440552,367.617696L768.143098,369.456664L769.327062,369.869355L773.259685,371.238797L774.325716,371.609662L781.709231,370.227818L786.304448,369.364608L786.304449,369.364609L787.913604,370.639079L789.457197,371.861066L790.446994,368.011395L791.119832,365.391853L791.211419,365.035117L789.927046,363.934533L788.336479,362.571003L786.969825,361.398921L787.834307,358.407806L790.352946,356.716042L791.192226,356.152000L795.794440,353.056404L792.589191,346.787488L792.345532,337.743732L792.288123,335.620906L792.278186,335.253756L792.261010,334.619376L792.064457,327.378954L807.853046,302.991847L811.293923,297.653547L815.974678,290.378020L818.105803,287.060279L817.566834,285.559981L817.432477,285.185924L813.511925,274.261221L811.551150,273.495061L810.301865,273.006630L804.387951,270.691521L804.599085,269.705186L806.173469,262.339980L806.432613,261.125925L805.633462,261.218544L799.356672,261.943516L799.360541,258.025027L799.364027,254.109433L799.364704,253.295502L799.364733,253.259618L799.366658,250.823938L799.368574,248.191001L803.709261,245.812125L807.621939,243.664935L811.139898,236.457502L814.993684,228.544572L816.323964,225.808861L819.095231,220.102717L822.701652,212.662617L822.701688,212.662543L832.685055,200.129638L835.349301,196.776542L835.349303,196.776541L841.684306,193.646004L843.013620,192.988258L848.756440,190.143330L851.260333,188.901212L858.101002,180.418829L858.715705,179.655470L865.693412,187.236762L865.693413,187.236762L868.372207,186.098189L873.135119,184.071118L873.135122,184.071116L872.893053,181.447893L872.704284,179.402665L877.365207,179.236998L879.000632,182.213084L880.089079,184.192841L880.680625,185.268471L884.597488,182.910598L886.287134,181.684382L890.127043,178.895173L889.848061,174.289297L889.704541,171.921946L892.045523,170.674424L902.481586,165.101238L902.451606,164.829710L902.441817,164.741049L901.924582,160.057016L901.393840,155.251734L899.629177,151.936446L899.529222,151.748597L898.769507,150.320618L898.295042,149.428603L890.947969,147.269687L890.904224,147.256812L885.269018,145.596243L884.674498,145.420816L879.649119,143.936162L877.458060,143.287848L877.326254,143.248829L877.274168,143.233409L879.280918,134.670089L880.950964,127.524340L882.131322,122.463235L882.159124,122.343921L881.741793,120.928870L881.723688,120.867477L880.123196,115.438238L874.696355,115.438388L872.730506,115.437644L870.636288,116.446863L869.792524,116.853275L868.709688,117.374669L866.955716,118.218813L864.892163,119.211305L864.426193,119.435322L863.959676,119.659568L863.730360,119.769782L863.344509,119.955211L861.809247,120.692772L861.251055,120.421952L860.712586,120.160655L858.019306,118.853034L858.002774,118.845004L856.188431,117.963472L855.214095,119.603018L853.520833,122.450392L853.248764,122.302739L851.811807,121.522689L847.602627,119.235744L840.518762,115.380188L835.441001,115.016273L835.343712,115.009272L831.140317,114.705817L831.137433,114.705608L828.825223,114.537849L825.922171,114.326384L821.752238,114.021003L817.685962,110.795458L809.610543,104.378330L809.610542,104.378329L805.849076,104.624840L804.825333,104.691661L801.609813,104.900787L795.161183,98.284590L786.992343,104.412411L787.113650,105.315757L787.389930,107.373071L787.416247,107.569039L787.593431,108.888354L784.143457,111.483975L781.664565,112.160107L778.162722,113.113928L777.153406,113.388554L775.567925,113.819689L771.024056,115.053529L767.795632,115.928587L763.382567,117.122610L760.966073,120.307784L755.936190,126.927497L756.543961,131.852396L744.289013,130.961025L740.833641,129.139759L735.772298,116.801734L727.025552,118.188418L718.912523,116.166589L713.772587,114.881518L711.392898,114.285461L710.858141,113.094802L704.222995,98.298966L701.290876,95.937139L700.996397,95.699823L695.792820,91.502927L697.047948,88.622045L697.606023,87.340328L698.839414,84.505942L698.839414,84.505941L697.102371,83.023823L695.576613,81.721352L691.053859,77.857008L689.229128,76.296446L679.172204,73.908791L677.209325,73.441348L674.070070,72.692791L674.358053,70.783110L675.046676,66.211338L675.513843,63.105506L677.080361,52.665346L671.161668,51.019707L669.325853,50.508381L669.325852,50.508382L668.833857,50.886489L667.406375,51.983194L664.715066,54.049490L658.449517,52.852118L654.601126,52.114398L651.518547,51.522231L645.813243,50.423300L645.813242,50.423299L643.270130,45.320620L641.598366,41.963353L641.032446,40.826337L636.859465,38.141605L634.079054,36.350921L634.079053,36.350920L632.180642,38.801210L629.887674,41.758263L626.683023,41.667459L624.361207,39.112801L621.019388,35.432556L617.111095,33.972224L617.110712,33.972081L617.110536,33.972015L617.109507,33.971630L616.524086,33.752706L613.203091,32.509884L613.653830,31.512156L614.554913,29.516721L612.029878,25.158707L605.812806,25.381572L605.205809,25.403104L600.371841,25.573136L594.731959,20.819373L596.850296,18.780461L597.092869,18.546888L597.471925,18.181857L595.300817,15.788561L592.559898,14.986888L585.098219,12.799622L583.637384,12.370572L574.068039,0.413916L570.309600,5.902502L570.309604,5.902506L573.856387,9.927156L575.727571,12.048592L575.903621,20.210220L575.907997,20.413612L575.939560,21.881246L575.947637,22.257007L573.556838,23.237994L573.556838,23.237993L566.062881,16.542742L564.429532,10.717928L562.712504,4.588558L561.428264,0.000000Z " data-nuts-id="LV008" data-shape-area="2.27578920609e+000" data-shape-leng="1.01004473361e+001" data-stat-levl-="3"/><path d="M618.462145,312.857176L618.462038,312.857327L614.438060,318.497330L611.370430,322.790635L608.915112,324.243151L608.155053,324.692558L600.154806,329.416384L598.611681,329.043494L595.111110,328.196531L592.218181,327.495474L588.329270,331.295341L587.669869,331.939150L586.472401,333.107942L584.196748,335.327801L585.598365,335.776452L591.290099,337.595739L590.414950,341.067695L589.640572,344.136982L589.640572,344.136982L584.187418,343.977822L578.986659,343.823028L574.920139,341.576215L572.028294,339.976713L563.916768,335.482554L561.296527,336.240796L554.974048,338.066810L559.577244,342.178761L560.305089,342.828414L556.862338,347.080094L556.189306,347.910623L554.548893,349.934033L558.180641,367.040946L559.074083,371.242878L529.675425,378.082060L520.781931,383.683893L518.252991,385.273988L518.252990,385.273989L509.764868,386.069205L507.369300,386.292205L507.108294,385.842125L506.808184,385.324560L506.001743,383.933482L504.634669,381.574334L509.023747,378.180125L509.372745,377.910034L511.665217,376.135146L506.502652,370.828295L502.667753,370.992256L501.130269,371.057544L500.210441,371.096481L497.491775,368.027285L494.230845,353.954067L499.817275,353.304123L502.495854,352.991260L501.366481,343.459449L501.366479,343.459449L486.995841,343.549320L482.430036,343.573206L482.430036,343.573207L474.730184,352.644218L465.749446,357.588677L465.036453,357.980620L464.218865,358.429951L448.948263,350.320870L442.596926,354.702200L437.385909,358.290472L431.062762,356.526620L430.803115,355.428428L430.117207,352.526332L429.811070,351.230584L425.152909,351.292534L423.227422,351.317458L422.708129,351.324111L421.498797,351.339493L417.744249,351.386242L417.265476,350.267002L415.968560,347.233849L415.900851,347.075443L414.375554,343.505579L410.335767,343.595579L405.900511,343.692360L404.363922,339.854854L391.961548,341.698412L391.961545,341.698414L387.898797,345.033418L387.898795,345.033417L381.395166,340.338847L381.394905,340.338659L381.886747,334.980869L382.327515,330.171730L382.721587,325.865878L382.877098,324.165063L381.808159,323.517842L377.698857,321.027779L376.553255,317.549658L374.873651,312.445920L370.295590,308.948027L363.130363,303.463740L359.285042,303.933260L341.506739,306.082656L344.144732,319.775743L344.898504,323.682235L344.898500,323.682239L341.137250,327.394258L340.967801,327.428491L331.991320,329.237191L331.765799,328.831575L331.215703,327.842027L329.873202,325.426084L328.033650,327.043871L321.381886,332.885867L325.993677,339.381220L316.345997,350.786529L306.659922,346.951549L304.483845,351.659761L304.473825,351.681429L302.928809,355.020864L301.918766,354.689269L301.918738,354.689260L296.653298,352.958470L296.653297,352.958470L287.809299,354.211320L287.054751,354.317804L283.196575,354.861286L281.772647,353.349863L277.531015,348.843479L261.763618,350.539155L260.735725,351.913809L259.213310,353.948836L258.420895,355.007604L258.039124,355.517586L254.382532,355.288274L252.219996,357.173761L251.343010,357.938029L250.312598,358.835734L253.812547,358.614196L255.993087,358.475502L256.139267,358.466186L257.159496,360.551163L260.667797,367.713220L260.667796,367.713223L260.260374,368.819052L257.620940,375.975881L257.284366,376.887614L250.836952,375.933435L249.496158,375.734420L248.840759,375.637065L248.840757,375.637065L250.278738,379.174369L252.437361,384.479207L253.187220,386.320542L252.813848,386.483567L250.522223,387.483709L250.233598,387.609619L248.732755,388.264149L248.708991,388.274510L246.923203,389.052865L246.122478,389.401716L244.923550,388.326566L243.352530,386.917140L243.352529,386.917141L242.442042,397.399468L242.178966,400.422877L241.790741,404.880208L243.038549,406.374486L243.922030,407.432091L245.140117,408.889729L246.193193,410.149420L245.867921,411.325524L242.776359,422.487546L242.776365,422.487547L252.877336,424.175064L253.540284,424.831016L256.382761,427.641942L265.150455,428.026910L269.117722,428.198379L271.162865,425.318944L271.919125,424.253599L276.278281,425.327866L279.970795,426.236059L279.970796,426.236059L280.776809,429.341455L282.299970,435.204637L285.152374,446.166177L288.226680,447.031650L292.089627,448.117477L295.872683,449.179055L298.196164,447.687385L303.261140,444.431998L305.635517,442.904186L305.241001,441.491944L304.362615,438.346176L303.607506,435.640327L319.068233,434.063264L320.234120,433.099600L322.473831,431.247389L334.099124,432.409802L336.413926,434.591463L339.379423,437.384123L339.858063,437.834627L340.689099,438.616656L349.462275,441.329618L355.326192,443.137470L355.326193,443.137469L360.060929,440.192753L361.414107,439.350369L364.942363,437.152296L366.404027,436.240990L375.698924,434.214425L377.393268,433.843911L380.666762,433.127116L385.301512,432.110086L387.501048,433.445873L387.163242,435.727962L386.672115,439.043264L385.878181,444.396204L387.951575,445.156421L388.448750,444.214813L390.836108,439.690144L392.640442,439.826386L399.428927,440.335800L399.764725,440.360868L406.008462,440.824755L416.019629,441.559705L420.553014,441.888933L420.553015,441.888933L422.413521,447.469964L424.661512,454.205336L431.822328,454.567598L433.282411,457.477197L433.448066,457.807192L434.532214,459.966296L435.304308,461.503320L439.440787,460.257479L442.903971,460.752521L443.923057,459.441738L445.432881,457.498830L446.112172,456.624330L452.854897,453.825268L454.633855,453.085681L458.220625,451.593114L457.485367,447.881983L460.138030,447.990187L463.828970,448.139480L474.257515,453.860472L481.040359,457.571601L487.712799,454.370903L498.014378,449.415523L497.502480,443.281146L497.294412,440.787138L501.455167,436.478696L503.963578,433.878318L503.738768,427.867751L511.793109,427.052058L513.212125,424.386362L513.923566,423.049163L514.420847,422.114207L515.110945,420.816339L518.076147,420.140900L526.940289,418.115504L529.317391,417.570760L535.473730,416.156822L535.206975,414.513410L534.662482,411.157855L534.627715,410.943551L536.671548,407.647152L538.688784,407.825723L540.498898,407.985581L543.102282,410.402380L543.102281,410.402382L542.559669,412.520199L542.332754,413.405481L541.501412,416.647007L541.501416,416.647011L544.816765,420.738416L545.442977,421.510715L548.198743,424.907488L550.815366,428.129930L551.068375,431.199302L551.933651,441.694173L555.482990,444.886754L557.154551,446.389131L557.819192,446.986295L558.609908,447.696580L561.382661,450.185969L563.863812,452.411819L565.546662,458.051140L565.885903,459.187302L569.624076,471.692471L569.624077,471.692472L575.577660,472.986403L580.672367,474.090363L583.288333,472.574638L585.839530,471.095241L589.075494,469.217054L591.237480,471.276839L591.348891,471.382947L593.263451,473.205830L600.805720,480.376802L608.956036,477.734033L612.933222,476.441263L615.162258,479.301749L615.395692,479.601190L621.630642,479.329282L621.926984,479.316253L626.970362,479.093069L627.521286,478.358272L629.722409,475.420929L631.019144,473.689276L632.365246,475.575888L633.994001,477.857501L635.381034,479.799515L640.501333,480.876188L647.233089,480.373314L647.233097,480.373313L650.066602,476.594234L651.425092,479.002717L654.144690,483.820623L653.564088,487.808411L653.202813,490.287072L652.943366,492.065820L655.441597,493.053618L662.172350,495.710621L668.172864,498.074037L669.988437,498.788148L671.847873,499.519036L675.078032,496.067398L679.262208,491.590558L673.607683,483.823381L681.711940,487.540209L683.676589,490.534249L687.728766,496.703170L687.814960,496.834297L688.004151,496.654086L692.580751,492.291272L696.636886,488.419064L696.636888,488.419065L699.641107,491.226093L702.646474,494.031714L708.288615,489.381514L709.475757,485.338129L710.401030,482.183388L711.347364,482.951598L711.752432,483.280357L714.733490,485.698643L714.199906,479.310929L714.056790,477.597863L724.252340,466.448997L731.115628,468.350864L733.568351,469.029118L738.853864,470.488199L739.480840,475.389845L740.604569,484.172349L740.939444,477.325489L740.949504,477.119346L741.198353,472.010949L735.648257,464.308740L734.821118,463.159665L732.156525,459.455847L731.385235,458.383138L725.153092,455.198362L718.727022,451.907969L718.663079,451.875194L718.681712,451.788574L719.720086,446.957554L720.870565,441.596436L714.333235,421.675922L712.871081,417.211786L704.550263,410.675340L702.537666,409.091962L705.939302,407.220725L711.920470,403.925545L716.428411,395.849535L717.073890,394.691640L722.755447,384.483335L725.527074,379.492674L728.589703,380.158328L729.372772,380.328349L732.002141,380.898709L733.153322,381.148166L740.136056,390.689063L740.427427,395.862882L753.841467,384.257253L753.841780,384.256981L756.565229,384.349104L764.519245,384.613539L774.084468,384.922429L772.026577,382.646959L770.872407,381.370138L774.325716,371.609662L773.259685,371.238797L769.327062,369.869355L768.143098,369.456664L768.440552,367.617696L769.854799,358.857796L754.894059,358.161248L754.894058,358.161247L740.895157,348.841769L740.895151,348.841766L736.788270,356.130971L735.634039,358.176854L727.167326,363.595529L725.326902,355.294537L720.259913,358.191524L718.151513,359.395596L716.718111,355.416386L715.914826,353.185255L714.378086,348.914620L706.030555,347.024903L702.872742,349.369721L697.029589,353.702356L693.714711,356.156748L691.763909,357.599955L690.473651,355.428989L690.210479,354.986055L688.345183,351.845434L685.058828,346.306957L681.951219,349.544851L678.821476,352.802266L675.364181,346.657034L680.304275,342.665553L672.807650,339.742398L672.465006,339.608603L672.464240,339.608304L670.881985,338.990260L664.626966,336.543569L663.251316,332.796799L661.608466,328.319056L663.418329,325.968665L664.263832,324.870071L665.783602,322.894457L664.738109,319.571330L664.027814,317.312619L658.278398,312.601441L653.577127,308.743217L653.577126,308.743216L650.696791,310.448536L650.644655,314.241624L650.640620,314.534266L650.560890,320.288526L646.070771,322.800806L641.607050,319.942677L639.387874,318.520321L635.844173,316.247077L632.049762,313.810346L626.377774,315.718621L625.052072,316.164020L618.462146,312.857177L618.462145,312.857176Z " data-nuts-id="LV009" data-shape-area="1.56104926391e+000" data-shape-leng="1.15355408638e+001" data-stat-levl-="3"/></g></svg>