<?xml version="1.0" encoding="utf-8"?><!DOCTYPE svg  PUBLIC '-//W3C//DTD SVG 1.1//EN'  'http://www.w3.org/Graphics/SVG/1.1/DTD/svg11.dtd'><svg enable_background="new 0 0 1000 1209" height="1209px" pretty_print="False" style="stroke-linejoin: round; stroke:#000; fill: none;" version="1.1" viewBox="0 0 1000 1209" width="1000px" xmlns="http://www.w3.org/2000/svg" xmlns:xlink="http://www.w3.org/1999/xlink"><defs><style type="text/css"><![CDATA[path { fill-rule: evenodd; }]]></style></defs><metadata><views><view h="1209.87186934" padding="0" w="1000"><proj dist="1.6" id="satellite" lat0="42.705336028" lon0="19.2976488481" tilt="0" up="0"/><bbox h="61.97" w="51.26" x="976.85" y="968.99"/></view></views></metadata><g class="" id="nutsregions"><path d="M490.777640,1207.871869L495.912088,1184.851397L493.098638,1182.723489L481.835115,1174.200632L474.810737,1168.882305L474.810738,1168.882299L474.810738,1168.882294L479.471223,1134.733132L483.822696,1130.468257L492.573566,1121.887718L493.160377,1099.824056L493.437136,1089.409771L494.390494,1053.494534L507.018790,1031.274045L443.260686,976.408448L497.159760,900.392102L516.872823,872.507475L517.975528,857.344624L519.160422,841.039350L533.285778,832.249115L533.900821,831.866189L544.927276,824.998509L551.690623,812.060688L561.769698,792.763890L579.676450,758.432640L589.511739,739.549932L592.763546,737.383794L618.470541,720.243408L618.470540,720.243400L617.564159,714.363312L615.474166,700.798937L614.853002,696.765951L626.551552,680.095302L641.566702,658.675017L659.450934,645.539028L673.425751,635.263889L679.275877,641.084692L690.805127,652.549450L689.107480,669.755951L684.358948,717.803073L695.116630,747.352001L706.089870,755.392408L729.645234,772.633109L731.443574,771.480322L746.169281,762.035632L752.310670,758.094016L756.261888,755.557242L768.198368,747.889764L787.366967,735.564157L799.480369,737.748969L807.064986,739.115145L819.753259,741.397501L824.270409,725.325384L826.451389,717.560710L842.163162,713.017025L857.798589,708.488862L857.283791,675.496517L857.079376,662.403015L875.710297,637.800745L848.889446,618.698662L834.467981,608.414118L834.467977,608.414116L824.555984,585.869765L829.591695,560.509005L848.070789,550.478663L877.911223,561.806990L891.499331,566.956873L891.942050,566.930129L893.216237,566.853130L909.080185,565.891356L936.402214,564.221386L946.981746,563.570146L954.936809,549.937721L951.650078,536.103308L950.381648,530.762163L948.884289,524.455534L963.607829,514.021985L971.055838,508.740262L980.376429,509.282535L988.253047,509.739252L994.238836,510.085384L999.586391,510.393918L996.262773,468.739305L995.210028,455.535436L995.210027,455.535432L927.866606,426.137325L920.418954,422.877486L910.712829,418.626524L894.977256,411.728640L878.632187,419.424646L868.936553,410.584968L853.118147,396.151079L849.964814,393.271967L843.607750,387.465928L843.371043,387.249693L813.612140,360.037839L811.005870,357.652121L800.782177,321.928025L798.951209,315.524228L794.555054,316.360513L755.489796,323.771282L747.912849,325.204348L731.413222,328.320176L728.858549,326.146177L704.987663,305.814965L703.578611,301.612687L700.865954,293.520319L695.720233,278.161355L677.329740,277.428966L656.713595,276.598837L651.664828,276.394075L628.741276,261.631745L616.989385,232.254738L605.002763,228.480625L596.598944,225.832279L595.129766,225.369092L579.150387,220.327511L577.345747,204.349554L575.392327,187.041932L574.782601,181.637019L574.234421,176.776613L562.654613,169.186005L559.879484,167.366060L535.830149,151.580799L527.516056,119.834206L527.516053,119.834204L499.138198,109.259398L489.105714,105.515307L484.774028,103.897837L478.237762,101.456142L478.237759,101.456141L478.237757,101.456137L470.798924,87.293737L470.468585,86.664581L412.499332,53.719232L412.499333,53.719199L413.495753,39.114940L414.232961,28.303775L414.684835,21.674463L388.461209,17.328251L378.556615,15.682452L357.508035,25.752059L351.982496,28.393053L326.775679,40.428219L321.793293,33.112556L320.829796,31.697497L299.267692,0.000000L289.014816,21.479784L255.319336,38.573663L261.045664,55.344530L270.063229,62.088085L278.464336,68.367091L286.657533,74.487410L308.142941,90.521591L315.275784,109.117884L329.300181,145.630886L330.235843,148.064538L339.770423,172.847067L339.770424,172.847070L327.294540,176.340332L315.593225,179.613025L315.593222,179.613032L300.617360,216.099867L290.812947,206.328890L276.154498,191.708121L274.861269,190.417506L273.049403,177.220615L272.294339,171.718478L270.838620,161.106422L252.194780,140.156180L252.194777,140.156178L238.813881,143.257875L215.948518,148.547751L218.648521,154.581213L221.190170,160.259092L221.664840,161.319288L137.450675,214.355923L152.155309,230.610425L134.710237,244.145730L126.661319,250.385666L126.661315,250.385680L116.417145,290.415233L120.724059,339.766088L123.237770,368.506466L114.395622,368.951314L59.744803,371.661352L44.731334,390.221002L38.746818,397.613425L30.468556,445.573324L42.877469,475.022839L35.253498,488.081732L32.652059,492.535672L21.751137,511.188193L16.567506,520.051651L21.760830,535.696755L33.708376,571.641340L47.394068,584.810257L52.325411,589.552352L52.325414,589.552355L52.325421,589.552355L64.599395,590.742944L64.805236,590.762881L71.521436,591.412846L71.392682,597.243650L70.594265,633.401273L57.699506,651.034425L48.501268,663.602094L48.138118,688.102532L38.031737,691.945091L25.836591,696.577859L2.898375,705.280041L2.898358,705.280048L0.413609,758.973213L0.415366,758.974906L0.415514,758.975049L0.416721,758.976212L0.416816,758.976303L31.025276,788.422016L47.650033,804.389241L45.813643,796.551394L41.346260,777.471098L47.315632,779.568649L58.778256,783.593588L78.828650,790.624958L89.716484,794.438339L125.177304,776.859383L132.326162,762.103082L114.925811,753.002021L132.259590,738.468670L137.088190,751.378045L139.674288,758.288548L160.044364,758.194973L173.397457,758.128491L173.283579,761.673926L172.844343,775.346306L172.523187,785.340427L172.314207,791.842532L171.941197,803.445816L157.506478,772.805968L134.586451,763.800505L139.040969,798.536650L142.235109,823.405702L139.296048,822.180520L120.546298,814.358167L112.787752,811.118135L76.288868,795.850865L59.456982,808.638401L64.070459,813.760881L77.017414,828.127109L90.668745,843.260326L112.530727,844.995672L113.297089,841.794611L114.839516,835.350630L114.902824,835.086103L116.148274,829.881480L129.029863,830.699444L135.072535,848.515114L137.448091,855.514596L138.463260,858.504998L143.922812,874.579561L154.809684,886.910772L161.605678,894.603420L178.565459,913.784267L196.186963,902.867100L199.687928,903.553617L211.275216,905.823656L234.328212,910.330057L246.206033,950.313624L278.720499,982.245507L289.251493,992.572585L306.368417,1009.342218L306.368421,1009.342222L306.368429,1009.342222L318.397382,1008.482723L319.065682,1008.434873L325.742682,1007.956234L327.608769,1007.822280L333.490319,1014.715344L341.926969,1024.597758L347.287400,1030.873625L344.797158,1039.180750L343.469408,1043.608645L353.745504,1054.297609L361.814522,1062.685469L374.912252,1076.290747L376.711786,1127.858229L377.092886,1138.761701L377.092889,1138.761703L422.997780,1170.230107L433.731227,1173.256959L459.774177,1180.588372L490.777640,1207.871869Z " data-nuts-id="ME000" data-shape-area="1.52426087948e+000" data-shape-leng="8.20829387792e+000" data-stat-levl-="3"/></g></svg>