<?xml version="1.0" encoding="utf-8"?><!DOCTYPE svg  PUBLIC '-//W3C//DTD SVG 1.1//EN'  'http://www.w3.org/Graphics/SVG/1.1/DTD/svg11.dtd'><svg enable_background="new 0 0 1000 786" height="786px" pretty_print="False" style="stroke-linejoin: round; stroke:#000; fill: none;" version="1.1" viewBox="0 0 1000 786" width="1000px" xmlns="http://www.w3.org/2000/svg" xmlns:xlink="http://www.w3.org/1999/xlink"><defs><style type="text/css"><![CDATA[path { fill-rule: evenodd; }]]></style></defs><metadata><views><view h="786.051635957" padding="0" w="1000"><proj dist="1.6" id="satellite" lat0="41.5612607685" lon0="21.8545368553" tilt="0" up="0"/><bbox h="55.04" w="70.11" x="961.87" y="970.54"/></view></views></metadata><g class="" id="nutsregions"><path d="M613.530245,183.628371L602.415663,181.993434L591.875285,188.680167L591.495513,188.920980L580.117014,196.132450L578.287693,197.291187L578.098036,196.886639L577.454752,195.514395L577.280158,195.141931L570.580954,180.843527L568.135724,181.338578L564.589524,182.056186L562.624257,182.453704L560.040364,185.146433L544.799817,201.016037L544.730061,201.088623L540.744864,205.234652L540.347920,205.647533L534.632193,211.591096L533.862479,212.391256L532.393680,213.917997L531.499889,217.097740L530.543443,220.499682L529.746756,223.332841L529.116728,225.572973L527.999375,229.545083L527.111517,232.700654L523.046609,234.106312L515.366923,236.760312L515.035061,236.874950L502.456051,241.217243L501.915861,245.776400L501.888635,246.006151L497.232676,285.251079L488.973590,280.267401L488.760017,280.138481L484.248984,277.414904L484.047846,277.430378L475.402265,278.094337L475.308468,278.101528L474.661506,278.151120L474.171221,278.188695L462.096913,279.111759L462.017427,279.117821L460.569426,279.228220L461.231082,292.241408L461.231108,292.241920L461.524916,298.016733L461.524916,298.016738L446.956678,318.886609L435.217307,318.274496L435.175979,318.272333L426.336584,317.808692L425.161594,317.746886L412.213845,317.063070L409.805099,316.935301L395.391415,316.167110L395.274911,316.160876L388.377520,324.432691L388.323153,324.497870L373.251370,342.553979L366.755086,340.498019L366.575092,340.441033L360.948915,338.659183L361.751640,342.495205L363.653372,351.579268L363.725236,351.922436L365.581433,360.783587L365.581432,360.783590L364.902085,363.798480L364.859946,363.985472L357.455705,396.810774L357.455705,396.810778L357.455707,396.810778L365.090960,399.431139L366.498712,399.914032L367.940406,400.408492L371.749663,401.714589L376.151831,403.223309L376.151840,403.223312L377.403046,404.744846L393.127189,423.850222L393.739205,426.258188L399.716467,449.755955L445.721660,473.600790L447.619896,474.582561L464.093462,483.095739L471.028866,476.108648L471.240233,475.895638L483.106089,463.931068L483.326584,463.708619L486.593386,460.412342L489.042506,457.940494L496.538291,458.012685L501.952689,458.063785L504.811798,461.514284L505.072273,461.828588L526.439894,487.584982L530.233430,498.642798L530.468719,499.328387L537.287793,519.185032L537.294806,519.205439L539.395291,525.316862L537.715249,528.177960L537.655010,528.280538L531.976756,537.946254L528.540948,543.791631L528.461759,543.926328L525.864581,548.343309L530.247352,556.519610L532.000418,559.788771L535.384134,566.096742L535.384136,566.096745L539.704583,565.813587L542.419772,565.635348L548.030286,565.266335L548.370084,565.243955L554.960968,564.809175L556.330780,564.718648L558.991644,564.542635L550.686593,587.519654L549.000837,592.179419L556.954765,628.400903L576.185662,654.830227L580.619317,652.723377L581.832207,652.146868L596.941328,644.959842L597.304647,644.786897L598.708717,644.118488L618.643648,634.619137L620.773888,633.603011L623.448226,632.327068L633.310986,636.401501L635.962981,637.496407L638.081977,638.371056L638.427150,638.513514L639.794897,639.077958L640.470889,639.356900L640.609431,639.414065L641.978534,639.978949L644.532139,641.032351L644.577770,641.051172L644.592860,641.057396L654.932082,645.319783L666.696208,629.078169L675.879855,626.126430L680.977529,624.486650L685.310908,623.091979L685.707338,622.516052L699.212841,602.880595L699.757770,602.087723L706.618188,592.101760L706.858023,591.752524L718.457819,574.850448L718.273266,567.921305L718.272722,567.900913L718.012069,558.112248L717.494881,538.681524L730.372426,533.475189L732.999992,532.412061L735.523598,531.390736L736.259135,527.641885L736.260505,527.634897L736.352205,527.167462L736.615367,525.825922L738.165866,517.919439L730.875178,491.722019L732.574943,482.284601L732.631102,481.972693L734.954899,469.060772L735.136708,468.050105L736.479031,460.586133L731.682201,457.527361L731.629160,457.493532L722.163319,451.453838L713.432850,434.231916L712.468198,432.327827L711.661465,430.735266L710.576805,428.593789L710.286406,428.020394L709.514919,426.496982L707.346314,422.213947L706.939522,421.410390L689.258755,417.290187L683.756532,416.005878L680.813826,415.318592L679.681445,413.411736L678.282679,411.055957L677.622383,409.943765L675.214657,405.887501L674.464084,404.622789L673.418237,402.860358L673.241300,402.562167L669.474588,396.212699L658.841198,397.847785L658.824289,397.850382L658.445555,397.908554L650.174322,399.177862L648.420364,392.742608L647.591465,389.700517L647.551818,389.554999L646.342884,385.117130L645.548173,382.199188L645.090224,380.517498L644.710291,379.122175L643.694268,375.390200L643.544574,374.840283L642.076023,369.444458L632.293555,380.384030L632.290205,380.387776L630.498407,382.390419L629.540198,383.461244L629.397535,383.620665L628.387885,384.748857L627.250148,383.482865L625.399962,381.423826L606.175838,360.008703L586.541500,362.264516L584.874233,351.851842L584.570218,349.952467L583.991525,346.336406L583.904982,345.795565L582.218748,335.254080L584.044261,333.773394L590.012832,328.930634L593.907902,329.285284L593.986898,329.292472L603.436704,330.150952L605.589566,330.346153L607.705274,330.537850L607.859771,330.551842L607.975614,330.562334L618.665529,331.528744L620.219291,331.668922L621.507036,323.220150L622.224474,318.511153L623.524590,309.974104L623.524938,309.971824L624.070669,306.386976L625.084264,299.726628L629.083840,294.794050L632.501246,290.577902L636.640759,285.468962L644.918450,275.246446L644.918452,275.246444L638.479478,261.809567L639.711536,260.084184L644.665981,253.143658L645.785676,251.574606L646.844697,250.090404L644.443276,233.639892L643.291991,232.346772L643.264474,232.315863L635.174718,223.225538L634.817931,222.824464L632.103520,219.772690L630.082447,217.499925L622.002591,208.409574L621.154815,207.455374L612.175330,197.344041L612.567582,193.374537L612.613189,192.912942L613.530245,183.628371Z " data-nuts-id="MK001" data-shape-area="4.42876366469e-001" data-shape-leng="3.70201694350e+000" data-stat-levl-="3"/><path d="M932.987926,178.911063L926.721784,177.476155L912.650539,174.249259L900.951105,171.561361L897.233694,170.706365L883.986068,167.655773L881.550070,164.255214L879.624491,161.566586L878.788875,160.399679L875.307276,155.536686L860.852106,158.332274L860.852103,158.332272L852.849801,153.020545L848.386453,150.056351L835.771419,141.672512L832.305904,139.367820L830.117154,137.911880L827.629971,136.257102L825.377852,134.758423L814.348711,127.414984L802.122263,119.266462L800.235009,115.304577L797.964101,110.535962L796.880849,108.260760L785.885049,116.998881L785.883399,117.000192L784.386499,118.189104L782.462815,119.716763L781.858926,120.196279L781.835944,120.214528L772.623225,127.526733L772.478961,127.641190L769.555450,129.960360L761.911449,130.247907L761.742429,130.254246L752.120937,130.613664L751.677260,130.630171L741.926195,130.991495L741.198595,131.018342L741.191047,131.294750L740.696499,149.389767L740.193558,167.759822L728.791304,156.080146L724.276331,155.643484L721.529271,155.377504L720.997732,155.326013L707.010558,153.967970L704.963534,153.768725L704.221524,157.614957L703.738550,160.117953L700.204116,178.422580L698.656519,176.661643L698.328963,176.288900L693.378491,170.654114L691.481364,168.494053L690.196594,167.031003L677.039163,167.264080L676.685269,167.270278L671.138518,167.366938L659.024138,168.809083L650.170328,169.860242L646.085196,170.344438L645.131815,170.457365L644.800655,170.869390L641.989165,174.366850L635.961351,181.862085L635.944842,181.882606L635.482437,182.457393L631.994079,186.792704L613.530245,183.628371L612.613189,192.912942L612.567582,193.374537L612.175330,197.344041L621.154815,207.455374L622.002591,208.409574L630.082447,217.499925L632.103520,219.772690L634.817931,222.824464L635.174718,223.225538L643.264474,232.315863L643.291991,232.346772L644.443276,233.639892L646.844697,250.090404L645.785676,251.574606L644.665981,253.143658L639.711536,260.084184L638.479478,261.809567L644.918452,275.246444L644.918450,275.246446L636.640759,285.468962L632.501246,290.577902L629.083840,294.794050L625.084264,299.726628L624.070669,306.386976L623.524938,309.971824L623.524590,309.974104L622.224474,318.511153L621.507036,323.220150L620.219291,331.668922L618.665529,331.528744L607.975614,330.562334L607.859771,330.551842L607.705274,330.537850L605.589566,330.346153L603.436704,330.150952L593.986898,329.292472L593.907902,329.285284L590.012832,328.930634L584.044261,333.773394L582.218748,335.254080L583.904982,345.795565L583.991525,346.336406L584.570218,349.952467L584.874233,351.851842L586.541500,362.264516L606.175838,360.008703L625.399962,381.423826L627.250148,383.482865L628.387885,384.748857L629.397535,383.620665L629.540198,383.461244L630.498407,382.390419L632.290205,380.387776L632.293555,380.384030L642.076023,369.444458L643.544574,374.840283L643.694268,375.390200L644.710291,379.122175L645.090224,380.517498L645.548173,382.199188L646.342884,385.117130L647.551818,389.554999L647.591465,389.700517L648.420364,392.742608L650.174322,399.177862L658.445555,397.908554L658.824289,397.850382L658.841198,397.847785L669.474588,396.212699L673.241300,402.562167L673.418237,402.860358L674.464084,404.622789L675.214657,405.887501L677.622383,409.943765L678.282679,411.055957L679.681445,413.411736L680.813826,415.318592L683.756532,416.005878L689.258755,417.290187L706.939522,421.410390L726.946572,400.896806L731.388347,396.337464L729.909420,389.474660L729.838314,389.144631L729.048261,385.477305L727.869453,380.004003L726.867898,375.352358L726.735022,374.735132L722.696724,355.966374L743.689996,356.043908L743.780157,356.044212L747.107885,356.055286L750.369073,356.065817L752.705477,351.830665L754.389741,348.776843L762.072474,334.838490L762.195287,334.615564L762.873469,333.384493L762.881829,333.369317L769.161545,321.964915L769.748390,320.898690L779.746441,302.721020L780.980279,303.401465L800.786875,314.314632L800.786881,314.314632L801.443330,314.240317L809.505327,313.326562L823.343741,311.753459L831.868353,316.731019L832.177571,316.911506L837.795099,320.189551L838.450333,320.571803L843.911989,323.757215L848.710748,326.554785L851.747178,328.324367L851.747186,328.324372L851.035530,346.083707L850.790308,352.196122L850.548305,358.224734L850.540759,358.412674L850.044068,370.774657L850.025955,371.225184L849.983383,372.284032L849.956227,372.959364L849.454606,385.426473L861.339973,374.501265L863.214237,376.130426L875.536039,386.834444L875.498012,387.046423L875.223779,388.575027L873.851615,396.221164L873.116760,400.314332L881.405626,403.337076L881.519730,403.378669L888.366670,405.873606L893.701766,407.816428L895.942840,410.033677L914.973877,428.844992L918.197804,432.028618L921.510485,432.394416L922.044432,432.453344L938.059230,434.216757L938.091047,434.220253L940.432734,434.477440L941.445673,434.588639L946.342221,435.125734L946.533923,435.146747L956.794702,436.269798L957.691838,436.367837L959.887227,436.607646L960.381343,436.661600L970.747538,437.791786L970.839943,437.801846L975.444550,438.302803L975.444547,438.302777L973.762787,427.060655L970.373046,404.383261L968.724788,393.347750L966.792630,380.404226L973.557430,372.010369L984.402484,358.541527L984.999912,357.799126L992.044041,349.042210L996.479575,343.524917L999.363099,339.936797L999.278822,339.189606L998.177268,329.421350L993.758942,319.672673L992.050623,315.901858L991.550036,314.796736L991.286433,314.214762L989.012761,309.194175L989.012759,309.194171L981.777985,308.062638L981.724853,308.054322L971.712920,306.485731L965.245323,290.008635L965.245321,290.008633L962.752699,283.654064L950.813024,253.182564L947.638048,245.070404L945.987003,240.850393L944.960644,238.226527L943.846135,235.376845L942.361417,231.579831L940.995980,228.087113L938.751426,222.344087L937.693726,219.637127L936.565332,209.878109L934.360109,190.794030L933.792628,185.880448L932.987926,178.911063Z " data-nuts-id="MK002" data-shape-area="3.82049341519e-001" data-shape-leng="3.60362788837e+000" data-stat-levl-="3"/><path d="M307.203012,276.324982L297.463086,264.248641L293.379951,264.218473L288.482897,264.181638L278.735265,264.106193L256.468094,289.694744L246.636585,293.508260L245.657692,293.887757L238.586703,296.627938L231.570647,313.163642L229.403820,318.267107L228.326961,320.802809L229.741093,332.036470L229.744074,332.060142L234.184858,367.277679L211.109798,375.263105L208.428265,376.189816L199.681275,371.563994L199.331399,371.378888L194.124184,368.623264L175.718047,358.872576L161.546547,359.936842L160.528628,360.013054L157.773749,360.219155L149.342043,360.848538L135.273549,370.512929L131.734729,381.595647L139.772182,382.620433L140.234549,382.679324L141.458553,382.835193L145.208566,383.312444L146.341109,386.822884L149.663564,397.116281L149.761085,397.418302L151.513348,402.843981L141.724433,420.860514L139.576389,424.811192L134.602453,433.955377L133.352009,436.253371L129.540542,443.255762L119.083164,444.063838L113.709819,444.477768L113.431476,444.499187L109.960225,444.766098L101.652120,452.496301L100.336998,453.719445L100.067404,453.970167L93.995873,459.615157L90.863164,476.039336L89.909667,481.035698L85.161072,476.701184L81.459441,473.321052L79.838106,471.840179L79.838105,471.840176L77.896320,461.958069L76.208233,453.361315L75.832586,451.447567L72.097091,432.402459L52.008309,413.748362L51.050258,412.857881L45.949253,408.115342L45.711248,407.894009L41.479948,403.958303L9.295958,416.660821L9.193436,416.701221L3.053943,419.119814L2.833179,420.774628L0.636901,437.231583L6.086643,442.463308L8.790161,445.057697L14.316525,450.358977L14.694734,450.721683L17.163539,453.088982L17.163541,453.088985L17.257438,453.483473L19.612883,463.375696L19.619785,463.404673L19.891740,464.546353L19.912486,464.633443L20.141466,465.594632L22.244292,474.418536L22.324884,474.756608L23.483478,479.615795L24.890527,479.768577L25.453949,479.829738L28.449300,480.154727L31.117519,480.443991L32.389764,480.581838L33.704054,480.724189L38.159299,488.974078L38.185265,489.022146L41.437665,495.041516L39.966222,498.662590L39.938101,498.731786L37.787387,504.023084L37.464426,504.817510L36.727960,506.628943L36.098308,508.177503L32.344430,517.406852L30.744471,521.339034L27.961936,528.175462L19.185130,527.021746L19.181770,527.021304L18.835939,526.975795L17.181629,526.758047L16.494883,528.293067L14.703879,532.295674L14.084050,533.680669L22.725498,586.193015L23.350257,587.150354L23.540473,587.441815L23.889465,587.976544L25.519477,590.473775L34.993019,604.978063L36.290477,606.963254L39.221011,611.446037L40.334326,613.148651L41.706865,615.247391L43.801764,618.450038L48.241485,625.234808L48.337907,625.926427L48.876723,629.790577L50.598647,642.131750L50.599634,642.138820L50.783470,643.455692L52.907092,658.658175L58.554158,659.272903L67.321759,660.225368L67.321784,660.225371L67.322638,660.225464L67.323268,660.225532L81.738323,661.786329L104.748512,752.932071L123.679174,758.278728L128.331068,759.590643L134.434769,761.310836L146.139124,745.396370L147.293738,743.825439L144.292414,730.202234L156.117077,706.697093L164.672655,689.668492L164.687820,689.638292L172.312601,674.446821L172.271733,671.026656L172.200469,665.056823L172.189873,664.168528L171.903324,640.084933L226.004910,596.198405L203.968824,555.212217L203.953938,555.184488L195.240513,538.944579L195.141411,538.759765L188.246103,525.894822L188.177177,525.766162L177.439507,505.708410L195.377188,493.791438L210.452081,491.926985L210.612713,491.907080L223.796366,490.270728L224.104193,490.232457L253.832595,486.522630L274.158166,483.970503L274.294159,483.953385L288.678471,482.139495L288.976458,482.101851L294.297177,481.429231L313.320762,459.348285L313.382783,459.276233L320.613962,450.872581L320.662561,450.816083L321.997547,449.264013L323.023771,448.070783L325.714072,444.942123L327.869097,442.435389L337.062189,446.584493L337.398672,446.736290L339.847983,447.841094L340.050610,447.254737L348.658033,422.327686L356.254216,400.297921L357.455702,396.810786L357.455705,396.810778L357.455705,396.810774L364.859946,363.985472L364.902085,363.798480L365.581432,360.783590L365.581433,360.783587L363.725236,351.922436L363.653372,351.579268L361.751640,342.495205L360.948915,338.659183L362.177982,331.571431L362.320181,330.751220L362.903332,327.387192L351.746818,328.009668L349.626881,328.127528L349.199463,328.151275L345.173230,328.374694L335.645215,315.333389L335.500006,315.134535L323.736913,299.015551L309.439795,279.397007L307.203012,276.324982Z " data-nuts-id="MK003" data-shape-area="3.71351411475e-001" data-shape-leng="3.73553713068e+000" data-stat-levl-="3"/><path d="M975.444550,438.302803L970.839943,437.801846L970.747538,437.791786L960.381343,436.661600L959.887227,436.607646L957.691838,436.367837L956.794702,436.269798L946.533923,435.146747L946.342221,435.125734L941.445673,434.588639L940.432734,434.477440L938.091047,434.220253L938.059230,434.216757L922.044432,432.453344L921.510485,432.394416L918.197804,432.028618L914.973877,428.844992L895.942840,410.033677L893.701766,407.816428L888.366670,405.873606L881.519730,403.378669L881.405626,403.337076L873.116760,400.314332L873.851615,396.221164L875.223779,388.575027L875.498012,387.046423L875.536039,386.834444L863.214237,376.130426L861.339973,374.501265L849.454606,385.426473L849.956227,372.959364L849.983383,372.284032L850.025955,371.225184L850.044068,370.774657L850.540759,358.412674L850.548305,358.224734L850.790308,352.196122L851.035530,346.083707L851.747186,328.324372L851.747178,328.324367L848.710748,326.554785L843.911989,323.757215L838.450333,320.571803L837.795099,320.189551L832.177571,316.911506L831.868353,316.731019L823.343741,311.753459L809.505327,313.326562L801.443330,314.240317L800.786881,314.314632L800.786875,314.314632L780.980279,303.401465L779.746441,302.721020L769.748390,320.898690L769.161545,321.964915L762.881829,333.369317L762.873469,333.384493L762.195287,334.615564L762.072474,334.838490L754.389741,348.776843L752.705477,351.830665L750.369073,356.065817L747.107885,356.055286L743.780157,356.044212L743.689996,356.043908L722.696724,355.966374L726.735022,374.735132L726.867898,375.352358L727.869453,380.004003L729.048261,385.477305L729.838314,389.144631L729.909420,389.474660L731.388347,396.337464L726.946572,400.896806L706.939522,421.410390L707.346314,422.213947L709.514919,426.496982L710.286406,428.020394L710.576805,428.593789L711.661465,430.735266L712.468198,432.327827L713.432850,434.231916L722.163319,451.453838L731.629160,457.493532L731.682201,457.527361L736.479031,460.586133L735.136708,468.050105L734.954899,469.060772L732.631102,481.972693L732.574943,482.284601L730.875178,491.722019L738.165866,517.919439L736.615367,525.825922L736.352205,527.167462L736.260505,527.634897L736.259135,527.641885L735.523598,531.390736L732.999992,532.412061L730.372426,533.475189L717.494881,538.681524L718.012069,558.112248L718.272722,567.900913L718.273266,567.921305L718.457819,574.850448L706.858023,591.752524L706.618188,592.101760L699.757770,602.087723L699.212841,602.880595L685.707338,622.516052L685.310908,623.091979L694.160226,624.852639L695.306370,625.080490L706.941598,627.391141L709.216898,627.842483L726.592338,631.283646L729.496886,647.023466L730.750378,646.271954L740.587602,640.371359L744.033975,638.302955L748.787999,640.551406L749.224965,640.758023L757.282581,644.566552L761.449368,646.534936L762.013973,646.801597L763.212285,647.367510L763.890200,647.687634L766.452244,647.398767L768.739287,647.140735L775.823765,646.340411L776.259636,646.291121L799.692001,643.632615L801.856965,643.386132L809.406246,642.525505L819.648645,641.355037L830.910824,647.954871L839.683085,637.141241L850.832872,623.383028L851.017059,623.155621L859.824387,612.276733L860.347205,612.973125L875.997525,633.802730L877.844288,636.258540L884.160418,633.452260L885.313511,632.939754L895.045175,552.846958L895.080535,552.555078L896.150546,543.719588L902.564267,539.149901L902.887339,538.919650L909.925942,533.901693L911.609877,532.700731L915.395791,530.000025L937.874779,531.297218L938.462217,531.330913L941.377429,531.497972L942.051374,531.485631L942.673717,531.474222L945.522187,531.421859L951.684227,531.307746L954.816946,531.249295L956.385181,531.219923L961.003532,531.132995L962.119621,531.111892L965.830389,529.237892L975.287394,524.459084L969.660791,490.903452L974.976308,484.169908L975.363798,483.678903L979.437100,478.516245L978.870245,472.810652L978.616909,470.260325L976.874010,452.707736L975.444550,438.302803Z " data-nuts-id="MK004" data-shape-area="2.94143207364e-001" data-shape-leng="2.72023089530e+000" data-stat-levl-="3"/><path d="M265.088557,784.051636L270.706211,780.745440L272.379113,779.760569L272.795720,779.515282L275.923399,777.673511L276.077724,777.582622L281.642298,774.304597L283.773177,773.048908L283.992173,772.919845L288.323212,770.366889L290.103743,769.317070L293.221861,769.967024L302.342902,771.866412L332.577343,778.142909L332.933200,777.912778L335.259751,776.408038L351.259292,766.052028L372.730911,752.132096L382.347036,753.108587L382.349404,753.108828L415.223603,756.425543L416.061080,757.557190L416.521296,758.179017L418.805993,761.265581L422.202482,765.852787L424.015292,768.300457L426.696508,771.919810L426.825283,772.093616L427.908290,773.555254L431.365036,778.219413L431.878901,778.912623L440.915830,778.896570L441.709641,778.895042L447.929736,772.384381L449.177983,771.077381L449.824331,770.400552L452.407978,767.694671L453.271074,766.790601L467.434086,751.945110L475.325580,743.665073L476.833533,742.082200L478.429978,740.406202L478.807707,740.456810L480.222530,740.646326L489.131272,741.838221L489.428158,741.877898L517.962537,745.678507L518.351671,743.855333L518.439986,743.441527L522.717226,723.388026L526.614371,719.936341L526.901958,719.681581L530.528141,716.468758L531.034308,716.020210L541.343471,706.880297L541.374433,706.852835L544.892986,703.731469L550.373840,698.867415L551.421993,697.936955L553.899151,695.737608L555.282506,694.509190L561.939724,688.595517L565.214953,685.684840L567.052082,684.051833L566.075699,670.647975L565.770185,666.451699L565.749379,666.165887L565.590071,663.977327L565.484294,662.524015L565.965123,662.178471L573.785807,656.556220L574.088270,656.338706L576.185662,654.830227L556.954765,628.400903L549.000837,592.179419L550.686593,587.519654L558.991644,564.542635L556.330780,564.718648L554.960968,564.809175L548.370084,565.243955L548.030286,565.266335L542.419772,565.635348L539.704583,565.813587L535.384136,566.096745L535.384134,566.096742L532.000418,559.788771L530.247352,556.519610L525.864581,548.343309L528.461759,543.926328L528.540948,543.791631L531.976756,537.946254L537.655010,528.280538L537.715249,528.177960L539.395291,525.316862L537.294806,519.205439L537.287793,519.185032L530.468719,499.328387L530.233430,498.642798L526.439894,487.584982L505.072273,461.828588L504.811798,461.514284L501.952689,458.063785L496.538291,458.012685L489.042506,457.940494L486.593386,460.412342L483.326584,463.708619L483.106089,463.931068L471.240233,475.895638L471.028866,476.108648L464.093462,483.095739L447.619896,474.582561L445.721660,473.600790L399.716467,449.755955L393.739205,426.258188L393.127189,423.850222L377.403046,404.744846L376.151840,403.223312L376.151831,403.223309L371.749663,401.714589L367.940406,400.408492L366.498712,399.914032L365.090960,399.431139L357.455707,396.810778L357.455705,396.810778L357.455702,396.810786L356.254216,400.297921L348.658033,422.327686L340.050610,447.254737L339.847983,447.841094L337.398672,446.736290L337.062189,446.584493L327.869097,442.435389L325.714072,444.942123L323.023771,448.070783L321.997547,449.264013L320.662561,450.816083L320.613962,450.872581L313.382783,459.276233L313.320762,459.348285L294.297177,481.429231L288.976458,482.101851L288.678471,482.139495L274.294159,483.953385L274.158166,483.970503L253.832595,486.522630L224.104193,490.232457L223.796366,490.270728L210.612713,491.907080L210.452081,491.926985L195.377188,493.791438L177.439507,505.708410L188.177177,525.766162L188.246103,525.894822L195.141411,538.759765L195.240513,538.944579L203.953938,555.184488L203.968824,555.212217L226.004910,596.198405L171.903324,640.084933L172.189873,664.168528L172.200469,665.056823L172.271733,671.026656L172.312601,674.446821L164.687820,689.638292L164.672655,689.668492L156.117077,706.697093L144.292414,730.202234L147.293738,743.825439L161.117510,745.369583L161.735826,745.438511L180.784272,747.556168L183.479861,747.854931L186.962216,748.240562L187.837248,748.337402L189.202188,748.488414L191.513966,750.914712L193.006210,752.480599L194.736281,754.295776L198.067389,757.789921L199.638973,759.438043L201.343140,761.224934L201.381553,761.806114L202.814605,783.467510L258.924117,783.999053L260.935956,784.016340L261.591839,784.021950L261.887939,784.024478L263.390361,784.037265L265.088557,784.051636Z " data-nuts-id="MK005" data-shape-area="5.38332212301e-001" data-shape-leng="3.46080877141e+000" data-stat-levl-="3"/><path d="M298.057754,133.068937L285.455250,105.540467L285.164849,104.905505L284.977703,104.496295L284.537461,103.533626L283.888132,102.113633L283.777867,101.872485L282.226761,98.479803L281.061132,95.929738L281.008094,95.813694L280.938085,95.660517L278.185117,89.635896L276.332327,89.240959L273.738393,88.687854L271.305714,88.168935L268.975933,87.671785L266.096175,87.057033L263.993781,86.608057L263.630730,86.530511L256.004297,84.900558L254.476111,86.306317L253.010101,87.654707L252.819667,87.829850L246.388967,93.742512L246.347477,93.780649L235.871986,103.405270L235.596486,103.658275L233.363052,105.709137L226.095794,112.379619L226.095791,112.379622L225.329113,112.551470L223.556340,112.948758L222.634643,113.155275L222.483605,113.189115L222.108096,113.273242L218.875888,113.997183L216.947740,114.428884L210.012735,115.980590L209.881871,116.009856L194.718038,119.397263L174.040361,140.207362L173.435712,140.341807L172.224903,140.610999L171.232701,140.831554L171.115244,140.857661L152.429228,145.005315L152.384964,145.015127L139.477817,147.873449L139.460564,147.877266L132.895801,149.328977L127.810574,159.009795L127.792714,159.043784L123.976001,166.305768L123.929722,166.393801L118.978653,175.809034L118.526341,176.668895L118.675331,177.483383L118.993859,179.224517L119.156613,180.114080L119.369544,181.277810L119.387065,181.373560L119.437662,181.650071L119.484203,181.904411L119.713516,183.157502L119.724492,183.217479L122.557522,198.689255L124.044384,206.802382L124.056539,206.868688L124.114676,207.185817L124.200412,207.653478L125.076991,212.434046L125.125814,212.700258L128.718114,232.273830L109.662255,260.083351L109.662253,260.083351L98.536846,260.828654L98.130722,260.855791L91.832238,261.276011L91.621262,261.290066L68.661518,262.811676L67.741876,262.872294L58.828887,253.223123L58.278806,252.627336L56.333056,253.294082L45.270301,257.082314L47.324541,278.890887L48.071874,286.814713L48.622810,292.652729L49.141200,298.143210L45.764847,299.477328L44.788305,299.863113L38.479345,302.354594L37.743156,302.645224L37.334878,302.806393L37.094553,302.901259L33.541062,304.303707L31.113321,312.681597L31.083768,312.783560L28.385494,322.090575L27.027542,326.772738L26.390342,328.969373L28.608807,337.232282L28.778969,337.865865L31.180174,346.803497L31.877227,349.396957L30.983675,351.840108L26.864286,363.098978L26.631552,363.734859L30.556202,374.377678L30.568991,374.412347L30.896359,375.299733L32.054820,378.439493L41.479948,403.958303L45.711248,407.894009L45.949253,408.115342L51.050258,412.857881L52.008309,413.748362L72.097091,432.402459L75.832586,451.447567L76.208233,453.361315L77.896320,461.958069L79.838105,471.840176L79.838106,471.840179L81.459441,473.321052L85.161072,476.701184L89.909667,481.035698L90.863164,476.039336L93.995873,459.615157L100.067404,453.970167L100.336998,453.719445L101.652120,452.496301L109.960225,444.766098L113.431476,444.499187L113.709819,444.477768L119.083164,444.063838L129.540542,443.255762L133.352009,436.253371L134.602453,433.955377L139.576389,424.811192L141.724433,420.860514L151.513348,402.843981L149.761085,397.418302L149.663564,397.116281L146.341109,386.822884L145.208566,383.312444L141.458553,382.835193L140.234549,382.679324L139.772182,382.620433L131.734729,381.595647L135.273549,370.512929L149.342043,360.848538L157.773749,360.219155L160.528628,360.013054L161.546547,359.936842L175.718047,358.872576L194.124184,368.623264L199.331399,371.378888L199.681275,371.563994L208.428265,376.189816L211.109798,375.263105L234.184858,367.277679L229.744074,332.060142L229.741093,332.036470L228.326961,320.802809L229.403820,318.267107L231.570647,313.163642L238.586703,296.627938L245.657692,293.887757L246.636585,293.508260L256.468094,289.694744L278.735265,264.106193L288.482897,264.181638L293.379951,264.218473L297.463086,264.248641L307.203012,276.324982L307.701176,272.152435L308.838235,262.625283L308.928364,261.869913L309.991970,252.953697L305.440987,248.848823L303.579880,247.169673L301.054230,244.890510L298.792687,242.849246L298.565407,242.644081L294.853211,239.292506L288.262917,233.339707L288.997971,221.702611L289.956201,206.524085L290.326821,200.650906L290.326821,200.650901L288.589272,198.667906L288.504259,198.570876L276.913930,185.334655L279.130566,180.075933L279.212909,179.880549L284.301374,167.802095L284.322760,167.751311L288.294215,158.317971L288.482001,157.871790L290.663589,152.687399L288.550054,145.981955L287.329651,142.108700L285.449636,143.384934L283.128289,144.960487L277.831536,148.554379L277.024936,141.364532L276.687000,138.351135L289.861111,135.096687L290.511807,134.935793L298.057754,133.068937Z " data-nuts-id="MK006" data-shape-area="2.68657747843e-001" data-shape-leng="2.85566340777e+000" data-stat-levl-="3"/><path d="M709.125454,0.000000L706.137969,2.559155L702.946166,5.292598L702.896994,5.334703L687.375980,18.615949L684.429506,18.079916L682.688841,17.763119L682.048427,17.646542L677.388349,16.797857L677.097806,16.744922L674.524204,16.275905L673.474566,17.622406L673.445548,17.659629L668.923660,23.458760L667.408063,25.401852L663.139326,30.873041L650.698136,33.023020L650.464575,33.063335L649.638682,33.205881L649.509513,33.228173L629.095759,36.744627L627.018424,37.101735L623.999679,37.620436L612.997023,37.599983L612.754047,37.599491L609.429914,37.592584L608.069496,36.577849L585.190063,19.494661L580.847263,16.248339L580.139449,15.719122L578.664453,14.616200L575.930104,20.932104L574.479231,24.282313L574.479142,24.282519L572.669014,28.461244L572.571410,28.686534L570.291398,33.948276L556.701072,33.505684L556.468979,33.498079L542.789876,33.046985L534.853765,32.782740L534.853750,32.782756L534.298667,33.332627L526.353815,41.199905L525.785029,41.762922L514.092086,53.330956L513.081401,54.330278L511.309397,56.082142L509.935325,57.440406L508.203056,59.152509L506.682229,59.527942L506.292881,59.624045L506.281932,59.626747L489.844191,63.679467L476.452548,66.974549L476.452543,66.974548L470.690871,65.729035L445.967730,60.372363L445.116326,60.585594L420.867246,66.648568L420.422282,66.759640L416.942774,67.627963L416.113882,66.116382L415.908207,65.741285L415.800982,65.545731L415.723441,65.404311L409.028503,53.188797L408.375460,51.996697L408.201953,51.970958L389.892160,49.249501L389.892153,49.249500L389.892156,49.249506L402.209513,72.266902L405.640140,72.553824L410.674167,72.974207L414.568915,95.183445L409.976131,100.367837L409.684452,100.697013L404.975576,106.010009L421.056855,135.096623L427.343144,146.450605L427.343149,146.450608L450.338307,158.876353L472.267344,170.702688L477.629631,173.591113L484.777202,177.439080L492.267505,188.218564L504.117504,205.254456L515.237718,202.940911L522.434403,201.441524L532.393679,213.917995L532.393680,213.917997L533.862479,212.391256L534.632193,211.591096L540.347920,205.647533L540.744864,205.234652L544.730061,201.088623L544.799817,201.016037L560.040364,185.146433L562.624257,182.453704L564.589524,182.056186L568.135724,181.338578L570.580954,180.843527L577.280158,195.141931L577.454752,195.514395L578.098036,196.886639L578.287693,197.291187L580.117014,196.132450L591.495513,188.920980L591.875285,188.680167L602.415663,181.993434L613.530245,183.628371L631.994079,186.792704L635.482437,182.457393L635.944842,181.882606L635.961351,181.862085L641.989165,174.366850L644.800655,170.869390L645.131815,170.457365L646.085196,170.344438L650.170328,169.860242L659.024138,168.809083L671.138518,167.366938L676.685269,167.270278L677.039163,167.264080L690.196594,167.031003L691.481364,168.494053L693.378491,170.654114L698.328963,176.288900L698.656519,176.661643L700.204116,178.422580L703.738550,160.117953L704.221524,157.614957L704.963534,153.768725L707.010558,153.967970L720.997732,155.326013L721.529271,155.377504L724.276331,155.643484L728.791304,156.080146L740.193558,167.759822L740.696499,149.389767L741.191047,131.294750L741.198595,131.018342L741.926195,130.991495L751.677260,130.630171L752.120937,130.613664L761.742429,130.254246L761.911449,130.247907L769.555450,129.960360L772.478961,127.641190L772.623225,127.526733L781.835944,120.214528L781.858926,120.196279L782.462815,119.716763L784.386499,118.189104L785.883399,117.000192L785.885049,116.998881L796.880849,108.260760L793.346544,102.593706L784.035572,87.653430L771.786822,67.975602L770.433553,65.799902L767.882426,61.697466L765.911372,58.527037L765.911370,58.527033L762.404906,55.176213L753.212509,46.386995L737.256708,31.114301L734.655237,29.147772L734.637015,29.133996L732.243273,27.324116L732.151911,27.255030L723.811524,20.946079L723.603516,20.788678L722.138574,19.680073L711.125517,11.341507L710.813760,9.574144L710.770263,9.327548L709.125454,0.000000Z " data-nuts-id="MK007" data-shape-area="2.45287344898e-001" data-shape-leng="2.69238404177e+000" data-stat-levl-="3"/><path d="M532.393680,213.917997L532.393679,213.917995L522.434403,201.441524L515.237718,202.940911L504.117504,205.254456L492.267505,188.218564L484.777202,177.439080L477.629631,173.591113L472.267344,170.702688L450.338307,158.876353L427.343149,146.450608L427.343144,146.450605L421.056855,135.096623L404.975576,106.010009L409.684452,100.697013L409.976131,100.367837L414.568915,95.183445L410.674167,72.974207L405.640140,72.553824L402.209513,72.266902L389.892156,49.249506L389.892153,49.249500L389.892149,49.249502L385.180157,52.460944L383.932467,53.311091L369.238585,63.316485L368.932792,63.524576L368.147100,64.059211L367.468542,64.520918L365.303991,65.993553L363.763324,67.041572L360.908708,68.983030L360.852179,69.068413L360.200722,70.052361L360.160329,70.113368L356.326542,75.902419L355.395700,77.307636L349.511131,86.187836L344.650754,93.518218L344.631761,93.546857L338.971053,102.079440L338.437086,102.884039L337.710713,103.978489L331.900149,118.871769L332.070797,119.282047L332.248788,119.709969L332.996650,121.507816L333.477036,122.662542L334.693057,125.585139L334.999547,126.321668L336.315738,129.484205L336.352543,129.572630L336.375044,129.626689L337.122648,131.422707L339.076919,136.116550L337.538104,136.409444L337.043738,136.503525L332.143240,137.435697L330.293277,137.787399L325.948778,138.612918L325.702902,138.659620L320.068099,139.729380L320.066867,139.729614L305.416258,142.506305L301.246377,143.295369L301.054595,143.331647L301.054594,143.331644L300.947413,142.964723L300.707633,142.143835L300.650557,141.948426L299.748458,138.859634L298.126991,133.306120L298.057754,133.068937L290.511807,134.935793L289.861111,135.096687L276.687000,138.351135L277.024936,141.364532L277.831536,148.554379L283.128289,144.960487L285.449636,143.384934L287.329651,142.108700L288.550054,145.981955L290.663589,152.687399L288.482001,157.871790L288.294215,158.317971L284.322760,167.751311L284.301374,167.802095L279.212909,179.880549L279.130566,180.075933L276.913930,185.334655L288.504259,198.570876L288.589272,198.667906L290.326821,200.650901L290.326821,200.650906L289.956201,206.524085L288.997971,221.702611L288.262917,233.339707L294.853211,239.292506L298.565407,242.644081L298.792687,242.849246L301.054230,244.890510L303.579880,247.169673L305.440987,248.848823L309.991970,252.953697L308.928364,261.869913L308.838235,262.625283L307.701176,272.152435L307.203012,276.324982L309.439795,279.397007L323.736913,299.015551L335.500006,315.134535L335.645215,315.333389L345.173230,328.374694L349.199463,328.151275L349.626881,328.127528L351.746818,328.009668L362.903332,327.387192L362.320181,330.751220L362.177982,331.571431L360.948915,338.659183L366.575092,340.441033L366.755086,340.498019L373.251370,342.553979L388.323153,324.497870L388.377520,324.432691L395.274911,316.160876L395.391415,316.167110L409.805099,316.935301L412.213845,317.063070L425.161594,317.746886L426.336584,317.808692L435.175979,318.272333L435.217307,318.274496L446.956678,318.886609L461.524916,298.016738L461.524916,298.016733L461.231108,292.241920L461.231082,292.241408L460.569426,279.228220L462.017427,279.117821L462.096913,279.111759L474.171221,278.188695L474.661506,278.151120L475.308468,278.101528L475.402265,278.094337L484.047846,277.430378L484.248984,277.414904L488.760017,280.138481L488.973590,280.267401L497.232676,285.251079L501.888635,246.006151L501.915861,245.776400L502.456051,241.217243L515.035061,236.874950L515.366923,236.760312L523.046609,234.106312L527.111517,232.700654L527.999375,229.545083L529.116728,225.572973L529.746756,223.332841L530.543443,220.499682L531.499889,217.097740L532.393680,213.917997Z " data-nuts-id="MK008" data-shape-area="1.97537781744e-001" data-shape-leng="2.19241634520e+000" data-stat-levl-="3"/></g></svg>