<?xml version="1.0" encoding="utf-8"?><!DOCTYPE svg  PUBLIC '-//W3C//DTD SVG 1.1//EN'  'http://www.w3.org/Graphics/SVG/1.1/DTD/svg11.dtd'><svg enable_background="new 0 0 1000 875" height="875px" pretty_print="False" style="stroke-linejoin: round; stroke:#000; fill: none;" version="1.1" viewBox="0 0 1000 875" width="1000px" xmlns="http://www.w3.org/2000/svg" xmlns:xlink="http://www.w3.org/1999/xlink"><defs><style type="text/css"><![CDATA[path { fill-rule: evenodd; }]]></style></defs><metadata><views><view h="875.598490276" padding="0" w="1000"><proj dist="1.6" id="satellite" lat0="35.901493162" lon0="14.4328665406" tilt="0" up="0"/><bbox h="9.75" w="11.15" x="992.72" y="993.51"/></view></views></metadata><g class="" id="nutsregions"><path d="M830.976402,873.598490L934.315264,856.862298L943.275277,855.409124L960.648415,852.590531L985.503815,848.555877L994.457541,847.101842L996.761559,760.138121L999.428309,659.396739L980.797661,645.315620L947.103130,619.841846L916.233202,596.495264L866.507407,558.871563L824.910082,527.382271L812.203423,517.760426L791.555634,502.122464L750.102967,470.716856L689.965208,425.129490L687.375052,423.165348L641.432935,388.317664L544.524541,397.670058L539.416791,398.161967L537.394720,393.557322L520.899845,355.988571L498.389398,304.699265L481.624260,266.485826L466.048841,273.274924L387.970717,307.288526L352.877289,353.469242L391.669409,359.417664L399.432249,360.607291L402.311451,422.663196L404.373371,467.084259L407.648415,537.606586L408.771255,561.775410L408.978643,566.238864L413.921272,672.565905L463.634108,709.940050L520.478543,752.650632L556.560881,779.747539L570.130508,789.935192L610.254242,820.049934L663.168766,832.906624L712.269941,844.825891L737.506710,850.948018L830.976402,873.598490Z " data-nuts-id="MT001" data-shape-area="2.52429609722e-002" data-shape-leng="7.07779358916e-001" data-stat-levl-="3"/><path d="M177.102195,0.000000L123.313160,5.804718L70.708336,11.470587L39.935074,14.779993L0.571691,19.007743L1.509136,50.350110L4.253640,142.052150L28.743325,147.741415L74.734384,158.418759L133.390574,172.023272L193.043547,185.843821L193.047614,185.844763L228.121922,193.963731L295.396691,178.910985L315.102276,174.498210L323.667116,172.579726L398.508895,155.802241L330.773639,108.177737L263.960697,61.166933L261.749385,59.610422L228.553368,36.239673L211.889958,24.505035L177.102195,0.000000Z M431.141491,239.421246L405.626123,195.624887L362.311451,204.194160L373.091901,245.100747L431.141491,239.421246Z " data-nuts-id="MT002" data-shape-area="5.96208946012e-003" data-shape-leng="4.22979667885e-001" data-stat-levl-="3"/></g></svg>