<?xml version="1.0" encoding="utf-8"?><!DOCTYPE svg  PUBLIC '-//W3C//DTD SVG 1.1//EN'  'http://www.w3.org/Graphics/SVG/1.1/DTD/svg11.dtd'><svg enable_background="new 0 0 1000 651" height="651px" pretty_print="False" style="stroke-linejoin: round; stroke:#000; fill: none;" version="1.1" viewBox="0 0 1000 651" width="1000px" xmlns="http://www.w3.org/2000/svg" xmlns:xlink="http://www.w3.org/1999/xlink"><defs><style type="text/css"><![CDATA[path { fill-rule: evenodd; }]]></style></defs><metadata><views><view h="651.539272879" padding="0" w="1000"><proj dist="1.6" id="satellite" lat0="46.6755083565" lon0="16.2290419397" tilt="0" up="0"/><bbox h="52.52" w="80.73" x="928.47" y="992.7"/></view></views></metadata><g class="" id="nutsregions"><path d="M887.991329,0.000000L882.476652,2.241333L880.505492,3.042069L869.985046,7.312149L867.873302,8.168543L863.009586,10.140040L850.040641,3.222020L847.203867,5.489133L839.766662,11.429277L835.049657,15.194100L832.973620,16.850406L821.084516,17.734125L820.809151,17.754523L813.858965,18.268331L813.858963,18.268331L813.253830,27.804714L813.002890,31.757351L812.878894,33.710014L812.405301,41.165485L812.130517,45.489327L811.280443,58.856894L818.359426,67.384417L822.324480,72.157281L824.015574,74.192133L824.558453,79.514996L826.532958,98.853982L818.502171,94.208092L807.475155,87.821609L807.358618,87.754069L802.496726,84.935516L802.439638,84.902411L798.084052,82.375971L793.772468,79.873762L789.371135,77.318141L783.413216,73.856555L777.227502,70.260017L777.029768,70.145005L764.216589,72.591932L757.202674,73.928309L751.319306,75.047608L749.046345,75.479625L753.405728,79.723778L754.048056,80.348935L754.965362,81.241631L760.424261,86.551986L762.282809,88.359144L765.494957,91.481493L772.465021,93.047996L781.174128,95.002243L783.012445,102.344920L783.793543,105.463378L785.391622,111.840884L785.897581,113.859286L786.084604,114.605278L786.480570,116.184536L787.725722,121.149236L793.470899,125.244201L799.596999,129.607644L799.669021,129.658925L800.068869,129.943613L800.361599,130.501403L803.733504,136.924338L804.493706,138.371859L805.659768,140.591805L806.707998,142.587023L808.312545,145.640412L808.668650,146.317946L812.226200,153.084239L814.491881,157.391197L814.874596,158.118549L815.453360,159.218396L816.861207,161.893303L818.187476,164.412593L821.581594,165.492207L824.030849,166.270919L834.016351,169.442617L835.890297,170.037288L844.354336,172.721065L849.987155,174.505152L859.326167,177.459644L860.409057,177.801948L862.865760,178.578302L866.019728,179.574564L870.657334,181.038579L874.383228,179.559448L877.046061,178.501877L883.454247,175.955227L889.471657,173.561846L892.505252,168.887699L892.651898,168.661692L895.619656,164.086776L896.866528,162.164051L899.031704,161.180958L901.988242,159.838110L906.159136,157.942838L907.493077,157.336477L915.259660,153.804005L921.134220,151.129745L927.728591,148.125409L928.985626,148.848512L929.603558,149.203934L932.019412,150.593236L936.841737,153.365254L950.384171,161.141368L951.211105,161.615791L951.885835,162.002858L971.202575,173.071012L974.428659,174.917030L981.891234,179.184528L988.480742,179.363256L999.231407,179.650997L996.084937,177.830822L990.683854,174.704813L988.221514,173.279010L986.721830,172.410424L980.908717,169.042131L980.607344,168.867443L976.529638,166.503230L977.564021,162.004162L978.505769,157.906471L978.732065,156.921604L979.241375,154.704713L974.239465,144.640030L972.211279,140.556352L971.740315,139.607865L963.884852,139.288991L963.824191,139.184247L958.746824,130.413336L956.670911,126.825188L955.666146,125.088046L952.220817,119.129220L948.508615,116.851450L942.075367,112.901723L937.919035,110.348334L935.640280,108.947882L935.189863,106.935367L935.188369,106.928690L933.613497,99.889333L939.604909,98.717240L944.260689,97.805335L944.742925,93.933416L944.974012,92.077535L945.998687,83.844688L946.300599,81.417826L944.614130,80.219769L934.750553,73.208049L929.095551,69.184454L924.870053,72.788792L924.870051,72.788789L923.007767,68.946461L921.592846,66.026245L920.008177,62.754762L917.635618,57.854884L914.218169,50.793203L911.007464,44.154563L916.257183,33.814191L916.414440,33.504287L919.081552,28.246890L919.828818,26.773417L922.860192,20.794019L916.674688,14.286699L904.580081,1.548221L889.907641,0.179437L887.991329,0.000000Z " data-nuts-id="SI011" data-shape-area="1.57913402885e-001" data-shape-leng="2.39009890985e+000" data-stat-levl-="3"/><path d="M889.471657,173.561846L883.454247,175.955227L877.046061,178.501877L874.383228,179.559448L870.657334,181.038579L866.019728,179.574564L862.865760,178.578302L860.409057,177.801948L859.326167,177.459644L849.987155,174.505152L844.354336,172.721065L835.890297,170.037288L834.016351,169.442617L824.030849,166.270919L821.581594,165.492207L818.187476,164.412593L816.861207,161.893303L815.453360,159.218396L814.874596,158.118549L814.491881,157.391197L812.226200,153.084239L808.668650,146.317946L808.312545,145.640412L806.707998,142.587023L805.659768,140.591805L804.493706,138.371859L803.733504,136.924338L800.361599,130.501403L800.068869,129.943613L799.669021,129.658925L799.596999,129.607644L793.470899,125.244201L787.725722,121.149236L786.480570,116.184536L786.084604,114.605278L785.897581,113.859286L785.391622,111.840884L783.793543,105.463378L783.012445,102.344920L781.174128,95.002243L772.465021,93.047996L765.494957,91.481493L762.282809,88.359144L760.424261,86.551986L754.965362,81.241631L754.048056,80.348935L753.405728,79.723778L749.046345,75.479625L748.313650,75.625039L737.418951,77.784434L726.323139,79.978283L720.439277,78.760831L714.113968,77.450307L706.999642,75.974167L704.172734,81.999098L701.858372,86.929264L697.161158,85.092650L695.533439,84.455932L691.604412,82.918418L688.970677,84.307731L688.428476,84.593691L683.222846,87.338219L681.939443,88.014594L674.910673,91.717015L675.066717,93.244365L675.093060,93.502190L675.926917,101.659894L676.214408,104.470926L676.284776,105.158863L672.969062,108.017371L666.710283,113.410098L666.625865,113.482808L664.070684,115.683261L660.491087,116.108481L653.872553,116.893267L650.884920,117.246915L647.557344,107.399291L647.118356,106.099480L646.783314,105.107340L644.337087,104.161891L638.568966,101.931278L638.568744,101.931193L636.520234,101.138574L630.356461,98.752297L640.025704,113.779243L640.500226,114.516100L642.457838,117.555372L642.321810,120.426673L641.880115,129.747507L641.778991,131.880937L641.512167,137.509157L632.941127,135.342517L628.669935,134.261539L618.534954,131.693110L618.170133,131.600567L614.246323,142.789574L613.083675,146.102986L610.895967,152.335282L608.842563,158.182102L602.370602,176.592091L604.149200,177.983558L605.225869,178.825736L609.677590,182.306757L627.532461,196.249878L629.451222,197.746507L630.931462,198.900858L634.631390,201.785324L634.423196,212.311475L634.418461,212.550901L634.337007,216.669521L627.449581,220.641608L631.922968,223.864417L635.019598,226.094358L635.872813,226.708631L638.554582,228.638971L642.522968,231.494300L642.831911,231.716533L644.844585,233.164128L648.961083,233.502155L653.485495,233.872859L655.227474,234.015358L659.654024,234.376890L663.647666,234.702361L664.299649,234.755432L670.293000,235.242456L671.756722,239.403748L673.132589,243.313822L676.231770,252.116253L677.897944,256.845664L680.269159,263.572789L680.362782,263.838311L683.792876,264.490158L685.474027,264.809449L685.926488,264.895361L693.474761,266.327264L699.501687,267.468752L701.378081,267.823808L711.354376,269.708928L713.740084,270.159078L718.741672,271.101988L726.092295,272.485730L730.386729,273.293043L732.684595,273.724684L736.076181,274.361346L738.029794,274.727844L749.456254,276.868062L772.383470,268.902049L775.152713,267.938063L776.082599,267.614277L787.164735,262.684425L797.456539,258.099835L800.418220,256.779396L805.501356,254.511950L806.799885,253.932474L808.341398,253.244439L811.805701,251.697692L813.805499,250.804505L818.780254,248.581588L819.401430,248.303922L823.085520,246.656675L835.653775,241.031215L835.130416,238.679567L833.419732,230.989505L831.675613,223.143917L835.973257,217.690643L844.330158,215.915587L852.955402,214.080240L861.576509,212.242428L868.270804,219.149114L868.388990,219.270997L868.971409,219.871613L869.606983,220.526995L870.406183,221.351028L873.000014,224.024889L895.311867,223.823388L898.699351,223.790997L907.921903,223.700411L907.921904,223.700409L909.878665,215.582810L903.009687,210.372903L899.134865,207.432130L897.157415,200.508968L895.568520,194.943199L893.974367,189.356359L891.829420,181.835013L890.294084,176.448327L889.471658,173.561848L889.471657,173.561846Z " data-nuts-id="SI012" data-shape-area="2.49899476382e-001" data-shape-leng="2.65747239923e+000" data-stat-levl-="3"/><path d="M630.356461,98.752297L630.356457,98.752297L624.567087,99.409194L620.201083,99.903652L609.070884,101.160528L601.942769,101.962724L599.727414,102.211603L598.602745,102.337872L583.572091,104.020278L579.070986,104.522241L569.993333,101.536515L566.009163,100.224771L560.375709,98.368651L555.919682,96.899338L550.611692,95.147791L541.796857,96.233335L536.418548,96.894054L526.491609,98.110351L519.391183,101.175664L517.860916,101.835924L509.242870,105.551878L497.255371,110.713778L491.751166,113.081237L491.559048,113.163840L482.080107,117.236840L475.198361,116.336470L470.432512,115.711744L469.023688,115.526884L468.024697,116.909693L465.157290,120.877725L463.426434,123.272201L461.632856,125.752849L458.397100,130.226597L457.014776,132.137192L457.014765,132.137233L456.256539,135.002137L455.411273,138.195207L454.186322,142.821259L453.678160,144.739885L453.284262,146.226910L452.736563,148.294290L451.645140,152.413119L449.381580,160.951446L438.033865,162.238720L431.320820,162.997681L430.726475,163.064785L426.716612,163.517122L424.518779,163.764763L417.221513,164.585521L406.427517,182.976497L404.374255,186.471444L418.868603,187.139912L418.868607,187.139912L421.746100,189.974714L423.734440,191.932948L424.985789,193.165097L431.554468,199.629774L431.678398,199.639622L437.050673,200.065926L445.037914,200.697498L448.655025,200.982632L456.265418,201.580764L458.802361,201.779613L469.354648,199.506228L473.134318,198.690719L475.407732,198.199894L476.251281,198.017715L484.939393,196.139503L487.463090,195.593289L490.912783,185.824493L497.629510,187.629235L509.029513,190.687438L524.609192,194.856917L533.297251,197.177039L536.891094,198.135718L538.526015,198.571641L541.588040,199.387734L544.028876,201.529015L553.318237,209.672509L554.929716,211.084270L557.198047,213.071009L558.137310,213.893511L562.718264,217.903654L572.759946,216.835246L573.923250,216.711199L575.223598,216.572471L577.146165,216.367230L579.677541,210.996923L582.960121,204.029236L585.798851,198.000299L586.591411,196.316488L588.510581,192.238158L593.375289,191.613777L601.062471,190.625082L604.222685,190.217898L603.438692,184.452275L602.370602,176.592091L608.842563,158.182102L610.895967,152.335282L613.083675,146.102986L614.246323,142.789574L618.170133,131.600567L618.534954,131.693110L628.669935,134.261539L632.941127,135.342517L641.512167,137.509157L641.778991,131.880937L641.880115,129.747507L642.321810,120.426673L642.457838,117.555372L640.500226,114.516100L640.025704,113.779243L630.356461,98.752297Z " data-nuts-id="SI013" data-shape-area="1.21579644433e-001" data-shape-leng="1.85574359803e+000" data-stat-levl-="3"/><path d="M749.456254,276.868062L738.029794,274.727844L736.076181,274.361346L732.684595,273.724684L730.386729,273.293043L726.092295,272.485730L718.741672,271.101988L713.740084,270.159078L711.354376,269.708928L701.378081,267.823808L699.501687,267.468752L693.474761,266.327264L685.926488,264.895361L685.474027,264.809449L683.792876,264.490158L680.362782,263.838311L680.269159,263.572789L677.897944,256.845664L676.231770,252.116253L673.132589,243.313822L671.756722,239.403748L670.293000,235.242456L664.299649,234.755432L663.647666,234.702361L659.654024,234.376890L655.227474,234.015358L653.485495,233.872859L648.961083,233.502155L644.844585,233.164128L642.831911,231.716533L642.522968,231.494300L638.554582,228.638971L635.872813,226.708631L635.019598,226.094358L631.922968,223.864417L627.449581,220.641608L634.337007,216.669521L634.418461,212.550901L634.423196,212.311475L634.631390,201.785324L630.931462,198.900858L629.451222,197.746507L627.532461,196.249878L609.677590,182.306757L605.225869,178.825736L604.149200,177.983558L602.370602,176.592091L603.438692,184.452275L604.222685,190.217898L601.062471,190.625082L593.375289,191.613777L588.510581,192.238158L586.591411,196.316488L585.798851,198.000299L582.960121,204.029236L579.677541,210.996923L577.146165,216.367230L575.223598,216.572471L573.923250,216.711199L572.759946,216.835246L562.718264,217.903654L558.137310,213.893511L557.198047,213.071009L554.929716,211.084270L553.318237,209.672509L544.028876,201.529015L541.588040,199.387734L538.526015,198.571641L536.891094,198.135718L533.297251,197.177039L524.609192,194.856917L509.029513,190.687438L497.629510,187.629235L490.912783,185.824493L487.463090,195.593289L484.939393,196.139503L476.251281,198.017715L475.407732,198.199894L473.134318,198.690719L469.354648,199.506228L458.802361,201.779613L456.265418,201.580764L448.655025,200.982632L445.037914,200.697498L437.050673,200.065926L431.678398,199.639622L431.554468,199.629774L424.985789,193.165097L423.734440,191.932948L421.746100,189.974714L418.868607,187.139912L418.868603,187.139912L404.374255,186.471444L400.687065,187.338325L384.924214,191.037284L379.941649,192.204155L376.543967,201.841736L370.228111,219.737984L369.814515,220.909077L369.781307,223.045327L376.654125,228.829871L377.630952,228.594832L382.264561,227.479319L392.249615,225.072135L391.858350,238.639998L391.819137,240.000212L395.904540,246.760351L400.497584,254.354836L403.301660,258.988372L405.390912,262.439267L405.613671,262.807133L407.650590,266.170275L409.438914,269.121998L410.828879,271.415586L411.234883,272.085433L411.829858,273.066970L440.346812,275.780119L443.192079,276.048938L445.345529,276.252168L447.838142,276.487161L452.826716,276.956676L458.350839,277.475370L467.625303,282.996177L474.676438,287.189384L474.995263,296.943617L474.997114,297.000203L475.932501,298.404759L480.221499,304.842360L481.485590,306.738874L482.251588,306.720559L485.742452,306.636782L488.327674,306.574414L491.147986,306.506058L498.552736,306.325022L504.392018,306.180657L504.464159,306.178865L511.019656,306.015090L518.302442,305.831058L533.926154,305.428842L536.487534,307.974981L538.073322,309.550922L538.393363,309.868937L539.785745,311.252356L548.368718,319.774717L550.403005,323.189572L551.670977,325.317456L553.762061,328.825671L557.793494,335.585708L561.200169,341.294539L553.380841,345.491821L549.534540,347.555008L549.197040,347.736000L540.493325,352.401051L535.702768,354.966640L528.360895,358.895735L523.339768,361.580867L524.400489,363.428757L529.784760,372.803455L535.470329,373.338789L539.657670,373.732181L547.136594,374.432969L553.263919,375.005348L561.933223,375.812477L566.654839,376.250734L572.424519,376.784993L574.686937,376.994104L573.357222,375.199430L571.038915,372.069650L570.372970,371.170410L568.549003,368.707021L566.069798,365.357637L565.401119,364.454050L564.399812,363.100818L559.389249,356.326238L563.797341,352.947230L566.814815,353.780596L574.016779,355.767872L578.710087,357.061585L588.035046,359.628887L596.907076,359.834541L599.352355,359.890648L616.439841,360.275801L618.698721,360.325810L618.715981,360.326191L623.576818,360.433083L626.281814,360.492143L636.400942,360.710388L648.213861,360.959791L649.163194,360.979583L651.707812,361.032449L653.115674,361.440710L661.305020,363.813602L665.418886,365.004384L670.241781,370.016241L670.557160,370.343870L675.008183,374.966378L677.149381,377.189141L681.072497,381.260136L681.592926,386.806789L681.932803,390.427524L682.324414,394.597797L704.186329,376.996692L709.409146,372.785174L713.089801,371.906910L714.303966,371.617054L714.817178,371.494515L726.646130,368.666779L723.620179,366.957776L716.271134,362.804577L705.676427,357.248177L704.817494,356.797393L702.607148,355.637144L699.972821,354.253929L695.277570,351.787470L695.144981,351.324941L694.328309,348.475621L691.561108,338.815570L691.149487,337.377919L688.239947,327.210570L693.319518,321.309987L696.563392,317.539792L704.109695,308.763011L703.680210,304.869224L703.674460,304.817082L703.571463,303.883080L703.486322,303.110935L702.949769,298.243629L707.804335,294.852012L712.366678,291.662823L713.186207,291.089774L726.519851,295.772355L736.761725,299.362920L741.722148,297.709476L744.454265,296.798259L747.819996,295.675202L748.409782,288.899098L748.471097,288.194447L749.456254,276.868062Z " data-nuts-id="SI014" data-shape-area="2.79812439201e-001" data-shape-leng="3.68781345401e+000" data-stat-levl-="3"/><path d="M523.339768,361.580867L528.360895,358.895735L535.702768,354.966640L540.493325,352.401051L549.197040,347.736000L549.534540,347.555008L553.380841,345.491821L561.200169,341.294539L557.793494,335.585708L553.762061,328.825671L551.670977,325.317456L550.403005,323.189572L548.368718,319.774717L539.785745,311.252356L538.393363,309.868937L538.073322,309.550922L536.487534,307.974981L533.926154,305.428842L518.302442,305.831058L511.019656,306.015090L504.464159,306.178865L504.392018,306.180657L498.552736,306.325022L491.147986,306.506058L488.327674,306.574414L485.742452,306.636782L482.251588,306.720559L481.485590,306.738874L480.221499,304.842360L475.932501,298.404759L474.997114,297.000203L472.648075,302.093526L472.016321,303.462962L470.054473,307.714603L469.588420,308.724393L468.956273,310.093919L468.122107,311.900874L464.794325,312.231601L456.187819,313.084785L449.471846,313.748388L450.013842,319.064896L450.187595,320.768583L450.717509,325.962480L450.966136,328.398324L451.012876,328.856163L451.359814,332.253883L455.285550,332.339109L459.344008,332.426544L459.980848,332.440202L469.443515,332.641160L470.897346,338.724116L473.323098,348.865698L477.090349,348.885472L477.320099,348.886659L478.796448,348.894234L485.312548,348.926587L489.052054,346.177075L489.690920,345.707225L490.671576,344.985940L500.040944,338.090585L501.197145,348.880300L502.199248,358.221778L502.582871,361.795370L502.769333,363.531844L509.699740,362.876528L519.263416,361.968899L521.742248,361.733020L523.339768,361.580867Z " data-nuts-id="SI015" data-shape-area="3.01462642461e-002" data-shape-leng="9.01189143612e-001" data-stat-levl-="3"/><path d="M726.646130,368.666779L714.817178,371.494515L714.303966,371.617054L713.089801,371.906910L709.409146,372.785174L704.186329,376.996692L682.324414,394.597797L681.932803,390.427524L681.592926,386.806789L681.072497,381.260136L677.149381,377.189141L675.008183,374.966378L670.557160,370.343870L670.241781,370.016241L665.418886,365.004384L661.305020,363.813602L653.115674,361.440710L651.707812,361.032449L649.163194,360.979583L648.213861,360.959791L636.400942,360.710388L626.281814,360.492143L623.576818,360.433083L618.715981,360.326191L618.698721,360.325810L616.439841,360.275801L599.352355,359.890648L596.907076,359.834541L588.035046,359.628887L578.710087,357.061585L574.016779,355.767872L566.814815,353.780596L563.797341,352.947230L559.389249,356.326238L564.399812,363.100818L565.401119,364.454050L566.069798,365.357637L568.549003,368.707021L570.372970,371.170410L571.038915,372.069650L573.357222,375.199430L574.686937,376.994104L572.424519,376.784993L566.654839,376.250734L561.933223,375.812477L553.263919,375.005348L547.136594,374.432969L539.657670,373.732181L535.470329,373.338789L529.784760,372.803455L531.803691,378.888134L533.049002,382.639529L537.957344,388.967456L539.531971,390.996559L541.047011,392.948446L541.977062,394.146460L543.761156,396.444138L546.866506,400.442031L546.883757,400.464235L548.840995,402.983112L550.388048,404.973605L551.792532,406.780283L552.049664,407.111009L554.523835,410.292705L556.455281,412.775700L560.816755,418.380147L562.278619,420.257851L568.077725,422.404043L569.997899,423.114287L571.788665,423.776489L574.867779,421.833433L575.011610,421.742653L583.645701,416.290379L586.711873,414.352835L589.262268,412.740692L591.725211,411.183377L591.860902,411.468307L592.152122,412.079800L594.708105,417.445214L595.882934,419.910443L596.636946,421.492335L596.769457,421.770313L598.109142,424.580261L599.951227,428.442746L600.658963,429.926348L601.642048,431.986805L603.006616,434.846144L604.976756,438.973031L605.862442,440.827762L605.880082,440.832068L612.641430,442.481396L619.643716,444.187256L619.643716,444.187265L619.422574,448.871539L619.403651,449.272326L619.163931,454.349017L618.999056,457.840058L618.974222,458.365851L618.784754,462.376900L618.729622,463.543926L618.556956,467.198546L618.551996,467.303507L618.521928,467.939860L618.416586,470.169170L618.349182,471.595513L627.260931,485.457684L636.134334,484.592532L639.754050,484.238656L640.039439,484.210731L643.589721,483.863063L649.552371,483.277960L649.552369,483.277955L648.548852,480.271477L646.564617,474.324394L646.500194,474.131255L648.594043,472.943195L649.990916,472.150438L656.147669,468.654782L658.142247,467.521762L659.338311,466.842210L660.440028,466.216176L663.473715,464.491909L667.487916,462.209390L669.368055,461.139950L673.298965,462.209320L677.058340,463.231335L695.975314,468.363841L696.513103,468.509503L698.683468,469.097215L699.931603,468.731409L705.163048,467.197345L706.671771,466.754682L722.748992,462.030749L719.737523,458.987856L716.744265,455.962228L712.830844,452.004778L714.560399,447.034587L715.630957,443.957118L719.265184,433.504152L720.313536,430.487135L721.784962,426.251295L722.302584,424.760845L722.439298,424.367157L723.819478,420.392012L723.385950,415.867679L722.854804,410.321962L722.816089,409.917618L722.275079,404.265719L721.410305,397.816514L721.260690,396.700354L721.028869,394.970683L723.213736,390.019718L723.712532,388.889135L723.873453,388.524363L724.338850,387.469349L725.831387,384.085245L729.751958,375.191187L730.546751,373.387311L726.646130,368.666779Z " data-nuts-id="SI016" data-shape-area="1.05867265302e-001" data-shape-leng="1.87806110773e+000" data-stat-levl-="3"/><path d="M547.706409,649.539273L556.519145,649.242417L562.154550,649.050889L569.402840,648.802594L584.257909,631.631470L588.635806,633.202980L594.765689,635.401703L595.225431,635.566528L599.091586,636.952170L601.477911,637.807045L603.654962,636.035547L604.674499,635.205782L610.081833,630.803311L619.642636,623.012492L617.865848,621.476227L614.784726,618.811415L595.911475,602.466652L595.777681,602.350649L595.506000,602.115091L594.131359,600.923101L593.472892,598.269009L592.069179,592.608874L591.281273,589.430534L589.441213,582.004269L586.971045,572.026932L586.319340,569.393072L588.890458,567.200557L589.001865,567.105540L594.774888,562.180161L601.861038,556.129943L606.962363,551.771302L607.827129,551.032178L613.210179,552.596592L618.885157,554.244320L621.568146,555.022780L624.094847,552.914141L627.078994,550.422948L611.994767,520.627136L603.974315,526.106307L595.816823,531.673916L595.712520,531.745070L595.890734,531.379960L595.994750,531.166852L597.542256,527.995883L596.681207,528.235676L595.324144,528.613533L594.845446,528.746799L593.868625,529.018705L593.005190,529.259012L590.248212,530.026081L589.183125,525.801541L589.165537,525.731763L588.167434,521.771383L585.914790,522.744210L584.547480,523.334557L580.813797,518.053816L604.104477,498.671380L612.867258,493.675351L615.232756,492.325795L622.568084,488.138469L627.260931,485.457684L618.349182,471.595513L618.416586,470.169170L618.521928,467.939860L618.551996,467.303507L618.556956,467.198546L618.729622,463.543926L618.784754,462.376900L618.974222,458.365851L618.999056,457.840058L619.163931,454.349017L619.403651,449.272326L619.422574,448.871539L619.643716,444.187265L619.643716,444.187256L612.641430,442.481396L605.880082,440.832068L605.862442,440.827762L604.976756,438.973031L603.006616,434.846144L601.642048,431.986805L600.658963,429.926348L599.951227,428.442746L598.109142,424.580261L596.769457,421.770313L596.636946,421.492335L595.882934,419.910443L594.708105,417.445214L592.152122,412.079800L591.860902,411.468307L591.725211,411.183377L589.262268,412.740692L586.711873,414.352835L583.645701,416.290379L575.011610,421.742653L574.867779,421.833433L571.788665,423.776489L569.997899,423.114287L568.077725,422.404043L562.278619,420.257851L560.816755,418.380147L556.455281,412.775700L554.523835,410.292705L552.049664,407.111009L551.792532,406.780283L550.388048,404.973605L548.840995,402.983112L546.883757,400.464235L546.866506,400.442031L543.761156,396.444138L541.977062,394.146460L541.047011,392.948446L539.531971,390.996559L537.957344,388.967456L533.049002,382.639529L527.504987,384.096694L525.848755,384.531731L519.680367,386.150831L516.229246,387.055916L510.352693,388.595806L509.463689,392.162652L509.036687,393.875527L508.499084,396.031763L508.035648,397.890259L506.949283,402.245856L506.581937,403.718358L505.792180,406.883549L504.192984,406.644011L504.058250,406.623824L499.394466,405.924589L491.651907,404.761670L488.430891,404.277111L487.155080,404.085058L482.557028,403.392306L477.962852,406.282479L477.406178,406.632576L473.437004,409.128170L472.983864,409.413007L470.302511,411.098157L466.601111,413.423521L465.217087,414.292765L464.961323,416.311417L464.745199,418.017014L464.092422,423.167554L463.965214,424.171072L463.763943,425.758741L462.756954,433.699855L461.313785,445.074298L458.172450,448.385766L457.080857,449.536185L453.851778,452.938387L452.764920,454.083217L453.583383,459.483144L453.858224,461.295765L454.060516,462.629707L454.552567,465.873582L455.787911,474.012903L456.108881,476.126564L456.458052,478.425416L451.855120,478.891511L442.821164,479.803688L439.484404,480.139734L440.511210,497.038567L446.979818,502.390579L450.725673,505.487924L449.807376,506.588014L444.883188,512.484841L427.915906,495.303270L423.529691,490.855596L422.154744,489.460870L419.130132,486.391883L417.046979,484.277477L407.538584,474.619259L406.575171,473.640009L406.085874,473.142623L405.816957,472.869246L403.164796,470.172600L398.515198,471.562096L398.481851,471.572058L393.076084,473.186203L388.614183,474.517447L385.234359,475.525203L380.607668,476.903838L378.338034,477.579752L376.653385,478.081292L372.029341,479.457218L368.492194,480.509030L364.333892,481.744776L358.393206,484.280324L361.136851,490.370924L362.017496,492.325087L363.543389,495.710172L364.386452,497.579963L364.487283,497.803568L364.791025,498.477123L368.186091,506.002732L364.563219,505.708852L362.628243,505.551664L358.594566,505.223478L355.310834,504.955801L358.905810,516.280313L360.522893,521.370190L361.360160,524.004550L364.846711,534.967285L366.567846,535.889349L377.279993,541.623760L375.127621,548.193474L372.673039,555.681714L379.678301,560.841688L380.427443,561.393240L384.812406,564.620655L392.091569,569.974530L392.806235,570.499921L394.082116,571.437781L396.458163,573.183960L401.430443,576.836531L402.793826,580.040435L403.636491,582.020170L404.071372,583.041720L404.918109,585.030439L406.207871,588.058947L406.390195,588.486992L407.778630,591.746067L408.383780,593.166211L408.747829,594.020453L409.588161,595.992027L410.557254,598.265231L420.046318,605.751989L424.367237,609.158322L425.360013,609.940713L426.361499,610.729874L435.260432,617.737988L437.626774,624.040894L440.608291,631.976947L442.797946,631.317147L450.075913,629.122426L451.528026,628.684222L454.509188,627.784275L459.035466,626.417065L459.767518,626.195847L460.511268,625.971067L466.041629,624.298807L470.652304,622.903500L470.652306,622.903500L477.422841,601.540318L485.893476,609.043377L486.730990,609.784802L490.647148,613.250655L494.400736,616.571078L494.400740,616.571078L494.402380,616.571368L503.714265,618.215129L506.056270,618.627942L508.821809,619.115095L512.783629,619.812384L512.897742,619.832458L521.188080,621.289282L523.093951,623.322836L525.191362,625.560185L526.263189,626.703288L526.709559,627.179296L528.103837,628.665971L528.110676,628.673262L534.565719,635.552579L537.117800,638.270820L543.805612,645.389815L547.706409,649.539273Z " data-nuts-id="SI017" data-shape-area="3.08581249021e-001" data-shape-leng="3.22534644373e+000" data-stat-levl-="3"/><path d="M364.333892,481.744776L362.647968,479.750435L361.222508,478.063846L360.358815,477.041772L359.802827,476.383765L358.407290,474.731936L357.263377,473.377705L352.166114,467.340667L345.387440,459.305632L342.983545,456.454390L340.760680,453.817023L340.618343,453.648118L337.880039,450.398017L334.463886,446.341650L328.040928,447.794409L322.613957,449.020432L319.752815,449.666263L313.340974,451.112225L305.289375,445.576070L305.284406,445.572652L301.539542,442.995922L288.234864,433.832018L283.457383,441.628167L281.440420,444.917925L275.427349,454.719792L269.834855,451.600527L268.779866,451.011857L266.916473,449.971922L264.558909,448.655857L257.518564,444.723451L256.600942,444.210660L250.877749,441.011090L248.361880,439.603874L236.786181,441.891337L229.140952,443.398836L203.765404,457.133618L209.634169,470.144337L208.279568,473.307081L204.822688,481.374761L202.801085,486.090462L200.628969,491.155350L207.838063,496.168702L214.466310,500.774290L217.914195,511.883510L217.779618,511.939251L213.343984,513.775894L209.621959,515.316226L207.473875,525.073778L207.862188,526.306824L210.786170,535.586684L212.861336,542.167373L213.076526,542.849524L214.222302,546.480847L214.716582,548.046961L216.199060,552.742677L215.965151,556.901120L215.383050,567.249952L215.260114,569.435600L215.217676,570.190101L214.937437,575.172461L218.387051,576.388994L219.877818,576.914532L222.149883,577.715275L220.311932,582.399639L220.064076,583.031218L218.878039,586.053038L217.419879,589.767239L216.960846,590.936269L216.834822,591.257198L214.422033,597.400057L212.845247,601.412959L217.606496,602.055938L218.616154,602.192160L220.657712,602.467469L223.535872,602.855289L222.991818,606.163039L221.119917,617.539391L221.119917,617.539394L225.145755,618.404373L229.992535,619.444752L249.200936,623.557322L250.684586,616.398182L251.359743,613.139276L253.510350,611.960713L261.197962,607.745347L265.917285,610.925173L272.015418,615.031363L272.745557,615.522802L285.256420,623.936896L285.304025,623.968889L286.500709,624.773045L302.654439,616.731756L307.968491,614.082967L316.626587,608.720145L330.147974,600.334315L338.425450,595.194270L340.781101,586.475775L343.815710,575.236576L344.055135,574.349447L346.844606,564.009733L350.609474,557.942260L364.846706,534.967292L364.846711,534.967285L361.360160,524.004550L360.522893,521.370190L358.905810,516.280313L355.310834,504.955801L358.594566,505.223478L362.628243,505.551664L364.563219,505.708852L368.186091,506.002732L364.791025,498.477123L364.487283,497.803568L364.386452,497.579963L363.543389,495.710172L362.017496,492.325087L361.136851,490.370924L358.393206,484.280324L364.333892,481.744776Z " data-nuts-id="SI018" data-shape-area="1.67221119005e-001" data-shape-leng="1.83955178744e+000" data-stat-levl-="3"/><path d="M474.997114,297.000203L474.995263,296.943617L474.676438,287.189384L467.625303,282.996177L458.350839,277.475370L452.826716,276.956676L447.838142,276.487161L445.345529,276.252168L443.192079,276.048938L440.346812,275.780119L411.829858,273.066970L411.234883,272.085433L410.828879,271.415586L409.438914,269.121998L407.650590,266.170275L405.613671,262.807133L405.390912,262.439267L403.301660,258.988372L400.497584,254.354836L395.904540,246.760351L391.819137,240.000212L391.858350,238.639998L392.249615,225.072135L382.264561,227.479319L377.630952,228.594832L376.654125,228.829871L369.781307,223.045327L365.763087,224.956731L360.470798,227.472738L362.150790,237.256806L363.052524,242.504228L363.983164,247.916819L365.613512,257.391453L366.979260,265.321114L367.719089,269.613873L368.498593,274.134736L368.927400,276.620762L365.425052,280.176634L361.059587,284.606742L356.879658,288.846414L355.209927,290.539422L348.145374,297.698748L339.990698,299.623154L339.830476,299.660934L338.721156,299.922477L335.203818,300.751386L326.922735,302.700705L326.157539,303.502027L321.147183,308.747122L317.841166,312.206310L314.774798,315.413523L314.350328,315.857398L311.274692,319.072964L310.479469,319.904175L308.483241,319.266993L307.583325,318.979681L306.785234,318.724844L305.229390,318.227957L299.884433,325.287797L299.436980,325.878588L293.500882,333.712999L288.850572,339.846199L288.387415,340.456844L288.043433,340.480569L284.014616,340.758078L277.617627,341.197314L261.575649,342.291283L260.739899,344.480407L259.549262,347.598480L257.599461,352.703093L256.159174,356.472532L254.443361,360.961664L253.604770,363.155141L248.263908,368.517222L245.865210,370.924357L240.820922,375.984179L239.445134,377.363685L238.828557,377.981856L236.812230,380.003083L235.594817,381.223224L233.984785,382.836596L230.845574,390.223816L229.184203,394.131664L226.959771,399.362079L219.982396,415.754618L219.982399,415.754626L223.834648,427.391658L224.854251,430.469433L227.413641,438.191007L227.749028,439.202407L229.140950,443.398831L229.140952,443.398836L236.786181,441.891337L248.361880,439.603874L250.877749,441.011090L256.600942,444.210660L257.518564,444.723451L264.558909,448.655857L266.916473,449.971922L268.779866,451.011857L269.834855,451.600527L275.427349,454.719792L281.440420,444.917925L283.457383,441.628167L288.234864,433.832018L301.539542,442.995922L305.284406,445.572652L305.289375,445.576070L313.340974,451.112225L319.752815,449.666263L322.613957,449.020432L328.040928,447.794409L334.463886,446.341650L337.880039,450.398017L340.618343,453.648118L340.760680,453.817023L342.983545,456.454390L345.387440,459.305632L352.166114,467.340667L357.263377,473.377705L358.407290,474.731936L359.802827,476.383765L360.358815,477.041772L361.222508,478.063846L362.647968,479.750435L364.333892,481.744776L368.492194,480.509030L372.029341,479.457218L376.653385,478.081292L378.338034,477.579752L380.607668,476.903838L385.234359,475.525203L388.614183,474.517447L393.076084,473.186203L398.481851,471.572058L398.515198,471.562096L403.164796,470.172600L405.816957,472.869246L406.085874,473.142623L406.575171,473.640009L407.538584,474.619259L417.046979,484.277477L419.130132,486.391883L422.154744,489.460870L423.529691,490.855596L427.915906,495.303270L444.883188,512.484841L449.807376,506.588014L450.725673,505.487924L446.979818,502.390579L440.511210,497.038567L439.484404,480.139734L442.821164,479.803688L451.855120,478.891511L456.458052,478.425416L456.108881,476.126564L455.787911,474.012903L454.552567,465.873582L454.060516,462.629707L453.858224,461.295765L453.583383,459.483144L452.764920,454.083217L453.851778,452.938387L457.080857,449.536185L458.172450,448.385766L461.313785,445.074298L462.756954,433.699855L463.763943,425.758741L463.965214,424.171072L464.092422,423.167554L464.745199,418.017014L464.961323,416.311417L465.217087,414.292765L466.601111,413.423521L470.302511,411.098157L472.983864,409.413007L473.437004,409.128170L477.406178,406.632576L477.962852,406.282479L482.557028,403.392306L487.155080,404.085058L488.430891,404.277111L491.651907,404.761670L499.394466,405.924589L504.058250,406.623824L504.192984,406.644011L505.792180,406.883549L506.581937,403.718358L506.949283,402.245856L508.035648,397.890259L508.499084,396.031763L509.036687,393.875527L509.463689,392.162652L510.352693,388.595806L516.229246,387.055916L519.680367,386.150831L525.848755,384.531731L527.504987,384.096694L533.049002,382.639529L531.803691,378.888134L529.784760,372.803455L524.400489,363.428757L523.339768,361.580867L521.742248,361.733020L519.263416,361.968899L509.699740,362.876528L502.769333,363.531844L502.582871,361.795370L502.199248,358.221778L501.197145,348.880300L500.040944,338.090585L490.671576,344.985940L489.690920,345.707225L489.052054,346.177075L485.312548,348.926587L478.796448,348.894234L477.320099,348.886659L477.090349,348.885472L473.323098,348.865698L470.897346,338.724116L469.443515,332.641160L459.980848,332.440202L459.344008,332.426544L455.285550,332.339109L451.359814,332.253883L451.012876,328.856163L450.966136,328.398324L450.717509,325.962480L450.187595,320.768583L450.013842,319.064896L449.471846,313.748388L456.187819,313.084785L464.794325,312.231601L468.122107,311.900874L468.956273,310.093919L469.588420,308.724393L470.054473,307.714603L472.016321,303.462962L472.648075,302.093526L474.997114,297.000203Z " data-nuts-id="SI021" data-shape-area="2.97103970912e-001" data-shape-leng="3.12214788187e+000" data-stat-levl-="3"/><path d="M330.074594,188.359685L311.797114,188.840403L288.856561,189.424202L275.752685,189.747900L265.908766,189.986395L250.277960,190.356852L249.448768,190.376222L234.062478,170.923552L230.515665,169.774408L230.449154,169.752853L227.400962,168.764740L212.028796,163.774468L208.963840,162.778058L206.941861,163.716196L204.505686,164.846196L202.526197,165.764113L198.310950,167.718028L190.230733,162.128624L188.318286,160.804912L187.603113,160.309822L184.093881,157.879880L173.070064,150.239825L169.292936,150.657935L166.248116,150.994544L144.586402,153.377988L139.546315,153.929711L134.498280,154.481230L129.700142,152.986688L117.392223,149.147699L108.705268,146.433562L106.267351,155.238379L104.763637,160.666742L102.619826,168.402578L101.575513,172.169545L98.188210,184.381734L96.777868,191.631739L104.807167,188.401221L110.908976,185.943899L115.234528,184.200702L126.849368,191.828175L129.846936,193.794940L134.177938,196.635337L136.031342,197.850399L137.868835,199.054761L143.604567,210.703805L144.441359,212.402120L129.528835,222.095599L127.906100,223.149429L120.266590,228.108052L114.279644,231.991046L109.215660,246.708914L108.799313,247.918306L110.646852,251.157494L114.385664,257.709142L115.571504,259.786179L118.227156,264.435977L118.227158,264.435978L125.364569,267.725635L138.399976,273.725788L140.854712,274.854552L149.496932,278.825634L151.271480,279.640480L154.626201,281.180403L158.489955,280.603711L162.498933,280.004664L166.277930,279.439348L170.926203,278.743150L178.482493,277.609416L179.591566,277.442806L180.822681,277.257799L186.564469,276.394088L187.498440,276.862198L195.212677,280.726491L192.700878,289.523674L189.987198,299.022080L188.434615,304.453705L197.287675,306.289322L205.527475,307.994590L206.908708,308.280141L215.234658,309.999590L210.051107,319.929494L205.743736,328.174723L205.725404,328.209802L200.947068,337.349951L199.467697,340.178334L197.346959,344.231784L197.190722,344.530353L200.688933,348.180322L203.085967,350.680372L208.202806,356.014472L213.203753,361.224287L215.273722,363.379707L218.121046,366.343612L220.384714,368.699173L221.752547,370.122194L223.423327,371.860037L227.917376,376.532578L228.634603,377.278036L229.833220,378.523676L232.530615,381.326175L233.984785,382.836596L235.594817,381.223224L236.812230,380.003083L238.828557,377.981856L239.445134,377.363685L240.820922,375.984179L245.865210,370.924357L248.263908,368.517222L253.604770,363.155141L254.443361,360.961664L256.159174,356.472532L257.599461,352.703093L259.549262,347.598480L260.739899,344.480407L261.575649,342.291283L277.617627,341.197314L284.014616,340.758078L288.043433,340.480569L288.387415,340.456844L288.850572,339.846199L293.500882,333.712999L299.436980,325.878588L299.884433,325.287797L305.229390,318.227957L306.785234,318.724844L307.583325,318.979681L308.483241,319.266993L310.479469,319.904175L311.274692,319.072964L314.350328,315.857398L314.774798,315.413523L317.841166,312.206310L321.147183,308.747122L326.157539,303.502027L326.922735,302.700705L335.203818,300.751386L338.721156,299.922477L339.830476,299.660934L339.990698,299.623154L348.145374,297.698748L355.209927,290.539422L356.879658,288.846414L361.059587,284.606742L365.425052,280.176634L368.927400,276.620762L368.498593,274.134736L367.719089,269.613873L366.979260,265.321114L365.613512,257.391453L363.983164,247.916819L363.052524,242.504228L362.150790,237.256806L360.470798,227.472738L365.763087,224.956731L369.781307,223.045327L369.814515,220.909077L367.328271,216.119499L359.652879,201.318736L356.901430,196.007607L356.900303,196.008103L350.560811,198.791098L345.498764,201.011679L343.483375,201.895374L334.527800,198.029842L332.228154,197.036492L331.635151,194.648011L330.391802,189.638211L330.074594,188.359685Z " data-nuts-id="SI022" data-shape-area="2.49173100277e-001" data-shape-leng="2.71664697078e+000" data-stat-levl-="3"/><path d="M98.188210,184.381734L88.228896,183.734824L71.588053,182.644636L65.986323,192.326638L65.113263,193.834917L61.029479,200.887433L50.843886,206.126126L45.441239,208.902255L43.674269,209.809817L42.281976,210.524800L38.813218,212.305594L34.742916,214.394268L32.952092,215.312908L30.440646,216.600874L28.014970,220.177612L23.822949,226.356162L23.491924,226.843907L22.636742,228.103867L20.072392,231.881123L18.902200,233.604372L14.128370,240.631643L9.980599,241.539830L0.768593,243.554103L2.101634,247.743816L11.916075,278.532801L14.122725,285.441421L20.830730,276.980569L25.803221,277.281914L29.372675,277.497591L31.893763,277.649601L37.159748,279.816685L43.216795,282.307372L47.041490,283.879036L57.000460,287.967550L65.971538,291.645705L70.539772,293.516943L75.954241,295.733291L88.378571,300.812798L83.509536,309.198033L81.501725,312.654062L74.467555,324.753957L74.467552,324.753959L67.017382,330.534251L54.083015,340.558111L45.013053,347.578522L40.917203,350.746502L40.205739,351.296644L34.821234,355.458821L34.566377,355.655762L37.771789,363.586714L28.152363,376.885035L30.956594,380.082613L33.808497,383.333268L34.634854,384.274925L37.664065,387.725871L41.809897,392.446540L43.048449,393.856294L45.441643,393.786653L46.990293,393.741461L48.986546,393.683060L55.587621,393.488760L57.065630,391.579879L62.821977,384.142052L67.247397,385.201253L71.605758,386.243509L72.890172,386.550493L78.977195,388.004287L78.441554,392.350750L77.877260,396.929010L77.117063,403.095521L76.824263,405.470288L76.514492,407.982478L74.900576,411.135456L73.124855,414.603619L72.714481,415.404983L68.557511,423.519682L65.457529,429.567635L65.170010,430.128426L64.171935,432.074924L59.359621,441.455903L56.090512,447.824593L57.859113,451.472405L60.795660,457.526093L61.458655,458.892330L62.338791,460.705727L80.582142,462.372273L88.911624,463.128473L91.850769,457.582624L93.341917,454.768031L99.987970,442.215517L106.385461,446.178038L116.933855,452.704853L117.330877,452.950347L118.020795,453.376922L122.675414,456.253929L122.675418,456.253931L132.245546,458.708668L135.439693,459.526998L142.212822,461.260649L149.902551,463.226274L152.137247,463.796973L152.512111,463.892683L155.967371,464.774565L157.367141,465.603564L166.259941,470.866931L174.938027,475.997719L178.415724,478.052333L182.626742,480.539027L192.147400,486.156475L197.182134,489.124474L200.628969,491.155350L202.801085,486.090462L204.822688,481.374761L208.279568,473.307081L209.634169,470.144337L203.765404,457.133618L229.140952,443.398836L229.140950,443.398831L227.749028,439.202407L227.413641,438.191007L224.854251,430.469433L223.834648,427.391658L219.982399,415.754626L219.982396,415.754618L226.959771,399.362079L229.184203,394.131664L230.845574,390.223816L233.984785,382.836596L232.530615,381.326175L229.833220,378.523676L228.634603,377.278036L227.917376,376.532578L223.423327,371.860037L221.752547,370.122194L220.384714,368.699173L218.121046,366.343612L215.273722,363.379707L213.203753,361.224287L208.202806,356.014472L203.085967,350.680372L200.688933,348.180322L197.190722,344.530353L197.346959,344.231784L199.467697,340.178334L200.947068,337.349951L205.725404,328.209802L205.743736,328.174723L210.051107,319.929494L215.234658,309.999590L206.908708,308.280141L205.527475,307.994590L197.287675,306.289322L188.434615,304.453705L189.987198,299.022080L192.700878,289.523674L195.212677,280.726491L187.498440,276.862198L186.564469,276.394088L180.822681,277.257799L179.591566,277.442806L178.482493,277.609416L170.926203,278.743150L166.277930,279.439348L162.498933,280.004664L158.489955,280.603711L154.626201,281.180403L151.271480,279.640480L149.496932,278.825634L140.854712,274.854552L138.399976,273.725788L125.364569,267.725635L118.227158,264.435978L118.227156,264.435977L115.571504,259.786179L114.385664,257.709142L110.646852,251.157494L108.799313,247.918306L109.215660,246.708914L114.279644,231.991046L120.266590,228.108052L127.906100,223.149429L129.528835,222.095599L144.441359,212.402120L143.604567,210.703805L137.868835,199.054761L136.031342,197.850399L134.177938,196.635337L129.846936,193.794940L126.849368,191.828175L115.234528,184.200702L110.908976,185.943899L104.807167,188.401221L96.777868,191.631739L98.188210,184.381734Z " data-nuts-id="SI023" data-shape-area="2.69997337932e-001" data-shape-leng="3.22087906096e+000" data-stat-levl-="3"/><path d="M200.628969,491.155350L197.182134,489.124474L192.147400,486.156475L182.626742,480.539027L178.415724,478.052333L174.938027,475.997719L166.259941,470.866931L157.367141,465.603564L155.967371,464.774565L152.512111,463.892683L152.137247,463.796973L149.902551,463.226274L142.212822,461.260649L135.439693,459.526998L132.245546,458.708668L122.675418,456.253931L122.675414,456.253929L118.020795,453.376922L117.330877,452.950347L116.933855,452.704853L106.385461,446.178038L99.987970,442.215517L93.341917,454.768031L91.850769,457.582624L88.911624,463.128473L80.582142,462.372273L62.338791,460.705727L61.777903,465.804468L80.698283,469.580175L81.946123,469.828621L84.594638,470.355709L94.957581,477.498601L98.836279,480.169781L105.910370,485.038339L112.684907,489.696840L120.116056,494.802477L121.283008,495.603827L123.281925,496.976226L134.123976,521.410770L139.794389,527.029149L154.322641,541.405304L155.559461,542.627930L160.345546,547.357251L157.209133,550.419358L156.146190,551.456867L154.328279,553.230982L151.418342,556.070040L146.113668,561.243049L139.848591,567.348542L138.561774,568.602034L127.961596,567.078783L110.581800,564.570679L108.969275,564.337304L103.301614,563.516142L102.388674,563.383739L98.486579,562.817410L98.486577,562.817410L95.521248,563.725800L92.284413,564.716874L95.085032,566.651139L96.961688,567.946898L98.007678,568.668986L104.691075,573.280646L96.565061,586.293361L88.284786,586.924095L80.364865,587.524677L76.264635,587.834567L67.260496,588.512601L64.609509,588.711576L59.509660,589.093523L47.484249,589.989813L50.904177,592.978328L56.614952,597.965863L55.392612,603.407342L55.297282,603.831652L54.664961,606.645817L53.029807,613.921053L62.789028,619.480914L67.237108,622.012785L78.427306,628.376177L78.487613,628.410448L79.069138,628.740895L80.190238,629.377883L82.037098,630.427044L97.450580,626.232076L116.714394,620.973391L122.143259,630.121734L123.083593,631.705420L124.209964,633.602075L125.440481,635.673664L137.512985,638.051347L147.822832,640.076651L155.197383,629.046767L159.998761,628.518770L160.312930,628.484187L169.801875,627.437692L179.573403,626.356023L181.183610,618.140874L181.533929,616.353063L181.647568,615.773082L177.914260,611.423426L172.396448,604.990532L176.755673,600.979136L184.635992,599.716744L187.977744,599.180593L192.920575,603.506846L199.291203,609.078885L200.439693,610.082939L206.241085,615.152559L218.283188,616.921531L221.119917,617.539394L221.119917,617.539391L222.991818,606.163039L223.535872,602.855289L220.657712,602.467469L218.616154,602.192160L217.606496,602.055938L212.845247,601.412959L214.422033,597.400057L216.834822,591.257198L216.960846,590.936269L217.419879,589.767239L218.878039,586.053038L220.064076,583.031218L220.311932,582.399639L222.149883,577.715275L219.877818,576.914532L218.387051,576.388994L214.937437,575.172461L215.217676,570.190101L215.260114,569.435600L215.383050,567.249952L215.965151,556.901120L216.199060,552.742677L214.716582,548.046961L214.222302,546.480847L213.076526,542.849524L212.861336,542.167373L210.786170,535.586684L207.862188,526.306824L207.473875,525.073778L209.621959,515.316226L213.343984,513.775894L217.779618,511.939251L217.914195,511.883510L214.466310,500.774290L207.838063,496.168702L200.628969,491.155350Z " data-nuts-id="SI024" data-shape-area="1.19529498100e-001" data-shape-leng="2.48880557329e+000" data-stat-levl-="3"/></g></svg>