<?xml version="1.0" encoding="utf-8"?><!DOCTYPE svg  PUBLIC '-//W3C//DTD SVG 1.1//EN'  'http://www.w3.org/Graphics/SVG/1.1/DTD/svg11.dtd'><svg enable_background="new 0 0 1000 508" height="508px" pretty_print="False" style="stroke-linejoin: round; stroke:#000; fill: none;" version="1.1" viewBox="0 0 1000 508" width="1000px" xmlns="http://www.w3.org/2000/svg" xmlns:xlink="http://www.w3.org/1999/xlink"><defs><style type="text/css"><![CDATA[path { fill-rule: evenodd; }]]></style></defs><metadata><views><view h="508.245681769" padding="0" w="1000"><proj dist="1.6" id="satellite" lat0="48.3389963665" lon0="17.1700296816" tilt="0" up="0"/><bbox h="68.94" w="135.92" x="991.87" y="952.92"/></view></views></metadata><g class="" id="nutsregions"><path d="M74.470084,432.889373L82.655767,424.125065L83.506102,423.213691L84.526819,422.119474L86.104367,420.427830L86.798274,419.683545L87.277107,419.169879L88.897338,417.431374L89.710170,416.558967L92.681922,413.368032L89.490765,411.768921L85.085504,409.559568L85.542716,404.716740L85.637642,403.710825L89.400614,401.684204L97.945642,397.075993L101.456195,395.180336L101.768161,395.297204L107.861457,397.578026L111.295526,395.553661L112.442269,394.877334L112.775615,394.680702L112.904165,394.604869L114.484276,393.672590L115.684025,392.964518L116.060365,392.742371L119.097915,390.948711L119.642971,390.626736L121.904789,389.290237L123.153297,384.097082L123.124832,382.888742L122.957606,375.787572L121.494458,375.351900L119.201837,374.668868L116.997982,374.011853L114.544941,373.280057L119.541998,365.044821L121.682851,361.512998L119.755694,359.708309L118.268796,358.315390L113.376903,353.729548L112.876525,353.260203L110.196525,350.745556L115.174140,341.931760L115.174137,341.931756L112.123539,338.363492L110.186471,336.096401L104.476376,329.407494L104.017140,328.869149L103.857025,328.681438L102.524680,327.119197L97.826064,321.605943L88.390700,314.884930L86.299867,313.393802L84.035656,311.778296L84.035655,311.778295L84.035656,311.778294L87.416041,307.843457L88.570664,306.498733L92.079815,302.409579L93.361246,300.915504L90.767609,299.007053L90.641796,298.914451L85.687779,295.266230L81.954443,292.514456L80.026751,291.092753L80.087717,291.027449L81.144368,289.895467L81.266442,289.764672L97.094942,272.774637L95.799711,267.411695L95.799710,267.411694L93.343541,265.472805L92.116063,264.503467L92.115865,264.503310L88.433321,261.593718L82.750912,273.927065L71.911637,284.190224L66.825200,285.800464L63.355772,286.897489L59.991843,287.960143L52.752147,290.243755L52.752138,290.243758L48.963499,288.294251L46.670894,287.113769L40.916429,287.663528L38.497094,287.893923L27.627713,288.923622L24.952756,290.828526L21.750184,293.107767L20.683789,294.685213L20.059642,295.608265L19.064661,297.079426L15.426974,302.454741L14.645561,303.608740L11.294231,308.555307L11.007463,308.978373L4.230245,318.967417L4.675626,320.002142L6.414065,324.039258L6.137117,325.179556L4.956272,330.039402L4.824673,330.580793L4.072360,333.674939L3.515168,333.786751L2.627707,333.964786L0.985716,334.294024L2.040425,338.504360L2.167008,339.009486L2.379400,339.856939L2.676722,341.043076L3.085702,342.674300L13.296976,348.450391L14.276733,349.003935L14.061440,350.149182L13.970244,350.634246L13.235829,354.539257L12.862469,356.523639L14.056330,358.789071L16.274766,362.996395L16.274769,362.996400L17.956519,363.702613L18.011045,363.725505L22.855938,365.758408L20.917119,373.123896L20.892685,373.216669L22.539186,378.481887L26.180151,390.109646L30.329092,393.741757L34.023916,396.973617L35.754055,398.486093L38.490387,398.358873L40.602633,398.260290L41.896693,403.120834L42.240643,404.412116L42.319986,420.439062L42.356047,427.703878L43.757107,428.793735L46.356741,430.815094L47.578127,429.782715L49.962499,427.766555L59.009382,434.324118L69.140364,431.365499L73.461050,430.101008L74.470084,432.889373Z " data-nuts-id="SK010" data-shape-area="2.49298959646e-001" data-shape-leng="2.57553578731e+000" data-stat-levl-="3"/><path d="M100.464014,219.064303L94.392620,219.011455L85.305782,212.051378L80.284882,208.199947L64.865497,202.556508L60.851530,205.836456L51.255237,213.666673L49.958263,214.723742L49.958262,214.723743L49.958261,214.723744L49.278961,216.831307L47.857690,221.238645L47.692927,221.749378L47.198988,223.280248L46.686419,224.868476L46.037992,226.877112L42.088217,229.488942L41.730506,229.725376L40.887400,230.282569L38.793422,231.666015L37.569947,234.305315L36.662665,236.261788L36.159831,237.345837L32.867741,244.438467L32.677786,244.847467L30.365961,249.822965L29.060692,252.630384L27.907003,255.110719L24.922806,261.521875L20.300286,271.439639L20.572152,275.508337L21.524535,289.740506L21.750184,293.107767L24.952756,290.828526L27.627713,288.923622L38.497094,287.893923L40.916429,287.663528L46.670894,287.113769L48.963499,288.294251L52.752138,290.243758L52.752147,290.243755L59.991843,287.960143L63.355772,286.897489L66.825200,285.800464L71.911637,284.190224L82.750912,273.927065L88.433321,261.593718L92.115865,264.503310L92.116063,264.503467L93.343541,265.472805L95.799710,267.411694L95.799711,267.411695L97.094942,272.774637L81.266442,289.764672L81.144368,289.895467L80.087717,291.027449L80.026751,291.092753L81.954443,292.514456L85.687779,295.266230L90.641796,298.914451L90.767609,299.007053L93.361246,300.915504L92.079815,302.409579L88.570664,306.498733L87.416041,307.843457L84.035656,311.778294L84.035655,311.778295L84.035656,311.778296L86.299867,313.393802L88.390700,314.884930L97.826064,321.605943L102.524680,327.119197L103.857025,328.681438L104.017140,328.869149L104.476376,329.407494L110.186471,336.096401L112.123539,338.363492L115.174137,341.931756L115.174140,341.931760L110.196525,350.745556L112.876525,353.260203L113.376903,353.729548L118.268796,358.315390L119.755694,359.708309L121.682851,361.512998L119.541998,365.044821L114.544941,373.280057L116.997982,374.011853L119.201837,374.668868L121.494458,375.351900L122.957606,375.787572L123.124832,382.888742L123.153297,384.097082L121.904789,389.290237L119.642971,390.626736L119.097915,390.948711L116.060365,392.742371L115.684025,392.964518L114.484276,393.672590L112.904165,394.604869L112.775615,394.680702L112.442269,394.877334L111.295526,395.553661L107.861457,397.578026L101.768161,395.297204L101.456195,395.180336L97.945642,397.075993L89.400614,401.684204L85.637642,403.710825L85.542716,404.716740L85.085504,409.559568L89.490765,411.768921L92.681922,413.368032L89.710170,416.558967L88.897338,417.431374L87.277107,419.169879L86.798274,419.683545L86.104367,420.427830L84.526819,422.119474L83.506102,423.213691L82.655767,424.125065L74.470084,432.889373L80.388163,437.703400L80.388165,437.703400L89.272274,437.554732L91.357154,439.525057L92.228694,440.348448L96.054622,443.961179L97.310203,445.146145L101.911220,449.485662L104.141926,453.522646L104.359586,453.916406L106.911519,458.531089L107.923045,460.359258L110.980985,465.882601L115.618251,467.926471L119.007283,469.418798L123.280522,471.298810L124.513833,471.841060L125.929283,474.214705L126.917473,475.871287L127.465397,476.789616L129.036391,479.421832L131.239929,483.111903L132.691952,485.542216L135.684643,484.394448L136.840708,483.950841L138.704722,483.235309L138.704728,483.235314L146.146130,490.206492L146.863859,490.878282L149.772830,493.600009L156.667101,500.043775L161.091126,495.337780L172.206559,483.492947L172.913551,479.538223L173.106050,478.460991L173.890525,474.069111L174.527728,470.499423L181.118025,465.351097L185.650860,461.805901L187.140617,460.640001L188.936073,459.234369L188.936080,459.234364L188.857773,457.454402L188.849106,457.257370L188.834181,456.918075L188.566262,450.825840L188.537850,450.179600L188.069209,439.515140L188.038411,438.813985L187.520285,427.011754L187.454315,425.508223L187.379951,423.813135L187.350643,423.145012L175.571212,418.169267L175.646254,417.258387L176.251617,409.904941L176.458142,407.394053L175.321531,406.303245L170.176010,401.361752L165.456190,396.824279L164.734903,396.130453L171.835447,394.848025L175.677960,394.152379L176.752336,392.622762L177.896551,390.993233L175.713650,388.205620L172.871552,384.574007L174.252826,383.529613L176.310550,381.973187L177.687996,382.997109L180.267049,384.913461L180.488001,385.077591L187.245547,379.861816L185.912242,371.618757L184.296343,361.616586L184.141677,360.658535L184.141676,360.658531L181.415797,358.655586L181.045495,358.383405L178.381769,356.424893L180.720799,348.698631L181.089946,347.478379L181.268300,346.888726L182.467967,342.921055L185.347274,338.087466L185.453572,337.908941L186.471872,336.198435L188.488649,332.809179L189.918884,330.404384L191.535112,327.685617L194.366296,322.919910L198.286684,316.314045L200.508678,312.566512L201.213850,311.376670L201.213851,311.376669L197.139540,308.510584L196.878535,308.326897L195.434529,307.310476L189.705830,303.275124L185.813873,300.530874L185.104977,300.030790L180.011256,296.435317L182.088534,291.949181L184.634062,286.447149L185.610219,284.335870L187.761218,279.680921L188.032644,279.093269L188.828022,277.370897L190.420484,277.769210L192.049710,278.176503L196.389762,279.260412L198.800964,279.861929L201.394721,277.732567L202.886140,276.507642L203.056117,276.368013L204.328901,275.322310L203.347963,271.944355L195.838693,269.707366L186.189492,266.825760L181.946512,265.556107L180.388201,265.586641L175.245290,265.686146L169.722903,265.790830L169.722877,265.790810L168.417404,264.769434L159.093019,257.466184L158.874414,257.294794L155.685831,254.794005L154.292868,253.700992L151.345169,255.962223L150.091673,256.923376L149.604676,257.296727L140.938673,263.934005L138.496032,264.664181L138.363740,264.703712L137.078063,265.087816L132.951025,266.319823L132.690435,266.397565L124.681816,268.783910L120.296776,261.595209L117.981994,257.796826L112.794962,249.276239L113.883736,246.664919L114.274880,245.726526L115.447071,242.913459L116.277629,240.919470L117.185762,238.738496L117.185761,238.738495L116.567198,237.662569L113.903797,233.027615L113.903729,233.027497L113.903695,233.027439L105.499632,228.557537L105.074391,228.560572L101.307402,228.586875L92.830550,228.642259L98.872385,224.645639L99.393982,224.300370L99.393990,224.300365L100.464014,219.064303Z " data-nuts-id="SK021" data-shape-area="5.03768476278e-001" data-shape-leng="5.13794399214e+000" data-stat-levl-="3"/><path d="M351.900908,234.493737L344.285949,223.272806L342.833432,221.130022L340.776418,218.094127L338.790158,215.161157L338.629816,215.035449L334.248455,211.598852L329.747342,208.065123L329.240275,207.666831L328.802279,207.322761L328.499543,201.128350L328.014670,191.205298L327.757866,185.948801L327.919705,185.852735L330.449100,184.350882L332.200674,183.310387L327.581257,177.619485L317.021358,176.038879L308.195126,174.711232L304.814839,177.739957L302.751769,179.587350L300.746485,181.382191L297.740994,184.070786L287.321822,180.787149L289.035509,178.855683L289.668075,178.142529L290.021715,177.743787L295.086349,172.029517L298.546280,170.581010L299.434328,170.209033L303.054567,168.691802L305.530134,167.653542L308.630114,162.786545L310.750235,159.455367L310.750236,159.455365L310.750236,159.455362L310.594378,155.639318L310.506265,153.481905L310.268631,147.663348L309.560996,147.020065L306.057183,143.833485L306.057182,143.833484L307.461563,139.850901L308.574389,136.693151L308.574390,136.693149L307.905719,134.881568L305.722559,128.963639L302.120719,126.680358L300.722920,125.793808L297.240949,123.584266L296.078034,122.845967L292.485390,120.563986L290.080251,119.035343L286.901783,117.014028L286.866621,116.991660L285.795254,114.840846L284.206654,111.650337L283.727114,110.686927L283.417622,110.065072L282.200330,107.618610L282.136587,107.490475L281.982101,107.179924L281.711535,106.635986L272.756210,88.606383L269.826552,82.697095L267.591345,82.990860L264.105211,83.448273L261.068871,83.845917L261.068870,83.845917L261.068868,83.845918L248.697607,87.917864L244.095855,89.429000L237.099186,91.722943L232.988062,98.538915L230.683895,102.355353L230.991305,107.823116L231.316009,113.595906L228.517009,120.993283L228.149172,121.964733L226.003971,127.626976L224.230326,132.304391L224.990555,137.687531L225.854920,143.803706L225.854908,143.803728L224.141740,147.017695L222.426556,150.233613L220.644953,153.572125L218.099113,158.339308L218.099111,158.339309L210.050531,162.893399L208.161718,162.836156L194.437911,162.412372L189.812096,176.377982L189.351842,177.765748L185.936794,188.052909L180.586521,188.325040L179.060393,188.402276L178.506049,188.430289L173.848399,188.664758L173.090145,188.702778L167.910217,188.961372L167.201396,189.864770L162.578719,195.752469L160.998713,197.763288L158.181457,201.346736L157.360051,202.391057L156.662722,203.277463L154.926946,205.483211L154.761731,205.693109L154.266714,206.321953L154.266712,206.321955L149.184982,207.151926L144.352505,207.939335L139.842735,210.405429L137.999989,211.412413L135.775176,212.627646L132.040333,214.666371L130.128319,215.709438L128.339185,216.685080L123.593299,219.271257L121.549720,217.887527L120.515796,217.187222L119.052667,216.195948L117.093158,214.867903L110.801916,210.600400L106.342697,214.253550L104.291249,215.933009L100.464014,219.064303L99.393990,224.300365L99.393982,224.300370L98.872385,224.645639L92.830550,228.642259L101.307402,228.586875L105.074391,228.560572L105.499632,228.557537L113.903695,233.027439L113.903729,233.027497L113.903797,233.027615L116.567198,237.662569L117.185761,238.738495L117.185762,238.738496L116.277629,240.919470L115.447071,242.913459L114.274880,245.726526L113.883736,246.664919L112.794962,249.276239L117.981994,257.796826L120.296776,261.595209L124.681816,268.783910L132.690435,266.397565L132.951025,266.319823L137.078063,265.087816L138.363740,264.703712L138.496032,264.664181L140.938673,263.934005L149.604676,257.296727L150.091673,256.923376L151.345169,255.962223L154.292868,253.700992L155.685831,254.794005L158.874414,257.294794L159.093019,257.466184L168.417404,264.769434L169.722877,265.790810L169.722903,265.790830L175.245290,265.686146L180.388201,265.586641L181.946512,265.556107L186.189492,266.825760L195.838693,269.707366L203.347963,271.944355L209.794723,269.047907L209.353198,266.956479L207.416515,257.775776L207.403789,257.715409L206.146071,251.747136L206.118239,251.615011L205.161532,247.071821L209.617034,245.414489L211.054371,244.879437L211.154892,245.835488L211.340167,247.597345L213.725264,247.870135L214.956667,248.010806L215.918176,248.120567L225.314224,249.189507L228.567872,251.980673L229.883049,253.108370L233.963442,256.605133L235.069022,257.552066L236.521221,258.795550L239.668562,261.489253L244.614267,265.718551L245.604172,266.564543L246.380355,267.227761L252.193568,272.191527L250.098438,274.984551L248.782540,276.738000L247.653642,278.241790L245.071683,281.679523L246.334459,284.239227L247.008205,285.604523L248.053523,287.722204L249.939903,288.244078L250.862217,288.499130L257.673915,290.380582L262.388270,302.046698L268.828166,302.479785L269.621995,302.532958L272.020275,302.693317L277.497341,298.551603L283.633243,293.905947L289.261301,289.639452L291.705737,287.784790L293.361096,287.192482L302.593881,283.884195L303.522256,283.551100L306.073878,282.635181L307.089666,282.270389L312.572933,280.299563L313.145426,279.306103L313.288490,279.057813L321.500256,264.787212L322.604232,262.865853L333.220779,266.247164L333.220783,266.247165L336.064909,258.386453L338.731422,251.006797L339.565851,248.695527L343.112441,247.474216L344.574046,246.970559L346.843744,246.188050L346.843747,246.188044L347.824301,243.922480L348.182001,243.095791L351.119279,236.302781L351.900908,234.493737Z " data-nuts-id="SK022" data-shape-area="5.52295114756e-001" data-shape-leng="4.45166155470e+000" data-stat-levl-="3"/><path d="M262.099645,506.245682L269.219688,503.886884L279.559241,500.453331L280.347016,500.191330L290.424763,496.834680L292.266954,497.662179L295.919151,499.301693L297.412972,499.971893L300.800139,499.019126L301.265693,498.888094L304.129306,498.081712L307.449063,497.145999L310.886451,496.176132L310.886452,496.176132L318.176651,496.769045L326.933927,497.476025L333.754602,493.062451L339.441910,489.377369L342.345238,483.979389L343.151883,482.478714L356.304384,481.586117L358.147465,481.460004L361.176305,481.252203L361.393320,480.452179L361.887751,478.629036L359.291216,476.824659L356.381194,474.801303L351.964848,471.728308L346.965664,468.246434L345.793144,467.429275L346.635373,456.766088L347.208143,449.499739L347.282648,448.553668L347.355557,447.627671L347.572777,444.867656L343.572515,439.795850L350.497387,436.799602L352.492691,435.935363L353.694555,435.414596L354.519105,431.736535L354.800995,430.478557L355.661915,426.634814L356.719181,421.910814L356.829893,421.415909L357.148680,419.990616L358.359090,419.799958L360.215635,419.507303L366.129544,418.573282L367.925288,418.289131L374.036626,417.320218L383.531124,417.957831L384.713341,416.588459L384.970862,416.290118L387.207442,413.698222L389.202255,411.385305L392.727631,405.247454L393.556912,403.802624L395.295715,400.771914L395.355830,400.667104L398.130681,395.826966L398.302176,391.263913L398.720868,380.093281L394.753238,377.400517L388.971741,380.953563L386.558262,382.435472L374.000599,390.133670L362.015709,387.125876L361.619839,387.026325L359.046750,386.378940L355.519292,385.490551L352.142279,388.999320L351.744653,380.650693L351.121221,367.559377L351.619912,367.048996L357.184581,361.349896L357.631605,358.964815L359.079148,351.234263L357.231956,347.302517L353.978236,340.371401L352.572962,337.375660L351.035175,334.095905L345.316728,328.160028L341.729036,324.432195L341.273214,323.958362L340.703789,323.366371L339.497948,322.112505L333.738196,329.069515L328.099913,335.870150L323.476139,341.440022L317.361225,341.250059L309.723030,341.008902L307.355529,344.090313L304.442637,347.878987L300.938646,345.139645L303.957155,341.175005L304.667986,340.240917L308.014137,335.841487L309.770267,333.531040L306.804872,322.305822L305.365557,322.404476L304.128309,322.489157L303.040981,322.563483L303.008751,322.565685L302.727796,321.826523L299.630872,313.673672L300.383897,309.798942L302.357576,299.630583L297.128048,298.164051L295.597844,295.236679L291.705737,287.784790L289.261301,289.639452L283.633243,293.905947L277.497341,298.551603L272.020275,302.693317L269.621995,302.532958L268.828166,302.479785L262.388270,302.046698L257.673915,290.380582L250.862217,288.499130L249.939903,288.244078L248.053523,287.722204L247.008205,285.604523L246.334459,284.239227L245.071683,281.679523L247.653642,278.241790L248.782540,276.738000L250.098438,274.984551L252.193568,272.191527L246.380355,267.227761L245.604172,266.564543L244.614267,265.718551L239.668562,261.489253L236.521221,258.795550L235.069022,257.552066L233.963442,256.605133L229.883049,253.108370L228.567872,251.980673L225.314224,249.189507L215.918176,248.120567L214.956667,248.010806L213.725264,247.870135L211.340167,247.597345L211.154892,245.835488L211.054371,244.879437L209.617034,245.414489L205.161532,247.071821L206.118239,251.615011L206.146071,251.747136L207.403789,257.715409L207.416515,257.775776L209.353198,266.956479L209.794723,269.047907L203.347963,271.944355L204.328901,275.322310L203.056117,276.368013L202.886140,276.507642L201.394721,277.732567L198.800964,279.861929L196.389762,279.260412L192.049710,278.176503L190.420484,277.769210L188.828022,277.370897L188.032644,279.093269L187.761218,279.680921L185.610219,284.335870L184.634062,286.447149L182.088534,291.949181L180.011256,296.435317L185.104977,300.030790L185.813873,300.530874L189.705830,303.275124L195.434529,307.310476L196.878535,308.326897L197.139540,308.510584L201.213851,311.376669L201.213850,311.376670L200.508678,312.566512L198.286684,316.314045L194.366296,322.919910L191.535112,327.685617L189.918884,330.404384L188.488649,332.809179L186.471872,336.198435L185.453572,337.908941L185.347274,338.087466L182.467967,342.921055L181.268300,346.888726L181.089946,347.478379L180.720799,348.698631L178.381769,356.424893L181.045495,358.383405L181.415797,358.655586L184.141676,360.658531L184.141677,360.658535L184.296343,361.616586L185.912242,371.618757L187.245547,379.861816L180.488001,385.077591L180.267049,384.913461L177.687996,382.997109L176.310550,381.973187L174.252826,383.529613L172.871552,384.574007L175.713650,388.205620L177.896551,390.993233L176.752336,392.622762L175.677960,394.152379L171.835447,394.848025L164.734903,396.130453L165.456190,396.824279L170.176010,401.361752L175.321531,406.303245L176.458142,407.394053L176.251617,409.904941L175.646254,417.258387L175.571212,418.169267L187.350643,423.145012L187.379951,423.813135L187.454315,425.508223L187.520285,427.011754L188.038411,438.813985L188.069209,439.515140L188.537850,450.179600L188.566262,450.825840L188.834181,456.918075L188.849106,457.257370L188.857773,457.454402L188.936080,459.234364L188.936073,459.234369L187.140617,460.640001L185.650860,461.805901L181.118025,465.351097L174.527728,470.499423L173.890525,474.069111L173.106050,478.460991L172.913551,479.538223L172.206559,483.492947L161.091126,495.337780L156.667101,500.043775L160.731965,501.567247L169.354590,504.793785L172.606864,504.823282L178.166748,504.871901L178.625338,504.875809L182.355813,504.907024L190.509680,504.971676L207.860730,502.527137L207.865106,502.526517L208.828520,502.390106L212.051278,501.933273L212.641225,501.849560L225.216965,500.058710L226.105840,500.209061L239.373645,502.445967L243.778067,503.185510L246.926351,503.713211L247.066328,503.736655L258.986813,505.727599L262.099645,506.245682Z " data-nuts-id="SK023" data-shape-area="7.66343454682e-001" data-shape-leng="5.22486432086e+000" data-stat-levl-="3"/><path d="M457.276434,0.000000L454.629707,1.649032L447.635021,6.002477L444.987697,11.272493L442.538363,16.143730L440.264693,20.661625L438.156710,20.932079L432.095658,21.707828L422.276889,22.958599L417.758192,28.502254L416.542966,34.182658L414.314735,44.582090L413.667061,47.600969L412.861291,51.354312L412.196169,54.450469L409.985567,55.307574L404.658988,57.370874L403.541854,57.098642L400.974137,56.472535L394.443441,54.877685L390.588098,53.934548L386.647811,57.692162L384.902148,59.355815L384.207207,60.017923L381.429443,60.122198L374.649907,60.374314L374.249312,54.430735L374.225511,54.077549L373.823041,48.104607L372.830248,33.364657L372.725006,31.801626L365.260156,27.388107L354.662029,27.894598L354.465240,27.903925L350.310392,28.100173L348.755763,28.948646L341.707888,32.791544L335.063663,36.408902L330.536531,34.849621L328.092998,34.007229L325.688713,33.177842L322.676889,32.138143L321.170162,31.617706L315.808614,33.519280L312.040830,34.853999L312.040829,34.853999L308.650006,33.588375L304.757447,32.134160L303.469482,31.652680L298.981983,33.892397L299.098523,36.275757L299.216490,38.688075L299.406416,42.571468L295.455358,47.733841L291.534982,52.850837L287.238883,58.452207L282.996712,61.181373L280.294191,62.918729L274.738987,61.953586L276.952567,69.697076L276.952568,69.697078L270.771108,79.586516L270.771107,79.586517L264.610739,82.292117L261.068871,83.845917L264.105211,83.448273L267.591345,82.990860L269.826552,82.697095L272.756210,88.606383L281.711535,106.635986L281.982101,107.179924L282.136587,107.490475L282.200330,107.618610L283.417622,110.065072L283.727114,110.686927L284.206654,111.650337L285.795254,114.840846L286.866621,116.991660L286.901783,117.014028L290.080251,119.035343L292.485390,120.563986L296.078034,122.845967L297.240949,123.584266L300.722920,125.793808L302.120719,126.680358L305.722559,128.963639L307.905719,134.881568L308.574390,136.693149L308.574389,136.693151L307.461563,139.850901L306.057182,143.833484L306.057183,143.833485L309.560996,147.020065L310.268631,147.663348L310.506265,153.481905L310.594378,155.639318L310.750236,159.455362L310.750236,159.455365L310.750235,159.455367L308.630114,162.786545L305.530134,167.653542L303.054567,168.691802L299.434328,170.209033L298.546280,170.581010L295.086349,172.029517L290.021715,177.743787L289.668075,178.142529L289.035509,178.855683L287.321822,180.787149L297.740994,184.070786L300.746485,181.382191L302.751769,179.587350L304.814839,177.739957L308.195126,174.711232L317.021358,176.038879L327.581257,177.619485L332.200674,183.310387L330.449100,184.350882L327.919705,185.852735L327.757866,185.948801L328.014670,191.205298L328.499543,201.128350L328.802279,207.322761L329.240275,207.666831L329.747342,208.065123L334.248455,211.598852L338.629816,215.035449L338.790158,215.161157L340.776418,218.094127L342.833432,221.130022L344.285949,223.272806L351.900908,234.493737L361.936052,229.785727L361.936055,229.785729L362.528169,230.214756L365.461271,232.339232L367.063799,233.499425L368.987880,234.891917L378.785257,233.101260L382.075476,232.498212L384.904677,221.319937L381.365026,218.136738L380.443701,217.307810L380.697249,209.021424L380.780012,206.310827L384.986157,203.212943L392.082445,197.980077L395.445862,197.404580L420.600524,193.072432L424.145685,192.457899L424.145686,192.457900L427.922828,195.412622L427.922829,195.412623L427.759030,196.041032L425.990264,202.822167L427.597756,202.573744L429.342478,202.303888L431.767273,201.928454L433.440171,201.669171L437.292589,197.032830L437.308112,197.014139L441.997116,191.364822L446.116430,186.396300L448.497606,183.521855L466.958851,178.420259L469.884410,178.453708L473.181492,178.490651L477.940910,178.542571L482.759684,178.593443L489.415447,178.660900L491.256516,178.678985L492.880110,179.532158L494.504278,180.385338L494.893248,180.589622L500.082027,183.313110L502.165295,184.405733L505.569478,186.190104L507.017507,186.948727L511.688231,189.394133L511.688234,189.394135L511.688244,189.394130L517.352277,186.847193L524.194579,183.765897L527.996495,186.873906L541.743622,185.947703L544.594426,185.753870L554.858218,185.050994L566.509980,178.009180L563.713417,177.860913L561.638235,177.750519L554.728129,163.046345L552.000301,157.233475L556.495233,156.291282L557.782073,156.021243L558.801505,147.545213L559.313540,143.281262L560.749966,131.295578L556.976579,131.315068L549.612321,131.350090L545.890977,131.366270L545.068490,126.751758L547.675214,123.580178L552.043182,118.260859L549.493491,119.376043L541.172988,123.010548L540.199537,118.835764L538.716550,112.472269L533.966904,107.651147L533.058571,106.728601L533.058568,106.728598L525.680453,109.939957L518.332187,108.118100L514.821853,107.246227L512.120289,106.574545L514.816871,96.719181L516.039045,92.246218L516.574127,90.286682L521.750747,87.760856L518.056983,68.641839L517.423636,65.360099L516.876456,62.524008L514.884038,52.190568L511.074669,53.064705L506.476095,54.118356L499.299189,55.759303L493.098057,54.680340L487.431772,53.691840L488.734513,40.631208L483.586338,43.671695L483.586337,43.671696L482.853356,43.361967L478.306178,41.439333L477.434874,38.741672L468.327544,10.489234L468.327544,10.489233L459.394193,6.793807L458.306098,3.303906L457.276435,0.000002L457.276434,0.000000Z " data-nuts-id="SK031" data-shape-area="8.41524957564e-001" data-shape-leng="5.51412083316e+000" data-stat-levl-="3"/><path d="M554.858218,185.050994L544.594426,185.753870L541.743622,185.947703L527.996495,186.873906L524.194579,183.765897L517.352277,186.847193L511.688244,189.394130L511.688234,189.394135L511.688231,189.394133L507.017507,186.948727L505.569478,186.190104L502.165295,184.405733L500.082027,183.313110L494.893248,180.589622L494.504278,180.385338L492.880110,179.532158L491.256516,178.678985L489.415447,178.660900L482.759684,178.593443L477.940910,178.542571L473.181492,178.490651L469.884410,178.453708L466.958851,178.420259L448.497606,183.521855L446.116430,186.396300L441.997116,191.364822L437.308112,197.014139L437.292589,197.032830L433.440171,201.669171L431.767273,201.928454L429.342478,202.303888L427.597756,202.573744L425.990264,202.822167L427.759030,196.041032L427.922829,195.412623L427.922828,195.412622L424.145686,192.457900L424.145685,192.457899L420.600524,193.072432L395.445862,197.404580L392.082445,197.980077L384.986157,203.212943L380.780012,206.310827L380.697249,209.021424L380.443701,217.307810L381.365026,218.136738L384.904677,221.319937L382.075476,232.498212L378.785257,233.101260L368.987880,234.891917L367.063799,233.499425L365.461271,232.339232L362.528169,230.214756L361.936055,229.785729L361.936052,229.785727L351.900908,234.493737L351.119279,236.302781L348.182001,243.095791L347.824301,243.922480L346.843747,246.188044L346.843744,246.188050L344.574046,246.970559L343.112441,247.474216L339.565851,248.695527L338.731422,251.006797L336.064909,258.386453L333.220783,266.247165L333.220779,266.247164L322.604232,262.865853L321.500256,264.787212L313.288490,279.057813L313.145426,279.306103L312.572933,280.299563L307.089666,282.270389L306.073878,282.635181L303.522256,283.551100L302.593881,283.884195L293.361096,287.192482L291.705737,287.784790L295.597844,295.236679L297.128048,298.164051L302.357576,299.630583L300.383897,309.798942L299.630872,313.673672L302.727796,321.826523L303.008751,322.565685L303.040981,322.563483L304.128309,322.489157L305.365557,322.404476L306.804872,322.305822L309.770267,333.531040L308.014137,335.841487L304.667986,340.240917L303.957155,341.175005L300.938646,345.139645L304.442637,347.878987L307.355529,344.090313L309.723030,341.008902L317.361225,341.250059L323.476139,341.440022L328.099913,335.870150L333.738196,329.069515L339.497948,322.112505L340.703789,323.366371L341.273214,323.958362L341.729036,324.432195L345.316728,328.160028L351.035175,334.095905L352.572962,337.375660L353.978236,340.371401L357.231956,347.302517L359.079148,351.234263L357.631605,358.964815L357.184581,361.349896L351.619912,367.048996L351.121221,367.559377L351.744653,380.650693L352.142279,388.999320L355.519292,385.490551L359.046750,386.378940L361.619839,387.026325L362.015709,387.125876L374.000599,390.133670L386.558262,382.435472L388.971741,380.953563L394.753238,377.400517L398.720868,380.093281L398.302176,391.263913L398.130681,395.826966L395.355830,400.667104L395.295715,400.771914L393.556912,403.802624L392.727631,405.247454L389.202255,411.385305L390.755852,412.403820L394.388138,414.783839L397.199349,416.624649L399.048146,415.916919L404.693007,413.753994L405.247308,413.541439L409.497923,411.910486L412.241842,412.579093L413.804792,412.959659L415.768866,413.437613L419.457274,414.334325L421.694520,414.877694L425.995746,415.921199L429.437117,416.755008L429.437119,416.755009L430.745850,415.590098L435.668643,411.205254L436.120070,410.802918L438.228691,408.923067L440.114525,407.241086L443.016460,407.242904L445.038972,407.243803L449.927631,407.244730L455.899378,407.243467L459.066665,407.241728L459.921945,407.241131L468.305906,407.232421L470.037247,407.229975L472.115117,400.037514L475.410484,388.611117L477.063536,382.870201L477.516362,381.296506L479.195297,375.457738L481.975153,373.458556L491.957460,366.269730L497.374190,362.362356L503.639315,364.478017L504.104526,365.483360L504.957409,367.326113L504.961295,367.334508L507.514762,372.848728L513.794500,374.787460L515.024671,373.904124L517.876722,371.855277L519.062506,371.003066L523.632081,373.822225L528.077303,376.562151L526.184994,381.180745L525.004563,384.059847L527.288227,387.117411L529.607770,385.567325L531.243656,384.473642L533.100583,383.231711L537.131171,380.534302L537.763725,380.110762L537.764400,380.111017L543.185676,382.154887L545.601113,383.064648L545.847565,388.592784L546.012581,392.295823L546.093890,394.120908L552.786198,392.192668L553.901287,390.487188L556.471454,386.554052L559.014225,382.659845L562.327735,381.459157L564.108608,380.813406L564.158140,380.795441L566.345413,380.001907L568.584154,379.189231L571.393438,380.887762L572.731170,381.696232L580.498072,371.473497L581.344746,370.357806L585.589102,364.760999L586.645340,363.367187L589.941822,359.014565L593.293902,358.813640L599.191321,358.458108L601.036316,356.365779L602.345682,354.880297L604.142752,352.840721L609.916602,354.238242L612.934684,354.967665L616.994630,353.166964L620.090461,351.792707L622.353497,347.664326L626.550252,339.999591L626.896846,339.366081L628.059878,337.239707L629.954859,333.773231L633.528364,327.229898L633.774248,324.002993L634.069720,320.120965L634.154095,319.011534L634.422471,315.480135L634.691225,311.939815L634.783848,311.844873L637.670623,308.884754L639.111902,307.406089L643.507030,302.893797L642.325266,299.870275L640.744998,297.378176L640.744994,297.378178L637.054623,299.175288L636.838082,299.280689L634.382515,300.475579L633.536890,300.886907L630.486455,302.370034L628.304247,302.182567L620.580243,301.516164L619.634570,300.799201L614.427739,296.849230L613.918159,291.977450L613.338747,286.437230L616.255254,278.996537L618.471782,273.334553L621.822498,264.763657L618.916322,263.978328L616.021397,263.195338L611.201913,261.890264L610.346753,258.191870L608.713070,251.122845L607.374434,245.326896L606.874341,243.160785L599.329334,237.982982L592.684326,233.416351L589.952580,231.537265L589.829552,228.972391L589.584141,223.858110L590.544543,222.843233L593.903590,219.291799L591.593501,207.376745L599.094419,197.583035L603.272548,192.119051L591.841196,187.055023L588.875185,185.738958L584.004981,188.840229L584.004884,188.840217L572.047308,187.293445L571.861522,187.269327L554.858218,185.050994Z " data-nuts-id="SK032" data-shape-area="1.14876991089e+000" data-shape-leng="5.99719989916e+000" data-stat-levl-="3"/><path d="M791.822548,34.106461L786.029244,32.434977L783.923813,31.826817L781.303347,31.069367L779.188198,30.457556L777.799342,30.055622L777.798678,30.055430L777.798216,30.055297L777.798065,30.055253L777.797785,30.055172L770.788207,28.024121L768.950816,30.693248L768.103892,31.923044L765.521632,35.670700L762.744169,39.698342L762.622142,39.875217L761.737996,41.156564L759.678137,44.140464L754.909354,44.478161L753.508158,43.292570L752.640417,42.558188L744.737142,35.863748L733.072559,40.463641L733.072556,40.463642L733.148678,45.013621L735.742133,47.282386L740.982535,51.863166L741.774882,52.555366L739.085972,55.143970L737.400657,56.765568L736.477729,56.538940L735.434636,56.282723L733.769071,55.873423L733.163291,55.724502L731.931583,55.421613L726.739194,61.492006L726.156271,62.172980L722.811982,66.077783L722.812278,66.317318L722.812863,66.793455L722.818496,71.533222L719.762372,72.468227L713.793255,74.292038L712.104594,74.807416L706.249566,67.634525L704.458023,65.437932L701.396592,61.682378L699.020165,63.036566L697.772659,63.747159L694.710589,65.490508L692.680736,63.848445L688.119665,60.156339L683.211095,56.179223L682.553947,54.604277L681.522169,52.130853L681.486157,52.044510L680.752988,50.286441L678.254563,44.292552L667.545001,46.363374L661.449188,47.537971L659.270950,46.192239L658.662690,45.816346L657.216877,44.922676L656.357823,46.481347L652.199362,54.019635L650.931391,56.315914L638.490801,49.699550L638.090783,49.486520L636.176202,48.466658L633.334195,46.952018L628.352723,46.482990L625.882685,46.249741L625.263633,46.849171L623.478884,48.576861L622.189520,49.824549L618.106995,53.772606L615.892623,53.282352L606.914726,51.290669L606.893414,54.342482L606.809740,66.150314L604.618531,66.277595L598.120472,66.652951L588.599698,67.197254L584.498501,69.996036L581.510689,72.033430L581.473132,72.059032L577.964891,74.449589L577.261384,74.928747L574.725500,81.511414L570.590860,92.226315L570.227382,93.167213L569.872245,97.711590L569.568174,101.597601L568.752389,112.000946L556.696109,106.504170L550.955774,100.134751L549.733061,98.777030L545.586319,98.996714L543.267540,99.119002L542.947780,99.135834L542.937246,99.136389L542.924170,99.137077L536.155598,99.491589L534.607460,103.110452L533.058568,106.728598L533.058571,106.728601L533.966904,107.651147L538.716550,112.472269L540.199537,118.835764L541.172988,123.010548L549.493491,119.376043L552.043182,118.260859L547.675214,123.580178L545.068490,126.751758L545.890977,131.366270L549.612321,131.350090L556.976579,131.315068L560.749966,131.295578L559.313540,143.281262L558.801505,147.545213L557.782073,156.021243L556.495233,156.291282L552.000301,157.233475L554.728129,163.046345L561.638235,177.750519L563.713417,177.860913L566.509980,178.009180L554.858218,185.050994L571.861522,187.269327L572.047308,187.293445L584.004884,188.840217L584.004981,188.840229L588.875185,185.738958L591.841196,187.055023L603.272548,192.119051L607.018269,188.511902L611.977209,183.731548L615.352814,180.474327L614.442484,177.153861L614.097007,175.893412L614.097005,175.893411L612.078812,175.401256L609.475523,174.765930L607.845418,174.367826L609.312090,172.360122L610.316147,170.985202L624.678924,160.399248L629.610952,156.756423L632.511908,157.498235L642.805055,160.124749L644.120348,159.098310L645.557775,157.976216L646.942911,156.894602L649.135156,158.247261L650.471934,159.071786L653.749819,161.092645L654.258935,161.406402L657.881565,163.638019L662.160633,166.271916L665.993543,168.629260L668.094902,167.288364L675.025399,162.861561L676.419891,161.970025L678.785253,160.457158L679.330957,160.108018L680.567998,160.587950L681.293478,160.869346L683.188495,161.604145L684.672319,162.179267L689.113128,163.899272L689.684765,161.253116L689.805227,160.695294L690.232154,158.717768L690.334173,158.245091L694.450003,156.986954L699.693633,159.010511L705.382906,161.203144L707.375716,161.970455L707.896489,162.170912L709.147897,162.652504L712.018847,163.756808L718.118392,166.100436L719.293416,166.551518L721.352156,167.341540L727.393283,163.938788L731.221482,172.267466L733.688478,177.629996L738.335677,177.752030L738.738806,177.762541L740.605198,177.811047L741.271232,177.828294L744.462736,177.910485L753.185482,178.131282L754.586426,178.166220L757.160279,180.564732L759.490534,182.735184L759.623814,182.859294L762.711912,185.733998L775.152881,185.808591L774.904883,190.101501L774.548806,196.251503L776.277375,197.641815L776.473684,197.799679L779.847540,200.511861L784.849757,198.011589L786.784121,197.043957L789.009411,195.930259L795.519968,192.668616L795.846337,189.121610L796.450264,182.547092L796.598795,180.927941L802.224035,181.842874L802.923199,181.956421L805.789927,182.421596L809.447630,183.014200L815.154530,179.811143L817.547940,184.627981L817.947888,185.432603L821.084300,191.739603L823.423350,196.439873L823.717712,197.031185L825.067151,199.741360L825.247993,200.104485L825.852347,201.317891L826.533024,202.684310L828.268864,203.149540L835.612529,205.114983L841.269076,206.625838L845.111312,207.650580L852.254182,209.552363L853.882978,208.845759L859.233361,206.522684L861.392572,205.584321L864.110406,204.402486L871.969437,200.980629L870.516211,193.700283L870.120782,191.718749L870.058647,191.407366L869.165682,186.931731L868.622251,184.207445L868.202113,182.100950L867.532788,178.744561L867.201356,177.082331L867.742906,175.881623L869.301184,172.425002L869.687371,171.567969L870.789619,171.775664L873.503061,172.286548L877.975926,173.127436L883.175511,174.102978L885.844887,174.602982L887.274064,174.870454L888.369486,175.597513L895.352153,180.228422L900.466165,183.616028L900.537895,183.663519L903.888623,185.881228L903.942077,185.916595L913.298183,184.818114L917.855025,184.280661L928.245541,183.049171L927.914818,180.837054L927.086548,175.296642L926.537280,171.622251L926.985619,171.248204L932.122446,166.959803L938.749611,161.419665L940.961441,159.568734L949.717106,176.033629L949.717107,176.033629L959.962478,175.798008L971.465236,175.524130L977.705775,169.137462L977.936865,160.998418L977.983616,159.344668L978.062558,156.546619L983.502319,144.816328L985.437181,140.636956L985.848810,139.747343L987.692444,139.016904L987.834472,138.960618L990.695431,137.826395L996.831453,135.390974L998.889600,114.638833L999.014284,113.376559L990.783939,112.817161L982.554928,112.252800L975.585761,111.770888L972.401866,111.549518L968.686793,106.896291L965.544435,102.957639L963.352607,100.208884L960.617701,101.415842L955.818224,103.531981L955.307214,103.757145L940.199159,96.424347L934.520145,93.661875L931.905353,92.388821L924.097386,88.583156L904.935332,83.844730L904.741011,81.284811L904.736449,81.224721L904.533121,78.546918L903.806067,68.978239L901.375541,66.911992L894.547607,61.102214L894.512860,61.072630L893.551856,58.955733L891.821872,55.143598L889.944900,51.005622L889.944899,51.005622L888.434488,50.901128L883.236593,50.540228L881.019502,50.385679L877.669021,47.870903L874.490601,45.483765L873.898102,45.038609L868.559147,41.025046L859.966362,47.878233L853.572164,42.027529L850.768840,39.460176L847.635725,36.589124L843.559923,36.535227L842.443091,36.520244L837.767773,36.456522L836.637170,34.941046L834.911963,32.627837L831.690853,28.306570L831.690852,28.306570L828.787747,29.334914L823.422832,31.233174L822.048191,31.719120L818.155015,33.094410L812.875052,34.957288L810.527646,35.784649L810.417851,35.823334L809.364412,36.194446L806.387846,37.242477L803.015478,38.428852L800.261787,39.396780L793.111119,34.914804L791.822548,34.106461Z " data-nuts-id="SK041" data-shape-area="1.10978241325e+000" data-shape-leng="7.23963778109e+000" data-stat-levl-="3"/><path d="M971.465236,175.524130L959.962478,175.798008L949.717107,176.033629L949.717106,176.033629L940.961441,159.568734L938.749611,161.419665L932.122446,166.959803L926.985619,171.248204L926.537280,171.622251L927.086548,175.296642L927.914818,180.837054L928.245541,183.049171L917.855025,184.280661L913.298183,184.818114L903.942077,185.916595L903.888623,185.881228L900.537895,183.663519L900.466165,183.616028L895.352153,180.228422L888.369486,175.597513L887.274064,174.870454L885.844887,174.602982L883.175511,174.102978L877.975926,173.127436L873.503061,172.286548L870.789619,171.775664L869.687371,171.567969L869.301184,172.425002L867.742906,175.881623L867.201356,177.082331L867.532788,178.744561L868.202113,182.100950L868.622251,184.207445L869.165682,186.931731L870.058647,191.407366L870.120782,191.718749L870.516211,193.700283L871.969437,200.980629L864.110406,204.402486L861.392572,205.584321L859.233361,206.522684L853.882978,208.845759L852.254182,209.552363L845.111312,207.650580L841.269076,206.625838L835.612529,205.114983L828.268864,203.149540L826.533024,202.684310L825.852347,201.317891L825.247993,200.104485L825.067151,199.741360L823.717712,197.031185L823.423350,196.439873L821.084300,191.739603L817.947888,185.432603L817.547940,184.627981L815.154530,179.811143L809.447630,183.014200L805.789927,182.421596L802.923199,181.956421L802.224035,181.842874L796.598795,180.927941L796.450264,182.547092L795.846337,189.121610L795.519968,192.668616L789.009411,195.930259L786.784121,197.043957L784.849757,198.011589L779.847540,200.511861L776.473684,197.799679L776.277375,197.641815L774.548806,196.251503L774.904883,190.101501L775.152881,185.808591L762.711912,185.733998L759.623814,182.859294L759.490534,182.735184L757.160279,180.564732L754.586426,178.166220L753.185482,178.131282L744.462736,177.910485L741.271232,177.828294L740.605198,177.811047L738.738806,177.762541L738.335677,177.752030L733.688478,177.629996L731.221482,172.267466L727.393283,163.938788L721.352156,167.341540L719.293416,166.551518L718.118392,166.100436L712.018847,163.756808L709.147897,162.652504L707.896489,162.170912L707.375716,161.970455L705.382906,161.203144L699.693633,159.010511L694.450003,156.986954L690.334173,158.245091L690.232154,158.717768L689.805227,160.695294L689.684765,161.253116L689.113128,163.899272L684.672319,162.179267L683.188495,161.604145L681.293478,160.869346L680.567998,160.587950L679.330957,160.108018L678.785253,160.457158L676.419891,161.970025L675.025399,162.861561L668.094902,167.288364L665.993543,168.629260L662.160633,166.271916L657.881565,163.638019L654.258935,161.406402L653.749819,161.092645L650.471934,159.071786L649.135156,158.247261L646.942911,156.894602L645.557775,157.976216L644.120348,159.098310L642.805055,160.124749L632.511908,157.498235L629.610952,156.756423L624.678924,160.399248L610.316147,170.985202L609.312090,172.360122L607.845418,174.367826L609.475523,174.765930L612.078812,175.401256L614.097005,175.893411L614.097007,175.893412L614.442484,177.153861L615.352814,180.474327L611.977209,183.731548L607.018269,188.511902L603.272548,192.119051L599.094419,197.583035L591.593501,207.376745L593.903590,219.291799L590.544543,222.843233L589.584141,223.858110L589.829552,228.972391L589.952580,231.537265L592.684326,233.416351L599.329334,237.982982L606.874341,243.160785L607.374434,245.326896L608.713070,251.122845L610.346753,258.191870L611.201913,261.890264L616.021397,263.195338L618.916322,263.978328L621.822498,264.763657L618.471782,273.334553L616.255254,278.996537L613.338747,286.437230L613.918159,291.977450L614.427739,296.849230L619.634570,300.799201L620.580243,301.516164L628.304247,302.182567L630.486455,302.370034L633.536890,300.886907L634.382515,300.475579L636.838082,299.280689L637.054623,299.175288L640.744994,297.378178L640.744998,297.378176L642.325266,299.870275L649.190211,292.595197L649.102467,287.328717L649.067632,285.242887L648.993186,280.794497L648.993281,280.794457L651.168601,279.870586L655.901748,277.858706L657.049822,278.173943L660.876577,279.223895L663.046476,279.818709L669.796315,275.503919L672.559202,273.735921L674.550039,272.461301L675.955309,272.176360L682.309888,270.885877L685.196401,270.298606L699.277898,267.423996L702.580841,266.747403L706.837849,265.874067L708.777906,265.475572L710.406350,269.105870L711.917950,272.474185L712.270316,273.259157L713.846807,272.761876L714.874926,272.437450L720.307429,270.721621L720.602679,270.628291L720.881217,270.982349L723.556155,274.381461L724.618395,275.730730L725.277807,276.568166L725.619124,277.001583L728.084685,280.131493L728.509531,280.670646L730.220828,280.469249L731.964742,280.263782L733.947311,280.029914L736.431931,279.736398L739.410071,279.383957L741.734327,279.108426L745.086414,278.710320L747.372678,278.438300L748.424216,279.419631L751.614209,282.395387L753.196620,283.870826L756.818246,287.245886L759.488910,285.395703L762.491358,283.314365L770.777714,277.562988L772.378833,276.450473L773.633303,275.578546L778.739439,276.137131L782.373520,276.533484L782.996365,276.601315L786.190043,276.948662L786.488482,276.981081L789.211897,277.276614L789.449477,276.309958L789.680764,275.368711L789.960012,274.232021L790.833494,270.674655L791.027101,269.885788L791.340009,268.610534L791.701594,267.136455L791.886075,266.384192L797.947164,266.357447L802.815681,266.333990L804.294045,266.326519L805.013723,266.322824L806.570921,266.314696L808.259191,266.305680L809.100500,264.698986L811.987578,259.181414L811.987579,259.181415L815.282582,262.554309L820.179481,267.562862L823.967922,271.434323L829.907112,277.497772L830.989067,278.601591L837.980034,277.941451L841.179823,277.638063L843.102456,277.455393L843.768952,279.720125L844.045988,280.661343L844.973604,283.812294L845.420480,285.329927L846.171597,287.880321L847.728386,293.164447L849.778468,296.188733L853.987461,302.393523L857.422732,307.453406L858.918537,309.655401L861.323850,313.194763L861.601821,313.603669L861.839887,313.953852L863.214458,315.975421L864.285820,317.550635L864.893574,318.444045L864.893575,318.444047L864.893576,318.444048L867.276550,318.997845L871.057956,319.875691L872.651077,320.245185L875.057547,320.802930L881.985764,322.406060L885.202982,317.254117L886.673079,314.898119L887.762857,313.150880L892.571527,313.206030L893.853216,313.220439L896.705587,313.252067L898.411123,313.270690L900.165224,313.289616L901.676120,312.608195L902.286158,312.332994L904.554669,311.309269L905.667815,310.806729L906.811167,310.290412L911.327932,308.249336L914.553594,306.790339L916.273598,306.011904L920.801400,306.255002L922.454965,306.343401L924.064689,306.429260L927.932917,306.634790L932.133997,306.856740L934.491231,306.980699L934.491232,306.980699L936.503520,304.430407L937.844108,302.730599L940.050786,299.931231L936.648571,294.397337L936.708994,292.920804L937.067121,284.141354L937.285819,278.756060L937.737891,267.565629L938.187832,256.348301L941.619406,246.773430L942.350351,244.731400L943.333974,243.887974L948.387301,239.551861L951.355350,237.002681L952.539455,235.985191L957.356751,231.842833L967.238087,223.331332L970.042929,211.866413L968.653874,207.416237L968.418971,206.663499L966.812536,201.514429L968.040752,199.761668L969.518234,197.652300L969.601434,197.533488L971.923802,194.215855L973.472060,192.002751L973.472061,192.002750L973.269837,190.341937L971.465236,175.524130Z " data-nuts-id="SK042" data-shape-area="8.25596635213e-001" data-shape-leng="6.00530459168e+000" data-stat-levl-="3"/></g></svg>